<?xml version="1.0" encoding="utf-8"?>
<!-- Generator: Adobe Illustrator 22.0.0, SVG Export Plug-In . SVG Version: 6.00 Build 0)  -->
<svg version="1.1" id="Layer_1" xmlns="http://www.w3.org/2000/svg" xmlns:xlink="http://www.w3.org/1999/xlink" x="0px" y="0px"
	 viewBox="0 0 875.2 876.3" style="enable-background:new 0 0 875.2 876.3;" xml:space="preserve">
<style type="text/css">
	.st0{fill-rule:evenodd;clip-rule:evenodd;fill:#FCF7ED;}
</style>
<g>
	<g>
		<path class="st0" d="M874.1,99.5c0.7-3.1-0.4-21.5-1-19.1C872.5,83.6,873.6,102,874.1,99.5z M873.1,128c-0.4,1.7-0.1,16.3,0,19
			C873.6,191.7,874.2,122.8,873.1,128z M873,170.7c-1.1,5.2-0.9,15.9-0.4,25.4c0.2,4.7,0.6,9.1,0.8,12.3c0.3,3.2,0.4,5.3,0.4,5.3
			C875.2,207.5,872,175.4,873,170.7z M872.8,218.3c-0.3,1.3,0.5,11.9,0.9,9.7C874,226.7,873.3,216.1,872.8,218.3z M866.9,520
			c-0.6,2.8,0.2,21.7,0.6,19.5C868.1,536.7,867.4,517.8,866.9,520z M866.2,638.4c0.2,2.5,0.4,4.8,0.6,6.4c0.2,1.6,0.3,2.6,0.3,2.5
			c0.5-2.3-0.6-94.2-0.6-94.2C865.7,557.3,865.9,633.4,866.2,638.4z M864.7,843.1c-0.3,1.4-0.2,16.2-0.2,18.9
			C864.5,906.7,865.6,838.7,864.7,843.1z M642.7,3.3c-0.2-0.1,2.2-0.1,6.4-0.1c4.2,0,10.2-0.1,17.3-0.1c14.2-0.1,13.6-0.1,30.5-0.2
			c33.7-0.2,60.8-0.6,34-1.6c-26.3-1-35.6-0.6-60.6,0C639.3,2,634.3,0.1,642.7,3.3z M856.4,521.1c0,0,0-0.1,0-0.1
			C856.4,520.9,856.4,520.9,856.4,521.1z M8.4,489.9c0.1,3.1,0.2,6.1,0.3,9.1c0.1-16.8,0.1-28.9,0.2-32.6c0-3.5,0-6.9,0-10.1
			c0-0.7,0-1.4-0.1-2.1C8.7,461.4,8.5,474.9,8.4,489.9z M850.3,0.3c-37.5,0-58.8,0.5-72.8,1c-36.2,1.4,43.4,1,42,1
			c8.4,0,17.4,0.1,30.8,0.1l9.8,0l0,9.7c-0.4,84.8-1.4,214.8-2.1,288c-0.4,43.4,0.6,134.5-1.3,140.4c0-0.4,0.1-55.5,0.2-75
			c0.1-26.9-1.2-58.8-0.8-79.9c0.2-8.9,2-34.6,2-37.1c0-14.6,0-34.5,0.1-56.3c0.4-46.6,0.3-80.9,0.1-112.6
			c-0.2-22.6-2.1-50.8-0.9-67.5l0.5-6.5l-7.4-0.5c-2.9-0.2-5.4-0.5-7.5-0.9c-24.7,0.5-86.1,1-153.8,1c-222.3,0-397.4,1.6-600.9,3
			C61.8,8.4,35.3,8.2,9,7.8L4.8,7.8l-0.1,4.3c-0.6,48.7-1.6,96.4-0.6,139.9c0.3,11.6,1.9,21.1,2,32.6c0.5,51.9,0.4,104.5,0,158.4
			c-0.8,101.6,0.7,196.8,1,332.3c0.1,37.3-2.3,130.6-1,152.5c0.9,15.7,2-16.8,2.9,13.9v7.4c-0.4-2.4-1.3-14.8-1.9-11.9
			c-1.4,7.2-0.1,17.6,1.3,25.8l0.1,0.7l0.5-0.1c1.3-0.2,2.5-0.4,3.7-0.6h21.1c-6.6,0.2-12.6,0.5-18,0.9c-7.7,0.6,8.6,1.1,4.7,1
			c24.6,0.4,42.7,0,65.4,0c44.5-0.1,79.7,1,113.8,1.6c34,0.7,66.9,0.9,105.9-0.7c20.2-0.8-51-0.9-61-0.9c-57.1-0.4,12-1.1,46.4-1
			c56.2,0.3,96.9,0.5,159,0.9c82.6,0.2-25.1,0-60.4,1c-41.7,1.2,47.4,0.6,65.8,0.9c2.6,0,38.5-0.1,42.1-0.1c11-0.2,23.8-0.1,37-0.1
			c-16.6,0.5-30.8,1.2-31.9,1c4.8,0.8,25.5,0.5,45.1,0c9.8-0.3,19.3-0.5,26.5-0.8c7.1-0.2,11.9-0.4,12.1-0.3c-0.2,0-0.4,0-0.5-0.1
			c8.8-0.1,16.8-0.4,23.4-0.8c14.8-0.9-22.7-0.8-23.9-0.8c-81,0.1-163.8-1.2-230.9-1.6h254.3c1.6,0.1,4,0.1,6.7,0h26.3
			c0.7,0,1.6,0,2.6,0h206v-10.9c0.2,0.5,0.4,0.9,0.6,1.3c1.2,2.4,6.2,12,7.1,7c1.8-9.7,2.1-102.4,1.8-147.2
			c-0.3-44.8-1.4-306-1.4-179.9c-0.1,41.7-0.2,37.9-0.3,7.5c-0.1-74.4,0.9-164.6,1.9-256.5c1-91.9,2.1-186.4,2.1-270.3
			c0-0.8,0-1.5,0-1.8l0-11.9L850.3,0.3z M7.1,49.6C7.8,46.5,6.7,51.5,7.1,49.6L7.1,49.6z M7.1,208c0-0.1,0.2,0.8,0.5,2.2
			c0.3,1.5,0.6,3.5,0.8,5.9c0.5,4.7,0.7,10.6-0.3,15.2C8.1,231.3,6.6,210.5,7.1,208z M8.3,258.3c0,0.1-0.1,0.3-0.1,0.4
			c0,0.1-0.1,0.3-0.1,0.4c0,0.1,0,0.1,0,0.2c0-0.2,0.1-0.4,0.1-0.6C8.3,258.6,8.3,258.4,8.3,258.3z M8.1,754.5
			C8.1,754.8,8,755,8,755c0-0.1,0.2-1,0.3-1.3C8.3,753.8,8.2,754.1,8.1,754.5z M9,745.3c-0.8-3.1-0.4-80.3,0-41.4V745.3z M9,449
			c0-0.4-0.1,0.1-0.1,1.3c0,1.9,0,3.9,0,6c0,1.2,0.1,2.3,0.1,3.5V471c0-5.8-0.1-7-0.1-4.6c0,11.4-0.1,24.5-0.1,37.3
			c0.1,3,0.2,5.8,0.2,8.5v172.3c-0.5-4.2-0.6-67.1-0.5-124.4c-0.2-1.1-0.4-1.8-0.4-1.7c-0.3,1.2,0-36.9,0.2-68.5
			c-0.9-31.4-1.9-69.2-0.2-76.9c-0.7,3.1,0,20.5,0.7,41.3c0-1.7,0.1-3,0.1-3.9c0-11,0.1-18.2,0.1-17.9V449z M98.2,11.6
			c0.7-0.3,1.8-0.5,3.8-0.4c-1-0.1,3.4,0.3,9.9,0.9H97.5C97.6,12,97.8,11.8,98.2,11.6z M207.3,864.8c-23.2,0.3-59.6-0.8-95.9-1.5
			c-5.4-0.1-10.7-0.2-16-0.3h121.4C214.3,863.7,215,864.7,207.3,864.8z M210.9,12.1c2.7-0.1,5.2-0.1,6.8,0H210.9z M289.3,12.1
			c34.2-1.1,117.8-0.3,162.6,0H289.3z M782.4,12.1H676.7c26.2-0.7,85.3-4.2,124.1-0.9C803.4,11.5,787.5,11.9,782.4,12.1z
			 M824.2,12.1h-5c-0.3-0.5,8.4-1.1,9.6-0.9C830.1,11.5,827.2,11.9,824.2,12.1z M856.5,502.4C855.9,505.2,856.9,500.6,856.5,502.4
			L856.5,502.4z M856.4,474.2c0-0.2,0.1-0.4,0.1-0.6c0,0,0,0,0,0C856.5,473.9,856.5,474.1,856.4,474.2z M857.2,559.1
			c-2.4,4.1-2.1-45.7-0.7-42.7c1.3,3,0.1,3.5,0,4.6C856.6,522.8,858.1,557.6,857.2,559.1z M857.5,469c-0.5,2.2-1.4-12.3-0.9-14.5
			C857.1,452.3,858,466.8,857.5,469z M8.5,560.1c0,0.2,0.1,0.3,0.1,0.5c0.1,0.4,0.1-27.3,0.2-57c0-1.5-0.1-3.1-0.1-4.7
			C8.6,515.8,8.5,537.5,8.5,560.1z M442.3,1.3C438,0.3,431.1,0.6,425.1,1c-3,0.2-5.6,0.5-7.6,0.8c-1,0.1-1.8,0.2-2.3,0.3
			c-0.6,0.1-0.9,0.1-0.9,0.1C413.1,4.1,452.6,3.5,442.3,1.3z M492.9,2.7c4.5,0.2,9.1,0.5,9.9,0.5c35.2,0.9,87.1,0.3,111.9,0
			c-8.5,0.1,30.3-1.1,18.6-2c-10-0.8-47.3-0.7-82.1-0.3c-17.4,0.3-34.2,0.5-46.6,0.7c-6.2,0.1-11.3,0.3-14.9,0.3
			c-1.8,0.1-3.2,0.1-4.1,0.1c-0.5,0-0.8,0-1.1,0.1c-0.2,0-0.4,0-0.4,0c0,0,1.1,0,2.7,0.1C488.5,2.5,490.7,2.6,492.9,2.7z
			 M593.7,870.5c-1.9-0.3-16,0-18.8,0.1C518.1,871.2,600.6,871.7,593.7,870.5z M64.8,3.3c93.4-0.5-14.8-3.3-28,0
			C34.5,3.8,58.3,3.3,64.8,3.3z M116,3.3C144.2,5.7,145.7-0.3,116,3.3L116,3.3z M213.9,3.3c4,0.9,54.4,0,55.9,0
			C336,2.8,204.3,1.2,213.9,3.3z M316.5,3.3c1.3,0.3,11.5-0.5,9.3-1C324.5,2,314.3,2.8,316.5,3.3z M345.6,3.5
			c2.3-0.2,4.4-0.6,5.9-0.8c1.5-0.3,2.3-0.4,2.2-0.5c-2.6-0.6-23.3,1-23.3,1C335.1,4.2,340.9,4,345.6,3.5z M377.1,2.3
			c-2.4-0.5-16.3,0.5-14,1C365.4,3.8,379.4,2.8,377.1,2.3z M527.5,869.9c-3.6-0.6-54.5,0.2-56.3,0.2
			C419.5,871,536.5,871.4,527.5,869.9z M1.2,26.1c0,0.1,0,0.2-0.1,0.3c0-0.1,0-0.1,0-0.2C1.2,26.2,1.2,26.2,1.2,26.1z M1.3,25.5
			C1.4,25.2,1.4,25.3,1.3,25.5L1.3,25.5z M172,3.3c-2.4-0.5-16.3,0.5-14,1C160.4,4.8,174.3,3.8,172,3.3z M185.9,4.3
			c1.3,0.3,11.5-0.5,9.3-1C194,3,183.7,3.8,185.9,4.3z M205.4,4.4C205.6,4.5,205.7,4.5,205.4,4.4L205.4,4.4z M204.6,4.3
			c-0.1,0-0.2,0-0.3-0.1c0.3,0.1,0.7,0.2,1,0.2C205.2,4.4,205,4.3,204.6,4.3z M810.2,3.3c-2.4-0.5-16.3,0.5-14,1
			C798.6,4.8,812.5,3.8,810.2,3.3z M858.1,4.6l-0.1,7.5c-0.5,31.1,2.3,19.4,0.9,0l-0.7-9.2l-8,0.6c-2.4,0.2-4.9,0.4-7.5,0.7
			c2.7,0.1,5.2,0.1,7.5,0.2L858.1,4.6z M367.6,869.4c0.1,0,0.1,0,0.2,0c-0.1,0-0.3-0.1-0.5-0.1C367.4,869.4,367.5,869.4,367.6,869.4
			z M368,869.5C368.2,869.5,368.1,869.5,368,869.5L368,869.5z M367.3,869.4c-0.3-0.1-0.6-0.1-0.7-0.1
			C366.8,869.3,367.1,869.3,367.3,869.4z M316,869.5c-42.2,0.5,20.5,1.2,14.1,0C328.9,869.3,317.8,869.5,316,869.5z M1.1,389.6
			c-0.3,1.3,0.5,11.5,1,9.3C2.4,397.7,1.6,387.4,1.1,389.6z M1.1,324.4c-2.1,9.8,0.6,22.6,1,23.3C3.1,349.3,2.7,317.1,1.1,324.4z
			 M2.1,175.4C1.7,177.3,2.8,172.3,2.1,175.4L2.1,175.4z M2.1,105.5C1.7,107.4,2.8,102.4,2.1,105.5L2.1,105.5z M686.1,868.4
			c3.5,0.5,20.9-0.5,18.1-0.9C700.8,867.1,683.4,868,686.1,868.4z M3.1,366.3C3.8,363.3,2.7,368.3,3.1,366.3L3.1,366.3z M3.1,305.8
			c0.5-2.4-0.5-16.3-1-14C1.6,294.2,2.6,308.1,3.1,305.8z M652.5,867c-2.1-0.3-11.6-0.3-20.5-0.2c-8.9,0.2-16.6,0.3-16.9,0.3
			C578.1,868,659.2,868,652.5,867z M4.1,814c0-0.1,0-0.2,0.1-0.3c0,0,0,0.1,0,0.1C4.1,813.9,4.1,814,4.1,814z M4.2,813.4
			C4.3,812.9,4.2,791,4.2,813.4L4.2,813.4z M852.2,865.6c0.2,0,0.3,0,0.4,0.1c0,0-0.1,0-0.1,0C852.4,865.6,852.3,865.6,852.2,865.6z
			 M851.7,865.6c-0.1,0-0.2,0-0.3,0C851.5,865.5,851.6,865.5,851.7,865.6z M777.2,865.1c-41.9,0.4,20.9,0.9,14,0
			C789.8,864.9,779,865.1,777.2,865.1z M647.3,866.1c3.5,0.5,20.9-0.4,18.1-0.9C661.9,864.7,644.5,865.7,647.3,866.1z M366.4,865.6
			C366.4,865.6,366.4,865.6,366.4,865.6c0,0-0.1,0-0.2,0C366.2,865.6,366.3,865.6,366.4,865.6z M366.2,865.6
			c-0.3-0.1-0.6-0.1-0.7-0.1C365.7,865.5,365.9,865.6,366.2,865.6z M343.3,866.6c1.4,0.3,11.4-0.5,9.1-1
			C351,865.4,340.9,866.2,343.3,866.6z M328.1,865.5c0.4,0.1,1.2,0.2,1.3,0.3c-0.1,0-0.2,0-0.5-0.1
			C328.6,865.6,328.3,865.5,328.1,865.5z M687.8,864.4c-1.5-0.2-11.2,0.4-8.7,0.8C680.5,865.4,690.3,864.8,687.8,864.4z"/>
	</g>
</g>
</svg>
