<?xml version="1.0" encoding="utf-8"?>
<!-- Generator: Adobe Illustrator 22.0.0, SVG Export Plug-In . SVG Version: 6.00 Build 0)  -->
<svg version="1.1" id="Layer_1" xmlns="http://www.w3.org/2000/svg" xmlns:xlink="http://www.w3.org/1999/xlink" x="0px" y="0px"
	 viewBox="0 0 750 1200" style="enable-background:new 0 0 750 1200;" xml:space="preserve">
<style type="text/css">
	.st0{fill:#FAFDFE;}
	.st1{fill:#F6FAFC;}
	.st2{font-family:'ACaslonPro-Bold';}
	.st3{font-size:307.9678px;}
</style>
<rect x="15.9" y="33.8" class="st0" width="712.6" height="1140.1"/>
<g>
	<path class="st0" d="M745.4,599.5C746.4,599.5,745.8,608.7,745.4,599.5L745.4,599.5z"/>
	<path class="st0" d="M744.9,648.4c0.9,2.9,0.8,13.5-0.1,12.2C744.3,659.8,744,645.3,744.9,648.4z"/>
	<path class="st0" d="M743.6,782.6c0.4-2.6,0.9,11.3,0.7,12.9C743.9,798.1,743.4,784.1,743.6,782.6z"/>
	<path class="st0" d="M742.1,928.9C742.4,926.6,741.6,932.4,742.1,928.9L742.1,928.9z"/>
	<path class="st0" d="M745.8,458.4c-0.9,5.7,1.6,47.9,0.4,55.5c0,0-0.1-2.7-0.3-6.9c-0.2-4.2-0.4-9.9-0.6-16.1
		C744.8,478.7,744.7,464.9,745.8,458.4z"/>
	<path class="st0" d="M745.3,519.6C745.7,517.2,744.7,523.2,745.3,519.6L745.3,519.6z"/>
	<path class="st0" d="M745.4,599.5C744.4,599.5,745,590.3,745.4,599.5L745.4,599.5z"/>
	<path class="st0" d="M743.8,684.4c0.4-2.8,1.1,16.1,0.6,18.9C744,706.1,743.3,687.2,743.8,684.4z"/>
	<path class="st0" d="M745.8,335.7c1.2-7.4-0.2,73.6-0.1,18.3C745.7,351.7,745.6,337.2,745.8,335.7z"/>
	<path class="st0" d="M745.5,378.5c0.5-2.9,1.2,15.8,0.7,18.8C745.8,400.2,745,381.4,745.5,378.5z"/>
	<path class="st0" d="M740.1,976.1c1-7-0.7,98.3-0.2,24.3C739.9,996.8,739.8,978,740.1,976.1z"/>
	<path class="st0" d="M746,164.2c0.5-3.1,1.4,20.9,0.8,24.7C746.3,192,745.4,168.1,746,164.2z"/>
	<path class="st0" d="M745.8,207c0.5-3.1,1.4,20.9,0.8,24.8C746,234.8,745.1,210.9,745.8,207z"/>
	<path class="st0" d="M743.9,218.6C743.8,155.3,744,94,744,33.8V18.2h-15.6c-93.7-0.1-185,0.1-277.5,2.4c5.7-0.1,19.7,0.9,18,1
		c-53.5,2.2-128.8-0.4-181.6,0c4.5,0,20.9,0.5,24.2,0.1C284.9,25,67.2,21.2,26.5,24c-11.9,0.8,67.5,0.4,78.6,0.4
		c114.2-0.1,213.2,1,308.8-0.3c65.1-0.9,121-1.7,188-1.8c40.7,0,82.9,0,126.5,0h11.5v11.5c-0.1,61.9-0.1,126,0.3,189.7
		c0.4,55.5,0.2,114.3-0.1,172.6c-0.2,58.3-0.5,115.9-0.4,169.2c0.1,41.1-0.5,91-1,141.4c-0.5,50.4-0.9,101.4-0.5,145
		c0.1,10.4,1.3,33.6,1.1,43.9c0-0.1-0.4,1.8-0.8,4.1c-0.4,2.3-0.8,5-0.9,6.6c-1.7,39.1,1.3,1.3,1.3,25.7
		c-0.1,40.1-1.9,157.3-0.1,91.8c1.8-65.2,2.9-153.8,3.5-241.1s0.8-173.4,0.8-233.7C743.5,428.2,744,320.8,743.9,218.6z M740.9,725.3
		C741.3,723,740.4,728.9,740.9,725.3L740.9,725.3z M742.4,157C742.8,154.6,741.8,160.8,742.4,157L742.4,157z"/>
	<path class="st0" d="M737.9,1139.2c0.3-2.5,0.7,11.5,0.5,12.9C738.1,1154.6,737.7,1140.6,737.9,1139.2z"/>
	<path class="st0" d="M737.5,1181.6C737.8,1179.4,737,1185,737.5,1181.6L737.5,1181.6z"/>
	<path class="st0" d="M745.5,96.7c0.5-3.1,1.4,20.8,0.8,24.7C745.8,124.5,744.9,100.6,745.5,96.7z"/>
	<path class="st0" d="M745.3,133.4c0.4-2.8,1.1,10.9,0.8,12.5C745.7,148.6,745,135,745.3,133.4z"/>
	<path class="st0" d="M705.9,17.2C703.4,16.8,709.7,17.8,705.9,17.2L705.9,17.2z"/>
	<path class="st0" d="M739.3,223.2c-0.2-50.5-0.5-112.1-0.8-189.4V23.6l-10.1,0.1c-84.4,0.4-188.9,1-278.5,1.5
		c-36.1,0.1-219.3,1.2-278.9,2.3c-87.4,1.6,29.2,0.6,84.7,0.4c70.3-0.4,204.3-1.1,266.6-1.5c74-0.3,142.5,0.3,206.1,0.5h6.9v6.9
		c-0.2,49.3-0.1,95.6,0.6,139.6c-0.4-22.6,0.1-44.5,1.1-36.2c1.1,8.9,0.8,34.5,0.3,63.2c-0.5,28.8-1.2,60.7-1.1,82.6
		c0-6.2,0.7-15.6,0.9-5.7c0.4,23.4-1.6,66.1-1.5,109c0,11.5,1.4,23.1,1.5,37.3c1,73-2.6,70.9-2,35.6c-0.6,33.9,1.3,54,1.3,67.7
		c0.1,57.5-1.8,108.1-1.1,157.8c-0.1-6.3,0.9-26.4,1-23.7c0.8,17.8-0.4,57.7-0.6,84.9c-0.3,41.3-1.1,76.2-1.4,109.2
		c-0.4,33-0.4,64,0.7,97.6c0.9,29.1,1.5-104.4,1.8-132.7c1.5-198.2,2-238.6,2-389.5C738.9,357.6,739.5,296.3,739.3,223.2z
		 M736,605.8c0.4-2.8,1.2,15.9,0.7,18.8C736.3,627.3,735.6,608.6,736,605.8z M735.8,636.1c0.4-2.6,1,11.2,0.7,12.7
		C736.2,651.4,735.6,637.6,735.8,636.1z"/>
	<path class="st0" d="M735,976.9c0.4-2.7,1,16.2,0.6,18.9C735.2,998.5,734.6,979.6,735,976.9z"/>
	<path class="st0" d="M734.5,1043.5c0.4-2.7,0.9,16.2,0.6,18.9C734.7,1065.1,734.2,1046.2,734.5,1043.5z"/>
	<path class="st0" d="M372.1,21.1c-3.1-0.5,20.5-1.4,24.4-0.8C399.6,20.8,376,21.7,372.1,21.1z"/>
	<path class="st0" d="M734.5,720.4c-0.7,4.5-0.2,20.4,0.2,36.4s0.9,32.1,0.1,37c0.3-2.3-0.3-16.6-0.8-32.3
		C733.5,745.7,733.2,728.5,734.5,720.4z"/>
	<path class="st0" d="M3.9,101.4C3.5,103.8,4.5,97.5,3.9,101.4L3.9,101.4z"/>
	<path class="st0" d="M5,259c0,0-0.3-6.8-0.6-14c-0.3-7.2-0.4-14.8-0.2-16.4c0-0.1,0.2,1.1,0.4,3c0.2,1.9,0.5,4.7,0.7,7.8
		C5.7,245.5,5.9,253.2,5,259z"/>
	<path class="st0" d="M734.6,87.9C735,85.4,734,91.7,734.6,87.9L734.6,87.9z"/>
	<path class="st0" d="M732.2,536.5c0,11.2,0.2,101-0.3,200.2c-0.1,31.5,0.5,205.9-1.2,217.6c-0.3,2.3-1-81.8-1.1-92
		c0.1-148.9,0.2-287.7,0.4-423.3c0.2-135.7,0.3-268.4-0.1-405.2v-1.6h-1.5c-85,0.2-171.9,0.6-262.1,1.2
		c-52.4,0.2-112.9,0.5-193.9,0.9c-40.5,0.2-180.8,3-193.9,0.9c-0.1,0,1.3-0.1,3.9-0.1C85,35,88.9,35,93.8,34.9
		c9.7-0.2,23.2-0.4,38-0.7c29.7-0.5,64.9-0.9,86.3-1c177.1-0.7,335.7-1.3,510.2-2h2.6v2.7C731.7,182.2,732.2,346.6,732.2,536.5z"/>
	<path class="st0" d="M729.9,971.7c0.4-2.7,1,16.2,0.6,18.8C730.2,993.2,729.6,974.4,729.9,971.7z"/>
	<path class="st0" d="M5.5,337.8C5.1,340.2,6.1,333.9,5.5,337.8L5.5,337.8z"/>
	<path class="st0" d="M5.6,319.6c-0.5,3.1-1.4-20.5-0.8-24.4C5.3,292.2,6.2,315.8,5.6,319.6z"/>
	<path class="st0" d="M6.4,156.4c-0.4,2.8-1.1-10.7-0.9-12.3C6,141.3,6.7,154.7,6.4,156.4z"/>
	<path class="st0" d="M6.5,132.2c-0.5,3-1.3-15.3-0.8-18.3C6.2,110.9,7,129.2,6.5,132.2z"/>
	<path class="st0" d="M6.1,404.5c-0.5,3.1-1.4-20.5-0.8-24.4C5.8,377,6.7,400.6,6.1,404.5z"/>
	<path class="st0" d="M7,229.1c-1.2,7.7,0.1-97.6,0.1-24.2C7.1,208.5,7.3,226.9,7,229.1z"/>
	<path class="st0" d="M8.9,592.7c0,10.7,1.4,15.5,1.7,30.6c0.4,25.6-0.8,61.6-0.5,96.8c1.4,135,5.9,299.4,3.4,453.8v2.4H16
		c2.4,0,4.7,0.1,7,0.1c27.5,0.5,15,0.4-7,0.5h-3v-3.1c-0.1-24.7-0.4-61.5-1.9-66.2c0,0,0,0.6,0.1,1.6c0,1,0,2.4,0.1,4.2
		c0,3.6,0.1,8.7,0.2,14.8c0.1,12.3,0.2,28.7,0.4,45.6v4.3h4.2c30.9-0.2,63.1-0.4,73.6-0.5c53.3-0.1,126.8,0.5,200.6,0.8
		c79.4,0.3,150.8,0.6,213.5,1.2c34.5,0.3,80.8,0.7,121.3,0.8c40.5,0.1,75.1-0.1,86.2-1c-4.9,0.4-28.4,0.1-42.8-0.3
		c-14.4-0.4-19.7-1,11.4-1c20.3,0,36.2-0.1,47.8-1.3c-16.5,1.7-27.3-3.1-32.1-2.7c4.3-0.4,63.6-0.1,11.3-1.3
		c-13-0.3-59.8-0.5-55.7-2.3c1.5-0.7,19.5,0.4,36.3,0.9c16.9,0.5,32.6,0.6,29.3-1.8c-0.8-0.6-13.9-1.2-33.6-1.9
		c-19.7-0.7-45.9-1.3-73.1-2c-54.4-1.3-112.5-2.4-130.1-2.8c-35.3-0.7-76.7-1-119.2-1.3s-86.2-0.5-125.7-1.2
		c-36.4-0.6-20.4-0.7,12.4-0.6c32.7,0.1,82.2,0.6,112.8,0.9c42.8,0.5,96.1,1.6,147.4,2.6s100.5,1.9,134.7,2.1
		c22.9,0.2-5.3-0.6-41-1.5c-35.5-0.9-78.7-2-86-2.2c-13.4-0.4-35.8-1.5-60.1-2.5c-24.3-1-50.6-2.1-71.9-2.4
		c-59.9-1-120.9-1.5-182.3-1.7s-123.3,0.1-184.8,0.6l18,18c-1.5-172.4-4.2-340.9-6.3-486.4c-1.3-87-0.3,22.2,0.4,96.9
		c1.2,117.9,1.4,259.8,2.2,389.4l-14.3-14.3c40.1-0.3,76.7-0.5,111.8-0.8c1.4,0,30.7,0.4,50.9,0.8c20.3,0.4,31.5,0.7-3.3,0.4
		c-52.7-0.4-105.8-0.4-159.4-0.2l14,14c-1.1-245.7-6.2-498.5-7.5-747.8c-0.5-103.5-1.9-272.5-4.2-392.3l-2.4,2.4
		c5.5-0.1,9.8-0.2,14.1-0.3C58,34.9,44,34.9,16.2,35.1l1.7-1.7c0.2,27,0.6,67,0.8,94.9c1.2,121.5-0.1,236.5,0.2,345.1
		c0.2,68,1.8,105.1,2,145.7c0.1,13.2,0.6,124.5-1.1,48.2c-0.8-35.7-0.2-109.7-1-163.7c-0.5-31.8-0.6-34.4-0.6-72.8
		c0-60.9-2.5-125-2.9-164c-0.4-43.3,0.6-27.9-0.6-66.7c1.5,49-3.3-41.5-2.5-49c-1.6,14.3,0.1,87.7,0.4,115.1
		c0.4,51.9-0.2,111.8,0.2,157.4c0.2,25.9,2.4,92.1,2.8,176.1c0.2,45.4-0.1,61.2,0.4,109c0-0.9,2.4,44.7-0.2,42.3
		c-1.3-1.2-1-54.4-0.7-36.5C12,502.8,11.3,291.8,7.7,71.9c-1.4-86.8-0.8,24.3-0.3,72.6C7.9,203,9.3,269.2,8.3,332.3
		c2,10.8,0.1,46.2,0.6,66.7C11.1,460,8.8,535.6,8.9,592.7z M642.8,1177.4c3.4,0.4-19.7,1.2-24,0.7
		C615.4,1177.7,638.5,1176.9,642.8,1177.4z M612.3,1177.4c3.3,0.4-14.6,1.1-17.9,0.7C591.2,1177.7,609,1177,612.3,1177.4z
		 M138.2,1176c3,0.5-15.2,1.3-18.3,0.8C116.9,1176.4,135.2,1175.5,138.2,1176z M89.7,1175.8c3,0.5-15.3,1.3-18.3,0.8
		C68.4,1176.2,86.7,1175.3,89.7,1175.8z M16.7,854.6c0.2,2-2.3-20.7-0.8-30.4C17.3,816.2,18.5,871.5,16.7,854.6z M20.7,782.9
		c-0.1-14.3-1.9-119,0.3-54.4c0.1,4,2.2,221.8,0.4,103C21.4,828.8,20.9,803.3,20.7,782.9z M22.8,922.5c-1,6.5-0.2-81.1,0.1-24.2
		C22.9,901.7,23.1,920.4,22.8,922.5z M23.4,983.2c-1.2,7.6,0-72.7,0.1-18.1C23.5,967.4,23.6,981.7,23.4,983.2z M23.9,1068
		c-0.5,3-1.3-15.3-0.8-18.3S24.4,1065,23.9,1068z"/>
	<path class="st0" d="M6.7,471.2c-0.4,2.8-1.1-10.7-0.9-12.3C6.3,456.1,7,469.6,6.7,471.2z"/>
	<path class="st0" d="M6.8,447c0,0-0.3-6.8-0.6-14c-0.3-7.2-0.4-14.8-0.2-16.4c0-0.1,0.2,1.1,0.4,3c0.2,1.9,0.5,4.7,0.7,7.8
		C7.6,433.5,7.8,441.2,6.8,447z"/>
	<path class="st0" d="M7.6,295.8c-1.2,7.4-0.4-97.1,0.2-48.4c0,0.4,0.1,10.5,0.2,22.1C8,281.2,7.9,293.5,7.6,295.8z"/>
	<path class="st0" d="M449.2,28.8c-3.1-0.5,20.5-1.4,24.4-0.8C476.7,28.5,453.1,29.4,449.2,28.8z"/>
	<path class="st0" d="M7.2,550c-0.5,3-1.3-15.3-0.8-18.3S7.7,547,7.2,550z"/>
	<path class="st0" d="M7.4,513.7C7,516.2,8,509.9,7.4,513.7L7.4,513.7z"/>
	<path class="st0" d="M8.3,332.3C8.3,339.6,6.9,335.7,8.3,332.3L8.3,332.3z"/>
	<path class="st0" d="M98.3,28c61-0.4,23,0.3-24.4,0.8C25,29.3,61.2,28.2,98.3,28z"/>
	<path class="st0" d="M515.5,30C513.1,29.6,519.4,30.6,515.5,30L515.5,30z"/>
	<path class="st0" d="M7.7,634.8c-0.4,2.8-1.1-10.7-0.9-12.3C7.3,619.8,8,633.2,7.7,634.8z"/>
	<path class="st0" d="M7.9,610.6c-0.5,3.1-1.4-20.5-0.8-24.4C7.6,583.2,8.5,606.8,7.9,610.6z"/>
	<path class="st0" d="M8.6,453.4c0,0-0.1-1.7-0.2-4.3c-0.1-2.6-0.2-6.1-0.4-9.7c-0.3-7.2-0.4-14.8-0.2-16.4c0-0.1,0.2,1.1,0.4,3
		s0.5,4.7,0.7,7.8C9.4,439.9,9.6,447.6,8.6,453.4z"/>
	<path class="st0" d="M8.9,399C9.7,431.3,6.1,405.6,8.9,399L8.9,399z"/>
	<path class="st0" d="M8.3,701.5C5.6,693.8,9.5,669.7,8.3,701.5L8.3,701.5z"/>
	<path class="st0" d="M8.5,665.3c-0.5,3.1-1.4-20.5-0.8-24.4C8.2,637.8,9.1,661.4,8.5,665.3z"/>
	<path class="st0" d="M11.2,96.9c0.1,9.4-2.2-45-0.6-54.6c1.9-12.1,2.6,163,0.5,84.8C10.8,117.4,11.4,106.7,11.2,96.9z"/>
	<path class="st0" d="M8.3,701.5C11.1,703.3,7.3,726.5,8.3,701.5L8.3,701.5z"/>
	<path class="st0" d="M9.6,816.8C7,784.2,11,759,9.6,816.8L9.6,816.8z"/>
	<path class="st0" d="M10.1,895.6c-0.7-44.3-3.8,19-0.7-42.5C9.4,854.6,11.9,1004,10.1,895.6z"/>
	<path class="st0" d="M9.6,816.8C12.3,824.5,8.5,848.7,9.6,816.8L9.6,816.8z"/>
	<path class="st0" d="M11.3,1029c1-5.9-1.9-46.7-0.6-54.6c0,0,0.2,2.6,0.4,6.7c0.2,4.1,0.5,9.7,0.7,15.7
		C12.2,1008.8,12.4,1022.4,11.3,1029z"/>
	<path class="st0" d="M11.9,1095.7c-1.2,7.5-0.4-97,0.2-48.4c0,0.4,0.1,10.5,0.2,22.1C12.4,1081.1,12.3,1093.4,11.9,1095.7z"/>
	<path class="st0" d="M60.3,36C57.8,35.6,64.1,36.6,60.3,36L60.3,36z"/>
	<path class="st0" d="M25.8,487.3c-1.2,7.7,0.1-97.6,0.1-24.2C25.9,466.7,26.1,485.1,25.8,487.3z"/>
	<path class="st0" d="M26.4,560.1c-1.2,7.4-0.4-97.1,0.2-48.4c0,0.4,0.1,10.5,0.2,22.1C26.8,545.4,26.7,557.7,26.4,560.1z"/>
	<path class="st0" d="M27,614.7c-1.2,7.6,0-72.7,0.1-18.1C27.1,598.9,27.2,613.2,27,614.7z"/>
</g>
<text transform="matrix(1 0 0 1 231.8513 378.0623)" class="st1 st2 st3">2 </text>
<text transform="matrix(1 0 0 1 231.8513 609.0623)" class="st1 st2 st3">0 </text>
<text transform="matrix(1 0 0 1 231.8513 840.0623)" class="st1 st2 st3">1 </text>
<text transform="matrix(1 0 0 1 231.8513 1070.9623)" class="st1 st2 st3">6</text>
</svg>
