<?xml version="1.0" encoding="utf-8"?>
<!-- Generator: Adobe Illustrator 22.0.0, SVG Export Plug-In . SVG Version: 6.00 Build 0)  -->
<svg version="1.1" id="Layer_1" xmlns="http://www.w3.org/2000/svg" xmlns:xlink="http://www.w3.org/1999/xlink" x="0px" y="0px"
	 viewBox="0 0 266 359" style="enable-background:new 0 0 266 359;" xml:space="preserve">
<style type="text/css">
	.st0{fill:#FFFFFF;}
</style>
<g>
	<path class="st0" d="M247.9,221.1c0.3-1.1-0.2-6.7-0.5-5.7C247.1,216.5,247.6,222.2,247.9,221.1z"/>
	<path class="st0" d="M249.2,54c0.2-0.9,0.1-6.7,0.1-7.8C249.4,22.7,248.7,57,249.2,54z"/>
	<path class="st0" d="M233.1,341.1C232.2,340.9,234.4,341.5,233.1,341.1L233.1,341.1z"/>
	<path class="st0" d="M241,341.1C240.1,340.9,242.2,341.5,241,341.1L241,341.1z"/>
	<path class="st0" d="M248.1,322C248.1,322,248.1,322,248.1,322C248.1,322,248.1,322,248.1,322C248.1,322,248.1,322,248.1,322z"/>
	<path class="st0" d="M248.1,322C248.1,322.2,248.1,322.3,248.1,322L248.1,322z"/>
	<path class="st0" d="M247.6,306.5c-0.3,1,0.3,6.8,0.5,5.8C248.4,311.3,247.9,305.5,247.6,306.5z"/>
	<path class="st0" d="M248.6,122.1c-0.2,1.1,0.2,6.7,0.4,5.6C249.2,126.5,248.8,121,248.6,122.1z"/>
	<path class="st0" d="M249.4,77C248.8,78.7,249.4,79.4,249.4,77L249.4,77z"/>
	<path class="st0" d="M181.6,16.4c-7.2-0.1-47.4,0.7-65.9,0.5c-7.3-0.1-19.9-0.7-21.2-0.4c-1.9,0.5,8.8,0.7,19.9,0.8
		c5.5,0,11.2,0,15.4,0c4.2,0,6.9,0,7,0c13.3,0.3,38.3,0.6,44.6-0.4C183.1,16.6,187.6,16.5,181.6,16.4z"/>
	<path class="st0" d="M166,341.7c1.3,0.4,8.9-0.3,7.9-0.5C172.6,340.8,165,341.4,166,341.7z"/>
	<path class="st0" d="M179.8,341.7c0.5,0.1,5.1,0,5.9,0C203.5,341.5,177.3,341,179.8,341.7z"/>
	<path class="st0" d="M249.2,182.3c-0.3-7.9-0.6-15.3-0.5-15.8c-0.5,2-0.4,10.6-0.2,18.7c0.1,4.1,0.2,8,0.3,11c0.1,3,0.2,5,0.1,5.1
		C249.6,198.7,249.5,190.3,249.2,182.3z"/>
	<path class="st0" d="M248.8,151c-0.3,1.4,0.2,8.7,0.4,7.5C249.6,157.1,249.1,149.9,248.8,151z"/>
	<path class="st0" d="M250.2,90.1c0.7-1.8-0.3-20.2-0.3-21.1c0-5,0.1-14.5,0.2-21.5c0,1,0.1-18.9-0.3-9.4c-1.2,25,0.4,11.6-0.4,39
		C250.5,73.6,249.2,92.5,250.2,90.1z"/>
	<path class="st0" d="M249.9,24.4c-0.2,1.2,0.1,6.7,0.3,5.5C250.5,28.7,250.1,23.2,249.9,24.4z"/>
	<path class="st0" d="M250.3,20.1c0.1-0.6-0.2-4.6-0.3-3.5C249.9,17.2,250.1,21.2,250.3,20.1z"/>
	<path class="st0" d="M218.7,15.7c-14.5,0.4-25.2,1-6.3,0.8c10.1-0.1,31,0,35.4-0.8C251.6,15.1,233.2,15.3,218.7,15.7z"/>
	<path class="st0" d="M89.4,17.1c-0.7,0-1.6,0-2.7-0.1c-2.2-0.1-5.1-0.1-7.9-0.2c-5.6-0.1-10.9-0.1-9.6,0.4
		c2.3,0.9,17.7,1.2,21.3-0.1C90.4,17.1,90,17.1,89.4,17.1z"/>
	<path class="st0" d="M59.4,17.7c0.9,0.3,6.8-0.3,5.9-0.5C64.3,16.9,58.4,17.5,59.4,17.7z"/>
	<path class="st0" d="M38.1,17.2c-0.3,0.8,14.4,0.8,17.4,0C57.6,16.7,38.6,16,38.1,17.2z"/>
	<path class="st0" d="M18.3,28.5c0-0.2-0.5,0-0.5,0C15.1,28.5,20.3,35.6,18.3,28.5z"/>
	<path class="st0" d="M17.8,85.7c0,0,0-0.2,0-0.6c0-0.4,0-1,0-1.6c0-1.4,0-3.1,0.1-4.9c0-3.5,0-7-0.2-6.6
		C16.8,74,16.9,86.3,17.8,85.7z"/>
	<path class="st0" d="M98.9,342.2C98.9,342.2,98.9,342.2,98.9,342.2C99.9,342.4,99.2,342.3,98.9,342.2z"/>
	<path class="st0" d="M104.9,342.2c0.5,0.1,5.1,0,5.9,0C128.6,342,102.3,341.5,104.9,342.2z"/>
	<path class="st0" d="M124.6,342.2c0.5,0.1,4.9-0.3,3.9-0.5C128,341.5,123.7,342,124.6,342.2z"/>
	<path class="st0" d="M244.9,342.2C253.1,342.7,245.3,340.6,244.9,342.2L244.9,342.2z"/>
	<path class="st0" d="M250.4,129.1c0-0.5,0-1.3,0-2.3C250.4,127.6,250.4,128.4,250.4,129.1z"/>
	<path class="st0" d="M250.1,183.4c-0.1,0.5-0.1,2.2,0,4c0-1.2,0-2.5,0-3.7C250.1,183.5,250.1,183.4,250.1,183.4z"/>
	<path class="st0" d="M12.5,7.4L8,7.5l0,4.5c0.1,27.6,0.1,56,0.2,83.7c0,63.5-0.9,127.9-0.5,189.3c0.1,21.4,0.2,42.2,0.3,62.6l0,4.6
		l4.5,0c62.9-0.3,123.7-0.6,187-1.8c16.3-0.3,34.8-0.5,55-0.6l2.1,0l0-2.1c-0.1-33.4-0.2-70.5-0.3-106.2c-0.1-35.7-0.3-70-0.8-97.6
		c-0.4-23.1-0.1-17.4-0.1-37.6c0.1-27-0.9,12.8-0.9,34.1c0,21.9-0.1,32.4,0,43.4c0.5,45.2,0.7,129,1,163.9l0,1l-1,0
		c-5.4,0-7.6,0.1-9.6,0.1c-71.2,0.8-128.5,0.8-199.2,1.6c-10.3,0.1-22.1,0.2-33.2,0.3l-3,0l0-3c-0.4-52.9-0.2-109.2,0.3-147.4
		c0-3.8,0.4-12.5,0.6-20.3c0.3-7.9,0.5-14.9,0.4-15.2c0.7,2.5,0,45.4,0,61.1c0,24.7-0.7,43.8,0,57.2c0.4,6.7,1.1,5.8,1.1,9.9
		c0,1.6-0.8,3.6-1.1,9.9c-0.5,12.7-0.5,28.3-0.3,44.9l0,2l2,0c14.2-0.1,30.4-0.3,45.1-0.3c64.2-0.1,129.5-0.9,196.9-1.5l0.1,0l0-0.1
		c-0.4-39.9-0.6-80.7-0.6-122.4c0-24,0.1-1.5,0-19.7c-0.3-51.6,0.1,45.8-1.5,10.3c-0.9-19.5-0.6,9.2-0.5,15.8
		c0.1,22.8,0.2,41.8-0.1,62.7c0-2.4,0.5,12.9-0.5,13.8c-1.2,1.1,0-12.7,0-11.8c0-22.4-0.7-57.2-0.4-87.9c0-3.4-0.4-11.4,0.5-11.9
		c-0.7,0.4,0.6,8.6,0.5,9.6c0.3-4.3,2.2-25.6,0.6-33.5c-1.1-5.5-0.5,42.1-1.5,10.4c-0.4-14.3-0.4-36.6-0.7-53.9
		c0.1,3.7-0.2-3.3-0.4-12c-0.2-9.9-0.5-22-0.3-22.9c-0.2,1.9-0.4,4.1-0.5,6.6c-0.3-3.9-0.5-7.1-0.4-7.9c-0.5,2.5,0,9.5,0.3,15.3
		c0,2,0.1,4.1,0.1,6.1c0,0.7-0.1,1.2-0.2,1.6c0.1-0.3,0.1-0.7,0.2-1.1c0,1,0.1,2,0.1,3c0.3,9,0.9,18.1,0.9,24.5
		c0.1,13.7,0,27.4-0.1,41.2c0,0.1,0.1,0.3,0.1,0.6c0.1,0.6,0.3,1.4,0.4,2.3c0.2,1.9,0.3,4.3-0.2,6.4c0,0-0.3-2.9-0.4-5.6
		c-0.2,14.7-0.4,29.4-0.7,44.1c-0.5,29.7-1,59.2-0.8,88.5c0.4,44.1,0.2-6.9,0.6-21.5c0.4-17.7,0.7,21.4,0.5,44.1
		c1.1,0,2.4,0.1,3.7,0.1l-1.5,1.5c-0.7-0.1-1.4-0.2-2.3-0.2c0,0.5,0,1,0,1.6c0.3,0,0.7,0,1,0l-1,1c0-0.3,0-0.6,0-1
		c-0.2,0-0.4,0-0.6,0c-0.1-0.6-0.1-1.2-0.2-1.6c0.3,0,0.6,0,0.8,0c0-0.4,0-0.9,0-1.3c-3.7-0.1-5.6-0.2-4.8-0.4
		c-19.6,2.1-25.3-1.9-47.3,0.5c12.1-1.3,27.3,0.5,7.9,0.5c-6.1,0-19.9,0.6-25.6,0.5c-0.4,0-3.3-0.9-5.9-1.1
		c-6.3-0.3-22.4-0.3-27.6,0.5c2.5-0.4,5,0.4,0,0.5c-18.1,0.4-19.1-1-37.5-0.5c-9.1,0.2,6.6,0.5,0,1.1c-16.1,1.4-49.1-0.5-73-0.5
		c-5.9,0-13.1,0-19.6,0c0,1.2,0,2.5,0,3.7l-3.7-3.7c1.3,0,2.5,0,3.7,0c0-96.1-0.8-210.1,0.5-321.2c0-2.1,0-4.2,0.1-6.3
		c-1.4,0-2.9,0-4.3,0l4.4-4.4c0,1.4,0,2.9,0,4.4c0.2,0,0.3,0,0.5,0c0.1,1.5,0.3,2.9,0.5,2.4c0.1-0.4,0.1-1.3,0-2.4
		c29.1,0.2,58.3,0.1,85.9-0.1c29.3-0.3,57.9-0.5,86.3-0.8c28.5-0.2,56.7-0.3,60.9-0.9c5.2-0.8-5.7-1-9.1-1.5
		c-2.2,0.4-3.3,0.6-0.8-0.4c-0.4,0.2,0,0.3,0.8,0.4c2.5-0.5,6.4-1.3,7.8-1.2c-6.5-0.5-20.7-0.4-36.5-0.1
		c-15.8,0.3-33.3,0.7-46.5,0.5c1.1,0-3-0.9-5.4-0.9c-14-0.5-31-0.2-49.2-0.5c-1.2,0-7.6-0.1-5.8-0.5c4.2-1,17-0.7,31.2-0.2
		c14.2,0.5,29.8,1.1,39.9,0.8c4.7-0.1,9.9-1.1,14.7-1.3c10.2-0.4,27.3-0.1,31.8,0.2c1.6,0.1,0.9,0.3-0.2,0.5
		c-0.5,0.1-1.2,0.2-1.7,0.2c-0.5,0.1-0.8,0.1-0.8,0.1c4.8,0.1,17.1,0.2,19.8,0.1c0.7,0,1.7-0.5,2.4-0.7c-0.3,0-0.2,0,0.3-0.1
		c-0.1,0-0.2,0-0.3,0.1c1.5,0.1,12.5,0,9-0.8c-2.2-0.5-23.9-0.6-47.9-0.6c-24,0-50.2,0.2-61.7-0.1C106.3,7.5,59.7,7.3,12.5,7.4z
		 M249.8,261.4c0,0.8,0.1,5.3,0,5.9C249.1,269.9,249.7,243.9,249.8,261.4z M249.8,290.7c0.5-2.1-1.2-14.7-0.5-17.5
		c0,0,0.4,3.2,0.7,7C250.2,284,250.4,288.4,249.8,290.7z M251.9,339.4c-0.3,0.9-0.7-3.4-0.5-3.9C251.6,334.6,252,338.9,251.9,339.4z
		 M251.9,329.6c-0.7-1.1-1.7-13.3-0.5-17.6C252.1,309.1,252.4,330.4,251.9,329.6z M253.5,245c0-0.1,0-0.1,0-0.2
		C253.5,244.9,253.5,244.9,253.5,245C253.5,245,253.5,245,253.5,245z M253.5,258.7c0,1.1,0.2,7.1,0,7.9
		C252.8,269.3,253.3,234.9,253.5,258.7z M253.5,274.5c0,1.1,0.2,7.1,0,7.9C252.9,284.6,253.1,256.1,253.5,274.5z M253,286.4
		c0.3-1.1,0.9,6.4,0.5,7.8C253.2,295.2,252.6,287.7,253,286.4z M249.7,347.1L249.7,347.1c0.2,0,0.4-0.1,0.5-0.1l0.6-0.6
		c-0.2,0-0.3,0-0.5,0l1-1c0.2,0,0.3,0,0.5,0l1-1c0,0,0,0-0.1,0c-0.1,0-0.2,0-0.3-0.1l1.6-1.6c0.1,0,0.3,0,0.4,0l-1.7,1.7
		c1.9,0.5,1,0.8-1,1l-1.1,1.1c0.9,0,1.7,0,2,0.1c0.5,0.1-0.9,0.4-2.6,0.5l-0.5,0.5C249.7,347.4,249.7,347.2,249.7,347.1z
		 M249.2,346.5c0.2,0,0.3,0,0.5,0l-0.5,0.5c0,0,0,0.1,0,0.1c0,0-0.1,0-0.1,0l0.1-0.1C249.2,346.8,249.2,346.7,249.2,346.5z
		 M248.6,347.1c-0.2,0-0.3,0-0.4,0c-0.6,0-1.1,0-1.3-0.1c-0.4-0.1,0.5-0.3,1.7-0.4C248.6,346.8,248.6,346.9,248.6,347.1z
		 M240.5,344.6c1-0.1,2.3-0.3,3.8-0.4c1.4-0.1,2.9-0.2,4.3-0.2c0,0.4,0,1,0,1.6c-4.3,0.1-9.6-0.2-9.6-0.6
		C239,344.8,239.6,344.7,240.5,344.6z M239,347C239,347,239,347,239,347C239,347,238.9,347,239,347C239,347,239,347,239,347z
		 M217.3,347c-0.9-0.3,3.4-0.7,3.9-0.5C222.2,346.7,217.8,347.2,217.3,347z M231.1,346.5c1,0.3-6.6,0.9-7.9,0.5
		C222.2,346.7,229.8,346.1,231.1,346.5z M223.2,342.7c0.9,0.3-3.4,0.7-3.9,0.5C218.3,343,222.7,342.6,223.2,342.7z M229.1,344.9
		c-2.3,1-10.4,1.1-13.8,0C213.1,344.2,229.5,344.7,229.1,344.9z M154.2,347.6c-1-0.3,4.9-0.8,5.9-0.5
		C161.1,347.3,155.2,347.8,154.2,347.6z M209.4,344.3c0.9,0.3-3.4,0.7-3.9,0.5C204.5,344.6,208.9,344.2,209.4,344.3z M195.6,345.4
		c-1.1,0-7.2,0.2-7.9,0C185.5,344.8,214.1,345.1,195.6,345.4z M185.7,344.9c2.1,1.6-26.5,1.1-25.6,0.5c1.7-1.2,5,0,5.9,0
		C165.2,345.4,185,344.3,185.7,344.9z M164,343.8c-1.2,0-7.1,0.2-7.9,0C153.6,343.1,188,343.6,164,343.8z M154.2,345.4
		c0,0-3.3,0.4-7.2,0.7c-3.9,0.3-8.3,0.4-10.5-0.2C138.4,346.5,151.5,344.7,154.2,345.4z M112.8,344.3
		C112.8,344.4,112.8,344.4,112.8,344.3c0,0-0.1,0-0.1,0C112.7,344.3,112.7,344.3,112.8,344.3z M106.9,345.4c0.9,0.3-3.4,0.7-3.9,0.5
		C102,345.7,106.3,345.3,106.9,345.4z M89.1,347c-1.4,0-11.7-0.1-11.8-0.5C76.6,344.5,127,347.6,89.1,347z M28,346.5
		c5.1-2.9,18.7,1.7,0,0.5C28,347,27.9,346.5,28,346.5z M10.9,44.3c1.6,15.1-0.6,20.6-0.5,13.8C10.3,56.7,10.3,39.4,10.9,44.3z
		 M10.9,99.5c0,0-0.1-4.2-0.1-8.5c0-4.3,0-8.7,0.1-9.2C11.5,79.5,11.4,115.7,10.9,99.5z M10.3,69.9C10.5,69.1,10,71.2,10.3,69.9
		L10.3,69.9z M10.9,152.8c-0.8,29.8-1.4-63.3,0-41.4c0.3,4.1,0.1,13.2,0,17.7C10.2,155,12.4,98.1,10.9,152.8z M11.9,229.7
		c-0.3,1-0.8-4.9-0.5-5.9C11.7,222.8,12.2,228.7,11.9,229.7z M11.9,123.2c0-0.8-0.1-5.4,0-5.9C12.6,114.7,12.1,141,11.9,123.2z
		 M13,186.3c0.1,1.4-0.6-18,0.5-13.8c0.8,2.9,0.1,2.5,0,5.9C13.6,177,13.4,195.2,13,186.3z M13.5,204c0,0.5,0.2,11.4-0.5,7.9
		C12.7,210.6,12.6,194.7,13.5,204z M13,292.8c0-1.1-0.2-7.2,0-7.9C13.6,282.7,13.4,311.3,13,292.8z M13.5,282.6
		c-0.8-5-0.7-55.6,0.1-56.9c0,0,0,0.7,0,1.8c0,1.1,0,2.8,0,4.7c0,3.9,0.1,9.3,0.2,15c0.1,11.4,0.3,24.1,0.4,29.7
		C14.1,277.4,13.3,281.1,13.5,282.6z M13,139c0.4-1.4,0.5,1.8,0.5,2C16.3,151.2,10.5,148.1,13,139z M13,95.6
		c0.2,13.5,0.4,2.4,0.5,19.7c0,6.2,1.1,13.6,0,17.7c-0.5,1.7-0.5-1.8-0.3-5.7c0.1-1.9,0.2-4,0.2-5.5c0.1-1.6,0.1-2.6,0.1-2.6
		c-0.1-2.9-0.5-4.8-0.9-6.1c-0.4-1.2-0.7-1.8-0.7-1.8c-1-27,0.7-67.9,0-88.7c0-0.6,0-7.9,0-7.9C13.8,14,12.8,83.3,13,95.6z
		 M15.6,11.9C21.1,10.4,7.8,14,15.6,11.9L15.6,11.9z M30.6,11.9c-0.9-0.3,3.4-0.7,4-0.5C35.5,11.6,31.2,12,30.6,11.9z M38.7,9.8
		C39.5,10,37.4,9.4,38.7,9.8L38.7,9.8z M52.3,11.9c-1-0.3,6.7-0.9,8-0.5C61.3,11.6,53.6,12.2,52.3,11.9z M68.1,11.3c0,0,0.1,0,0.1,0
		C68.6,11.5,68.3,11.4,68.1,11.3z M235.6,9.9C235.6,9.9,235.6,9.9,235.6,9.9c-0.2,0-0.3-0.1-0.3-0.1C235.4,9.8,235.5,9.9,235.6,9.9z
		"/>
	<path class="st0" d="M17.3,123.2c-0.2,0.7,0,6.7,0,7.9C17.5,155,18,120.6,17.3,123.2z"/>
	<path class="st0" d="M17.3,146.9c-1.6,6,1.1,41.3,0.5,43.4C19.1,185.6,16.9,148.3,17.3,146.9z"/>
	<path class="st0" d="M17.8,204c0.3-1.1-0.5-9.9-0.5-9.9c-0.5,2-0.4,4.4-0.1,6.4c0.1,1,0.3,1.9,0.4,2.5
		C17.7,203.7,17.8,204.1,17.8,204z"/>
	<path class="st0" d="M17.3,219.8c-0.4,1.3,0.3,8.9,0.5,7.9C18.2,226.4,17.6,218.8,17.3,219.8z"/>
	<path class="st0" d="M17.3,229.7c-0.1,0.5,0,5.1,0,5.9C17.5,253.4,18,227.1,17.3,229.7z"/>
	<path class="st0" d="M17.3,257.3c0.4,18.5,0.6-10.1,0-7.9C17.1,250.1,17.3,256.2,17.3,257.3z"/>
	<path class="st0" d="M17.3,269.1c-0.3,1,0.3,6.9,0.5,5.9C18.1,274,17.5,268.1,17.3,269.1z"/>
	<path class="st0" d="M17.3,280.9c-0.4,1.3,0.3,8.9,0.5,7.9C18.2,287.5,17.6,279.9,17.3,280.9z"/>
	<path class="st0" d="M17.3,294.7c-0.3,1,0.3,6.9,0.5,5.9C18.1,299.6,17.5,293.7,17.3,294.7z"/>
	<path class="st0" d="M17.3,314.5c-0.1,0.5,0.3,4.9,0.5,3.9C18,317.9,17.5,313.5,17.3,314.5z"/>
	<path class="st0" d="M27,342.7c1.3,0.4,7.9-0.3,6.9-0.5C32.6,341.9,26,342.5,27,342.7z"/>
	<path class="st0" d="M41.8,342.7c1.3,0.4,8.9-0.3,7.9-0.5C48.4,341.9,40.8,342.5,41.8,342.7z"/>
	<path class="st0" d="M65.5,342.7c0.5,0.1,4.9-0.3,3.9-0.5C68.9,342.1,64.5,342.5,65.5,342.7z"/>
	<path class="st0" d="M75.3,342.7c1,0.3,6.9-0.3,5.9-0.5C80.2,341.9,74.3,342.5,75.3,342.7z"/>
	<path class="st0" d="M95,342.2c-1-0.3-6.9,0.3-5.9,0.5C90.1,343,96,342.5,95,342.2z"/>
	<path class="st0" d="M191.8,342.8c-0.1,0-0.1,0-0.2,0c-0.1,0-0.1,0-0.2,0C191.6,342.7,191.7,342.8,191.8,342.8z"/>
	<path class="st0" d="M140.9,343.4c1-0.1,1.9-0.3,2.5-0.4c0.6-0.1,1-0.2,0.9-0.2c-1.1-0.3-9.9,0.5-9.9,0.5
		C136.4,343.8,138.9,343.7,140.9,343.4z"/>
	<path class="st0" d="M250.9,124.6c0.2-1.1-0.2-6.7-0.4-5.6C250.2,120.2,250.6,125.8,250.9,124.6z"/>
	<path class="st0" d="M97,343.3c-1-0.3-6.9,0.3-5.9,0.5C92.1,344.1,98,343.5,97,343.3z"/>
	<path class="st0" d="M251.5,79.3c0.2-0.9,0-6.7,0-7.8C251.5,47.9,251,82.4,251.5,79.3z"/>
	<path class="st0" d="M251.7,133.9c0.1-0.6-0.2-4.7-0.5-3.7C251.2,130.8,251.5,134.9,251.7,133.9z"/>
	<path class="st0" d="M251.8,126.1c-0.6-0.4,0.5-6.7,0.5-10.1C252.1,96.7,250.3,125.2,251.8,126.1z"/>
	<path class="st0" d="M251.5,95c-0.1,0.6,0.2,4.7,0.4,3.6C252,98,251.7,93.9,251.5,95z"/>
	<path class="st0" d="M252.4,162.8c0.1-2.6,0.3-6.1,0.3-9.5c0.2-7,0.2-14-0.5-13.8c-0.7,0.2-0.7,7.2-0.5,14.1
		c0.2,6.9,0.5,13.7,0.4,13.4C252.1,167.1,252.2,165.4,252.4,162.8z"/>
	<path class="st0" d="M252.2,137.5C252,138.5,252.5,136.1,252.2,137.5L252.2,137.5z"/>
	<path class="st0" d="M252.3,104.2c0.1-0.6-0.2-4.7-0.4-3.6C251.7,101.2,252.1,105.3,252.3,104.2z"/>
	<path class="st0" d="M252.7,123.6c0-0.1,0-0.2,0.1-0.3C252.7,123.3,252.7,123.4,252.7,123.6C252.7,123.6,252.7,123.6,252.7,123.6z"
		/>
	<path class="st0" d="M253.6,164.3c0.1-0.5,0-5.1,0-5.9C253.4,140.8,252.9,167.2,253.6,164.3z"/>
	<path class="st0" d="M254.5,83c-0.1,0.6,0.2,4.7,0.4,3.6C255.1,86,254.7,81.9,254.5,83z"/>
	<path class="st0" d="M255,78.8c0.6-3.4,0.4-14,0-24.1c-0.3-10-0.7-19.5-0.5-21c-0.5,2.9-0.3,13.6,0,23.9
		C254.8,68,255.1,77.8,255,78.8z"/>
	<path class="st0" d="M183.1,11c0.9,0.2,7.1-0.2,6.2-0.4C188.4,10.3,182.2,10.8,183.1,11z"/>
	<path class="st0" d="M215,10.6c0.5,0.1,5.1-0.2,4.3-0.4C218.9,10.1,214.2,10.4,215,10.6z"/>
	<path class="st0" d="M258.2,241.9c-0.1,0.6,0.3,4.9,0.5,3.9C258.9,245.1,258.4,240.9,258.2,241.9z"/>
	<path class="st0" d="M258.7,223.8C257.1,226.6,259.2,234.2,258.7,223.8L258.7,223.8z"/>
	<path class="st0" d="M258.6,203.9C258.4,204.8,258.9,202.5,258.6,203.9L258.6,203.9z"/>
	<path class="st0" d="M258.6,192c0.1-0.5,0-5.2,0-6C258.3,168.1,257.9,194.8,258.6,192z"/>
	<path class="st0" d="M259.3,305.4c-0.2-13,0.4,6.4,0-15.9c-0.4-21.6-0.5,8.5-0.5,26c0,10.1-0.1,21.4-0.1,32.1l0,4.2l-4.2,0
		c-10.2,0-19.8,0.2-27.4,0.6c8.8,0.4,18.1,0.5,27.4,0.5l5.4,0l0-5.4C259.9,332.9,259.6,318.3,259.3,305.4z"/>
	<path class="st0" d="M258.7,223.8C260.2,223,258.1,215.7,258.7,223.8L258.7,223.8z"/>
	<path class="st0" d="M175.9,353.4c0,0,11.9-0.1,24.2-0.2c12.4-0.2,25.2-0.4,27-0.9C223.5,352.7,173.6,351.6,175.9,353.4z"/>
	<path class="st0" d="M163.5,6.7C131.7,5.5,90.8,5.1,59.2,5c-3.7,0-39,0.8-28.3,1C61.5,6.6,121.4,7.2,163.5,6.7z"/>
	<path class="st0" d="M116.7,353.4c5.9,1.6,42.9-1.2,45.4-0.5C157.2,351.6,118.4,353.9,116.7,353.4z"/>
	<path class="st0" d="M6.6,12.8c0-0.2,0.1-0.5,0.1-0.8l0.2-5.4L5.6,6.7l0.7,5.3C6.4,12.7,6.5,13.1,6.6,12.8z"/>
	<path class="st0" d="M19.7,5.5c-1-0.3-5.3,0-7.2,0.3L10.4,6l2.1,0.1C14.9,6.2,20.6,5.7,19.7,5.5z"/>
	<polygon class="st0" points="6.9,5.9 6.9,6.5 10.4,6 	"/>
	<path class="st0" d="M6,14.7c-0.1,0.5,0,5.1,0,5.9C6.3,38.4,6.7,12.2,6,14.7z"/>
	<path class="st0" d="M6.6,60.1c0.3-1-0.3-6.9-0.5-5.9C5.8,55.2,6.3,61.1,6.6,60.1z"/>
	<path class="st0" d="M6,62.1c-0.1,0.5,0,5.1,0,5.9C6.3,85.8,6.7,59.5,6,62.1z"/>
	<path class="st0" d="M5.9,84.5C6,88.2,6,91.5,6,91.6c0.5,15.8,0.7-18.3,0-15.8C5.8,76.7,5.8,80.7,5.9,84.5z"/>
	<path class="st0" d="M6,263.2c2.1-5,0-51.7,0-57.2c0-13.6,0.5-32.6,0.5-53.2c0-2.4-0.1-15.9-0.2-28.6c-0.1-6.4-0.1-12.6-0.2-17.2
		c0-2.3-0.1-4.2-0.1-5.5c0-1.3,0-2-0.1-2c0,0.2,0,1.7,0,2c0,22.5,0.8,50.2,0,78.9C5.9,186,5,192,5,198.1c0,7.2,0.9,12.3,1.1,23.7
		C6.1,228.9,5.4,264.6,6,263.2z"/>
	<path class="st0" d="M37.9,354c17.1,0.8,45.7,0.4,61.1,0c24.4-0.6,5.8-0.4-9.9-0.5C76.2,353.4,55.6,353,37.9,354z"/>
	<path class="st0" d="M5.5,265.2c-0.2,0.7,0,6.7,0,7.9C5.7,297,6.2,262.6,5.5,265.2z"/>
	<path class="st0" d="M5.5,306.6c0.4,21.7,0.6-23.9,0-21.7C5.1,286.5,5.5,305.9,5.5,306.6z"/>
	<path class="st0" d="M6,322.3c0.3-1-0.3-6.9-0.5-5.9C5.2,317.4,5.8,323.3,6,322.3z"/>
	<path class="st0" d="M5.5,326.3C5.7,325.5,5.2,327.6,5.5,326.3L5.5,326.3z"/>
	<polygon class="st0" points="5.8,354.7 10.6,354.6 5.8,354.1 	"/>
	<path class="st0" d="M12.5,354.5l-1.9,0.1l1.9,0.2c5,0.5,17.8-0.5,25.4-0.8C35.3,353.4,17.5,354.3,12.5,354.5z"/>
	<path class="st0" d="M5.5,346c-0.1,0.4-0.2,0.9-0.3,1.5l-0.6,6.4l1.2,0.1l-0.2-6.5C5.5,346.6,5.5,346.1,5.5,346z"/>
</g>
</svg>
