<?xml version="1.0" encoding="utf-8"?>
<!-- Generator: Adobe Illustrator 22.0.0, SVG Export Plug-In . SVG Version: 6.00 Build 0)  -->
<svg version="1.1" id="Layer_1" xmlns="http://www.w3.org/2000/svg" xmlns:xlink="http://www.w3.org/1999/xlink" x="0px" y="0px"
	 viewBox="0 0 286.2 69.6" style="enable-background:new 0 0 286.2 69.6;" xml:space="preserve">
<style type="text/css">
	.st0{fill-rule:evenodd;clip-rule:evenodd;fill:#F6FAFC;}
</style>
<g>
	<g>
		<path class="st0" d="M7.7,58.8C7.8,58.6,7.7,58.9,7.7,58.8L7.7,58.8z M6.7,63.4c-0.1,0.2,0,1.1,0.1,0.9
			C6.8,64.2,6.7,63.3,6.7,63.4z M6.2,46.2c0,0.1,0,0.6,0.1,0.5C6.3,46.6,6.3,46.1,6.2,46.2z M6.3,16C6.4,15.8,6.3,16.1,6.3,16
			L6.3,16z M6.3,51.4C6.3,51.5,6.4,51.2,6.3,51.4L6.3,51.4z M59.2,62.7c0.1,0.2,1.3-0.2,1.3-0.2C60,61.9,59.2,62.7,59.2,62.7z
			 M250.2,61.5c0.1,0,0.2,0,0.1,0c-22.9,0-0.5,0.3-0.5,0.3C249.7,61.7,250,61.6,250.2,61.5c0.4,0,1,0,1.6,0c0.1,0,0.2,0,0.4,0
			C252.2,61.5,251.4,61.5,250.2,61.5z M6.7,7.7c0-0.1,0-0.6-0.1-0.5C6.6,7.3,6.7,7.8,6.7,7.7z M8.2,62.2C8.4,62.3,9.2,62,9,61.9
			C8.9,61.8,8.1,62,8.2,62.2z M6.2,34.1C6.4,33.6,6.1,32,6.1,32C6,32.3,6.3,33.9,6.2,34.1z M6.1,28.7C6.2,29,6.3,28.7,6.1,28.7
			L6.1,28.7z M6.1,28.7C6.1,28.3,6,28.7,6.1,28.7L6.1,28.7z M6.2,26.3c-0.1,0-0.1,0.4,0,0.5C6.3,26.9,6.2,26.4,6.2,26.3z M6.2,24.7
			c-0.1,0.1,0,0.8,0.1,0.7C6.3,25.3,6.2,24.6,6.2,24.7z M251.8,61.5c-1.6,0.1,1.9,0,1.5,0C252.8,61.5,252.3,61.5,251.8,61.5z
			 M6.2,31.8C6.2,31.9,6.3,31.6,6.2,31.8L6.2,31.8z M6.2,45.5c0.1-0.2,0-1.1-0.1-1C6.1,44.7,6.2,45.6,6.2,45.5z M6.2,47.1
			c-0.1,0.2,0,1.1,0.1,1C6.3,47.9,6.2,47,6.2,47.1z M11.4,61.9c-3.2,0,1.4,0.4,1.1,0C12.4,61.9,11.6,61.9,11.4,61.9z M7.9,14
			c0.1-0.1,0-0.8-0.1-0.7C7.8,13.4,7.9,14.1,7.9,14z M257.3,61.3C257.4,61.5,257.1,61.2,257.3,61.3L257.3,61.3z M6.1,36.5
			c-0.1,0.1,0,0.8,0.1,0.7C6.3,37.1,6.2,36.4,6.1,36.5z M7.2,13.9c0.1-0.1,0-0.8-0.1-0.7C7.1,13.3,7.2,14,7.2,13.9z M6.2,21.6
			c0-0.1,0-0.6-0.1-0.5C6.1,21.2,6.2,21.7,6.2,21.6z M6.5,14.1c0-0.1,0-0.8,0-0.9C6.5,10.3,6.4,14.4,6.5,14.1z M99.9,60
			C100,60.8,101,59.8,99.9,60L99.9,60z M6.2,38.9c0-0.1,0-0.6,0-0.7C6.2,36,6.1,39.1,6.2,38.9z M6.7,6.1C6.7,6.2,6.8,5.9,6.7,6.1
			L6.7,6.1z M7.5,24.9c0,1.4,0.1,2.9,0.1,1C7.5,24,7.4,22.5,7.5,24.9z M127.3,60.9c-0.2,0-0.4,0-0.6,0
			C126.8,60.9,127,60.9,127.3,60.9z M7.3,11.3c0.1-0.1,0-0.8-0.1-0.7C7.1,10.7,7.2,11.4,7.3,11.3z M48.6,61.1
			c3.7-0.5-4.1-0.1-3.2,0.2C46.7,61.8,47.8,61.2,48.6,61.1z M280.4,60.7C280.4,60.7,280.4,60.8,280.4,60.7
			C280.4,60.7,280.4,60.7,280.4,60.7z M28.7,61.2c-0.1-0.1-0.9,0.1-0.8,0.3C28,61.6,28.8,61.4,28.7,61.2z M22.1,60.8
			C22.2,60.9,21.9,60.6,22.1,60.8L22.1,60.8z M6.8,43.1c-0.1-4,0-8.5,0-12.4c0,0,0-0.1,0,0c0,0,0,0,0,0c0-0.3,0-0.6,0-0.8
			c0-3.2,0.2-7.7,0-11.1c0-0.4-0.2-1.3-0.2-1.7c0,0,0.2-0.3,0.2-0.5c0.2-1.6-0.2,0-0.2-1c0-1.5,0.1-6.1-0.1-3.5
			C6.3,17.3,6.4,26,6.4,30.6c0,4.7,0,8.8,0,12.8c0,6.3-0.1,12.1,0.3,18c0-0.2,0.1-0.8,0.1-0.7c0.2,2.1,0,5,0,7.1
			c0-0.2,0.1-0.8,0-0.9C6.9,67,6.9,64.2,7,60c0-1.5-0.1-2.9-0.1-4.5C6.8,51.5,6.9,47.3,6.8,43.1z M6.6,23.8
			C6.6,23.9,6.7,23.6,6.6,23.8L6.6,23.8z M6.6,45.7C6.7,45.6,6.6,45.8,6.6,45.7L6.6,45.7z M6.2,43.8c0.1-0.2,0-1.1-0.1-1
			C6.1,43,6.2,43.9,6.2,43.8z M7.7,34.2c0-0.2,0-0.5,0-0.9c0-0.3,0-0.5,0-0.5c-0.1,0.2-0.1,0.7-0.1,1.4C7.6,34.1,7.7,34.1,7.7,34.2z
			 M8,39.8C8,39.8,8,39.8,8,39.8c0.1,0,0.1,0,0.1-0.1c0-0.5-0.1-1-0.1-1.4C8.1,38.5,8,39.1,8,39.8z M7.9,35c0,0.2,0.1,0.3,0-0.2
			c0.1,1.2,0,0.8,0,2.4c0,0.3,0,0.6,0,1c0-0.3,0-0.3,0-0.1c0,0,0.2,1.1,0.1,1.5c0,0.2,0,0.3,0,0.5c0-6,0-11.7,0-15.5
			C8.1,23.4,8,21.3,8,20.2c0-3.1-0.1-3.5-0.1-2.4c0,0.2,0,0.3,0,0.4C8,24.1,7.9,29.6,7.9,35z M8.1,42.6c-0.1,0.3,0,0.9,0.1,1.1
			C8.2,43.4,8.2,43,8.1,42.6C8.2,42.6,8.1,42.6,8.1,42.6z M282.6,11.8c-0.1-1.2-0.5-5.1-0.7-5.4c-0.5-0.9-0.3,0-1,0.1
			c-0.2,0-0.3-0.1-0.4-0.2V6.1h-0.1V6l0,0.1h-1c0,0,0-0.1,0-0.1c0,0,0,0.1-0.1,0.1H8.2v13.4c0-0.1,0,1.9,0,5.1c0,0.1,0,0.2,0,0.3
			v15.7c0-0.1,0-0.3,0-0.4c0,0.8,0,1.7,0,2.5c0,0,0,0,0,0.1v1.1c0,0,0,0,0,0c0,0,0,0,0-0.1c0,5.6,0,11.2,0,15.7c0-0.1,0-0.3,0.1-0.8
			c0-0.2,0-0.5,0-0.8h0.2c-0.1,0.5-0.1,1.1,0.1,1.2c0,0,0,0.1,0,0.1c0.2,0.2,1.2-0.1,1.1-0.2c-0.1-0.1-0.5-0.1-0.8,0
			c0.1-0.2,0.1-0.6,0.2-1.1h12.6c1,0.1,2.9,0,2.4,0c9.7,0.5,20,0.5,28.7,0.1c3.4-0.2,7.2,0.3,11.2,0.2c2.5-0.1,5-0.2,7.6-0.3h40.9
			c-1.5,0.1-3,0.1-4.4,0.1c-12.2,0.3-27.7,0-38.5,0.3c-7.2,0.2-14,0.2-21.8,0.6c-5.8,0.3-13.4-0.4-22-0.2c-2.3,0.1-9.2,0.3-12.2,0
			c-0.8-0.1-3,0.2,0,0.5c7,0.7,11.4,0,18.9,0.1c2.8,0.1,9.1,0.2,5.3,0.7c-2.7,0.3-0.3,0-4-0.1c-6.3-0.2-14.4,0.5-20.7,0.4
			c-3.5-0.1,3,0.3,4,0.4c2,0,3.3,0.1,4.2,0.1c-0.7,0,1-0.3,0.8-0.3c1.5-0.1,7.3,0,9,0.5c0.5,0.1,2.7,0.2,0.8-0.3
			c-2.9-0.7,1.7,0,2.4,0c1.3,0.1,2.6,0,3.5,0.1c1.6,0.2,3.1,0.8,4.8,0.6c0.6-0.1,1.3-0.6,2.1-0.8c2.8-0.5,7.2,0,9.8-0.1
			c1.2,0,4.3-0.2,4,0.1c0,0-2.5,0.2-2.4,0.2c1.2,0.8,2.6-0.2,4.8-0.4c1.1-0.1,3.2-0.1,3.2,0.3c0,0-0.7,0-0.8,0
			c1.1,0.1,2.5-0.1,4.3-0.2c0.7,0,1.4-0.3,1.9-0.2c0.6,0.1,1.3,0.6,1.8,0.6c0.5,0,1.4-0.8,2.7-0.8c0.1,0,0.8,0.2,1.1,0.3
			c3.4,0.8-5.7,0.7-6.4,0.7c-2.5,0.1-5.7,0-8.2,0.1c-3.5,0.1-6,0-8.5,0.1c-0.4,0-2.5,0.5-3.2,0.5c-0.6,0-2.4-0.3-2.7-0.3
			c-1.3,0-1.7,0.5-3.2,0.5c-3.1-0.1-7.2-0.5-10.4-0.5c-6.7,0-12,0.2-17.5,0.4c-1.5,0.1-2.1,0.1-0.3,0.3c2.7,0.3,6.2,0,8.2-0.1
			c5.4-0.3,11.5,0.6,17.6,0.7c-0.2,0.1-0.4,0.2-0.3,0.2c0.1,0.1,0.6-0.1,0.5-0.2c0.4,0,0.7,0,1.1,0c3.7,0,7.3-0.5,10.6-0.6
			c2.6,0,4.9,0,7.2-0.1c3.1-0.2,7.5,0.7,9.6,0.5c-0.1,0,0.3-0.5,1.1-0.5c20.4-0.5,39.7-0.5,56.9-1.2c-0.5-0.1,0.3-0.7,0.6,0
			c9.3-0.4,108.9-0.3,123.5,0c7.9,0.2,0.9,0.4,8.7,0.3c1.7,0,3.3-0.5,4.8-0.4c0.3,0,0.2,0.5,0.5,0.6c1.2,0.3,4.4,0,6.9,0.1
			c3,0.2,6,0.7,7.8,0c-0.2,0.1,0.7-0.6,0.9-0.6c0-0.1,0-0.2,0-0.3c0,0,0,0,0.1,0l1.2,0l0-1.1c-0.1-8.6-0.2-1.2-0.2-10
			c0.1-12.5,1.1-1.1,1.1-14.4c0-18.4,0.6,11.8,0.6-6.6C283.1,23.3,283.1,17.8,282.6,11.8z M122.3,57.9h0.7c-0.2,0.1-0.5,0.4-0.7,0.2
			C122.2,58,122.2,57.9,122.3,57.9z M54.2,59.9c-1.9,0-4.8,0-8.2,0.1c-1.7,0-3.9,0.4-6.1-0.1c-2.4-0.6,1.9-0.2,2.4-0.2
			c4-0.3,10.7-0.5,14.1-0.5c0.8,0,2.4,0.1,2.9,0.3C61.2,60.5,55.4,59.8,54.2,59.9z M81,61c-1.8,0-2.1,0-3.7-0.1
			c0.6,0-2.3,0.5-1.3-0.3c0.1-0.1,2.9-0.4,3.7-0.5c1.3-0.1,3.3-0.3,4.5-0.2c0,0,2.6,1,2.9,0.6C86.5,61.3,82,61,81,61z M79.5,59.3
			c-3.9,0.2-7.9,0.2-11.7,0.3c-0.3,0-11.5,0.1-6.1-0.4c2.4-0.2,5.2,0.1,8.2-0.1c10.3-0.6,21.1-0.3,30.8-0.7
			c3.3-0.1,8.2-0.1,11.2-0.3c1.9-0.1,5.8,0,3.2,0.3c-0.5,0.1-1.1,0.1-1.6,0.2c0,0,0.1,0.1,0,0c0,0,0,0,0,0
			C102.7,59.8,90.7,58.8,79.5,59.3z M108.4,59.9c-0.1-0.1,0.7-0.4,0.8-0.3C109.4,59.8,108.6,60.1,108.4,59.9z M90.9,60.6
			c-0.1-0.1,0.5-0.3,0.5-0.3C91.5,60.5,90.9,60.7,90.9,60.6z M130.7,59.6c-3.4,0.2-0.4-0.1-2.4,0c-1.5,0.1-14.3,1-18.9,1.2
			c-1.9,0.1-3.9-0.2-5.5-0.3c0.4,0,0.9-0.2,0.8-0.3c-0.2-0.2-1.2,0.1-1.1,0.2c0,0,0,0,0.1,0c-0.8-0.1-1.4-0.1-1.9-0.1
			c-1,0.1,0.6,0.5-1.1,0.5c-1.5,0-2.5,0-4.2-0.1c-4.3-0.3,2.3-0.6,3.5-0.7c3.1-0.8,6.6,0.4,9.8,0.2c0.4,0,0.1-0.4-0.3-0.3
			c0.6-0.3,3-0.5,4-0.5c1.3,0,0.4,0.5,1.1,0.6c2.3,0.4,4.3-1,8.5-0.9c1.4,0,3.3,0.2,4.2,0.1C127.8,59.2,134.4,59.4,130.7,59.6z
			 M132.9,59.6c-0.1-0.1,0.7-0.4,0.8-0.3C133.8,59.5,133,59.8,132.9,59.6z M133.9,59.4c0,0,0.8-0.8,1.3-0.2
			C135.3,59.1,134.1,59.5,133.9,59.4z M149.1,59.4c-0.9,0.9-8.7,0.1-10.1,0.1c-0.3,0-2.5-0.2-2.4-0.3c0.5-0.5,1.8,0.1,2.7,0.1
			c1.8,0,2.7,0.2,5,0.1C143.8,59.3,149.7,58.8,149.1,59.4z M149.9,59.4c0.3-0.4,89.8-0.5,90.2,0.1C240.5,59.9,150.1,59.2,149.9,59.4
			z M246,59.6c0,0-1.6,0.1-2.9-0.1c-1.3-0.1-1.2-0.1,0.8-0.3C245.1,59.2,251.4,59.5,246,59.6z M250,59.5c0,0,0.8-0.8,1.3-0.2
			C251.3,59.2,250.1,59.6,250,59.5z M280.5,7.6V7.4C280.6,7.5,280.6,7.5,280.5,7.6z M8.1,58.2c0,0,0,0.1,0,0.1c0,0.8,0,1.6,0,2.4
			c0,2,0,4.4,0.1,7.6c0,0.1,0-3.5,0-8.9C8.1,59.7,8.1,58.3,8.1,58.2z M7.9,46.4c0,0.5,0,1.1-0.1,1.8c-0.1,1.2,0,2.7-0.1,3.8
			c0,0,0,0,0,0c0.1-0.1,0.1,0.6,0.1,0.7c0,0.1-0.1-0.2-0.1-0.5c0,0.9-0.1,1.5-0.2,1.4c0,0,0-0.4,0-0.9c0,0.3,0,0.5,0.1,0.5
			c0.1-0.2,0-1.9,0-1.9c0-0.2,0-0.3,0-0.4c0-0.2,0-0.3,0-0.1c0,0.5,0,0.1,0-0.7c0-0.1,0-0.3,0-0.4c0-2.9-0.1-9.4-0.1-7.4
			c0,1.3,0,2.5-0.1,3.7c0-1.1,0-2.2,0-3.2c0-0.1,0-0.2,0-0.3c0-1,0-1.9,0-2.9c0.1,1.2,0.1,1.9,0.2,2.6c0-1.6,0-3.4,0-5.1
			c0-0.7-0.1-2.1-0.1-3.1c0,0-0.1-0.1-0.1-0.3c0-1.5,0-2.9,0-4.2c0,0.5,0.1,1,0.1,1c0,0.4,0,0.8,0,1.1c0,0.6,0.1,0.8,0.1,0.8
			c0,0.3,0,0.5,0,0.7c0,0.1,0,0.3,0,0.4c0.1-2.8,0.1-13.3,0.2-15.9c0-1-0.1-3.2-0.1-3.2c-0.2,0.5-0.1,7.3-0.1,8.5c0,2.4,0,4.7,0,6.1
			c0-0.6-0.1-0.9-0.1-0.8c0,0,0,0.1,0,0.2c0-2.1,0-3.9,0-5.1c0-0.3,0-0.8,0-1.3c0-0.1,0-0.2,0-0.2c0-0.1,0-0.1,0,0
			c-0.1-0.5-0.1-1-0.1-1c-0.1,0.3,0,1.1,0.1,1.9c0,1.5-0.1,4.6-0.1,8.5c0-0.5-0.1-1.1-0.1-1.7c0-0.1,0-0.2,0-0.3
			c0-1.4,0.1-2.7,0.1-4c0,0.2-0.1,1-0.1,0.9c-0.1-0.7,0-2.2,0-3.3c0-3.2,0.3-5.5,0-8C7.1,13.7,7.1,18.9,7,20
			c-0.1,7.7-0.1,9.3-0.1,15.1c0,0.3,0,0.6,0,0.8c0-0.2-0.1-0.3-0.1-0.3c-0.1,0.1,0.1,1.2,0.1,1.2c0,0,0,0,0,0c0,0.5,0,1,0,1.4
			c0,0,0,0,0,0c0,0.1,0,0.4,0,0.7c0,1.3,0,2.7,0,4.2c0,0.6,0,1.3,0,1.9C7,50.4,7,55.8,7,60c0,0.9,0.1,1.8,0.1,2.8
			c0,1,0.1-1.5,0.1-5.6c0,1.4,0,2.9,0.1,4.2c0,0.3,0-1.1,0-3.6c0,0.4,0,0.6,0.1,0.8c0-0.1,0-0.7,0-1.2c0,0.4,0,0.7,0,1.1
			c0,2.4,0.1,7.7,0.2,10.4c0,0.6,0-2.7,0-7.8c0,0.2,0,0.3,0.1,0.2c0.1-0.1,0-0.9-0.1-1c0-0.6,0-1.3,0-2c0,0.3,0.1,0.6,0.2,0.9
			c-0.2-0.6,0.2-0.8,0.4-1c-0.1-4-0.1-7.8-0.1-11.5C7.9,46.6,7.9,46.5,7.9,46.4z M7.1,26.6c0-0.1,0.1,0.4,0.1,0.5
			C7.2,27.2,7.1,26.7,7.1,26.6z M7.1,27.6c0.1-0.1,0.1,0.6,0.1,0.7C7.2,28.4,7.1,27.7,7.1,27.6z M7.1,34C7.1,34,7.1,34,7.1,34
			c0-0.5,0.1-0.7,0.1-0.9c0,0.8,0.1,1.7,0.1,2.5c0,0.3,0,0.6,0,1c0,0.1,0,0.1,0,0.2c0,0.2,0,0.3,0,0.4c0,0,0,0,0,0
			c0-0.2,0-0.4,0-0.6c0-0.2,0-0.3-0.1-0.5c0-0.1,0-0.2,0-0.2c0-0.1,0-0.2,0-0.3c0-0.2,0-0.7,0-0.9C7.2,33.6,7.1,33.6,7.1,34z
			 M7.3,37.8c0,0.1,0,0.2,0,0.3c0,0,0,0,0,0C7.3,38,7.3,37.9,7.3,37.8C7.3,37.8,7.3,37.8,7.3,37.8z M7.2,55.2c0-0.9,0-1.9,0-2.9
			c0,0.2,0,0.4,0.1,0.5C7.3,53.6,7.2,54.4,7.2,55.2z M7.4,50c0,0.4,0,0.9,0,1.3c0,0.3,0,0.6,0,0.8c0-0.3-0.1-0.5-0.1-0.4
			c0,0,0,0,0,0c0-0.1,0-0.2,0-0.3c0,0,0,0,0,0c0,0,0-0.1,0-0.2c0-0.2,0-0.5,0-0.7c0,0,0,0,0,0c0-0.1,0-0.5,0-0.7c0-1.1,0-2.2,0-3.4
			c0,0,0,0-0.1,0c0-0.1,0-0.2,0-0.3c0-0.6,0-1.2,0-1.8c0,0,0-0.1,0-0.1c0.1-0.2,0.1-0.5,0-0.7c0-1,0.1-1.9,0.1-2.6
			c0,0.2-0.1,0.6-0.1,0.2c0-0.7,0.1-1.7,0.1-2.9c0,0,0,0,0,0c0,0.5,0,1.1,0,1.7c-0.1,0.1,0,0.2,0,0.1c0,0.9,0,1.8,0,2.6
			c0,0.1,0,0.2,0,0.3c0,0.2,0,0.3,0,0.5c0,0,0,0,0,0c0,0.1,0,0.3,0,0.5c0,0.9,0,1.8,0,2.7c0.1-0.1,0.1-0.7,0.1-1.3
			c0,1.1,0.1,2.2,0.1,3.3c0,0.5,0,0.9,0,1.3C7.4,50,7.4,50,7.4,50z M7.5,47c0,0.5,0,1.1,0,1.5c0,0,0,0,0,0.1
			C7.5,48.1,7.5,47.6,7.5,47z M7.5,49c0,0.1,0,0.1,0,0.2c0,1.3,0,2.2,0,1.9c0-0.1,0-0.1,0-0.1C7.5,50.3,7.5,49.7,7.5,49z M7.6,56
			c0,0.1-0.1-0.2-0.1-0.5c0-0.1,0-0.3,0-0.4c0,0,0,0,0-0.1C7.6,54.9,7.7,55.9,7.6,56z M7.6,54.8c-0.1,0.1-0.1-0.6-0.1-0.7
			C7.6,54,7.7,54.7,7.6,54.8z M7.9,50.9c-0.1,0.1-0.1-0.6-0.1-0.7C7.9,50,7.9,50.8,7.9,50.9z M7.9,36.9c0-0.6,0-1.3,0-1.9
			c-0.1-0.3-0.1-0.8-0.2-1.3c0,0.3,0,0.5,0,0.6C7.8,34.5,7.8,35.1,7.9,36.9z M8,38.4c0-0.5,0-1-0.1-1.4c0,2.6,0,5.1,0,7.7
			c0,0.3,0,0.6,0,1c0,0.4,0,0.7,0,1.1C8,47.8,8,48.9,8,50.2c0,1.3,0-6.7,0-10.4C7.9,39.7,7.9,37.7,8,38.4z M7.7,34.2
			C7.7,34.2,7.7,34.2,7.7,34.2C7.7,34.4,7.7,34.4,7.7,34.2z M7.9,44.7c0-1-0.1-1.6-0.2-2.4c0,0.4,0,0.7,0,1.1c0,0.6,0.1,1.7,0.2,3.1
			c0-0.3,0-0.5,0-0.7C7.9,45.3,7.9,45,7.9,44.7z"/>
	</g>
</g>
</svg>
