<?xml version="1.0" encoding="utf-8"?>
<!-- Generator: Adobe Illustrator 22.0.0, SVG Export Plug-In . SVG Version: 6.00 Build 0)  -->
<svg version="1.1" id="Layer_1" xmlns="http://www.w3.org/2000/svg" xmlns:xlink="http://www.w3.org/1999/xlink" x="0px" y="0px"
	 viewBox="0 0 1345.6 1446.9" style="enable-background:new 0 0 1345.6 1446.9;" xml:space="preserve">
<style type="text/css">
	.st0{fill-rule:evenodd;clip-rule:evenodd;fill:#FAFDFE;}
</style>
<g>
	<g>
		<path class="st0" d="M1342.9,154.5c1-4.8-0.7-33.1-1.5-29.3C1340.4,130,1342.1,158.2,1342.9,154.5z M1341.3,198.2
			c-0.5,2.5-0.1,25.1-0.1,29.2C1342.1,296.1,1343,190.2,1341.3,198.2z M1341.2,263.9c-1.7,8-1.4,24.5-0.6,39
			c0.4,7.2,0.9,14,1.3,18.9c0.4,4.9,0.7,8.1,0.7,8.1C1344.5,320.4,1339.6,271,1341.2,263.9z M1340.9,550.9
			c-0.4,1.9,0.7,18.2,1.5,14.9C1342.8,563.9,1341.7,547.6,1340.9,550.9z M1331.9,1174.5c-0.9,4.3,0.3,33.3,1,29.9
			C1333.8,1200.2,1332.6,1171.1,1331.9,1174.5z M1330.8,1248.8c0.3,3.9,0.6,7.4,0.9,9.8c0.3,2.5,0.5,4,0.5,3.9
			c0.7-3.5-0.9-37.2-0.9-37.2C1330,1231.7,1330.2,1241.1,1330.8,1248.8z M1328.5,1386.5c-0.4,2.2-0.3,24.9-0.3,29
			C1328.1,1484.2,1329.8,1379.7,1328.5,1386.5z M987.4,6.6c-0.2-0.1,3.4-0.2,9.9-0.2c6.5,0,15.7-0.1,26.6-0.1
			c21.8-0.1,21-0.2,46.8-0.3c51.7-0.3,93.4-0.9,52.2-2.4c-40.4-1.5-54.7-0.9-93.1,0C982.1,4.6,974.4,1.8,987.4,6.6z M1315.8,1176.2
			c0-0.1,0-0.1,0-0.2C1315.8,1175.8,1315.8,1175.9,1315.8,1176.2z M13.2,1076.5c0-1.8,0.1-3.3,0.1-4.7c0-1.2-0.1-2.4-0.1-3.7
			C13.2,1070.9,13.2,1073.7,13.2,1076.5z M12.8,1235.9c0,0.3,0.1,0.6,0.2,0.9c0.1,0.4,0.1-40.5,0.2-94.8c-0.1-3.4-0.1-7.1-0.2-11
			C12.8,1160.5,12.7,1200.4,12.8,1235.9z M12.7,1117.5c0.1,4.7,0.2,9.2,0.2,13.5c0.1-16.4,0.2-29.5,0.3-37c0-5.8,0-11.6,0-17.5
			C13.1,1086.1,12.9,1100.8,12.7,1117.5z M1306.3,2c-57.6,0-90.3,0.7-111.8,1.5c-55.6,2.1,66.7,1.5,64.5,1.5
			c12.9,0.1,26.8,0.1,47.3,0.2l15.1,0.1l-0.1,14.9c-0.6,130.3-2.1,544-3.3,656.4c-0.6,66.7,0.9,206.6-1.9,215.7
			c0-0.6,0.2-85.3,0.3-115.2c0.2-41.3-1.9-90.3-1.3-122.8c0.2-13.6,3-53.1,3.1-56.9c0-22.4,0.1-267,0.1-300.5
			c0.6-71.7,0.5-124.3,0.1-172.9c-0.2-34.7-3.2-78-1.4-103.7l0.7-9.9l-11.4-0.8c-4.4-0.3-8.3-0.8-11.5-1.4
			c-37.9,0.8-132.3,1.5-236.4,1.5c-341.6,0-610.6,2.5-923.4,4.6c-40.3,0.3-81.1-0.1-121.5-0.6l-6.5-0.1L7,20.2
			C6,95,4.6,168.4,6.1,235.2C6.5,253,9,267.6,9.1,285.3c0.8,79.8,0.7,374.6,0,457.3c-1.3,156.2,1.2,354.9,1.5,563
			c0.1,57.3-3.5,23.8-1.5,57.4c1.4,24.2,3.1-25.8,4.4,21.3v11.4c-0.6-3.7-2-22.8-2.9-18.4c-2.2,11-0.1,27,2,39.6l0.2,1.1l0.8-0.1
			c2-0.3,3.9-0.6,5.7-0.9h32.5c-10.1,0.3-19.4,0.7-27.6,1.4c-11.9,0.9,13.2,1.6,7.2,1.5c37.8,0.6,65.6,0.1,100.4,0
			c68.3-0.2,122.5,1.5,174.9,2.5c52.3,1,102.8,1.4,162.7-1.1c31.1-1.3-78.4-1.3-93.7-1.4c-87.8-0.6,18.4-1.7,71.4-1.5
			c86.4,0.5,148.8,0.8,244.3,1.3c126.9,0.3-38.6-0.1-92.8,1.5c-64.1,1.9,72.9,0.9,101.1,1.3c4,0,59.2-0.1,64.7-0.1
			c16.9-0.2,36.6-0.2,56.9-0.1c-25.4,0.8-47.3,1.8-49,1.5c7.4,1.3,39.3,0.8,69.4,0c15-0.4,29.7-0.8,40.7-1.2
			c11-0.3,18.3-0.5,18.6-0.5c-0.2,0-0.6-0.1-0.8-0.1c13.6-0.2,25.9-0.6,35.9-1.3c22.7-1.4-34.9-1.3-36.7-1.3
			c-124.4,0.2-251.7-1.8-354.8-2.5h390.7c2.4,0.1,6.2,0.1,10.3,0h40.3c1.1,0,2.5,0,4,0h316.5v-16.7c0.3,0.7,0.7,1.4,1,2
			c1.9,3.7,9.5,18.4,11,10.8c2.8-14.9,3.2-80.5,2.7-149.3c-0.5-68.8-2.1-262.6-2.1-68.8c-0.2,64.1-0.4,58.3-0.5,11.5
			c-0.1-114.3,1.3-412.9,2.9-554.1c1.6-141.2,3.2-500.4,3.2-629.2v-2.8l0-18.2L1306.3,2z M10.7,77.8C11.7,73.1,10,80.8,10.7,77.8
			L10.7,77.8z M10.7,321.1c0-0.1,0.3,1.2,0.7,3.4c0.4,2.2,0.9,5.4,1.2,9c0.8,7.2,1.1,230.2-0.4,237.3C12.2,570.9,9.8,325,10.7,321.1
			z M12.5,612.4c0,0.2-0.1,0.4-0.2,0.7c0,0.2-0.1,0.4-0.1,0.7c0,0.1,0,0.2-0.1,0.3c0.1-0.3,0.1-0.6,0.2-0.9
			C12.4,612.8,12.5,612.6,12.5,612.4z M12.2,1327.2c-0.4,1.9,0.1-0.6,0.3-1.3C12.5,1326.1,12.4,1326.5,12.2,1327.2z M13.6,1065.3
			c-0.1-1-0.2,1.4-0.3,6.5c0.1,4.1,0.2,7.5,0.3,10.1v17.2c-0.1-14.8-0.3-14.7-0.4-5.2c0,16.6,0,32.8-0.1,48
			c0.2,8.4,0.3,15.4,0.4,20.3v87.1c-0.4-33.7-0.7-10.7-0.7,16.6c0.1,15,0.1,28,0.3,37.5c0.1,5.2,0.3,8.7,0.5,9.5v6.5
			c-0.2-1.6-0.3-7.4-0.5-16c-0.2-9.3-0.3-23.9-0.3-37.5c0-9.4-0.1-19.6-0.1-30.2c-0.3-1.7-0.5-2.7-0.5-2.6c-0.4,2,0-65.7,0.5-115.9
			c-1.4-88.1-3.1-255.3-0.5-267.5c-1,4.6-0.1,162.1,1,218.1c0.1-92.8,0.2-189.2,0.3-188.3V1065.3z M150.7,19.4
			c1-0.5,2.8-0.8,5.8-0.5c-1.6-0.2,5.2,0.5,15.3,1.4h-22.3C149.7,20,150,19.7,150.7,19.4z M318.3,1419.8
			c-35.6,0.5-91.7-1.2-147.4-2.4c-8.2-0.2-16.5-0.3-24.6-0.5h186.5C329,1418.2,330.1,1419.6,318.3,1419.8z M323.8,20.2
			c4.2-0.2,8.1-0.2,10.4,0H323.8z M444.2,20.2c52.5-1.7,181-0.5,249.8,0H444.2z M1201.9,20.2h-162.3c40.3-1.1,131-6.4,190.7-1.4
			C1234.3,19.2,1209.8,19.9,1201.9,20.2z M1266.3,20.2h-7.7c-0.5-0.7,12.9-1.7,14.7-1.4C1275.3,19.3,1270.8,19.9,1266.3,20.2z
			 M1315.9,1147.4C1314.9,1151.7,1316.4,1144.6,1315.9,1147.4L1315.9,1147.4z M1315.7,1104.2c0.1-0.3,0.1-0.6,0.2-0.9c0,0,0,0,0-0.1
			c0,0,0,0,0-0.1c0,0,0,0.1,0,0.1C1315.8,1103.7,1315.8,1104,1315.7,1104.2z M1316.9,1234.5c-3.7,6.3-3.3-70.3-1.2-65.5
			c2,4.6,0.1,5.4,0,7C1316,1178.8,1318.3,1232.3,1316.9,1234.5z M1317.4,1096.1c-0.7,3.3-2.1-18.9-1.3-22.2
			C1316.8,1070.5,1318.1,1092.7,1317.4,1096.1z M679.4,3.5c-6.6-1.4-17.3-1.1-26.4-0.3c-4.5,0.4-8.7,0.8-11.7,1.2
			c-1.5,0.2-2.7,0.4-3.6,0.5C636.9,5,636.4,5,636.4,5C634.6,7.8,695.2,6.9,679.4,3.5z M757.2,5.7c6.8,0.4,14,0.8,15.3,0.8
			c54,1.3,133.8,0.5,171.9,0C931.3,6.8,991,5,973,3.5c-15.4-1.2-72.7-1-126.1-0.4c-26.7,0.4-52.5,0.8-71.6,1.1
			c-9.5,0.2-17.4,0.4-22.9,0.5c-2.7,0.1-4.9,0.2-6.3,0.2c-0.7,0-1.3,0.1-1.7,0.1c-0.4,0-0.6,0-0.6,0.1c0,0,1.6,0,4.1,0.2
			C750.4,5.4,753.8,5.6,757.2,5.7z M912,1428.6c-3-0.5-24.6,0.1-28.9,0.1C795.9,1429.7,922.6,1430.3,912,1428.6z M99.2,6.6
			c143.5-0.7-22.8-5-43,0C52.8,7.5,89.3,6.6,99.2,6.6z M178,6.6C221.4,10.3,223.7,1.2,178,6.6L178,6.6z M328.4,6.6
			c6.2,1.3,83.6,0,85.9,0C516,5.9,313.7,3.4,328.4,6.6z M486,6.6c2,0.4,17.7-0.8,14.3-1.5C498.3,4.6,482.6,5.9,486,6.6z M530.9,7
			c3.6-0.4,6.8-0.9,9-1.2c2.2-0.4,3.5-0.7,3.5-0.7c-4-0.8-35.8,1.5-35.8,1.5C514.6,8.1,523.6,7.7,530.9,7z M579.1,5
			c-3.7-0.8-25.1,0.8-21.5,1.5C561.3,7.4,582.7,5.8,579.1,5z M810.3,1427.7c-5.6-0.9-83.7,0.2-86.5,0.3
			C644.4,1429.3,824.1,1430,810.3,1427.7z M1.5,41.7c0.1-0.2,0.1-0.4,0.1-0.6C1.6,41.3,1.6,41.5,1.5,41.7z M1.5,41.7
			c0,0.2-0.1,0.4-0.1,0.5c0-0.1,0-0.2,0.1-0.3C1.5,41.9,1.5,41.8,1.5,41.7z M1.7,41.1c0-0.1,0.1-0.2,0.1-0.3
			C1.7,40.9,1.7,41,1.7,41.1z M1.7,40.8C1.8,40.3,1.8,40.4,1.7,40.8L1.7,40.8z M264,6.6c-3.6-0.8-25.1,0.8-21.5,1.5
			C246.1,8.9,267.6,7.4,264,6.6z M285.5,8.1c2,0.4,17.7-0.8,14.3-1.5C297.8,6.2,282.1,7.4,285.5,8.1z M314.1,8.1
			C313.7,8,313.6,8,313.5,8C314,8.1,317.7,8.9,314.1,8.1z M1244.7,6.6c-3.7-0.8-25.1,0.8-21.5,1.5C1226.8,8.9,1248.3,7.4,1244.7,6.6
			z M1318.4,8.7l-0.2,11.6c-0.8,47.8,3.5,29.8,1.4,0l-1-14.1L1306.3,7c-3.7,0.3-7.6,0.6-11.5,1.1c4.2,0.1,8,0.2,11.5,0.3L1318.4,8.7
			z M564.6,1426.9c0.1,0,0.2,0,0.3,0c-0.2,0-0.5-0.1-0.7-0.1C564.3,1426.9,564.4,1426.9,564.6,1426.9z M565.2,1427
			C565.5,1427.1,565.4,1427.1,565.2,1427L565.2,1427z M564.2,1426.8c-0.5-0.1-0.9-0.2-1-0.2C563.3,1426.7,563.8,1426.8,564.2,1426.8
			z M507,1427c-1.9-0.4-18.8,0-21.6,0C420.5,1427.8,516.8,1428.9,507,1427z M1.5,814.2c-0.4,2,0.8,17.7,1.5,14.3
			C3.4,826.5,2.2,810.8,1.5,814.2z M1.5,714c-3.2,15.1,0.9,34.8,1.5,35.8C4.6,752.2,3.9,702.8,1.5,714z M3,271
			C2.4,274,4,266.3,3,271L3,271z M3,163.6C2.4,166.6,4,158.9,3,163.6L3,163.6z M1054.1,1425.4c5.4,0.8,32.1-0.7,27.9-1.3
			C1076.5,1423.3,1049.8,1424.8,1054.1,1425.4z M4.5,778.4C5.5,773.7,3.9,781.4,4.5,778.4L4.5,778.4z M4.5,685.4
			c0.8-3.7-0.8-25.1-1.5-21.5C2.2,667.5,3.8,689,4.5,685.4z M1002.4,1423.1c-3.2-0.5-17.9-0.5-31.6-0.3c-13.6,0.2-25.4,0.4-26,0.4
			C888,1424.7,1012.6,1424.7,1002.4,1423.1z M6,1341.8c0-0.1,0.1-0.3,0.1-0.4c0,0.1,0,0.1,0,0.2C6.1,1341.6,6,1341.7,6,1341.8z
			 M6.2,1340.8C6.4,1340,6.2,1306.4,6.2,1340.8L6.2,1340.8z M6.2,1340.8c0,0.1-0.1,0.3-0.1,0.4C6.2,1341.1,6.2,1341,6.2,1340.8z
			 M1308.2,1420.9C1308,1420.9,1308,1420.9,1308.2,1420.9L1308.2,1420.9z M1309.3,1421.1c0.2,0,0.5,0.1,0.7,0.1c-0.1,0-0.1,0-0.2,0
			C1309.6,1421.1,1309.5,1421.1,1309.3,1421.1z M1308.6,1421c-0.2,0-0.3,0-0.4-0.1C1308.2,1420.9,1308.4,1420.9,1308.6,1421z
			 M1215.5,1420.2c-2-0.3-18.7,0-21.5,0C1129.6,1420.8,1226.1,1421.7,1215.5,1420.2z M994.3,1421.9c5.3,0.8,32.1-0.7,27.9-1.3
			C1016.8,1419.7,990.1,1421.2,994.3,1421.9z M562.7,1421.1C562.7,1421.1,562.7,1421.1,562.7,1421.1c-0.1,0-0.2,0-0.3,0
			C562.5,1421.1,562.6,1421.1,562.7,1421.1z M562.4,1421.1c-0.5-0.1-0.9-0.2-1.1-0.2C561.6,1420.9,562,1421,562.4,1421.1z
			 M527.2,1422.6c2.1,0.4,17.5-0.8,13.9-1.5C539,1420.7,523.6,1421.9,527.2,1422.6z M503.9,1420.9c0.6,0.1,1.8,0.3,2,0.4
			c-0.1,0-0.3-0.1-0.7-0.1C504.6,1421,504.2,1421,503.9,1420.9z M1056.7,1419.2c-2.2-0.3-17.3,0.7-13.4,1.3
			C1045.5,1420.8,1060.5,1419.8,1056.7,1419.2z"/>
	</g>
</g>
</svg>
