<?xml version="1.0" encoding="utf-8"?>
<!-- Generator: Adobe Illustrator 22.0.0, SVG Export Plug-In . SVG Version: 6.00 Build 0)  -->
<svg version="1.1" id="Layer_1" xmlns="http://www.w3.org/2000/svg" xmlns:xlink="http://www.w3.org/1999/xlink" x="0px" y="0px"
	 viewBox="0 0 278.5 71.2" style="enable-background:new 0 0 278.5 71.2;" xml:space="preserve">
<style type="text/css">
	.st0{fill-rule:evenodd;clip-rule:evenodd;fill:#F6FAFC;}
</style>
<g>
	<path class="st0" d="M12.6,60c-1.7,1-9.4-3-12.8,0.8c-0.9,0.9,7.2,1.9,16.4,2.7c9.1,0.8,19.3,1.5,22.4,1.7
		c12.3,0.9,30.3,0.6,44.4,1.5c13,0.9-12.2,0.2-23.3-0.2c-7.8-0.3-17.2-1-26.1-1.6c-8.9-0.6-17.4-1.2-23.7-1.2
		c-4.2-0.1,0.5,0.4,6.5,1c6,0.6,13.4,1.3,14.6,1.4c4.5,0.5,14.2,2.8,22,3.2c25.9,1.4,54.5,1.5,82.1,0.8c27.6-0.7,54.3-2.2,77.3-3.6
		c15.9-0.9-4-0.3-17.7,0.3c-13.9,0.5-29.7,0.7-45.6,0.8c-15.9,0.1-32.1,0.1-47,0.5c-0.6,0-21.1-1.4-8.4-0.9c26.7,0.9,54.9,0.2,83-1
		c28.1-1.2,56-2.9,83.3-3.5c4-0.1,8.5-0.2,13.6-0.3l5-0.1l-0.1-4.7c-0.5-17.3-1.5-39.4-2.9-56l-0.2-2l-1.7,0.1
		c-0.9,0.1-1.7,0.1-2.5,0.2c-4.9,0.4-2.4,0.5,2.5,0.3l1.3,0l0,1.4c0.1,4.8,0.4,11.9,0.6,16.8c0.6,13.5,0.4,26.6,0.3,39.2l0,2.3
		l-2.2,0c-7.5-0.1-14.8-0.2-22-0.1c-12.1,0.1-18.9,1.4-26.2,1.6c-2.4,0.1-22.3,0.4-8.5-0.9c6.5-0.6,19.6-0.1,29.3-0.8
		c5.7-0.4,6.1-0.5,13-0.4c4.9,0,9.8-0.4,14.4-0.8l0.8-0.1l-0.1-0.6c-0.2-2.3-0.5-4.6-0.7-6.7V1.4h-25.2c1.6-0.1,3.2-0.2,4.7-0.3
		c2.6-0.2,5-0.4,6.7-0.5c1.7-0.1,2.8-0.3,2.7-0.3c-2.3-1.7-27.2,0.5-34.3,0.7c-8.2,0.2-15.2,0.3-21.4,0.4H1.8v56h2.6
		c-2.6,0.1-5,0.2,0.2,0.8C6.7,58.5,14.8,58.7,12.6,60z M144.4,63.4c-0.4-0.4,3.1-0.9,3.5-0.6C148.3,63.1,144.8,63.7,144.4,63.4z
		 M163,63.2c-0.4,0-3,0.1-3.2-0.1C158.7,62.2,172.9,63.1,163,63.2z M175.2,62.8c-0.6,0-4,0.1-4.3-0.1
		C169.9,61.9,185.5,62.6,175.2,62.8z M206,61.4c-0.7,0.1-40.2,1.6-18.5,0.3c0.5,0,5.1-0.4,8.8-0.5C198.9,61.1,217.9,59.7,206,61.4z
		 M209.1,57.4c-2,0.4-6.1,1-6.4,0H209.1z M189.7,57.4C189.7,57.5,189.8,57.5,189.7,57.4c1.3,1-8.8,2-5.5,0.6c0.1,0,0.9-0.4,1.9-0.6
		H189.7z"/>
	<path class="st0" d="M265.7-0.5c0,0,0.1,0.1,0.2,0.1C266.2-0.1,265.8-0.4,265.7-0.5z"/>
	<path class="st0" d="M248.9,65.2c0.4,0.3,3.7,0.1,4.4,0.1C266.6,65.3,247.6,64.3,248.9,65.2z"/>
	<path class="st0" d="M235.7,65.7c0.4,0.3,2.6,0.3,4.7,0.3c2.1,0,4.1-0.1,4-0.1C253.3,65.4,234.5,64.7,235.7,65.7z"/>
	<path class="st0" d="M225.8,66.1c0.2,0.2,2.9,0.1,3.3,0.1C239,66.2,224.5,65.2,225.8,66.1z"/>
</g>
</svg>
