<?xml version="1.0" encoding="utf-8"?>
<!-- Generator: Adobe Illustrator 22.0.0, SVG Export Plug-In . SVG Version: 6.00 Build 0)  -->
<svg version="1.1" id="Layer_1" xmlns="http://www.w3.org/2000/svg" xmlns:xlink="http://www.w3.org/1999/xlink" x="0px" y="0px"
	 viewBox="0 0 505.3 1881.1" style="enable-background:new 0 0 505.3 1881.1;" xml:space="preserve">
<style type="text/css">
	.st0{fill:#FFD071;}
	.st1{fill:#FDE471;}
	.st2{fill:none;stroke:#330303;stroke-width:3.743;stroke-linecap:round;stroke-linejoin:round;stroke-miterlimit:10;}
	.st3{fill:#FFA1A8;}
	.st4{fill:#FFBBC3;}
	.st5{fill:#51DFE0;}
	.st6{fill:#87E9EF;}
	.st7{fill:#CDDB34;}
	.st8{fill:#D9E650;}
	.st9{opacity:0.4;fill:#51DFE0;enable-background:new    ;}
	.st10{opacity:0.4;fill:#87E9EF;enable-background:new    ;}
	
		.st11{opacity:0.4;fill:none;stroke:#330303;stroke-width:3.743;stroke-linecap:round;stroke-linejoin:round;stroke-miterlimit:10;enable-background:new    ;}
	.st12{opacity:0.2;fill:#FFA1A8;enable-background:new    ;}
	.st13{opacity:0.2;fill:#FFBBC3;enable-background:new    ;}
	
		.st14{opacity:0.2;fill:none;stroke:#330303;stroke-width:3.743;stroke-linecap:round;stroke-linejoin:round;stroke-miterlimit:10;enable-background:new    ;}
	.st15{opacity:0.4;fill:#CDDB34;enable-background:new    ;}
	.st16{opacity:0.4;fill:#D9E650;enable-background:new    ;}
	.st17{opacity:0.2;fill:#FFD071;enable-background:new    ;}
	.st18{opacity:0.2;fill:#FDE471;enable-background:new    ;}
	.st19{opacity:0.4;fill:#FFA1A8;enable-background:new    ;}
	.st20{opacity:0.4;fill:#FFBBC3;enable-background:new    ;}
	.st21{opacity:0.4;fill:#FFD071;enable-background:new    ;}
	.st22{opacity:0.4;fill:#FDE471;enable-background:new    ;}
</style>
<path class="st0" d="M32.6,1777c0-13.4,10.9-24.3,24.3-24.3s24.3,10.9,24.3,24.3s-10.9,24.3-24.3,24.3S32.6,1790.4,32.6,1777z
	 M52.6,1753.6c-10.4,0-18.9,8.5-18.9,18.9c0,10.5,8.5,18.9,18.9,18.9s18.9-8.5,18.9-18.9C71.5,1762,63.1,1753.6,52.6,1753.6z"/>
<path class="st1" d="M33.7,1772.5c0-10.4,8.5-18.9,18.9-18.9s18.9,8.5,18.9,18.9c0,10.5-8.5,18.9-18.9,18.9S33.7,1782.9,33.7,1772.5
	z"/>
<circle class="st2" cx="56.8" cy="1777" r="24.3"/>
<path class="st3" d="M429.8,1841.6c0-20.1,16.3-36.3,36.3-36.3s36.3,16.3,36.3,36.3s-16.3,36.3-36.3,36.3S429.8,1861.7,429.8,1841.6
	z M463.6,1806.5c-17.8,0-32.1,14.4-32.1,32.1c0,17.8,14.4,32.1,32.1,32.1c17.8,0,32.1-14.4,32.1-32.1
	C495.8,1820.9,481.4,1806.5,463.6,1806.5z"/>
<path class="st4" d="M431.5,1838.7c0-17.8,14.4-32.1,32.1-32.1c17.8,0,32.1,14.4,32.1,32.1c0,17.8-14.4,32.1-32.1,32.1
	C445.8,1870.8,431.5,1856.4,431.5,1838.7z"/>
<circle class="st2" cx="466.1" cy="1841.6" r="36.3"/>
<path class="st5" d="M318.8,1652c0-13.4,10.9-24.3,24.3-24.3s24.3,10.9,24.3,24.3s-10.9,24.3-24.3,24.3S318.8,1665.4,318.8,1652z
	 M338.9,1628.6c-10.4,0-18.9,8.5-18.9,18.9c0,10.5,8.5,18.9,18.9,18.9s18.9-8.5,18.9-18.9C357.8,1637,349.3,1628.6,338.9,1628.6z"/>
<path class="st6" d="M319.9,1647.5c0-10.4,8.5-18.9,18.9-18.9s18.9,8.5,18.9,18.9c0,10.5-8.5,18.9-18.9,18.9
	S319.9,1657.9,319.9,1647.5z"/>
<circle class="st2" cx="343.1" cy="1652" r="24.3"/>
<path class="st0" d="M18.5,1527c0-13.4,10.9-24.3,24.3-24.3s24.3,10.9,24.3,24.3s-10.9,24.3-24.3,24.3S18.5,1540.4,18.5,1527z
	 M38.6,1503.6c-10.4,0-18.9,8.5-18.9,18.9c0,10.5,8.5,18.9,18.9,18.9s18.9-8.5,18.9-18.9S49,1503.6,38.6,1503.6z"/>
<path class="st1" d="M19.7,1522.5c0-10.4,8.5-18.9,18.9-18.9s18.9,8.5,18.9,18.9c0,10.5-8.5,18.9-18.9,18.9S19.7,1533,19.7,1522.5z"
	/>
<circle class="st2" cx="42.8" cy="1527" r="24.3"/>
<path class="st5" d="M115.5,1466.6c0-20.1,16.3-36.3,36.3-36.3s36.3,16.3,36.3,36.3c0,20.1-16.3,36.3-36.3,36.3
	S115.5,1486.7,115.5,1466.6z M149.3,1431.6c-17.8,0-32.1,14.4-32.1,32.1c0,17.8,14.4,32.1,32.1,32.1s32.1-14.4,32.1-32.1
	C181.4,1445.9,167,1431.6,149.3,1431.6z"/>
<path class="st6" d="M117.1,1463.7c0-17.8,14.4-32.1,32.1-32.1s32.1,14.4,32.1,32.1c0,17.8-14.4,32.1-32.1,32.1
	S117.1,1481.5,117.1,1463.7z"/>
<circle class="st2" cx="151.8" cy="1466.6" r="36.3"/>
<path class="st3" d="M129.5,1341.6c0-20.1,16.3-36.3,36.3-36.3s36.3,16.3,36.3,36.3s-16.3,36.3-36.3,36.3S129.5,1361.7,129.5,1341.6
	z M163.3,1306.6c-17.8,0-32.1,14.4-32.1,32.1c0,17.8,14.4,32.1,32.1,32.1s32.1-14.4,32.1-32.1
	C195.5,1320.9,181.1,1306.6,163.3,1306.6z"/>
<path class="st4" d="M131.2,1338.7c0-17.8,14.4-32.1,32.1-32.1s32.1,14.4,32.1,32.1c0,17.8-14.4,32.1-32.1,32.1
	S131.2,1356.5,131.2,1338.7z"/>
<circle class="st2" cx="165.8" cy="1341.6" r="36.3"/>
<path class="st0" d="M193.6,1077.6c0-20.1,16.3-36.3,36.3-36.3s36.3,16.3,36.3,36.3s-16.3,36.3-36.3,36.3S193.6,1097.7,193.6,1077.6
	z M227.4,1042.5c-17.8,0-32.1,14.4-32.1,32.1c0,17.8,14.4,32.1,32.1,32.1s32.1-14.4,32.1-32.1S245.1,1042.5,227.4,1042.5z"/>
<path class="st1" d="M195.2,1074.7c0-17.8,14.4-32.1,32.1-32.1s32.1,14.4,32.1,32.1c0,17.8-14.4,32.1-32.1,32.1
	S195.2,1092.5,195.2,1074.7z"/>
<ellipse transform="matrix(6.652059e-02 -0.9978 0.9978 6.652059e-02 -860.6632 1235.2686)" class="st2" cx="229.9" cy="1077.6" rx="36.3" ry="36.3"/>
<path class="st3" d="M96.6,1027.1c0-13.4,10.9-24.3,24.3-24.3s24.3,10.9,24.3,24.3c0,13.4-10.9,24.3-24.3,24.3
	C107.5,1051.3,96.6,1040.5,96.6,1027.1z M116.7,1003.6c-10.4,0-18.9,8.5-18.9,18.9c0,10.5,8.5,18.9,18.9,18.9s18.9-8.5,18.9-18.9
	C135.6,1012.1,127.1,1003.6,116.7,1003.6z"/>
<path class="st4" d="M97.8,1022.6c0-10.4,8.5-18.9,18.9-18.9s18.9,8.5,18.9,18.9c0,10.5-8.5,18.9-18.9,18.9S97.8,1033,97.8,1022.6z"
	/>
<circle class="st2" cx="120.9" cy="1027.1" r="24.3"/>
<path class="st0" d="M18.5,902.1c0-13.4,10.9-24.3,24.3-24.3s24.3,10.9,24.3,24.3s-10.9,24.3-24.3,24.3S18.5,915.5,18.5,902.1z
	 M38.6,878.7c-10.4,0-18.9,8.5-18.9,18.9c0,10.5,8.5,18.9,18.9,18.9s18.9-8.5,18.9-18.9C57.5,887.1,49,878.7,38.6,878.7z"/>
<path class="st1" d="M19.7,897.6c0-10.4,8.5-18.9,18.9-18.9s18.9,8.5,18.9,18.9c0,10.5-8.5,18.9-18.9,18.9S19.7,908,19.7,897.6z"/>
<circle class="st2" cx="42.8" cy="902.1" r="24.3"/>
<path class="st5" d="M193.6,807.2c0-31.4,25.4-56.8,56.8-56.8s56.8,25.4,56.8,56.8S281.7,864,250.3,864S193.6,838.5,193.6,807.2z
	 M246.4,752.4c-27.7,0-50.3,22.5-50.3,50.2c0,27.8,22.5,50.3,50.3,50.3s50.3-22.5,50.3-50.3C296.7,774.8,274.2,752.4,246.4,752.4z"
	/>
<path class="st6" d="M196.2,802.6c0-27.8,22.5-50.2,50.3-50.2s50.3,22.5,50.3,50.2c0,27.8-22.5,50.3-50.3,50.3
	S196.2,830.4,196.2,802.6z"/>
<circle class="st2" cx="250.3" cy="807.2" r="56.8"/>
<path class="st7" d="M18.5,652.1c0-13.4,10.9-24.3,24.3-24.3s24.3,10.9,24.3,24.3s-10.9,24.3-24.3,24.3S18.5,665.5,18.5,652.1z
	 M38.6,628.7c-10.4,0-18.9,8.5-18.9,18.9c0,10.5,8.5,18.9,18.9,18.9s18.9-8.5,18.9-18.9C57.5,637.1,49,628.7,38.6,628.7z"/>
<path class="st8" d="M19.7,647.6c0-10.4,8.5-18.9,18.9-18.9s18.9,8.5,18.9,18.9c0,10.5-8.5,18.9-18.9,18.9S19.7,658,19.7,647.6z"/>
<circle class="st2" cx="42.8" cy="652.1" r="24.3"/>
<path class="st0" d="M318.8,666.1c0-13.4,10.9-24.3,24.3-24.3s24.3,10.9,24.3,24.3s-10.9,24.3-24.3,24.3S318.8,679.5,318.8,666.1z
	 M338.9,642.7c-10.4,0-18.9,8.5-18.9,18.9c0,10.5,8.5,18.9,18.9,18.9s18.9-8.5,18.9-18.9S349.3,642.7,338.9,642.7z"/>
<path class="st1" d="M319.9,661.6c0-10.4,8.5-18.9,18.9-18.9s18.9,8.5,18.9,18.9c0,10.5-8.5,18.9-18.9,18.9S319.9,672.1,319.9,661.6
	z"/>
<circle class="st2" cx="343.1" cy="666.1" r="24.3"/>
<path class="st5" d="M4.5,527.1c0-13.4,10.9-24.3,24.3-24.3S53,513.7,53,527.1s-10.9,24.3-24.3,24.3S4.5,540.5,4.5,527.1z
	 M24.5,503.7c-10.4,0-18.9,8.5-18.9,18.9c0,10.5,8.5,18.9,18.9,18.9s18.9-8.5,18.9-18.9C43.5,512.2,35,503.7,24.5,503.7z"/>
<path class="st6" d="M5.6,522.6c0-10.4,8.5-18.9,18.9-18.9s18.9,8.5,18.9,18.9c0,10.5-8.5,18.9-18.9,18.9S5.6,533.1,5.6,522.6z"/>
<circle class="st2" cx="28.8" cy="527.1" r="24.3"/>
<path class="st3" d="M332.9,527.1c0-13.4,10.9-24.3,24.3-24.3s24.3,10.9,24.3,24.3s-10.9,24.3-24.3,24.3S332.9,540.5,332.9,527.1z
	 M352.9,503.7c-10.4,0-18.9,8.5-18.9,18.9c0,10.5,8.5,18.9,18.9,18.9s18.9-8.5,18.9-18.9S363.3,503.7,352.9,503.7z"/>
<path class="st4" d="M334,522.6c0-10.4,8.5-18.9,18.9-18.9s18.9,8.5,18.9,18.9c0,10.5-8.5,18.9-18.9,18.9S334,533.1,334,522.6z"/>
<circle class="st2" cx="357.1" cy="527.1" r="24.3"/>
<path class="st5" d="M401.7,466.7c0-20.1,16.3-36.3,36.3-36.3s36.3,16.3,36.3,36.3S458.1,503,438,503S401.7,486.8,401.7,466.7z
	 M435.5,431.7c-17.8,0-32.1,14.4-32.1,32.1c0,17.8,14.4,32.1,32.1,32.1s32.1-14.4,32.1-32.1C467.7,446,453.3,431.7,435.5,431.7z"/>
<path class="st6" d="M403.4,463.8c0-17.8,14.4-32.1,32.1-32.1s32.1,14.4,32.1,32.1c0,17.8-14.4,32.1-32.1,32.1
	S403.4,481.6,403.4,463.8z"/>
<circle class="st2" cx="438" cy="466.7" r="36.3"/>
<path class="st7" d="M193.6,119.8c0-20.1,16.3-36.3,36.3-36.3s36.3,16.3,36.3,36.3s-16.3,36.3-36.3,36.3S193.6,139.9,193.6,119.8z
	 M227.4,84.8c-17.8,0-32.1,14.4-32.1,32.1c0,17.8,14.4,32.1,32.1,32.1s32.1-14.4,32.1-32.1S245.1,84.8,227.4,84.8z"/>
<path class="st8" d="M195.2,116.9c0-17.8,14.4-32.1,32.1-32.1s32.1,14.4,32.1,32.1c0,17.8-14.4,32.1-32.1,32.1
	S195.2,134.7,195.2,116.9z"/>
<ellipse transform="matrix(0.3162 -0.9487 0.9487 0.3162 43.5487 300.0201)" class="st2" cx="229.9" cy="119.8" rx="36.3" ry="36.3"/>
<path class="st9" d="M193.6,1730.7c0-20.1,16.3-36.3,36.3-36.3s36.3,16.3,36.3,36.3s-16.3,36.3-36.3,36.3S193.6,1750.7,193.6,1730.7
	z M227.4,1695.6c-17.8,0-32.1,14.4-32.1,32.1c0,17.8,14.4,32.1,32.1,32.1s32.1-14.4,32.1-32.1S245.1,1695.6,227.4,1695.6z"/>
<path class="st10" d="M195.2,1727.7c0-17.8,14.4-32.1,32.1-32.1s32.1,14.4,32.1,32.1c0,17.8-14.4,32.1-32.1,32.1
	S195.2,1745.5,195.2,1727.7z"/>
<ellipse transform="matrix(3.327796e-02 -0.9994 0.9994 3.327796e-02 -1507.4919 1902.8784)" class="st11" cx="229.9" cy="1730.7" rx="36.3" ry="36.3"/>
<path class="st12" d="M415.7,1591.6c0-20.1,16.3-36.3,36.3-36.3s36.3,16.3,36.3,36.3c0,20.1-16.3,36.3-36.3,36.3
	S415.7,1611.7,415.7,1591.6z M449.6,1556.5c-17.8,0-32.1,14.4-32.1,32.1c0,17.8,14.4,32.2,32.1,32.2c17.8,0,32.1-14.4,32.1-32.2
	C481.7,1570.9,467.3,1556.5,449.6,1556.5z"/>
<path class="st13" d="M417.4,1588.7c0-17.8,14.4-32.1,32.1-32.1c17.8,0,32.1,14.4,32.1,32.1c0,17.8-14.4,32.2-32.1,32.2
	C431.8,1620.8,417.4,1606.4,417.4,1588.7z"/>
<circle class="st14" cx="452.1" cy="1591.6" r="36.3"/>
<path class="st15" d="M221.6,966.7c0-20.1,16.3-36.3,36.3-36.3s36.3,16.3,36.3,36.3c0,20.1-16.3,36.3-36.3,36.3
	S221.6,986.7,221.6,966.7z M255.5,931.6c-17.8,0-32.1,14.4-32.1,32.1c0,17.8,14.4,32.1,32.1,32.1s32.1-14.4,32.1-32.1
	S273.2,931.6,255.5,931.6z"/>
<path class="st16" d="M223.3,963.7c0-17.8,14.4-32.1,32.1-32.1s32.1,14.4,32.1,32.1c0,17.8-14.4,32.1-32.1,32.1
	S223.3,981.5,223.3,963.7z"/>
<circle class="st11" cx="258" cy="966.7" r="36.3"/>
<path class="st17" d="M32.6,777.1c0-13.4,10.9-24.3,24.3-24.3s24.3,10.9,24.3,24.3s-10.9,24.3-24.3,24.3S32.6,790.5,32.6,777.1z
	 M52.6,753.7c-10.4,0-18.9,8.5-18.9,18.9c0,10.5,8.5,18.9,18.9,18.9s18.9-8.5,18.9-18.9C71.5,762.1,63.1,753.7,52.6,753.7z"/>
<path class="st18" d="M33.7,772.6c0-10.4,8.5-18.9,18.9-18.9s18.9,8.5,18.9,18.9c0,10.5-8.5,18.9-18.9,18.9S33.7,783,33.7,772.6z"/>
<circle class="st14" cx="56.8" cy="777.1" r="24.3"/>
<path class="st19" d="M101.4,452.7c0-20.1,16.3-36.3,36.3-36.3s36.3,16.3,36.3,36.3S157.8,489,137.7,489S101.4,472.7,101.4,452.7z
	 M135.2,417.6c-17.8,0-32.1,14.4-32.1,32.1c0,17.8,14.4,32.1,32.1,32.1s32.1-14.4,32.1-32.1C167.4,432,153,417.6,135.2,417.6z"/>
<path class="st20" d="M103.1,449.7c0-17.8,14.4-32.1,32.1-32.1s32.1,14.4,32.1,32.1c0,17.8-14.4,32.1-32.1,32.1
	S103.1,467.5,103.1,449.7z"/>
<circle class="st11" cx="137.7" cy="452.7" r="36.3"/>
<path class="st9" d="M429.8,91.8c0-20.1,16.3-36.3,36.3-36.3s36.3,16.3,36.3,36.3s-16.3,36.3-36.3,36.3S429.8,111.8,429.8,91.8z
	 M463.6,56.7c-17.8,0-32.1,14.4-32.1,32.1c0,17.8,14.4,32.1,32.1,32.1c17.8,0,32.1-14.4,32.1-32.1C495.8,71.1,481.4,56.7,463.6,56.7
	z"/>
<path class="st10" d="M431.5,88.8c0-17.8,14.4-32.1,32.1-32.1c17.8,0,32.1,14.4,32.1,32.1c0,17.8-14.4,32.1-32.1,32.1
	C445.8,121,431.5,106.6,431.5,88.8z"/>
<circle class="st11" cx="466.1" cy="91.8" r="36.3"/>
<path class="st21" d="M332.9,27.2c0-13.4,10.9-24.3,24.3-24.3s24.3,10.9,24.3,24.3s-10.9,24.3-24.3,24.3S332.9,40.6,332.9,27.2z
	 M352.9,3.7c-10.4,0-18.9,8.5-18.9,18.9c0,10.5,8.5,18.9,18.9,18.9s18.9-8.5,18.9-18.9S363.3,3.7,352.9,3.7z"/>
<path class="st22" d="M334,22.6c0-10.4,8.5-18.9,18.9-18.9s18.9,8.5,18.9,18.9c0,10.5-8.5,18.9-18.9,18.9S334,33.1,334,22.6z"/>
<circle class="st11" cx="357.1" cy="27.2" r="24.3"/>
</svg>
