<?xml version="1.0" encoding="utf-8"?>
<!-- Generator: Adobe Illustrator 22.0.0, SVG Export Plug-In . SVG Version: 6.00 Build 0)  -->
<svg version="1.1" id="Layer_1" xmlns="http://www.w3.org/2000/svg" xmlns:xlink="http://www.w3.org/1999/xlink" x="0px" y="0px"
	 viewBox="0 0 563.9 1679.8" style="enable-background:new 0 0 563.9 1679.8;" xml:space="preserve">
<style type="text/css">
	.st0{fill:#51DFE0;}
	.st1{fill:#87E9EF;}
	.st2{fill:none;stroke:#330303;stroke-width:3.743;stroke-linecap:round;stroke-linejoin:round;stroke-miterlimit:10;}
	.st3{fill:#FFD071;}
	.st4{fill:#FDE471;}
	.st5{opacity:0.2;fill:#FFA1A8;}
	.st6{opacity:0.2;fill:#FFBBC3;}
	.st7{opacity:0.2;fill:none;stroke:#330303;stroke-width:3.743;stroke-linecap:round;stroke-linejoin:round;stroke-miterlimit:10;}
	.st8{fill:#FFA1A8;}
	.st9{fill:#FFBBC3;}
	.st10{opacity:0.4;fill:#FFA1A8;}
	.st11{opacity:0.4;fill:#FFBBC3;}
	.st12{opacity:0.4;fill:none;stroke:#330303;stroke-width:3.743;stroke-linecap:round;stroke-linejoin:round;stroke-miterlimit:10;}
	.st13{fill:#CDDB34;}
	.st14{fill:#D9E650;}
	.st15{opacity:0.4;fill:#51DFE0;}
	.st16{opacity:0.4;fill:#87E9EF;}
	.st17{opacity:0.4;fill:#FFD071;}
	.st18{opacity:0.4;fill:#FDE471;}
</style>
<path class="st0" d="M187.8,27c0,13.4-10.9,24.3-24.3,24.3S139.3,40.4,139.3,27s10.9-24.3,24.3-24.3S187.8,13.6,187.8,27z
	 M167.8,50.4c10.4,0,18.9-8.5,18.9-18.9c0-10.5-8.5-18.9-18.9-18.9c-10.4,0-18.9,8.5-18.9,18.9C148.9,42,157.4,50.4,167.8,50.4z"/>
<path class="st1" d="M186.7,31.5c0,10.4-8.5,18.9-18.9,18.9c-10.4,0-18.9-8.5-18.9-18.9c0-10.5,8.5-18.9,18.9-18.9
	C178.2,12.6,186.7,21.1,186.7,31.5z"/>
<circle class="st2" cx="163.6" cy="27" r="24.3"/>
<path class="st3" d="M488.1,152c0,13.4-10.9,24.3-24.3,24.3s-24.3-10.9-24.3-24.3s10.9-24.3,24.3-24.3S488.1,138.6,488.1,152z
	 M468.1,175.4c10.4,0,18.9-8.5,18.9-18.9c0-10.5-8.5-18.9-18.9-18.9s-18.9,8.5-18.9,18.9C449.1,167,457.6,175.4,468.1,175.4z"/>
<path class="st4" d="M487,156.5c0,10.4-8.5,18.9-18.9,18.9s-18.9-8.5-18.9-18.9c0-10.5,8.5-18.9,18.9-18.9S487,146.1,487,156.5z"/>
<circle class="st2" cx="463.8" cy="152" r="24.3"/>
<path class="st5" d="M90.9,87.4c0,20.1-16.3,36.3-36.3,36.3s-36.3-16.3-36.3-36.3s16.3-36.3,36.3-36.3S90.9,67.4,90.9,87.4z
	 M57.1,122.5c17.8,0,32.1-14.4,32.1-32.1c0-17.8-14.4-32.1-32.1-32.1S24.9,72.6,24.9,90.4C24.9,108.1,39.3,122.5,57.1,122.5z"/>
<path class="st6" d="M89.2,90.4c0,17.8-14.4,32.1-32.1,32.1s-32.1-14.4-32.1-32.1c0-17.8,14.4-32.1,32.1-32.1S89.2,72.6,89.2,90.4z"
	/>
<circle class="st7" cx="54.6" cy="87.4" r="36.3"/>
<path class="st0" d="M391.2,212.4c0,20.1-16.3,36.3-36.3,36.3c-20.1,0-36.3-16.3-36.3-36.3s16.3-36.3,36.3-36.3
	C374.9,176.1,391.2,192.3,391.2,212.4z M357.4,247.5c17.8,0,32.1-14.4,32.1-32.1c0-17.8-14.4-32.1-32.1-32.1
	c-17.8,0-32.1,14.4-32.1,32.1C325.2,233.1,339.6,247.5,357.4,247.5z"/>
<path class="st1" d="M389.5,215.3c0,17.8-14.4,32.1-32.1,32.1c-17.8,0-32.1-14.4-32.1-32.1c0-17.8,14.4-32.1,32.1-32.1
	C375.1,183.2,389.5,197.6,389.5,215.3z"/>
<circle class="st2" cx="354.9" cy="212.4" r="36.3"/>
<path class="st8" d="M377.1,337.4c0,20.1-16.3,36.3-36.3,36.3s-36.3-16.3-36.3-36.3c0-20.1,16.3-36.3,36.3-36.3
	S377.1,317.3,377.1,337.4z M343.3,372.5c17.8,0,32.1-14.4,32.1-32.1c0-17.8-14.4-32.1-32.1-32.1s-32.1,14.4-32.1,32.1
	C311.2,358.1,325.6,372.5,343.3,372.5z"/>
<path class="st9" d="M375.5,340.3c0,17.8-14.4,32.1-32.1,32.1s-32.1-14.4-32.1-32.1c0-17.8,14.4-32.1,32.1-32.1
	S375.5,322.6,375.5,340.3z"/>
<circle class="st2" cx="340.8" cy="337.4" r="36.3"/>
<path class="st3" d="M516.2,402c0,13.4-10.9,24.3-24.3,24.3s-24.3-10.9-24.3-24.3s10.9-24.3,24.3-24.3S516.2,388.6,516.2,402z
	 M496.2,425.4c10.4,0,18.9-8.5,18.9-18.9c0-10.5-8.5-18.9-18.9-18.9c-10.4,0-18.9,8.5-18.9,18.9C477.2,417,485.7,425.4,496.2,425.4z
	"/>
<path class="st4" d="M515.1,406.5c0,10.4-8.5,18.9-18.9,18.9c-10.4,0-18.9-8.5-18.9-18.9c0-10.5,8.5-18.9,18.9-18.9
	C506.6,387.6,515.1,396.1,515.1,406.5z"/>
<circle class="st2" cx="491.9" cy="402" r="24.3"/>
<path class="st3" d="M313.1,601.4c0,20.1-16.3,36.3-36.3,36.3s-36.3-16.3-36.3-36.3c0-20.1,16.3-36.3,36.3-36.3
	S313.1,581.4,313.1,601.4z M279.3,636.5c17.8,0,32.1-14.4,32.1-32.1c0-17.8-14.4-32.1-32.1-32.1s-32.1,14.4-32.1,32.1
	C247.1,622.1,261.5,636.5,279.3,636.5z"/>
<path class="st4" d="M311.4,604.4c0,17.8-14.4,32.1-32.1,32.1s-32.1-14.4-32.1-32.1c0-17.8,14.4-32.1,32.1-32.1
	S311.4,586.6,311.4,604.4z"/>
<circle class="st2" cx="276.8" cy="601.4" r="36.3"/>
<path class="st8" d="M410,652c0,13.4-10.9,24.3-24.3,24.3s-24.3-10.9-24.3-24.3s10.9-24.3,24.3-24.3S410,638.6,410,652z M390,675.4
	c10.4,0,18.9-8.5,18.9-18.9c0-10.5-8.5-18.9-18.9-18.9c-10.4,0-18.9,8.5-18.9,18.9C371.1,666.9,379.5,675.4,390,675.4z"/>
<path class="st9" d="M408.9,656.5c0,10.4-8.5,18.9-18.9,18.9c-10.4,0-18.9-8.5-18.9-18.9c0-10.5,8.5-18.9,18.9-18.9
	C400.4,637.6,408.9,646,408.9,656.5z"/>
<circle class="st2" cx="385.8" cy="652" r="24.3"/>
<path class="st3" d="M488.1,777c0,13.4-10.9,24.3-24.3,24.3s-24.3-10.9-24.3-24.3s10.9-24.3,24.3-24.3S488.1,763.6,488.1,777z
	 M468.1,800.4c10.4,0,18.9-8.5,18.9-18.9c0-10.5-8.5-18.9-18.9-18.9s-18.9,8.5-18.9,18.9C449.1,791.9,457.6,800.4,468.1,800.4z"/>
<path class="st4" d="M487,781.5c0,10.4-8.5,18.9-18.9,18.9s-18.9-8.5-18.9-18.9c0-10.5,8.5-18.9,18.9-18.9S487,771,487,781.5z"/>
<circle class="st2" cx="463.8" cy="777" r="24.3"/>
<path class="st0" d="M313.1,871.8c0,31.4-25.4,56.8-56.8,56.8s-56.8-25.4-56.8-56.8s25.4-56.8,56.8-56.8S313.1,840.5,313.1,871.8z
	 M260.2,926.7c27.7,0,50.3-22.5,50.3-50.2c0-27.8-22.5-50.3-50.3-50.3S210,848.7,210,876.4C210,904.2,232.5,926.7,260.2,926.7z"/>
<path class="st1" d="M310.5,876.4c0,27.8-22.5,50.2-50.3,50.2S210,904.2,210,876.4c0-27.8,22.5-50.3,50.3-50.3
	S310.5,848.7,310.5,876.4z"/>
<circle class="st2" cx="256.3" cy="871.8" r="56.8"/>
<path class="st10" d="M90.9,837.3c0,20.1-16.3,36.3-36.3,36.3s-36.3-16.3-36.3-36.3c0-20.1,16.3-36.3,36.3-36.3
	S90.9,817.3,90.9,837.3z M57.1,872.4c17.8,0,32.1-14.4,32.1-32.1c0-17.8-14.4-32.1-32.1-32.1s-32.1,14.4-32.1,32.1
	C24.9,858,39.3,872.4,57.1,872.4z"/>
<path class="st11" d="M89.2,840.3c0,17.8-14.4,32.1-32.1,32.1S24.9,858,24.9,840.3c0-17.8,14.4-32.1,32.1-32.1
	S89.2,822.5,89.2,840.3z"/>
<circle class="st12" cx="54.6" cy="837.3" r="36.3"/>
<path class="st13" d="M488.1,1026.9c0,13.4-10.9,24.3-24.3,24.3s-24.3-10.9-24.3-24.3s10.9-24.3,24.3-24.3
	S488.1,1013.5,488.1,1026.9z M468.1,1050.4c10.4,0,18.9-8.5,18.9-18.9c0-10.5-8.5-18.9-18.9-18.9s-18.9,8.5-18.9,18.9
	C449.1,1041.9,457.6,1050.4,468.1,1050.4z"/>
<path class="st14" d="M487,1031.4c0,10.4-8.5,18.9-18.9,18.9s-18.9-8.5-18.9-18.9c0-10.5,8.5-18.9,18.9-18.9S487,1021,487,1031.4z"
	/>
<circle class="st2" cx="463.8" cy="1026.9" r="24.3"/>
<path class="st0" d="M502.1,1151.9c0,13.4-10.9,24.3-24.3,24.3s-24.3-10.9-24.3-24.3s10.9-24.3,24.3-24.3S502.1,1138.5,502.1,1151.9
	z M482.1,1175.3c10.4,0,18.9-8.5,18.9-18.9c0-10.5-8.5-18.9-18.9-18.9s-18.9,8.5-18.9,18.9C463.2,1166.9,471.7,1175.3,482.1,1175.3z
	"/>
<path class="st1" d="M501,1156.4c0,10.4-8.5,18.9-18.9,18.9s-18.9-8.5-18.9-18.9c0-10.5,8.5-18.9,18.9-18.9S501,1146,501,1156.4z"/>
<circle class="st2" cx="477.9" cy="1151.9" r="24.3"/>
<path class="st10" d="M405.2,1226.4c0,20.1-16.3,36.3-36.3,36.3s-36.3-16.3-36.3-36.3s16.3-36.3,36.3-36.3
	S405.2,1206.3,405.2,1226.4z M371.4,1261.4c17.8,0,32.1-14.4,32.1-32.1c0-17.8-14.4-32.2-32.1-32.2c-17.8,0-32.1,14.4-32.1,32.2
	C339.3,1247,353.7,1261.4,371.4,1261.4z"/>
<path class="st11" d="M403.6,1229.3c0,17.8-14.4,32.1-32.1,32.1c-17.8,0-32.1-14.4-32.1-32.1c0-17.8,14.4-32.2,32.1-32.2
	C389.2,1197.1,403.6,1211.5,403.6,1229.3z"/>
<circle class="st12" cx="368.9" cy="1226.4" r="36.3"/>
<path class="st8" d="M558.3,1526.9c0,13.4-10.9,24.3-24.3,24.3s-24.3-10.9-24.3-24.3s10.9-24.3,24.3-24.3S558.3,1513.5,558.3,1526.9
	z M538.3,1550.3c10.4,0,18.9-8.5,18.9-18.9c0-10.5-8.5-18.9-18.9-18.9c-10.4,0-18.9,8.5-18.9,18.9
	C519.4,1541.8,527.8,1550.3,538.3,1550.3z"/>
<path class="st9" d="M557.2,1531.4c0,10.4-8.5,18.9-18.9,18.9c-10.4,0-18.9-8.5-18.9-18.9c0-10.5,8.5-18.9,18.9-18.9
	C548.7,1512.5,557.2,1520.9,557.2,1531.4z"/>
<circle class="st2" cx="534.1" cy="1526.9" r="24.3"/>
<path class="st13" d="M313.1,1559.2c0,20.1-16.3,36.3-36.3,36.3s-36.3-16.3-36.3-36.3s16.3-36.3,36.3-36.3
	S313.1,1539.1,313.1,1559.2z M279.3,1594.3c17.8,0,32.1-14.4,32.1-32.1c0-17.8-14.4-32.1-32.1-32.1s-32.1,14.4-32.1,32.1
	C247.1,1579.9,261.5,1594.3,279.3,1594.3z"/>
<path class="st14" d="M311.4,1562.1c0,17.8-14.4,32.1-32.1,32.1s-32.1-14.4-32.1-32.1c0-17.8,14.4-32.1,32.1-32.1
	S311.4,1544.4,311.4,1562.1z"/>
<circle class="st2" cx="276.8" cy="1559.2" r="36.3"/>
<path class="st15" d="M76.9,1587.3c0,20.1-16.3,36.3-36.3,36.3s-36.3-16.3-36.3-36.3c0-20.1,16.3-36.3,36.3-36.3
	S76.9,1567.2,76.9,1587.3z M43,1622.3c17.8,0,32.1-14.4,32.1-32.1c0-17.8-14.4-32.1-32.1-32.1s-32.1,14.4-32.1,32.1
	C10.9,1608,25.3,1622.3,43,1622.3z"/>
<path class="st16" d="M75.2,1590.2c0,17.8-14.4,32.1-32.1,32.1s-32.1-14.4-32.1-32.1c0-17.8,14.4-32.1,32.1-32.1
	S75.2,1572.4,75.2,1590.2z"/>
<circle class="st12" cx="40.6" cy="1587.3" r="36.3"/>
<path class="st17" d="M173.8,1651.9c0,13.4-10.9,24.3-24.3,24.3c-13.4,0-24.3-10.9-24.3-24.3s10.9-24.3,24.3-24.3
	C162.9,1627.6,173.8,1638.5,173.8,1651.9z M153.8,1675.3c10.4,0,18.9-8.5,18.9-18.9c0-10.5-8.5-18.9-18.9-18.9
	c-10.4,0-18.9,8.5-18.9,18.9C134.8,1666.8,143.3,1675.3,153.8,1675.3z"/>
<path class="st18" d="M172.7,1656.4c0,10.4-8.5,18.9-18.9,18.9c-10.4,0-18.9-8.5-18.9-18.9c0-10.5,8.5-18.9,18.9-18.9
	C164.2,1637.5,172.7,1645.9,172.7,1656.4z"/>
<circle class="st12" cx="149.5" cy="1651.9" r="24.3"/>
</svg>
