<?xml version="1.0" encoding="utf-8"?>
<!-- Generator: Adobe Illustrator 22.0.0, SVG Export Plug-In . SVG Version: 6.00 Build 0)  -->
<svg version="1.1" id="Layer_1" xmlns="http://www.w3.org/2000/svg" xmlns:xlink="http://www.w3.org/1999/xlink" x="0px" y="0px"
	 viewBox="0 0 653.4 2023.9" style="enable-background:new 0 0 653.4 2023.9;" xml:space="preserve">
<style type="text/css">
	.st0{enable-background:new    ;}
	.st1{fill:#D9E650;}
	.st2{fill:#B1B742;}
	.st3{fill:#BCBC35;}
	.st4{fill:none;stroke:#330303;stroke-width:3.743;stroke-linecap:round;stroke-linejoin:round;stroke-miterlimit:10;}
	.st5{opacity:0.4;}
	.st6{fill:#FFBBC3;}
	.st7{fill:#FE828B;}
	.st8{fill:#FFA1A8;}
	.st9{fill:#ADEBDA;}
	.st10{fill:#4FC4B7;}
	.st11{fill:#7CE5D6;}
	.st12{opacity:0.2;}
	.st13{fill:#FDE471;}
	.st14{fill:#FBBC7A;}
	.st15{fill:#FFD071;}
</style>
<g>
	<g class="st0">
		<g>
			<polygon class="st1" points="386,1930.7 438.6,1893.1 480.4,1936.9 427.8,1974.5 			"/>
		</g>
		<g>
			<polygon class="st2" points="480.4,1936.9 485.9,1981.2 433.3,2018.8 427.8,1974.5 			"/>
		</g>
		<g>
			<polygon class="st3" points="427.8,1974.5 433.3,2018.8 391.6,1975.1 386,1930.7 			"/>
		</g>
	</g>
</g>
<g>
	<g class="st0">
		<g>
			<polygon class="st4" points="386,1930.7 438.6,1893.1 480.4,1936.9 427.8,1974.5 			"/>
		</g>
		<g>
			<polygon class="st4" points="480.4,1936.9 485.9,1981.2 433.3,2018.8 427.8,1974.5 			"/>
		</g>
		<g>
			<polygon class="st4" points="427.8,1974.5 433.3,2018.8 391.6,1975.1 386,1930.7 			"/>
		</g>
	</g>
</g>
<g class="st5">
	<g class="st0">
		<g>
			<polygon class="st6" points="573.5,1925.4 599.6,1907 620,1928.7 594,1947.1 			"/>
		</g>
		<g>
			<polygon class="st7" points="620,1928.7 622.7,1950.6 596.6,1969 594,1947.1 			"/>
		</g>
		<g>
			<polygon class="st8" points="594,1947.1 596.6,1969 576.2,1947.3 573.5,1925.4 			"/>
		</g>
	</g>
</g>
<g class="st5">
	<g class="st0">
		<g>
			<polygon class="st4" points="573.5,1925.4 599.6,1907 620,1928.7 594,1947.1 			"/>
		</g>
		<g>
			<polygon class="st4" points="620,1928.7 622.7,1950.6 596.6,1969 594,1947.1 			"/>
		</g>
		<g>
			<polygon class="st4" points="594,1947.1 596.6,1969 576.2,1947.3 573.5,1925.4 			"/>
		</g>
	</g>
</g>
<g>
	<g class="st0">
		<g>
			<polygon class="st6" points="27,1799.8 67.4,1770.9 99.4,1804.5 59.1,1833.4 			"/>
		</g>
		<g>
			<polygon class="st7" points="99.4,1804.5 103.7,1838.6 63.4,1867.4 59.1,1833.4 			"/>
		</g>
		<g>
			<polygon class="st8" points="59.1,1833.4 63.4,1867.4 31.3,1833.8 27,1799.8 			"/>
		</g>
	</g>
</g>
<g>
	<g class="st0">
		<g>
			<polygon class="st4" points="27,1799.8 67.4,1770.9 99.4,1804.5 59.1,1833.4 			"/>
		</g>
		<g>
			<polygon class="st4" points="99.4,1804.5 103.7,1838.6 63.4,1867.4 59.1,1833.4 			"/>
		</g>
		<g>
			<polygon class="st4" points="59.1,1833.4 63.4,1867.4 31.3,1833.8 27,1799.8 			"/>
		</g>
	</g>
</g>
<g class="st5">
	<g class="st0">
		<g>
			<polygon class="st6" points="305.4,1813.5 318.2,1784.2 346.9,1792.2 334.2,1821.4 			"/>
		</g>
		<g>
			<polygon class="st7" points="346.9,1792.2 360.5,1809.6 347.7,1838.8 334.2,1821.4 			"/>
		</g>
		<g>
			<polygon class="st8" points="334.2,1821.4 347.7,1838.8 319,1830.8 305.4,1813.5 			"/>
		</g>
	</g>
</g>
<g class="st5">
	<g class="st0">
		<g>
			<polygon class="st4" points="305.4,1813.5 318.2,1784.2 346.9,1792.2 334.2,1821.4 			"/>
		</g>
		<g>
			<polygon class="st4" points="346.9,1792.2 360.5,1809.6 347.7,1838.8 334.2,1821.4 			"/>
		</g>
		<g>
			<polygon class="st4" points="334.2,1821.4 347.7,1838.8 319,1830.8 305.4,1813.5 			"/>
		</g>
	</g>
</g>
<g>
	<g class="st0">
		<g>
			<polygon class="st9" points="462.2,1812.4 495.3,1808.9 502.8,1839.1 469.8,1842.6 			"/>
		</g>
		<g>
			<polygon class="st10" points="502.8,1839.1 494.1,1860.3 461,1863.8 469.8,1842.6 			"/>
		</g>
		<g>
			<polygon class="st11" points="469.8,1842.6 461,1863.8 453.4,1833.6 462.2,1812.4 			"/>
		</g>
	</g>
</g>
<g>
	<g class="st0">
		<g>
			<polygon class="st4" points="462.2,1812.4 495.3,1808.9 502.8,1839.1 469.8,1842.6 			"/>
		</g>
		<g>
			<polygon class="st4" points="502.8,1839.1 494.1,1860.3 461,1863.8 469.8,1842.6 			"/>
		</g>
		<g>
			<polygon class="st4" points="469.8,1842.6 461,1863.8 453.4,1833.6 462.2,1812.4 			"/>
		</g>
	</g>
</g>
<g class="st12">
	<g class="st0">
		<g>
			<polygon class="st1" points="93.5,1684.5 114.5,1680.7 120.8,1699.6 99.8,1703.4 			"/>
		</g>
		<g>
			<polygon class="st2" points="120.8,1699.6 116.1,1713.6 95.2,1717.4 99.8,1703.4 			"/>
		</g>
		<g>
			<polygon class="st3" points="99.8,1703.4 95.2,1717.4 88.9,1698.5 93.5,1684.5 			"/>
		</g>
	</g>
</g>
<g class="st12">
	<g class="st0">
		<g>
			<polygon class="st4" points="93.5,1684.5 114.5,1680.7 120.8,1699.6 99.8,1703.4 			"/>
		</g>
		<g>
			<polygon class="st4" points="120.8,1699.6 116.1,1713.6 95.2,1717.4 99.8,1703.4 			"/>
		</g>
		<g>
			<polygon class="st4" points="99.8,1703.4 95.2,1717.4 88.9,1698.5 93.5,1684.5 			"/>
		</g>
	</g>
</g>
<g>
	<g class="st0">
		<g>
			<polygon class="st1" points="145.4,1707.7 158.2,1678.5 186.9,1686.5 174.2,1715.7 			"/>
		</g>
		<g>
			<polygon class="st2" points="186.9,1686.5 200.5,1703.8 187.7,1733.1 174.2,1715.7 			"/>
		</g>
		<g>
			<polygon class="st3" points="174.2,1715.7 187.7,1733.1 159,1725.1 145.4,1707.7 			"/>
		</g>
	</g>
</g>
<g>
	<g class="st0">
		<g>
			<polygon class="st4" points="145.4,1707.7 158.2,1678.5 186.9,1686.5 174.2,1715.7 			"/>
		</g>
		<g>
			<polygon class="st4" points="186.9,1686.5 200.5,1703.8 187.7,1733.1 174.2,1715.7 			"/>
		</g>
		<g>
			<polygon class="st4" points="174.2,1715.7 187.7,1733.1 159,1725.1 145.4,1707.7 			"/>
		</g>
	</g>
</g>
<g>
	<g class="st0">
		<g>
			<polygon class="st9" points="205.7,1547.5 234.8,1526.6 258,1550.9 228.8,1571.7 			"/>
		</g>
		<g>
			<polygon class="st10" points="258,1550.9 261,1575.5 231.9,1596.3 228.8,1571.7 			"/>
		</g>
		<g>
			<polygon class="st11" points="228.8,1571.7 231.9,1596.3 208.8,1572 205.7,1547.5 			"/>
		</g>
	</g>
</g>
<g>
	<g class="st0">
		<g>
			<polygon class="st4" points="205.7,1547.5 234.8,1526.6 258,1550.9 228.8,1571.7 			"/>
		</g>
		<g>
			<polygon class="st4" points="258,1550.9 261,1575.5 231.9,1596.3 228.8,1571.7 			"/>
		</g>
		<g>
			<polygon class="st4" points="228.8,1571.7 231.9,1596.3 208.8,1572 205.7,1547.5 			"/>
		</g>
	</g>
</g>
<g>
	<g class="st0">
		<g>
			<polygon class="st13" points="308.9,1442.6 333.5,1422.3 355.5,1442.4 330.9,1462.7 			"/>
		</g>
		<g>
			<polygon class="st14" points="355.5,1442.4 359.7,1464.1 335.1,1484.3 330.9,1462.7 			"/>
		</g>
		<g>
			<polygon class="st15" points="330.9,1462.7 335.1,1484.3 313.1,1464.2 308.9,1442.6 			"/>
		</g>
	</g>
</g>
<g>
	<g class="st0">
		<g>
			<polygon class="st4" points="308.9,1442.6 333.5,1422.3 355.5,1442.4 330.9,1462.7 			"/>
		</g>
		<g>
			<polygon class="st4" points="355.5,1442.4 359.7,1464.1 335.1,1484.3 330.9,1462.7 			"/>
		</g>
		<g>
			<polygon class="st4" points="330.9,1462.7 335.1,1484.3 313.1,1464.2 308.9,1442.6 			"/>
		</g>
	</g>
</g>
<g>
	<g class="st0">
		<g>
			<polygon class="st9" points="176.8,1308.8 189.5,1279.6 218.2,1287.5 205.5,1316.7 			"/>
		</g>
		<g>
			<polygon class="st10" points="218.2,1287.5 231.8,1304.9 219.1,1334.1 205.5,1316.7 			"/>
		</g>
		<g>
			<polygon class="st11" points="205.5,1316.7 219.1,1334.1 190.3,1326.2 176.8,1308.8 			"/>
		</g>
	</g>
</g>
<g>
	<g class="st0">
		<g>
			<polygon class="st4" points="176.8,1308.8 189.5,1279.6 218.2,1287.5 205.5,1316.7 			"/>
		</g>
		<g>
			<polygon class="st4" points="218.2,1287.5 231.8,1304.9 219.1,1334.1 205.5,1316.7 			"/>
		</g>
		<g>
			<polygon class="st4" points="205.5,1316.7 219.1,1334.1 190.3,1326.2 176.8,1308.8 			"/>
		</g>
	</g>
</g>
<g>
	<g class="st0">
		<g>
			<polygon class="st13" points="1.6,1230.7 60.9,1188.3 108.1,1237.7 48.7,1280.1 			"/>
		</g>
		<g>
			<polygon class="st14" points="108.1,1237.7 114.4,1287.8 55,1330.2 48.7,1280.1 			"/>
		</g>
		<g>
			<polygon class="st15" points="48.7,1280.1 55,1330.2 7.8,1280.8 1.6,1230.7 			"/>
		</g>
	</g>
</g>
<g>
	<g class="st0">
		<g>
			<polygon class="st4" points="1.6,1230.7 60.9,1188.3 108.1,1237.7 48.7,1280.1 			"/>
		</g>
		<g>
			<polygon class="st4" points="108.1,1237.7 114.4,1287.8 55,1330.2 48.7,1280.1 			"/>
		</g>
		<g>
			<polygon class="st4" points="48.7,1280.1 55,1330.2 7.8,1280.8 1.6,1230.7 			"/>
		</g>
	</g>
</g>
<g>
	<g class="st0">
		<g>
			<polygon class="st1" points="306.8,1203.1 319.5,1173.8 348.2,1181.8 335.5,1211 			"/>
		</g>
		<g>
			<polygon class="st2" points="348.2,1181.8 361.8,1199.2 349.1,1228.4 335.5,1211 			"/>
		</g>
		<g>
			<polygon class="st3" points="335.5,1211 349.1,1228.4 320.3,1220.4 306.8,1203.1 			"/>
		</g>
	</g>
</g>
<g>
	<g class="st0">
		<g>
			<polygon class="st4" points="306.8,1203.1 319.5,1173.8 348.2,1181.8 335.5,1211 			"/>
		</g>
		<g>
			<polygon class="st4" points="348.2,1181.8 361.8,1199.2 349.1,1228.4 335.5,1211 			"/>
		</g>
		<g>
			<polygon class="st4" points="335.5,1211 349.1,1228.4 320.3,1220.4 306.8,1203.1 			"/>
		</g>
	</g>
</g>
<g class="st5">
	<g class="st0">
		<g>
			<polygon class="st6" points="328.6,1064.5 352.7,1043.7 375.2,1063.2 351.1,1084.1 			"/>
		</g>
		<g>
			<polygon class="st7" points="375.2,1063.2 380,1084.7 355.9,1105.6 351.1,1084.1 			"/>
		</g>
		<g>
			<polygon class="st8" points="351.1,1084.1 355.9,1105.6 333.4,1086.1 328.6,1064.5 			"/>
		</g>
	</g>
</g>
<g class="st5">
	<g class="st0">
		<g>
			<polygon class="st4" points="328.6,1064.5 352.7,1043.7 375.2,1063.2 351.1,1084.1 			"/>
		</g>
		<g>
			<polygon class="st4" points="375.2,1063.2 380,1084.7 355.9,1105.6 351.1,1084.1 			"/>
		</g>
		<g>
			<polygon class="st4" points="351.1,1084.1 355.9,1105.6 333.4,1086.1 328.6,1064.5 			"/>
		</g>
	</g>
</g>
<g>
	<g class="st0">
		<g>
			<polygon class="st13" points="319.8,644 383.1,620.4 413.3,675.8 350.1,699.4 			"/>
		</g>
		<g>
			<polygon class="st14" points="413.3,675.8 406.8,722.1 343.6,745.7 350.1,699.4 			"/>
		</g>
		<g>
			<polygon class="st15" points="350.1,699.4 343.6,745.7 313.4,690.2 319.8,644 			"/>
		</g>
	</g>
</g>
<g>
	<g class="st0">
		<g>
			<polygon class="st4" points="319.8,644 383.1,620.4 413.3,675.8 350.1,699.4 			"/>
		</g>
		<g>
			<polygon class="st4" points="413.3,675.8 406.8,722.1 343.6,745.7 350.1,699.4 			"/>
		</g>
		<g>
			<polygon class="st4" points="350.1,699.4 343.6,745.7 313.4,690.2 319.8,644 			"/>
		</g>
	</g>
</g>
<g>
	<g class="st0">
		<g>
			<polygon class="st6" points="164.4,819.8 209.9,787.2 246.1,825.1 200.6,857.7 			"/>
		</g>
		<g>
			<polygon class="st7" points="246.1,825.1 250.9,863.6 205.4,896.1 200.6,857.7 			"/>
		</g>
		<g>
			<polygon class="st8" points="200.6,857.7 205.4,896.1 169.2,858.2 164.4,819.8 			"/>
		</g>
	</g>
</g>
<g>
	<g class="st0">
		<g>
			<polygon class="st4" points="164.4,819.8 209.9,787.2 246.1,825.1 200.6,857.7 			"/>
		</g>
		<g>
			<polygon class="st4" points="246.1,825.1 250.9,863.6 205.4,896.1 200.6,857.7 			"/>
		</g>
		<g>
			<polygon class="st4" points="200.6,857.7 205.4,896.1 169.2,858.2 164.4,819.8 			"/>
		</g>
	</g>
</g>
<g class="st12">
	<g class="st0">
		<g>
			<polygon class="st13" points="17,517.8 57.4,488.9 89.4,522.5 49.1,551.3 			"/>
		</g>
		<g>
			<polygon class="st14" points="89.4,522.5 93.7,556.5 53.4,585.4 49.1,551.3 			"/>
		</g>
		<g>
			<polygon class="st15" points="49.1,551.3 53.4,585.4 21.3,551.8 17,517.8 			"/>
		</g>
	</g>
</g>
<g class="st12">
	<g class="st0">
		<g>
			<polygon class="st4" points="17,517.8 57.4,488.9 89.4,522.5 49.1,551.3 			"/>
		</g>
		<g>
			<polygon class="st4" points="89.4,522.5 93.7,556.5 53.4,585.4 49.1,551.3 			"/>
		</g>
		<g>
			<polygon class="st4" points="49.1,551.3 53.4,585.4 21.3,551.8 17,517.8 			"/>
		</g>
	</g>
</g>
<g class="st5">
	<g class="st0">
		<g>
			<polygon class="st9" points="165.4,571.4 178.2,542.2 206.9,550.2 194.2,579.4 			"/>
		</g>
		<g>
			<polygon class="st10" points="206.9,550.2 220.5,567.6 207.7,596.8 194.2,579.4 			"/>
		</g>
		<g>
			<polygon class="st11" points="194.2,579.4 207.7,596.8 179,588.8 165.4,571.4 			"/>
		</g>
	</g>
</g>
<g class="st5">
	<g class="st0">
		<g>
			<polygon class="st4" points="165.4,571.4 178.2,542.2 206.9,550.2 194.2,579.4 			"/>
		</g>
		<g>
			<polygon class="st4" points="206.9,550.2 220.5,567.6 207.7,596.8 194.2,579.4 			"/>
		</g>
		<g>
			<polygon class="st4" points="194.2,579.4 207.7,596.8 179,588.8 165.4,571.4 			"/>
		</g>
	</g>
</g>
<g>
	<g class="st0">
		<g>
			<polygon class="st1" points="378.7,423 457.6,366.6 520.2,432.2 441.4,488.6 			"/>
		</g>
		<g>
			<polygon class="st2" points="520.2,432.2 528.5,498.7 449.7,555.1 441.4,488.6 			"/>
		</g>
		<g>
			<polygon class="st3" points="441.4,488.6 449.7,555.1 387.1,489.5 378.7,423 			"/>
		</g>
	</g>
</g>
<g>
	<g class="st0">
		<g>
			<polygon class="st4" points="378.7,423 457.6,366.6 520.2,432.2 441.4,488.6 			"/>
		</g>
		<g>
			<polygon class="st4" points="520.2,432.2 528.5,498.7 449.7,555.1 441.4,488.6 			"/>
		</g>
		<g>
			<polygon class="st4" points="441.4,488.6 449.7,555.1 387.1,489.5 378.7,423 			"/>
		</g>
	</g>
</g>
<g>
	<g class="st0">
		<g>
			<polygon class="st9" points="305.4,319 318.2,289.8 346.9,297.7 334.2,326.9 			"/>
		</g>
		<g>
			<polygon class="st10" points="346.9,297.7 360.5,315.1 347.7,344.3 334.2,326.9 			"/>
		</g>
		<g>
			<polygon class="st11" points="334.2,326.9 347.7,344.3 319,336.3 305.4,319 			"/>
		</g>
	</g>
</g>
<g>
	<g class="st0">
		<g>
			<polygon class="st4" points="305.4,319 318.2,289.8 346.9,297.7 334.2,326.9 			"/>
		</g>
		<g>
			<polygon class="st4" points="346.9,297.7 360.5,315.1 347.7,344.3 334.2,326.9 			"/>
		</g>
		<g>
			<polygon class="st4" points="334.2,326.9 347.7,344.3 319,336.3 305.4,319 			"/>
		</g>
	</g>
</g>
<g>
	<g class="st0">
		<g>
			<polygon class="st1" points="17,33.1 57.4,4.2 89.4,37.8 49.1,66.7 			"/>
		</g>
		<g>
			<polygon class="st2" points="89.4,37.8 93.7,71.9 53.4,100.7 49.1,66.7 			"/>
		</g>
		<g>
			<polygon class="st3" points="49.1,66.7 53.4,100.7 21.3,67.1 17,33.1 			"/>
		</g>
	</g>
</g>
<g>
	<g class="st0">
		<g>
			<polygon class="st4" points="17,33.1 57.4,4.2 89.4,37.8 49.1,66.7 			"/>
		</g>
		<g>
			<polygon class="st4" points="89.4,37.8 93.7,71.9 53.4,100.7 49.1,66.7 			"/>
		</g>
		<g>
			<polygon class="st4" points="49.1,66.7 53.4,100.7 21.3,67.1 17,33.1 			"/>
		</g>
	</g>
</g>
<g>
	<g class="st0">
		<g>
			<polygon class="st9" points="307.2,34.9 331.1,13.9 353.8,33.2 329.9,54.3 			"/>
		</g>
		<g>
			<polygon class="st10" points="353.8,33.2 358.7,54.7 334.8,75.8 329.9,54.3 			"/>
		</g>
		<g>
			<polygon class="st11" points="329.9,54.3 334.8,75.8 312.1,56.4 307.2,34.9 			"/>
		</g>
	</g>
</g>
<g>
	<g class="st0">
		<g>
			<polygon class="st4" points="307.2,34.9 331.1,13.9 353.8,33.2 329.9,54.3 			"/>
		</g>
		<g>
			<polygon class="st4" points="353.8,33.2 358.7,54.7 334.8,75.8 329.9,54.3 			"/>
		</g>
		<g>
			<polygon class="st4" points="329.9,54.3 334.8,75.8 312.1,56.4 307.2,34.9 			"/>
		</g>
	</g>
</g>
</svg>
