<?xml version="1.0" encoding="utf-8"?>
<!-- Generator: Adobe Illustrator 22.0.0, SVG Export Plug-In . SVG Version: 6.00 Build 0)  -->
<svg version="1.1" id="Layer_3" xmlns="http://www.w3.org/2000/svg" xmlns:xlink="http://www.w3.org/1999/xlink" x="0px" y="0px"
	 viewBox="0 0 226.6 241.6" style="enable-background:new 0 0 226.6 241.6;" xml:space="preserve">
<style type="text/css">
	.st0{fill:#CFFFF0;}
	.st1{fill:#7CE5D6;}
	.st2{fill:#FFBBC3;}
	.st3{fill:#FDE471;}
	.st4{fill:none;stroke:#330303;stroke-width:3.743;stroke-linecap:round;stroke-linejoin:round;stroke-miterlimit:10;}
</style>
<g id="XMLID_7_">
	<g>
		<path class="st0" d="M167.7,3.9c30.9,0,55.9,25,55.9,55.9c0,30.9-25,55.9-55.9,55.9c-30.9,0-55.9-25-55.9-55.9
			C111.9,28.9,136.9,3.9,167.7,3.9z M179.6,62.7l-43.5-8.4c0,0-2,4.9-2.2,10.9c-0.2,7.5,2.5,16.8,16,20.3
			c13.2,3.4,20.9-3.9,25.1-11.1C178.5,68.5,179.6,62.7,179.6,62.7z"/>
		<path class="st1" d="M146.1,140.4c22.9,0,41.5,18.6,41.5,41.5s-18.6,41.5-41.5,41.5s-41.5-18.6-41.5-41.5S123.2,140.4,146.1,140.4
			z"/>
		<path class="st2" d="M159.1,70.8c0.1,0,0.1,0,0.1,0l15.7,3.6l0.1,0.1c-4.2,7.2-11.9,14.5-25.1,11.1c-13.5-3.5-16.3-12.8-16-20.3
			l0.9,0L159.1,70.8z"/>
		<path class="st2" d="M87.2,205.8c0.2,1.5,0.4,3,0.4,4.5c0,15.7-12.7,28.4-28.4,28.4S30.7,226,30.7,210.3s12.7-28.4,28.4-28.4
			C73.3,181.9,85,192.2,87.2,205.8z"/>
		<circle class="st3" cx="48.3" cy="121.9" r="44.6"/>
	</g>
	<g>
		<circle class="st4" cx="48.3" cy="121.9" r="44.6"/>
		<path class="st4" d="M87.5,210.3c0,15.7-12.7,28.4-28.4,28.4S30.7,226,30.7,210.3s12.7-28.4,28.4-28.4c14.1,0,25.9,10.3,28.1,23.9
			C87.4,207.2,87.5,208.7,87.5,210.3z"/>
		<path class="st4" d="M187.6,181.9c0,22.9-18.6,41.5-41.5,41.5s-41.5-18.6-41.5-41.5s18.6-41.5,41.5-41.5S187.6,159,187.6,181.9z"
			/>
		<path class="st4" d="M223.7,59.8c0,30.9-25,55.9-55.9,55.9c-30.9,0-55.9-25-55.9-55.9c0-30.9,25-55.9,55.9-55.9
			C198.6,3.9,223.7,28.9,223.7,59.8z"/>
		<path class="st4" d="M39.3,119.2c3.6-9.9,17.6-10.8,16.2,1.8"/>
		<path class="st4" d="M71.7,121.9c2.3-6.3,10.8-7.7,11.7,1.4"/>
		<path class="st4" d="M46.9,140.4c5,6.8,19.4,8.1,23.9,0"/>
		<line class="st4" x1="52.4" y1="206.2" x2="63.2" y2="206.2"/>
		<polyline class="st4" points="79.4,205.8 87.2,205.8 90.7,205.8 		"/>
		<line class="st4" x1="57.8" y1="220.2" x2="76.2" y2="220.2"/>
		<path class="st4" d="M132.1,171.5c1.4,0.5,14,5,14,5l-14,7.2"/>
		<polyline class="st4" points="176.8,171.9 165,177.4 177.2,180.9 		"/>
		<path class="st4" d="M133.9,65.2c0.2-6,2.2-10.9,2.2-10.9l43.5,8.4c0,0-1.1,5.8-4.6,11.7c-4.2,7.2-11.9,14.5-25.1,11.1
			C136.4,82,133.7,72.7,133.9,65.2z"/>
		<line class="st4" x1="159.1" y1="70.8" x2="134.9" y2="65.2"/>
		<line class="st4" x1="174.9" y1="74.3" x2="159.2" y2="70.8"/>
		<path class="st4" d="M159.2,70.8c0,0-0.1,0-0.1,0c-12.3-1.3-19.3,8.1-19.3,8.1"/>
		<path class="st4" d="M181.6,48.1c2.5-12.4,19.8-9.9,18.3,3.9"/>
		<path class="st4" d="M133.6,36.5c2.5-12.4,19.8-9.9,18.3,3.9"/>
		<path class="st4" d="M144.3,197.6c6.3-4.5,16.7-6.3,23.4-0.9"/>
	</g>
</g>
</svg>
