<svg id="Layer_1" data-name="Layer 1" xmlns="http://www.w3.org/2000/svg" viewBox="0 0 232 217.29"><defs><style>.cls-1{fill:#cffff0;}.cls-2{fill:#7ce5d6;}.cls-3{fill:#ffbbc3;}.cls-4{fill:#fde471;}.cls-5{fill:none;stroke:#330303;stroke-linecap:round;stroke-linejoin:round;stroke-width:3.74px;}</style></defs><title>2-diversity</title><g id="_Group_" data-name="&lt;Group&gt;"><path class="cls-1" d="M167.38,2.68a50.24,50.24,0,1,1-50.24,50.23A50.21,50.21,0,0,1,167.38,2.68Zm10.69,52.84L139,48a31.67,31.67,0,0,0-2,9.8c-.18,6.74,2.25,15.09,14.38,18.24,11.86,3,18.78-3.51,22.56-10A36.4,36.4,0,0,0,178.07,55.52Z"/><path class="cls-2" d="M148,125.34a37.3,37.3,0,1,1-37.3,37.3A37.32,37.32,0,0,1,148,125.34Z"/><path class="cls-3" d="M159.65,62.8h.09L173.85,66l.09.09c-3.78,6.47-10.7,13-22.56,10C139.25,73,136.73,64.6,137,57.86h.81Z"/><path class="cls-3" d="M95,184.12a30.47,30.47,0,0,1,.36,4,25.78,25.78,0,1,1-.36-4Z"/><circle class="cls-4" cx="60.08" cy="108.72" r="40.08"/><circle class="cls-5" cx="60.08" cy="108.72" r="40.08"/><path class="cls-5" d="M95.31,188.16a25.18,25.18,0,1,1-.27-4A28.43,28.43,0,0,1,95.31,188.16Z"/><path class="cls-5" d="M185.26,162.64A37.3,37.3,0,1,1,148,125.34,37.32,37.32,0,0,1,185.26,162.64Z"/><path class="cls-5" d="M217.7,52.91A50.24,50.24,0,1,1,167.47,2.68,50.21,50.21,0,0,1,217.7,52.91Z"/><path class="cls-5" d="M52,106.29c3.24-8.89,15.82-9.7,14.56,1.62"/><path class="cls-5" d="M81.11,108.72c2.06-5.66,9.7-6.92,10.51,1.26"/><path class="cls-5" d="M58.82,125.34c4.49,6.12,17.43,7.28,21.48,0"/><line class="cls-5" x1="63.76" y1="184.47" x2="73.47" y2="184.47"/><polyline class="cls-5" points="88.03 184.12 95.04 184.12 98.18 184.12"/><line class="cls-5" x1="68.62" y1="197.06" x2="85.15" y2="197.06"/><path class="cls-5" d="M135.38,153.29l12.59,4.5-12.59,6.47"/><polyline class="cls-5" points="175.55 153.65 164.95 158.59 175.91 161.74"/><path class="cls-5" d="M137,57.77a31.67,31.67,0,0,1,2-9.8l39.09,7.55A36.4,36.4,0,0,1,173.94,66c-3.78,6.47-10.7,13-22.56,10C139.25,72.86,136.82,64.51,137,57.77Z"/><line class="cls-5" x1="159.65" y1="62.8" x2="137.9" y2="57.77"/><line class="cls-5" x1="173.85" y1="65.94" x2="159.74" y2="62.8"/><path class="cls-5" d="M159.74,62.8h-.09c-11.06-1.17-17.35,7.28-17.35,7.28"/><path class="cls-5" d="M179.87,42.4c2.24-11.14,17.79-8.9,16.44,3.5"/><path class="cls-5" d="M136.73,32c2.25-11.15,17.8-8.9,16.45,3.5"/><path class="cls-5" d="M146.35,176.75c5.66-4.05,15-5.67,21-.81"/></g></svg>