<?xml version="1.0" encoding="utf-8"?>
<!-- Generator: Adobe Illustrator 22.0.0, SVG Export Plug-In . SVG Version: 6.00 Build 0)  -->
<svg version="1.1" id="Layer_3" xmlns="http://www.w3.org/2000/svg" xmlns:xlink="http://www.w3.org/1999/xlink" x="0px" y="0px"
	 viewBox="0 0 224.3 188.5" style="enable-background:new 0 0 224.3 188.5;" xml:space="preserve">
<style type="text/css">
	.st0{fill:#EAE4E4;}
	.st1{fill:#FFFFFF;}
	.st2{fill:#7CE5D6;}
	.st3{fill:#FFDEAB;}
	.st4{fill:#F9F5F4;}
	.st5{fill:#ADEBDA;}
	.st6{fill:#CFFFF0;}
	.st7{fill:#DDAC99;}
	.st8{fill:#FFEBD2;}
	.st9{fill:#B58879;}
	.st10{fill:none;stroke:#330303;stroke-width:3.743;stroke-linecap:round;stroke-linejoin:round;stroke-miterlimit:10;}
</style>
<g id="XMLID_6_">
	<g>
		<path class="st0" d="M115.1,55.7L115.1,55.7h-6l0,0C109.5,50.6,114.6,51.1,115.1,55.7z"/>
		<path class="st1" d="M120.5,73.7c0.1,0.4,0,0.7,0,1c-0.3,1.3-1.4,2.2-2.7,2.3l-11.4,0.2c-1.4,0-2.6-1-2.8-2.3
			c-0.1-0.3-0.1-0.6,0-1l2.9-15.8c0.3-1.3,1.4-2.3,2.8-2.3h6c1.4,0,2.5,1,2.8,2.4L120.5,73.7z"/>
		<path class="st0" d="M106.4,58.1l-2.9,15.8c-0.1,0.3-0.1,0.7,0,1l0,0l-9.6,5.3c-1.7,0.9-2.4,2.9-1.8,4.7l10,27.7
			c0.2,0.5,0.2,0.9,0.2,1.4c-0.1,0.9-0.5,1.7-1.2,2.3l-1.8,1.5l-1.2,1c-1,0.8-2.4,0.5-3-0.6l-16-34.1c-1.4-3-0.4-6.7,2.3-8.6
			L106.4,58.1z"/>
		<path class="st0" d="M143.4,75.4c2.8,1.9,3.7,5.5,2.3,8.6l-16,34.1c-0.4,0.9-1.4,1.3-2.2,1c-0.3-0.1-0.5-0.2-0.7-0.4l-3-2.6
			c-1.1-0.9-1.5-2.4-1-3.7l10-27.7c0.6-1.8-0.1-3.7-1.7-4.7l-9.6-5.3l-0.8-0.1c0.1-0.3,0.1-0.6,0-1L118.1,58h0.5L143.4,75.4z"/>
		<path class="st1" d="M122.8,162.7c0,0,6.1,5.5,2.3,7.6c-3.8,2.1-8.1-3.4-8.5-5.2c-0.1-0.4-0.2-1.6-0.3-3h0.3
			c1.4,2.2,4.7,1.8,6.2,0.1h0.1L122.8,162.7z"/>
		<path class="st1" d="M111.4,163.5c-0.5,4.6-7.7,8.8-10.4,6.5c-2.6-2.3,3-8,3-8c2.9,1.5,6.3,0.4,7.3-0.9h0.3
			C111.5,162,111.4,162.8,111.4,163.5z"/>
		<path class="st2" d="M105.3,140c0.4-0.5,0.5-1,0.3-1.4l0.2-0.1c3.3,1.3,14.3-0.3,15.8-1.9h0.3c-0.7,1.8-2.6,2.8-2.3,4.4
			c0.4,2,3-0.5,4.3,0.3l-1,20.9h-0.1c-1.5,1.7-4.8,2.1-6.2-0.1h-0.3c-0.4-4.8-0.9-13.4-0.9-13.4l-0.2-0.5c-1,0.4-2,0.9-2.7,1.3l0,0
			c0,0-0.5,6.9-0.9,11.7h-0.3c-1,1.3-4.4,2.4-7.3,0.9v-20.4l-2.7-0.1c0.1-0.4,0.2-0.7,0.4-0.8C102.6,140.5,103.9,141.6,105.3,140z"
			/>
		<path class="st3" d="M122.4,133.6c1.6,1,4,0.4,4.8-0.1h0.4c0,1.5,0.1,2.1,0.4,2.7c0.6,1.3,3.9,3.8,3,4.9s-3.4-0.2-3.4-0.2
			c0.1,0.3,1,3.3-0.4,4.2c-1.4,0.9-2-3-3.3-3.8s-3.9,1.8-4.3-0.3c-0.3-1.7,1.6-2.7,2.3-4.4c0.1-0.4,0.2-0.8,0.2-1.3s0-1,0-1.7
			L122.4,133.6L122.4,133.6z"/>
		<path class="st3" d="M104,136.2c0,0.5,1.3,1.4,1.6,2.4c0.1,0.4,0.1,0.9-0.3,1.4c-1.4,1.6-2.7,0.5-3.6,0.8
			c-0.2,0.1-0.3,0.4-0.4,0.8c-0.2,1.2,0,3.4-1.2,3.6c-1.7,0.3-2-4.3-2-4.3s-2.2,2.2-3.3,0.8c-1.1-1.4,1.4-2.9,2-3.7
			c0.4-0.5,0.9-0.5,1.2-3.4h0.8c1.5,1.4,3.7,0.9,5.1-0.3h0.1C104.1,135.3,104,136,104,136.2z"/>
		<path class="st4" d="M104.1,134.3H104c-1.4,1.3-3.6,1.7-5.1,0.3h-0.8c0.2-1.7,0.3-4.5,0.3-9c0-3.3,0.5-5.7,1.2-7.6l-0.2-0.2
			l1.8-1.5c0.7-0.6,1.1-1.4,1.2-2.3h0.2c2.6-1.9,5.8-2.1,8.3-2.4c3.2-0.5,8.4-0.7,11.8,1h0.1c-0.5,1.3-0.1,2.8,1,3.7l3,2.6
			c0.2,0.2,0.5,0.3,0.7,0.4l-0.1,0.2c0.1,0.8,0.2,1.6,0.2,2.5c0,6.3-0.1,9.7,0,11.6h-0.4c-0.8,0.5-3.2,1.1-4.8,0.1h-0.3
			c0,0.6,0,1.2,0,1.7s-0.1,0.9-0.2,1.3h-0.3c-1.5,1.6-12.5,3.2-15.8,1.9l-0.2,0.1c-0.3-1-1.6-1.9-1.6-2.4
			C104,136,104.1,135.3,104.1,134.3z"/>
		<path class="st4" d="M215.4,180.8v4.8h-23.8v-4.8c0-6.6,5.3-11.9,11.9-11.9l0,0C210.1,168.9,215.4,174.3,215.4,180.8z"/>
		<path class="st4" d="M187.2,180.8v4.8h-23.8v-4.8c0-6.6,5.3-11.9,11.9-11.9c3.3,0,6.3,1.3,8.4,3.5
			C185.9,174.6,187.2,177.5,187.2,180.8z"/>
		<path class="st5" d="M159,180.8v4.8h-23.8v-4.8c0-6.6,5.3-11.9,11.9-11.9c3.3,0,6.3,1.3,8.4,3.5S159,177.5,159,180.8z"/>
		<path class="st4" d="M94.1,180.8v4.8H70.3v-4.8c0-6.6,5.3-11.9,11.9-11.9c3.3,0,6.3,1.3,8.4,3.5C92.8,174.6,94.1,177.5,94.1,180.8
			z"/>
		<path class="st5" d="M65.9,180.8v4.8H42.1v-4.8c0-6.6,5.3-11.9,11.9-11.9l0,0C60.6,168.9,65.9,174.3,65.9,180.8z"/>
		<path class="st6" d="M37.7,180.8v4.8H13.9v-4.8c0-6.6,5.3-11.9,11.9-11.9c3.3,0,6.3,1.3,8.4,3.5C36.3,174.6,37.7,177.5,37.7,180.8
			z"/>
		<circle class="st3" cx="203.5" cy="159.6" r="5.9"/>
		<path class="st3" d="M112.1,96.2c3.4,0,6.1,2.7,6.1,6.1c0,3.4-2.7,6.1-6.1,6.1c-3.3,0-6.1-2.7-6.1-6.1S108.7,96.2,112.1,96.2z"/>
		<circle class="st3" cx="147" cy="159.6" r="5.9"/>
		<circle class="st7" cx="176.8" cy="158.1" r="5.9"/>
		
			<ellipse transform="matrix(0.9951 -9.853775e-02 9.853775e-02 0.9951 -15.464 6.0945)" class="st8" cx="54" cy="159.6" rx="5.9" ry="5.9"/>
		<circle class="st7" cx="82.2" cy="159.6" r="5.9"/>
		<circle class="st9" cx="24.7" cy="159.2" r="5.4"/>
	</g>
	<g>
		<path class="st10" d="M13.8,185.6v-4.8c0-6.6,5.3-11.9,11.9-11.9c3.3,0,6.3,1.3,8.4,3.5c2.2,2.2,3.5,5.1,3.5,8.4v4.8"/>
		<circle class="st10" cx="24.7" cy="159.2" r="5.4"/>
		<path class="st10" d="M42.1,185.6v-4.8c0-6.6,5.3-11.9,11.9-11.9l0,0c6.6,0,11.9,5.3,11.9,11.9v4.8"/>
		
			<ellipse transform="matrix(0.9951 -9.853775e-02 9.853775e-02 0.9951 -15.464 6.0945)" class="st10" cx="54" cy="159.6" rx="5.9" ry="5.9"/>
		<path class="st10" d="M70.3,185.6v-4.8c0-6.6,5.3-11.9,11.9-11.9c3.3,0,6.3,1.3,8.4,3.5c2.2,2.2,3.5,5.1,3.5,8.4v4.8"/>
		<circle class="st10" cx="82.2" cy="159.6" r="5.9"/>
		<path class="st10" d="M135.1,185.6v-4.8c0-6.6,5.3-11.9,11.9-11.9c3.3,0,6.3,1.3,8.4,3.5c2.2,2.2,3.5,5.1,3.5,8.4v4.8"/>
		<circle class="st10" cx="147" cy="159.6" r="5.9"/>
		<path class="st10" d="M118.1,102.3c0,3.4-2.7,6.1-6.1,6.1c-3.3,0-6.1-2.7-6.1-6.1c0-3.3,2.7-6.1,6.1-6.1
			C115.4,96.2,118.1,98.9,118.1,102.3z"/>
		<path class="st10" d="M163.4,185.6v-4.8c0-6.6,5.3-11.9,11.9-11.9c3.3,0,6.3,1.3,8.4,3.5c2.2,2.2,3.5,5.1,3.5,8.4v4.8"/>
		<circle class="st10" cx="176.8" cy="158.1" r="5.9"/>
		<path class="st10" d="M191.6,185.6v-4.8c0-6.6,5.3-11.9,11.9-11.9l0,0c6.6,0,11.9,5.3,11.9,11.9v4.8"/>
		<circle class="st10" cx="203.5" cy="159.6" r="5.9"/>
		<path class="st10" d="M127.6,140.9c0.1,0.3,1,3.3-0.4,4.2c-1.4,0.9-2-3-3.3-3.8s-3.9,1.8-4.3-0.3c-0.3-1.7,1.6-2.7,2.3-4.4
			c0.1-0.4,0.2-0.8,0.2-1.3s0-1,0-1.7c-0.1-3.2-0.3-7.9-0.3-7.9"/>
		<path class="st10" d="M127.4,119.3c0.1,0.8,0.2,1.6,0.2,2.5c0,6.3-0.1,9.7,0,11.6c0,1.5,0.1,2.1,0.4,2.7c0.6,1.3,3.9,3.8,3,4.9
			s-3.4-0.2-3.4-0.2l0,0"/>
		<path class="st10" d="M102.5,113.9c2.6-1.9,5.8-2.1,8.3-2.4c3.2-0.5,8.4-0.7,11.8,1"/>
		<path class="st10" d="M104.3,125.1c0,0-0.2,6-0.3,9.1c0,1,0,1.7,0,1.9c0,0.5,1.3,1.4,1.6,2.4c0.1,0.4,0.1,0.9-0.3,1.4
			c-1.4,1.6-2.7,0.5-3.6,0.8c-0.2,0.1-0.3,0.4-0.4,0.8c-0.2,1.2,0,3.4-1.2,3.6c-1.7,0.3-2-4.3-2-4.3s-2.2,2.2-3.3,0.8
			c-1.1-1.4,1.4-2.9,2-3.7c0.4-0.5,0.9-0.5,1.2-3.4c0.2-1.7,0.3-4.5,0.3-9c0-3.3,0.5-5.7,1.2-7.6"/>
		<path class="st10" d="M105.8,138.5c3.3,1.3,14.3-0.3,15.8-1.9"/>
		<path class="st10" d="M104,141.6V162c0,0-5.6,5.7-3,8c2.7,2.4,9.9-1.9,10.4-6.5c0.1-0.7,0.1-1.5,0.2-2.3
			c0.4-4.8,0.9-11.7,0.9-11.7"/>
		<path class="st10" d="M115.4,148.7c0,0,0.5,8.5,0.9,13.4c0.1,1.5,0.3,2.6,0.3,3c0.4,1.8,4.7,7.3,8.5,5.2c3.8-2.1-2.3-7.6-2.3-7.6
			v-0.6l1-20.9"/>
		<path class="st10" d="M111.3,150.1c0.2-0.1,0.6-0.4,1.1-0.6c0.8-0.4,1.8-0.8,2.7-1.3c1.2-0.5,2.3-1,2.6-1"/>
		<path class="st10" d="M106.4,58.1l-2.9,15.8c-0.1,0.3-0.1,0.7,0,1c0.2,1.3,1.4,2.4,2.8,2.3l11.4-0.2c1.4,0,2.5-1,2.7-2.3
			c0.1-0.3,0.1-0.6,0-1l-2.6-15.6c-0.2-1.4-1.4-2.4-2.8-2.4h-6C107.8,55.8,106.6,56.7,106.4,58.1z"/>
		<path class="st10" d="M103.5,74.8l-9.6,5.3c-1.7,0.9-2.4,2.9-1.8,4.7l10,27.7c0.2,0.5,0.2,0.9,0.2,1.4c-0.1,0.9-0.5,1.7-1.2,2.3
			l-1.8,1.5l-1.2,1c-1,0.8-2.4,0.5-3-0.6L79.1,84c-1.4-3-0.4-6.7,2.3-8.6l25-17.3"/>
		<path class="st10" d="M121.3,74.8l9.6,5.3c1.7,0.9,2.4,2.9,1.7,4.7l-10,27.7c-0.5,1.3-0.1,2.8,1,3.7l3,2.6
			c0.2,0.2,0.5,0.3,0.7,0.4c0.9,0.2,1.8-0.2,2.2-1l16-34.1c1.4-3,0.4-6.7-2.3-8.6l-25-17.3"/>
		<path class="st10" d="M109.1,55.7c0.4-5.1,5.5-4.6,6,0"/>
		<polyline class="st10" points="2.5,185.6 13.8,185.6 37.7,185.6 42.1,185.6 65.9,185.6 70.3,185.6 94.1,185.6 135.1,185.6 
			159,185.6 163.4,185.6 187.2,185.6 191.6,185.6 215.4,185.6 222.5,185.6 		"/>
		<line class="st10" x1="112" y1="51.2" x2="112" y2="2.6"/>
		<path class="st10" d="M98.8,134.6c1.5,1.4,3.7,0.9,5.1-0.3"/>
		<path class="st10" d="M122.4,133.6c1.6,1,4,0.4,4.8-0.1"/>
		<path class="st10" d="M104,162c2.9,1.5,6.3,0.4,7.3-0.9"/>
		<path class="st10" d="M116.6,162c1.4,2.2,4.7,1.8,6.2,0.1"/>
	</g>
</g>
</svg>
