<svg id="Layer_1" data-name="Layer 1" xmlns="http://www.w3.org/2000/svg" viewBox="0 0 232 290"><defs><style>.cls-1{fill:#fff;}.cls-2{fill:#eae4e4;}.cls-3{fill:#fde471;}.cls-4{fill:#ffbbc3;}.cls-5{fill:#7ce5d6;}.cls-6,.cls-7{fill:none;}.cls-6{stroke:#330303;stroke-linecap:round;stroke-linejoin:round;stroke-width:3.74px;}.cls-8{fill:#ffd7dd;}.cls-9{fill:#fff8ee;}.cls-10{fill:#fbbc7a;}</style></defs><title>2-diversity</title><g id="_Group_" data-name="&lt;Group&gt;"><path class="cls-1" d="M164.9,97.2c8.3,39.4,29.6,91.7,29.6,91.7a163.31,163.31,0,0,0-25.3,4.1c-45.4,10.7-102.5,37.7-102.5,37.7C52,190.4,41.5,155,34.3,127.9,24.9,92.5,21.2,71.1,21.2,71.1,66,59.5,125.2,35.7,150.4,19.8,149.5,20,156.5,57.6,164.9,97.2Zm-20.3,45.5-10.1-26-27.4,10.1,9.4,26Zm-39.7,35.4c0-9.2-7.8-16.6-17.3-16.6s-17.3,7.4-17.3,16.6,7.8,16.6,17.3,16.6S104.9,187.2,104.9,178.1ZM84,116,60.9,86.4l-3.6,40.4Z"/><path class="cls-2" d="M169.4,194.2l14,42.4L49.1,290,0,143.2l33.2-14.9,1.1-.3c7.2,27.1,17.7,62.5,32.4,102.8,0,0,57.1-27.1,102.5-37.7Z"/><polygon class="cls-3" points="60.9 86.4 84 116 57.3 126.8 60.9 86.4"/><polygon class="cls-4" points="134.5 116.7 144.6 142.7 116.5 152.8 107.1 126.8 134.5 116.7"/><ellipse class="cls-5" cx="87.6" cy="178.1" rx="17.3" ry="16.6"/><path class="cls-6" d="M169.1,193a152.13,152.13,0,0,1,25.3-4.1s-21.3-52.3-29.6-91.7c-8.4-39.6-15.4-77.2-14.4-77.3C125.1,35.8,65.9,59.6,21.2,71.2c0,0,3.7,21.3,13.1,56.8,7.2,27.1,17.7,62.5,32.4,102.8C66.7,230.8,123.8,203.7,169.1,193Z"/><polygon class="cls-6" points="60.9 86.4 57.3 126.8 84 116 60.9 86.4"/><polygon class="cls-6" points="107.1 126.8 134.5 116.7 144.6 142.7 116.5 152.8 107.1 126.8"/><ellipse class="cls-6" cx="87.6" cy="178.1" rx="17.3" ry="16.6"/><path class="cls-6" d="M118.8,93.7c.3.8.1-.2.4.5"/><path class="cls-6" d="M105.7,70.5c-2.2-5.8,6.3-16.9,15.3-11.2,8.3,5.3,1.6,14.3-3.1,18.4-2.8,2.5-2,6.6-1.2,9.9"/><polyline class="cls-7" points="33.2 128.2 0 143.2 49.1 290 183.4 236.5 169.4 194.2"/></g><g id="_Group_2" data-name="&lt;Group&gt;"><path class="cls-4" d="M219.7,11.4c4.1,2.3,7.6,3.4,8.1,2.6l.1.1-9.4,15.7-.4-.2c-.5.8-3.9-.2-8-2.5Z"/><path class="cls-8" d="M219.8,6.4c5.1,3.1,8.7,6.5,8.1,7.6-.5.8-4-.3-8.1-2.6a25.29,25.29,0,0,1-2.2-1.3c-5.1-3.1-8.7-6.5-8-7.5S214.7,3.3,219.8,6.4Z"/><path class="cls-8" d="M219.7,11.4l-9.6,15.7c-.8-.4-1.6-.9-2.4-1.4-4.3-2.7-7.6-5.6-8-7l9.7-16.2c-.6,1,3,4.4,8,7.5C218.3,10.6,219,11,219.7,11.4Z"/><path class="cls-9" d="M154.2,95.5c3.8-4.2,7.1-.8,6.9,1.2,0,0,7.6-7.3,9.4-4.5s-2.2,9.2-2.2,9.7,6.8.1,4.3,4.5h0l-.5.8-18.2,7.9L153.4,96l.4-.7Z"/><path class="cls-3" d="M153.9,95.3l45.9-76.5c.4,1.4,3.7,4.3,8,7,.8.5,1.6,1,2.4,1.4L170.5,92.3c-1.8-2.8-9.4,4.5-9.4,4.5.2-2-3-5.4-6.9-1.2Z"/><path class="cls-10" d="M210.2,27.1c4.1,2.2,7.4,3.3,8,2.5l.4.2-46,76.6c2.5-4.4-4.3-4-4.3-4.5s4-6.8,2.2-9.7Z"/><path class="cls-6" d="M227.8,14c-.5.8-4-.3-8.1-2.6a25.29,25.29,0,0,1-2.2-1.3c-5.1-3.1-8.7-6.5-8-7.5s5.2.7,10.3,3.8S228.5,12.9,227.8,14Z"/><path class="cls-6" d="M218.1,29.6c-.5.8-3.9-.2-8-2.5-.8-.4-1.6-.9-2.4-1.4-4.3-2.7-7.6-5.6-8-7a.64.64,0,0,1,0-.6"/><polyline class="cls-6" points="172.6 106.4 218.5 29.8 228 14.1 228 14"/><polyline class="cls-6" points="209.5 2.6 199.8 18.8 153.9 95.3 153.5 96 154 115.1 172.1 107.2 172.6 106.4"/><path class="cls-6" d="M154.2,95.5c3.8-4.2,7.1-.8,6.9,1.2,0,0,7.6-7.3,9.4-4.5s-2.2,9.2-2.2,9.7,6.8.1,4.3,4.5h0"/><line class="cls-6" x1="154.7" y1="110.8" x2="158.2" y2="113"/><polyline class="cls-7" points="220.4 10.4 219.7 11.4 210.2 27.1 170.5 92.2"/></g></svg>