<?xml version="1.0" encoding="utf-8"?>
<!-- Generator: Adobe Illustrator 22.0.0, SVG Export Plug-In . SVG Version: 6.00 Build 0)  -->
<svg version="1.1" id="Layer_1" xmlns="http://www.w3.org/2000/svg" xmlns:xlink="http://www.w3.org/1999/xlink" x="0px" y="0px"
	 viewBox="0 0 280 218.4" style="enable-background:new 0 0 280 218.4;" xml:space="preserve">
<style type="text/css">
	.st0{fill:#FFFFFF;}
	.st1{fill:#FFA1A8;}
	.st2{fill:#FFD071;}
	.st3{fill:#FFF8EE;}
	.st4{fill:#ADEBDA;}
	.st5{fill:#DDAC99;}
	.st6{fill:#B58879;}
	.st7{fill:#FFD0AC;}
	.st8{fill:#FFEBD2;}
	.st9{fill:none;stroke:#330303;stroke-width:3.74;stroke-linecap:round;stroke-linejoin:round;}
	.st10{fill:none;stroke:#330303;stroke-width:3.74;stroke-linejoin:round;}
	.st11{fill:none;stroke:#330303;stroke-width:1.56;stroke-linecap:round;stroke-linejoin:round;}
	.st12{fill:none;}
</style>
<polygon class="st0" points="101.8,57.9 92,76.4 133.8,176.8 195,151.2 183.4,117.5 166.1,87.1 175.6,73.7 153.3,58.6 145.8,41.8 
	"/>
<title>2-diversity</title>
<g id="_Group_">
	<path class="st1" d="M61.1,113.2c1.5,1.1,0.8,4.7-1.7,7.9s-5.3,4.7-6.9,4l-0.5-0.4c-1.4-1.2-0.5-4.7,1.9-7.8S59.5,112.1,61.1,113.2
		z"/>
	<path class="st1" d="M61.1,113.1l11.4,8.4l-0.1,0.2c1.5,1.1,0.7,4.6-1.6,7.7c-2.3,3.1-5.5,4.7-6.9,3.6l-0.2,0.4l-11.1-8.3
		c1.6,0.7,4.6-0.9,6.9-4S62.6,114.3,61.1,113.1L61.1,113.1z"/>
	<path class="st2" d="M103.9,144.8l23.2,17.2c0.1,0.1,0.2,0.1,0.4,0.2c-2.8-1.7-2.7,2.7-3.1,2.7s-5-3.6-7.1-2.6s3.1,7.2,3.1,7.2
		c-1.5-0.4-4.1,1.5-1.1,4.7l-0.1,0.1c-0.4-0.2-0.7-0.4-1-0.6l-19.3-14.4l-0.4-0.4l-15.2-11.3l-19.6-14.4l0.2-0.4
		c1.5,1.1,4.6-0.5,6.9-3.6c2.3-3.1,3.1-6.6,1.6-7.7l0.1-0.2l7.3,5.4l9.9,7.3c-3.3,8.3,7.3,14.4,13.4,10.4L103.9,144.8L103.9,144.8z"
		/>
	<path class="st3" d="M124.3,165.1c0.4,0,0.2-4.5,3.1-2.7c0.7,0.6,1.2,1.3,1.5,2.1l4.8,12.3l-12.5-1.6c-0.7-0.1-1.4-0.3-2.1-0.6
		l0.1-0.1c-3-3.2-0.4-5.1,1.1-4.7c0,0-5.2-6.2-3.1-7.2S124,165,124.3,165.1z"/>
	<path class="st1" d="M227.1,93.2c0.1,0.1,0.2,0.1,0.4,0.2c1.1,0.9,1,3.1-0.2,5.6c-0.4,0.8-0.9,1.6-1.5,2.4c-2.5,3.2-5.7,5-7.3,3.8
		s-0.7-4.7,1.7-8.1C222.5,94.2,225.4,92.5,227.1,93.2z"/>
	<path class="st1" d="M220.1,97.2c-2.5,3.2-3.2,6.8-1.7,8.1l-0.1,0.1L206.9,97l0.1-0.2c-1.5-1.1-0.7-4.6,1.6-7.7
		c2.3-3.1,5.5-4.7,6.9-3.6l0.2-0.4l11.1,8.2C225.4,92.5,222.5,94.2,220.1,97.2z"/>
	<path class="st4" d="M208.7,79.6l7.2,5.3l-0.2,0.4c-1.5-1.1-4.6,0.5-6.9,3.6c-2.3,3.1-3.1,6.6-1.6,7.7l-0.1,0.2L190,84.2l0,0
		c2.7-8.9-8.2-14.8-14-10.2l-0.2-0.4l-23.2-17.2c-0.1-0.1-0.2-0.1-0.2-0.2c2.9,1.7,2.7-2.9,3.1-2.7s5,3.6,7.1,2.6s-3.1-7.2-3.1-7.2
		c1.5,0.4,4.1-1.5,1.1-4.7l0.1-0.2c0.1,0,0.1,0.1,0.2,0.1L181,59l0.4,0.4L208.7,79.6z"/>
	<path class="st5" d="M218.4,105.3L218.4,105.3c1.6,1.1,4.8-0.6,7.3-3.8c0.6-0.7,1.1-1.5,1.5-2.4l0.9,0.2c6.6,0,9.4,2.1,17.2,11
		c1.9,2.1,4.3,4.7,6.8,7.6c-11.8,5.2-24.7,14.7-29.1,27.5l-0.1,0.1l-26.5-28.8c0,0-12.8,2.3-21.9-2.4s-16.6-26,1.2-40.3l0,0
		c6-4.6,16.7,1.4,14,10.2l0,0l17.1,12.6L218.4,105.3z"/>
	<path class="st5" d="M215.3,51.6l0.8-0.1c8.3-1.2,12.5,0.9,14.7,3.6l-0.1,0.1c5.9,18.3-9.7,27.4-21.2,23.5l-0.7,1l-27.6-20.5
		l0.2-0.4c1.5-8.1,5.9-19.6,18.1-21.3C208.2,36.2,213.6,42.6,215.3,51.6z"/>
	<path class="st6" d="M230.8,55.1c3,3.8,2,8.9,2,8.9c2.6-6.6,5.5-13.1,8.8-19.5c4.2-7.9,12-12,16-8.6c7.1,6.3-9.8,14.8-5.7,35.8
		c3.1,16.2,1.8,22.2,1.8,22.2l17.2,18.3l-0.7,0.8c-4.3-0.1-10.9,1.5-18,4.6c-2.6-2.7-5-5.3-6.8-7.6c-7.8-8.9-10.6-11-17.2-11
		l-0.9-0.2c1.2-2.5,1.4-4.7,0.2-5.6c-0.1-0.1-0.2-0.1-0.4-0.2L216,84.8l-7.2-5.3l0.7-1C220.9,82.6,236.6,73.4,230.8,55.1L230.8,55.1
		z"/>
	<path class="st7" d="M83.2,147.9l15.2,11.3l-0.2,0.4c-1.5,8.1-6,19.6-18.1,21.3c-8.7,1.2-14-5-15.7-14.1c-0.5-2.6-0.6-5.3-0.5-7.9
		H64C67.1,173.3,85.6,159.4,83.2,147.9z"/>
	<path class="st7" d="M80.7,126c10.3,0.5,11.7-10.9,1.4-15.6c-1.7-0.8-3.2-1.8-4.6-3L42.8,73.5c5.2-1.1,9.8-1.4,12.5-0.9l0.5-0.5
		L83,101.9c0,0,12.8-2.3,21.9,2.4s16.6,26-1.4,40.3c-0.1,0.1-0.4,0.2-0.5,0.4c-6.1,4-16.7-2.1-13.4-10.4l-9.9-7.3L80.7,126z"/>
	<path class="st8" d="M63.7,158.8L63.7,158.8c-0.2,2.7,0,5.3,0.5,7.9l-0.7,0.1c-19.6,2.9-16.7-12.5-16.7-12.5
		c-2.6,6.6-5.5,13.1-8.8,19.5c-4.3,7.9-12,12-16,8.6c-7.1-6.3,9.8-14.7,5.7-35.8c-3.1-16.2-1.9-22.2-1.9-22.2l-20-21.5l0.2-0.2
		C11.4,85,29.4,76.4,42.8,73.6l34.7,33.8c1.3,1.3,2.9,2.3,4.6,3c10.3,4.7,8.9,15.9-1.4,15.6l-0.9,1.1l-7.3-5.4l-11.4-8.6l-0.1,0.1
		c-1.5-1.1-4.8,0.5-7.3,3.8c-2.4,3.1-3.2,6.6-1.9,7.8c0,0.1,0.1,0.1,0.1,0.1l0,0c0.1,0.1,0.2,0.1,0.4,0.2l11.2,8.3L83.1,148
		C85.6,159.4,67.1,173.3,63.7,158.8z"/>
	<path class="st9" d="M218.4,105.3c-1.5-1.1-0.7-4.7,1.7-8.1c2.4-3,5.2-4.7,6.9-4c0.1,0.1,0.2,0.1,0.4,0.2c1.1,0.9,1,3.1-0.2,5.6
		c-0.4,0.8-0.9,1.6-1.5,2.4C223.2,104.6,220,106.4,218.4,105.3z"/>
	<path class="st9" d="M207.1,96.6c-1.5-1.1-0.8-4.6,1.6-7.7c2.4-3.1,5.4-4.7,6.9-3.6"/>
	<polyline class="st9" points="189.9,84.2 207,96.8 218.4,105.3 218.6,105.5 	"/>
	<path class="st9" d="M227.6,93.6l-0.5-0.4L215.9,85l-7.2-5.3l-27.6-20.4l-0.4-0.4L160.6,44c-0.1-0.1-0.1-0.1-0.2-0.1
		c-0.4-0.3-0.9-0.5-1.4-0.5l-13.3-1.6l4.7,12.3c0.4,0.8,0.9,1.5,1.5,2.1l0.2,0.2l23.2,17.2"/>
	<path class="st9" d="M160.3,44.1c3,3.2,0.4,5.1-1.1,4.7c0,0,5.2,6.2,3.1,7.2s-6.7-2.6-7.1-2.6s-0.2,4.5-3.1,2.7
		c-0.1,0-0.2-0.1-0.4-0.2"/>
	<line class="st9" x1="149" y1="42.7" x2="147.3" y2="44.9"/>
	<path class="st9" d="M194.5,68.6c0.4-2.2,1.9-5.5,1.6-7.4"/>
	<path class="st9" d="M214.7,68.6c1.3-5.6,1.5-11.3,0.6-17c-1.7-9-7.1-15.4-15.7-14.1c-12.1,1.7-16.7,13.3-18.1,21.3"/>
	<path class="st9" d="M276,118.2l-5.2-5.7l-17.2-18.3c0,0,1.2-6.1-1.9-22.2c-4.1-21.1,12.8-29.5,5.7-35.8c-4.1-3.6-11.8,0.5-16,8.6
		c-3.3,6.3-6.2,12.8-8.8,19.5c0,0,1-5.1-2-8.9c-2.2-2.7-6.4-4.8-14.8-3.6"/>
	<path class="st9" d="M225.4,148.1l-2.4-2.7l-26.6-28.9c0,0-12.8,2.3-21.9-2.4s-16.6-26,1.2-40.3l0,0c6-4.6,16.7,1.4,14,10.2l0,0
		c-0.1,0.7-0.4,1.3-0.7,1.9"/>
	<polyline class="st9" points="145.8,41.7 101.8,57.9 105.8,70.8 92,76.4 97.4,94.4 	"/>
	<path class="st9" d="M61.1,113.2c1.5,1.1,0.8,4.7-1.7,7.9s-5.3,4.7-6.9,4c-0.1,0-0.2-0.1-0.4-0.2c-0.1,0-0.1-0.1-0.1-0.1
		c-1.4-1.2-0.5-4.7,1.9-7.8S59.5,112.1,61.1,113.2z"/>
	<path class="st9" d="M72.4,121.9c1.5,1.1,0.7,4.6-1.6,7.7c-2.3,3.1-5.5,4.7-6.9,3.6"/>
	<polyline class="st10" points="60.9,112.9 61.1,113.1 72.5,121.6 80,127.1 89.9,134.4 90.1,134.6 	"/>
	<path class="st9" d="M52,124.8l0.5,0.4l11.2,8.3L83.2,148l15.2,11.3l0.4,0.4l19.3,14.3c0.3,0.2,0.7,0.4,1,0.6
		c0.6,0.4,1.4,0.6,2.1,0.6l12.5,1.6l-4.8-12.3c-0.3-0.8-0.8-1.5-1.5-2.1c-0.1-0.1-0.2-0.2-0.4-0.2L103.9,145"/>
	<path class="st9" d="M119.1,174.3c-3-3.2-0.4-5.1,1.1-4.7c0,0-5.2-6.2-3.1-7.2s6.7,2.6,7.1,2.6s0.2-4.5,3.1-2.7
		c0.1,0,0.2,0.1,0.4,0.2"/>
	<line class="st9" x1="130.5" y1="175.8" x2="132.3" y2="173.4"/>
	<path class="st11" d="M85.1,149.7c-0.4,2.2-1,4.5-0.9,6.4"/>
	<path class="st9" d="M64.9,149.9c-0.7,2.9-1.1,6-1.1,9c-0.1,2.7,0.1,5.3,0.5,7.9c1.8,9.1,7.1,15.4,15.8,14.2
		c12.1-1.7,16.7-13.3,18.1-21.3"/>
	<path class="st9" d="M3.4,100.3l2.3,2.6l20.1,21.4c0,0-1.4,6,1.9,22.2c4.1,21.1-12.8,29.5-5.7,35.8c4.1,3.6,11.8-0.5,16-8.6
		c3.3-6.3,6.2-12.8,8.8-19.4c0,0-2.8,15.4,16.7,12.5"/>
	<path class="st9" d="M54.1,70.3l1.7,2L83,102c0,0,12.8-2.4,21.9,2.3s16.6,26-1.4,40.3c-0.1,0.1-0.4,0.2-0.5,0.4
		c-6.1,4-16.7-2.1-13.4-10.4c0.2-0.6,0.5-1.1,0.9-1.6"/>
	<path class="st9" d="M133.8,176.8l60.4-23.6c0.8-0.3,1.1-1.2,0.9-2l-11.5-33.7"/>
	<line class="st9" x1="92" y1="76.4" x2="101.8" y2="57.9"/>
	<path class="st12" d="M63.7,158.8c3.4,14.5,21.8,0.5,19.3-10.9c0-0.1,0-0.3-0.1-0.4"/>
	<path class="st12" d="M80.7,126c10.3,0.5,11.7-10.9,1.4-15.6c-1.7-0.8-3.2-1.8-4.6-3L42.8,73.5l-4.2-4.1"/>
	<path class="st12" d="M55.4,72.7c-2.8-0.5-7.3-0.2-12.5,0.9c-13.4,2.8-31.3,11.3-36.8,29.1"/>
	<path class="st12" d="M48.4,159.3c5.8,5.7,14.6,1,15.6-7.8"/>
	<path class="st12" d="M209.5,78.6c11.5,4,27.1-5.2,21.2-23.5"/>
	<path class="st12" d="M228.1,99.3c6.6,0,9.4,2.1,17.2,11c1.9,2.1,4.3,4.7,6.8,7.6c8.2,8.8,18.2,18.8,18.2,18.8"/>
	<path class="st12" d="M270,113.2c-4.3-0.1-10.9,1.5-18,4.6c-11.7,5.2-24.6,14.7-29,27.5"/>
</g>
</svg>
