<svg id="Layer_1" data-name="Layer 1" xmlns="http://www.w3.org/2000/svg" viewBox="0 0 232 290"><defs><style>.cls-1{fill:#cffff0;}.cls-2{fill:#7ce5d6;}.cls-3{fill:#ffbbc3;}.cls-4{fill:#fde471;}.cls-5{fill:none;stroke:#330303;stroke-linecap:round;stroke-linejoin:round;stroke-width:3.74px;}</style></defs><title>2-diversity</title><g id="_Group_" data-name="&lt;Group&gt;"><path class="cls-1" d="M169.7,28.9a55.9,55.9,0,1,1-55.9,55.9A55.87,55.87,0,0,1,169.7,28.9Zm11.9,58.8-43.5-8.4a35.21,35.21,0,0,0-2.2,10.9c-.2,7.5,2.5,16.8,16,20.3,13.2,3.4,20.9-3.9,25.1-11.1A40.42,40.42,0,0,0,181.6,87.7Z"/><path class="cls-2" d="M148.1,165.4a41.5,41.5,0,1,1-41.5,41.5A41.53,41.53,0,0,1,148.1,165.4Z"/><path class="cls-3" d="M161.1,95.8h.1l15.7,3.6.1.1c-4.2,7.2-11.9,14.5-25.1,11.1-13.5-3.5-16.3-12.8-16-20.3h.9Z"/><path class="cls-3" d="M89.2,230.8a34.19,34.19,0,0,1,.4,4.5,28.68,28.68,0,1,1-.4-4.5Z"/><circle class="cls-4" cx="50.3" cy="146.9" r="44.6"/><circle class="cls-5" cx="50.3" cy="146.9" r="44.6"/><path class="cls-5" d="M89.5,235.3a28,28,0,1,1-.3-4.5A31.86,31.86,0,0,1,89.5,235.3Z"/><path class="cls-5" d="M189.6,206.9a41.5,41.5,0,1,1-41.5-41.5A41.53,41.53,0,0,1,189.6,206.9Z"/><path class="cls-5" d="M225.7,84.8a55.9,55.9,0,1,1-55.9-55.9A55.87,55.87,0,0,1,225.7,84.8Z"/><path class="cls-5" d="M41.3,144.2c3.6-9.9,17.6-10.8,16.2,1.8"/><path class="cls-5" d="M73.7,146.9c2.3-6.3,10.8-7.7,11.7,1.4"/><path class="cls-5" d="M48.9,165.4c5,6.8,19.4,8.1,23.9,0"/><line class="cls-5" x1="54.4" y1="231.2" x2="65.2" y2="231.2"/><polyline class="cls-5" points="81.4 230.8 89.2 230.8 92.7 230.8"/><line class="cls-5" x1="59.8" y1="245.2" x2="78.2" y2="245.2"/><path class="cls-5" d="M134.1,196.5l14,5-14,7.2"/><polyline class="cls-5" points="178.8 196.9 167 202.4 179.2 205.9"/><path class="cls-5" d="M135.9,90.2a35.21,35.21,0,0,1,2.2-10.9l43.5,8.4A40.42,40.42,0,0,1,177,99.4c-4.2,7.2-11.9,14.5-25.1,11.1C138.4,107,135.7,97.7,135.9,90.2Z"/><line class="cls-5" x1="161.1" y1="95.8" x2="136.9" y2="90.2"/><line class="cls-5" x1="176.9" y1="99.3" x2="161.2" y2="95.8"/><path class="cls-5" d="M161.2,95.8h-.1c-12.3-1.3-19.3,8.1-19.3,8.1"/><path class="cls-5" d="M183.6,73.1c2.5-12.4,19.8-9.9,18.3,3.9"/><path class="cls-5" d="M135.6,61.5c2.5-12.4,19.8-9.9,18.3,3.9"/><path class="cls-5" d="M146.3,222.6c6.3-4.5,16.7-6.3,23.4-.9"/></g></svg>