<svg id="Layer_1" data-name="Layer 1" xmlns="http://www.w3.org/2000/svg" viewBox="0 0 232 290"><defs><style>.cls-1{fill:#cffff0;}.cls-2{fill:#7ce5d6;}.cls-3{fill:#ffbbc3;}.cls-4{fill:#fde471;}.cls-5{fill:none;stroke:#330303;stroke-linecap:round;stroke-linejoin:round;stroke-width:3.74px;}</style></defs><title>2-diversity</title><g id="_Group_" data-name="&lt;Group&gt;"><path class="cls-1" d="M167.38,32.9a50.24,50.24,0,1,1-50.24,50.23A50.21,50.21,0,0,1,167.38,32.9Zm10.69,52.84L139,78.19a31.58,31.58,0,0,0-2,9.8c-.18,6.74,2.25,15.09,14.38,18.24,11.86,3,18.78-3.51,22.56-10A36.4,36.4,0,0,0,178.07,85.74Z"/><path class="cls-2" d="M148,155.56a37.3,37.3,0,1,1-37.3,37.3A37.32,37.32,0,0,1,148,155.56Z"/><path class="cls-3" d="M159.65,93h.09l14.11,3.23.09.09c-3.78,6.47-10.7,13-22.56,10-12.13-3.15-14.65-11.5-14.38-18.24h.81Z"/><path class="cls-3" d="M95,214.33a30.77,30.77,0,0,1,.36,4,25.77,25.77,0,1,1-.36-4Z"/><circle class="cls-4" cx="60.08" cy="138.94" r="40.08"/><circle class="cls-5" cx="60.08" cy="138.94" r="40.08"/><path class="cls-5" d="M95.31,218.38a25.17,25.17,0,1,1-.27-4A28.68,28.68,0,0,1,95.31,218.38Z"/><path class="cls-5" d="M185.26,192.86A37.3,37.3,0,1,1,148,155.56,37.32,37.32,0,0,1,185.26,192.86Z"/><path class="cls-5" d="M217.7,83.13A50.24,50.24,0,1,1,167.47,32.9,50.21,50.21,0,0,1,217.7,83.13Z"/><path class="cls-5" d="M52,136.51c3.24-8.89,15.82-9.7,14.56,1.62"/><path class="cls-5" d="M81.11,138.94c2.06-5.66,9.7-6.92,10.51,1.26"/><path class="cls-5" d="M58.82,155.56c4.49,6.11,17.43,7.28,21.48,0"/><line class="cls-5" x1="63.76" y1="214.69" x2="73.47" y2="214.69"/><polyline class="cls-5" points="88.03 214.34 95.04 214.34 98.18 214.34"/><line class="cls-5" x1="68.62" y1="227.28" x2="85.15" y2="227.28"/><path class="cls-5" d="M135.38,183.51,148,188l-12.59,6.47"/><polyline class="cls-5" points="175.55 183.87 164.95 188.81 175.91 191.96"/><path class="cls-5" d="M137,88a31.58,31.58,0,0,1,2-9.8l39.09,7.55a36.4,36.4,0,0,1-4.13,10.51c-3.78,6.47-10.7,13-22.56,10C139.25,103.08,136.82,94.73,137,88Z"/><line class="cls-5" x1="159.65" y1="93.02" x2="137.9" y2="87.99"/><line class="cls-5" x1="173.85" y1="96.16" x2="159.74" y2="93.02"/><path class="cls-5" d="M159.74,93h-.09c-11.06-1.17-17.35,7.28-17.35,7.28"/><path class="cls-5" d="M179.87,72.62c2.24-11.14,17.79-8.9,16.44,3.5"/><path class="cls-5" d="M136.73,62.2c2.25-11.15,17.8-8.9,16.45,3.5"/><path class="cls-5" d="M146.35,207c5.66-4.05,15-5.67,21-.81"/></g></svg>