<?xml version="1.0" encoding="utf-8"?>
<!-- Generator: Adobe Illustrator 22.0.0, SVG Export Plug-In . SVG Version: 6.00 Build 0)  -->
<svg version="1.1" id="Layer_1" xmlns="http://www.w3.org/2000/svg" xmlns:xlink="http://www.w3.org/1999/xlink" x="0px" y="0px"
	 viewBox="0 0 232 173.7" style="enable-background:new 0 0 232 173.7;" xml:space="preserve">
<style type="text/css">
	.st0{fill:#FFFFFF;}
	.st1{fill:#FDE471;}
	.st2{fill:#FFBBC3;}
	.st3{fill:#7CE5D6;}
	.st4{fill:none;stroke:#330303;stroke-width:3.74;stroke-linecap:round;stroke-linejoin:round;}
	.st5{fill:none;}
	.st6{fill:#FFD7DD;}
	.st7{fill:#FFF8EE;}
	.st8{fill:#FBBC7A;}
</style>
<title>2-diversity</title>
<g id="_Group_">
	<path class="st0" d="M154.9,72.5c6.1,29,21.7,67.4,21.7,67.4c-6.3,0.5-12.5,1.5-18.6,3c-33.3,7.9-75.3,27.7-75.3,27.7
		C72,141,64.2,114.9,59,95c-6.9-26-9.6-41.7-9.6-41.7c32.9-8.5,76.4-26,94.9-37.7C143.6,15.8,148.7,43.4,154.9,72.5z M140,105.9
		l-7.4-19.1l-20.1,7.4l6.9,19.1L140,105.9z M110.8,131.9c0.3-7-5.2-12.9-12.2-13.2s-12.9,5.2-13.2,12.2c-0.3,7,5.2,12.9,12.2,13.2
		c0.2,0,0.3,0,0.5,0C105,144.2,110.7,138.8,110.8,131.9L110.8,131.9z M95.5,86.3l-17-21.7l-2.6,29.7L95.5,86.3z"/>
	<polygon class="st1" points="78.5,64.6 95.5,86.3 75.8,94.2 	"/>
	<polygon class="st2" points="132.6,86.8 140,105.9 119.3,113.3 112.4,94.2 	"/>
	<ellipse class="st3" cx="98.1" cy="131.9" rx="12.7" ry="12.2"/>
	<path class="st4" d="M158,142.9c6.1-1.5,12.3-2.5,18.6-3c0,0-15.6-38.4-21.7-67.4s-11.3-56.7-10.6-56.8
		c-18.6,11.7-62.1,29.2-94.9,37.7c0,0,2.7,15.6,9.6,41.7c5.3,19.9,13,45.9,23.8,75.5C82.8,170.6,124.7,150.7,158,142.9z"/>
	<polygon class="st4" points="78.5,64.6 75.8,94.2 95.5,86.3 	"/>
	<polygon class="st4" points="112.4,94.2 132.6,86.8 140,105.9 119.3,113.3 	"/>
	<ellipse class="st4" cx="98.1" cy="131.9" rx="12.7" ry="12.2"/>
	<path class="st4" d="M121,69.9c0.2,0.6,0.1-0.1,0.3,0.4"/>
	<path class="st4" d="M111.4,52.9c-1.6-4.3,4.6-12.4,11.2-8.2c6.1,3.9,1.2,10.5-2.3,13.5c-2,1.8-1.5,4.8-0.9,7.3"/>
	<polyline class="st5" points="58.2,95.3 33.8,106.3 69.8,214.1 168.5,174.8 158.2,143.7 	"/>
</g>
<g id="_Group_2">
	<path class="st2" d="M195.1,9.5c3,1.7,5.6,2.5,5.9,1.9l0.1,0.1L194.3,23l-0.3-0.1c-0.4,0.6-2.9-0.1-5.9-1.8L195.1,9.5z"/>
	<path class="st6" d="M195.2,5.8c3.8,2.3,6.4,4.8,5.9,5.6c-0.4,0.6-2.9-0.2-5.9-1.9c-0.5-0.3-1.1-0.6-1.6-1
		c-3.7-2.3-6.4-4.8-5.9-5.5S191.5,3.5,195.2,5.8z"/>
	<path class="st6" d="M195.1,9.5L188.1,21c-0.6-0.3-1.2-0.7-1.8-1c-3.2-2-5.6-4.1-5.9-5.1L187.6,3c-0.4,0.7,2.2,3.2,5.9,5.5
		C194.1,8.9,194.6,9.2,195.1,9.5z"/>
	<path class="st7" d="M147,71.2c2.8-3.1,5.2-0.6,5.1,0.9c0,0,5.6-5.4,6.9-3.3s-1.6,6.8-1.6,7.1s5,0.1,3.2,3.3l0,0l-0.4,0.6
		l-13.4,5.8l-0.4-14l0.3-0.5L147,71.2z"/>
	<path class="st1" d="M146.8,71.1l33.7-56.2c0.3,1,2.7,3.2,5.9,5.1c0.6,0.4,1.2,0.7,1.8,1L159,68.9c-1.3-2-6.9,3.3-6.9,3.3
		c0.1-1.5-2.2-4-5.1-0.9L146.8,71.1z"/>
	<path class="st8" d="M188.2,21c3,1.6,5.4,2.4,5.9,1.8l0.3,0.1l-33.8,56.3c1.8-3.2-3.2-2.9-3.2-3.3s2.9-5,1.6-7.1L188.2,21z"/>
	<path class="st4" d="M201.1,11.4c-0.4,0.6-2.9-0.2-5.9-1.9c-0.6-0.3-1.1-0.6-1.6-1c-3.8-2.3-6.4-4.8-5.9-5.5s3.8,0.5,7.6,2.8
		S201.6,10.6,201.1,11.4z"/>
	<path class="st4" d="M194,22.8c-0.4,0.6-2.9-0.1-5.9-1.8c-0.6-0.3-1.2-0.7-1.8-1c-3.2-2-5.6-4.1-5.9-5.1c-0.1-0.1-0.1-0.3,0-0.4"/>
	<polyline class="st4" points="160.6,79.2 194.3,23 201.2,11.4 201.2,11.4 	"/>
	<polyline class="st4" points="187.6,3 180.5,14.9 146.8,71.1 146.5,71.6 146.9,85.6 160.2,79.8 160.6,79.2 	"/>
	<path class="st4" d="M147,71.2c2.8-3.1,5.2-0.6,5.1,0.9c0,0,5.6-5.4,6.9-3.3s-1.6,6.8-1.6,7.1s5,0.1,3.2,3.3l0,0"/>
	<line class="st4" x1="147.4" y1="82.5" x2="150" y2="84.1"/>
	<polyline class="st5" points="195.7,8.7 195.1,9.5 188.2,21 159,68.8 	"/>
</g>
</svg>
