<svg id="Layer_1" data-name="Layer 1" xmlns="http://www.w3.org/2000/svg" viewBox="0 0 232 201.56"><defs><style>.cls-1{fill:#fff8ee;}.cls-2{fill:#b58879;}.cls-3{fill:#ddac99;}.cls-4{fill:#ffa1a8;}.cls-5{fill:#ffbbc3;}.cls-6{fill:#dcf1f6;}.cls-7{fill:#f2fafc;}.cls-8{fill:#7ce5d6;}.cls-9{fill:#adebda;}.cls-10,.cls-11{fill:none;}.cls-10{stroke:#330303;stroke-linecap:round;stroke-linejoin:round;stroke-width:3.74px;}</style></defs><title>2-diversity</title><g id="_Group_" data-name="&lt;Group&gt;"><path class="cls-1" d="M144.7,5.38l8.7,35.7a4.88,4.88,0,0,1-.1,1.7c-3.5,8.5-9.2-3.6-9.2-3.6s-6.2,20-13.6,19.3a3.67,3.67,0,0,1-2-.9c-4.7-4.3-1.7-22.6-1.7-22.6s-8.4,8.9-11.6,9.2-7.7-.3-4.7-13.8l-.3-.2a7.31,7.31,0,0,1,1.4-1.6l28.8-24.8A2.55,2.55,0,0,1,144.7,5.38Z"/><path class="cls-2" d="M121.4,98.28c14.2,3.3,33.6-14.5,16.8-24.4l.1-.5a18.71,18.71,0,0,1,4.4,1.4l.6.3c15,7.6,4.9,26.9,8.9,30.8,2.3,2.3,15.8,4.5,29.8,2.9-1.5,4.2-6.5,4.5-9.6,16.9s-2.2,18.8-2.2,18.8c-15.7-1.2-29.9-5.7-30.4-4.8-1,1.5-7.9,13.9-21.5,10.7l-.2-.1,17.3-52.7-.3-.6a20.49,20.49,0,0,1-13.7,1.5Z"/><path class="cls-2" d="M94.8,86.18c6.1,3.1,9.8,7.3,11.5,11.4,1.6,3.9,1.3,7.6-.5,10.4-3.6,5.6-11.3,6.1-19.8,2.6a39.82,39.82,0,0,1-6.2-3.1l.3-.6c17.8,5.9,27-8.9,14.5-20.4Z"/><path class="cls-2" d="M90.9,119.58a8.74,8.74,0,0,1,.3,12.7c-3,3.1-8.5,4.3-14.8.3a6.07,6.07,0,0,1-1-.7c-.7-.5-1.4-1-2.1-1.6,10.9,4.9,17.5-6.2,13.8-14.2l.3-.2A35.78,35.78,0,0,0,90.9,119.58Z"/><path class="cls-2" d="M73.3,130.28c.7.6,1.4,1.1,2.1,1.6l-.3.4s-16.3,9.1-31,4.4c-5.3-1.7-8.2-4.1-9.6-6.6l1.1-.1c6.6,6.6,23.4,3.6,32.9-4l.3-.2A38.18,38.18,0,0,0,73.3,130.28Z"/><path class="cls-3" d="M114.5,91.58c-.8-4.5,2.4-10.1,7.6-14a21,21,0,0,1,16.2-4.2l-.1.5c16.8,9.9-2.6,27.7-16.8,24.4l-.1.2a9.18,9.18,0,0,1-6.5-5.9A6.21,6.21,0,0,1,114.5,91.58Z"/><path class="cls-3" d="M68.9,125.78l-.3.2c-9.6,7.6-26.4,10.5-32.9,4l-1.1.1c-3-5.7,2.2-11.9,7.7-11.3,8.1.8,14,6.8,21.9,3L66,121A24.55,24.55,0,0,0,68.9,125.78Z"/><path class="cls-3" d="M85.8,111.28s-1.2,1,1.6,4.5l-.3.2c3.6,7.9-3,19.1-13.8,14.2a29.78,29.78,0,0,1-4.3-4.5,20.47,20.47,0,0,1-2.9-4.8c-4.1-9.3.9-17.5,6.2-18l.8-.5a13.73,13.73,0,0,0,2.2,2c1.5,1.1,3.1,2.1,4.6,3a51.18,51.18,0,0,0,6.2,3.1Z"/><path class="cls-3" d="M91.9,84.78c1,.4,2,.9,2.9,1.3l-.1.3c12.5,11.6,3.3,26.4-14.5,20.5l-.3.6c-1.5-.9-3.1-1.9-4.6-3a13.73,13.73,0,0,1-2.2-2C64.3,93,65,71.38,95.7,71.38l.6.2L92,84.38Z"/><path class="cls-4" d="M100.7,179.68c7.9-2.1,13.9-5.9,16.1-9.9l1.6.1c6.9-1.5,13.3-2.7,16.1,2.2s4.9,22.2-3,26.2v.3H110.8v-.4c13.7-9.1,2.9-22.1-10.1-18.3Z"/><path class="cls-5" d="M96.1,180.68c1.6-.3,3.1-.6,4.6-1l.1.2c13-3.8,23.7,9.2,10.1,18.3v.4H75.5c-22,0-17.1-21.3-15.3-23.3l1.4-1.3c5.5,4.3,16.3,7.7,28.5,7.2A40.47,40.47,0,0,0,96.1,180.68Z"/><path class="cls-6" d="M100.7,179.68c-1.5.4-3,.7-4.6,1l-.1-.6c1.5-5.4-2.6-7.7-4.7-8.5,8.7,0,17.5-2.6,23.1-10.2,3.5,2.5,4.1,5.5,2.4,8.5C114.6,173.78,108.6,177.58,100.7,179.68Z"/><path class="cls-7" d="M65.6,161.18c1.7,4.9,13.5,10.3,25.7,10.4,2.1.8,6.2,3.1,4.7,8.5l.1.6a60,60,0,0,1-6.1.6c-12.2.5-23-2.9-28.5-7.2a11.2,11.2,0,0,1-3.6-4.1c-3.2-7.4,3.4-14.8,9.9-16.1l1.4.5-2.2,6.4Z"/><path class="cls-8" d="M142.9,74.28l-.3.5a18.71,18.71,0,0,0-4.4-1.4,21,21,0,0,0-16.2,4.2l-.3-.6,6.6-19.2.3-.3a3.37,3.37,0,0,0,2,.9c7.4.8,13.6-19.3,13.6-19.3s5.7,12,9.2,3.6c0,.1-.1.3-.1.4Z"/><path class="cls-8" d="M135.3,97.68,118,150.28l-3.6,11c-5.5,7.6-14.4,10.3-23.1,10.2a6.74,6.74,0,0,0-1.2-.4l9.1-27c5.1-12.2-6.7-12-8-11.9a8.66,8.66,0,0,0-.3-12.7,35.78,35.78,0,0,1-3.5-3.7c-2.8-3.6-1.6-4.5-1.6-4.5l.3-.8c8.5,3.4,16.2,2.9,19.8-2.6,1.8-2.7,2-6.5.5-10.4l.7-.3c4.7,4.9,7.4-.1,7.5-5.6.1.4.2.8.3,1.1a9.38,9.38,0,0,0,6.5,5.9,20.49,20.49,0,0,0,13.7-1.5Z"/><path class="cls-9" d="M91.1,132.28c1.3-.1,13.1-.2,8,11.9l-9.1,27a6.74,6.74,0,0,1,1.2.4c-12.2-.1-24-5.5-25.7-10.4l1.5-.4,2.1-6.5,7.1-21.5.1-.2C82.7,136.48,88.1,135.28,91.1,132.28Z"/><path class="cls-9" d="M110.5,30.28c-3,13.6,1.5,14.1,4.7,13.8s11.6-9.2,11.6-9.2-3,18.3,1.7,22.6l-.2.3L121.8,77l.3.6c-5.2,3.9-8.4,9.5-7.6,14-.1,5.6-2.8,10.6-7.5,5.6l-.7.3c-1.7-4.1-5.4-8.2-11.5-11.4a25.5,25.5,0,0,0-2.9-1.3l.2-.4,4.3-12.9,13.1-39.7a13,13,0,0,1,.8-1.7Z"/><path class="cls-10" d="M95.7,71.28c-30.7,0-31.4,21.6-22.6,31.1a13.73,13.73,0,0,0,2.2,2c1.5,1.1,3.1,2.1,4.6,3a51.18,51.18,0,0,0,6.2,3.1c8.5,3.4,16.2,2.9,19.8-2.6,1.8-2.7,2-6.5.5-10.4-1.7-4.1-5.4-8.2-11.5-11.4a25.5,25.5,0,0,0-2.9-1.3c-1.5-.6-3.1-1.2-4.8-1.7"/><path class="cls-10" d="M72.3,102.88c-5.3.5-10.3,8.7-6.2,18a20.47,20.47,0,0,0,2.9,4.8,35.73,35.73,0,0,0,4.3,4.5c.7.6,1.4,1.1,2.1,1.6.3.2.7.5,1,.7,6.4,4,11.8,2.8,14.8-.3a8.66,8.66,0,0,0-.3-12.7,35.78,35.78,0,0,1-3.5-3.7c-2.8-3.6-1.6-4.5-1.6-4.5"/><path class="cls-10" d="M64.2,121.68c-7.9,3.8-13.8-2.1-21.9-3-5.6-.6-10.7,5.7-7.7,11.3,1.3,2.5,4.3,5,9.6,6.6,14.7,4.6,31-4.4,31-4.4"/><path class="cls-10" d="M140.6,92.58a13.8,13.8,0,0,1-5.7,4.5,20.49,20.49,0,0,1-13.7,1.5,9.18,9.18,0,0,1-6.5-5.9c-.1-.4-.2-.7-.3-1.1-.8-4.5,2.4-10.1,7.6-14a21,21,0,0,1,16.2-4.2,18.71,18.71,0,0,1,4.4,1.4l.6.3c15,7.6,4.9,26.9,8.9,30.8,2.3,2.3,15.8,4.5,29.8,2.9"/><path class="cls-10" d="M118.2,150.38c13.6,3.2,20.5-9.2,21.5-10.7.6-.9,14.8,3.7,30.4,4.8,3.3.2,6.8.4,10,.5"/><path class="cls-10" d="M110.5,30.28c-3,13.6,1.5,14.1,4.7,13.8s11.6-9.2,11.6-9.2-3,18.3,1.7,22.6a3.37,3.37,0,0,0,2,.9c7.4.8,13.6-19.3,13.6-19.3s5.7,12,9.2,3.6a1.42,1.42,0,0,0,.2-.6"/><path class="cls-10" d="M137.5,7c1.2,2.2,5.2,3.3,7.9,2.3"/><polyline class="cls-10" points="76.2 132.78 69.1 154.28 67 160.78"/><path class="cls-10" d="M142.9,74.28l10.2-31.1c0-.1.1-.3.1-.4a4.88,4.88,0,0,0,.1-1.7l-8.7-35.7a2.64,2.64,0,0,0-4.3-1.7l-28.7,24.8a7,7,0,0,0-1.4,1.6,8.86,8.86,0,0,0-.8,1.7L96.3,71.48,92,84.38"/><path class="cls-10" d="M65.5,160.78c0,.1.1.3.1.4,1.7,4.9,13.5,10.3,25.7,10.4,8.7,0,17.5-2.6,23.1-10.2l3.6-11,17.3-52.7"/><path class="cls-10" d="M67.7,153.88c-6.4,1.2-13.1,8.6-9.9,16.1a10.34,10.34,0,0,0,3.6,4.1c5.5,4.3,16.3,7.7,28.5,7.2a57.3,57.3,0,0,0,6.1-.6c1.6-.3,3.1-.6,4.6-1,7.9-2.1,13.9-5.9,16.1-9.9,1.6-3,1.1-6-2.4-8.5"/><line class="cls-10" x1="174.8" y1="198.58" x2="179.1" y2="198.58"/><path class="cls-10" d="M60.1,175.28c-1.7,2-6.7,23.3,15.3,23.3h92.2"/><path class="cls-10" d="M118.4,169.88c6.9-1.5,13.3-2.7,16.1,2.2s4.9,22.2-3,26.2"/><path class="cls-11" d="M96,180.08c1.5-5.4-2.6-7.7-4.7-8.5a6.74,6.74,0,0,0-1.2-.4l9.1-27c5.1-12.2-6.7-12-8-11.9h-.1"/><line class="cls-11" x1="128.3" y1="57.78" x2="121.8" y2="76.98"/><path class="cls-11" d="M100.3,180.08a.9.9,0,0,1,.5-.1c13-3.8,23.7,9.2,10.1,18.3"/><path class="cls-11" d="M94.7,86.48c12.5,11.5,3.3,26.3-14.5,20.4"/><path class="cls-11" d="M87.1,116.08c3.6,7.9-3,19.1-13.8,14.2"/><path class="cls-11" d="M68.6,126c-9.6,7.6-26.4,10.5-32.9,4"/><path class="cls-11" d="M121.4,98.28c14.2,3.3,33.6-14.5,16.8-24.4"/><path class="cls-11" d="M183.7,104.88a18,18,0,0,0-1.7,3.9c-2.8,7.6-8.3,24.7-11.9,35.7-1.9,6-3.2,10.2-3.2,10.2"/><path class="cls-11" d="M107,97.18c4.7,4.9,7.4-.1,7.5-5.6a10.87,10.87,0,0,0-.1-1.8"/></g><polyline class="cls-10" points="145.4 9.28 140.2 5.98 142.1 7.98 142.5 4.08"/></svg>