<svg id="Layer_1" data-name="Layer 1" xmlns="http://www.w3.org/2000/svg" viewBox="0 0 232 290"><defs><style>.cls-1{fill:#ffa1a8;}.cls-2{fill:#ffd071;}.cls-3{fill:#fff8ee;}.cls-4{fill:#adebda;}.cls-5{fill:#ddac99;}.cls-6{fill:#b58879;}.cls-7{fill:#ffd0ac;}.cls-8{fill:#ffebd2;}.cls-10,.cls-11,.cls-12,.cls-9{fill:none;}.cls-10,.cls-11,.cls-9{stroke:#330303;stroke-linejoin:round;}.cls-11,.cls-9{stroke-linecap:round;}.cls-10,.cls-9{stroke-width:3.74px;}.cls-11{stroke-width:1.56px;}</style></defs><title>2-diversity</title><g id="_Group_" data-name="&lt;Group&gt;"><path class="cls-1" d="M52.3,148.2c1.2.9.6,3.8-1.4,6.4s-4.3,3.8-5.6,3.2l-.4-.3c-1.1-1-.4-3.8,1.5-6.3S51,147.3,52.3,148.2Z"/><path class="cls-1" d="M52.3,148.1l9.2,6.8-.1.2c1.2.9.6,3.7-1.3,6.2s-4.4,3.8-5.6,2.9l-.2.3-9-6.7c1.3.6,3.7-.7,5.6-3.2s2.6-5.5,1.4-6.5Z"/><path class="cls-2" d="M86.8,173.7l18.7,13.9c.1.1.2.1.3.2-2.3-1.4-2.2,2.2-2.5,2.2s-4-2.9-5.7-2.1,2.5,5.8,2.5,5.8c-1.2-.3-3.3,1.2-.9,3.8l-.1.1a3.51,3.51,0,0,1-.8-.5L82.7,185.5l-.3-.3-12.3-9.1L54.3,164.5l.2-.3c1.2.9,3.7-.4,5.6-2.9s2.5-5.3,1.3-6.2l.1-.2,5.9,4.4,8,5.9c-2.7,6.7,5.9,11.6,10.8,8.4l.6.1Z"/><path class="cls-3" d="M103.3,190.1c.3,0,.2-3.6,2.5-2.2a4.34,4.34,0,0,1,1.2,1.7l3.9,9.9-10.1-1.3a8.45,8.45,0,0,1-1.7-.5l.1-.1c-2.4-2.6-.3-4.1.9-3.8,0,0-4.2-5-2.5-5.8S103,190,103.3,190.1Z"/><path class="cls-1" d="M186.2,132.1c.1.1.2.1.3.2.9.7.8,2.5-.2,4.5a10,10,0,0,1-1.2,1.9c-2,2.6-4.6,4-5.9,3.1s-.6-3.8,1.4-6.5C182.5,132.9,184.9,131.5,186.2,132.1Z"/><path class="cls-1" d="M180.6,135.3c-2,2.6-2.6,5.5-1.4,6.5l-.1.1-9.2-6.8.1-.2c-1.2-.9-.6-3.7,1.3-6.2s4.4-3.8,5.6-2.9l.2-.3,9,6.6C184.9,131.5,182.5,132.9,180.6,135.3Z"/><path class="cls-4" d="M171.4,121.1l5.8,4.3-.2.3c-1.2-.9-3.7.4-5.6,2.9s-2.5,5.3-1.3,6.2l-.1.2-13.8-10.2h0c2.2-7.2-6.6-11.9-11.3-8.2l-.2-.3L126,102.4c-.1-.1-.2-.1-.2-.2,2.3,1.4,2.2-2.3,2.5-2.2s4,2.9,5.7,2.1-2.5-5.8-2.5-5.8c1.2.3,3.3-1.2.9-3.8l.1-.2c.1,0,.1.1.2.1l16.2,12,.3.3Z"/><path class="cls-5" d="M179.2,141.8h0c1.3.9,3.9-.5,5.9-3.1a10,10,0,0,0,1.2-1.9l.7.2c5.3,0,7.6,1.7,13.9,8.9,1.5,1.7,3.5,3.8,5.5,6.1-9.5,4.2-19.9,11.9-23.5,22.2l-.1.1L161.4,151s-10.3,1.9-17.7-1.9-13.4-21,1-32.5h0c4.8-3.7,13.5,1.1,11.3,8.2h0L169.8,135Z"/><path class="cls-5" d="M176.7,98.5l.6-.1c6.7-1,10.1.7,11.9,2.9l-.1.1c4.8,14.8-7.8,22.1-17.1,19l-.6.8-22.3-16.5.2-.3c1.2-6.5,4.8-15.8,14.6-17.2C171,86.1,175.3,91.2,176.7,98.5Z"/><path class="cls-6" d="M189.2,101.3a9.85,9.85,0,0,1,1.6,7.2,161.93,161.93,0,0,1,7.1-15.7c3.4-6.4,9.7-9.7,12.9-6.9,5.7,5.1-7.9,11.9-4.6,28.9,2.5,13.1,1.5,17.9,1.5,17.9l13.9,14.8-.6.6c-3.5-.1-8.8,1.2-14.5,3.7-2.1-2.2-4-4.3-5.5-6.1-6.3-7.2-8.6-8.9-13.9-8.9l-.7-.2c1-2,1.1-3.8.2-4.5-.1-.1-.2-.1-.3-.2l-9-6.6-5.8-4.3.6-.8c9.2,3.3,21.8-4.1,17.1-18.9Z"/><path class="cls-7" d="M70.1,176.2l12.3,9.1-.2.3c-1.2,6.5-4.8,15.8-14.6,17.2-7,1-11.3-4-12.7-11.4a26.88,26.88,0,0,1-.4-6.4h.1C57.1,196.7,72,185.5,70.1,176.2Z"/><path class="cls-7" d="M68.1,158.5c8.3.4,9.4-8.8,1.1-12.6a14.67,14.67,0,0,1-3.7-2.4l-28-27.3a29,29,0,0,1,10.1-.7l.4-.4,21.9,24s10.3-1.9,17.7,1.9,13.4,21-1.1,32.5c-.1.1-.3.2-.4.3-4.9,3.2-13.5-1.7-10.8-8.4l-8-5.9Z"/><path class="cls-8" d="M54.4,185h0a22.29,22.29,0,0,0,.4,6.4l-.6.1c-15.8,2.3-13.5-10.1-13.5-10.1a161.93,161.93,0,0,1-7.1,15.7c-3.5,6.4-9.7,9.7-12.9,6.9-5.7-5.1,7.9-11.9,4.6-28.9-2.5-13.1-1.5-17.9-1.5-17.9L7.6,139.9l.2-.2c4.4-14.3,18.9-21.2,29.7-23.5l28,27.3a13.09,13.09,0,0,0,3.7,2.4c8.3,3.8,7.2,12.9-1.1,12.6l-.7.9L61.5,155l-9.2-6.9-.1.1c-1.2-.9-3.9.4-5.9,3.1-1.9,2.5-2.6,5.3-1.5,6.3a.1.1,0,0,0,.1.1c.1.1.2.1.3.2l9,6.7L70,176.3C72,185.5,57.1,196.7,54.4,185Z"/><path class="cls-9" d="M179.2,141.8c-1.2-.9-.6-3.8,1.4-6.5,1.9-2.4,4.2-3.8,5.6-3.2.1.1.2.1.3.2.9.7.8,2.5-.2,4.5a10,10,0,0,1-1.2,1.9C183.1,141.3,180.5,142.7,179.2,141.8Z"/><path class="cls-9" d="M170.1,134.8c-1.2-.9-.6-3.7,1.3-6.2s4.4-3.8,5.6-2.9"/><polyline class="cls-9" points="156.2 124.8 170 135 179.2 141.8 179.4 142"/><path class="cls-9" d="M186.6,132.4l-.4-.3-9-6.6-5.8-4.3-22.3-16.5-.3-.3-16.2-12c-.1-.1-.1-.1-.2-.1a2.1,2.1,0,0,0-1.1-.4l-10.7-1.3,3.8,9.9a5.23,5.23,0,0,0,1.2,1.7l.2.2,18.7,13.9"/><path class="cls-9" d="M132.3,92.4c2.4,2.6.3,4.1-.9,3.8,0,0,4.2,5,2.5,5.8s-5.4-2.1-5.7-2.1-.2,3.6-2.5,2.2c-.1,0-.2-.1-.3-.2"/><line class="cls-9" x1="123.2" y1="91.3" x2="121.8" y2="93.1"/><path class="cls-9" d="M159.9,112.2c.3-1.8,1.5-4.4,1.3-6"/><path class="cls-9" d="M176.2,112.2a35.6,35.6,0,0,0,.5-13.7c-1.4-7.3-5.7-12.4-12.7-11.4-9.8,1.4-13.5,10.7-14.6,17.2"/><path class="cls-9" d="M225.7,152.2l-4.2-4.6-13.9-14.8s1-4.9-1.5-17.9c-3.3-17,10.3-23.8,4.6-28.9-3.3-2.9-9.5.4-12.9,6.9a161.93,161.93,0,0,0-7.1,15.7,9.85,9.85,0,0,0-1.6-7.2c-1.8-2.2-5.2-3.9-11.9-2.9"/><path class="cls-9" d="M184.9,176.4l-2-2.2-21.4-23.3s-10.3,1.9-17.7-1.9-13.4-21,1-32.5h0c4.8-3.7,13.5,1.1,11.3,8.2h0a4.71,4.71,0,0,1-.6,1.5"/><polyline class="cls-9" points="120.6 90.5 85.1 103.6 88.3 114 77.2 118.5 81.6 133"/><path class="cls-9" d="M52.3,148.2c1.2.9.6,3.8-1.4,6.4s-4.3,3.8-5.6,3.2c-.1,0-.2-.1-.3-.2a.1.1,0,0,1-.1-.1c-1.1-1-.4-3.8,1.5-6.3S51,147.3,52.3,148.2Z"/><path class="cls-9" d="M61.4,155.2c1.2.9.6,3.7-1.3,6.2s-4.4,3.8-5.6,2.9"/><polyline class="cls-10" points="52.1 148 52.3 148.1 61.5 155 67.5 159.4 75.5 165.3 75.7 165.5"/><path class="cls-9" d="M44.9,157.6l.4.3,9,6.7,15.8,11.7,12.3,9.1.3.3,15.6,11.6a5.58,5.58,0,0,0,.8.5,3.37,3.37,0,0,0,1.7.5l10.1,1.3-3.9-9.9a4.82,4.82,0,0,0-1.2-1.7c-.1-.1-.2-.2-.3-.2L86.8,173.9"/><path class="cls-9" d="M99.1,197.5c-2.4-2.6-.3-4.1.9-3.8,0,0-4.2-5-2.5-5.8s5.4,2.1,5.7,2.1.2-3.6,2.5-2.2c.1,0,.2.1.3.2"/><line class="cls-9" x1="108.3" y1="198.7" x2="109.7" y2="196.8"/><path class="cls-11" d="M71.6,177.7a24.86,24.86,0,0,0-.7,5.2"/><path class="cls-9" d="M55.3,177.8a31,31,0,0,0-.9,7.3,32.84,32.84,0,0,0,.4,6.4c1.4,7.3,5.7,12.4,12.7,11.4,9.8-1.4,13.5-10.7,14.6-17.2"/><path class="cls-9" d="M5.7,137.8l1.9,2.1,16.2,17.3s-1.1,4.8,1.5,17.9c3.3,17-10.3,23.8-4.6,28.9,3.3,2.9,9.5-.4,12.9-6.9a161.93,161.93,0,0,0,7.1-15.7s-2.3,12.4,13.5,10.1"/><path class="cls-9" d="M46.6,113.6l1.4,1.6,21.9,24s10.3-1.9,17.7,1.9,13.4,21-1.1,32.5c-.1.1-.3.2-.4.3-4.9,3.2-13.5-1.7-10.8-8.4a8.26,8.26,0,0,1,.7-1.3"/><path class="cls-9" d="M110.9,199.5l48.7-19a1.31,1.31,0,0,0,.7-1.6L151,151.7"/><line class="cls-9" x1="77.2" y1="118.5" x2="85.1" y2="103.6"/><path class="cls-12" d="M54.4,185c2.7,11.7,17.6.4,15.6-8.8a.37.37,0,0,0-.1-.3"/><path class="cls-12" d="M68.1,158.5c8.3.4,9.4-8.8,1.1-12.6a14.67,14.67,0,0,1-3.7-2.4l-28-27.3-3.4-3.3"/><path class="cls-12" d="M47.7,115.5a28.91,28.91,0,0,0-10.1.7c-10.8,2.3-25.3,9.2-29.7,23.5"/><path class="cls-12" d="M42,185.4c4.7,4.6,11.8.8,12.6-6.3"/><path class="cls-12" d="M172,120.3c9.3,3.2,21.9-4.2,17.1-19"/><path class="cls-12" d="M187,137c5.3,0,7.6,1.7,13.9,8.9,1.5,1.7,3.5,3.8,5.5,6.1,6.6,7.1,14.7,15.2,14.7,15.2"/><path class="cls-12" d="M220.9,148.2c-3.5-.1-8.8,1.2-14.5,3.7-9.5,4.2-19.9,11.9-23.5,22.2"/></g></svg>