<svg id="Layer_1" data-name="Layer 1" xmlns="http://www.w3.org/2000/svg" viewBox="0 0 232 214"><defs><style>.cls-1{fill:#fff;}.cls-2{fill:#eae4e4;}.cls-3{fill:#fde471;}.cls-4{fill:#ffbbc3;}.cls-5{fill:#7ce5d6;}.cls-6,.cls-7{fill:none;}.cls-6{stroke:#330303;stroke-linecap:round;stroke-linejoin:round;stroke-width:3.74px;}.cls-8{fill:#ffd7dd;}.cls-9{fill:#fff8ee;}.cls-10{fill:#fbbc7a;}</style></defs><title>2-diversity</title><g id="_Group_" data-name="&lt;Group&gt;"><path class="cls-1" d="M154.89,72.48c6.1,29,21.74,67.37,21.74,67.37a118.12,118.12,0,0,0-18.58,3c-33.35,7.86-75.3,27.69-75.3,27.69C72,141,64.24,114.94,59,95c-6.9-26-9.62-41.73-9.62-41.73,32.91-8.52,76.4-26,94.91-37.68C143.58,15.77,148.72,43.39,154.89,72.48ZM140,105.91l-7.42-19.1-20.13,7.42,6.91,19.1Zm-29.16,26a12.72,12.72,0,1,0-12.71,12.2A12.47,12.47,0,0,0,110.82,131.91ZM95.46,86.29l-17-21.74L75.85,94.23Z"/><path class="cls-2" d="M158.2,143.74l10.28,31.15L69.83,214.11,33.76,106.27,58.15,95.33l.8-.22C64.24,115,72,141,82.75,170.62c0,0,42-19.9,75.3-27.69Z"/><polygon class="cls-3" points="78.49 64.55 95.46 86.29 75.85 94.23 78.49 64.55"/><polygon class="cls-4" points="132.56 86.81 139.98 105.91 119.34 113.33 112.43 94.23 132.56 86.81"/><ellipse class="cls-5" cx="98.11" cy="131.91" rx="12.71" ry="12.19"/><path class="cls-6" d="M158,142.86a110.5,110.5,0,0,1,18.58-3s-15.65-38.42-21.74-67.37S143.5,15.77,144.24,15.7C125.65,27.38,82.17,44.86,49.33,53.38c0,0,2.72,15.65,9.62,41.73C64.24,115,72,141,82.75,170.62,82.75,170.62,124.7,150.72,158,142.86Z"/><polygon class="cls-6" points="78.49 64.55 75.85 94.23 95.46 86.29 78.49 64.55"/><polygon class="cls-6" points="112.43 94.23 132.56 86.81 139.98 105.91 119.34 113.33 112.43 94.23"/><ellipse class="cls-6" cx="98.11" cy="131.91" rx="12.71" ry="12.19"/><path class="cls-6" d="M121,69.91c.22.59.07-.14.29.37"/><path class="cls-6" d="M111.4,52.87c-1.61-4.26,4.63-12.41,11.24-8.23,6.1,3.9,1.18,10.51-2.28,13.52-2,1.84-1.46,4.85-.88,7.27"/><polyline class="cls-7" points="58.15 95.26 33.76 106.27 69.83 214.11 168.48 174.81 158.2 143.74"/></g><g id="_Group_2" data-name="&lt;Group&gt;"><path class="cls-4" d="M195.15,9.46c3,1.68,5.58,2.49,5.95,1.91l.07.07L194.26,23l-.29-.15c-.37.59-2.86-.14-5.88-1.83Z"/><path class="cls-8" d="M195.22,5.78c3.75,2.28,6.39,4.78,5.95,5.59-.37.58-2.94-.23-5.95-1.91-.51-.3-1.1-.59-1.62-1-3.74-2.28-6.39-4.77-5.87-5.51S191.47,3.51,195.22,5.78Z"/><path class="cls-8" d="M195.15,9.46,188.09,21c-.58-.3-1.17-.66-1.76-1-3.16-2-5.58-4.11-5.88-5.14l7.13-11.9c-.44.73,2.2,3.23,5.88,5.51C194.12,8.87,194.63,9.16,195.15,9.46Z"/><path class="cls-9" d="M147,71.23c2.79-3.08,5.22-.58,5.07.89,0,0,5.58-5.37,6.9-3.31s-1.61,6.76-1.61,7.13,5,.07,3.16,3.3h0l-.37.59-13.37,5.8-.37-14,.3-.51Z"/><path class="cls-3" d="M146.81,71.09l33.72-56.2c.29,1,2.72,3.16,5.87,5.14a20.23,20.23,0,0,0,1.77,1L159,68.88c-1.32-2-6.9,3.31-6.9,3.31.15-1.47-2.2-4-5.07-.88Z"/><path class="cls-10" d="M188.17,21c3,1.61,5.43,2.42,5.87,1.83l.3.15L160.55,79.24c1.83-3.23-3.16-2.94-3.16-3.3s2.94-5,1.61-7.13Z"/><path class="cls-6" d="M201.1,11.37c-.37.58-2.94-.23-5.95-1.91a18.11,18.11,0,0,1-1.62-1c-3.75-2.28-6.39-4.77-5.88-5.51s3.82.52,7.57,2.79S201.61,10.56,201.1,11.37Z"/><path class="cls-6" d="M194,22.82c-.37.59-2.86-.14-5.88-1.83-.58-.3-1.17-.66-1.76-1-3.16-2-5.58-4.11-5.88-5.14a.49.49,0,0,1,0-.44"/><polyline class="cls-6" points="160.55 79.24 194.26 22.97 201.24 11.44 201.24 11.37"/><polyline class="cls-6" points="187.65 2.99 180.53 14.89 146.81 71.09 146.52 71.6 146.88 85.63 160.18 79.83 160.55 79.24"/><path class="cls-6" d="M147,71.23c2.79-3.08,5.22-.58,5.07.89,0,0,5.58-5.37,6.9-3.31s-1.61,6.76-1.61,7.13,5,.07,3.16,3.3h0"/><line class="cls-6" x1="147.4" y1="82.47" x2="149.97" y2="84.09"/><polyline class="cls-7" points="195.66 8.72 195.15 9.46 188.17 20.99 159 68.81"/></g></svg>