<svg id="Layer_1" data-name="Layer 1" xmlns="http://www.w3.org/2000/svg" viewBox="0 0 280 290"><defs><style>.cls-1{fill:#ffa1a8;}.cls-2{fill:#ffd071;}.cls-3{fill:#fff8ee;}.cls-4{fill:#adebda;}.cls-5{fill:#ddac99;}.cls-6{fill:#b58879;}.cls-7{fill:#ffd0ac;}.cls-8{fill:#ffebd2;}.cls-10,.cls-11,.cls-12,.cls-9{fill:none;}.cls-10,.cls-11,.cls-9{stroke:#330303;stroke-linejoin:round;}.cls-11,.cls-9{stroke-linecap:round;}.cls-10,.cls-9{stroke-width:3.74px;}.cls-11{stroke-width:1.56px;}</style></defs><title>2-diversity</title><g id="_Group_" data-name="&lt;Group&gt;"><path class="cls-1" d="M61.14,149c1.49,1.12.75,4.71-1.73,7.93s-5.33,4.71-6.94,4l-.5-.38c-1.36-1.24-.49-4.7,1.86-7.8S59.53,147.86,61.14,149Z"/><path class="cls-1" d="M61.14,148.85l11.4,8.42-.12.25c1.48,1.12.74,4.58-1.61,7.68s-5.46,4.71-6.94,3.6l-.25.37-11.15-8.3c1.61.74,4.58-.87,6.94-4s3.22-6.81,1.73-8.05Z"/><path class="cls-2" d="M103.89,180.57l23.17,17.22c.13.12.25.12.37.25-2.85-1.74-2.72,2.72-3.09,2.72s-5-3.59-7.07-2.6,3.1,7.19,3.1,7.19c-1.49-.37-4.09,1.49-1.11,4.71l-.13.12a4.14,4.14,0,0,1-1-.62L98.81,195.19l-.37-.37L83.2,183.54,63.62,169.17l.25-.37c1.48,1.11,4.58-.5,6.94-3.6s3.09-6.56,1.61-7.68l.12-.25,7.31,5.45L89.76,170c-3.34,8.31,7.32,14.38,13.39,10.41l.74.13Z"/><path class="cls-3" d="M124.34,200.89c.37,0,.24-4.46,3.09-2.73a5.39,5.39,0,0,1,1.49,2.11l4.83,12.27-12.51-1.62a10.64,10.64,0,0,1-2.11-.61l.13-.13c-3-3.22-.38-5.08,1.11-4.71,0,0-5.2-6.19-3.1-7.18S124,200.76,124.34,200.89Z"/><path class="cls-1" d="M227.06,129c.12.12.24.12.37.25,1.11.87,1,3.1-.25,5.57a12,12,0,0,1-1.49,2.36c-2.48,3.22-5.7,5-7.31,3.84s-.74-4.71,1.74-8C222.47,130,225.45,128.28,227.06,129Z"/><path class="cls-1" d="M220.12,133c-2.48,3.22-3.22,6.81-1.74,8l-.12.12-11.4-8.42.12-.25c-1.48-1.11-.74-4.58,1.61-7.68s5.46-4.71,6.94-3.6l.25-.37L226.93,129C225.45,128.28,222.47,130,220.12,133Z"/><path class="cls-4" d="M208.72,115.39l7.18,5.33-.24.37c-1.49-1.11-4.59.5-6.94,3.59s-3.1,6.57-1.61,7.69l-.13.24L189.88,120h0c2.73-8.93-8.17-14.75-14-10.16l-.25-.38L152.46,92.22c-.12-.12-.25-.12-.25-.25,2.85,1.74,2.73-2.85,3.1-2.72s5,3.59,7.07,2.6-3.1-7.19-3.1-7.19c1.48.37,4.09-1.49,1.11-4.71l.13-.24c.12,0,.12.12.24.12L180.84,94.7l.37.37Z"/><path class="cls-5" d="M218.38,141h0c1.61,1.12,4.83-.62,7.31-3.84a12,12,0,0,0,1.49-2.36l.87.25c6.56,0,9.41,2.11,17.22,11,1.86,2.11,4.34,4.71,6.82,7.56-11.78,5.2-24.66,14.74-29.12,27.51l-.13.12-26.51-28.87s-12.77,2.35-21.94-2.35-16.6-26,1.24-40.27h0c6-4.59,16.73,1.36,14,10.16h0l17.09,12.63Z"/><path class="cls-5" d="M215.28,87.39l.75-.13c8.3-1.24,12.51.87,14.74,3.6l-.12.12c5.95,18.34-9.67,27.38-21.19,23.54l-.74,1L181.09,95.07l.24-.37c1.49-8.06,5.95-19.58,18.09-21.31C208.22,72,213.55,78.34,215.28,87.39Z"/><path class="cls-6" d="M230.77,90.86c3,3.84,2,8.92,2,8.92a199.28,199.28,0,0,1,8.79-19.46c4.22-7.93,12-12,16-8.54,7.06,6.31-9.79,14.74-5.7,35.8,3.1,16.24,1.86,22.18,1.86,22.18l17.22,18.34-.74.75c-4.34-.13-10.91,1.48-18,4.58-2.6-2.72-5-5.33-6.82-7.56-7.8-8.92-10.65-11-17.22-11l-.87-.24c1.24-2.48,1.37-4.71.25-5.58-.12-.12-.25-.12-.37-.25L216,120.6l-7.19-5.33.74-1c11.4,4.08,27-5.08,21.19-23.42Z"/><path class="cls-7" d="M83.2,183.66l15.24,11.28-.25.37c-1.49,8.06-6,19.58-18.09,21.31-8.67,1.24-14-5-15.74-14.12a33.32,33.32,0,0,1-.49-7.93H64C67.09,209.07,85.55,195.19,83.2,183.66Z"/><path class="cls-7" d="M80.72,161.73c10.28.5,11.65-10.9,1.36-15.61a18,18,0,0,1-4.58-3L42.8,109.32c5.21-1.12,9.79-1.36,12.52-.87l.49-.49L83,137.69s12.76-2.35,21.93,2.36,16.61,26-1.36,40.27c-.13.12-.37.25-.5.37-6.07,4-16.72-2.11-13.38-10.41L79.73,163Z"/><path class="cls-8" d="M63.74,194.57h0a27.74,27.74,0,0,0,.5,7.93l-.74.12c-19.58,2.85-16.73-12.51-16.73-12.51A201,201,0,0,1,38,209.56c-4.34,7.93-12,12-16,8.55-7.07-6.32,9.79-14.74,5.7-35.81-3.1-16.23-1.86-22.18-1.86-22.18L5.75,138.69l.25-.25c5.45-17.72,23.42-26.27,36.8-29.12l34.7,33.83a16.11,16.11,0,0,0,4.58,3c10.29,4.71,8.92,16-1.36,15.61l-.87,1.12-7.31-5.45-11.4-8.55L61,149c-1.49-1.11-4.83.5-7.31,3.84-2.36,3.1-3.22,6.57-1.86,7.81a.12.12,0,0,0,.12.12c.13.13.25.13.37.25l11.16,8.3,19.57,14.5C85.55,195.19,67.09,209.07,63.74,194.57Z"/><path class="cls-9" d="M218.38,141c-1.48-1.11-.74-4.71,1.74-8,2.35-3,5.2-4.71,6.94-4,.12.12.24.12.37.25,1.11.87,1,3.1-.25,5.57a12,12,0,0,1-1.49,2.36C223.21,140.42,220,142.16,218.38,141Z"/><path class="cls-9" d="M207.11,132.37c-1.49-1.12-.75-4.59,1.61-7.69s5.45-4.7,6.94-3.59"/><polyline class="cls-9" points="189.88 119.98 206.98 132.61 218.38 141.04 218.63 141.29"/><path class="cls-9" d="M227.55,129.39l-.49-.37-11.16-8.18-7.18-5.33L181.09,95.07l-.38-.37L160.64,79.83c-.12-.12-.12-.12-.25-.12a2.56,2.56,0,0,0-1.36-.5L145.77,77.6l4.71,12.27A6.51,6.51,0,0,0,152,92l.24.25,23.18,17.22"/><path class="cls-9" d="M160.27,79.83c3,3.22.37,5.08-1.12,4.71,0,0,5.21,6.19,3.1,7.18s-6.69-2.6-7.06-2.6-.25,4.46-3.1,2.73c-.12,0-.25-.13-.37-.25"/><line class="cls-9" x1="148.99" y1="78.47" x2="147.26" y2="80.7"/><path class="cls-9" d="M194.47,104.36c.37-2.23,1.86-5.45,1.61-7.43"/><path class="cls-9" d="M214.66,104.36a43.89,43.89,0,0,0,.62-17c-1.73-9-7.06-15.37-15.73-14.13C187.4,75,182.82,86.52,181.46,94.57"/><path class="cls-9" d="M276,153.93l-5.2-5.7-17.23-18.34s1.24-6.07-1.86-22.18c-4.09-21.07,12.77-29.49,5.7-35.81-4.09-3.59-11.77.49-16,8.55a201,201,0,0,0-8.8,19.45s1-5.08-2-8.92c-2.23-2.73-6.44-4.83-14.75-3.59"/><path class="cls-9" d="M225.45,183.91,223,181.19l-26.52-28.87s-12.76,2.35-21.93-2.36-16.61-26,1.24-40.27h0c6-4.58,16.73,1.36,14,10.16h0a5.79,5.79,0,0,1-.74,1.86"/><polyline class="cls-9" points="145.77 77.47 101.78 93.71 105.75 106.59 92 112.17 97.45 130.14"/><path class="cls-9" d="M61.14,149c1.49,1.12.75,4.71-1.73,7.93s-5.33,4.71-6.94,4c-.13,0-.25-.13-.37-.25a.13.13,0,0,1-.13-.13c-1.36-1.24-.49-4.7,1.86-7.8S59.53,147.86,61.14,149Z"/><path class="cls-9" d="M72.42,157.64c1.48,1.12.74,4.59-1.61,7.69s-5.46,4.7-6.94,3.59"/><polyline class="cls-10" points="60.89 148.72 61.14 148.85 72.54 157.4 79.98 162.85 89.89 170.16 90.14 170.41"/><path class="cls-9" d="M52,160.62l.5.37,11.15,8.3,19.58,14.5,15.24,11.27.37.38,19.33,14.37a7.12,7.12,0,0,0,1,.62,4.19,4.19,0,0,0,2.11.62l12.51,1.61-4.83-12.27a5.89,5.89,0,0,0-1.49-2.1c-.12-.13-.24-.25-.37-.25l-23.17-17.22"/><path class="cls-9" d="M119.13,210.06c-3-3.22-.37-5.08,1.12-4.71,0,0-5.21-6.2-3.1-7.19s6.69,2.6,7.06,2.6.25-4.46,3.1-2.72c.12,0,.25.12.37.25"/><line class="cls-9" x1="130.53" y1="211.54" x2="132.27" y2="209.19"/><path class="cls-11" d="M85.06,185.52c-.38,2.23-1,4.46-.87,6.45"/><path class="cls-9" d="M64.86,185.65a38.62,38.62,0,0,0-1.12,9,41.13,41.13,0,0,0,.5,7.93C66,211.67,71.3,218,80,216.75,92.12,215,96.7,203.49,98.07,195.44"/><path class="cls-9" d="M3.4,136.08l2.35,2.61,20.08,21.43s-1.37,5.95,1.86,22.18c4.09,21.07-12.77,29.49-5.7,35.81,4.09,3.6,11.77-.49,16-8.55a201,201,0,0,0,8.8-19.45s-2.85,15.36,16.73,12.51"/><path class="cls-9" d="M54.08,106.1l1.73,2L83,137.82s12.76-2.36,21.93,2.35,16.61,26-1.36,40.27c-.13.13-.37.25-.5.38-6.07,4-16.72-2.11-13.38-10.41a10.14,10.14,0,0,1,.87-1.61"/><path class="cls-9" d="M133.75,212.54,194.1,189a1.61,1.61,0,0,0,.86-2l-11.52-33.7"/><line class="cls-9" x1="91.99" y1="112.17" x2="101.78" y2="93.71"/><path class="cls-12" d="M63.74,194.57c3.35,14.5,21.81.49,19.33-10.91a.47.47,0,0,0-.12-.37"/><path class="cls-12" d="M80.72,161.73c10.28.5,11.65-10.9,1.36-15.61a18,18,0,0,1-4.58-3L42.8,109.32l-4.21-4.09"/><path class="cls-12" d="M55.44,108.45c-2.85-.49-7.31-.25-12.51.87-13.39,2.85-31.35,11.4-36.8,29.12"/><path class="cls-12" d="M48.38,195.06c5.82,5.7,14.62,1,15.61-7.8"/><path class="cls-12" d="M209.46,114.4c11.52,4,27.14-5.2,21.19-23.54"/><path class="cls-12" d="M228.05,135.09c6.56,0,9.41,2.11,17.22,11,1.86,2.11,4.34,4.71,6.82,7.56,8.17,8.8,18.21,18.83,18.21,18.83"/><path class="cls-12" d="M270.05,149c-4.33-.12-10.9,1.49-18,4.59-11.78,5.2-24.66,14.74-29.12,27.5"/></g></svg>