<svg id="Layer_1" data-name="Layer 1" xmlns="http://www.w3.org/2000/svg" viewBox="0 0 232 290"><defs><style>.cls-1{fill:#fff;}.cls-2{fill:#eae4e4;}.cls-3{fill:#fde471;}.cls-4{fill:#ffbbc3;}.cls-5{fill:#7ce5d6;}.cls-6,.cls-7{fill:none;}.cls-6{stroke:#330303;stroke-linecap:round;stroke-linejoin:round;stroke-width:3.74px;}.cls-8{fill:#ffd7dd;}.cls-9{fill:#fff8ee;}.cls-10{fill:#fbbc7a;}</style></defs><title>2-diversity</title><g id="_Group_" data-name="&lt;Group&gt;"><path class="cls-1" d="M162.82,100.08c7.39,35.08,26.35,81.64,26.35,81.64a146,146,0,0,0-22.52,3.65c-40.42,9.53-91.26,33.57-91.26,33.57C62.3,183.06,53,151.54,46.54,127.41,38.17,95.89,34.88,76.84,34.88,76.84c39.88-10.33,92.59-31.52,115-45.68C149.11,31.34,155.34,64.82,162.82,100.08Zm-18.08,40.51-9-23.15-24.39,9,8.37,23.15ZM109.4,172.11c0-8.19-7-14.78-15.41-14.78s-15.4,6.59-15.4,14.78,7,14.78,15.4,14.78S109.4,180.21,109.4,172.11ZM90.79,116.82,70.22,90.46l-3.2,36Z"/><path class="cls-2" d="M166.83,186.44l12.46,37.75L59.72,271.74,16,141l29.56-13.26,1-.27C53,151.63,62.3,183.15,75.39,219c0,0,50.84-24.13,91.26-33.57Z"/><polygon class="cls-3" points="70.22 90.46 90.79 116.82 67.02 126.43 70.22 90.46"/><polygon class="cls-4" points="135.75 117.44 144.75 140.59 119.73 149.58 111.36 126.43 135.75 117.44"/><ellipse class="cls-5" cx="93.99" cy="172.11" rx="15.4" ry="14.78"/><path class="cls-6" d="M166.56,185.37a135.83,135.83,0,0,1,22.52-3.65s-19-46.56-26.35-81.64C155.25,64.82,149,31.34,149.91,31.25c-22.53,14.16-75.24,35.35-115,45.68,0,0,3.29,19,11.66,50.57C53,151.63,62.3,183.15,75.39,219,75.39,219,126.23,194.9,166.56,185.37Z"/><polygon class="cls-6" points="70.22 90.46 67.02 126.43 90.79 116.82 70.22 90.46"/><polygon class="cls-6" points="111.36 126.43 135.75 117.44 144.75 140.59 119.73 149.58 111.36 126.43"/><ellipse class="cls-6" cx="93.99" cy="172.11" rx="15.4" ry="14.78"/><path class="cls-6" d="M121.77,97c.27.71.09-.18.36.45"/><path class="cls-6" d="M110.11,76.3c-2-5.16,5.61-15,13.62-10,7.39,4.72,1.43,12.73-2.76,16.39-2.49,2.22-1.78,5.87-1.07,8.81"/><polyline class="cls-7" points="45.56 127.68 16 141.03 59.72 271.74 179.29 224.1 166.82 186.44"/></g><g id="_Group_2" data-name="&lt;Group&gt;"><path class="cls-4" d="M211.61,23.69c3.65,2,6.77,3,7.21,2.31l.09.09-8.37,14-.35-.18c-.45.71-3.48-.18-7.13-2.23Z"/><path class="cls-8" d="M211.7,19.23C216.24,22,219.45,25,218.91,26c-.44.71-3.56-.27-7.21-2.31-.62-.36-1.34-.72-2-1.16-4.54-2.76-7.75-5.79-7.12-6.68S207.16,16.47,211.7,19.23Z"/><path class="cls-8" d="M211.61,23.69l-8.55,14c-.71-.35-1.42-.8-2.13-1.24-3.83-2.41-6.77-5-7.13-6.24l8.64-14.42c-.53.89,2.67,3.92,7.12,6.68C210.36,23,211,23.33,211.61,23.69Z"/><path class="cls-9" d="M153.29,98.56c3.39-3.74,6.32-.71,6.15,1.07,0,0,6.76-6.5,8.36-4s-2,8.19-2,8.63,6.05.09,3.82,4h0l-.44.71L153,116l-.44-17,.36-.62Z"/><path class="cls-3" d="M153,98.39l40.87-68.12c.36,1.25,3.3,3.83,7.12,6.24.72.44,1.43.89,2.14,1.24l-35.35,58c-1.6-2.49-8.36,4-8.36,4,.17-1.78-2.68-4.81-6.15-1.07Z"/><path class="cls-10" d="M203.15,37.66c3.65,2,6.59,2.94,7.12,2.23l.36.18-41,68.2c2.23-3.92-3.82-3.56-3.82-4s3.56-6.05,2-8.63Z"/><path class="cls-6" d="M218.82,26c-.44.71-3.56-.27-7.21-2.31-.62-.36-1.34-.72-2-1.16-4.54-2.76-7.74-5.79-7.12-6.68s4.63.62,9.17,3.38S219.45,25,218.82,26Z"/><path class="cls-6" d="M210.19,39.89c-.45.71-3.48-.18-7.13-2.23-.71-.35-1.42-.8-2.13-1.24-3.83-2.41-6.77-5-7.13-6.24a.55.55,0,0,1,0-.53"/><polyline class="cls-6" points="169.68 108.27 210.54 40.07 219 26.09 219 26"/><polyline class="cls-6" points="202.53 15.85 193.89 30.27 153.03 98.39 152.67 99.01 153.11 116.01 169.23 108.98 169.68 108.27"/><path class="cls-6" d="M153.29,98.56c3.39-3.74,6.32-.71,6.15,1.07,0,0,6.76-6.5,8.36-4s-2,8.19-2,8.63,6.05.09,3.82,4h0"/><line class="cls-6" x1="153.74" y1="112.19" x2="156.85" y2="114.14"/><polyline class="cls-7" points="212.23 22.8 211.61 23.68 203.15 37.66 167.81 95.63"/></g></svg>