<?xml version="1.0" encoding="utf-8"?>
<!-- Generator: Adobe Illustrator 22.0.0, SVG Export Plug-In . SVG Version: 6.00 Build 0)  -->
<svg version="1.1" id="Layer_3" xmlns="http://www.w3.org/2000/svg" xmlns:xlink="http://www.w3.org/1999/xlink" x="0px" y="0px"
	 viewBox="0 0 151 202.2" style="enable-background:new 0 0 151 202.2;" xml:space="preserve">
<style type="text/css">
	.st0{fill:#FFF8EE;}
	.st1{fill:#B58879;}
	.st2{fill:#DDAC99;}
	.st3{fill:#FFA1A8;}
	.st4{fill:#FFBBC3;}
	.st5{fill:#DCF1F6;}
	.st6{fill:#F2FAFC;}
	.st7{fill:#7CE5D6;}
	.st8{fill:#ADEBDA;}
	.st9{fill:none;stroke:#330303;stroke-width:3.743;stroke-linecap:round;stroke-linejoin:round;stroke-miterlimit:10;}
	.st10{fill:none;}
</style>
<g id="XMLID_8_">
	<g>
		<path class="st0" d="M113.7,5.6l8.7,35.7c0.1,0.6,0,1.1-0.1,1.7c-3.5,8.5-9.2-3.6-9.2-3.6s-6.2,20-13.6,19.3
			c-0.8-0.1-1.4-0.4-2-0.9c-4.7-4.3-1.7-22.6-1.7-22.6s-8.4,8.9-11.6,9.2c-3.2,0.3-7.7-0.3-4.7-13.8l-0.3-0.2
			c0.4-0.6,0.9-1.2,1.4-1.6l28.8-24.8C111,2.5,113.4,3.5,113.7,5.6z"/>
		<path class="st1" d="M90.4,98.5c14.2,3.3,33.6-14.5,16.8-24.4l0.1-0.5c1.5,0.3,2.9,0.7,4.4,1.4c0.2,0.1,0.4,0.2,0.6,0.3
			c15,7.6,4.9,26.9,8.9,30.8c2.3,2.3,15.8,4.5,29.8,2.9c-1.5,4.2-6.5,4.5-9.6,16.9c-3.1,12.4-2.2,18.8-2.2,18.8
			c-15.7-1.2-29.9-5.7-30.4-4.8c-1,1.5-7.9,13.9-21.5,10.7l-0.2-0.1l17.3-52.7l-0.3-0.6c-4.2,2-9.5,2.7-13.7,1.5L90.4,98.5z"/>
		<path class="st1" d="M63.8,86.4c6.1,3.1,9.8,7.3,11.5,11.4c1.6,3.9,1.3,7.6-0.5,10.4c-3.6,5.6-11.3,6.1-19.8,2.6
			c-2-0.8-4.1-1.8-6.2-3.1l0.3-0.6c17.8,5.9,27-8.9,14.5-20.4L63.8,86.4z"/>
		<path class="st1" d="M59.9,119.8c4.1,3.8,3.5,9.4,0.3,12.7c-3,3.1-8.5,4.3-14.8,0.3c-0.3-0.2-0.7-0.4-1-0.7
			c-0.7-0.5-1.4-1-2.1-1.6c10.9,4.9,17.5-6.2,13.8-14.2l0.3-0.2C57.2,117.1,58.3,118.3,59.9,119.8z"/>
		<path class="st1" d="M42.3,130.5c0.7,0.6,1.4,1.1,2.1,1.6l-0.3,0.4c0,0-16.3,9.1-31,4.4c-5.3-1.7-8.2-4.1-9.6-6.6l1.1-0.1
			c6.6,6.6,23.4,3.6,32.9-4l0.3-0.2C39.1,127.5,40.5,129,42.3,130.5z"/>
		<path class="st2" d="M83.5,91.8c-0.8-4.5,2.4-10.1,7.6-14c4.4-3.3,10.3-5.3,16.2-4.2l-0.1,0.5c16.8,9.9-2.6,27.7-16.8,24.4
			l-0.1,0.2c-3-0.9-5.4-2.7-6.5-5.9C83.7,92.6,83.6,92.2,83.5,91.8z"/>
		<path class="st2" d="M37.9,126l-0.3,0.2c-9.6,7.6-26.4,10.5-32.9,4l-1.1,0.1c-3-5.7,2.2-11.9,7.7-11.3c8.1,0.8,14,6.8,21.9,3
			l1.8-0.8C35.7,122.8,36.7,124.4,37.9,126z"/>
		<path class="st2" d="M54.8,111.5c0,0-1.2,1,1.6,4.5l-0.3,0.2c3.6,7.9-3,19.1-13.8,14.2c-1.7-1.5-3.2-3-4.3-4.5
			c-1.3-1.6-2.2-3.2-2.9-4.8c-4.1-9.3,0.9-17.5,6.2-18l0.8-0.5c0.7,0.8,1.4,1.4,2.2,2c1.5,1.1,3.1,2.1,4.6,3
			c2.1,1.2,4.2,2.3,6.2,3.1L54.8,111.5z"/>
		<path class="st2" d="M60.9,85c1,0.4,2,0.9,2.9,1.3l-0.1,0.3C76.2,98.2,67,113,49.2,107.1l-0.3,0.6c-1.5-0.9-3.1-1.9-4.6-3
			c-0.8-0.6-1.5-1.2-2.2-2c-8.8-9.5-8.1-31.1,22.6-31.1l0.6,0.2L61,84.6L60.9,85z"/>
		<path class="st3" d="M69.7,179.9c7.9-2.1,13.9-5.9,16.1-9.9l1.6,0.1c6.9-1.5,13.3-2.7,16.1,2.2c2.7,4.9,4.9,22.2-3,26.2v0.3
			c-6.7,0-13.8,0-20.7,0v-0.4c13.7-9.1,2.9-22.1-10.1-18.3L69.7,179.9z"/>
		<path class="st4" d="M65.1,180.9c1.6-0.3,3.1-0.6,4.6-1l0.1,0.2c13-3.8,23.7,9.2,10.1,18.3v0.4c-14.3,0-27.7,0-35.4,0
			c-22,0-17.1-21.3-15.3-23.3l1.4-1.3c5.5,4.3,16.3,7.7,28.5,7.2C61.1,181.4,63.1,181.2,65.1,180.9z"/>
		<path class="st5" d="M69.7,179.9c-1.5,0.4-3,0.7-4.6,1l-0.1-0.6c1.5-5.4-2.6-7.7-4.7-8.5c8.7,0,17.5-2.6,23.1-10.2
			c3.5,2.5,4.1,5.5,2.4,8.5C83.6,174,77.6,177.8,69.7,179.9z"/>
		<path class="st6" d="M34.6,161.4c1.7,4.9,13.5,10.3,25.7,10.4c2.1,0.8,6.2,3.1,4.7,8.5l0.1,0.6c-2,0.3-4,0.5-6.1,0.6
			c-12.2,0.5-23-2.9-28.5-7.2c-1.7-1.3-3-2.7-3.6-4.1c-3.2-7.4,3.4-14.8,9.9-16.1l1.4,0.5L36,161L34.6,161.4z"/>
		<path class="st7" d="M111.9,74.5l-0.3,0.5c-1.5-0.7-2.9-1.1-4.4-1.4c-5.9-1.1-11.8,0.9-16.2,4.2l-0.3-0.6L97.3,58l0.3-0.3
			c0.5,0.5,1.2,0.8,2,0.9c7.4,0.8,13.6-19.3,13.6-19.3s5.7,12,9.2,3.6c0,0.1-0.1,0.3-0.1,0.4L111.9,74.5z"/>
		<path class="st7" d="M104.3,97.9L87,150.5l-3.6,11c-5.5,7.6-14.4,10.3-23.1,10.2c-0.7-0.3-1.2-0.4-1.2-0.4l9.1-27
			c5.1-12.2-6.7-12-8-11.9c3.3-3.3,3.8-8.9-0.3-12.7c-1.6-1.5-2.7-2.7-3.5-3.7c-2.8-3.6-1.6-4.5-1.6-4.5l0.3-0.8
			c8.5,3.4,16.2,2.9,19.8-2.6c1.8-2.7,2-6.5,0.5-10.4l0.7-0.3c4.7,4.9,7.4-0.1,7.5-5.6c0.1,0.4,0.2,0.8,0.3,1.1
			c1.1,3.1,3.5,5,6.5,5.9c4.2,1.2,9.5,0.5,13.7-1.5L104.3,97.9z"/>
		<path class="st8" d="M60.1,132.5c1.3-0.1,13.1-0.2,8,11.9l-9.1,27c0,0,0.5,0.1,1.2,0.4c-12.2-0.1-24-5.5-25.7-10.4L36,161l2.1-6.5
			l7.1-21.5l0.1-0.2C51.7,136.7,57.1,135.5,60.1,132.5z"/>
		<path class="st8" d="M79.5,30.5c-3,13.6,1.5,14.1,4.7,13.8c3.2-0.3,11.6-9.2,11.6-9.2s-3,18.3,1.7,22.6L97.3,58l-6.5,19.2l0.3,0.6
			c-5.2,3.9-8.4,9.5-7.6,14c-0.1,5.6-2.8,10.6-7.5,5.6l-0.7,0.3c-1.7-4.1-5.4-8.2-11.5-11.4c-0.9-0.5-1.9-0.9-2.9-1.3l0.2-0.4
			l4.3-12.9l13.1-39.7c0.2-0.6,0.5-1.1,0.8-1.7L79.5,30.5z"/>
	</g>
	<g>
		<path class="st9" d="M64.7,71.5c-30.7,0-31.4,21.6-22.6,31.1c0.7,0.8,1.4,1.4,2.2,2c1.5,1.1,3.1,2.1,4.6,3
			c2.1,1.2,4.2,2.3,6.2,3.1c8.5,3.4,16.2,2.9,19.8-2.6c1.8-2.7,2-6.5,0.5-10.4c-1.7-4.1-5.4-8.2-11.5-11.4c-0.9-0.5-1.9-0.9-2.9-1.3
			c-1.5-0.6-3.1-1.2-4.8-1.7"/>
		<path class="st9" d="M41.3,103.1c-5.3,0.5-10.3,8.7-6.2,18c0.7,1.6,1.6,3.2,2.9,4.8c1.2,1.5,2.6,3,4.3,4.5
			c0.7,0.6,1.4,1.1,2.1,1.6c0.3,0.2,0.7,0.5,1,0.7c6.4,4,11.8,2.8,14.8-0.3c3.3-3.3,3.8-8.9-0.3-12.7c-1.6-1.5-2.7-2.7-3.5-3.7
			c-2.8-3.6-1.6-4.5-1.6-4.5"/>
		<path class="st9" d="M33.2,121.9c-7.9,3.8-13.8-2.1-21.9-3c-5.6-0.6-10.7,5.7-7.7,11.3c1.3,2.5,4.3,5,9.6,6.6
			c14.7,4.6,31-4.4,31-4.4"/>
		<path class="st9" d="M109.6,92.8c-1.2,1.8-3.3,3.4-5.7,4.5c-4.2,2-9.5,2.7-13.7,1.5c-3-0.9-5.4-2.7-6.5-5.9
			c-0.1-0.4-0.2-0.7-0.3-1.1c-0.8-4.5,2.4-10.1,7.6-14c4.4-3.3,10.3-5.3,16.2-4.2c1.5,0.3,2.9,0.7,4.4,1.4c0.2,0.1,0.4,0.2,0.6,0.3
			c15,7.6,4.9,26.9,8.9,30.8c2.3,2.3,15.8,4.5,29.8,2.9"/>
		<path class="st9" d="M87.2,150.6c13.6,3.2,20.5-9.2,21.5-10.7c0.6-0.9,14.8,3.7,30.4,4.8c3.3,0.2,6.8,0.4,10,0.5"/>
		<path class="st9" d="M79.5,30.5c-3,13.6,1.5,14.1,4.7,13.8c3.2-0.3,11.6-9.2,11.6-9.2s-3,18.3,1.7,22.6c0.5,0.5,1.2,0.8,2,0.9
			c7.4,0.8,13.6-19.3,13.6-19.3s5.7,12,9.2,3.6c0.1-0.2,0.2-0.4,0.2-0.6"/>
		<path class="st9" d="M106.5,7.2c1.2,2.2,5.2,3.3,7.9,2.3"/>
		<polyline class="st9" points="45.2,133 38.1,154.5 36,161 		"/>
		<path class="st9" d="M111.9,74.5l10.2-31.1c0-0.1,0.1-0.3,0.1-0.4c0.1-0.6,0.2-1.1,0.1-1.7l-8.7-35.7c-0.3-2.1-2.7-3-4.3-1.7
			L80.6,28.7c-0.6,0.5-1,1-1.4,1.6c-0.3,0.5-0.6,1.1-0.8,1.7L65.3,71.7L61,84.6"/>
		<path class="st9" d="M34.5,161c0,0.1,0.1,0.3,0.1,0.4c1.7,4.9,13.5,10.3,25.7,10.4c8.7,0,17.5-2.6,23.1-10.2l3.6-11l17.3-52.7"/>
		<path class="st9" d="M36.7,154.1c-6.4,1.2-13.1,8.6-9.9,16.1c0.6,1.4,1.8,2.8,3.6,4.1c5.5,4.3,16.3,7.7,28.5,7.2
			c2.1-0.1,4.2-0.3,6.1-0.6c1.6-0.3,3.1-0.6,4.6-1c7.9-2.1,13.9-5.9,16.1-9.9c1.6-3,1.1-6-2.4-8.5"/>
		<line class="st9" x1="143.8" y1="198.8" x2="148.1" y2="198.8"/>
		<path class="st9" d="M29.1,175.5c-1.7,2-6.7,23.3,15.3,23.3c7.7,0,21.2,0,35.4,0c6.9,0,13.9,0,20.7,0c19,0,35.3,0,36.1,0"/>
		<path class="st9" d="M87.4,170.1c6.9-1.5,13.3-2.7,16.1,2.2c2.7,4.9,4.9,22.2-3,26.2"/>
		<path class="st10" d="M65,180.3c1.5-5.4-2.6-7.7-4.7-8.5c-0.7-0.3-1.2-0.4-1.2-0.4l9.1-27c5.1-12.2-6.7-12-8-11.9
			c-0.1,0-0.1,0-0.1,0"/>
		<line class="st10" x1="97.3" y1="58" x2="90.8" y2="77.2"/>
		<path class="st10" d="M69.3,180.3c0.2-0.1,0.3-0.1,0.5-0.1c13-3.8,23.7,9.2,10.1,18.3"/>
		<path class="st10" d="M63.7,86.7C76.2,98.2,67,113,49.2,107.1"/>
		<path class="st10" d="M56.1,116.3c3.6,7.9-3,19.1-13.8,14.2"/>
		<path class="st10" d="M37.6,126.2c-9.6,7.6-26.4,10.5-32.9,4"/>
		<path class="st10" d="M90.4,98.5c14.2,3.3,33.6-14.5,16.8-24.4"/>
		<path class="st10" d="M152.7,105.1c-0.2,0.1-0.8,1.5-1.7,3.9c-2.8,7.6-8.3,24.7-11.9,35.7c-1.9,6-3.2,10.2-3.2,10.2"/>
		<path class="st10" d="M76,97.4c4.7,4.9,7.4-0.1,7.5-5.6c0-0.6,0-1.2-0.1-1.8"/>
	</g>
</g>
<polyline class="st9" points="114.4,9.5 109.2,6.2 111.1,8.2 111.5,4.3 "/>
</svg>
