<svg id="Layer_1" data-name="Layer 1" xmlns="http://www.w3.org/2000/svg" viewBox="0 0 232 290"><defs><style>.cls-1{fill:#eae4e4;}.cls-2{fill:#fff;}.cls-3{fill:#7ce5d6;}.cls-4{fill:#ffdeab;}.cls-5{fill:#f9f5f4;}.cls-6{fill:#adebda;}.cls-7{fill:#cffff0;}.cls-8{fill:#ddac99;}.cls-9{fill:#ffebd2;}.cls-10{fill:#b58879;}.cls-11{fill:none;stroke:#330303;stroke-linecap:round;stroke-linejoin:round;stroke-width:3.74px;}</style></defs><title>2-diversity</title><g id="_Group_" data-name="&lt;Group&gt;"><path class="cls-1" d="M120.1,96.7h-6C114.5,91.6,119.6,92.1,120.1,96.7Z"/><path class="cls-2" d="M125.5,114.7a3.33,3.33,0,0,1,0,1,3,3,0,0,1-2.7,2.3l-11.4.2a2.81,2.81,0,0,1-2.8-2.3,1.7,1.7,0,0,1,0-1l2.9-15.8a2.89,2.89,0,0,1,2.8-2.3h6a2.88,2.88,0,0,1,2.8,2.4Z"/><path class="cls-1" d="M111.4,99.1l-2.9,15.8a1.7,1.7,0,0,0,0,1h0l-9.6,5.3a3.88,3.88,0,0,0-1.8,4.7l10,27.7a3.4,3.4,0,0,1,.2,1.4,3.47,3.47,0,0,1-1.2,2.3l-1.8,1.5-1.2,1a2,2,0,0,1-3-.6l-16-34.1a7,7,0,0,1,2.3-8.6Z"/><path class="cls-1" d="M148.4,116.4a6.87,6.87,0,0,1,2.3,8.6l-16,34.1a1.78,1.78,0,0,1-2.2,1,1.61,1.61,0,0,1-.7-.4l-3-2.6a3.28,3.28,0,0,1-1-3.7l10-27.7a4,4,0,0,0-1.7-4.7l-9.6-5.3-.8-.1a1.7,1.7,0,0,0,0-1L123.1,99h.5Z"/><path class="cls-2" d="M127.8,203.7s6.1,5.5,2.3,7.6-8.1-3.4-8.5-5.2a28.61,28.61,0,0,1-.3-3h.3c1.4,2.2,4.7,1.8,6.2.1h.1Z"/><path class="cls-2" d="M116.4,204.5c-.5,4.6-7.7,8.8-10.4,6.5s3-8,3-8c2.9,1.5,6.3.4,7.3-.9h.3A23.2,23.2,0,0,0,116.4,204.5Z"/><path class="cls-3" d="M110.3,181a1.3,1.3,0,0,0,.3-1.4l.2-.1c3.3,1.3,14.3-.3,15.8-1.9h.3c-.7,1.8-2.6,2.8-2.3,4.4.4,2,3-.5,4.3.3l-1,20.9h-.1c-1.5,1.7-4.8,2.1-6.2-.1h-.3c-.4-4.8-.9-13.4-.9-13.4l-.2-.5a22.92,22.92,0,0,0-2.7,1.3h0s-.5,6.9-.9,11.7h-.3c-1,1.3-4.4,2.4-7.3.9V182.7l-2.7-.1c.1-.4.2-.7.4-.8C107.6,181.5,108.9,182.6,110.3,181Z"/><path class="cls-4" d="M127.4,174.6a5.29,5.29,0,0,0,4.8-.1h.4a5.57,5.57,0,0,0,.4,2.7c.6,1.3,3.9,3.8,3,4.9s-3.4-.2-3.4-.2c.1.3,1,3.3-.4,4.2s-2-3-3.3-3.8-3.9,1.8-4.3-.3c-.3-1.7,1.6-2.7,2.3-4.4a5.07,5.07,0,0,0,.2-1.3v-1.7Z"/><path class="cls-4" d="M109,177.2c0,.5,1.3,1.4,1.6,2.4a1.53,1.53,0,0,1-.3,1.4c-1.4,1.6-2.7.5-3.6.8-.2.1-.3.4-.4.8-.2,1.2,0,3.4-1.2,3.6-1.7.3-2-4.3-2-4.3s-2.2,2.2-3.3.8,1.4-2.9,2-3.7c.4-.5.9-.5,1.2-3.4h.8c1.5,1.4,3.7.9,5.1-.3h.1A10.86,10.86,0,0,1,109,177.2Z"/><path class="cls-5" d="M109.1,175.3H109a3.73,3.73,0,0,1-5.1.3h-.8a87.28,87.28,0,0,0,.3-9,21.53,21.53,0,0,1,1.2-7.6l-.2-.2,1.8-1.5a3.47,3.47,0,0,0,1.2-2.3h.2c2.6-1.9,5.8-2.1,8.3-2.4,3.2-.5,8.4-.7,11.8,1h.1a3.28,3.28,0,0,0,1,3.7l3,2.6a2.51,2.51,0,0,0,.7.4l-.1.2a19.48,19.48,0,0,1,.2,2.5c0,6.3-.1,9.7,0,11.6h-.4a5.29,5.29,0,0,1-4.8.1h-.3v1.7a5.07,5.07,0,0,1-.2,1.3h-.3c-1.5,1.6-12.5,3.2-15.8,1.9l-.2.1c-.3-1-1.6-1.9-1.6-2.4C109,177,109.1,176.3,109.1,175.3Z"/><path class="cls-5" d="M220.4,221.8v4.8H196.6v-4.8a11.86,11.86,0,0,1,11.9-11.9h0A11.93,11.93,0,0,1,220.4,221.8Z"/><path class="cls-5" d="M192.2,221.8v4.8H168.4v-4.8a11.86,11.86,0,0,1,11.9-11.9,11.54,11.54,0,0,1,8.4,3.5A11.71,11.71,0,0,1,192.2,221.8Z"/><path class="cls-6" d="M164,221.8v4.8H140.2v-4.8a11.86,11.86,0,0,1,11.9-11.9,11.54,11.54,0,0,1,8.4,3.5A12.13,12.13,0,0,1,164,221.8Z"/><path class="cls-5" d="M99.1,221.8v4.8H75.3v-4.8a11.86,11.86,0,0,1,11.9-11.9,11.54,11.54,0,0,1,8.4,3.5A11.71,11.71,0,0,1,99.1,221.8Z"/><path class="cls-6" d="M70.9,221.8v4.8H47.1v-4.8A11.86,11.86,0,0,1,59,209.9h0A11.93,11.93,0,0,1,70.9,221.8Z"/><path class="cls-7" d="M42.7,221.8v4.8H18.9v-4.8a11.86,11.86,0,0,1,11.9-11.9,11.54,11.54,0,0,1,8.4,3.5A12.13,12.13,0,0,1,42.7,221.8Z"/><circle class="cls-4" cx="208.5" cy="200.6" r="5.9"/><path class="cls-4" d="M117.1,137.2a6.1,6.1,0,0,1,0,12.2,6.12,6.12,0,0,1-6.1-6.1A6.06,6.06,0,0,1,117.1,137.2Z"/><circle class="cls-4" cx="152" cy="200.6" r="5.9"/><circle class="cls-8" cx="181.8" cy="199.1" r="5.9"/><circle class="cls-9" cx="59" cy="200.59" r="5.9"/><circle class="cls-8" cx="87.2" cy="200.6" r="5.9"/><circle class="cls-10" cx="29.7" cy="200.2" r="5.4"/><path class="cls-11" d="M18.8,226.6v-4.8a11.86,11.86,0,0,1,11.9-11.9,11.54,11.54,0,0,1,8.4,3.5,11.71,11.71,0,0,1,3.5,8.4v4.8"/><circle class="cls-11" cx="29.7" cy="200.2" r="5.4"/><path class="cls-11" d="M47.1,226.6v-4.8A11.86,11.86,0,0,1,59,209.9h0a11.86,11.86,0,0,1,11.9,11.9v4.8"/><circle class="cls-11" cx="59" cy="200.59" r="5.9"/><path class="cls-11" d="M75.3,226.6v-4.8a11.86,11.86,0,0,1,11.9-11.9,11.54,11.54,0,0,1,8.4,3.5,11.71,11.71,0,0,1,3.5,8.4v4.8"/><circle class="cls-11" cx="87.2" cy="200.6" r="5.9"/><path class="cls-11" d="M140.1,226.6v-4.8A11.86,11.86,0,0,1,152,209.9a11.54,11.54,0,0,1,8.4,3.5,11.71,11.71,0,0,1,3.5,8.4v4.8"/><circle class="cls-11" cx="152" cy="200.6" r="5.9"/><path class="cls-11" d="M123.1,143.3a6.06,6.06,0,0,1-6.1,6.1,6.1,6.1,0,1,1,0-12.2A6.06,6.06,0,0,1,123.1,143.3Z"/><path class="cls-11" d="M168.4,226.6v-4.8a11.86,11.86,0,0,1,11.9-11.9,11.54,11.54,0,0,1,8.4,3.5,11.71,11.71,0,0,1,3.5,8.4v4.8"/><circle class="cls-11" cx="181.8" cy="199.1" r="5.9"/><path class="cls-11" d="M196.6,226.6v-4.8a11.86,11.86,0,0,1,11.9-11.9h0a11.86,11.86,0,0,1,11.9,11.9v4.8"/><circle class="cls-11" cx="208.5" cy="200.6" r="5.9"/><path class="cls-11" d="M132.6,181.9c.1.3,1,3.3-.4,4.2s-2-3-3.3-3.8-3.9,1.8-4.3-.3c-.3-1.7,1.6-2.7,2.3-4.4a5.07,5.07,0,0,0,.2-1.3v-1.7c-.1-3.2-.3-7.9-.3-7.9"/><path class="cls-11" d="M132.4,160.3a19.48,19.48,0,0,1,.2,2.5c0,6.3-.1,9.7,0,11.6a5.57,5.57,0,0,0,.4,2.7c.6,1.3,3.9,3.8,3,4.9s-3.4-.2-3.4-.2h0"/><path class="cls-11" d="M107.5,154.9c2.6-1.9,5.8-2.1,8.3-2.4,3.2-.5,8.4-.7,11.8,1"/><path class="cls-11" d="M109.3,166.1s-.2,6-.3,9.1v1.9c0,.5,1.3,1.4,1.6,2.4a1.53,1.53,0,0,1-.3,1.4c-1.4,1.6-2.7.5-3.6.8-.2.1-.3.4-.4.8-.2,1.2,0,3.4-1.2,3.6-1.7.3-2-4.3-2-4.3s-2.2,2.2-3.3.8,1.4-2.9,2-3.7c.4-.5.9-.5,1.2-3.4a87.28,87.28,0,0,0,.3-9,21.53,21.53,0,0,1,1.2-7.6"/><path class="cls-11" d="M110.8,179.5c3.3,1.3,14.3-.3,15.8-1.9"/><path class="cls-11" d="M109,182.6V203s-5.6,5.7-3,8,9.9-1.9,10.4-6.5c.1-.7.1-1.5.2-2.3.4-4.8.9-11.7.9-11.7"/><path class="cls-11" d="M120.4,189.7s.5,8.5.9,13.4c.1,1.5.3,2.6.3,3,.4,1.8,4.7,7.3,8.5,5.2s-2.3-7.6-2.3-7.6v-.6l1-20.9"/><path class="cls-11" d="M116.3,191.1a9.05,9.05,0,0,1,1.1-.6c.8-.4,1.8-.8,2.7-1.3a16.69,16.69,0,0,1,2.6-1"/><path class="cls-11" d="M111.4,99.1l-2.9,15.8a1.7,1.7,0,0,0,0,1,2.72,2.72,0,0,0,2.8,2.3l11.4-.2a2.7,2.7,0,0,0,2.7-2.3,1.7,1.7,0,0,0,0-1l-2.6-15.6a2.8,2.8,0,0,0-2.8-2.4h-6A2.86,2.86,0,0,0,111.4,99.1Z"/><path class="cls-11" d="M108.5,115.8l-9.6,5.3a3.88,3.88,0,0,0-1.8,4.7l10,27.7a3.4,3.4,0,0,1,.2,1.4,3.47,3.47,0,0,1-1.2,2.3l-1.8,1.5-1.2,1a2,2,0,0,1-3-.6L84.1,125a7,7,0,0,1,2.3-8.6l25-17.3"/><path class="cls-11" d="M126.3,115.8l9.6,5.3a3.73,3.73,0,0,1,1.7,4.7l-10,27.7a3.28,3.28,0,0,0,1,3.7l3,2.6a2.51,2.51,0,0,0,.7.4,2,2,0,0,0,2.2-1l16-34.1a7,7,0,0,0-2.3-8.6l-25-17.3"/><path class="cls-11" d="M114.1,96.7c.4-5.1,5.5-4.6,6,0"/><polyline class="cls-11" points="7.5 226.6 18.8 226.6 42.7 226.6 47.1 226.6 70.9 226.6 75.3 226.6 99.1 226.6 140.1 226.6 164 226.6 168.4 226.6 192.2 226.6 196.6 226.6 220.4 226.6 227.5 226.6"/><line class="cls-11" x1="117" y1="92.2" x2="117" y2="43.6"/><path class="cls-11" d="M103.8,175.6c1.5,1.4,3.7.9,5.1-.3"/><path class="cls-11" d="M127.4,174.6a5.29,5.29,0,0,0,4.8-.1"/><path class="cls-11" d="M109,203c2.9,1.5,6.3.4,7.3-.9"/><path class="cls-11" d="M121.6,203c1.4,2.2,4.7,1.8,6.2.1"/></g></svg>