<?xml version="1.0" encoding="utf-8"?>
<!-- Generator: Adobe Illustrator 22.0.0, SVG Export Plug-In . SVG Version: 6.00 Build 0)  -->
<svg version="1.1" id="Layer_3" xmlns="http://www.w3.org/2000/svg" xmlns:xlink="http://www.w3.org/1999/xlink" x="0px" y="0px"
	 viewBox="0 0 230.1 292.5" style="enable-background:new 0 0 230.1 292.5;" xml:space="preserve">
<style type="text/css">
	.st0{fill:#FFFFFF;}
	.st1{fill:#EAE4E4;}
	.st2{fill:#FDE471;}
	.st3{fill:#FFBBC3;}
	.st4{fill:#7CE5D6;}
	.st5{fill:none;stroke:#330303;stroke-width:3.743;stroke-linecap:round;stroke-linejoin:round;stroke-miterlimit:10;}
	.st6{fill:none;}
	.st7{fill:#FFD7DD;}
	.st8{fill:#FFF8EE;}
	.st9{fill:#FBBC7A;}
</style>
<g id="XMLID_4_">
	<g>
		<path class="st0" d="M164.9,98.8c8.3,39.4,29.6,91.7,29.6,91.7c-7.6,0.5-16.2,2-25.3,4.1c-45.4,10.7-102.5,37.7-102.5,37.7
			C52,192,41.5,156.6,34.3,129.5c-9.4-35.4-13.1-56.8-13.1-56.8c44.8-11.6,104-35.4,129.2-51.3C149.5,21.6,156.5,59.2,164.9,98.8z
			 M144.6,144.3l-10.1-26l-27.4,10.1l9.4,26L144.6,144.3z M104.9,179.7c0-9.2-7.8-16.6-17.3-16.6c-9.6,0-17.3,7.4-17.3,16.6
			s7.8,16.6,17.3,16.6C97.2,196.3,104.9,188.8,104.9,179.7z M84,117.6L60.9,88l-3.6,40.4L84,117.6z"/>
		<path class="st1" d="M169.4,195.8l14,42.4L49.1,291.6L0,144.8l33.2-14.9l1.1-0.3c7.2,27.1,17.7,62.5,32.4,102.8
			c0,0,57.1-27.1,102.5-37.7L169.4,195.8z"/>
		<polygon class="st2" points="60.9,88 84,117.6 57.3,128.4 		"/>
		<polygon class="st3" points="134.5,118.3 144.6,144.3 116.5,154.4 107.1,128.4 		"/>
		<ellipse class="st4" cx="87.6" cy="179.7" rx="17.3" ry="16.6"/>
	</g>
	<g>
		<path class="st5" d="M169.1,194.6c9.1-2.2,17.7-3.6,25.3-4.1c0,0-21.3-52.3-29.6-91.7c-8.4-39.6-15.4-77.2-14.4-77.3
			C125.1,37.4,65.9,61.2,21.2,72.8c0,0,3.7,21.3,13.1,56.8c7.2,27.1,17.7,62.5,32.4,102.8C66.7,232.4,123.8,205.3,169.1,194.6z"/>
		<polygon class="st5" points="60.9,88 57.3,128.4 84,117.6 		"/>
		<polygon class="st5" points="107.1,128.4 134.5,118.3 144.6,144.3 116.5,154.4 		"/>
		<ellipse class="st5" cx="87.6" cy="179.7" rx="17.3" ry="16.6"/>
		<path class="st5" d="M118.8,95.3c0.3,0.8,0.1-0.2,0.4,0.5"/>
		<path class="st5" d="M105.7,72.1c-2.2-5.8,6.3-16.9,15.3-11.2c8.3,5.3,1.6,14.3-3.1,18.4c-2.8,2.5-2,6.6-1.2,9.9"/>
		<polyline class="st6" points="33.2,129.8 0,144.8 49.1,291.6 183.4,238.1 169.4,195.8 		"/>
	</g>
</g>
<g id="XMLID_5_">
	<g>
		<path class="st3" d="M219.7,13c4.1,2.3,7.6,3.4,8.1,2.6l0.1,0.1l-9.4,15.7l-0.4-0.2c-0.5,0.8-3.9-0.2-8-2.5L219.7,13z"/>
		<path class="st7" d="M219.8,8c5.1,3.1,8.7,6.5,8.1,7.6c-0.5,0.8-4-0.3-8.1-2.6c-0.7-0.4-1.5-0.8-2.2-1.3c-5.1-3.1-8.7-6.5-8-7.5
			S214.7,4.9,219.8,8z"/>
		<path class="st7" d="M219.7,13l-9.6,15.7c-0.8-0.4-1.6-0.9-2.4-1.4c-4.3-2.7-7.6-5.6-8-7l9.7-16.2c-0.6,1,3,4.4,8,7.5
			C218.3,12.2,219,12.6,219.7,13z"/>
		<path class="st8" d="M154.2,97.1c3.8-4.2,7.1-0.8,6.9,1.2c0,0,7.6-7.3,9.4-4.5s-2.2,9.2-2.2,9.7s6.8,0.1,4.3,4.5l0,0l-0.5,0.8
			l-18.2,7.9l-0.5-19.1l0.4-0.7L154.2,97.1z"/>
		<path class="st2" d="M153.9,96.9l45.9-76.5c0.4,1.4,3.7,4.3,8,7c0.8,0.5,1.6,1,2.4,1.4l-39.7,65.1c-1.8-2.8-9.4,4.5-9.4,4.5
			c0.2-2-3-5.4-6.9-1.2L153.9,96.9z"/>
		<path class="st9" d="M210.2,28.7c4.1,2.2,7.4,3.3,8,2.5l0.4,0.2l-46,76.6c2.5-4.4-4.3-4-4.3-4.5c-0.1-0.5,4-6.8,2.2-9.7
			L210.2,28.7z"/>
	</g>
	<g>
		<path class="st5" d="M227.8,15.6c-0.5,0.8-4-0.3-8.1-2.6c-0.7-0.4-1.5-0.8-2.2-1.3c-5.1-3.1-8.7-6.5-8-7.5s5.2,0.7,10.3,3.8
			C224.8,11.2,228.5,14.5,227.8,15.6z"/>
		<path class="st5" d="M218.1,31.2c-0.5,0.8-3.9-0.2-8-2.5c-0.8-0.4-1.6-0.9-2.4-1.4c-4.3-2.7-7.6-5.6-8-7c-0.1-0.2-0.1-0.4,0-0.6"
			/>
		<polyline class="st5" points="172.6,108 218.5,31.4 228,15.7 228,15.6 		"/>
		<polyline class="st5" points="209.5,4.2 199.8,20.4 153.9,96.9 153.5,97.6 154,116.7 172.1,108.8 172.6,108 		"/>
		<path class="st5" d="M154.2,97.1c3.8-4.2,7.1-0.8,6.9,1.2c0,0,7.6-7.3,9.4-4.5s-2.2,9.2-2.2,9.7s6.8,0.1,4.3,4.5l0,0"/>
		<line class="st5" x1="154.7" y1="112.4" x2="158.2" y2="114.6"/>
		<polyline class="st6" points="220.4,12 219.7,13 210.2,28.7 170.5,93.8 		"/>
	</g>
</g>
</svg>
