<?xml version="1.0" encoding="utf-8"?>
<!-- Generator: Adobe Illustrator 22.0.0, SVG Export Plug-In . SVG Version: 6.00 Build 0)  -->
<svg version="1.1" id="Layer_3" xmlns="http://www.w3.org/2000/svg" xmlns:xlink="http://www.w3.org/1999/xlink" x="0px" y="0px"
	 viewBox="0 0 223.2 222.6" style="enable-background:new 0 0 223.2 222.6;" xml:space="preserve">
<style type="text/css">
	.st0{fill:#ADEBDA;}
	.st1{fill:#CFFFF0;}
	.st2{fill:#F9F5F4;}
	.st3{fill:#7CE5D6;}
	.st4{fill:none;stroke:#330303;stroke-width:3.743;stroke-linecap:round;stroke-linejoin:round;stroke-miterlimit:10;}
	.st5{fill:none;}
	.st6{fill:#FFBBC3;}
	.st7{fill:#FDE471;}
</style>
<polygon class="st0" points="186.9,74 221.7,62.4 222.7,162.7 186.9,156.9 "/>
<ellipse class="st1" cx="195" cy="103.3" rx="5.5" ry="13.5"/>
<g id="XMLID_9_">
	<g>
		<path class="st2" d="M178.1,130.8L178,131c-0.8,0.4-1.4,1-1.8,1.7l-0.8-0.3c0.6-8.4-7.9-9.8-7.9-9.8s6.8-1.4,3.7-7.3
			c-1.1-2-3.9-2.7-7.3-2.1l0-0.2c17.2-9.6,27.9-17.2,31-10.4c3.1,6.8-11.8,13.5-11.8,13.5s8.4-1.1,7.9,6.5c-0.2,2.7-1.7,5.1-3.6,6.7
			C184.4,131.6,180.7,132.5,178.1,130.8z"/>
		<path class="st2" d="M187.4,129.6c3.9,1.7,4.8,8.2-4,10.4c-0.6,0.2-1.2,0.3-1.8,0.3c-5.6,0.5-7.1-4.6-5.5-7.6
			c0.4-0.7,1-1.4,1.8-1.7l0.1-0.2c2.7,1.7,6.4,0.8,9.1-1.5L187.4,129.6z"/>
		<path class="st2" d="M181.8,141c0.1,4.3-7.1,8-11.1,7.2c0,0-3.8,55.5-51.4,50.6l-0.6,0c-0.5-10.1-2.1-20.3-4.5-30.1l0.8-0.2
			c24.3,5.9,29.4-24.9,32.2-39.3c1.9-9.4,10.2-15.1,16.7-16.2c3.4-0.6,6.2,0.1,7.3,2.1c3.1,5.9-3.7,7.3-3.7,7.3s8.4,1.4,7.9,9.8
			l0.8,0.3c-1.6,3-0.1,8.1,5.5,7.6L181.8,141z"/>
		<path class="st2" d="M34.4,159.4c-0.7,0.5-1.5,0.9-2.3,1.1c-5.1,1.6-10.6-1.6-12.3-7.2c-1.3-4.2-0.1-8.5,2.7-11.1
			c0.9-0.8,2-1.5,3.3-1.9c3.6-1.1,8.2-0.1,11.1,3.9l0.7-0.4c20.8-1.8,48.1-15,55.9-23.5c0.2-0.2,0.4-0.5,0.6-0.7l0.7,0.4
			c7.9,13.3,15,30.4,19.5,48.6c2.4,9.9,4,20.1,4.5,30.1c0.3,5.4,0.3,10.8-0.2,16.1H33.2c1.1-2.1,2.2-4.5,2.9-6.6l-0.3-0.9
			c-12.1,3.6-24.7,4.5-30.6-4.2c-11-16.3,16.3-34.6,31.5-38.3L37,165c-0.7-1.7-1.6-3.4-2.4-5.2L34.4,159.4z"/>
		<path class="st3" d="M84,104.3c-1-1.6-2-3.2-3-4.6l0.5-0.3c4.1-2.1,6.6-0.1,11.4,6.8c4.5,6.5,3.9,10.2,1.1,13.5
			c-0.2,0.2-0.4,0.5-0.6,0.7c-7.8,8.5-35.1,21.7-55.9,23.5l-0.7,0.4c-2.9-4-7.5-5-11.1-3.9c-1.2,0.4-2.4,1-3.3,1.9l-0.5-0.6
			c-6.8-12.5-6.6-16.3-4.5-18l0.7-0.2c0.4,1.2,0.8,2.5,1.2,3.8l0.7,0.2C36.8,127.6,75.5,113.8,84,104.3z"/>
		<path class="st2" d="M81,99.8c1,1.4,2,2.9,3,4.6c-8.5,9.4-47.2,23.3-64,23.1l-0.7-0.2c-0.5-1.3-0.9-2.6-1.2-3.8
			c-2.2-7.6-2.7-14.5-1-21.3C22.4,80.7,54,73.6,72.7,90.3C75.6,92.9,78.3,96,81,99.8z"/>
	</g>
	<g>
		<path class="st4" d="M25.5,185.6c15.8-3.4,25.3-8.4,32.7-14.9c4.6-4.1,6-7.8,7.6-9.6c1-1.1,2-1.6,3.9-1.2c1,0.2,1.7,0.6,2.2,1.2
			c2,2.1,0.6,6,0.6,6"/>
		<path class="st4" d="M67.2,170.1c5.4-3.4,31.9-6.1,29.8,2.2c-1.1,4.5-7,2.5-9.9,3.7"/>
		<path class="st4" d="M81.3,174.9c4,0.6,11.8,6.2,3.4,14.4"/>
		<path class="st4" d="M82.4,185.6c0.9,1.2,1.6,2.4,2.2,3.7c2.4,4.9,2.3,10.3-3.9,14.1c-7.9,4.8-11-3.1-7.3-5.3"/>
		<path class="st4" d="M78.7,195.5c-0.6,2.2-11.2,3.4-13.5-1.1c0,0-14.4,8.7-29.4,13.2c-12.1,3.6-24.7,4.5-30.6-4.2
			c-11-16.3,16.3-34.6,31.5-38.3"/>
		<path class="st4" d="M34.6,159.8c0.9,1.8,1.7,3.5,2.4,5.2c1,2.3,1.9,4.5,2.5,6.5"/>
		<path class="st4" d="M84,104.4C84,104.4,84,104.4,84,104.4c-1.1-1.7-2.1-3.2-3.1-4.6c-2.7-3.8-5.3-6.8-8.3-9.5
			C54,73.6,22.4,80.7,17.1,102.1c-1.7,6.8-1.3,13.7,1,21.3c0.4,1.2,0.8,2.5,1.2,3.8"/>
		<path class="st4" d="M118.3,217.6c0.1-0.8,0.2-1.7,0.2-2.5c0.4-5.3,0.4-10.7,0.2-16.1c-0.5-10.1-2.1-20.3-4.5-30.1
			c-4.4-18.2-11.6-35.3-19.5-48.6"/>
		<path class="st4" d="M114.9,168.6c24.3,5.9,29.4-24.9,32.2-39.3c1.9-9.4,10.2-15.1,16.7-16.2c3.4-0.6,6.2,0.1,7.3,2.1
			c3.1,5.9-3.7,7.3-3.7,7.3s8.4,1.4,7.9,9.8"/>
		<path class="st4" d="M163.8,113c17.2-9.6,27.9-17.2,31-10.4c3.1,6.8-11.8,13.5-11.8,13.5s8.4-1.1,7.9,6.5
			c-0.2,2.7-1.7,5.1-3.6,6.7c-2.7,2.3-6.4,3.2-9.1,1.5v0c-0.9-0.6-1.6-1.4-2.2-2.6c-2.5-5.3,7-7,7-7"/>
		<path class="st4" d="M187.4,129.6c3.9,1.7,4.8,8.2-4,10.4c-0.6,0.2-1.2,0.3-1.8,0.3c-5.6,0.5-7.1-4.6-5.5-7.6
			c0.4-0.7,1-1.4,1.8-1.7"/>
		<path class="st4" d="M181.8,141c0.1,4.3-7.1,8-11.1,7.2c0,0-3.8,55.5-51.4,50.6"/>
		<path class="st4" d="M36.1,208.4c-0.7,2.1-1.8,4.5-2.9,6.6c-1.6,3.2-3.2,5.8-3.2,5.8"/>
		<path class="st4" d="M37.8,155c-0.7,1.8-1.9,3.4-3.5,4.4c-0.7,0.5-1.5,0.9-2.3,1.1c-5.1,1.6-10.6-1.6-12.3-7.2
			c-1.3-4.2-0.1-8.5,2.7-11.1c0.9-0.8,2-1.5,3.3-1.9c3.6-1.1,8.2-0.1,11.1,3.9c0.2,0.2,0.3,0.4,0.4,0.6"/>
		<path class="st4" d="M30.9,151.6c0.7-2-3.3-4.3-4.3-1.7"/>
		<path class="st4" d="M37.5,143.9c20.8-1.8,48.1-15,55.9-23.5c0.2-0.2,0.4-0.5,0.6-0.7c2.8-3.3,3.3-7.1-1.1-13.5
			c-4.8-6.9-7.3-8.9-11.4-6.8"/>
		<path class="st4" d="M20.1,127.5c16.7,0.1,55.5-13.7,64-23.1c0.4-0.4,0.7-0.8,0.9-1.2"/>
		<path class="st4" d="M17.4,123.7c-2.1,1.7-2.2,5.5,4.5,18"/>
		<polyline class="st5" points="26.7,215 33.2,215 118.5,215 163.9,215 		"/>
	</g>
</g>
<path class="st4" d="M73.4,146.3c2.8,1.1,6.3-0.5,6.3-0.5"/>
<path class="st4" d="M86.6,127c0.2,3.6-1.6,4.6-4.4,6.1"/>
<path class="st6" d="M177.5,77c0-1.9,0-37.8,0-37.8l-20.2,10.1l0.6,32.1L177.5,77z"/>
<polygon class="st7" points="191.6,38.7 191.6,14.4 209.5,1.7 209,33.9 "/>
</svg>
