<?xml version="1.0" encoding="utf-8"?>
<!-- Generator: Adobe Illustrator 22.0.0, SVG Export Plug-In . SVG Version: 6.00 Build 0)  -->
<svg version="1.1" id="Layer_3" xmlns="http://www.w3.org/2000/svg" xmlns:xlink="http://www.w3.org/1999/xlink" x="0px" y="0px"
	 viewBox="0 0 224.9 124.8" style="enable-background:new 0 0 224.9 124.8;" xml:space="preserve">
<style type="text/css">
	.st0{fill:#FFA1A8;}
	.st1{fill:#FFD071;}
	.st2{fill:#FFF8EE;}
	.st3{fill:#ADEBDA;}
	.st4{fill:#DDAC99;}
	.st5{fill:#B58879;}
	.st6{fill:#FFD0AC;}
	.st7{fill:#FFEBD2;}
	.st8{fill:none;stroke:#330303;stroke-width:3.743;stroke-linecap:round;stroke-linejoin:round;stroke-miterlimit:10;}
	.st9{fill:none;stroke:#330303;stroke-width:3.743;stroke-linejoin:round;stroke-miterlimit:10;}
	.st10{fill:none;stroke:#330303;stroke-width:1.5592;stroke-linecap:round;stroke-linejoin:round;stroke-miterlimit:10;}
	.st11{fill:none;}
</style>
<g id="XMLID_3_">
	<g>
		<path class="st0" d="M49.3,65.4c1.2,0.9,0.6,3.8-1.4,6.4c-1.9,2.5-4.3,3.8-5.6,3.2l-0.4-0.3c-1.1-1-0.4-3.8,1.5-6.3
			C45.4,65.8,48,64.5,49.3,65.4z"/>
		<path class="st0" d="M49.3,65.3l9.2,6.8l-0.1,0.2c1.2,0.9,0.6,3.7-1.3,6.2c-1.9,2.5-4.4,3.8-5.6,2.9l-0.2,0.3l-9-6.7
			c1.3,0.6,3.7-0.7,5.6-3.2C49.9,69.2,50.5,66.3,49.3,65.3L49.3,65.3z"/>
		<path class="st1" d="M83.8,90.9l18.7,13.9c0.1,0.1,0.2,0.1,0.3,0.2c-2.3-1.4-2.2,2.2-2.5,2.2s-4-2.9-5.7-2.1
			c-1.7,0.8,2.5,5.8,2.5,5.8c-1.2-0.3-3.3,1.2-0.9,3.8l-0.1,0.1c-0.3-0.1-0.5-0.3-0.8-0.5l-15.6-11.6l-0.3-0.3l-12.3-9.1L51.3,81.7
			l0.2-0.3c1.2,0.9,3.7-0.4,5.6-2.9c1.9-2.5,2.5-5.3,1.3-6.2l0.1-0.2l5.9,4.4l8,5.9c-2.7,6.7,5.9,11.6,10.8,8.4L83.8,90.9L83.8,90.9
			z"/>
		<path class="st2" d="M100.3,107.3c0.3,0,0.2-3.6,2.5-2.2c0.5,0.4,0.9,1,1.2,1.7l3.9,9.9l-10.1-1.3c-0.6-0.1-1.2-0.3-1.7-0.5
			l0.1-0.1c-2.4-2.6-0.3-4.1,0.9-3.8c0,0-4.2-5-2.5-5.8C96.3,104.4,100,107.2,100.3,107.3z"/>
		<path class="st0" d="M183.2,49.3c0.1,0.1,0.2,0.1,0.3,0.2c0.9,0.7,0.8,2.5-0.2,4.5c-0.3,0.6-0.7,1.3-1.2,1.9c-2,2.6-4.6,4-5.9,3.1
			c-1.2-0.9-0.6-3.8,1.4-6.5C179.5,50.1,181.9,48.7,183.2,49.3z"/>
		<path class="st0" d="M177.6,52.5c-2,2.6-2.6,5.5-1.4,6.5l-0.1,0.1l-9.2-6.8l0.1-0.2c-1.2-0.9-0.6-3.7,1.3-6.2s4.4-3.8,5.6-2.9
			l0.2-0.3l9,6.6C181.9,48.7,179.5,50.1,177.6,52.5z"/>
		<path class="st3" d="M168.4,38.3l5.8,4.3l-0.2,0.3c-1.2-0.9-3.7,0.4-5.6,2.9s-2.5,5.3-1.3,6.2l-0.1,0.2L153.2,42l0,0
			c2.2-7.2-6.6-11.9-11.3-8.2l-0.2-0.3L123,19.6c-0.1-0.1-0.2-0.1-0.2-0.2c2.3,1.4,2.2-2.3,2.5-2.2c0.3,0,4,2.9,5.7,2.1
			c1.7-0.8-2.5-5.8-2.5-5.8c1.2,0.3,3.3-1.2,0.9-3.8l0.1-0.2c0.1,0,0.1,0.1,0.2,0.1l16.2,12l0.3,0.3L168.4,38.3z"/>
		<path class="st4" d="M176.2,59L176.2,59c1.3,0.9,3.9-0.5,5.9-3.1c0.5-0.6,0.9-1.3,1.2-1.9l0.7,0.2c5.3,0,7.6,1.7,13.9,8.9
			c1.5,1.7,3.5,3.8,5.5,6.1c-9.5,4.2-19.9,11.9-23.5,22.2l-0.1,0.1l-21.4-23.3c0,0-10.3,1.9-17.7-1.9c-7.4-3.8-13.4-21,1-32.5l0,0
			c4.8-3.7,13.5,1.1,11.3,8.2l0,0l13.8,10.2L176.2,59z"/>
		<path class="st4" d="M173.7,15.7l0.6-0.1c6.7-1,10.1,0.7,11.9,2.9l-0.1,0.1c4.8,14.8-7.8,22.1-17.1,19l-0.6,0.8l-22.3-16.5
			l0.2-0.3c1.2-6.5,4.8-15.8,14.6-17.2C168,3.3,172.3,8.4,173.7,15.7z"/>
		<path class="st5" d="M186.2,18.5c2.4,3.1,1.6,7.2,1.6,7.2s3.3-8.6,7.1-15.7c3.4-6.4,9.7-9.7,12.9-6.9c5.7,5.1-7.9,11.9-4.6,28.9
			c2.5,13.1,1.5,17.9,1.5,17.9l13.9,14.8l-0.6,0.6c-3.5-0.1-8.8,1.2-14.5,3.7c-2.1-2.2-4-4.3-5.5-6.1c-6.3-7.2-8.6-8.9-13.9-8.9
			l-0.7-0.2c1-2,1.1-3.8,0.2-4.5c-0.1-0.1-0.2-0.1-0.3-0.2l-9-6.6l-5.8-4.3l0.6-0.8C178.3,40.7,190.9,33.3,186.2,18.5L186.2,18.5z"
			/>
		<path class="st6" d="M67.1,93.4l12.3,9.1l-0.2,0.3c-1.2,6.5-4.8,15.8-14.6,17.2c-7,1-11.3-4-12.7-11.4c-0.4-2-0.5-4.2-0.4-6.4h0.1
			C54.1,113.9,69,102.7,67.1,93.4z"/>
		<path class="st6" d="M65.1,75.7c8.3,0.4,9.4-8.8,1.1-12.6c-1.3-0.6-2.6-1.4-3.7-2.4l-28-27.3c4.2-0.9,7.9-1.1,10.1-0.7l0.4-0.4
			l21.9,24c0,0,10.3-1.9,17.7,1.9s13.4,21-1.1,32.5c-0.1,0.1-0.3,0.2-0.4,0.3c-4.9,3.2-13.5-1.7-10.8-8.4l-8-5.9L65.1,75.7z"/>
		<path class="st7" d="M51.4,102.2L51.4,102.2c-0.2,2.3,0,4.4,0.4,6.4l-0.6,0.1C35.4,111,37.7,98.6,37.7,98.6s-3.3,8.6-7.1,15.7
			c-3.5,6.4-9.7,9.7-12.9,6.9c-5.7-5.1,7.9-11.9,4.6-28.9c-2.5-13.1-1.5-17.9-1.5-17.9L4.6,57.1l0.2-0.2
			c4.4-14.3,18.9-21.2,29.7-23.5l28,27.3c1.1,1,2.3,1.8,3.7,2.4c8.3,3.8,7.2,12.9-1.1,12.6l-0.7,0.9l-5.9-4.4l-9.2-6.9l-0.1,0.1
			c-1.2-0.9-3.9,0.4-5.9,3.1c-1.9,2.5-2.6,5.3-1.5,6.3c0,0.1,0.1,0.1,0.1,0.1c0.1,0.1,0.2,0.1,0.3,0.2l9,6.7L67,93.5
			C69,102.7,54.1,113.9,51.4,102.2z"/>
	</g>
	<g>
		<path class="st8" d="M176.2,59c-1.2-0.9-0.6-3.8,1.4-6.5c1.9-2.4,4.2-3.8,5.6-3.2c0.1,0.1,0.2,0.1,0.3,0.2
			c0.9,0.7,0.8,2.5-0.2,4.5c-0.3,0.6-0.7,1.3-1.2,1.9C180.1,58.5,177.5,59.9,176.2,59z"/>
		<path class="st8" d="M167.1,52c-1.2-0.9-0.6-3.7,1.3-6.2s4.4-3.8,5.6-2.9"/>
		<polyline class="st8" points="153.2,42 167,52.2 176.2,59 176.4,59.2 		"/>
		<path class="st8" d="M183.6,49.6l-0.4-0.3l-9-6.6l-5.8-4.3l-22.3-16.5l-0.3-0.3l-16.2-12c-0.1-0.1-0.1-0.1-0.2-0.1
			c-0.3-0.2-0.7-0.4-1.1-0.4l-10.7-1.3l3.8,9.9c0.3,0.7,0.7,1.2,1.2,1.7c0.1,0.1,0.2,0.2,0.2,0.2l18.7,13.9"/>
		<path class="st8" d="M129.3,9.6c2.4,2.6,0.3,4.1-0.9,3.8c0,0,4.2,5,2.5,5.8s-5.4-2.1-5.7-2.1c-0.3,0-0.2,3.6-2.5,2.2
			c-0.1,0-0.2-0.1-0.3-0.2"/>
		<line class="st8" x1="120.2" y1="8.5" x2="118.8" y2="10.3"/>
		<path class="st8" d="M156.9,29.4c0.3-1.8,1.5-4.4,1.3-6"/>
		<path class="st8" d="M173.2,29.4c1.1-4.8,1.2-9.6,0.5-13.7C172.3,8.4,168,3.3,161,4.3c-9.8,1.4-13.5,10.7-14.6,17.2"/>
		<path class="st8" d="M222.7,69.4l-4.2-4.6L204.6,50c0,0,1-4.9-1.5-17.9c-3.3-17,10.3-23.8,4.6-28.9c-3.3-2.9-9.5,0.4-12.9,6.9
			c-3.8,7.1-7.1,15.7-7.1,15.7s0.8-4.1-1.6-7.2c-1.8-2.2-5.2-3.9-11.9-2.9"/>
		<path class="st8" d="M181.9,93.6l-2-2.2l-21.4-23.3c0,0-10.3,1.9-17.7-1.9c-7.4-3.8-13.4-21,1-32.5l0,0c4.8-3.7,13.5,1.1,11.3,8.2
			l0,0c-0.1,0.5-0.3,1-0.6,1.5"/>
		<polyline class="st8" points="117.6,7.7 82.1,20.8 85.3,31.2 74.2,35.7 78.6,50.2 		"/>
		<path class="st8" d="M49.3,65.4c1.2,0.9,0.6,3.8-1.4,6.4c-1.9,2.5-4.3,3.8-5.6,3.2c-0.1,0-0.2-0.1-0.3-0.2c-0.1,0-0.1-0.1-0.1-0.1
			c-1.1-1-0.4-3.8,1.5-6.3C45.4,65.8,48,64.5,49.3,65.4z"/>
		<path class="st8" d="M58.4,72.4c1.2,0.9,0.6,3.7-1.3,6.2c-1.9,2.5-4.4,3.8-5.6,2.9"/>
		<polyline class="st9" points="49.1,65.2 49.3,65.3 58.5,72.2 64.5,76.6 72.5,82.5 72.7,82.7 		"/>
		<path class="st8" d="M41.9,74.8l0.4,0.3l9,6.7l15.8,11.7l12.3,9.1l0.3,0.3l15.6,11.6c0.2,0.2,0.5,0.3,0.8,0.5
			c0.5,0.3,1.1,0.5,1.7,0.5l10.1,1.3l-3.9-9.9c-0.3-0.6-0.6-1.2-1.2-1.7c-0.1-0.1-0.2-0.2-0.3-0.2L83.8,91.1"/>
		<path class="st8" d="M96.1,114.7c-2.4-2.6-0.3-4.1,0.9-3.8c0,0-4.2-5-2.5-5.8s5.4,2.1,5.7,2.1s0.2-3.6,2.5-2.2
			c0.1,0,0.2,0.1,0.3,0.2"/>
		<line class="st8" x1="105.3" y1="115.9" x2="106.7" y2="114"/>
		<path class="st10" d="M68.6,94.9c-0.3,1.8-0.8,3.6-0.7,5.2"/>
		<path class="st8" d="M52.3,95c-0.6,2.5-0.9,4.9-0.9,7.3c-0.1,2.3,0.1,4.4,0.4,6.4c1.4,7.3,5.7,12.4,12.7,11.4
			c9.8-1.4,13.5-10.7,14.6-17.2"/>
		<path class="st8" d="M2.7,55l1.9,2.1l16.2,17.3c0,0-1.1,4.8,1.5,17.9c3.3,17-10.3,23.8-4.6,28.9c3.3,2.9,9.5-0.4,12.9-6.9
			c3.8-7.1,7.1-15.7,7.1-15.7s-2.3,12.4,13.5,10.1"/>
		<path class="st8" d="M43.6,30.8l1.4,1.6l21.9,24c0,0,10.3-1.9,17.7,1.9s13.4,21-1.1,32.5c-0.1,0.1-0.3,0.2-0.4,0.3
			c-4.9,3.2-13.5-1.7-10.8-8.4c0.2-0.4,0.4-0.9,0.7-1.3"/>
		<path class="st8" d="M107.9,116.7l48.7-19c0.6-0.3,0.9-0.9,0.7-1.6L148,68.9"/>
		<line class="st8" x1="74.2" y1="35.7" x2="82.1" y2="20.8"/>
		<path class="st11" d="M51.4,102.2c2.7,11.7,17.6,0.4,15.6-8.8c0-0.1,0-0.2-0.1-0.3"/>
		<path class="st11" d="M65.1,75.7c8.3,0.4,9.4-8.8,1.1-12.6c-1.3-0.6-2.6-1.4-3.7-2.4l-28-27.3l-3.4-3.3"/>
		<path class="st11" d="M44.7,32.7c-2.3-0.4-5.9-0.2-10.1,0.7C23.8,35.7,9.3,42.6,4.9,56.9"/>
		<path class="st11" d="M39,102.6c4.7,4.6,11.8,0.8,12.6-6.3"/>
		<path class="st11" d="M169,37.5c9.3,3.2,21.9-4.2,17.1-19"/>
		<path class="st11" d="M184,54.2c5.3,0,7.6,1.7,13.9,8.9c1.5,1.7,3.5,3.8,5.5,6.1c6.6,7.1,14.7,15.2,14.7,15.2"/>
		<path class="st11" d="M217.9,65.4c-3.5-0.1-8.8,1.2-14.5,3.7c-9.5,4.2-19.9,11.9-23.5,22.2"/>
	</g>
</g>
</svg>
