<svg id="Layer_1" data-name="Layer 1" xmlns="http://www.w3.org/2000/svg" viewBox="0 0 232 290"><defs><style>.cls-1{fill:#adebda;}.cls-2{fill:#cffff0;}.cls-3{fill:#f9f5f4;}.cls-4{fill:#7ce5d6;}.cls-5{fill:none;stroke:#330303;stroke-linecap:round;stroke-linejoin:round;stroke-width:3.74px;}.cls-6{fill:#ffbbc3;}.cls-7{fill:#fde471;}</style></defs><title>2-diversity</title><polygon class="cls-1" points="188.9 108 223.7 96.4 224.7 196.7 188.9 190.9 188.9 108"/><ellipse class="cls-2" cx="197" cy="137.3" rx="5.5" ry="13.5"/><g id="_Group_" data-name="&lt;Group&gt;"><path class="cls-3" d="M180.1,164.8l-.1.2a4.24,4.24,0,0,0-1.8,1.7l-.8-.3c.6-8.4-7.9-9.8-7.9-9.8s6.8-1.4,3.7-7.3c-1.1-2-3.9-2.7-7.3-2.1V147c17.2-9.6,27.9-17.2,31-10.4s-11.8,13.5-11.8,13.5,8.4-1.1,7.9,6.5a9.93,9.93,0,0,1-3.6,6.7C186.4,165.6,182.7,166.5,180.1,164.8Z"/><path class="cls-3" d="M189.4,163.6c3.9,1.7,4.8,8.2-4,10.4a5.66,5.66,0,0,1-1.8.3c-5.6.5-7.1-4.6-5.5-7.6a3.72,3.72,0,0,1,1.8-1.7l.1-.2c2.7,1.7,6.4.8,9.1-1.5Z"/><path class="cls-3" d="M183.8,175c.1,4.3-7.1,8-11.1,7.2,0,0-3.8,55.5-51.4,50.6h-.6a160.88,160.88,0,0,0-4.5-30.1l.8-.2c24.3,5.9,29.4-24.9,32.2-39.3,1.9-9.4,10.2-15.1,16.7-16.2,3.4-.6,6.2.1,7.3,2.1,3.1,5.9-3.7,7.3-3.7,7.3s8.4,1.4,7.9,9.8l.8.3c-1.6,3-.1,8.1,5.5,7.6Z"/><path class="cls-3" d="M36.4,193.4a7,7,0,0,1-2.3,1.1c-5.1,1.6-10.6-1.6-12.3-7.2a10.78,10.78,0,0,1,2.7-11.1,8.94,8.94,0,0,1,3.3-1.9,10.06,10.06,0,0,1,11.1,3.9l.7-.4c20.8-1.8,48.1-15,55.9-23.5.2-.2.4-.5.6-.7l.7.4a184.08,184.08,0,0,1,19.5,48.6,163.38,163.38,0,0,1,4.5,30.1,108,108,0,0,1-.2,16.1H35.2a47.36,47.36,0,0,0,2.9-6.6l-.3-.9c-12.1,3.6-24.7,4.5-30.6-4.2-11-16.3,16.3-34.6,31.5-38.3l.3.2c-.7-1.7-1.6-3.4-2.4-5.2Z"/><path class="cls-4" d="M86,138.3c-1-1.6-2-3.2-3-4.6l.5-.3c4.1-2.1,6.6-.1,11.4,6.8,4.5,6.5,3.9,10.2,1.1,13.5-.2.2-.4.5-.6.7-7.8,8.5-35.1,21.7-55.9,23.5l-.7.4a10.06,10.06,0,0,0-11.1-3.9,8.4,8.4,0,0,0-3.3,1.9l-.5-.6c-6.8-12.5-6.6-16.3-4.5-18l.7-.2c.4,1.2.8,2.5,1.2,3.8l.7.2C38.8,161.6,77.5,147.8,86,138.3Z"/><path class="cls-3" d="M83,133.8c1,1.4,2,2.9,3,4.6-8.5,9.4-47.2,23.3-64,23.1l-.7-.2a33,33,0,0,1-1.2-3.8c-2.2-7.6-2.7-14.5-1-21.3,5.3-21.5,36.9-28.6,55.6-11.9A56.48,56.48,0,0,1,83,133.8Z"/><path class="cls-5" d="M27.5,219.6c15.8-3.4,25.3-8.4,32.7-14.9,4.6-4.1,6-7.8,7.6-9.6a3.57,3.57,0,0,1,3.9-1.2,3.64,3.64,0,0,1,2.2,1.2c2,2.1.6,6,.6,6"/><path class="cls-5" d="M69.2,204.1c5.4-3.4,31.9-6.1,29.8,2.2-1.1,4.5-7,2.5-9.9,3.7"/><path class="cls-5" d="M83.3,208.9c4,.6,11.8,6.2,3.4,14.4"/><path class="cls-5" d="M84.4,219.6a20,20,0,0,1,2.2,3.7c2.4,4.9,2.3,10.3-3.9,14.1-7.9,4.8-11-3.1-7.3-5.3"/><path class="cls-5" d="M80.7,229.5c-.6,2.2-11.2,3.4-13.5-1.1,0,0-14.4,8.7-29.4,13.2-12.1,3.6-24.7,4.5-30.6-4.2-11-16.3,16.3-34.6,31.5-38.3"/><path class="cls-5" d="M36.6,193.8c.9,1.8,1.7,3.5,2.4,5.2a60.78,60.78,0,0,1,2.5,6.5"/><path class="cls-5" d="M86,138.4h0c-1.1-1.7-2.1-3.2-3.1-4.6a56,56,0,0,0-8.3-9.5c-18.6-16.7-50.2-9.6-55.5,11.8-1.7,6.8-1.3,13.7,1,21.3.4,1.2.8,2.5,1.2,3.8"/><path class="cls-5" d="M120.3,251.6a21.05,21.05,0,0,0,.2-2.5,143.85,143.85,0,0,0,.2-16.1,160.88,160.88,0,0,0-4.5-30.1,180.75,180.75,0,0,0-19.5-48.6"/><path class="cls-5" d="M116.9,202.6c24.3,5.9,29.4-24.9,32.2-39.3,1.9-9.4,10.2-15.1,16.7-16.2,3.4-.6,6.2.1,7.3,2.1,3.1,5.9-3.7,7.3-3.7,7.3s8.4,1.4,7.9,9.8"/><path class="cls-5" d="M165.8,147c17.2-9.6,27.9-17.2,31-10.4S185,150.1,185,150.1s8.4-1.1,7.9,6.5a9.93,9.93,0,0,1-3.6,6.7c-2.7,2.3-6.4,3.2-9.1,1.5h0a6.37,6.37,0,0,1-2.2-2.6c-2.5-5.3,7-7,7-7"/><path class="cls-5" d="M189.4,163.6c3.9,1.7,4.8,8.2-4,10.4a5.66,5.66,0,0,1-1.8.3c-5.6.5-7.1-4.6-5.5-7.6a3.72,3.72,0,0,1,1.8-1.7"/><path class="cls-5" d="M183.8,175c.1,4.3-7.1,8-11.1,7.2,0,0-3.8,55.5-51.4,50.6"/><path class="cls-5" d="M38.1,242.4a47.36,47.36,0,0,1-2.9,6.6c-1.6,3.2-3.2,5.8-3.2,5.8"/><path class="cls-5" d="M39.8,189a9,9,0,0,1-3.5,4.4,7,7,0,0,1-2.3,1.1c-5.1,1.6-10.6-1.6-12.3-7.2a10.78,10.78,0,0,1,2.7-11.1,8.94,8.94,0,0,1,3.3-1.9,10.06,10.06,0,0,1,11.1,3.9,2.09,2.09,0,0,1,.4.6"/><path class="cls-5" d="M32.9,185.6c.7-2-3.3-4.3-4.3-1.7"/><path class="cls-5" d="M39.5,177.9c20.8-1.8,48.1-15,55.9-23.5.2-.2.4-.5.6-.7,2.8-3.3,3.3-7.1-1.1-13.5-4.8-6.9-7.3-8.9-11.4-6.8"/><path class="cls-5" d="M22.1,161.5c16.7.1,55.5-13.7,64-23.1a4.7,4.7,0,0,0,.9-1.2"/><path class="cls-5" d="M19.4,157.7c-2.1,1.7-2.2,5.5,4.5,18"/></g><path class="cls-5" d="M75.4,180.3c2.8,1.1,6.3-.5,6.3-.5"/><path class="cls-5" d="M88.6,161c.2,3.6-1.6,4.6-4.4,6.1"/><path class="cls-6" d="M179.5,111V73.2L159.3,83.3l.6,32.1Z"/><polygon class="cls-7" points="193.6 72.7 193.6 48.4 211.5 35.7 211 67.9 193.6 72.7"/></svg>