<svg id="Layer_1" data-name="Layer 1" xmlns="http://www.w3.org/2000/svg" viewBox="0 0 280 235.76"><defs><style>.cls-1{fill:#eae4e4;}.cls-2{fill:#fff;}.cls-3{fill:#7ce5d6;}.cls-4{fill:#ffdeab;}.cls-5{fill:#f9f5f4;}.cls-6{fill:#adebda;}.cls-7{fill:#cffff0;}.cls-8{fill:#ddac99;}.cls-9{fill:#ffebd2;}.cls-10{fill:#b58879;}.cls-11{fill:none;stroke:#330303;stroke-linecap:round;stroke-linejoin:round;stroke-width:3.74px;}</style></defs><title>2-diversity</title><g id="_Group_" data-name="&lt;Group&gt;"><path class="cls-1" d="M142.75,69.87h-7.5C135.75,63.5,142.12,64.12,142.75,69.87Z"/><path class="cls-2" d="M149.49,92.35a4,4,0,0,1,0,1.25,3.72,3.72,0,0,1-3.37,2.88l-14.24.25a3.51,3.51,0,0,1-3.5-2.88,2.2,2.2,0,0,1,0-1.25L132,72.87A3.62,3.62,0,0,1,135.5,70H143a3.61,3.61,0,0,1,3.5,3Z"/><path class="cls-1" d="M131.88,72.87,128.26,92.6a2.05,2.05,0,0,0,0,1.25h0l-12,6.62a4.85,4.85,0,0,0-2.25,5.87L126.51,141a4.23,4.23,0,0,1,.25,1.75,4.38,4.38,0,0,1-1.5,2.87L123,147.44l-1.5,1.25a2.46,2.46,0,0,1-3.75-.75l-20-42.6a8.77,8.77,0,0,1,2.87-10.74Z"/><path class="cls-1" d="M178.1,94.48A8.57,8.57,0,0,1,181,105.22l-20,42.6a2.24,2.24,0,0,1-2.75,1.25,2.05,2.05,0,0,1-.88-.5l-3.74-3.25a4.08,4.08,0,0,1-1.25-4.62l12.49-34.61a5,5,0,0,0-2.13-5.87l-12-6.62-1-.12a2,2,0,0,0,0-1.25L146.5,72.74h.62Z"/><path class="cls-2" d="M152.37,203.53s7.62,6.87,2.87,9.49-10.12-4.24-10.62-6.49a36.23,36.23,0,0,1-.37-3.75h.37c1.75,2.75,5.87,2.25,7.75.13h.12Z"/><path class="cls-2" d="M138.13,204.53c-.63,5.75-9.62,11-13,8.12s3.75-10,3.75-10c3.62,1.87,7.87.5,9.12-1.13h.38A27.88,27.88,0,0,0,138.13,204.53Z"/><path class="cls-3" d="M130.51,175.17a1.61,1.61,0,0,0,.37-1.74l.25-.13c4.12,1.62,17.86-.37,19.74-2.37h.37c-.87,2.25-3.25,3.49-2.87,5.49.5,2.5,3.75-.62,5.37.38l-1.25,26.11h-.12c-1.88,2.12-6,2.62-7.75-.13h-.37c-.5-6-1.13-16.74-1.13-16.74l-.25-.62A28.21,28.21,0,0,0,139.5,187h0s-.62,8.62-1.12,14.62H138c-1.25,1.62-5.5,3-9.12,1.12V177.3l-3.37-.13c.12-.5.25-.87.5-1C127.13,175.8,128.76,177.17,130.51,175.17Z"/><path class="cls-4" d="M151.87,167.18c2,1.25,5,.5,6-.13h.5a7,7,0,0,0,.5,3.38c.75,1.62,4.87,4.74,3.75,6.12s-4.25-.25-4.25-.25c.13.37,1.25,4.12-.5,5.24s-2.5-3.74-4.12-4.74-4.87,2.25-5.37-.38c-.38-2.12,2-3.37,2.87-5.49a6.13,6.13,0,0,0,.25-1.63v-2.12Z"/><path class="cls-4" d="M128.88,170.43c0,.62,1.63,1.75,2,3a1.88,1.88,0,0,1-.37,1.74c-1.75,2-3.38.63-4.5,1-.25.13-.38.5-.5,1-.25,1.5,0,4.25-1.5,4.5-2.12.37-2.5-5.37-2.5-5.37s-2.75,2.75-4.12,1,1.75-3.63,2.5-4.62c.5-.63,1.12-.63,1.5-4.25h1c1.87,1.75,4.62,1.12,6.37-.38h.12A13.11,13.11,0,0,1,128.88,170.43Z"/><path class="cls-5" d="M129,168.05h-.13c-1.75,1.63-4.5,2.13-6.37.38h-1a108.54,108.54,0,0,0,.38-11.24,26.8,26.8,0,0,1,1.5-9.5l-.25-.25,2.24-1.87a4.3,4.3,0,0,0,1.5-2.87h.25c3.25-2.38,7.25-2.63,10.37-3,4-.63,10.49-.88,14.74,1.25h.13a4.08,4.08,0,0,0,1.25,4.62l3.74,3.25a3.29,3.29,0,0,0,.88.5l-.13.25a23.34,23.34,0,0,1,.25,3.12c0,7.87-.12,12.12,0,14.49h-.5c-1,.62-4,1.37-6,.12h-.38v2.13a6.12,6.12,0,0,1-.25,1.62h-.37c-1.88,2-15.62,4-19.74,2.38l-.25.12c-.37-1.25-2-2.37-2-3C128.88,170.18,129,169.3,129,168.05Z"/><path class="cls-5" d="M268,226.14v6H238.31v-6a14.82,14.82,0,0,1,14.87-14.86h0A14.89,14.89,0,0,1,268,226.14Z"/><path class="cls-5" d="M232.81,226.14v6H203.08v-6A14.82,14.82,0,0,1,218,211.28a14.4,14.4,0,0,1,10.49,4.37A14.61,14.61,0,0,1,232.81,226.14Z"/><path class="cls-6" d="M197.59,226.14v6H167.86v-6a14.82,14.82,0,0,1,14.86-14.86,14.4,14.4,0,0,1,10.49,4.37A15.13,15.13,0,0,1,197.59,226.14Z"/><path class="cls-5" d="M116.52,226.14v6H86.78v-6a14.83,14.83,0,0,1,14.87-14.86,14.4,14.4,0,0,1,10.49,4.37A14.62,14.62,0,0,1,116.52,226.14Z"/><path class="cls-6" d="M81.29,226.14v6H51.56v-6a14.82,14.82,0,0,1,14.86-14.86h0A14.9,14.9,0,0,1,81.29,226.14Z"/><path class="cls-7" d="M46.06,226.14v6H16.33v-6A14.82,14.82,0,0,1,31.2,211.28a14.4,14.4,0,0,1,10.49,4.37A15.16,15.16,0,0,1,46.06,226.14Z"/><circle class="cls-4" cx="253.18" cy="199.66" r="7.37"/><path class="cls-4" d="M139,120.46a7.62,7.62,0,0,1,0,15.24,7.65,7.65,0,0,1-7.62-7.62A7.57,7.57,0,0,1,139,120.46Z"/><circle class="cls-4" cx="182.6" cy="199.66" r="7.37"/><circle class="cls-8" cx="219.82" cy="197.78" r="7.37"/><circle class="cls-9" cx="66.42" cy="199.65" r="7.37" transform="translate(-19.35 7.52) rotate(-5.66)"/><circle class="cls-8" cx="101.65" cy="199.66" r="7.37"/><circle class="cls-10" cx="29.82" cy="199.16" r="6.75"/><path class="cls-11" d="M16.21,232.14v-6a14.82,14.82,0,0,1,14.86-14.86,14.4,14.4,0,0,1,10.49,4.37,14.62,14.62,0,0,1,4.38,10.49v6"/><circle class="cls-11" cx="29.82" cy="199.16" r="6.75"/><path class="cls-11" d="M51.56,232.14v-6a14.82,14.82,0,0,1,14.86-14.86h0a14.82,14.82,0,0,1,14.87,14.86v6"/><circle class="cls-11" cx="66.42" cy="199.65" r="7.37" transform="translate(-19.35 7.52) rotate(-5.66)"/><path class="cls-11" d="M86.78,232.14v-6a14.83,14.83,0,0,1,14.87-14.86,14.4,14.4,0,0,1,10.49,4.37,14.62,14.62,0,0,1,4.38,10.49v6"/><circle class="cls-11" cx="101.65" cy="199.66" r="7.37"/><path class="cls-11" d="M167.73,232.14v-6a14.82,14.82,0,0,1,14.87-14.86,14.4,14.4,0,0,1,10.49,4.37,14.61,14.61,0,0,1,4.37,10.49v6"/><circle class="cls-11" cx="182.6" cy="199.66" r="7.37"/><path class="cls-11" d="M146.5,128.08a7.62,7.62,0,1,1-15.24,0,7.65,7.65,0,0,1,7.62-7.62A7.57,7.57,0,0,1,146.5,128.08Z"/><path class="cls-11" d="M203.08,232.14v-6A14.82,14.82,0,0,1,218,211.28a14.4,14.4,0,0,1,10.49,4.37,14.61,14.61,0,0,1,4.37,10.49v6"/><circle class="cls-11" cx="219.82" cy="197.78" r="7.37"/><path class="cls-11" d="M238.31,232.14v-6a14.82,14.82,0,0,1,14.87-14.86h0A14.82,14.82,0,0,1,268,226.14v6"/><circle class="cls-11" cx="253.18" cy="199.66" r="7.37"/><path class="cls-11" d="M158.36,176.3c.13.37,1.25,4.12-.5,5.24s-2.5-3.74-4.12-4.74-4.87,2.25-5.37-.38c-.38-2.12,2-3.37,2.87-5.49a6.13,6.13,0,0,0,.25-1.63v-2.12c-.12-4-.37-9.87-.37-9.87"/><path class="cls-11" d="M158.11,149.32a23.34,23.34,0,0,1,.25,3.12c0,7.87-.12,12.12,0,14.49a7,7,0,0,0,.5,3.37c.75,1.63,4.87,4.75,3.75,6.12s-4.25-.25-4.25-.25h0"/><path class="cls-11" d="M127,142.57c3.25-2.37,7.24-2.62,10.37-3,4-.62,10.49-.87,14.74,1.25"/><path class="cls-11" d="M129.26,156.56s-.25,7.5-.38,11.37v2.37c0,.63,1.63,1.75,2,3a1.9,1.9,0,0,1-.37,1.75c-1.75,2-3.38.62-4.5,1-.25.12-.38.5-.5,1-.25,1.5,0,4.24-1.5,4.49-2.12.38-2.5-5.37-2.5-5.37s-2.75,2.75-4.12,1,1.75-3.62,2.5-4.62c.5-.62,1.12-.62,1.5-4.25a109.32,109.32,0,0,0,.37-11.24,27,27,0,0,1,1.5-9.49"/><path class="cls-11" d="M131.13,173.3c4.12,1.62,17.86-.37,19.74-2.37"/><path class="cls-11" d="M128.88,177.17v25.49s-7,7.12-3.75,10,12.37-2.37,13-8.12c.12-.87.12-1.87.25-2.87.5-6,1.12-14.62,1.12-14.62"/><path class="cls-11" d="M143.12,186s.63,10.62,1.13,16.74c.12,1.87.37,3.25.37,3.75.5,2.25,5.87,9.12,10.62,6.49s-2.87-9.49-2.87-9.49v-.75l1.25-26.11"/><path class="cls-11" d="M138,187.79a11.81,11.81,0,0,1,1.38-.75c1-.5,2.24-1,3.37-1.62a20.15,20.15,0,0,1,3.25-1.25"/><path class="cls-11" d="M131.88,72.87,128.26,92.6a2.05,2.05,0,0,0,0,1.25,3.4,3.4,0,0,0,3.5,2.88L146,96.48a3.38,3.38,0,0,0,3.37-2.88,2.2,2.2,0,0,0,0-1.25l-3.25-19.48a3.51,3.51,0,0,0-3.5-3h-7.49A3.57,3.57,0,0,0,131.88,72.87Z"/><path class="cls-11" d="M128.26,93.73l-12,6.62a4.84,4.84,0,0,0-2.25,5.87l12.49,34.6a4.28,4.28,0,0,1,.25,1.75,4.38,4.38,0,0,1-1.5,2.87L123,147.32l-1.5,1.25a2.47,2.47,0,0,1-3.75-.75l-20-42.6a8.76,8.76,0,0,1,2.87-10.74l31.23-21.61"/><path class="cls-11" d="M150.49,93.73l12,6.62a4.66,4.66,0,0,1,2.13,5.87l-12.49,34.6a4.07,4.07,0,0,0,1.25,4.62l3.74,3.25a3,3,0,0,0,.88.5,2.44,2.44,0,0,0,2.75-1.25l20-42.6a8.77,8.77,0,0,0-2.87-10.74L146.62,73"/><path class="cls-11" d="M135.25,69.87c.5-6.37,6.87-5.75,7.5,0"/><polyline class="cls-11" points="2.09 232.14 16.21 232.14 46.06 232.14 51.56 232.14 81.29 232.14 86.78 232.14 116.52 232.14 167.73 232.14 197.59 232.14 203.08 232.14 232.81 232.14 238.31 232.14 268.04 232.14 276.91 232.14"/><line class="cls-11" x1="138.88" y1="64.25" x2="138.88" y2="3.54"/><path class="cls-11" d="M122.39,168.43c1.87,1.75,4.62,1.12,6.37-.38"/><path class="cls-11" d="M151.87,167.18c2,1.25,5,.5,6-.13"/><path class="cls-11" d="M128.88,202.66c3.62,1.87,7.87.5,9.12-1.13"/><path class="cls-11" d="M144.62,202.66c1.75,2.74,5.87,2.24,7.75.12"/></g></svg>