<?xml version="1.0" encoding="utf-8"?>
<!-- Generator: Adobe Illustrator 22.0.0, SVG Export Plug-In . SVG Version: 6.00 Build 0)  -->
<svg version="1.1" id="Layer_1" xmlns="http://www.w3.org/2000/svg" xmlns:xlink="http://www.w3.org/1999/xlink" x="0px" y="0px"
	 viewBox="0 0 2974.1 1628.6" style="enable-background:new 0 0 2974.1 1628.6;" xml:space="preserve">
<style type="text/css">
	.st0{fill:#FDE471;}
	.st1{fill:#FFFFFF;}
	.st2{fill:#F9F5F4;}
	.st3{fill:none;stroke:#330303;stroke-width:7.1069;stroke-linecap:round;stroke-linejoin:round;stroke-miterlimit:10;}
	.st4{fill:#DDAC99;}
	.st5{fill:#C18468;}
	.st6{fill:#F9E8D2;}
	.st7{fill:#FFF8EE;}
	.st8{fill:#DDCFCC;}
	.st9{fill:#FBBC7A;}
	.st10{fill:#FFD071;}
	.st11{opacity:0.77;fill:#7CE5D6;}
	.st12{fill:#4FC4B7;}
	.st13{fill:#ADEBDA;}
	.st14{fill:#C2FFEC;}
	.st15{fill:#FFEBD2;}
	.st16{fill:#FFBBC3;}
	.st17{fill:#FFD7DD;}
	.st18{fill:#FFD0AC;}
	.st19{fill:#FFA1A8;}
	.st20{fill:#7CE5D6;}
	.st21{fill:#FE828B;}
	.st22{fill:#FF929F;}
	.st23{fill:#F2ECEB;}
	.st24{fill:#EAE4E4;}
	.st25{fill:#51DFE0;}
	.st26{fill:#F7EDED;}
	.st27{fill:none;stroke:#330303;stroke-width:3.3835;stroke-linecap:round;stroke-linejoin:round;stroke-miterlimit:10;}
	.st28{fill:none;stroke:#FFFFFF;stroke-width:16.9173;stroke-linecap:round;stroke-miterlimit:10;}
</style>
<rect x="-1.6" y="-0.5" class="st0" width="2974.5" height="1629.6"/>
<rect x="-1.6" y="1310.5" class="st1" width="2492.5" height="318.7"/>
<path class="st1" d="M2796.3-0.7h-66.4H928.5c-57.2,208.5,92,225.9,92,225.9c-30.2,19.3,0,40.9,0,40.9
	c-102.2,98.1-55.2,302.6,141.1,312.8l237.2,306.7l206.5,65.4l396.6,77.7l57-22.6c50.7,46.6,118.3,75.2,192.6,75.2
	c98.5,0,185.2-50.1,236.3-126.1c4.8,2.6,10.2,4,16,4c16.4,0,30.1-11.8,33.1-27.4c35.7,13.4,74.3,20.8,114.6,20.8
	c180,0,325.9-145.9,325.9-325.9V-0.7H2796.3z"/>
<path class="st2" d="M1497.1,1122.2c0.8-2.3,1.2-4.6,1.5-7.1c2.2,0.7,4.5,1,6.9,1c13.4,0,24.3-10.9,24.3-24.3
	c0-13.4-10.9-24.3-24.3-24.3c-1.1,0-2,0.1-3,0.2c-1.5-10.9-10.8-19.3-22.1-19.3c-12.3,0-22.3,10-22.3,22.3c0,3.3,0.8,6.5,2.1,9.3
	c-4.2,0.8-8.1,2.3-11.5,4.6c-9.1,5.7-15.2,15.9-15.2,27.5c0,18,14.6,32.7,32.7,32.7C1480.6,1144.8,1492.9,1135.3,1497.1,1122.2z"/>
<path class="st3" d="M923.1,139.9c24.2,76.8,97.4,85.3,97.4,85.3c-29.6,22.5,0,40.9,0,40.9c-102.2,98.1-55.2,302.6,141.1,312.8
	l237.2,306.7l206.5,65.4l396.6,77.7l57-22.6c50.7,46.6,118.3,75.2,192.6,75.2c98.5,0,185.2-50.1,236.3-126.1c4.8,2.6,10.2,4,16,4
	c16.7,0,30.5-12.1,33.2-28c31.9,12.4,66.6,19.2,102.9,19.2"/>
<g>
	<path class="st4" d="M2363.7,488.9c1.5-3.2,0.1-7.1-3.1-8.6l-0.9-0.4c-3.2-1.5-7.1-0.1-8.6,3.1l-13.1,27.1l-0.2,0.4l3.1,1.7
		c1.3,0.7,2.1,2,2.4,3.4c0.2,1.2,0,2.5-0.5,3.7l5.1,2.4L2363.7,488.9z"/>
	<path class="st4" d="M2326.3,567.3l21.6-45.5l-5.1-2.4c-1.4,3-4.7,4.3-7.2,2.9l-2.6-1.5l-16.7,35.3l3.1,1.7c1.3,0.7,2.1,2,2.4,3.4
		c0.2,1.2,0.1,2.5-0.5,3.7L2326.3,567.3z"/>
	<path class="st5" d="M2333,520.7l2.6,1.5c2.5,1.4,5.8,0.1,7.2-2.9c0.6-1.2,0.7-2.5,0.5-3.7c-0.3-1.5-1.1-2.7-2.4-3.4l-3.1-1.7
		l-2-1.1c2,3.9-0.5,8.4-5.3,8.9l-0.5,0.9L2333,520.7z"/>
	<path class="st4" d="M2330.5,518.3c4.9-0.5,7.4-5,5.3-8.9l-29.2-16.1l-4.9,10.3l28.3,15.6L2330.5,518.3z"/>
	<path class="st4" d="M2320.2,462.3c1.7-3.6,0.1-7.8-3.4-9.5l-1-0.5l-94.5,201.2c3.5,1.7,7.8,0.1,9.5-3.4l5-10.5l26.5-55.8
		l21.6-45.6l21.6-45.5L2320.2,462.3z"/>
	<path class="st4" d="M2304.6,612.8l21.6-45.6l-5.1-2.4c-1.4,3-4.7,4.3-7.2,2.9l-2.6-1.4l-16.7,35.3l3.1,1.7c1.3,0.7,2.1,2,2.4,3.4
		c0.2,1.2,0.1,2.5-0.5,3.7L2304.6,612.8z"/>
	<path class="st5" d="M2221.3,653.6l94.5-201.2c-3.6-1.7-7.9-0.2-9.5,3.4l-89.4,187.8c-1.7,3.5-0.2,7.8,3.4,9.5L2221.3,653.6z"/>
	<path class="st5" d="M2321.2,564.9c0.6-1.2,0.7-2.5,0.5-3.7c-0.3-1.5-1.1-2.7-2.4-3.4l-3.1-1.7l-4.9,10.3l2.6,1.4
		C2316.5,569.1,2319.8,567.8,2321.2,564.9z"/>
	<path class="st5" d="M2311.3,566.3l4.9-10.3l-3.9-2.2l-0.2,0.3c2.6,4,0.1,8.9-5,9.5l-0.2,0.3L2311.3,566.3z"/>
	<path class="st4" d="M2307.1,563.6c5.1-0.5,7.6-5.4,5-9.5l0.2-0.3l-27.3-15.1l-4.9,10.3l26.8,14.8L2307.1,563.6z"/>
	<path class="st4" d="M2283,658.4l21.6-45.5l-5.1-2.4c-1.4,3-4.7,4.3-7.2,2.9l-2.7-1.5l-16.7,35.3l3.1,1.7c1.3,0.7,2.1,2,2.4,3.5
		c0.2,1.2,0.1,2.5-0.5,3.7L2283,658.4z"/>
	<path class="st5" d="M2299.5,610.4c0.6-1.2,0.7-2.5,0.5-3.7c-0.3-1.5-1.1-2.7-2.4-3.4l-3.1-1.7l-4.9,10.3l2.7,1.5
		C2294.9,614.7,2298.2,613.4,2299.5,610.4z"/>
	<path class="st5" d="M2289.7,611.8l4.9-10.3l-4.5-2.5l-0.2,0.4c2.6,4,0.1,8.9-5,9.5l-0.1,0.2L2289.7,611.8z"/>
	<path class="st4" d="M2289.9,599.5l0.2-0.4l-26.7-14.7l-4.9,10.3l26.3,14.5l0.1-0.2C2290,608.4,2292.4,603.5,2289.9,599.5z"/>
	<path class="st4" d="M2277.3,670.5l5.7-12.1l-5.1-2.4c-1.4,3-4.7,4.3-7.2,2.9l-2.7-1.5l-3.4,7.1c-1.5,3.2-0.1,7.1,3.1,8.6l0.9,0.4
		C2271.9,675.1,2275.7,673.7,2277.3,670.5z"/>
	<path class="st5" d="M2277.9,656c0.6-1.2,0.7-2.5,0.5-3.7c-0.3-1.5-1.1-2.8-2.4-3.5l-3.1-1.7l-4.9,10.3l2.7,1.5
		C2273.2,660.2,2276.5,658.9,2277.9,656z"/>
	<path class="st5" d="M2268.1,657.4l4.9-10.3l-6.4-3.6l-0.3,0.6c2.6,4,0.1,8.9-5,9.5L2268.1,657.4z"/>
	<path class="st4" d="M2266.2,644.1l0.3-0.6l-24.7-13.7l-4.9,10.3l24.3,13.4C2266.3,653,2268.8,648.1,2266.2,644.1z"/>
	<path class="st3" d="M2305.6,492.7l14.6-30.4c1.7-3.6,0.1-7.8-3.4-9.5l-1-0.5c-3.6-1.7-7.9-0.2-9.5,3.4l-89.4,187.8
		c-1.7,3.5-0.2,7.8,3.4,9.5l1,0.5c3.5,1.7,7.8,0.1,9.5-3.4l5-10.5l26.5-55.8l21.6-45.6L2305.6,492.7z"/>
	<path class="st3" d="M2268.1,657.4l-3.4,7.1c-1.5,3.2-0.1,7.1,3.1,8.6l0.9,0.4c3.2,1.5,7.1,0.1,8.6-3.1l5.7-12.1l21.6-45.5
		l21.6-45.6l21.6-45.5l15.8-32.8c1.5-3.2,0.1-7.1-3.1-8.6l-0.9-0.4c-3.2-1.5-7.1-0.1-8.6,3.1l-13.1,27.1"/>
	<line class="st3" x1="2289.7" y1="611.8" x2="2273" y2="647.1"/>
	<line class="st3" x1="2311.3" y1="566.3" x2="2294.6" y2="601.5"/>
	<line class="st3" x1="2333" y1="520.7" x2="2316.2" y2="556"/>
	<path class="st3" d="M2236.9,640.1l24.3,13.4l6.9,3.8l2.7,1.5c2.5,1.4,5.8,0.1,7.2-2.9c0.6-1.2,0.7-2.5,0.5-3.7
		c-0.3-1.5-1.1-2.8-2.4-3.5l-3.1-1.7l-6.4-3.6l-24.7-13.7"/>
	<path class="st3" d="M2258.5,594.6l26.3,14.5l4.9,2.7l2.7,1.5c2.5,1.4,5.8,0.1,7.2-2.9c0.6-1.2,0.7-2.5,0.5-3.7
		c-0.3-1.5-1.1-2.7-2.4-3.4l-3.1-1.7l-4.5-2.5l-26.7-14.7"/>
	<path class="st3" d="M2280.1,549.1l26.8,14.8l4.4,2.4l2.6,1.4c2.5,1.4,5.8,0.1,7.2-2.9c0.6-1.2,0.7-2.5,0.5-3.7
		c-0.3-1.5-1.1-2.7-2.4-3.4l-3.1-1.7l-3.9-2.2l-27.3-15.1"/>
	<path class="st3" d="M2301.7,503.5l28.3,15.6l2.9,1.6l2.6,1.5c2.5,1.4,5.8,0.1,7.2-2.9c0.6-1.2,0.7-2.5,0.5-3.7
		c-0.3-1.5-1.1-2.7-2.4-3.4l-3.1-1.7l-2-1.1l-29.2-16.1"/>
</g>
<path class="st6" d="M2221.9,256.3c43.8,0,79.3,35.5,79.3,79.3s-35.5,79.3-79.3,79.3c-43.8,0-79.3-35.5-79.3-79.3
	S2178.1,256.3,2221.9,256.3z M2298.5,330.1c0-38.8-31.4-70.2-70.2-70.2c-38.8,0-70.2,31.4-70.2,70.2s31.4,70.2,70.2,70.2
	C2267.1,400.3,2298.5,368.9,2298.5,330.1z"/>
<path class="st7" d="M2228.4,259.9c38.8,0,70.2,31.4,70.2,70.2s-31.4,70.2-70.2,70.2c-38.8,0-70.2-31.4-70.2-70.2
	S2189.6,259.9,2228.4,259.9z"/>
<path class="st8" d="M2131.4,548.6c21.4,0,38.6,3,38.6,6.6c0,3.7-17.3,6.6-38.6,6.6c-21.4,0-38.6-3-38.6-6.6
	C2092.8,551.6,2110.1,548.6,2131.4,548.6z"/>
<circle class="st3" cx="2221.9" cy="335.6" r="79.3"/>
<polygon class="st0" points="1418.8,390.4 1517.6,454.9 1456.7,459.7 "/>
<polygon class="st9" points="1418.8,390.4 1456.7,459.7 1407.8,509.9 "/>
<polygon class="st10" points="1456.7,459.7 1517.6,454.9 1474.2,503.7 1407.8,509.9 "/>
<polygon class="st3" points="1517.6,454.9 1456.7,459.7 1407.8,509.9 1474.2,503.7 "/>
<polyline class="st3" points="1517.6,454.9 1418.8,390.4 1407.8,509.9 "/>
<line class="st3" x1="1456.7" y1="459.7" x2="1418.8" y2="390.4"/>
<ellipse class="st8" cx="1438.3" cy="536.2" rx="36.7" ry="4.1"/>
<g>
	<circle class="st11" cx="2265.1" cy="796.7" r="217.5"/>
	<g id="XMLID_3_">
		<g>
			<path class="st2" d="M1873.5,949.5c14.5,0.7,28.7,0.3,41.9-3.9c43-13.5,36.5-130.3,101.2-152.1c11.8-4,22.1-5.3,31.4-4.6
				c-0.1,2.3-0.1,4.6-0.1,6.9c0,118.7,96.2,214.9,214.9,214.9c10.5,0,20.7-0.7,30.7-2.2c-3.8,8.9-9.7,16.7-16.4,23.9
				c-42.7,46.3,68.9,31.6,68.9,31.6l-0.5,1.5c-29.8,12.5-60.8,17.2-95.1,17.2c-40.8,0-79.3-9.8-113.4-27.1c-0.3,0.3-0.5,0.5-0.8,0.7
				c-0.4,0.4-0.9,0.9-1.3,1.3c-0.5,0.5-1.1,1-1.6,1.4c-0.5,0.4-1.1,0.9-1.6,1.4c-0.9,0.8-1.9,1.5-2.8,2.2c-1,0.7-1.9,1.4-3,2.1
				c-0.8,0.5-1.5,1-2.3,1.5c-0.5,0.4-1.1,0.7-1.7,1c-0.4,0.3-0.7,0.4-1.1,0.6c-1.1,0.6-2.3,1.2-3.4,1.8c-1.3,0.6-2.6,1.2-4,1.8
				c-1.2,0.5-2.4,1-3.7,1.4c-0.2,0.1-0.3,0.1-0.5,0.2c-1.3,0.5-2.6,0.9-4,1.2c-0.1,0.1-0.1,0.1-0.2,0.1c-1.3,0.4-2.6,0.7-4,1
				c-0.1,0.1-0.2,0.1-0.3,0.1c-1.1,0.3-2.1,0.5-3.2,0.6c-0.5,0.1-1.1,0.3-1.7,0.3c-0.6,0.1-1.3,0.2-1.9,0.3c-0.6,0.1-1.3,0.2-2,0.3
				c-1.3,0.2-2.5,0.3-3.8,0.3c-1.4,0.1-2.8,0.1-4.2,0.1c-0.1,0-0.1,0-0.2,0c-1,0-1.9,0-2.8-0.1c-0.6,0-1.2,0-1.8-0.1
				c-0.6,0-1.2-0.1-1.8-0.1c-1.5-0.1-2.9-0.3-4.4-0.5c-0.9-0.1-1.8-0.3-2.7-0.4c-0.5-0.1-1-0.2-1.5-0.3c-0.8-0.2-1.6-0.4-2.4-0.5
				c-0.4-0.1-0.8-0.2-1.1-0.3c-12.5,29.5-32.5,55.1-57.5,74.4l-0.6-0.8c-98.6,19.7-156.9-19.5-187-52.4c40-22.7,58.2-48,72.6-74.9
				c0.7-1.3,1.3-2.6,1.9-3.8l0.4,0.2c17-10.6,27.7-23.6,21.9-38c-3.7-9.1-19.2-5.4-21-4.9l0,0.1c-1.7-1.1-3.7-1.7-6-1.9
				c-7.2-0.7-14.1,6.1-21.6,16.1c-1.3,0.8-6.5,4-13.7,8.2l-0.3-0.6c-5.1-0.8-17.6,0.1-32.9,1.8c-10.3,1.1-21.9,2.7-33.3,4.3
				l-0.9,0.1l-6.6-43.3l2.2-0.4C1806.9,940.9,1840.7,948,1873.5,949.5z"/>
			<path class="st12" d="M2122.5,633c37.6-32.4,86.6-52,140.2-52c16,0,31.5,1.8,46.5,5.1l0,0.1c-13.7-3-28-4.6-42.6-4.6
				c-108.8,0-196.9,88.2-196.9,196.9c0,5.8,0.3,11.5,0.7,17.1c-6.7-3.7-14.1-6.1-22.4-6.7c0.2-8,0.9-15.9,2.1-23.7
				C2057.5,712.6,2084.1,666.2,2122.5,633z"/>
			<path class="st13" d="M2298.5,972.8c1.7,11.7-0.2,24.2-5.1,35.7c-10,1.5-20.3,2.2-30.7,2.2c-118.7,0-214.9-96.2-214.9-214.9
				c0-2.3,0-4.7,0.1-6.9c8.3,0.6,15.7,3,22.4,6.7c8.7,100.8,93.2,179.8,196.2,179.8C2277.4,975.5,2288.1,974.6,2298.5,972.8z"/>
			<path class="st14" d="M2298.5,972.8c-10.4,1.7-21.1,2.6-32,2.6c-103,0-187.5-79.1-196.2-179.8c54.4,29.7,62.1,144.8,131,132.5
				C2265.1,916.7,2294.1,942.2,2298.5,972.8z"/>
			<path class="st0" d="M2122.5,518.6V633c-38.4,33.1-65,79.6-72.5,132.2l-1.4-0.2c-77.5,36.1-131.7-21.2-130.6-58.4l1.3-177.6
				l0.1-1.5c8.7,0.4,17.9,0.6,27.6,0.8l1.4,0c-0.3,9.6,2.6,16.7,2.6,16.7s-15.5,8.3-10.6,15.3c5.1,7.2,17-4.5,19.3-5.4
				c2.2-1,8.3-3.9,6.9-11.4c-1.2-6.1-2.7-11.7-2.2-15l0.7,0.1c4.4,0,8.9,0.1,13.4,0.1c-5.2,9.8-3.2,24.4,17.2,29.5
				c0,0-0.5,19.5,10.5,16.3c10.3-3,2.9-13.8,3.9-18.9c0.9-5-0.2-9.3-3.1-9.9c-3-0.7-15.3-2.9-15.1-9.2c0.1-4.5,5.7-7.9,13.1-8.2v0.3
				C2071.4,527.9,2122.5,523.7,2122.5,518.6z"/>
			<path class="st0" d="M2055.7,510c40,1.8,66.8,5,66.8,8.6c0,5.1-51.1,9.3-117.6,10v-0.3c0.2,0,0.4,0,0.5,0
				c6.6-0.1,15.3-4.6,18.9-19.6l0.9,0.2c3.5,0.1,7,0.2,10.4,0.3l0.6,0.4c-1.3,2.3-2.4,5.4-0.6,7.7c3.2,4,13.8,3.6,15.8,2.5
				c1.6-0.9,4.2-4.2,3.6-5.8l-3.5-0.1C2053,513,2054.7,511.6,2055.7,510L2055.7,510z"/>
			<path class="st10" d="M2048.7,765.1l1.4,0.2c-1.1,7.8-1.8,15.7-2.1,23.7c-9.3-0.8-19.6,0.6-31.4,4.6
				c-64.7,21.9-58.2,138.6-101.2,152.1c-13.2,4.1-27.4,4.6-41.9,3.9l3.1-250.3l-29.3-5.4V518.6c0,3.9,29.2,7.2,72.2,8.9l-0.1,1.5
				l-1.3,177.6C1917,743.8,1971.2,801.2,2048.7,765.1z"/>
			<path class="st1" d="M2007.3,1148.5l0.6,0.8c-31.3,24.2-70.4,38.5-113,38.5c-31.6,0-60.2-7.1-86.2-21.1l-0.5,0
				c0.4-7.3,0.5-14,0.5-20c0-3.7-3.3-5.3-9.8-6.9h-0.1c0.6-19.9-0.4-32.4-0.4-32.4c8-3.7,15.3-7.4,22-11.2
				C1850.3,1129,1908.7,1168.2,2007.3,1148.5z"/>
			<path class="st10" d="M1956.9,508.7L1956.9,508.7c-4.6,4.3-8,10-8.5,17.3c-0.1,0.8-0.1,1.6-0.1,2.3l-1.4,0
				c-9.7-0.2-18.9-0.5-27.6-0.8c-43-1.7-72.2-5-72.2-8.9C1847.3,513.8,1894.4,509.7,1956.9,508.7z"/>
			<path class="st15" d="M1917,979.6c5.8,14.4-4.9,27.4-21.9,38l-0.4-0.2c11.2-22.9,9.6-37.5,1.3-42.6l0-0.1
				C1897.9,974.2,1913.4,970.5,1917,979.6z"/>
			<path class="st15" d="M1712.8,1039.6c-0.4,0.1-0.7,0.1-1.1,0.1l-0.1-0.5c1-0.1,2.1-0.3,3.2-0.5c4-0.8,6.6-1.4,6-5.4l-3.3-22.4
				l0.3,0c12.1-0.2,32.2-2.8,53.4-5.8l0.7-0.1l2.5,17.1c0,0.1,0,0.2,0.1,0.3l-1.4,0.2c-1.5-0.1-3-0.1-4.6-0.1
				c-11.6,0-20.9,1.8-20.9,4c0,2.2,9.3,4,20.9,4c5.9,0,11.2-0.4,15-1.2l-0.1-0.6c4.3-0.7,7.2-4.7,6.6-9l-2.6-16.9l0.9-0.1
				c11.3-1.6,22.9-3.2,33.3-4.3l0.2,1.4c13.9,1-6,15.8-14,21.4c-1.9,1.3-3.1,2.1-3.1,2.1s25.1,7.7,20.4,16.6
				c18.6-13.5,31.8-35.8,43.4-50.9c7.6-9.9,14.4-16.8,21.6-16.1c2.3,0.2,4.3,0.9,6,1.9c8.3,5.1,9.9,19.7-1.3,42.6
				c-0.6,1.2-1.2,2.5-1.9,3.8c-14.3,27-32.5,52.2-72.6,74.9c-6.7,3.8-14,7.5-22,11.2c0,0,1.1,12.5,0.4,32.4
				c-0.1,2.5-0.2,5.3-0.4,8.1h-0.2c0,3.8-23.7,6.8-53,6.8c-6,0-11.8-0.1-17.1-0.4c-4-0.2-7.7-0.4-11.1-0.7l0.2-2
				c3.6-31.9-5.6-59.7,0.4-80.4c3.5-12.4,23.1-21.1,23.1-21.1s-25.5-3.2-27.5-8L1712.8,1039.6z"/>
			<path class="st16" d="M1876.6,699.2l-3.1,250.3c-32.8-1.5-66.6-8.6-90.4,9.7l-2.2,0.4l-18.3-120.6h0c-0.3-6.6-0.6-12.5,1.2-19.7
				c3-12.2,24.9-29.1,9-40c-5.6-3.9-12.2-2-18.5,2.3l-0.3-0.4l-1.6-10.3c-0.6-3.9-4-6.7-7.7-6.7c-0.4,0-0.9,0-1.3,0.1
				c-4.3,0.7-7.2,4.7-6.6,9l1.7,11l-1.7,0.3c-7.7-7.5-20.1-19.9-20.3-21.8c-0.2-2.8,0.8-13.7-3.6-13.7c-3.7,0-2.2,4.8-4.8,7.6
				c-2.8-1.8-8.8-5.2-8.8-5.2l-1,0.5c-1.1-2-2.1-3.8-1.6-4.3l5-1.2c1.2-3.2-3.4-8.6-11.9-6.2c0,0-2.3-6.9-4.2-15.4h0l26.7-3.6l1,0.1
				c-0.5,4-1.4,11.3,8.8,9.7c4.7-0.7,8.5-6.8,9.4-12.3L1876.6,699.2z"/>
			<path class="st17" d="M1847.3,693.8l29.3,5.4l-145,19.4c0.8-5-0.5-9.6-5.4-9.8c0,0,0.4-16.3-8.7-25.5c-6.3-6.3-16.3-7.2-22.5-6.4
				l-0.2,0c0.1-0.7,0.2-1.4,0.2-2.2c0.2-3.2,0-6.4-0.6-9.4L1847.3,693.8z"/>
			<path class="st18" d="M1854.8,997.2c7.2-4.2,12.4-7.4,13.7-8.2c-11.6,15.1-24.8,37.4-43.4,50.9c4.7-8.8-20.4-16.6-20.4-16.6
				s1.2-0.8,3.1-2.1C1822.2,1015.7,1841.7,1004.8,1854.8,997.2z"/>
			<path class="st18" d="M1854.5,996.6l0.3,0.6c-13.1,7.6-32.6,18.5-47,24c8-5.6,27.9-20.4,14-21.4l-0.2-1.4
				C1836.9,996.7,1849.4,995.8,1854.5,996.6z"/>
			<path class="st13" d="M1798.4,1147.8c0.2-2.8,0.3-5.5,0.4-8.1h0.1c6.6,1.6,9.8,3.2,9.8,6.9c0,6.1-0.1,12.8-0.5,20
				c-2,39.7-11,95.6-42.3,143.8v0.5h-102.2v-1.1c56.8-56.3,54.2-154.5,64.3-155l0-0.6c5.4,0.3,11.2,0.4,17.1,0.4
				c29.3,0,53-3.1,53-6.8H1798.4z"/>
			<path class="st4" d="M1790.1,1019.7c0.6,4.3-2.3,8.3-6.6,9c-0.4,0.1-0.9,0.1-1.3,0.1c-3.7,0-7-2.6-7.7-6.4c0-0.1-0.1-0.2-0.1-0.3
				l-2.5-17.1l-2.6-17.4c2.3-1.1,3.8-3.6,3.8-6.4c0-0.3,0-0.6-0.1-0.9c-0.4-3.4-2.9-6.1-5.8-6.4l-5.1-34.3c2.8-0.7,4.7-3.5,4.7-6.7
				c0-0.4,0-0.8-0.1-1.2c-0.5-3.7-3.5-6.3-6.7-6.2c-0.3,0-0.7,0.1-1,0.1l-0.3,0.1l-0.2-1c0.6-2-1.9-9.7-2.4-11.9
				c-4-20,2.5-31.8,5.4-50c1.6-10.1,1.2-17.4,1-23.9h0l18.3,120.6l6.6,43.3L1790.1,1019.7z"/>
			<path class="st18" d="M1783.5,1028.7l0.1,0.6c-3.8,0.7-9.1,1.2-15,1.2c-11.6,0-20.9-1.8-20.9-4c0-2.2,9.3-4,20.9-4
				c1.6,0,3.1,0.1,4.6,0.1l1.4-0.2c0.7,3.8,4,6.4,7.7,6.4C1782.6,1028.8,1783.1,1028.7,1783.5,1028.7z"/>
			<path class="st4" d="M1773.1,980.3c0,0.3,0.1,0.6,0.1,0.9c0,2.8-1.5,5.4-3.8,6.4l-2-13.7C1770.2,974.2,1772.6,976.9,1773.1,980.3
				z"/>
			<path class="st1" d="M1769.3,987.6l2.6,17.4l-0.7,0.1c-21.2,3-41.4,5.6-53.4,5.8l-0.3,0l-2.2-14.5l52.5-8.4
				C1768.4,988,1768.9,987.8,1769.3,987.6z"/>
			<path class="st4" d="M1767.3,973.9l2,13.7c-0.4,0.2-0.9,0.4-1.4,0.5l-52.5,8.4l-0.5-3.5l-1.2-10.7l52-8.3
				C1766.2,973.9,1766.7,973.8,1767.3,973.9z"/>
			<path class="st1" d="M1762.2,939.6l5.1,34.3c-0.5-0.1-1.1,0-1.7,0.1l-52,8.3l1.2,10.7l-8.5-57l1.1-0.2l2.1,14.2l52.3-10.3
				C1762,939.6,1762.1,939.6,1762.2,939.6z"/>
			<path class="st4" d="M1766.7,931.7c0.1,0.4,0.1,0.8,0.1,1.2c0,3.2-1.9,6-4.7,6.7l-2-13.5l0-0.5
				C1763.3,925.4,1766.2,928,1766.7,931.7z"/>
			<path class="st4" d="M1760.1,926l2,13.5c-0.1,0.1-0.2,0.1-0.3,0.1l-52.3,10.3l-2.1-14.2l21.4-4.2l30-5.9l0.3-0.1
				c0.3-0.1,0.7-0.1,1-0.1L1760.1,926z"/>
			<path class="st4" d="M1802.5,503.1c3.1,5.6,1.1,12.7-4.5,15.8l-1.6,0.9c-5.6,3.1-12.7,1.1-15.8-4.5l-8.2-14.7l-0.4-0.7l5.4-3.5
				c2.2-1.4,3.6-3.8,3.9-6.4c0.2-2.2-0.2-4.5-1.4-6.6l8.8-4.9L1802.5,503.1z"/>
			<path class="st4" d="M1738.6,784.2l-1.7-11c-0.6-4.3,2.3-8.3,6.6-9c0.4-0.1,0.9-0.1,1.3-0.1c3.8,0,7.2,2.8,7.7,6.7l1.6,10.3
				l0.3,0.4c-3.7,2.5-7.4,5.9-10.7,9.5l-0.7-0.6c0,0-2.5-2.4-6.1-5.9L1738.6,784.2z"/>
			<path class="st4" d="M1744.7,399.3l44.1,79.2l-8.8,4.9c-2.8-5.1-8.9-7.1-13.3-4.3l-4.5,2.9l-34.1-61.3l5.4-3.5
				c2.3-1.4,3.6-3.8,3.9-6.4c0.2-2.2-0.2-4.5-1.4-6.6L1744.7,399.3z"/>
			<path class="st5" d="M1762.1,482l4.5-2.9c4.4-2.8,10.4-0.9,13.3,4.3c1.2,2.1,1.6,4.4,1.4,6.6c-0.3,2.6-1.6,5-3.9,6.4l-5.4,3.5
				l-3.4,2.2c3.2-7.2-1.8-15-10.6-15.3l-0.9-1.5L1762.1,482z"/>
			<path class="st4" d="M1736.1,881l-0.1,0.9c-0.5,4.1-0.6,8.4-0.4,12.3l-31.3,6.1l-3.1,0.4l-2-13.6l3.1-0.4l30.6-6.2v0
				C1733.9,880.7,1734.9,880.9,1736.1,881z"/>
			<path class="st19" d="M1735.6,894.2c0.5,10.3,2.8,18.7,2.8,18.7c-13.4,6.4-12.7,16.3-9.6,18.1l0.1,0.5l-21.4,4.2l-1.1,0.2
				l-5.2-35.1l3.1-0.4L1735.6,894.2z"/>
			<path class="st16" d="M1733.4,803.5L1733.4,803.5c-2.5,3.5-4,6-4,6c-17.1,7.8-36.5-1.1-38.9-2.7c0,0,2.5-8.6-4-9.2l-0.8,0.1
				l-2.1-13.8c-0.6-3.8-3.8-6.4-7.5-6.4c-0.5,0-1,0-1.5,0.1c-4,0.8-6.6,4.5-6.1,8.5l2.5,17l-1.1,0.4c-0.2-0.4-0.3-0.9-0.3-1.3
				c0,0-4.9,3.1-5.2,9c-0.2,4,1,8.9,4.7,12l-0.9,1.5l7.4,157.9c-2.4-1.8-5-3.7-8.1-5.6c-6.2-4-12.8-5.9-18.8-6.1
				c-2.4-0.1-4.7,0-6.9,0.5l-0.2-1.2c0,0,7.4-81.8-30.8-90.3c-17.4-3.9-27.6,2.3-37.1,10.4l0.4-150.6l92.7-12.4l0.4-0.2
				c3.8,9.7,8.5,19.8,8.5,19.8s-2.4,11,8.5,17.1c3,1.7,5.4,2.2,7.5,2l0.1,1.9c3,6.6,10.4,4.1,13.3,5.8
				C1707.9,775.2,1733.4,803.5,1733.4,803.5z"/>
			<path class="st4" d="M1758,486.7c8.8,0.4,13.8,8.1,10.6,15.3l-50.5,32.4l-10-17.9l48.9-31.3L1758,486.7z"/>
			<path class="st18" d="M1711.7,1039.8c0.4,0,0.7-0.1,1.1-0.1l0.3,2.4c2,4.8,27.5,8,27.5,8s-19.5,8.8-23.1,21.1
				c-6,20.7,3.2,48.6-0.4,80.4l-0.2,2c-14.9-1.2-24.8-3.3-24.8-5.8l0.2-0.4c0.1-2.5,0.2-4.9,0.2-7.2c0.3-19.5-2.5-31.3-2.5-31.3
				s-7.3-2.3-14.1-9c-5.3-5.3-10.2-13.2-11.1-24.9c-1.4-19.3,0.1-44.4-10.1-52.2c-10.3-7.8-29.1-17-29.2-34.4
				c-0.1-9,6.9-15.5,16.6-17.2c2.1-0.4,4.5-0.6,6.9-0.5l0,0.7c-12,0.8-15.9,19.9,4,27.1c19.9,7.2,49.8,22.7,50.6,29.5l1.2-0.2
				l1.1,7.7c0.4,2.8,2.3,3.6,4.8,3.6c0.3,0,0.6,0,1,0L1711.7,1039.8z"/>
			<path class="st20" d="M1728,1154.2l0,0.6c-10.1,0.5-7.5,98.8-64.3,155v1.1h-67.2c64.2-52.3,79.9-132.8,84.7-164.4
				c0.4-2.5,4.1-4.6,10.4-6.4h0.9c0,2.3-0.1,4.7-0.2,7.2l-0.2,0.4c0,2.4,9.9,4.6,24.8,5.8C1720.3,1153.9,1724,1154.1,1728,1154.2z"
				/>
			<path class="st4" d="M1720.9,1033.4c0.6,4-2,4.6-6,5.4c-1.1,0.2-2.2,0.4-3.2,0.5c-0.4,0-0.7,0-1,0c-2.5,0-4.4-0.8-4.8-3.6
				l-1.1-7.7l-3.3-21.9l-26.8-179.9l0.1-0.4c0.3,0.1,0.5,0.2,0.8,0.2c8,1.6,13.1-1.2,14.1-1.9h0l8.2,55.5l1.1,7.6l2,13.6l5.2,35.1
				l8.5,57l0.4,3.5l0.1,0l2.2,14.5L1720.9,1033.4z"/>
			<path class="st19" d="M1722.5,828.2c0,0-2.5,5.8-3.4,12.2l-0.9-0.1c-4.4-5.4-16.9-2.2-20.7,8.2c-2.7,7.5-1.8,19.1,2.8,24.9
				c0,0-1.8,4.6-1.8,6.2l-0.5,0.1l-8.2-55.5c0.1-0.1,0.2-0.1,0.2-0.1S1693.1,831,1722.5,828.2z"/>
			<polygon class="st1" points="1714.9,992.9 1715.4,996.5 1715.3,996.5 			"/>
			<path class="st16" d="M1713.7,719.4c0,0.4-0.1,1.1-0.2,1.8l-1-0.1l-26.7,3.6h0c-1.7-7-3.1-15-3-20.9c0,0,4.3-4.6,7.7-12l0.2,0.1
				c15.3-4.4,24.9,8.5,21.3,17.3c0,0-11.6,1.6-10.5,5.2C1702.5,718,1713.7,716.6,1713.7,719.4z"/>
			<path class="st4" d="M1727.7,555.9c3.4,6.2,1.2,14.1-5,17.5l-1.7,1l-174.6-317.6c6.2-3.4,14-1.2,17.5,5l10.2,18.3l54,97
				l44.1,79.2l44.1,79.2L1727.7,555.9z"/>
			<path class="st15" d="M1675.9,982.5c12.9,10,17.1,18.3,24.6,23.7l1.1-0.2l3.3,21.9l-1.2,0.2c-0.8-6.8-30.7-22.3-50.6-29.5
				c-19.9-7.1-15.9-26.3-4-27.1l0-0.7c6,0.2,12.6,2.1,18.8,6.1C1670.8,978.8,1673.5,980.7,1675.9,982.5z"/>
			<path class="st4" d="M1700.6,320.1l44.1,79.2l-8.8,4.9c-2.8-5.1-8.9-7.1-13.2-4.3l-4.6,2.9l-34.1-61.3l5.4-3.5
				c2.2-1.4,3.5-3.8,3.8-6.5c0.2-2.2-0.2-4.5-1.4-6.6L1700.6,320.1z"/>
			<path class="st21" d="M1674.7,826.1l26.8,179.9l-1.1,0.2c-7.5-5.4-11.6-13.7-24.6-23.7l-7.4-157.9l0.9-1.5
				c1.4,1.2,3.2,2.2,5.4,2.7L1674.7,826.1z"/>
			<path class="st5" d="M1546.4,256.8l174.6,317.6c-6.2,3.4-14.1,1.2-17.5-5l-163.8-294.1c-3.4-6.2-1.2-14,4.9-17.5L1546.4,256.8z"
				/>
			<path class="st5" d="M1735.9,404.2c1.2,2.1,1.6,4.4,1.4,6.6c-0.3,2.6-1.6,5-3.9,6.4l-5.4,3.5l-10-17.9l4.6-2.9
				C1727,397.1,1733,399.1,1735.9,404.2z"/>
			<path class="st5" d="M1718,402.8l10,17.9l-6.8,4.3l-0.3-0.5c4.2-7.5-0.8-16-10.1-16.4l-0.3-0.5L1718,402.8z"/>
			<path class="st4" d="M1710.8,408.1c9.3,0.4,14.3,8.9,10.1,16.4l0.3,0.5l-47.2,30.2l-10-17.9l46.4-29.7L1710.8,408.1z"/>
			<path class="st4" d="M1685.8,797.6l0.9,6l-0.9,1.7c-2.8,2.4-13.5,3.6-15.6-1.9l1.1-0.4l-2.5-17c-0.6-4,2.1-7.8,6.1-8.5
				c0.5-0.1,1-0.1,1.5-0.1c3.7,0,6.9,2.7,7.5,6.4L1685.8,797.6z"/>
			<path class="st2" d="M1468.6,930.9c-24.7,12.2-62.5,23.2-93.3,17.9l-1.1,0.2c-1.8-10.1-3.4-20-4.8-29.7l7.5-5
				c-10.3-32-17.3-78.1-17.3-78.1l-0.6-0.1c1-4.7,1.7-9.6,2.3-14.4c19.7,17.4,47.5,33.6,79.4,29.9c7.7-0.9,15.7-2.9,23.9-6.4
				c17.5,39.8,34.5,70.6,66.9,68.5c20.7-1.4,31.2-13.9,42.6-23.6c9.5-8.1,19.7-14.2,37.1-10.4c38.2,8.5,30.8,90.3,30.8,90.3l0.2,1.2
				c-9.6,1.8-16.6,8.2-16.6,17.2c0.1,17.3,18.9,26.5,29.2,34.4c10.3,7.8,8.7,32.9,10.1,52.2c0.9,11.7,5.8,19.6,11.1,24.9l-1.2,1.3
				c-11.2,3.5-23,5.4-35.3,5.4c-65.4,0-118.4-53-118.4-118.4c0-10.4,1.3-20.4,3.9-30c-0.1,0-0.2,0-0.3,0c-1.2,0-2.5-0.1-3.7-0.2
				c-0.1,0-0.2,0-0.3,0c-1.4-0.1-2.7-0.3-4.1-0.5c-1.3-0.2-2.5-0.4-3.8-0.6c-0.4-0.1-0.7-0.2-1.1-0.3c-0.8-0.1-1.7-0.3-2.5-0.5
				c-0.4-0.1-0.7-0.2-1.1-0.3c-1-0.3-2-0.5-3-0.8c-2.5-0.7-4.9-1.6-7.2-2.6c-0.6-0.2-1.2-0.5-1.8-0.8c-0.9-0.4-1.8-0.8-2.6-1.2
				c-0.2-0.1-0.3-0.1-0.4-0.2c-0.9-0.4-1.8-0.9-2.7-1.4c-3.4-1.8-6.6-4-9.7-6.3c-0.5-0.4-1-0.7-1.4-1.1c-0.8-0.7-1.7-1.4-2.5-2.1
				c-1-0.9-1.9-1.8-2.9-2.7c-0.9-0.9-1.8-1.9-2.7-2.8c-0.9-0.9-1.7-1.8-2.5-2.8C1468.7,931,1468.6,931,1468.6,930.9z"/>
			<path class="st16" d="M1667.5,727l-0.4,0.2l-92.7,12.4l-132.2-53.1l156.8-21.2l0.8,6.1c-1.1,0.2-2.1,0.6-3.1,1.4
				c-1.8,1.6-3.1,4.2-2.5,6.6l0.4,0.9c-2.1,0.9-3.9,1.9-6.8,1.7c-2.6-0.2-9.8-3.6-14,0.2c-4.2,3.8-2.8,11.9,3.6,14
				c6.4,2,14.7-0.6,14.7-0.6c12.6,10.2,33.5,17.9,71,19C1664,717.8,1665.7,722.4,1667.5,727z"/>
			<path class="st16" d="M1664.5,659.9l0.2,0.1c-0.9,2.1-1.3,4.4-1.4,7c-0.1,4.8-0.7,9-1.9,12.2l-0.7-0.3c-4,0-5.6-9.3-20.3-7.7
				c-6.7,0.7-11.4,3.4-14.6,6.7l-0.2-0.2c-4.7-2.2-5.8-5.2-9.4-5.2c-4,0-4.5,0.5-8.4,0.2c-1.7-0.1-5-1.8-8-1.4l-0.8-6.1l53.3-7.2
				c0.9-0.1,1.8-0.1,2.6,0.1L1664.5,659.9z"/>
			<path class="st4" d="M1656.5,241l44.1,79.1l-8.8,4.9c-2.8-5.1-8.9-7.1-13.2-4.3l-4.6,2.9l-34.1-61.3l5.4-3.5
				c2.2-1.4,3.6-3.8,3.9-6.5c0.2-2.1-0.2-4.4-1.4-6.6L1656.5,241z"/>
			<path class="st5" d="M1691.8,325c1.2,2.1,1.6,4.4,1.4,6.6c-0.3,2.7-1.6,5-3.8,6.5l-5.4,3.5l-10-17.9l4.6-2.9
				C1682.9,317.9,1688.9,319.9,1691.8,325z"/>
			<path class="st5" d="M1673.9,323.7l10,17.9l-7.8,5l-0.4-0.7c4.1-7.5-0.9-16-10.1-16.4l-0.2-0.3L1673.9,323.7z"/>
			<path class="st4" d="M1675.7,345.8l0.4,0.7l-46.2,29.5l-9.9-17.9l45.4-29.1l0.2,0.3C1674.8,329.8,1679.8,338.3,1675.7,345.8z"/>
			<path class="st4" d="M1644.8,219.9l11.7,21.1l-8.8,4.9c-2.8-5.1-8.9-7.1-13.3-4.3l-4.6,2.9l-6.9-12.4c-3.1-5.6-1.1-12.7,4.5-15.8
				l1.6-0.9C1634.6,212.3,1641.7,214.4,1644.8,219.9z"/>
			<path class="st5" d="M1647.7,245.9c1.2,2.1,1.6,4.4,1.4,6.6c-0.3,2.7-1.6,5.1-3.9,6.5l-5.4,3.5l-10-17.9l4.6-2.9
				C1638.8,238.8,1644.9,240.7,1647.7,245.9z"/>
			<path class="st5" d="M1629.8,244.5l10,17.9l-11.1,7.1l-0.6-1c4.2-7.5-0.8-16-10.1-16.4L1629.8,244.5z"/>
			<path class="st4" d="M1628,268.5l0.6,1l-42.8,27.4l-10-17.9l42-26.9C1627.2,252.5,1632.2,261,1628,268.5z"/>
			<path class="st22" d="M1574.5,739.6l-0.4,150.6c-11.4,9.7-21.9,22.2-42.6,23.6c-27.9,1.8-44.3-20.7-59.6-52.4
				c-4.2-8.6-13.7-13.1-23.1-11.1c-2.8,0.6-5.5,1-8.2,1.3l1.6-165.1L1574.5,739.6z"/>
			<path class="st23" d="M1496.4,1121.9l0.8,0.2c-4.2,13.1-16.5,22.6-31,22.6c-18,0-32.7-14.6-32.7-32.7c0-11.6,6.1-21.8,15.2-27.5
				l0.4,0.7C1421.5,1106.5,1463.5,1152.7,1496.4,1121.9z"/>
			<path class="st15" d="M1374.4,1241.8c68.6,13.2,89.3,62.5,91.2,69.2h-47.8v-2.1c-10.3-16.8-24.3-31.7-46.8-37.2
				c-11.4-23-36.1-32.8-49.6-32.2c8.7-0.9,17.7-1.2,27.4-0.7C1358,1239.2,1366.5,1240.2,1374.4,1241.8z"/>
			<path class="st18" d="M1417.8,1308.9v2.1h-6.4h-35c2.4-15.9-0.2-29-5.4-39.3C1393.5,1277.1,1407.5,1292.1,1417.8,1308.9z"/>
			<path class="st2" d="M1374.2,949c-1.8-10.1-3.4-20-4.8-29.7l7.5-5c-10.3-32-17.3-78.1-17.3-78.1l-0.6-0.1
				c-1.1,5.7-2.6,11.4-4.4,16.9c-2.9,9.2-6.7,18.2-11.2,26.7c0.8,26.1,21,140.3,26.3,159.2c0.1,0.2,0.1,0.3,0.1,0.4l23.7-5
				C1385.6,1005.8,1379.1,976.7,1374.2,949z"/>
			<path class="st2" d="M1367.7,1093c10.8,0,19.5,8.7,19.5,19.5c0,10.8-8.7,19.5-19.5,19.5c-6.6,0-12.5-3.3-16-8.4
				c-1.9,1.3-4.2,2-6.7,2c-6.6,0-11.9-5.4-11.9-11.9c0-6.6,5.4-11.9,11.9-11.9c2,0,3.9,0.5,5.5,1.4
				C1353.9,1097.1,1360.3,1093,1367.7,1093z"/>
			<path class="st20" d="M1043.2,1150.7c-2.9,50,100.5,109.2,189.2,92.7c2.1-0.4,4.1-0.8,6.1-1.2c5.6-1.3,10.9-2.9,15.9-4.9
				c1.1-0.4,2.2-0.9,3.3-1.3c11-4.8,20.2-11.2,27.2-18.6l0.2,0.2c3.2,5.3,11.6,20.1,11.7,26.5c-59.8,15.8-95.5,62.3-131.7,89.3
				c-31.4,23.4-71.4,21.1-87.9,3.4c56.3,71.7,158.1-39.6,238.8-61.9c22.8-6.3,40.8-6.7,55.2-3.2c5.2,10.3,7.7,23.4,5.4,39.3
				c-94.5,0-116.8,142.3-256,142.3c-88.1,0-160.3-56.7-166.3-142.3c-0.3-3.8-0.4-7.7-0.4-11.7c0-80.7,68-138.1,81.2-149.9
				c4.7-4.1,12.1-5.7,15-4.6l0.1,0.1c-2,1.8-4.1,3.7-6.3,5.8L1043.2,1150.7z"/>
			<path class="st24" d="M1369.7,1039l-7.2,2h0c0,0-3.9-6.4-6-9c0-0.1-0.1-0.1-0.1-0.2l-1.2-2.2l-2.1,24.4l-51,12.7l-12.7-36.1
				l-0.4,1.2l-1.1-3l-5,19.9l-27.6,7.2c0,0-0.1,0-0.1,0c-0.5,0-1,0.1-1.5,0.1l-12.8-2.4l3-56.6l5.5-36.9c42-14.2,75-43.5,94.3-80.3
				C1344.2,905.9,1364.4,1020.1,1369.7,1039z"/>
			<path class="st2" d="M1210,515.9l0-0.4c11.2,1,22.6,2.5,34,4.8c22,4.4,44.1,11.5,65.1,21.8c107.3,52.6,140.2,173.9,54.2,225.3
				l-2.6,0.2c-0.4-4.8-0.8-9.5-1.2-13.9l0.9-0.1c56.7-42.8,29.7-64.6-25.3-68.4c-110-7.7-210.7-27.8-223.6-102.2
				C1103.1,534.9,1157.3,511.4,1210,515.9z"/>
			<path class="st24" d="M1078.3,752.8l0.7,0.8c4,56.9,29.5,215.8,50.3,262.2l-5.1,36.1l-17.9-2.5l4.5,19.3l-16.4,3.8l-13.1,3.1
				l-9.3,2.2l-3.1,13.3c0,0-4.9,0.2-12.4-0.2c-19.7-0.9-57.5-5.4-75.1-25.1c0,0,18.9-86-4.5-189.2S924,650.7,988.4,604.1
				c30.6-22.1,56.9-20.3,56.9-20.3s3.1-31.2,43-50.7c20.5-10.1,49.6-16.9,82.5-18.4c12.6-0.6,25.7-0.4,39.2,0.8l0,0.4
				c-52.7-4.5-106.9,19.1-98.6,67.1c13,74.3,113.6,94.5,223.6,102.2c55,3.8,81.9,25.6,25.3,68.4l-0.9,0.1c-1-9.7-2.3-18.3-3.7-25.3
				c-1.3-6.3-2.8-11.3-4.3-14.7v0c-25.2-10.2-73.7-4.6-139.9-21.3c-84.6-21.4-100.9-60.6-101.9-63.3c0.3,1.5,2.8,14.1,3.2,31.2
				c0.4,21.1-2.5,49-16.8,72.1C1091.4,739.8,1085.6,746.7,1078.3,752.8z M1073.7,845.9c0.6-7.6,0.9-14.6,0.5-19.3
				c-2.6-28.8-23.4-50.6-46.5-48.8c-23.1,1.9-39.7,26.8-37.1,55.6c2.6,28.8,23.4,50.6,46.5,48.8
				C1054.2,880.8,1068.8,864.7,1073.7,845.9z"/>
			<path class="st25" d="M1362.4,1041l-0.9,0.3l-5.1-9.3C1358.6,1034.6,1362.4,1041,1362.4,1041z"/>
			<path class="st15" d="M1105,800.8c-6.2-40.6-8.8-68.4-8.8-68.4l-0.2-0.1c14.3-23,17.2-51,16.8-72.1h0.3c0,0,18.4,21.5,69.9,39.3
				c76,26.3,162.2,15.2,171.9,29.1l0.9-0.2c1.4,7,2.7,15.5,3.7,25.3c0.4,4.4,0.9,9,1.2,13.9c0.7,9.6,1.2,20,1.5,30.9
				c0.2,7.8-0.1,15.6-1,23.2c-0.5,4.9-1.3,9.7-2.3,14.4c-1.1,5.7-2.6,11.4-4.4,16.9l-3.7-22.1l-97.4,100.4l-4.3,28.8
				c-0.4,0.2-0.8,0.3-1.2,0.4c-1.8,0.6-3.5,1.1-5.4,1.7c-8.4,2.5-17.1,4.4-26.1,5.6l-0.3-1.8c-35.2,2.8-72.8-12.4-96.7-94.3
				c0,0,0-0.1,0-0.2c-1.7-6-3.4-12.3-5-19c-1.7-7.3-3.3-15-4.9-23.2c0-0.2-0.1-0.3-0.1-0.4c-1.6-9.5-3.1-18.6-4.4-27.2
				C1105.1,801.3,1105.1,801,1105,800.8z"/>
			<path class="st18" d="M1355.8,728.4l-0.9,0.2c-9.7-13.9-95.9-2.7-171.9-29.1c-51.5-17.8-69.9-39.3-69.9-39.3h-0.3
				c-0.4-17.1-2.9-29.7-3.2-31.2c1.1,2.7,17.4,41.9,101.9,63.3c66.2,16.8,114.7,11.2,139.9,21.3v0
				C1353,717.1,1354.5,722.1,1355.8,728.4z"/>
			<path class="st13" d="M1296.7,1244c7.7-2.1,15.8-3.6,24.4-4.5c0.1,0,0.2,0,0.3,0c13.5-0.5,38.2,9.2,49.6,32.2
				c-14.4-3.5-32.4-3.2-55.2,3.2c-80.6,22.3-182.4,133.5-238.8,61.9c16.5,17.7,56.5,19.9,87.9-3.4
				C1201.2,1306.3,1236.9,1259.8,1296.7,1244z"/>
			<path class="st15" d="M1343.4,879.8c-19.3,36.8-52.3,66.1-94.3,80.3l4.3-28.8l97.4-100.4l3.7,22.1
				C1351.6,862.3,1347.9,871.3,1343.4,879.8z"/>
			<path class="st13" d="M1321.1,1239.5c-8.6,0.9-16.7,2.4-24.4,4.5c-0.1-6.4-8.5-21.2-11.7-26.5l-0.2-0.2
				c20.6-21.7,22.6-52.6-2.6-79.4c14.6,9,59.6,51.4,92.2,103.8c-7.9-1.5-16.4-2.5-25.6-3c-9.6-0.4-18.7-0.2-27.4,0.7
				C1321.3,1239.5,1321.2,1239.5,1321.1,1239.5z"/>
			<polygon class="st25" points="1288.9,1031.8 1282.9,1048.6 1282.7,1048.7 1287.7,1028.8 			"/>
			<path class="st1" d="M1251.4,1159.5l0-0.9c0.5,0.9,2,1.2,3,0.5c6.2-4.3,20.2-14.8,23.7-24.4c0-0.1,0-0.1,0-0.2l0.5-0.1
				c1.2,1.2,2.4,2.4,3.6,3.6c25.3,26.8,23.2,57.7,2.6,79.4c-7,7.4-16.2,13.8-27.2,18.6c-1.1,0.4-2.2,0.9-3.3,1.3l-0.1-0.3
				c-5.4-24.5-12.6-51.1-17.6-68C1233.5,1158.5,1248.6,1159.2,1251.4,1159.5z"/>
			<path class="st1" d="M1278.1,1134.4c0,0.1,0,0.1,0,0.2c-3.5,9.7-17.5,20.2-23.7,24.4c-1,0.7-2.5,0.4-3-0.5
				c-0.1-0.2-0.2-0.4-0.2-0.6c-2.1-17.6-14.2-25.9-24-25.1c9.5-4,18.4-12.7,18.4-12.7c-1.2-7.5-2.3-15.6-3.1-24.2l0.5-0.1
				C1268.6,1100.4,1275.6,1120.7,1278.1,1134.4z"/>
			<path class="st25" d="M1255,1055.9l-0.8,0.2l-0.7-0.1C1254,1055.9,1254.5,1055.9,1255,1055.9z"/>
			<path class="st2" d="M1227.2,1132.8c9.7-0.8,21.8,7.5,24,25.1c0,0.2,0.1,0.4,0.2,0.6l0,0.9c-2.8-0.2-17.8-1-14.7,9.5
				c5,16.9,12.2,43.5,17.6,68l0.1,0.3c-5,1.9-10.3,3.6-15.9,4.9c-2,0.4-4.1,0.9-6.1,1.2l-0.4-2.1c-2.9-31.8-14.9-81.1-16.9-89.2
				c-0.2-0.7-0.3-1.1-0.3-1.1C1213.6,1139.5,1219.7,1133.4,1227.2,1132.8z"/>
			<path class="st18" d="M1242.6,962.2c1.8-0.5,3.6-1.1,5.4-1.7c-1.8,9.2-3.3,19.2-4.5,29.7c-6.9,20.8-47.9,42.1-99.3,54.2
				c0,0-1.2,58.5-4,83.1l-0.2,0.7c-30-7.9-41.8-17.5-48.2-24.9l2.9-29.3l-0.3-1.3l16.4-3.8l-4.5-19.3l17.9,2.5l5.1-36.1l6.2,5.8
				l23.7-5.2c-7.1-17.1-13.4-35.5-19.2-54.3c20.8,6.1,43.3,8.6,66.5,6.7c3.3-0.3,6.6-0.6,9.9-1.1
				C1225.5,966.5,1234.2,964.7,1242.6,962.2z"/>
			<path class="st15" d="M1242.5,1096c0.8,8.5,1.8,16.7,3.1,24.2c0,0-8.8,8.7-18.4,12.7c-7.5,0.6-13.6,6.7-12.5,18.1
				c0,0,0.1,0.4,0.3,1.1l-0.2,0c-5.3-14.3-18.4-19.2-27.7-14.3l-0.5-1.1c-19.2-2.4-34.5-5.4-46.7-8.7l0.2-0.7
				c2.8-24.6,4-83.1,4-83.1c51.4-12.1,92.4-33.4,99.3-54.2c-2.1,18.9-3.1,39.3-3.1,59.2C1240.4,1065.5,1241.1,1081.4,1242.5,1096z"
				/>
			<path class="st2" d="M1231.9,1241.3l0.4,2.1c-88.7,16.5-192.1-42.7-189.2-92.7l0.5,0c2.2-2.1,4.3-4,6.3-5.8
				c9.1-8.2,15.3-12.9,15.3-12.9c36,30.8,78.7,41,100.8,44.4c6.8,1,13-4,12-9.8c-2.7-15.5,2.1-24.9,9.2-28.7
				c9.2-4.9,22.3,0,27.7,14.3l0.2,0C1217,1160.1,1229,1209.4,1231.9,1241.3z M1198.1,1224.6c5.6-0.4,9.9-4.8,9.5-9.9
				c-0.4-5-5.3-8.8-10.9-8.4c-5.6,0.4-9.9,4.9-9.5,9.9C1187.6,1221.3,1192.5,1225,1198.1,1224.6z"/>
			<path class="st18" d="M1119.5,871.5c23.9,82,61.5,97.2,96.7,94.3l0.3,1.8c-3.3,0.4-6.5,0.8-9.9,1.1c-23.2,1.9-45.7-0.6-66.5-6.7
				c-13.6-44.9-23.5-92.7-30.4-132.9c1.5,8.2,3.2,15.9,4.9,23.2c1.6,6.7,3.2,13,5,19C1119.5,871.5,1119.5,871.5,1119.5,871.5z"/>
			<path class="st1" d="M1207.6,1214.7c0.4,5.1-3.9,9.5-9.5,9.9c-5.6,0.4-10.5-3.3-10.9-8.4c-0.4-5,3.9-9.5,9.5-9.9
				C1202.4,1205.9,1207.3,1209.7,1207.6,1214.7z"/>
			<path class="st2" d="M1186.6,1136.8l0.5,1.1c-7.1,3.8-11.9,13.3-9.2,28.7c1,5.8-5.2,10.8-12,9.8c-22.1-3.3-64.7-13.5-100.8-44.4
				c-0.6-2.3-1-6.9-0.5-12.1v0c1.3-8.2,5.4-17.4,11.3-23c3.9-2.8,9.1-4.5,15.9-4.3l-0.9,8.1l0.6,2.7c6.4,7.4,18.1,17,48.2,24.9
				C1152.2,1131.4,1167.4,1134.4,1186.6,1136.8z"/>
			<path class="st2" d="M1159.2,1016.4l-23.7,5.2l-6.2-5.8c-20.8-46.5-46.3-205.3-50.3-262.2l-0.7-0.8c7.3-6,13.1-13,17.7-20.5
				l0.2,0.1c0,0,2.6,27.8,8.8,68.4c0,0.2,0.1,0.5,0.1,0.7c1.4,9.6,2.8,18.6,4.4,27.2c0,0.2,0.1,0.3,0.1,0.4
				c6.9,40.3,16.8,88,30.4,132.9C1145.8,981,1152.2,999.4,1159.2,1016.4z"/>
			<path class="st18" d="M1114.5,852.4c1.6,6.7,3.3,13,5,19C1117.7,865.4,1116.1,859.1,1114.5,852.4z"/>
			<path class="st18" d="M1074.2,826.6c0.4,4.7,0.2,11.7-0.5,19.3c-4.9,18.9-19.6,34.9-36.6,36.3c-23.1,1.8-43.9-19.9-46.5-48.8
				c-2.6-28.8,14.1-53.7,37.1-55.6C1050.8,776,1071.6,797.8,1074.2,826.6z"/>
			<path class="st26" d="M1064.7,1119.8c0.8-8,3.7-17.6,11.3-23C1070.1,1102.4,1066.1,1111.6,1064.7,1119.8z"/>
		</g>
		<g>
			<path class="st3" d="M2131.6,1060.4c0.5-0.4,1.1-0.9,1.6-1.4c0.5-0.4,1.1-0.9,1.6-1.4c0.4-0.4,0.9-0.8,1.3-1.3
				c0.3-0.2,0.5-0.5,0.8-0.7c34.1,17.3,72.6,27.1,113.4,27.1c34.3,0,67.9-5.7,97.7-18.2"/>
			<path class="st3" d="M2121.8,1067.1c0.6-0.3,1.1-0.6,1.7-1c0.8-0.5,1.6-1,2.3-1.5c1-0.7,2-1.3,3-2.1"/>
			<path class="st3" d="M2109.7,1072.7c1.2-0.4,2.5-0.9,3.7-1.4c1.3-0.5,2.6-1.1,4-1.8c1.2-0.5,2.3-1.1,3.4-1.8"/>
			<path class="st3" d="M2105.2,1074.1c1.3-0.4,2.7-0.8,4-1.2"/>
			<path class="st3" d="M2101.1,1075.2c1.3-0.3,2.6-0.6,4-1"/>
			<path class="st3" d="M2084,1077.2c1.4,0,2.8,0,4.2-0.1c1.3-0.1,2.6-0.2,3.8-0.3c0.7-0.1,1.3-0.1,2-0.3c0.7,0,1.3-0.1,1.9-0.3
				c0.6-0.1,1.1-0.2,1.7-0.3c1.1-0.2,2.1-0.4,3.2-0.6"/>
			<path class="st3" d="M2081,1077.1c1,0,1.9,0.1,2.8,0.1"/>
			<path class="st3" d="M2070.3,1076c0.9,0.2,1.8,0.3,2.7,0.4c1.4,0.2,2.9,0.4,4.4,0.5c0.6,0.1,1.2,0.1,1.8,0.1"/>
			<path class="st3" d="M2066.5,1075.2c0.8,0.2,1.6,0.4,2.4,0.5"/>
			<path class="st3" d="M1808.6,1166.7c26,14,54.6,21.1,86.2,21.1c42.5,0,81.7-14.3,113-38.5c25-19.3,45-44.9,57.5-74.4"/>
			<path class="st3" d="M1524.8,958.3c-2.5,9.6-3.9,19.6-3.9,30c0,65.4,53,118.4,118.4,118.4c12.3,0,24.2-1.9,35.3-5.4"/>
			<path class="st3" d="M1520.9,958.1c1.2,0.1,2.5,0.2,3.7,0.2"/>
			<path class="st3" d="M1512.7,957c1.2,0.2,2.5,0.4,3.8,0.6c1.3,0.2,2.7,0.4,4.1,0.5"/>
			<path class="st3" d="M1509.1,956.2c0.8,0.2,1.7,0.4,2.5,0.5"/>
			<path class="st3" d="M1505.1,955.1c1,0.3,2,0.6,3,0.8"/>
			<path class="st3" d="M1493.5,950.5c0.8,0.4,1.7,0.8,2.6,1.2c0.6,0.3,1.2,0.5,1.8,0.8"/>
			<path class="st3" d="M1490.4,948.9c0.9,0.5,1.8,1,2.7,1.4"/>
			<path class="st3" d="M1468.7,931.1c0.8,1,1.6,1.9,2.5,2.8c0.9,1,1.8,1.9,2.7,2.8c1,0.9,1.9,1.8,2.9,2.7c0.8,0.7,1.7,1.4,2.5,2.1
				c0.5,0.4,1,0.8,1.4,1.1"/>
			<path class="st3" d="M1375.3,948.8c30.8,5.3,68.6-5.7,93.3-17.9"/>
			<path class="st3" d="M2144.6,1047c-2.6,3.4-5.4,6.6-8.4,9.3c-0.4,0.5-0.9,0.9-1.3,1.3c-0.5,0.5-1.1,1-1.6,1.4
				c-0.5,0.5-1.1,0.9-1.6,1.4c-0.9,0.8-1.9,1.5-2.8,2.2c-1,0.7-2,1.4-3,2.1c-0.8,0.5-1.5,1-2.3,1.5c-0.5,0.4-1.1,0.7-1.7,1
				c-0.4,0.3-0.7,0.4-1.1,0.6c-1.1,0.6-2.3,1.2-3.4,1.8c-1.3,0.6-2.6,1.2-4,1.8c-1.2,0.5-2.4,1-3.7,1.4c-0.2,0.1-0.3,0.1-0.5,0.2
				c-1.3,0.5-2.6,0.9-4,1.2c-0.1,0.1-0.1,0.1-0.2,0.1c-1.3,0.4-2.6,0.7-4,1c-0.1,0.1-0.2,0.1-0.3,0.1c-1.1,0.3-2.1,0.5-3.2,0.6
				c-0.6,0.1-1.1,0.2-1.7,0.3c-0.6,0.1-1.3,0.2-1.9,0.3c-0.7,0.1-1.3,0.2-2,0.3c-1.3,0.2-2.5,0.3-3.8,0.3c-1.4,0.1-2.8,0.1-4.2,0.1
				c-0.1,0-0.1,0-0.2,0c-1,0-1.9,0-2.8-0.1c-0.6,0-1.2,0-1.8-0.1c-0.6,0-1.1-0.1-1.8-0.1c-1.5-0.1-2.9-0.3-4.4-0.5
				c-0.9-0.1-1.8-0.3-2.7-0.4c-0.5-0.1-1-0.2-1.5-0.3c-0.8-0.2-1.6-0.4-2.4-0.5c-0.4-0.1-0.8-0.2-1.1-0.3c-9.5-2.4-18.7-6.7-27.1-13
				"/>
			<path class="st3" d="M1551.3,954.3c-7.6,2.6-15.8,4-24.3,4c-0.7,0-1.5,0-2.2,0c-0.1,0-0.2,0-0.3,0c-1.2,0-2.5-0.1-3.7-0.2
				c-0.1,0-0.2,0-0.3,0c-1.4-0.1-2.7-0.3-4.1-0.5c-1.3-0.2-2.5-0.4-3.8-0.6c-0.4-0.1-0.7-0.2-1.1-0.3c-0.8-0.1-1.7-0.3-2.5-0.5
				c-0.4-0.1-0.7-0.2-1.1-0.3c-1-0.3-2-0.5-3-0.8c-2.5-0.7-4.9-1.6-7.2-2.6c-0.6-0.2-1.2-0.5-1.8-0.8c-0.9-0.4-1.8-0.8-2.6-1.2
				c-0.2-0.1-0.3-0.1-0.4-0.2c-0.9-0.4-1.8-0.9-2.7-1.4c-3.4-1.8-6.6-4-9.7-6.3c-0.5-0.4-1-0.7-1.4-1.1c-0.9-0.7-1.7-1.4-2.5-2.1
				c-1-0.9-1.9-1.8-2.9-2.7c-1-0.9-1.9-1.8-2.7-2.8c-0.9-0.9-1.7-1.8-2.5-2.8c-0.1-0.1-0.1-0.1-0.1-0.2c-7.8-9.4-13.4-20.7-16-33.2"
				/>
			<path class="st3" d="M1716.3,535.5l11.4,20.4c3.4,6.2,1.2,14.1-5,17.5l-1.7,1c-6.2,3.4-14.1,1.2-17.5-5l-163.8-294.1
				c-3.4-6.2-1.2-14,4.9-17.5l1.8-1c6.2-3.4,14-1.2,17.5,5l10.2,18.3l54,97l44.1,79.2L1716.3,535.5z"/>
			<path class="st3" d="M1629.8,244.5l-6.9-12.4c-3.1-5.6-1.1-12.7,4.5-15.8l1.6-0.9c5.6-3.1,12.7-1.1,15.8,4.5l11.7,21.1l44.1,79.1
				l44.1,79.2l44.1,79.2l13.7,24.6c3.1,5.6,1.1,12.7-4.5,15.8l-1.6,0.9c-5.6,3.1-12.7,1.1-15.8-4.5l-8.2-14.7"/>
			<line class="st3" x1="1673.9" y1="323.7" x2="1639.8" y2="262.4"/>
			<line class="st3" x1="1718" y1="402.8" x2="1683.9" y2="341.5"/>
			<line class="st3" x1="1762.1" y1="482" x2="1728" y2="420.7"/>
			<path class="st3" d="M1575.9,279l42-26.9l11.9-7.7l4.6-2.9c4.4-2.8,10.4-0.8,13.3,4.3c1.2,2.1,1.6,4.4,1.4,6.6
				c-0.3,2.7-1.6,5.1-3.9,6.5l-5.4,3.5l-11.1,7.1l-42.8,27.4"/>
			<path class="st3" d="M1620,358.2l45.4-29.1l8.5-5.4l4.6-2.9c4.4-2.8,10.4-0.8,13.2,4.3c1.2,2.1,1.6,4.4,1.4,6.6
				c-0.3,2.7-1.6,5-3.8,6.5l-5.4,3.5l-7.8,5l-46.2,29.5"/>
			<path class="st3" d="M1664.1,437.4l46.4-29.7l7.5-4.8l4.6-2.9c4.3-2.8,10.4-0.9,13.2,4.3c1.2,2.1,1.6,4.4,1.4,6.6
				c-0.3,2.6-1.6,5-3.9,6.4l-5.4,3.5l-6.8,4.3l-47.2,30.2"/>
			<path class="st3" d="M1708.2,516.5l48.9-31.3l5.1-3.3l4.5-2.9c4.4-2.8,10.4-0.9,13.3,4.3c1.2,2.1,1.6,4.4,1.4,6.6
				c-0.3,2.6-1.6,5-3.9,6.4l-5.4,3.5l-3.4,2.2l-50.5,32.4"/>
			<path class="st3" d="M1667.1,727.2l-92.7,12.4l-132.2-53.1l156.8-21.2l53.3-7.2c0.9-0.1,1.8-0.1,2.6,0.1l9.6,1.8"/>
			<line class="st3" x1="1712.5" y1="721.2" x2="1685.8" y2="724.7"/>
			<polyline class="st3" points="1694.4,665.4 1847.3,693.8 1876.6,699.2 1731.6,718.6 1731.3,718.6 			"/>
			<line class="st3" x1="1442.2" y1="686.5" x2="1440.6" y2="851.6"/>
			<polyline class="st3" points="1876.6,699.2 1873.5,949.5 1873.4,956.2 			"/>
			<path class="st3" d="M1992.2,487.6c-6.8,0.8-15.9-6-13.9-17.1c2-11.2,5.2-20.3,0.8-21.5c-1.1-0.3-2.1,0.1-2.9,0.8
				c-2,1.7-3.1,5.2-3.1,5.2"/>
			<path class="st3" d="M1976.1,449.5c-2.4-6.4-9.9-12.7-15.8-5.6c-5.3,6.5,1.3,11.8,1.7,15.8c0,0-2.4,4.8,1.6,8
				c0,0-3.6,21.9,14,30.1"/>
			<path class="st3" d="M1978.4,528.7c2.7-5.3,7.6-9.2,12.7-9.5"/>
			<path class="st3" d="M2026.1,494.5c-0.1,3.4-0.4,6.5-0.8,9c-0.3,1.9-0.6,3.6-1,5.2c-3.6,15-12.3,19.5-18.9,19.6
				c-0.2,0-0.4,0-0.5,0c-7.5,0.3-13,3.7-13.1,8.2c-0.1,6.2,12.1,8.5,15.1,9.2c2.9,0.7,4,4.9,3.1,9.9c-0.9,5.1,6.4,15.9-3.9,18.9
				c-11,3.2-10.5-16.3-10.5-16.3c-20.4-5.1-22.3-19.7-17.2-29.5"/>
			<path class="st3" d="M1965,526.5c-0.4,0.5-0.6,1.2-0.7,2c-0.5,3.3,1,8.9,2.2,15c1.5,7.6-4.7,10.5-6.9,11.4
				c-2.3,0.9-14.2,12.6-19.3,5.4c-4.9-7,10.6-15.3,10.6-15.3s-2.9-7.1-2.6-16.7c0-0.7,0-1.5,0.1-2.3c0.5-7.3,3.9-13,8.5-17.3
				c6-5.7,14.1-9.1,20.5-10.9c0.6-0.2,1.1-0.3,1.7-0.5c5.7-1.5,10.5-4.9,13.7-9.2c3.2-4.3,4.7-9.5,3.9-14.5
				c-2.1-13.2,2.7-21.6,12.7-21.1c10.2,0.5,14.5,13.2,16,26.5"/>
			<path class="st3" d="M2022.7,495.4c0.7-0.4,1.4-0.8,2.2-1.2c7.2-4,17.1-10,22.3-5.6c5.7,4.9-5.9,11.2-5.9,11.2s-9.9,0.7-8.9,3.9
				c1.1,3.1,6.1,2.7,6.1,2.7s-1.2,1.3-2.3,3.2c-1.3,2.3-2.4,5.4-0.6,7.7c3.2,4,13.8,3.6,15.8,2.5c1.6-0.9,4.2-4.2,3.6-5.8"/>
			<path class="st3" d="M2051.5,514c1.5-1,3.2-2.4,4.2-4c0.9-1.4,1.3-3.1,0.6-4.7c0,0,13.3-14.1,3.3-24.2
				c-9.1-9.3-24.9-4.8-33.8-1.1c-1.7,0.7-3.1,1.3-4.1,1.9"/>
			<path class="st3" d="M2087.3,525.4c-6.8,0.6-14.5,1.1-22.9,1.5c-17.3,0.9-37.6,1.5-59.5,1.7"/>
			<path class="st3" d="M2055.7,510c40,1.8,66.8,5,66.8,8.6c0,2-7.9,3.9-21.5,5.4"/>
			<path class="st3" d="M1947,528.3c-9.7-0.2-18.9-0.5-27.6-0.8c-43-1.7-72.2-5-72.2-8.9c0-4.9,47.1-8.9,109.7-9.9"/>
			<path class="st3" d="M1978.4,528.7L1978.4,528.7c-4.6,0-9-0.1-13.4-0.1"/>
			<line class="st3" x1="2122.5" y1="518.6" x2="2122.5" y2="617.4"/>
			<line class="st3" x1="1847.3" y1="518.6" x2="1847.3" y2="691.6"/>
			<path class="st3" d="M2262.7,1010.7c10.5,0,21.8-0.4,31.9-1.9c22.8-3.7,48.3-9,67.4-18.1"/>
			<path class="st3" d="M2346.4,597.9c-11.9-5-24.3-9-37.2-11.9c-14.9-3.3-30.5-5.1-46.5-5.1c-53.6,0-102.6,19.6-140.2,52
				c-38.4,33.1-65,79.6-72.5,132.2c-1.1,7.8-1.8,15.7-2.1,23.7c-0.1,2.3-0.1,4.6-0.1,6.9c0,14.8,1.5,29.3,4.4,43.3"/>
			<path class="st3" d="M1214.8,1152.1c-5.3-14.3-18.4-19.2-27.7-14.3c-7.1,3.8-11.9,13.3-9.2,28.7c1,5.8-5.2,10.8-12,9.8
				c-22.1-3.3-64.7-13.5-100.8-44.4c-1.1-3.2-1.2-7.5-0.5-12.1v0c1.3-8.2,5.4-17.4,11.3-23c3.1-3,6.8-5,10.9-5.4
				c2.6-0.3,5.6,0.3,5.6,0.3"/>
			<path class="st3" d="M1247.9,960.5c-1.8,9.2-3.3,19.2-4.5,29.7c-2.1,18.9-3.1,39.3-3.1,59.2c0,16.2,0.8,32,2.1,46.6
				c0.8,8.5,1.8,16.7,3.1,24.2c0,0-8.8,8.7-18.4,12.7c-0.4,0.2-0.8,0.3-1.2,0.4"/>
			<path class="st3" d="M1186.6,1136.8c-19.2-2.4-34.5-5.4-46.7-8.7c-30-7.9-41.8-17.5-48.2-24.9l2.9-29.3"/>
			<path class="st3" d="M1243,1095.9c25.6,4.5,32.6,24.7,35.1,38.5c0,0.1,0,0.1,0,0.2c-3.5,9.7-17.5,20.2-23.7,24.4
				c-1,0.7-2.5,0.4-3-0.5c-0.1-0.2-0.2-0.4-0.2-0.6c-2.1-17.6-14.2-25.9-24-25.1c-7.5,0.6-13.6,6.7-12.5,18.1c0,0,0.1,0.4,0.3,1.1
				c2,8,14,57.3,16.9,89.2"/>
			<path class="st3" d="M1065.2,1132c0,0-6.2,4.7-15.3,12.9c-2,1.8-4.1,3.7-6.3,5.8"/>
			<path class="st3" d="M1279,1136.2c0.8,0.3,1.8,0.8,3.2,1.7c14.6,9,59.6,51.4,92.2,103.8c0.1,0.1,0.1,0.1,0.1,0.2"/>
			<path class="st3" d="M1278.6,1134.3c1.2,1.2,2.4,2.4,3.6,3.6c25.3,26.8,23.2,57.7,2.6,79.4c-7,7.4-16.2,13.8-27.2,18.6
				c-1.1,0.4-2.2,0.9-3.3,1.3c-5,1.9-10.3,3.6-15.9,4.9c-2,0.4-4.1,0.9-6.1,1.2c-88.7,16.5-192.1-42.7-189.2-92.7
				c0-0.4,0.1-0.9,0.1-1.3"/>
			<path class="st3" d="M1198.1,1224.6c5.6-0.4,9.9-4.8,9.5-9.9c-0.4-5-5.3-8.8-10.9-8.4c-5.6,0.4-9.9,4.9-9.5,9.9
				C1187.6,1221.3,1192.5,1225,1198.1,1224.6z"/>
			<path class="st3" d="M1321.1,1239.5c-8.6,0.9-16.7,2.4-24.4,4.5c-59.8,15.8-95.5,62.3-131.7,89.3c-31.4,23.4-71.4,21.1-87.9,3.4
				c-4.5-4.7-7.2-10.5-7.6-17.3"/>
			<path class="st3" d="M1465.6,1311c-1.9-6.7-22.6-56.1-91.2-69.2c-7.9-1.5-16.4-2.5-25.6-3c-9.6-0.4-18.7-0.2-27.4,0.7"/>
			<path class="st3" d="M1376.4,1311c2.4-15.9-0.2-29-5.4-39.3c-11.4-23-36.1-32.8-49.6-32.2c-0.1,0-0.2,0-0.3,0c-0.3,0-0.5,0-0.7,0
				"/>
			<path class="st3" d="M1140.1,962.1c20.8,6.1,43.3,8.6,66.5,6.7c3.3-0.3,6.6-0.6,9.9-1.1c9-1.2,17.7-3.1,26.1-5.6
				c1.8-0.5,3.6-1.1,5.4-1.7c0.4-0.1,0.8-0.3,1.2-0.4c42-14.2,75-43.5,94.3-80.3c4.5-8.5,8.2-17.5,11.2-26.7
				c1.8-5.5,3.2-11.2,4.4-16.9c1-4.7,1.7-9.6,2.3-14.4c0.9-7.6,1.2-15.4,1-23.2c-0.3-10.9-0.8-21.3-1.5-30.9
				c-0.4-4.8-0.8-9.5-1.2-13.9c-1-9.7-2.3-18.3-3.7-25.3c-1.3-6.3-2.8-11.3-4.3-14.7"/>
			<path class="st27" d="M1313.9,760.2c0.1,10.1,7.6,18.1,16.6,18c9-0.2,16.3-8.4,16.2-18.5"/>
			<path class="st27" d="M1186.4,759.1c1,11.4,10.4,19.9,20.9,19.1s18.2-10.8,17.2-22.2"/>
			<path class="st27" d="M1304.6,803.2c-8,8.8-26.3,12.8-38.9,0.9"/>
			<path class="st3" d="M1073.7,845.9c-1.7,20.1-5.8,44.9-5.8,44.9"/>
			<path class="st3" d="M1074.2,826.6c0.4,4.7,0.2,11.7-0.5,19.3c-4.9,18.9-19.6,34.9-36.6,36.3c-23.1,1.8-43.9-19.9-46.5-48.8
				c-2.6-28.8,14.1-53.7,37.1-55.6C1050.8,776,1071.6,797.8,1074.2,826.6z"/>
			<path class="st3" d="M1074,845c-0.1,0.3-0.2,0.5-0.2,0.8"/>
			<path class="st3" d="M1015,815.6c2.2-5.6,8.5-8.3,13.5-8.1c10.1,0.5,17.4,14.4,16.2,30.9"/>
			<path class="st3" d="M1109.6,628.9c0,0,0,0.1,0,0.2c1.1,2.7,17.4,41.9,101.9,63.3c66.2,16.8,114.7,11.2,139.9,21.3
				c8.2,3.3,13.9,8.2,17,16.1"/>
			<path class="st3" d="M1067.4,760.4c4-2.3,7.6-4.9,10.9-7.6c7.3-6,13.1-13,17.7-20.5c14.3-23,17.2-51,16.8-72.1
				c-0.4-17.1-2.9-29.7-3.2-31.2"/>
			<path class="st3" d="M1105,800.8c-6.2-40.6-8.8-68.4-8.8-68.4"/>
			<path class="st3" d="M1109.6,828.7c-1.6-9.5-3.1-18.6-4.4-27.2"/>
			<path class="st3" d="M1363.3,767.4c86-51.4,53.1-172.7-54.2-225.3c-21-10.3-43-17.4-65.1-21.8c-11.4-2.3-22.8-3.9-34-4.8
				c-13.4-1.1-26.5-1.3-39.2-0.8c-32.8,1.5-61.9,8.3-82.5,18.4c-40,19.6-43,50.7-43,50.7s-26.4-1.8-56.9,20.3
				c-64.4,46.5-35,169.3-11.6,272.5s4.5,189.2,4.5,189.2c17.6,19.8,55.5,24.2,75.1,25.1c7.6,0.4,12.4,0.2,12.4,0.2l3.1-13.3l9.3-2.2
				l13.1-3.1l16.4-3.8l-4.5-19.3l17.9,2.5l5.1-36.1l6.2,5.8l23.7-5.2c-7.1-17.1-13.4-35.5-19.2-54.3
				c-13.6-44.9-23.5-92.7-30.4-132.9"/>
			<path class="st3" d="M1359.6,836.2c0,0,7,46.1,17.3,78.1l-7.5,5c1.4,9.6,3,19.6,4.8,29.7c4.9,27.7,11.4,56.8,19.3,85.4l-23.7,5
				l-7.3,1.6h0c0,0-3.9-6.4-6-9c0-0.1-0.1-0.1-0.1-0.2c-0.7-0.9-1.2-1.3-1.1-0.6c0.3,2.6-2.1,23.7-2.1,23.7l-51.3,12l-12.9-35
				l-1.1-3l-5,19.9l-0.2,0.8c0,0-13,5.4-27.4,6.4c0,0-0.1,0-0.1,0c-0.5,0-1,0.1-1.5,0.1c-4.1,0.2-8.4,0-12.4-0.8"/>
			<path class="st3" d="M1044.3,828.1c-6.7-4-16-0.7-16.3,11"/>
			<path class="st3" d="M1788.4,1002.7c11.3-1.6,22.9-3.2,33.3-4.3c15.3-1.7,27.8-2.5,32.9-1.8"/>
			<path class="st3" d="M1717.8,1010.9c12.1-0.2,32.2-2.8,53.4-5.8"/>
			<path class="st3" d="M1692.3,1147.5c0.1-2.5,0.2-4.9,0.2-7.2c0.3-19.5-2.5-31.3-2.5-31.3s-7.3-2.3-14.1-9
				c-5.3-5.3-10.2-13.2-11.1-24.9c-1.4-19.3,0.1-44.4-10.1-52.2c-10.3-7.8-29.1-17-29.2-34.4c-0.1-9,6.9-15.5,16.6-17.2
				c2.1-0.4,4.5-0.6,6.9-0.5c6,0.2,12.6,2.1,18.8,6.1c3,1.9,5.7,3.8,8.1,5.6c12.9,10,17.1,18.3,24.6,23.7"/>
			<path class="st3" d="M1800.3,1023.7c2.3-0.6,4.7-1.4,7.5-2.5c14.4-5.5,34-16.4,47-24c7.2-4.2,12.4-7.4,13.7-8.2
				c0.2-0.1,0.3-0.2,0.3-0.2"/>
			<path class="st3" d="M1825.1,1039.9c18.6-13.5,31.8-35.8,43.4-50.9c7.6-9.9,14.4-16.8,21.6-16.1c2.3,0.2,4.3,0.9,6,1.9
				c8.3,5.1,9.9,19.7-1.3,42.6c-0.6,1.2-1.2,2.5-1.9,3.8c-14.3,27-32.5,52.2-72.6,74.9c-6.7,3.8-14,7.5-22,11.2
				c0,0,1.1,12.5,0.4,32.4c-0.1,2.5-0.2,5.3-0.4,8.1c0,0,0,0.1,0,0.1"/>
			<path class="st3" d="M1814.6,1046.2c3.7-1.8,7.2-3.9,10.5-6.3"/>
			<path class="st3" d="M1895.2,1017.6c17-10.6,27.7-23.6,21.9-38c-3.7-9.1-19.2-5.4-21-4.9"/>
			<path class="st3" d="M1497.1,1122.2c0.8-2.3,1.2-4.6,1.5-7.1c2.2,0.7,4.5,1,6.9,1c13.4,0,24.3-10.9,24.3-24.3
				c0-13.4-10.9-24.3-24.3-24.3c-1.1,0-2,0.1-3,0.2c-1.5-10.9-10.8-19.3-22.1-19.3c-12.3,0-22.3,10-22.3,22.3c0,3.3,0.8,6.5,2.1,9.3
				c-4.2,0.8-8.1,2.3-11.5,4.6c-9.1,5.7-15.2,15.9-15.2,27.5c0,18,14.6,32.7,32.7,32.7C1480.6,1144.8,1492.9,1135.3,1497.1,1122.2z"
				/>
			<path class="st3" d="M1367.7,1093c-7.4,0-13.8,4.1-17.1,10.2c-1.7-0.9-3.5-1.4-5.5-1.4c-6.6,0-11.9,5.4-11.9,11.9
				c0,6.6,5.4,11.9,11.9,11.9c2.5,0,4.7-0.8,6.7-2c3.5,5.1,9.4,8.4,16,8.4c10.8,0,19.5-8.7,19.5-19.5
				C1387.3,1101.7,1378.5,1093,1367.7,1093z"/>
			<path class="st3" d="M1722.8,1063.1c13.2-15.4,36.6-20.7,60.9-12.9"/>
			<path class="st3" d="M1798.8,1139.7c6.6,1.6,9.8,3.2,9.8,6.9c0,6.1-0.1,12.8-0.5,20c-2,39.7-11,95.6-42.3,143.8"/>
			<path class="st3" d="M1596.5,1311c64.2-52.3,79.9-132.8,84.7-164.4c0.4-2.5,4.1-4.6,10.4-6.4"/>
			<path class="st3" d="M1798.1,1147.8c0,3.8-23.7,6.8-53,6.8c-6,0-11.8-0.1-17.1-0.4c-4-0.2-7.7-0.4-11.1-0.7
				c-14.9-1.2-24.8-3.3-24.8-5.8"/>
			<path class="st3" d="M1721.6,1039.6c-1.1-0.6-4.8-0.4-8.8,0c-0.4,0.1-0.7,0.1-1.1,0.1c-2.4,0.3-4.8,0.6-6.6,0.9"/>
			<line class="st3" x1="1767.3" y1="973.9" x2="1762.2" y2="939.6"/>
			<path class="st3" d="M1762.6,838.9l18.3,120.6l6.6,43.3l2.6,16.9c0.6,4.3-2.3,8.3-6.6,9c-0.4,0.1-0.9,0.1-1.3,0.1
				c-3.7,0-7-2.6-7.7-6.4c0-0.1-0.1-0.2-0.1-0.3l-2.5-17.1l-2.6-17.4"/>
			<path class="st3" d="M1738.6,784.3l0-0.1l-1.7-11c-0.6-4.3,2.3-8.3,6.6-9c0.4-0.1,0.9-0.1,1.3-0.1c3.8,0,7.2,2.8,7.7,6.7
				l1.6,10.3"/>
			<polyline class="st3" points="1735.7,894.2 1735.6,894.2 1704.3,900.4 			"/>
			<line class="st3" x1="1702.2" y1="886.7" x2="1732.8" y2="880.5"/>
			<path class="st3" d="M1707.5,935.8l21.4-4.2l30-5.9l0.3-0.1c0.3-0.1,0.7-0.1,1-0.1c3.2-0.1,6.1,2.5,6.7,6.2
				c0.1,0.4,0.1,0.8,0.1,1.2c0,3.2-1.9,6-4.7,6.7c-0.1,0.1-0.2,0.1-0.3,0.1l-52.3,10.3"/>
			<path class="st3" d="M1713.7,982.2l52-8.3c0.5-0.1,1.1-0.1,1.7-0.1c2.9,0.4,5.4,3,5.8,6.4c0,0.3,0.1,0.6,0.1,0.9
				c0,2.8-1.5,5.4-3.8,6.4c-0.4,0.2-0.9,0.4-1.4,0.5l-52.5,8.4l-0.1,0"/>
			<path class="st3" d="M1742.9,790.3c0,0-2.5-2.4-6.1-5.9c-7.7-7.5-20.1-19.9-20.3-21.8c-0.2-2.8,0.8-13.7-3.6-13.7
				c-3.7,0-2.2,4.8-4.8,7.6c-2.8-1.8-8.8-5.2-8.8-5.2"/>
			<path class="st3" d="M1692.2,768c3,6.6,10.4,4.1,13.3,5.8c2.4,1.4,27.9,29.7,27.9,29.7"/>
			<path class="st3" d="M1701.9,746.3c1.2-3.2-3.4-8.6-11.9-6.2c0,0-2.3-6.9-4.2-15.4c-1.7-7-3.1-15-3-20.9c0,0,4.3-4.6,7.7-12
				c1.9-4.1,3.7-9.2,4.2-14.9c0.1-0.7,0.2-1.4,0.2-2.2c0.2-3.2,0-6.4-0.6-9.4c-1.5-7.8-5.7-14-14.4-15.1c-6.1-0.8-12.5,2.9-15.3,9.7
				c-0.9,2.1-1.3,4.4-1.4,7c-0.1,4.8-0.7,9-1.9,12.2c-1.5,4.2-4,6.4-7.3,5.1"/>
			<path class="st3" d="M1660.7,679c-4,0-5.6-9.3-20.3-7.7c-6.7,0.7-11.4,3.4-14.6,6.7c-2.9,3-4.5,6.5-5.2,9.4
				c-0.2,0.9-0.3,1.8-0.4,2.5"/>
			<path class="st3" d="M1690.8,691.9c15.3-4.4,24.9,8.5,21.3,17.3c0,0-11.6,1.6-10.5,5.2c1,3.6,12.1,2.2,12.1,5
				c0,0.4-0.1,1.1-0.2,1.8c-0.5,4-1.4,11.3,8.8,9.7c4.7-0.7,8.5-6.8,9.4-12.3c0.8-5-0.5-9.6-5.4-9.8c0,0,0.4-16.3-8.7-25.5
				c-6.3-6.3-16.3-7.2-22.5-6.4"/>
			<path class="st3" d="M1620.5,687.3c-13.4,1-16.7-9-21.5-8.4c-1.8,0.2-3.1,0.7-4.4,1.3c-2.1,0.9-3.9,1.9-6.8,1.7
				c-2.6-0.2-9.8-3.6-14,0.2c-4.2,3.8-2.8,11.9,3.6,14c6.4,2,14.7-0.6,14.7-0.6c12.6,10.2,33.5,17.9,71,19c0.9,3.3,2.5,7.9,4.4,12.5
				c3.8,9.7,8.5,19.8,8.5,19.8s-2.4,11,8.5,17.1c3,1.7,5.4,2.2,7.5,2c5.4-0.5,7.7-6.1,8.3-8.4c0.4-1.6-0.7-3.9-1.8-5.9
				c-1.1-2-2.1-3.8-1.6-4.3"/>
			<path class="st3" d="M1625.6,677.8c-4.7-2.2-5.8-5.2-9.4-5.2c-4,0-4.5,0.5-8.4,0.2c-1.7-0.1-5-1.8-8-1.4
				c-1.1,0.2-2.1,0.6-3.1,1.4c-1.8,1.6-3.1,4.2-2.5,6.6"/>
			<path class="st3" d="M1686.5,797.4c6.4,0.6,4,9.2,4,9.2c2.4,1.6,21.8,10.5,38.9,2.7c0,0,1.5-2.4,4-5.9c2.5-3.5,6.1-8.2,10.2-12.6
				c3.3-3.5,6.9-6.9,10.7-9.5c6.3-4.3,12.9-6.2,18.5-2.3c15.9,11-5.9,27.8-9,40c-1.8,7.2-1.6,13.1-1.2,19.7c0.3,6.5,0.6,13.8-1,23.9
				c-2.9,18.2-9.4,30-5.4,50c0.5,2.3,3,9.9,2.4,11.9"/>
			<path class="st3" d="M1689.8,824c0.1-0.1,0.2-0.1,0.2-0.1s3.2,7.1,32.5,4.2c0,0-2.5,5.8-3.4,12.2c-0.6,4.2-0.5,8.6,1.1,12"/>
			<path class="st3" d="M1685.8,805.2c-2.8,2.4-13.5,3.6-15.6-1.9c-0.2-0.4-0.3-0.9-0.3-1.3c0,0-4.9,3.1-5.2,9c-0.2,4,1,8.9,4.7,12
				c1.4,1.2,3.2,2.2,5.4,2.7c0.3,0.1,0.5,0.2,0.8,0.2c8,1.6,13.1-1.2,14.1-1.9"/>
			<path class="st3" d="M1709.5,861.2c2.3,7.2,11.7,16.7,23.3,19.3c1.1,0.3,2.2,0.4,3.3,0.5c1.6,0.2,3.2,0.2,4.9,0.1"/>
			<path class="st3" d="M1689.8,823.9L1689.8,823.9L1689.8,823.9l8.3,55.6l1.1,7.6l2,13.6l5.2,35.1l8.5,57l0.5,3.5l2.2,14.5
				l3.3,22.4c0.6,4-2,4.6-6,5.4c-1.1,0.2-2.2,0.4-3.2,0.5c-0.4,0-0.7,0-1,0c-2.5,0-4.4-0.8-4.8-3.6l-1.1-7.7l-3.3-21.9l-26.8-179.9"
				/>
			<path class="st3" d="M1671.3,803l-2.5-17c-0.6-4,2.1-7.8,6.1-8.5c0.5-0.1,1-0.1,1.5-0.1c3.7,0,6.9,2.7,7.5,6.4l2.1,13.8l0.9,6"/>
			<path class="st3" d="M1718.2,840.3c-4.4-5.4-16.9-2.2-20.7,8.2c-2.7,7.5-1.8,19.1,2.8,24.9c0,0-1.8,4.6-1.8,6.2"/>
			<path class="st3" d="M1728.8,931.1c-3.2-1.8-3.8-11.8,9.6-18.1c0,0-2.3-8.4-2.8-18.7c-0.2-4-0.1-8.2,0.4-12.3"/>
			<path class="st3" d="M1718.8,873.7c2.4,2.4,0.6,7.8-0.2,8.5"/>
		</g>
	</g>
	<path class="st3" d="M2047.4,1311h-671c-94.5,0-116.8,142.3-256,142.3c-88.1,0-160.3-56.7-166.3-142.3c-0.3-3.8-0.4-7.7-0.4-11.7
		c0-80.7,68-138.1,81.2-149.9c4.7-4.1,12.1-5.7,15-4.6"/>
	<line class="st3" x1="2084.1" y1="1311" x2="2071.3" y2="1311"/>
	<line class="st3" x1="2139.6" y1="1311.6" x2="2136.2" y2="1311.6"/>
	<path class="st3" d="M2347.1,998.2"/>
</g>
<ellipse class="st8" cx="1709" cy="606.1" rx="41.3" ry="6.4"/>
<path class="st3" d="M2347.1,1063.3"/>
<path class="st28" d="M2391.4,691.7c12.4,16.9,24.2,40.4,25.8,69.9"/>
<circle class="st1" cx="2364.7" cy="659.7" r="15.3"/>
</svg>
