<?xml version="1.0" encoding="utf-8"?>
<!-- Generator: Adobe Illustrator 22.0.0, SVG Export Plug-In . SVG Version: 6.00 Build 0)  -->
<svg version="1.1" id="Layer_1" xmlns="http://www.w3.org/2000/svg" xmlns:xlink="http://www.w3.org/1999/xlink" x="0px" y="0px"
	 viewBox="0 0 567.1 1408.6" style="enable-background:new 0 0 567.1 1408.6;" xml:space="preserve">
<style type="text/css">
	.st0{fill:#B1B742;}
	.st1{fill:#D9E650;}
	.st2{fill:#BCBC35;}
	.st3{fill:none;stroke:#330303;stroke-width:3.743;stroke-linecap:round;stroke-linejoin:round;stroke-miterlimit:10;}
	.st4{fill:#ADEBDA;}
	.st5{fill:#4FC4B7;}
	.st6{fill:#7CE5D6;}
	.st7{fill:#FDE471;}
	.st8{fill:#FBBC7A;}
	.st9{fill:#FFD071;}
	.st10{fill:#FFBBC3;}
	.st11{fill:#FE828B;}
	.st12{fill:#FFA1A8;}
	.st13{opacity:0.4;fill:#4FC4B7;}
	.st14{opacity:0.4;fill:#ADEBDA;}
	.st15{opacity:0.4;fill:#7CE5D6;}
	.st16{opacity:0.4;fill:none;stroke:#330303;stroke-width:3.743;stroke-linecap:round;stroke-linejoin:round;stroke-miterlimit:10;}
	.st17{opacity:0.2;fill:#FDE471;}
	.st18{opacity:0.2;fill:#FBBC7A;}
	.st19{opacity:0.2;fill:#FFD071;}
	.st20{opacity:0.2;fill:none;stroke:#330303;stroke-width:3.743;stroke-linecap:round;stroke-linejoin:round;stroke-miterlimit:10;}
</style>
<polygon class="st0" points="205.3,1324.2 259.8,1407.6 263.9,1356.2 "/>
<polygon class="st1" points="205.3,1324.2 263.9,1356.2 306.2,1314.9 "/>
<polygon class="st2" points="263.9,1356.2 259.8,1407.6 301,1371 306.2,1314.9 "/>
<polygon class="st3" points="259.8,1407.6 263.9,1356.2 306.2,1314.9 301,1371 "/>
<polyline class="st3" points="259.8,1407.6 205.3,1324.2 306.2,1314.9 "/>
<line class="st3" x1="263.9" y1="1356.2" x2="205.3" y2="1324.2"/>
<polygon class="st4" points="101.5,1173.2 165.3,1164.3 142,1188.1 "/>
<polygon class="st5" points="101.5,1173.2 142,1188.1 139.9,1226.4 "/>
<polygon class="st6" points="142,1188.1 165.3,1164.3 165,1200 139.9,1226.4 "/>
<polygon class="st3" points="165.3,1164.3 142,1188.1 139.9,1226.4 165,1200 "/>
<polyline class="st3" points="165.3,1164.3 101.5,1173.2 139.9,1226.4 "/>
<line class="st3" x1="142" y1="1188.1" x2="101.5" y2="1173.2"/>
<polygon class="st7" points="336.6,1267.1 403.3,1165 408.3,1227.9 "/>
<polygon class="st8" points="336.6,1267.1 408.3,1227.9 460.2,1278.5 "/>
<polygon class="st9" points="408.3,1227.9 403.3,1165 453.8,1209.8 460.2,1278.5 "/>
<polygon class="st3" points="403.3,1165 408.3,1227.9 460.2,1278.5 453.8,1209.8 "/>
<polyline class="st3" points="403.3,1165 336.6,1267.1 460.2,1278.5 "/>
<line class="st3" x1="408.3" y1="1227.9" x2="336.6" y2="1267.1"/>
<polygon class="st10" points="519.4,1218.9 555.6,1213.8 542.4,1227.4 "/>
<polygon class="st11" points="519.4,1218.9 542.4,1227.4 541.2,1249.1 "/>
<polygon class="st12" points="542.4,1227.4 555.6,1213.8 555.5,1234.1 541.2,1249.1 "/>
<polygon class="st3" points="555.6,1213.8 542.4,1227.4 541.2,1249.1 555.5,1234.1 "/>
<polyline class="st3" points="555.6,1213.8 519.4,1218.9 541.2,1249.1 "/>
<line class="st3" x1="542.4" y1="1227.4" x2="519.4" y2="1218.9"/>
<polygon class="st7" points="17.8,950.3 72.2,866.9 76.3,918.3 "/>
<polygon class="st8" points="17.8,950.3 76.3,918.3 118.7,959.6 "/>
<polygon class="st9" points="76.3,918.3 72.2,866.9 113.4,903.6 118.7,959.6 "/>
<polygon class="st3" points="72.2,866.9 76.3,918.3 118.7,959.6 113.4,903.6 "/>
<polyline class="st3" points="72.2,866.9 17.8,950.3 118.7,959.6 "/>
<line class="st3" x1="76.3" y1="918.3" x2="17.8" y2="950.3"/>
<polygon class="st10" points="213.4,887.9 277.3,879 254,902.8 "/>
<polygon class="st11" points="213.4,887.9 254,902.8 251.9,941.1 "/>
<polygon class="st12" points="254,902.8 277.3,879 277,914.6 251.9,941.1 "/>
<polygon class="st3" points="277.3,879 254,902.8 251.9,941.1 277,914.6 "/>
<polyline class="st3" points="277.3,879 213.4,887.9 251.9,941.1 "/>
<line class="st3" x1="254" y1="902.8" x2="213.4" y2="887.9"/>
<polygon class="st13" points="29.7,796 93.6,804.9 70.3,781.1 "/>
<polygon class="st14" points="29.7,796 70.3,781.1 68.2,742.8 "/>
<polygon class="st15" points="70.3,781.1 93.6,804.9 93.3,769.2 68.2,742.8 "/>
<polygon class="st16" points="93.6,804.9 70.3,781.1 68.2,742.8 93.3,769.2 "/>
<polyline class="st16" points="93.6,804.9 29.7,796 68.2,742.8 "/>
<line class="st16" x1="70.3" y1="781.1" x2="29.7" y2="796"/>
<polygon class="st7" points="133.6,620.8 177.9,614.6 161.7,631.1 "/>
<polygon class="st8" points="133.6,620.8 161.7,631.1 160.3,657.7 "/>
<polygon class="st9" points="161.7,631.1 177.9,614.6 177.7,639.3 160.3,657.7 "/>
<polygon class="st3" points="177.9,614.6 161.7,631.1 160.3,657.7 177.7,639.3 "/>
<polyline class="st3" points="177.9,614.6 133.6,620.8 160.3,657.7 "/>
<line class="st3" x1="161.7" y1="631.1" x2="133.6" y2="620.8"/>
<polygon class="st17" points="1.5,317.3 65.3,308.3 42,332.2 "/>
<polygon class="st18" points="1.5,317.3 42,332.2 39.9,370.4 "/>
<polygon class="st19" points="42,332.2 65.3,308.3 65,344 39.9,370.4 "/>
<polygon class="st20" points="65.3,308.3 42,332.2 39.9,370.4 65,344 "/>
<polyline class="st20" points="65.3,308.3 1.5,317.3 39.9,370.4 "/>
<line class="st20" x1="42" y1="332.2" x2="1.5" y2="317.3"/>
<polygon class="st5" points="149.1,162.9 203.6,246.3 207.7,194.9 "/>
<polygon class="st4" points="149.1,162.9 207.7,194.9 250,153.6 "/>
<polygon class="st6" points="207.7,194.9 203.6,246.3 244.8,209.7 250,153.6 "/>
<polygon class="st3" points="203.6,246.3 207.7,194.9 250,153.6 244.8,209.7 "/>
<polyline class="st3" points="203.6,246.3 149.1,162.9 250,153.6 "/>
<line class="st3" x1="207.7" y1="194.9" x2="149.1" y2="162.9"/>
<polygon class="st10" points="389.1,94.4 443.6,11 447.7,62.4 "/>
<polygon class="st11" points="389.1,94.4 447.7,62.4 490,103.6 "/>
<polygon class="st12" points="447.7,62.4 443.6,11 484.8,47.6 490,103.6 "/>
<polygon class="st3" points="443.6,11 447.7,62.4 490,103.6 484.8,47.6 "/>
<polyline class="st3" points="443.6,11 389.1,94.4 490,103.6 "/>
<line class="st3" x1="447.7" y1="62.4" x2="389.1" y2="94.4"/>
<polygon class="st8" points="118.9,440 212.2,582.9 219.2,494.9 "/>
<polygon class="st7" points="118.9,440 219.2,494.9 291.8,424.1 "/>
<polygon class="st9" points="219.2,494.9 212.2,582.9 282.8,520.1 291.8,424.1 "/>
<polygon class="st3" points="212.2,582.9 219.2,494.9 291.8,424.1 282.8,520.1 "/>
<polyline class="st3" points="212.2,582.9 118.9,440 291.8,424.1 "/>
<line class="st3" x1="219.2" y1="494.9" x2="118.9" y2="440"/>
</svg>
