<?xml version="1.0" encoding="utf-8"?>
<!-- Generator: Adobe Illustrator 22.0.0, SVG Export Plug-In . SVG Version: 6.00 Build 0)  -->
<svg version="1.1" id="Layer_1" xmlns="http://www.w3.org/2000/svg" xmlns:xlink="http://www.w3.org/1999/xlink" x="0px" y="0px"
	 viewBox="0 0 783.1 1521.4" style="enable-background:new 0 0 783.1 1521.4;" xml:space="preserve">
<style type="text/css">
	.st0{fill:#B1B742;}
	.st1{fill:#D9E650;}
	.st2{fill:#BCBC35;}
	.st3{fill:none;stroke:#330303;stroke-width:3.743;stroke-linecap:round;stroke-linejoin:round;stroke-miterlimit:10;}
	.st4{fill:#ADEBDA;}
	.st5{fill:#4FC4B7;}
	.st6{fill:#7CE5D6;}
	.st7{fill:#FDE471;}
	.st8{fill:#FBBC7A;}
	.st9{fill:#FFD071;}
	.st10{fill:#FFBBC3;}
	.st11{fill:#FE828B;}
	.st12{fill:#FFA1A8;}
	.st13{opacity:0.4;fill:#4FC4B7;}
	.st14{opacity:0.4;fill:#ADEBDA;}
	.st15{opacity:0.4;fill:#7CE5D6;}
	.st16{opacity:0.4;fill:none;stroke:#330303;stroke-width:3.743;stroke-linecap:round;stroke-linejoin:round;stroke-miterlimit:10;}
</style>
<polygon class="st0" points="382.3,86.5 327.8,3.2 323.7,54.5 "/>
<polygon class="st1" points="382.3,86.5 323.7,54.5 281.4,95.8 "/>
<polygon class="st2" points="323.7,54.5 327.8,3.2 286.6,39.8 281.4,95.8 "/>
<polygon class="st3" points="327.8,3.2 323.7,54.5 281.4,95.8 286.6,39.8 "/>
<polyline class="st3" points="327.8,3.2 382.3,86.5 281.4,95.8 "/>
<line class="st3" x1="323.7" y1="54.5" x2="382.3" y2="86.5"/>
<polygon class="st1" points="771.4,161.7 735.7,216.3 733,182.7 "/>
<polygon class="st0" points="771.4,161.7 733,182.7 705.3,155.6 "/>
<polygon class="st2" points="733,182.7 735.7,216.3 708.7,192.3 705.3,155.6 "/>
<polygon class="st3" points="735.7,216.3 733,182.7 705.3,155.6 708.7,192.3 "/>
<polyline class="st3" points="735.7,216.3 771.4,161.7 705.3,155.6 "/>
<line class="st3" x1="733" y1="182.7" x2="771.4" y2="161.7"/>
<polygon class="st4" points="486.1,237.5 422.3,246.5 445.6,222.6 "/>
<polygon class="st5" points="486.1,237.5 445.6,222.6 447.7,184.4 "/>
<polygon class="st6" points="445.6,222.6 422.3,246.5 422.6,210.8 447.7,184.4 "/>
<polygon class="st3" points="422.3,246.5 445.6,222.6 447.7,184.4 422.6,210.8 "/>
<polyline class="st3" points="422.3,246.5 486.1,237.5 447.7,184.4 "/>
<line class="st3" x1="445.6" y1="222.6" x2="486.1" y2="237.5"/>
<polygon class="st7" points="251,143.7 184.3,245.8 179.3,182.9 "/>
<polygon class="st8" points="251,143.7 179.3,182.9 127.4,132.3 "/>
<polygon class="st9" points="179.3,182.9 184.3,245.8 133.8,200.9 127.4,132.3 "/>
<polygon class="st3" points="184.3,245.8 179.3,182.9 127.4,132.3 133.8,200.9 "/>
<polyline class="st3" points="184.3,245.8 251,143.7 127.4,132.3 "/>
<line class="st3" x1="179.3" y1="182.9" x2="251" y2="143.7"/>
<polygon class="st10" points="68.2,191.9 32,197 45.2,183.4 "/>
<polygon class="st11" points="68.2,191.9 45.2,183.4 46.4,161.7 "/>
<polygon class="st12" points="45.2,183.4 32,197 32.1,176.7 46.4,161.7 "/>
<polygon class="st3" points="32,197 45.2,183.4 46.4,161.7 32.1,176.7 "/>
<polyline class="st3" points="32,197 68.2,191.9 46.4,161.7 "/>
<line class="st3" x1="45.2" y1="183.4" x2="68.2" y2="191.9"/>
<polygon class="st8" points="656.1,329.5 592.3,320.5 615.6,344.4 "/>
<polygon class="st7" points="656.1,329.5 615.6,344.4 617.7,382.6 "/>
<polygon class="st9" points="615.6,344.4 592.3,320.5 592.6,356.2 617.7,382.6 "/>
<polygon class="st3" points="592.3,320.5 615.6,344.4 617.7,382.6 592.6,356.2 "/>
<polyline class="st3" points="592.3,320.5 656.1,329.5 617.7,382.6 "/>
<line class="st3" x1="615.6" y1="344.4" x2="656.1" y2="329.5"/>
<polygon class="st7" points="569.8,460.5 515.4,543.8 511.3,492.5 "/>
<polygon class="st8" points="569.8,460.5 511.3,492.5 469,451.2 "/>
<polygon class="st9" points="511.3,492.5 515.4,543.8 474.2,507.2 469,451.2 "/>
<polygon class="st3" points="515.4,543.8 511.3,492.5 469,451.2 474.2,507.2 "/>
<polyline class="st3" points="515.4,543.8 569.8,460.5 469,451.2 "/>
<line class="st3" x1="511.3" y1="492.5" x2="569.8" y2="460.5"/>
<polygon class="st10" points="374.2,522.8 310.3,531.8 333.6,507.9 "/>
<polygon class="st11" points="374.2,522.8 333.6,507.9 335.7,469.7 "/>
<polygon class="st12" points="333.6,507.9 310.3,531.8 310.6,496.1 335.7,469.7 "/>
<polygon class="st3" points="310.3,531.8 333.6,507.9 335.7,469.7 310.6,496.1 "/>
<polyline class="st3" points="310.3,531.8 374.2,522.8 335.7,469.7 "/>
<line class="st3" x1="333.6" y1="507.9" x2="374.2" y2="522.8"/>
<polygon class="st13" points="557.9,614.8 494,605.8 517.3,629.7 "/>
<polygon class="st14" points="557.9,614.8 517.3,629.7 519.4,667.9 "/>
<polygon class="st15" points="517.3,629.7 494,605.8 494.3,641.5 519.4,667.9 "/>
<polygon class="st16" points="494,605.8 517.3,629.7 519.4,667.9 494.3,641.5 "/>
<polyline class="st16" points="494,605.8 557.9,614.8 519.4,667.9 "/>
<line class="st16" x1="517.3" y1="629.7" x2="557.9" y2="614.8"/>
<polygon class="st7" points="454,790 409.7,796.2 425.9,779.6 "/>
<polygon class="st8" points="454,790 425.9,779.6 427.4,753.1 "/>
<polygon class="st9" points="425.9,779.6 409.7,796.2 409.9,771.4 427.4,753.1 "/>
<polygon class="st3" points="409.7,796.2 425.9,779.6 427.4,753.1 409.9,771.4 "/>
<polyline class="st3" points="409.7,796.2 454,790 427.4,753.1 "/>
<line class="st3" x1="425.9" y1="779.6" x2="454" y2="790"/>
<polygon class="st0" points="656.1,1185.4 592.3,1176.5 615.6,1200.3 "/>
<polygon class="st1" points="656.1,1185.4 615.6,1200.3 617.7,1238.6 "/>
<polygon class="st2" points="615.6,1200.3 592.3,1176.5 592.6,1212.2 617.7,1238.6 "/>
<polygon class="st3" points="592.3,1176.5 615.6,1200.3 617.7,1238.6 592.6,1212.2 "/>
<polyline class="st3" points="592.3,1176.5 656.1,1185.4 617.7,1238.6 "/>
<line class="st3" x1="615.6" y1="1200.3" x2="656.1" y2="1185.4"/>
<polygon class="st5" points="438.5,1247.8 384,1164.5 379.9,1215.8 "/>
<polygon class="st4" points="438.5,1247.8 379.9,1215.8 337.6,1257.1 "/>
<polygon class="st6" points="379.9,1215.8 384,1164.5 342.8,1201.1 337.6,1257.1 "/>
<polygon class="st3" points="384,1164.5 379.9,1215.8 337.6,1257.1 342.8,1201.1 "/>
<polyline class="st3" points="384,1164.5 438.5,1247.8 337.6,1257.1 "/>
<line class="st3" x1="379.9" y1="1215.8" x2="438.5" y2="1247.8"/>
<polygon class="st10" points="198.5,1316.4 144,1399.8 139.9,1348.4 "/>
<polygon class="st11" points="198.5,1316.4 139.9,1348.4 97.6,1307.1 "/>
<polygon class="st12" points="139.9,1348.4 144,1399.8 102.8,1363.2 97.6,1307.1 "/>
<polygon class="st3" points="144,1399.8 139.9,1348.4 97.6,1307.1 102.8,1363.2 "/>
<polyline class="st3" points="144,1399.8 198.5,1316.4 97.6,1307.1 "/>
<line class="st3" x1="139.9" y1="1348.4" x2="198.5" y2="1316.4"/>
<polygon class="st13" points="62.9,1466.6 13,1459.6 31.2,1478.3 "/>
<polygon class="st14" points="62.9,1466.6 31.2,1478.3 32.9,1508.2 "/>
<polygon class="st15" points="31.2,1478.3 13,1459.6 13.2,1487.5 32.9,1508.2 "/>
<polygon class="st16" points="13,1459.6 31.2,1478.3 32.9,1508.2 13.2,1487.5 "/>
<polyline class="st16" points="13,1459.6 62.9,1466.6 32.9,1508.2 "/>
<line class="st16" x1="31.2" y1="1478.3" x2="62.9" y2="1466.6"/>
<polygon class="st8" points="468.7,970.7 375.4,827.9 368.4,915.9 "/>
<polygon class="st7" points="468.7,970.7 368.4,915.9 295.8,986.7 "/>
<polygon class="st9" points="368.4,915.9 375.4,827.9 304.8,890.6 295.8,986.7 "/>
<polygon class="st3" points="375.4,827.9 368.4,915.9 295.8,986.7 304.8,890.6 "/>
<polyline class="st3" points="375.4,827.9 468.7,970.7 295.8,986.7 "/>
<line class="st3" x1="368.4" y1="915.9" x2="468.7" y2="970.7"/>
</svg>
