<?xml version="1.0" encoding="utf-8"?>
<!-- Generator: Adobe Illustrator 22.0.0, SVG Export Plug-In . SVG Version: 6.00 Build 0)  -->
<svg version="1.1" id="Layer_1" xmlns="http://www.w3.org/2000/svg" xmlns:xlink="http://www.w3.org/1999/xlink" x="0px" y="0px"
	 viewBox="0 0 930 1877" style="enable-background:new 0 0 930 1877;" xml:space="preserve">
<style type="text/css">
	.st0{fill-rule:evenodd;clip-rule:evenodd;fill:#F9FDFE;}
	.st1{fill-rule:evenodd;clip-rule:evenodd;fill:#F4F9FB;}
	.st2{fill:#F4F9FB;}
</style>
<path class="st0" d="M0-16.5h930v1893H0V-16.5z"/>
<g>
	<g>
		<path class="st1" d="M685.3,586.2C641.2,605,593.3,614,549.8,614c-64.6,0-127.1-17.8-177.7-47.3c-4.4-2.6-7.7,2-4,5.3
			c46.9,42.4,108.8,67.9,177.6,67.9c49.1,0,106.1-15.5,145.4-44.6C697.5,590.6,691.9,583.4,685.3,586.2z M724.1,563.9
			c-4.3-5.3-41.1-9.9-63.6,6c-3.5,2.4-2.9,5.8,1,5.3c12.7-1.5,40.9-4.9,45.9,1.5c5,6.5-5.6,33.1-10.3,44.9c-1.4,3.6,1.6,5,4.9,2.3
			C723,606.3,728.4,569.2,724.1,563.9z M574.5,425.8c-23.3,2.6-53.8,4.4-75.7,14c-25.2,10.9-42.9,33.2-42.9,66
			c0,41.9,26.3,62.9,60.2,62.9c28.6,0,44.3-6.8,66.3-29.3c7.3,10.6,9.7,15.8,23.1,26.9c3,1.6,6.8,1.5,9.5-0.9l0.1,0.1
			c8-7.2,22.6-19.9,30.9-26.8c3.3-2.7,2.7-7,0.1-10.7c-7.4-10.2-15.2-18.5-15.2-37.4v-62.9c0-26.6,1.9-51.1-17.7-69.5
			c-15.4-14.9-41-20.1-60.6-20.1c-38.3,0-81,14.3-90,61.8c-1,5,2.7,7.7,6,8.4l39,4.2c3.7-0.2,6.3-3.8,7-7.4
			c3.3-16.3,17-24.2,32.3-24.2c8.3,0,17.7,3.1,22.6,10.5c5.6,8.3,4.9,19.7,4.9,29.3V425.8z M567,509.7
			c-6.4,11.4-16.6,18.3-27.9,18.3c-15.4,0-24.5-11.8-24.5-29.3c0-34.4,30.7-40.6,59.9-40.6v8.7C574.5,482.6,574.9,495.7,567,509.7z"
			/>
	</g>
</g>
<path class="st2" d="M546.4,1134c-99.7,0-180.5,75.4-180.5,168.5c0,52.9,26.2,100.2,67.1,131v64.5l61.6-34.1
	c16.4,4.6,33.8,7.1,51.8,7.1c99.7,0,180.5-75.4,180.5-168.5S646.1,1134,546.4,1134z M565.5,1359.9l-46.7-48.4l-89.9,49.6l98.6-104.4
	l46.7,48.4l89.9-49.6L565.5,1359.9z"/>
</svg>
