<?xml version="1.0" encoding="utf-8"?>
<!-- Generator: Adobe Illustrator 22.0.0, SVG Export Plug-In . SVG Version: 6.00 Build 0)  -->
<svg version="1.1" id="Layer_1" xmlns="http://www.w3.org/2000/svg" xmlns:xlink="http://www.w3.org/1999/xlink" x="0px" y="0px"
	 viewBox="0 0 750 1546" style="enable-background:new 0 0 750 1546;" xml:space="preserve">
<style type="text/css">
	.st0{fill:#FFFCF6;}
	.st1{fill:#FBF7EC;}
</style>
<path class="st0" d="M0,0h750v1546H0V0z"/>
<g>
	<g>
		<path class="st1" d="M409.4,881.3c0.3-2-1.2-3.9-3.2-4.2H229.4v-78.9h85.3c0.2,0,0.4,0,0.7,0c2-0.2,3.6-2,3.4-4.1
			c-0.2-2.1-2-3.6-4-3.4h-89c-2,0-3.7,1.7-3.7,3.7v86.4c0,2,1.7,3.7,3.7,3.7h180.3C407.8,884.4,409.1,883.1,409.4,881.3z
			 M524.3,790.8H366.1c-0.2,0-0.4,0-0.7,0c-2,0.2-3.6,2-3.4,4.1c0.2,2.1,2,3.6,4,3.4h154.5v78.9h-62.1c-1.8,0.2-3.2,1.6-3.4,3.4
			c-0.2,2.1,1.3,3.9,3.4,4.1h65.8c2,0,3.7-1.7,3.7-3.7v-86.4C528,792.5,526.4,790.8,524.3,790.8z M272.4,819.5h-6.7
			c-0.5,0-1,0.5-1,1h-0.2V844c0.4,8.2,7.3,14.5,15.4,14.1h0.3c8.2,0.2,15-6.3,15.2-14.5v-23.2c0-0.5-0.5-1-1-1h-6.7
			c-0.6,0-1,0.4-1,1v22.7c0,0.2,0,0.3,0,0.5c-0.1,3.7-3.3,6.6-7,6.5c-3.7-0.1-6.6-3.3-6.4-7v-22.7
			C273.4,819.9,273,819.5,272.4,819.5z M480,827.3c0.6,0,1-0.4,1-1v-5.9c0-0.6-0.4-1-1-1h-22.5c-0.6,0-1,0.4-1,1h0v36
			c0,0.6,0.4,1,1,1H480c0.6,0,1-0.4,1-1v-6c0-0.6-0.4-1-1-1h-15v-7.4h12.4c0.6,0,1-0.4,1-1v-5.9c0-0.5-0.5-1-1-1H465v-6.8H480z
			 M385.3,857.6c0.5,0,1-0.5,1-1v-36.1c0-0.5-0.5-1-1-1h-6.5c-0.5,0-1,0.5-1,1h0v36.1c0,0.5,0.5,1,1,1H385.3z M433.5,819.5h-24.1
			c-0.6,0-1,0.4-1,1v5.9c0,0,0,0,0,0.1c0,0.6,0.4,1,1,1h7.8l0,0v29.1c0,0.5,0.5,1,1,1h6.5c0.5,0,1-0.5,1-1v-29.2h7.8
			c0.6,0,1-0.4,1-1v-5.9C434.5,819.9,434,819.5,433.5,819.5z M322,818.9h-0.8c-0.6,0-1,0.4-1,1h-0.1v36.7c0,0.5,0.5,1,1,1h6.5
			c0.6,0,1-0.4,1-1v-20.3l21.1,21.3c0.3,0.4,0.8,0.6,1.4,0.6h0.7c0.5,0,0.9-0.5,0.9-1v-36.7c0-0.5-0.5-1-1-1h-6.4c-0.6,0-1,0.4-1,1
			v19.2l-20.9-20C323.1,819.2,322.6,819,322,818.9z M34.5,1035.8c-3.4,0-6.2,2.8-6.2,6.2c0,3.4,2.8,6.2,6.2,6.2s6.2-2.8,6.2-6.2
			C40.7,1038.5,37.9,1035.8,34.5,1035.8z M71.5,1045.6c2,0,3.7-1.7,3.7-3.7s-1.7-3.7-3.7-3.7c-2,0-3.7,1.7-3.7,3.7
			S69.4,1045.6,71.5,1045.6z M108.4,1044.4c1.4,0,2.5-1.1,2.5-2.5c0-1.4-1.1-2.5-2.5-2.5s-2.5,1.1-2.5,2.5
			C106,1043.3,107.1,1044.4,108.4,1044.4z M219.3,1044.4c1.4,0,2.5-1.1,2.5-2.5c0-1.4-1.1-2.5-2.5-2.5s-2.5,1.1-2.5,2.5
			C216.8,1043.3,217.9,1044.4,219.3,1044.4z M253.8,1041.9c0,2,1.7,3.7,3.7,3.7c2,0,3.7-1.7,3.7-3.7s-1.7-3.7-3.7-3.7
			C255.4,1038.2,253.8,1039.9,253.8,1041.9z M34.5,1072.8c-3.4,0-6.2,2.8-6.2,6.2c0,3.4,2.8,6.2,6.2,6.2s6.2-2.8,6.2-6.2
			C40.7,1075.5,37.9,1072.8,34.5,1072.8z M71.5,1072.8c-3.4,0-6.2,2.8-6.2,6.2c0,3.4,2.8,6.2,6.2,6.2s6.2-2.8,6.2-6.2
			C77.6,1075.5,74.9,1072.8,71.5,1072.8z M108.4,1082.6c2,0,3.7-1.7,3.7-3.7c0-2-1.7-3.7-3.7-3.7s-3.7,1.7-3.7,3.7
			C104.7,1081,106.4,1082.6,108.4,1082.6z M145.4,1072.8c-3.4,0-6.2,2.8-6.2,6.2c0,3.4,2.8,6.2,6.2,6.2s6.2-2.8,6.2-6.2
			C151.5,1075.5,148.8,1072.8,145.4,1072.8z M182.3,1072.8c-3.4,0-6.2,2.8-6.2,6.2c0,3.4,2.8,6.2,6.2,6.2s6.2-2.8,6.2-6.2
			C188.5,1075.5,185.7,1072.8,182.3,1072.8z M219.3,1072.8c-3.4,0-6.2,2.8-6.2,6.2c0,3.4,2.8,6.2,6.2,6.2s6.2-2.8,6.2-6.2
			C225.5,1075.5,222.7,1072.8,219.3,1072.8z M256.3,1072.8c-3.4,0-6.2,2.8-6.2,6.2c0,3.4,2.8,6.2,6.2,6.2s6.2-2.8,6.2-6.2
			C262.4,1075.5,259.7,1072.8,256.3,1072.8z M293.2,1072.8c-3.4,0-6.2,2.8-6.2,6.2c0,3.4,2.8,6.2,6.2,6.2s6.2-2.8,6.2-6.2
			C299.4,1075.5,296.6,1072.8,293.2,1072.8z M34.5,1109.7c-3.4,0-6.2,2.8-6.2,6.2c0,3.4,2.8,6.2,6.2,6.2s6.2-2.8,6.2-6.2
			C40.7,1112.5,37.9,1109.7,34.5,1109.7z M71.5,1109.7c-3.4,0-6.2,2.8-6.2,6.2c0,3.4,2.8,6.2,6.2,6.2s6.2-2.8,6.2-6.2
			C77.6,1112.5,74.9,1109.7,71.5,1109.7z M219.3,1119.6c2,0,3.7-1.7,3.7-3.7c0-2-1.7-3.7-3.7-3.7s-3.7,1.7-3.7,3.7
			C215.6,1117.9,217.3,1119.6,219.3,1119.6z M256.3,1109.7c-3.4,0-6.2,2.8-6.2,6.2c0,3.4,2.8,6.2,6.2,6.2s6.2-2.8,6.2-6.2
			C262.4,1112.5,259.7,1109.7,256.3,1109.7z M293.2,1109.7c-3.4,0-6.2,2.8-6.2,6.2c0,3.4,2.8,6.2,6.2,6.2s6.2-2.8,6.2-6.2
			C299.4,1112.5,296.6,1109.7,293.2,1109.7z M34.5,1146.7c-3.4,0-6.2,2.8-6.2,6.2c0,3.4,2.8,6.2,6.2,6.2s6.2-2.8,6.2-6.2
			C40.7,1149.5,37.9,1146.7,34.5,1146.7z M71.5,1146.7c-3.4,0-6.2,2.8-6.2,6.2c0,3.4,2.8,6.2,6.2,6.2s6.2-2.8,6.2-6.2
			C77.6,1149.5,74.9,1146.7,71.5,1146.7z M108.4,1146.7c-3.4,0-6.2,2.8-6.2,6.2c0,3.4,2.8,6.2,6.2,6.2s6.2-2.8,6.2-6.2
			C114.6,1149.5,111.8,1146.7,108.4,1146.7z M145.4,1146.7c-3.4,0-6.2,2.8-6.2,6.2c0,3.4,2.8,6.2,6.2,6.2s6.2-2.8,6.2-6.2
			C151.5,1149.5,148.8,1146.7,145.4,1146.7z M182.3,1146.7c-3.4,0-6.2,2.8-6.2,6.2c0,3.4,2.8,6.2,6.2,6.2s6.2-2.8,6.2-6.2
			C188.5,1149.5,185.7,1146.7,182.3,1146.7z M219.3,1156.6c2,0,3.7-1.7,3.7-3.7s-1.7-3.7-3.7-3.7s-3.7,1.7-3.7,3.7
			S217.3,1156.6,219.3,1156.6z M256.3,1146.7c-3.4,0-6.2,2.8-6.2,6.2c0,3.4,2.8,6.2,6.2,6.2s6.2-2.8,6.2-6.2
			C262.4,1149.5,259.7,1146.7,256.3,1146.7z M293.2,1146.7c-3.4,0-6.2,2.8-6.2,6.2c0,3.4,2.8,6.2,6.2,6.2s6.2-2.8,6.2-6.2
			C299.4,1149.5,296.6,1146.7,293.2,1146.7z M34.5,1183.7c-3.4,0-6.2,2.8-6.2,6.2c0,3.4,2.8,6.2,6.2,6.2s6.2-2.8,6.2-6.2
			C40.7,1186.4,37.9,1183.7,34.5,1183.7z M71.5,1183.7c-3.4,0-6.2,2.8-6.2,6.2c0,3.4,2.8,6.2,6.2,6.2s6.2-2.8,6.2-6.2
			C77.6,1186.4,74.9,1183.7,71.5,1183.7z M108.4,1183.7c-3.4,0-6.2,2.8-6.2,6.2c0,3.4,2.8,6.2,6.2,6.2s6.2-2.8,6.2-6.2
			C114.6,1186.4,111.8,1183.7,108.4,1183.7z M145.4,1183.7c-3.4,0-6.2,2.8-6.2,6.2c0,3.4,2.8,6.2,6.2,6.2s6.2-2.8,6.2-6.2
			C151.5,1186.4,148.8,1183.7,145.4,1183.7z M182.3,1183.7c-3.4,0-6.2,2.8-6.2,6.2c0,3.4,2.8,6.2,6.2,6.2s6.2-2.8,6.2-6.2
			C188.5,1186.4,185.7,1183.7,182.3,1183.7z M219.3,1183.7c-3.4,0-6.2,2.8-6.2,6.2c0,3.4,2.8,6.2,6.2,6.2s6.2-2.8,6.2-6.2
			C225.5,1186.4,222.7,1183.7,219.3,1183.7z M256.3,1183.7c-3.4,0-6.2,2.8-6.2,6.2c0,3.4,2.8,6.2,6.2,6.2s6.2-2.8,6.2-6.2
			C262.4,1186.4,259.7,1183.7,256.3,1183.7z M293.2,1183.7c-3.4,0-6.2,2.8-6.2,6.2c0,3.4,2.8,6.2,6.2,6.2s6.2-2.8,6.2-6.2
			C299.4,1186.4,296.6,1183.7,293.2,1183.7z M34.5,1220.7c-3.4,0-6.2,2.8-6.2,6.2c0,3.4,2.8,6.2,6.2,6.2s6.2-2.8,6.2-6.2
			C40.7,1223.4,37.9,1220.7,34.5,1220.7z M71.5,1220.7c-3.4,0-6.2,2.8-6.2,6.2c0,3.4,2.8,6.2,6.2,6.2s6.2-2.8,6.2-6.2
			C77.6,1223.4,74.9,1220.7,71.5,1220.7z M108.4,1220.7c-3.4,0-6.2,2.8-6.2,6.2c0,3.4,2.8,6.2,6.2,6.2s6.2-2.8,6.2-6.2
			C114.6,1223.4,111.8,1220.7,108.4,1220.7z M145.4,1220.7c-3.4,0-6.2,2.8-6.2,6.2c0,3.4,2.8,6.2,6.2,6.2s6.2-2.8,6.2-6.2
			C151.5,1223.4,148.8,1220.7,145.4,1220.7z M182.3,1220.7c-3.4,0-6.2,2.8-6.2,6.2c0,3.4,2.8,6.2,6.2,6.2s6.2-2.8,6.2-6.2
			C188.5,1223.4,185.7,1220.7,182.3,1220.7z M219.3,1220.7c-3.4,0-6.2,2.8-6.2,6.2c0,3.4,2.8,6.2,6.2,6.2s6.2-2.8,6.2-6.2
			C225.5,1223.4,222.7,1220.7,219.3,1220.7z M256.3,1220.7c-3.4,0-6.2,2.8-6.2,6.2c0,3.4,2.8,6.2,6.2,6.2s6.2-2.8,6.2-6.2
			C262.4,1223.4,259.7,1220.7,256.3,1220.7z M293.2,1220.7c-3.4,0-6.2,2.8-6.2,6.2c0,3.4,2.8,6.2,6.2,6.2s6.2-2.8,6.2-6.2
			C299.4,1223.4,296.6,1220.7,293.2,1220.7z M34.5,1257.6c-3.4,0-6.2,2.8-6.2,6.2c0,3.4,2.8,6.2,6.2,6.2s6.2-2.8,6.2-6.2
			C40.7,1260.4,37.9,1257.6,34.5,1257.6z M71.5,1257.6c-3.4,0-6.2,2.8-6.2,6.2c0,3.4,2.8,6.2,6.2,6.2s6.2-2.8,6.2-6.2
			C77.6,1260.4,74.9,1257.6,71.5,1257.6z M108.4,1257.6c-3.4,0-6.2,2.8-6.2,6.2c0,3.4,2.8,6.2,6.2,6.2s6.2-2.8,6.2-6.2
			C114.6,1260.4,111.8,1257.6,108.4,1257.6z M145.4,1257.6c-3.4,0-6.2,2.8-6.2,6.2c0,3.4,2.8,6.2,6.2,6.2s6.2-2.8,6.2-6.2
			C151.5,1260.4,148.8,1257.6,145.4,1257.6z M182.3,1257.6c-3.4,0-6.2,2.8-6.2,6.2c0,3.4,2.8,6.2,6.2,6.2s6.2-2.8,6.2-6.2
			C188.5,1260.4,185.7,1257.6,182.3,1257.6z M219.3,1257.6c-3.4,0-6.2,2.8-6.2,6.2c0,3.4,2.8,6.2,6.2,6.2s6.2-2.8,6.2-6.2
			C225.5,1260.4,222.7,1257.6,219.3,1257.6z M256.3,1257.6c-3.4,0-6.2,2.8-6.2,6.2c0,3.4,2.8,6.2,6.2,6.2s6.2-2.8,6.2-6.2
			C262.4,1260.4,259.7,1257.6,256.3,1257.6z M293.2,1257.6c-3.4,0-6.2,2.8-6.2,6.2c0,3.4,2.8,6.2,6.2,6.2s6.2-2.8,6.2-6.2
			C299.4,1260.4,296.6,1257.6,293.2,1257.6z M34.5,1294.6c-3.4,0-6.2,2.8-6.2,6.2c0,3.4,2.8,6.2,6.2,6.2s6.2-2.8,6.2-6.2
			C40.7,1297.4,37.9,1294.6,34.5,1294.6z M71.5,1294.6c-3.4,0-6.2,2.8-6.2,6.2c0,3.4,2.8,6.2,6.2,6.2s6.2-2.8,6.2-6.2
			C77.6,1297.4,74.9,1294.6,71.5,1294.6z M108.4,1294.6c-3.4,0-6.2,2.8-6.2,6.2c0,3.4,2.8,6.2,6.2,6.2s6.2-2.8,6.2-6.2
			C114.6,1297.4,111.8,1294.6,108.4,1294.6z M145.4,1294.6c-3.4,0-6.2,2.8-6.2,6.2c0,3.4,2.8,6.2,6.2,6.2s6.2-2.8,6.2-6.2
			C151.5,1297.4,148.8,1294.6,145.4,1294.6z M182.3,1294.6c-3.4,0-6.2,2.8-6.2,6.2c0,3.4,2.8,6.2,6.2,6.2s6.2-2.8,6.2-6.2
			C188.5,1297.4,185.7,1294.6,182.3,1294.6z M219.3,1294.6c-3.4,0-6.2,2.8-6.2,6.2c0,3.4,2.8,6.2,6.2,6.2s6.2-2.8,6.2-6.2
			C225.5,1297.4,222.7,1294.6,219.3,1294.6z M256.3,1294.6c-3.4,0-6.2,2.8-6.2,6.2c0,3.4,2.8,6.2,6.2,6.2s6.2-2.8,6.2-6.2
			C262.4,1297.4,259.7,1294.6,256.3,1294.6z M293.2,1294.6c-3.4,0-6.2,2.8-6.2,6.2c0,3.4,2.8,6.2,6.2,6.2s6.2-2.8,6.2-6.2
			C299.4,1297.4,296.6,1294.6,293.2,1294.6z M551.9,1035.8c-3.4,0-6.2,2.8-6.2,6.2c0,3.4,2.8,6.2,6.2,6.2s6.2-2.8,6.2-6.2
			C558.1,1038.5,555.3,1035.8,551.9,1035.8z M588.9,1035.8c-3.4,0-6.2,2.8-6.2,6.2c0,3.4,2.8,6.2,6.2,6.2s6.2-2.8,6.2-6.2
			C595,1038.5,592.3,1035.8,588.9,1035.8z M330.2,1072.8c-3.4,0-6.2,2.8-6.2,6.2c0,3.4,2.8,6.2,6.2,6.2s6.2-2.8,6.2-6.2
			C336.3,1075.5,333.6,1072.8,330.2,1072.8z M441,1072.8c-3.4,0-6.2,2.8-6.2,6.2c0,3.4,2.8,6.2,6.2,6.2s6.2-2.8,6.2-6.2
			C447.2,1075.5,444.4,1072.8,441,1072.8z M481.7,1078.9c0-2-1.7-3.7-3.7-3.7c-2,0-3.7,1.7-3.7,3.7c0,2,1.7,3.7,3.7,3.7
			C480,1082.6,481.7,1081,481.7,1078.9z M515,1072.8c-3.4,0-6.2,2.8-6.2,6.2c0,3.4,2.8,6.2,6.2,6.2s6.2-2.8,6.2-6.2
			C521.1,1075.5,518.4,1072.8,515,1072.8z M555.6,1078.9c0-2-1.7-3.7-3.7-3.7c-2,0-3.7,1.7-3.7,3.7c0,2,1.7,3.7,3.7,3.7
			C554,1082.6,555.6,1081,555.6,1078.9z M588.9,1082.6c2,0,3.7-1.7,3.7-3.7c0-2-1.7-3.7-3.7-3.7c-2,0-3.7,1.7-3.7,3.7
			C585.2,1081,586.8,1082.6,588.9,1082.6z M333.9,1115.9c0-2-1.7-3.7-3.7-3.7s-3.7,1.7-3.7,3.7c0,2,1.7,3.7,3.7,3.7
			S333.9,1117.9,333.9,1115.9z M367.1,1109.7c-3.4,0-6.2,2.8-6.2,6.2c0,3.4,2.8,6.2,6.2,6.2s6.2-2.8,6.2-6.2
			C373.3,1112.5,370.5,1109.7,367.1,1109.7z M404.1,1109.7c-3.4,0-6.2,2.8-6.2,6.2c0,3.4,2.8,6.2,6.2,6.2s6.2-2.8,6.2-6.2
			C410.2,1112.5,407.5,1109.7,404.1,1109.7z M441,1109.7c-3.4,0-6.2,2.8-6.2,6.2c0,3.4,2.8,6.2,6.2,6.2s6.2-2.8,6.2-6.2
			C447.2,1112.5,444.4,1109.7,441,1109.7z M478,1109.7c-3.4,0-6.2,2.8-6.2,6.2c0,3.4,2.8,6.2,6.2,6.2s6.2-2.8,6.2-6.2
			C484.2,1112.5,481.4,1109.7,478,1109.7z M515,1109.7c-3.4,0-6.2,2.8-6.2,6.2c0,3.4,2.8,6.2,6.2,6.2s6.2-2.8,6.2-6.2
			C521.1,1112.5,518.4,1109.7,515,1109.7z M551.9,1109.7c-3.4,0-6.2,2.8-6.2,6.2c0,3.4,2.8,6.2,6.2,6.2s6.2-2.8,6.2-6.2
			C558.1,1112.5,555.3,1109.7,551.9,1109.7z M588.9,1119.6c2,0,3.7-1.7,3.7-3.7c0-2-1.7-3.7-3.7-3.7c-2,0-3.7,1.7-3.7,3.7
			C585.2,1117.9,586.8,1119.6,588.9,1119.6z M330.2,1146.7c-3.4,0-6.2,2.8-6.2,6.2c0,3.4,2.8,6.2,6.2,6.2s6.2-2.8,6.2-6.2
			C336.3,1149.5,333.6,1146.7,330.2,1146.7z M367.1,1146.7c-3.4,0-6.2,2.8-6.2,6.2c0,3.4,2.8,6.2,6.2,6.2s6.2-2.8,6.2-6.2
			C373.3,1149.5,370.5,1146.7,367.1,1146.7z M404.1,1146.7c-3.4,0-6.2,2.8-6.2,6.2c0,3.4,2.8,6.2,6.2,6.2s6.2-2.8,6.2-6.2
			C410.2,1149.5,407.5,1146.7,404.1,1146.7z M441,1146.7c-3.4,0-6.2,2.8-6.2,6.2c0,3.4,2.8,6.2,6.2,6.2s6.2-2.8,6.2-6.2
			C447.2,1149.5,444.4,1146.7,441,1146.7z M478,1146.7c-3.4,0-6.2,2.8-6.2,6.2c0,3.4,2.8,6.2,6.2,6.2s6.2-2.8,6.2-6.2
			C484.2,1149.5,481.4,1146.7,478,1146.7z M586.4,1152.9c0,1.4,1.1,2.5,2.5,2.5c1.4,0,2.5-1.1,2.5-2.5c0-1.4-1.1-2.5-2.5-2.5
			C587.5,1150.4,586.4,1151.5,586.4,1152.9z M330.2,1183.7c-3.4,0-6.2,2.8-6.2,6.2c0,3.4,2.8,6.2,6.2,6.2s6.2-2.8,6.2-6.2
			C336.3,1186.4,333.6,1183.7,330.2,1183.7z M367.1,1183.7c-3.4,0-6.2,2.8-6.2,6.2c0,3.4,2.8,6.2,6.2,6.2s6.2-2.8,6.2-6.2
			C373.3,1186.4,370.5,1183.7,367.1,1183.7z M404.1,1183.7c-3.4,0-6.2,2.8-6.2,6.2c0,3.4,2.8,6.2,6.2,6.2s6.2-2.8,6.2-6.2
			C410.2,1186.4,407.5,1183.7,404.1,1183.7z M441,1183.7c-3.4,0-6.2,2.8-6.2,6.2c0,3.4,2.8,6.2,6.2,6.2s6.2-2.8,6.2-6.2
			C447.2,1186.4,444.4,1183.7,441,1183.7z M478,1183.7c-3.4,0-6.2,2.8-6.2,6.2c0,3.4,2.8,6.2,6.2,6.2s6.2-2.8,6.2-6.2
			C484.2,1186.4,481.4,1183.7,478,1183.7z M515,1183.7c-3.4,0-6.2,2.8-6.2,6.2c0,3.4,2.8,6.2,6.2,6.2s6.2-2.8,6.2-6.2
			C521.1,1186.4,518.4,1183.7,515,1183.7z M330.2,1220.7c-3.4,0-6.2,2.8-6.2,6.2c0,3.4,2.8,6.2,6.2,6.2s6.2-2.8,6.2-6.2
			C336.3,1223.4,333.6,1220.7,330.2,1220.7z M367.1,1220.7c-3.4,0-6.2,2.8-6.2,6.2c0,3.4,2.8,6.2,6.2,6.2s6.2-2.8,6.2-6.2
			C373.3,1223.4,370.5,1220.7,367.1,1220.7z M404.1,1220.7c-3.4,0-6.2,2.8-6.2,6.2c0,3.4,2.8,6.2,6.2,6.2s6.2-2.8,6.2-6.2
			C410.2,1223.4,407.5,1220.7,404.1,1220.7z M441,1220.7c-3.4,0-6.2,2.8-6.2,6.2c0,3.4,2.8,6.2,6.2,6.2s6.2-2.8,6.2-6.2
			C447.2,1223.4,444.4,1220.7,441,1220.7z M478,1220.7c-3.4,0-6.2,2.8-6.2,6.2c0,3.4,2.8,6.2,6.2,6.2s6.2-2.8,6.2-6.2
			C484.2,1223.4,481.4,1220.7,478,1220.7z M515,1220.7c-3.4,0-6.2,2.8-6.2,6.2c0,3.4,2.8,6.2,6.2,6.2s6.2-2.8,6.2-6.2
			C521.1,1223.4,518.4,1220.7,515,1220.7z M554.4,1226.8c0-1.4-1.1-2.5-2.5-2.5c-1.4,0-2.5,1.1-2.5,2.5c0,1.4,1.1,2.5,2.5,2.5
			C553.3,1229.3,554.4,1228.2,554.4,1226.8z M330.2,1257.6c-3.4,0-6.2,2.8-6.2,6.2c0,3.4,2.8,6.2,6.2,6.2s6.2-2.8,6.2-6.2
			C336.3,1260.4,333.6,1257.6,330.2,1257.6z M367.1,1257.6c-3.4,0-6.2,2.8-6.2,6.2c0,3.4,2.8,6.2,6.2,6.2s6.2-2.8,6.2-6.2
			C373.3,1260.4,370.5,1257.6,367.1,1257.6z M407.8,1263.8c0-2-1.7-3.7-3.7-3.7c-2,0-3.7,1.7-3.7,3.7s1.7,3.7,3.7,3.7
			C406.1,1267.5,407.8,1265.8,407.8,1263.8z M441,1257.6c-3.4,0-6.2,2.8-6.2,6.2c0,3.4,2.8,6.2,6.2,6.2s6.2-2.8,6.2-6.2
			C447.2,1260.4,444.4,1257.6,441,1257.6z M515,1257.6c-3.4,0-6.2,2.8-6.2,6.2c0,3.4,2.8,6.2,6.2,6.2s6.2-2.8,6.2-6.2
			C521.1,1260.4,518.4,1257.6,515,1257.6z M551.9,1257.6c-3.4,0-6.2,2.8-6.2,6.2c0,3.4,2.8,6.2,6.2,6.2s6.2-2.8,6.2-6.2
			C558.1,1260.4,555.3,1257.6,551.9,1257.6z M588.9,1257.6c-3.4,0-6.2,2.8-6.2,6.2c0,3.4,2.8,6.2,6.2,6.2s6.2-2.8,6.2-6.2
			C595,1260.4,592.3,1257.6,588.9,1257.6z M333.9,1300.8c0-2-1.7-3.7-3.7-3.7s-3.7,1.7-3.7,3.7c0,2,1.7,3.7,3.7,3.7
			S333.9,1302.8,333.9,1300.8z M515,1294.6c-3.4,0-6.2,2.8-6.2,6.2c0,3.4,2.8,6.2,6.2,6.2s6.2-2.8,6.2-6.2
			C521.1,1297.4,518.4,1294.6,515,1294.6z M551.9,1297.1c-2,0-3.7,1.7-3.7,3.7c0,2,1.7,3.7,3.7,3.7c2,0,3.7-1.7,3.7-3.7
			C555.6,1298.7,554,1297.1,551.9,1297.1z M34.5,1331.6c-3.4,0-6.2,2.8-6.2,6.2c0,3.4,2.8,6.2,6.2,6.2s6.2-2.8,6.2-6.2
			C40.7,1334.4,37.9,1331.6,34.5,1331.6z M71.5,1331.6c-3.4,0-6.2,2.8-6.2,6.2c0,3.4,2.8,6.2,6.2,6.2s6.2-2.8,6.2-6.2
			C77.6,1334.4,74.9,1331.6,71.5,1331.6z M108.4,1331.6c-3.4,0-6.2,2.8-6.2,6.2c0,3.4,2.8,6.2,6.2,6.2s6.2-2.8,6.2-6.2
			C114.6,1334.4,111.8,1331.6,108.4,1331.6z M145.4,1331.6c-3.4,0-6.2,2.8-6.2,6.2c0,3.4,2.8,6.2,6.2,6.2s6.2-2.8,6.2-6.2
			C151.5,1334.4,148.8,1331.6,145.4,1331.6z M182.3,1331.6c-3.4,0-6.2,2.8-6.2,6.2c0,3.4,2.8,6.2,6.2,6.2s6.2-2.8,6.2-6.2
			C188.5,1334.4,185.7,1331.6,182.3,1331.6z M219.3,1331.6c-3.4,0-6.2,2.8-6.2,6.2c0,3.4,2.8,6.2,6.2,6.2s6.2-2.8,6.2-6.2
			C225.5,1334.4,222.7,1331.6,219.3,1331.6z M256.3,1331.6c-3.4,0-6.2,2.8-6.2,6.2c0,3.4,2.8,6.2,6.2,6.2s6.2-2.8,6.2-6.2
			C262.4,1334.4,259.7,1331.6,256.3,1331.6z M293.2,1331.6c-3.4,0-6.2,2.8-6.2,6.2c0,3.4,2.8,6.2,6.2,6.2s6.2-2.8,6.2-6.2
			C299.4,1334.4,296.6,1331.6,293.2,1331.6z M34.5,1368.6c-3.4,0-6.2,2.8-6.2,6.2c0,3.4,2.8,6.2,6.2,6.2s6.2-2.8,6.2-6.2
			C40.7,1371.3,37.9,1368.6,34.5,1368.6z M71.5,1368.6c-3.4,0-6.2,2.8-6.2,6.2c0,3.4,2.8,6.2,6.2,6.2s6.2-2.8,6.2-6.2
			C77.6,1371.3,74.9,1368.6,71.5,1368.6z M108.4,1368.6c-3.4,0-6.2,2.8-6.2,6.2c0,3.4,2.8,6.2,6.2,6.2s6.2-2.8,6.2-6.2
			C114.6,1371.3,111.8,1368.6,108.4,1368.6z M145.4,1368.6c-3.4,0-6.2,2.8-6.2,6.2c0,3.4,2.8,6.2,6.2,6.2s6.2-2.8,6.2-6.2
			C151.5,1371.3,148.8,1368.6,145.4,1368.6z M182.3,1368.6c-3.4,0-6.2,2.8-6.2,6.2c0,3.4,2.8,6.2,6.2,6.2s6.2-2.8,6.2-6.2
			C188.5,1371.3,185.7,1368.6,182.3,1368.6z M219.3,1368.6c-3.4,0-6.2,2.8-6.2,6.2c0,3.4,2.8,6.2,6.2,6.2s6.2-2.8,6.2-6.2
			C225.5,1371.3,222.7,1368.6,219.3,1368.6z M256.3,1368.6c-3.4,0-6.2,2.8-6.2,6.2c0,3.4,2.8,6.2,6.2,6.2s6.2-2.8,6.2-6.2
			C262.4,1371.3,259.7,1368.6,256.3,1368.6z M293.2,1368.6c-3.4,0-6.2,2.8-6.2,6.2c0,3.4,2.8,6.2,6.2,6.2s6.2-2.8,6.2-6.2
			C299.4,1371.3,296.6,1368.6,293.2,1368.6z M34.5,1405.6c-3.4,0-6.2,2.8-6.2,6.2c0,3.4,2.8,6.2,6.2,6.2s6.2-2.8,6.2-6.2
			C40.7,1408.3,37.9,1405.6,34.5,1405.6z M71.5,1405.6c-3.4,0-6.2,2.8-6.2,6.2c0,3.4,2.8,6.2,6.2,6.2s6.2-2.8,6.2-6.2
			C77.6,1408.3,74.9,1405.6,71.5,1405.6z M108.4,1405.6c-3.4,0-6.2,2.8-6.2,6.2c0,3.4,2.8,6.2,6.2,6.2s6.2-2.8,6.2-6.2
			C114.6,1408.3,111.8,1405.6,108.4,1405.6z M145.4,1405.6c-3.4,0-6.2,2.8-6.2,6.2c0,3.4,2.8,6.2,6.2,6.2s6.2-2.8,6.2-6.2
			C151.5,1408.3,148.8,1405.6,145.4,1405.6z M182.3,1405.6c-3.4,0-6.2,2.8-6.2,6.2c0,3.4,2.8,6.2,6.2,6.2s6.2-2.8,6.2-6.2
			C188.5,1408.3,185.7,1405.6,182.3,1405.6z M223,1411.7c0-2-1.7-3.7-3.7-3.7s-3.7,1.7-3.7,3.7c0,2,1.7,3.7,3.7,3.7
			S223,1413.8,223,1411.7z M256.3,1405.6c-3.4,0-6.2,2.8-6.2,6.2c0,3.4,2.8,6.2,6.2,6.2s6.2-2.8,6.2-6.2
			C262.4,1408.3,259.7,1405.6,256.3,1405.6z M293.2,1405.6c-3.4,0-6.2,2.8-6.2,6.2c0,3.4,2.8,6.2,6.2,6.2s6.2-2.8,6.2-6.2
			C299.4,1408.3,296.6,1405.6,293.2,1405.6z M34.5,1442.5c-3.4,0-6.2,2.8-6.2,6.2s2.8,6.2,6.2,6.2s6.2-2.8,6.2-6.2
			S37.9,1442.5,34.5,1442.5z M71.5,1442.5c-3.4,0-6.2,2.8-6.2,6.2s2.8,6.2,6.2,6.2s6.2-2.8,6.2-6.2S74.9,1442.5,71.5,1442.5z
			 M108.4,1442.5c-3.4,0-6.2,2.8-6.2,6.2s2.8,6.2,6.2,6.2s6.2-2.8,6.2-6.2S111.8,1442.5,108.4,1442.5z M145.4,1442.5
			c-3.4,0-6.2,2.8-6.2,6.2s2.8,6.2,6.2,6.2s6.2-2.8,6.2-6.2S148.8,1442.5,145.4,1442.5z M182.3,1442.5c-3.4,0-6.2,2.8-6.2,6.2
			s2.8,6.2,6.2,6.2s6.2-2.8,6.2-6.2S185.7,1442.5,182.3,1442.5z M219.3,1442.5c-3.4,0-6.2,2.8-6.2,6.2s2.8,6.2,6.2,6.2
			s6.2-2.8,6.2-6.2S222.7,1442.5,219.3,1442.5z M256.3,1442.5c-3.4,0-6.2,2.8-6.2,6.2s2.8,6.2,6.2,6.2s6.2-2.8,6.2-6.2
			S259.7,1442.5,256.3,1442.5z M293.2,1442.5c-3.4,0-6.2,2.8-6.2,6.2s2.8,6.2,6.2,6.2s6.2-2.8,6.2-6.2S296.6,1442.5,293.2,1442.5z
			 M108.4,1482c-2,0-3.7,1.7-3.7,3.7c0,2,1.7,3.7,3.7,3.7s3.7-1.7,3.7-3.7C112.1,1483.6,110.5,1482,108.4,1482z M145.4,1479.5
			c-3.4,0-6.2,2.8-6.2,6.2c0,3.4,2.8,6.2,6.2,6.2s6.2-2.8,6.2-6.2C151.5,1482.3,148.8,1479.5,145.4,1479.5z M182.3,1479.5
			c-3.4,0-6.2,2.8-6.2,6.2c0,3.4,2.8,6.2,6.2,6.2s6.2-2.8,6.2-6.2C188.5,1482.3,185.7,1479.5,182.3,1479.5z M219.3,1479.5
			c-3.4,0-6.2,2.8-6.2,6.2c0,3.4,2.8,6.2,6.2,6.2s6.2-2.8,6.2-6.2C225.5,1482.3,222.7,1479.5,219.3,1479.5z M256.3,1483.2
			c-1.4,0-2.5,1.1-2.5,2.5c0,1.4,1.1,2.5,2.5,2.5c1.4,0,2.5-1.1,2.5-2.5C258.7,1484.3,257.6,1483.2,256.3,1483.2z M293.2,1482
			c-2,0-3.7,1.7-3.7,3.7c0,2,1.7,3.7,3.7,3.7c2,0,3.7-1.7,3.7-3.7C296.9,1483.6,295.3,1482,293.2,1482z M330.2,1331.6
			c-3.4,0-6.2,2.8-6.2,6.2c0,3.4,2.8,6.2,6.2,6.2s6.2-2.8,6.2-6.2C336.3,1334.4,333.6,1331.6,330.2,1331.6z M367.1,1331.6
			c-3.4,0-6.2,2.8-6.2,6.2c0,3.4,2.8,6.2,6.2,6.2s6.2-2.8,6.2-6.2C373.3,1334.4,370.5,1331.6,367.1,1331.6z M404.1,1331.6
			c-3.4,0-6.2,2.8-6.2,6.2c0,3.4,2.8,6.2,6.2,6.2s6.2-2.8,6.2-6.2C410.2,1334.4,407.5,1331.6,404.1,1331.6z M441,1331.6
			c-3.4,0-6.2,2.8-6.2,6.2c0,3.4,2.8,6.2,6.2,6.2s6.2-2.8,6.2-6.2C447.2,1334.4,444.4,1331.6,441,1331.6z M478,1331.6
			c-3.4,0-6.2,2.8-6.2,6.2c0,3.4,2.8,6.2,6.2,6.2s6.2-2.8,6.2-6.2C484.2,1334.4,481.4,1331.6,478,1331.6z M515,1331.6
			c-3.4,0-6.2,2.8-6.2,6.2c0,3.4,2.8,6.2,6.2,6.2s6.2-2.8,6.2-6.2C521.1,1334.4,518.4,1331.6,515,1331.6z M554.4,1337.8
			c0-1.4-1.1-2.5-2.5-2.5c-1.4,0-2.5,1.1-2.5,2.5c0,1.4,1.1,2.5,2.5,2.5C553.3,1340.2,554.4,1339.1,554.4,1337.8z M330.2,1368.6
			c-3.4,0-6.2,2.8-6.2,6.2c0,3.4,2.8,6.2,6.2,6.2s6.2-2.8,6.2-6.2C336.3,1371.3,333.6,1368.6,330.2,1368.6z M367.1,1368.6
			c-3.4,0-6.2,2.8-6.2,6.2c0,3.4,2.8,6.2,6.2,6.2s6.2-2.8,6.2-6.2C373.3,1371.3,370.5,1368.6,367.1,1368.6z M404.1,1368.6
			c-3.4,0-6.2,2.8-6.2,6.2c0,3.4,2.8,6.2,6.2,6.2s6.2-2.8,6.2-6.2C410.2,1371.3,407.5,1368.6,404.1,1368.6z M441,1368.6
			c-3.4,0-6.2,2.8-6.2,6.2c0,3.4,2.8,6.2,6.2,6.2s6.2-2.8,6.2-6.2C447.2,1371.3,444.4,1368.6,441,1368.6z M478,1368.6
			c-3.4,0-6.2,2.8-6.2,6.2c0,3.4,2.8,6.2,6.2,6.2s6.2-2.8,6.2-6.2C484.2,1371.3,481.4,1368.6,478,1368.6z M513.7,1371
			c-1.4,0-2.5,1.1-2.5,2.5c0,1.4,1.1,2.5,2.5,2.5s2.5-1.1,2.5-2.5C516.2,1372.1,515.1,1371,513.7,1371z M551.9,1371
			c-2,0-3.7,1.7-3.7,3.7c0,2,1.7,3.7,3.7,3.7c2,0,3.7-1.7,3.7-3.7C555.6,1372.7,554,1371,551.9,1371z M330.2,1405.6
			c-3.4,0-6.2,2.8-6.2,6.2c0,3.4,2.8,6.2,6.2,6.2s6.2-2.8,6.2-6.2C336.3,1408.3,333.6,1405.6,330.2,1405.6z M367.1,1405.6
			c-3.4,0-6.2,2.8-6.2,6.2c0,3.4,2.8,6.2,6.2,6.2s6.2-2.8,6.2-6.2C373.3,1408.3,370.5,1405.6,367.1,1405.6z M404.1,1405.6
			c-3.4,0-6.2,2.8-6.2,6.2c0,3.4,2.8,6.2,6.2,6.2s6.2-2.8,6.2-6.2C410.2,1408.3,407.5,1405.6,404.1,1405.6z M441,1405.6
			c-3.4,0-6.2,2.8-6.2,6.2c0,3.4,2.8,6.2,6.2,6.2s6.2-2.8,6.2-6.2C447.2,1408.3,444.4,1405.6,441,1405.6z M330.2,1442.5
			c-3.4,0-6.2,2.8-6.2,6.2s2.8,6.2,6.2,6.2s6.2-2.8,6.2-6.2S333.6,1442.5,330.2,1442.5z M367.1,1442.5c-3.4,0-6.2,2.8-6.2,6.2
			s2.8,6.2,6.2,6.2s6.2-2.8,6.2-6.2S370.5,1442.5,367.1,1442.5z M404.1,1442.5c-3.4,0-6.2,2.8-6.2,6.2s2.8,6.2,6.2,6.2
			s6.2-2.8,6.2-6.2S407.5,1442.5,404.1,1442.5z M360.1,134.1c3.4,0,6.2-2.8,6.2-6.2c0-3.4-2.8-6.2-6.2-6.2c-3.4,0-6.2,2.8-6.2,6.2
			C353.9,131.3,356.7,134.1,360.1,134.1z M434,130.4c1.4,0,2.5-1.1,2.5-2.5c0-1.4-1.1-2.5-2.5-2.5c-1.4,0-2.5,1.1-2.5,2.5
			C431.5,129.3,432.6,130.4,434,130.4z M470.9,131.6c2,0,3.7-1.7,3.7-3.7c0-2-1.7-3.7-3.7-3.7c-2,0-3.7,1.7-3.7,3.7
			C467.2,130,468.9,131.6,470.9,131.6z M360.1,171.1c3.4,0,6.2-2.8,6.2-6.2c0-3.4-2.8-6.2-6.2-6.2c-3.4,0-6.2,2.8-6.2,6.2
			C353.9,168.3,356.7,171.1,360.1,171.1z M397,171.1c3.4,0,6.2-2.8,6.2-6.2c0-3.4-2.8-6.2-6.2-6.2c-3.4,0-6.2,2.8-6.2,6.2
			C390.9,168.3,393.6,171.1,397,171.1z M434,171.1c3.4,0,6.2-2.8,6.2-6.2c0-3.4-2.8-6.2-6.2-6.2c-3.4,0-6.2,2.8-6.2,6.2
			C427.8,168.3,430.6,171.1,434,171.1z M470.9,171.1c3.4,0,6.2-2.8,6.2-6.2c0-3.4-2.8-6.2-6.2-6.2s-6.2,2.8-6.2,6.2
			C464.8,168.3,467.5,171.1,470.9,171.1z M507.9,171.1c3.4,0,6.2-2.8,6.2-6.2c0-3.4-2.8-6.2-6.2-6.2s-6.2,2.8-6.2,6.2
			C501.7,168.3,504.5,171.1,507.9,171.1z M323.1,208c3.4,0,6.2-2.8,6.2-6.2c0-3.4-2.8-6.2-6.2-6.2s-6.2,2.8-6.2,6.2
			C316.9,205.3,319.7,208,323.1,208z M360.1,208c3.4,0,6.2-2.8,6.2-6.2c0-3.4-2.8-6.2-6.2-6.2c-3.4,0-6.2,2.8-6.2,6.2
			C353.9,205.3,356.7,208,360.1,208z M397,208c3.4,0,6.2-2.8,6.2-6.2c0-3.4-2.8-6.2-6.2-6.2c-3.4,0-6.2,2.8-6.2,6.2
			C390.9,205.3,393.6,208,397,208z M434,208c3.4,0,6.2-2.8,6.2-6.2c0-3.4-2.8-6.2-6.2-6.2c-3.4,0-6.2,2.8-6.2,6.2
			C427.8,205.3,430.6,208,434,208z M470.9,208c3.4,0,6.2-2.8,6.2-6.2c0-3.4-2.8-6.2-6.2-6.2s-6.2,2.8-6.2,6.2
			C464.8,205.3,467.5,208,470.9,208z M507.9,208c3.4,0,6.2-2.8,6.2-6.2c0-3.4-2.8-6.2-6.2-6.2s-6.2,2.8-6.2,6.2
			C501.7,205.3,504.5,208,507.9,208z M286.2,241.3c1.4,0,2.5-1.1,2.5-2.5c0-1.4-1.1-2.5-2.5-2.5c-1.4,0-2.5,1.1-2.5,2.5
			C283.7,240.2,284.8,241.3,286.2,241.3z M326.8,238.9c0-2-1.7-3.7-3.7-3.7c-2,0-3.7,1.7-3.7,3.7c0,2,1.7,3.7,3.7,3.7
			C325.1,242.6,326.8,240.9,326.8,238.9z M360.1,245c3.4,0,6.2-2.8,6.2-6.2c0-3.4-2.8-6.2-6.2-6.2c-3.4,0-6.2,2.8-6.2,6.2
			C353.9,242.3,356.7,245,360.1,245z M470.9,245c3.4,0,6.2-2.8,6.2-6.2c0-3.4-2.8-6.2-6.2-6.2s-6.2,2.8-6.2,6.2
			C464.8,242.3,467.5,245,470.9,245z M507.9,245c3.4,0,6.2-2.8,6.2-6.2c0-3.4-2.8-6.2-6.2-6.2s-6.2,2.8-6.2,6.2
			C501.7,242.3,504.5,245,507.9,245z M360.1,282c3.4,0,6.2-2.8,6.2-6.2c0-3.4-2.8-6.2-6.2-6.2c-3.4,0-6.2,2.8-6.2,6.2
			C353.9,279.2,356.7,282,360.1,282z M397,282c3.4,0,6.2-2.8,6.2-6.2c0-3.4-2.8-6.2-6.2-6.2c-3.4,0-6.2,2.8-6.2,6.2
			C390.9,279.2,393.6,282,397,282z M434,282c3.4,0,6.2-2.8,6.2-6.2c0-3.4-2.8-6.2-6.2-6.2c-3.4,0-6.2,2.8-6.2,6.2
			C427.8,279.2,430.6,282,434,282z M470.9,282c3.4,0,6.2-2.8,6.2-6.2c0-3.4-2.8-6.2-6.2-6.2s-6.2,2.8-6.2,6.2
			C464.8,279.2,467.5,282,470.9,282z M507.9,282c3.4,0,6.2-2.8,6.2-6.2c0-3.4-2.8-6.2-6.2-6.2s-6.2,2.8-6.2,6.2
			C501.7,279.2,504.5,282,507.9,282z M286.2,319c3.4,0,6.2-2.8,6.2-6.2c0-3.4-2.8-6.2-6.2-6.2s-6.2,2.8-6.2,6.2
			C280,316.2,282.7,319,286.2,319z M320.6,312.8c0,1.4,1.1,2.5,2.5,2.5c1.4,0,2.5-1.1,2.5-2.5c0-1.4-1.1-2.5-2.5-2.5
			C321.7,310.3,320.6,311.4,320.6,312.8z M356.4,312.8c0,2,1.7,3.7,3.7,3.7c2,0,3.7-1.7,3.7-3.7c0-2-1.7-3.7-3.7-3.7
			C358,309.1,356.4,310.8,356.4,312.8z M397,319c3.4,0,6.2-2.8,6.2-6.2c0-3.4-2.8-6.2-6.2-6.2c-3.4,0-6.2,2.8-6.2,6.2
			C390.9,316.2,393.6,319,397,319z M434,319c3.4,0,6.2-2.8,6.2-6.2c0-3.4-2.8-6.2-6.2-6.2c-3.4,0-6.2,2.8-6.2,6.2
			C427.8,316.2,430.6,319,434,319z M470.9,319c3.4,0,6.2-2.8,6.2-6.2c0-3.4-2.8-6.2-6.2-6.2s-6.2,2.8-6.2,6.2
			C464.8,316.2,467.5,319,470.9,319z M507.9,319c3.4,0,6.2-2.8,6.2-6.2c0-3.4-2.8-6.2-6.2-6.2s-6.2,2.8-6.2,6.2
			C501.7,316.2,504.5,319,507.9,319z M282.5,349.8c0,2,1.7,3.7,3.7,3.7c2,0,3.7-1.7,3.7-3.7c0-2-1.7-3.7-3.7-3.7
			C284.1,346.1,282.5,347.7,282.5,349.8z M323.1,355.9c3.4,0,6.2-2.8,6.2-6.2c0-3.4-2.8-6.2-6.2-6.2s-6.2,2.8-6.2,6.2
			C316.9,353.2,319.7,355.9,323.1,355.9z M360.1,355.9c3.4,0,6.2-2.8,6.2-6.2c0-3.4-2.8-6.2-6.2-6.2c-3.4,0-6.2,2.8-6.2,6.2
			C353.9,353.2,356.7,355.9,360.1,355.9z M397,355.9c3.4,0,6.2-2.8,6.2-6.2c0-3.4-2.8-6.2-6.2-6.2c-3.4,0-6.2,2.8-6.2,6.2
			C390.9,353.2,393.6,355.9,397,355.9z M434,355.9c3.4,0,6.2-2.8,6.2-6.2c0-3.4-2.8-6.2-6.2-6.2c-3.4,0-6.2,2.8-6.2,6.2
			C427.8,353.2,430.6,355.9,434,355.9z M470.9,355.9c3.4,0,6.2-2.8,6.2-6.2c0-3.4-2.8-6.2-6.2-6.2s-6.2,2.8-6.2,6.2
			C464.8,353.2,467.5,355.9,470.9,355.9z M507.9,355.9c3.4,0,6.2-2.8,6.2-6.2c0-3.4-2.8-6.2-6.2-6.2s-6.2,2.8-6.2,6.2
			C501.7,353.2,504.5,355.9,507.9,355.9z M655.7,84.8c-3.4,0-6.2,2.8-6.2,6.2c0,3.4,2.8,6.2,6.2,6.2s6.2-2.8,6.2-6.2
			C661.9,87.5,659.1,84.8,655.7,84.8z M692.7,84.8c-3.4,0-6.2,2.8-6.2,6.2c0,3.4,2.8,6.2,6.2,6.2s6.2-2.8,6.2-6.2
			C698.8,87.5,696.1,84.8,692.7,84.8z M729.6,94.6c2,0,3.7-1.7,3.7-3.7c0-2-1.7-3.7-3.7-3.7c-2,0-3.7,1.7-3.7,3.7
			C725.9,93,727.6,94.6,729.6,94.6z M544.9,131.6c2,0,3.7-1.7,3.7-3.7c0-2-1.7-3.7-3.7-3.7c-2,0-3.7,1.7-3.7,3.7
			C541.2,130,542.8,131.6,544.9,131.6z M581.8,134.1c3.4,0,6.2-2.8,6.2-6.2c0-3.4-2.8-6.2-6.2-6.2s-6.2,2.8-6.2,6.2
			C575.7,131.3,578.4,134.1,581.8,134.1z M618.8,121.8c-3.4,0-6.2,2.8-6.2,6.2c0,3.4,2.8,6.2,6.2,6.2s6.2-2.8,6.2-6.2
			C624.9,124.5,622.2,121.8,618.8,121.8z M659.4,127.9c0-2-1.7-3.7-3.7-3.7c-2,0-3.7,1.7-3.7,3.7c0,2,1.7,3.7,3.7,3.7
			C657.8,131.6,659.4,130,659.4,127.9z M692.7,121.8c-3.4,0-6.2,2.8-6.2,6.2c0,3.4,2.8,6.2,6.2,6.2s6.2-2.8,6.2-6.2
			C698.8,124.5,696.1,121.8,692.7,121.8z M729.6,134.1c3.4,0,6.2-2.8,6.2-6.2c0-3.4-2.8-6.2-6.2-6.2s-6.2,2.8-6.2,6.2
			C723.5,131.3,726.2,134.1,729.6,134.1z M544.9,171.1c3.4,0,6.2-2.8,6.2-6.2c0-3.4-2.8-6.2-6.2-6.2s-6.2,2.8-6.2,6.2
			C538.7,168.3,541.4,171.1,544.9,171.1z M581.8,171.1c3.4,0,6.2-2.8,6.2-6.2c0-3.4-2.8-6.2-6.2-6.2s-6.2,2.8-6.2,6.2
			C575.7,168.3,578.4,171.1,581.8,171.1z M618.8,158.7c-3.4,0-6.2,2.8-6.2,6.2c0,3.4,2.8,6.2,6.2,6.2s6.2-2.8,6.2-6.2
			C624.9,161.5,622.2,158.7,618.8,158.7z M655.7,158.7c-3.4,0-6.2,2.8-6.2,6.2c0,3.4,2.8,6.2,6.2,6.2s6.2-2.8,6.2-6.2
			C661.9,161.5,659.1,158.7,655.7,158.7z M692.7,158.7c-3.4,0-6.2,2.8-6.2,6.2c0,3.4,2.8,6.2,6.2,6.2s6.2-2.8,6.2-6.2
			C698.8,161.5,696.1,158.7,692.7,158.7z M725.9,164.9c0,2,1.7,3.7,3.7,3.7c2,0,3.7-1.7,3.7-3.7c0-2-1.7-3.7-3.7-3.7
			C727.6,161.2,725.9,162.8,725.9,164.9z M544.9,208c3.4,0,6.2-2.8,6.2-6.2c0-3.4-2.8-6.2-6.2-6.2s-6.2,2.8-6.2,6.2
			C538.7,205.3,541.4,208,544.9,208z M581.8,208c3.4,0,6.2-2.8,6.2-6.2c0-3.4-2.8-6.2-6.2-6.2s-6.2,2.8-6.2,6.2
			C575.7,205.3,578.4,208,581.8,208z M618.8,195.7c-3.4,0-6.2,2.8-6.2,6.2c0,3.4,2.8,6.2,6.2,6.2s6.2-2.8,6.2-6.2
			C624.9,198.5,622.2,195.7,618.8,195.7z M655.7,195.7c-3.4,0-6.2,2.8-6.2,6.2c0,3.4,2.8,6.2,6.2,6.2s6.2-2.8,6.2-6.2
			C661.9,198.5,659.1,195.7,655.7,195.7z M692.7,195.7c-3.4,0-6.2,2.8-6.2,6.2c0,3.4,2.8,6.2,6.2,6.2s6.2-2.8,6.2-6.2
			C698.8,198.5,696.1,195.7,692.7,195.7z M729.6,195.7c-3.4,0-6.2,2.8-6.2,6.2c0,3.4,2.8,6.2,6.2,6.2s6.2-2.8,6.2-6.2
			C735.8,198.5,733,195.7,729.6,195.7z M544.9,245c3.4,0,6.2-2.8,6.2-6.2c0-3.4-2.8-6.2-6.2-6.2s-6.2,2.8-6.2,6.2
			C538.7,242.3,541.4,245,544.9,245z M581.8,245c3.4,0,6.2-2.8,6.2-6.2c0-3.4-2.8-6.2-6.2-6.2s-6.2,2.8-6.2,6.2
			C575.7,242.3,578.4,245,581.8,245z M618.8,232.7c-3.4,0-6.2,2.8-6.2,6.2c0,3.4,2.8,6.2,6.2,6.2s6.2-2.8,6.2-6.2
			C624.9,235.4,622.2,232.7,618.8,232.7z M655.7,232.7c-3.4,0-6.2,2.8-6.2,6.2c0,3.4,2.8,6.2,6.2,6.2s6.2-2.8,6.2-6.2
			C661.9,235.4,659.1,232.7,655.7,232.7z M692.7,232.7c-3.4,0-6.2,2.8-6.2,6.2c0,3.4,2.8,6.2,6.2,6.2s6.2-2.8,6.2-6.2
			C698.8,235.4,696.1,232.7,692.7,232.7z M729.6,232.7c-3.4,0-6.2,2.8-6.2,6.2c0,3.4,2.8,6.2,6.2,6.2s6.2-2.8,6.2-6.2
			C735.8,235.4,733,232.7,729.6,232.7z M544.9,282c3.4,0,6.2-2.8,6.2-6.2c0-3.4-2.8-6.2-6.2-6.2s-6.2,2.8-6.2,6.2
			C538.7,279.2,541.4,282,544.9,282z M581.8,282c3.4,0,6.2-2.8,6.2-6.2c0-3.4-2.8-6.2-6.2-6.2s-6.2,2.8-6.2,6.2
			C575.7,279.2,578.4,282,581.8,282z M618.8,269.7c-3.4,0-6.2,2.8-6.2,6.2c0,3.4,2.8,6.2,6.2,6.2s6.2-2.8,6.2-6.2
			C624.9,272.4,622.2,269.7,618.8,269.7z M655.7,269.7c-3.4,0-6.2,2.8-6.2,6.2c0,3.4,2.8,6.2,6.2,6.2s6.2-2.8,6.2-6.2
			C661.9,272.4,659.1,269.7,655.7,269.7z M692.7,269.7c-3.4,0-6.2,2.8-6.2,6.2c0,3.4,2.8,6.2,6.2,6.2s6.2-2.8,6.2-6.2
			C698.8,272.4,696.1,269.7,692.7,269.7z M729.6,269.7c-3.4,0-6.2,2.8-6.2,6.2c0,3.4,2.8,6.2,6.2,6.2s6.2-2.8,6.2-6.2
			C735.8,272.4,733,269.7,729.6,269.7z M544.9,319c3.4,0,6.2-2.8,6.2-6.2c0-3.4-2.8-6.2-6.2-6.2s-6.2,2.8-6.2,6.2
			C538.7,316.2,541.4,319,544.9,319z M581.8,319c3.4,0,6.2-2.8,6.2-6.2c0-3.4-2.8-6.2-6.2-6.2s-6.2,2.8-6.2,6.2
			C575.7,316.2,578.4,319,581.8,319z M618.8,306.6c-3.4,0-6.2,2.8-6.2,6.2c0,3.4,2.8,6.2,6.2,6.2s6.2-2.8,6.2-6.2
			C624.9,309.4,622.2,306.6,618.8,306.6z M655.7,306.6c-3.4,0-6.2,2.8-6.2,6.2c0,3.4,2.8,6.2,6.2,6.2s6.2-2.8,6.2-6.2
			C661.9,309.4,659.1,306.6,655.7,306.6z M692.7,306.6c-3.4,0-6.2,2.8-6.2,6.2c0,3.4,2.8,6.2,6.2,6.2s6.2-2.8,6.2-6.2
			C698.8,309.4,696.1,306.6,692.7,306.6z M729.6,306.6c-3.4,0-6.2,2.8-6.2,6.2c0,3.4,2.8,6.2,6.2,6.2s6.2-2.8,6.2-6.2
			C735.8,309.4,733,306.6,729.6,306.6z M544.9,355.9c3.4,0,6.2-2.8,6.2-6.2c0-3.4-2.8-6.2-6.2-6.2s-6.2,2.8-6.2,6.2
			C538.7,353.2,541.4,355.9,544.9,355.9z M581.8,355.9c3.4,0,6.2-2.8,6.2-6.2c0-3.4-2.8-6.2-6.2-6.2s-6.2,2.8-6.2,6.2
			C575.7,353.2,578.4,355.9,581.8,355.9z M618.8,343.6c-3.4,0-6.2,2.8-6.2,6.2c0,3.4,2.8,6.2,6.2,6.2s6.2-2.8,6.2-6.2
			C624.9,346.4,622.2,343.6,618.8,343.6z M655.7,343.6c-3.4,0-6.2,2.8-6.2,6.2c0,3.4,2.8,6.2,6.2,6.2s6.2-2.8,6.2-6.2
			C661.9,346.4,659.1,343.6,655.7,343.6z M692.7,343.6c-3.4,0-6.2,2.8-6.2,6.2c0,3.4,2.8,6.2,6.2,6.2s6.2-2.8,6.2-6.2
			C698.8,346.4,696.1,343.6,692.7,343.6z M729.6,343.6c-3.4,0-6.2,2.8-6.2,6.2c0,3.4,2.8,6.2,6.2,6.2s6.2-2.8,6.2-6.2
			C735.8,346.4,733,343.6,729.6,343.6z M286.2,392.9c3.4,0,6.2-2.8,6.2-6.2c0-3.4-2.8-6.2-6.2-6.2s-6.2,2.8-6.2,6.2
			C280,390.2,282.7,392.9,286.2,392.9z M323.1,392.9c3.4,0,6.2-2.8,6.2-6.2c0-3.4-2.8-6.2-6.2-6.2s-6.2,2.8-6.2,6.2
			C316.9,390.2,319.7,392.9,323.1,392.9z M360.1,392.9c3.4,0,6.2-2.8,6.2-6.2c0-3.4-2.8-6.2-6.2-6.2c-3.4,0-6.2,2.8-6.2,6.2
			C353.9,390.2,356.7,392.9,360.1,392.9z M393.3,386.8c0,2,1.7,3.7,3.7,3.7c2,0,3.7-1.7,3.7-3.7c0-2-1.7-3.7-3.7-3.7
			C395,383.1,393.3,384.7,393.3,386.8z M430.3,386.8c0,2,1.7,3.7,3.7,3.7c2,0,3.7-1.7,3.7-3.7c0-2-1.7-3.7-3.7-3.7
			C431.9,383.1,430.3,384.7,430.3,386.8z M467.2,386.8c0,2,1.7,3.7,3.7,3.7c2,0,3.7-1.7,3.7-3.7c0-2-1.7-3.7-3.7-3.7
			C468.9,383.1,467.2,384.7,467.2,386.8z M507.9,392.9c3.4,0,6.2-2.8,6.2-6.2c0-3.4-2.8-6.2-6.2-6.2s-6.2,2.8-6.2,6.2
			C501.7,390.2,504.5,392.9,507.9,392.9z M282.5,423.7c0,2,1.7,3.7,3.7,3.7c2,0,3.7-1.7,3.7-3.7s-1.7-3.7-3.7-3.7
			C284.1,420,282.5,421.7,282.5,423.7z M323.1,429.9c3.4,0,6.2-2.8,6.2-6.2c0-3.4-2.8-6.2-6.2-6.2s-6.2,2.8-6.2,6.2
			C316.9,427.1,319.7,429.9,323.1,429.9z M286.2,466.9c3.4,0,6.2-2.8,6.2-6.2c0-3.4-2.8-6.2-6.2-6.2s-6.2,2.8-6.2,6.2
			C280,464.1,282.7,466.9,286.2,466.9z M323.1,466.9c3.4,0,6.2-2.8,6.2-6.2c0-3.4-2.8-6.2-6.2-6.2s-6.2,2.8-6.2,6.2
			C316.9,464.1,319.7,466.9,323.1,466.9z M360.1,457c-2,0-3.7,1.7-3.7,3.7c0,2,1.7,3.7,3.7,3.7c2,0,3.7-1.7,3.7-3.7
			C363.8,458.7,362.1,457,360.1,457z M397,466.9c3.4,0,6.2-2.8,6.2-6.2c0-3.4-2.8-6.2-6.2-6.2c-3.4,0-6.2,2.8-6.2,6.2
			C390.9,464.1,393.6,466.9,397,466.9z M434,466.9c3.4,0,6.2-2.8,6.2-6.2c0-3.4-2.8-6.2-6.2-6.2c-3.4,0-6.2,2.8-6.2,6.2
			C427.8,464.1,430.6,466.9,434,466.9z M470.9,466.9c3.4,0,6.2-2.8,6.2-6.2c0-3.4-2.8-6.2-6.2-6.2s-6.2,2.8-6.2,6.2
			C464.8,464.1,467.5,466.9,470.9,466.9z M507.9,466.9c3.4,0,6.2-2.8,6.2-6.2c0-3.4-2.8-6.2-6.2-6.2s-6.2,2.8-6.2,6.2
			C501.7,464.1,504.5,466.9,507.9,466.9z M249.2,501.4c2,0,3.7-1.7,3.7-3.7s-1.7-3.7-3.7-3.7c-2,0-3.7,1.7-3.7,3.7
			S247.1,501.4,249.2,501.4z M286.2,503.9c3.4,0,6.2-2.8,6.2-6.2c0-3.4-2.8-6.2-6.2-6.2s-6.2,2.8-6.2,6.2
			C280,501.1,282.7,503.9,286.2,503.9z M323.1,503.9c3.4,0,6.2-2.8,6.2-6.2c0-3.4-2.8-6.2-6.2-6.2s-6.2,2.8-6.2,6.2
			C316.9,501.1,319.7,503.9,323.1,503.9z M360.1,494c-2,0-3.7,1.7-3.7,3.7s1.7,3.7,3.7,3.7c2,0,3.7-1.7,3.7-3.7S362.1,494,360.1,494
			z M397,503.9c3.4,0,6.2-2.8,6.2-6.2c0-3.4-2.8-6.2-6.2-6.2c-3.4,0-6.2,2.8-6.2,6.2C390.9,501.1,393.6,503.9,397,503.9z M434,503.9
			c3.4,0,6.2-2.8,6.2-6.2c0-3.4-2.8-6.2-6.2-6.2c-3.4,0-6.2,2.8-6.2,6.2C427.8,501.1,430.6,503.9,434,503.9z M470.9,503.9
			c3.4,0,6.2-2.8,6.2-6.2c0-3.4-2.8-6.2-6.2-6.2s-6.2,2.8-6.2,6.2C464.8,501.1,467.5,503.9,470.9,503.9z M507.9,503.9
			c3.4,0,6.2-2.8,6.2-6.2c0-3.4-2.8-6.2-6.2-6.2s-6.2,2.8-6.2,6.2C501.7,501.1,504.5,503.9,507.9,503.9z M249.2,540.8
			c3.4,0,6.2-2.8,6.2-6.2c0-3.4-2.8-6.2-6.2-6.2s-6.2,2.8-6.2,6.2C243,538.1,245.8,540.8,249.2,540.8z M286.2,540.8
			c3.4,0,6.2-2.8,6.2-6.2c0-3.4-2.8-6.2-6.2-6.2s-6.2,2.8-6.2,6.2C280,538.1,282.7,540.8,286.2,540.8z M323.1,538.4
			c2,0,3.7-1.7,3.7-3.7c0-2-1.7-3.7-3.7-3.7c-2,0-3.7,1.7-3.7,3.7C319.4,536.7,321.1,538.4,323.1,538.4z M360.1,540.8
			c3.4,0,6.2-2.8,6.2-6.2c0-3.4-2.8-6.2-6.2-6.2c-3.4,0-6.2,2.8-6.2,6.2C353.9,538.1,356.7,540.8,360.1,540.8z M397,540.8
			c3.4,0,6.2-2.8,6.2-6.2c0-3.4-2.8-6.2-6.2-6.2c-3.4,0-6.2,2.8-6.2,6.2C390.9,538.1,393.6,540.8,397,540.8z M434,540.8
			c3.4,0,6.2-2.8,6.2-6.2c0-3.4-2.8-6.2-6.2-6.2c-3.4,0-6.2,2.8-6.2,6.2C427.8,538.1,430.6,540.8,434,540.8z M470.9,540.8
			c3.4,0,6.2-2.8,6.2-6.2c0-3.4-2.8-6.2-6.2-6.2s-6.2,2.8-6.2,6.2C464.8,538.1,467.5,540.8,470.9,540.8z M507.9,540.8
			c3.4,0,6.2-2.8,6.2-6.2c0-3.4-2.8-6.2-6.2-6.2s-6.2,2.8-6.2,6.2C501.7,538.1,504.5,540.8,507.9,540.8z M245.5,571.7
			c0,2,1.7,3.7,3.7,3.7c2,0,3.7-1.7,3.7-3.7c0-2-1.7-3.7-3.7-3.7C247.1,568,245.5,569.6,245.5,571.7z M286.2,577.8
			c3.4,0,6.2-2.8,6.2-6.2c0-3.4-2.8-6.2-6.2-6.2s-6.2,2.8-6.2,6.2C280,575.1,282.7,577.8,286.2,577.8z M323.1,575.4
			c2,0,3.7-1.7,3.7-3.7c0-2-1.7-3.7-3.7-3.7c-2,0-3.7,1.7-3.7,3.7C319.4,573.7,321.1,575.4,323.1,575.4z M360.1,577.8
			c3.4,0,6.2-2.8,6.2-6.2c0-3.4-2.8-6.2-6.2-6.2c-3.4,0-6.2,2.8-6.2,6.2C353.9,575.1,356.7,577.8,360.1,577.8z M397,577.8
			c3.4,0,6.2-2.8,6.2-6.2c0-3.4-2.8-6.2-6.2-6.2c-3.4,0-6.2,2.8-6.2,6.2C390.9,575.1,393.6,577.8,397,577.8z M434,577.8
			c3.4,0,6.2-2.8,6.2-6.2c0-3.4-2.8-6.2-6.2-6.2c-3.4,0-6.2,2.8-6.2,6.2C427.8,575.1,430.6,577.8,434,577.8z M470.9,577.8
			c3.4,0,6.2-2.8,6.2-6.2c0-3.4-2.8-6.2-6.2-6.2s-6.2,2.8-6.2,6.2C464.8,575.1,467.5,577.8,470.9,577.8z M507.9,568
			c-2,0-3.7,1.7-3.7,3.7c0,2,1.7,3.7,3.7,3.7c2,0,3.7-1.7,3.7-3.7C511.6,569.6,509.9,568,507.9,568z M286.8,604.9
			c-2.4,0-4.3,1.9-4.3,4.3c0,2.4,1.9,4.3,4.3,4.3c2.4,0,4.3-1.9,4.3-4.3C291.1,606.9,289.1,604.9,286.8,604.9z M323.1,612.3
			c2,0,3.7-1.7,3.7-3.7c0-2-1.7-3.7-3.7-3.7c-2,0-3.7,1.7-3.7,3.7C319.4,610.7,321.1,612.3,323.1,612.3z M360.1,614.8
			c3.4,0,6.2-2.8,6.2-6.2c0-3.4-2.8-6.2-6.2-6.2c-3.4,0-6.2,2.8-6.2,6.2C353.9,612,356.7,614.8,360.1,614.8z M397,614.8
			c3.4,0,6.2-2.8,6.2-6.2c0-3.4-2.8-6.2-6.2-6.2c-3.4,0-6.2,2.8-6.2,6.2C390.9,612,393.6,614.8,397,614.8z M434,614.8
			c3.4,0,6.2-2.8,6.2-6.2c0-3.4-2.8-6.2-6.2-6.2c-3.4,0-6.2,2.8-6.2,6.2C427.8,612,430.6,614.8,434,614.8z M468.5,608.6
			c0,1.4,1.1,2.5,2.5,2.5c1.4,0,2.5-1.1,2.5-2.5c0-1.4-1.1-2.5-2.5-2.5C469.6,606.2,468.5,607.3,468.5,608.6z M394.6,645.6
			c0,1.4,1.1,2.5,2.5,2.5c1.4,0,2.5-1.1,2.5-2.5c0-1.4-1.1-2.5-2.5-2.5C395.7,643.1,394.6,644.2,394.6,645.6z M434,651.8
			c3.4,0,6.2-2.8,6.2-6.2c0-3.4-2.8-6.2-6.2-6.2c-3.4,0-6.2,2.8-6.2,6.2C427.8,649,430.6,651.8,434,651.8z M507.9,641.9
			c-2,0-3.7,1.7-3.7,3.7c0,2,1.7,3.7,3.7,3.7c2,0,3.7-1.7,3.7-3.7C511.6,643.6,509.9,641.9,507.9,641.9z M544.9,392.9
			c3.4,0,6.2-2.8,6.2-6.2c0-3.4-2.8-6.2-6.2-6.2s-6.2,2.8-6.2,6.2C538.7,390.2,541.4,392.9,544.9,392.9z M581.8,392.9
			c3.4,0,6.2-2.8,6.2-6.2c0-3.4-2.8-6.2-6.2-6.2s-6.2,2.8-6.2,6.2C575.7,390.2,578.4,392.9,581.8,392.9z M618.8,380.6
			c-3.4,0-6.2,2.8-6.2,6.2c0,3.4,2.8,6.2,6.2,6.2s6.2-2.8,6.2-6.2C624.9,383.4,622.2,380.6,618.8,380.6z M655.7,380.6
			c-3.4,0-6.2,2.8-6.2,6.2c0,3.4,2.8,6.2,6.2,6.2s6.2-2.8,6.2-6.2C661.9,383.4,659.1,380.6,655.7,380.6z M692.7,380.6
			c-3.4,0-6.2,2.8-6.2,6.2c0,3.4,2.8,6.2,6.2,6.2s6.2-2.8,6.2-6.2C698.8,383.4,696.1,380.6,692.7,380.6z M729.6,380.6
			c-3.4,0-6.2,2.8-6.2,6.2c0,3.4,2.8,6.2,6.2,6.2s6.2-2.8,6.2-6.2C735.8,383.4,733,380.6,729.6,380.6z M541.2,423.7
			c0,2,1.7,3.7,3.7,3.7c2,0,3.7-1.7,3.7-3.7s-1.7-3.7-3.7-3.7C542.8,420,541.2,421.7,541.2,423.7z M581.8,429.9
			c3.4,0,6.2-2.8,6.2-6.2c0-3.4-2.8-6.2-6.2-6.2s-6.2,2.8-6.2,6.2C575.7,427.1,578.4,429.9,581.8,429.9z M618.8,417.6
			c-3.4,0-6.2,2.8-6.2,6.2c0,3.4,2.8,6.2,6.2,6.2s6.2-2.8,6.2-6.2C624.9,420.3,622.2,417.6,618.8,417.6z M655.7,417.6
			c-3.4,0-6.2,2.8-6.2,6.2c0,3.4,2.8,6.2,6.2,6.2s6.2-2.8,6.2-6.2C661.9,420.3,659.1,417.6,655.7,417.6z M692.7,417.6
			c-3.4,0-6.2,2.8-6.2,6.2c0,3.4,2.8,6.2,6.2,6.2s6.2-2.8,6.2-6.2C698.8,420.3,696.1,417.6,692.7,417.6z M729.6,417.6
			c-3.4,0-6.2,2.8-6.2,6.2c0,3.4,2.8,6.2,6.2,6.2s6.2-2.8,6.2-6.2C735.8,420.3,733,417.6,729.6,417.6z M544.9,466.9
			c3.4,0,6.2-2.8,6.2-6.2c0-3.4-2.8-6.2-6.2-6.2s-6.2,2.8-6.2,6.2C538.7,464.1,541.4,466.9,544.9,466.9z M581.8,466.9
			c3.4,0,6.2-2.8,6.2-6.2c0-3.4-2.8-6.2-6.2-6.2s-6.2,2.8-6.2,6.2C575.7,464.1,578.4,466.9,581.8,466.9z M618.8,454.6
			c-3.4,0-6.2,2.8-6.2,6.2c0,3.4,2.8,6.2,6.2,6.2s6.2-2.8,6.2-6.2C624.9,457.3,622.2,454.6,618.8,454.6z M655.7,454.6
			c-3.4,0-6.2,2.8-6.2,6.2c0,3.4,2.8,6.2,6.2,6.2s6.2-2.8,6.2-6.2C661.9,457.3,659.1,454.6,655.7,454.6z M692.7,454.6
			c-3.4,0-6.2,2.8-6.2,6.2c0,3.4,2.8,6.2,6.2,6.2s6.2-2.8,6.2-6.2C698.8,457.3,696.1,454.6,692.7,454.6z M729.6,454.6
			c-3.4,0-6.2,2.8-6.2,6.2c0,3.4,2.8,6.2,6.2,6.2s6.2-2.8,6.2-6.2C735.8,457.3,733,454.6,729.6,454.6z M544.9,503.9
			c3.4,0,6.2-2.8,6.2-6.2c0-3.4-2.8-6.2-6.2-6.2s-6.2,2.8-6.2,6.2C538.7,501.1,541.4,503.9,544.9,503.9z M581.8,503.9
			c3.4,0,6.2-2.8,6.2-6.2c0-3.4-2.8-6.2-6.2-6.2s-6.2,2.8-6.2,6.2C575.7,501.1,578.4,503.9,581.8,503.9z M618.8,491.5
			c-3.4,0-6.2,2.8-6.2,6.2c0,3.4,2.8,6.2,6.2,6.2s6.2-2.8,6.2-6.2C624.9,494.3,622.2,491.5,618.8,491.5z M655.7,491.5
			c-3.4,0-6.2,2.8-6.2,6.2c0,3.4,2.8,6.2,6.2,6.2s6.2-2.8,6.2-6.2C661.9,494.3,659.1,491.5,655.7,491.5z M692.7,491.5
			c-3.4,0-6.2,2.8-6.2,6.2c0,3.4,2.8,6.2,6.2,6.2s6.2-2.8,6.2-6.2C698.8,494.3,696.1,491.5,692.7,491.5z M729.6,491.5
			c-3.4,0-6.2,2.8-6.2,6.2c0,3.4,2.8,6.2,6.2,6.2s6.2-2.8,6.2-6.2C735.8,494.3,733,491.5,729.6,491.5z M541.2,534.7
			c0,2,1.7,3.7,3.7,3.7c2,0,3.7-1.7,3.7-3.7c0-2-1.7-3.7-3.7-3.7C542.8,531,541.2,532.6,541.2,534.7z M581.8,540.8
			c3.4,0,6.2-2.8,6.2-6.2c0-3.4-2.8-6.2-6.2-6.2s-6.2,2.8-6.2,6.2C575.7,538.1,578.4,540.8,581.8,540.8z M618.8,528.5
			c-3.4,0-6.2,2.8-6.2,6.2c0,3.4,2.8,6.2,6.2,6.2s6.2-2.8,6.2-6.2C624.9,531.3,622.2,528.5,618.8,528.5z M655.7,528.5
			c-3.4,0-6.2,2.8-6.2,6.2c0,3.4,2.8,6.2,6.2,6.2s6.2-2.8,6.2-6.2C661.9,531.3,659.1,528.5,655.7,528.5z M692.7,528.5
			c-3.4,0-6.2,2.8-6.2,6.2c0,3.4,2.8,6.2,6.2,6.2s6.2-2.8,6.2-6.2C698.8,531.3,696.1,528.5,692.7,528.5z M544.9,577.8
			c3.4,0,6.2-2.8,6.2-6.2c0-3.4-2.8-6.2-6.2-6.2s-6.2,2.8-6.2,6.2C538.7,575.1,541.4,577.8,544.9,577.8z M588,571.7
			c0-3.4-2.8-6.2-6.2-6.2s-6.2,2.8-6.2,6.2c0,3.4,2.8,6.2,6.2,6.2S588,575.1,588,571.7z M618.8,565.5c-3.4,0-6.2,2.8-6.2,6.2
			c0,3.4,2.8,6.2,6.2,6.2s6.2-2.8,6.2-6.2C624.9,568.3,622.2,565.5,618.8,565.5z M551,608.6c0-3.4-2.8-6.2-6.2-6.2s-6.2,2.8-6.2,6.2
			c0,3.4,2.8,6.2,6.2,6.2S551,612,551,608.6z M618.8,639.4c-3.4,0-6.2,2.8-6.2,6.2c0,3.4,2.8,6.2,6.2,6.2s6.2-2.8,6.2-6.2
			C624.9,642.2,622.2,639.4,618.8,639.4z"/>
	</g>
</g>
</svg>
