<?xml version="1.0" encoding="utf-8"?>
<!-- Generator: Adobe Illustrator 22.0.0, SVG Export Plug-In . SVG Version: 6.00 Build 0)  -->
<svg version="1.1" id="Layer_1" xmlns="http://www.w3.org/2000/svg" xmlns:xlink="http://www.w3.org/1999/xlink" x="0px" y="0px"
	 viewBox="0 0 908.6 110.2" style="enable-background:new 0 0 908.6 110.2;" xml:space="preserve">
<style type="text/css">
	.st0{fill:#FCF8EF;}
</style>
<g>
	<path class="st0" d="M772.9,99.1c-23.4,0.4,29.9,0.5,25.6-0.1C796.8,98.7,773.7,99.1,772.9,99.1z"/>
	<path class="st0" d="M527.8,10c1.1,0.2,7.4-0.2,6.4-0.5C533,9.3,526.7,9.8,527.8,10z"/>
	<path class="st0" d="M536.3,10c0.6,0.1,5.3-0.3,4.3-0.5C539.9,9.4,535.2,9.8,536.3,10z"/>
	<path class="st0" d="M595.7,10C592.2,8.3,589.1,11.6,595.7,10L595.7,10z"/>
	<path class="st0" d="M578.7,9.5c0.6,0.1,5.3-0.3,4.2-0.5C582.4,8.9,577.7,9.3,578.7,9.5z"/>
	<path class="st0" d="M583,10.5c1.1,0.2,7.4-0.2,6.4-0.5C588.3,9.8,581.9,10.3,583,10.5z"/>
	<path class="st0" d="M564.6,9.7c2.1-0.1,4-0.3,5.4-0.4c1.4-0.1,2.3-0.2,2.3-0.2c-2.9-0.6-17,1-19.1,0.5
		C555.7,10.1,560.4,10,564.6,9.7z"/>
	<path class="st0" d="M468.1,8.7c2.4,0,5.6,0,8.7,0c6.1-0.1,11.4-0.2,8.5-0.5C481.4,7.7,465,7.8,464,8.6c0,0,0.4,0,1.1,0.1
		C465.8,8.6,466.8,8.7,468.1,8.7z"/>
	<path class="st0" d="M455.5,8.6C467.8,7.9,444.3,9.3,455.5,8.6L455.5,8.6z"/>
	<path class="st0" d="M523.5,9.1c0.6,0.1,5.3-0.3,4.2-0.5C527.2,8.5,522.5,8.8,523.5,9.1z"/>
	<path class="st0" d="M515,9.1c0.6,0.1,5.3-0.3,4.2-0.5C518.7,8.5,514,8.8,515,9.1z"/>
	<path class="st0" d="M685,11.5c1.7-0.1,2.1-0.5,4.2-0.5c-2.9-0.9-54.1-0.4-17,0C676.4,11,681.9,10.5,685,11.5z"/>
	<path class="st0" d="M702,11c-5.1,0-7.9,0-12.7,0C701.5,12.1,728.7,11.1,702,11z"/>
	<path class="st0" d="M685,11.5C671.4,10.9,680.3,12.9,685,11.5L685,11.5z"/>
	<path class="st0" d="M426.5,8.3c2.1-0.1,4-0.3,5.4-0.4c1.4-0.1,2.3-0.2,2.3-0.2c-2.9-0.6-17,1-19.1,0.5
		C417.6,8.6,422.3,8.5,426.5,8.3z"/>
	<path class="st0" d="M710.5,12.4c1.1,0.2,7.4-0.2,6.4-0.5C715.8,11.7,709.4,12.2,710.5,12.4z"/>
	<path class="st0" d="M595.7,10C598.3,11.5,607,9.5,595.7,10L595.7,10z"/>
	<path class="st0" d="M623.4,10.5c-1.1-0.2-7.4,0.2-6.4,0.5C618.1,11.2,624.4,10.7,623.4,10.5z"/>
	<path class="st0" d="M631.9,10.5c0.6,0.1,5.3-0.3,4.2-0.5C635.5,9.9,630.9,10.3,631.9,10.5z"/>
	<path class="st0" d="M702,12.4c1.1,0.2,7.4-0.2,6.4-0.5C707.3,11.7,700.9,12.2,702,12.4z"/>
	<path class="st0" d="M651,10c-1.4-0.3-9.6,0.2-8.5,0.5C643.9,10.8,652.1,10.3,651,10z"/>
	<path class="st0" d="M389.6,7.6c0,0-0.2,0-0.6-0.1c-0.4,0-0.9-0.1-1.6-0.1c-1.3-0.1-3.1-0.2-4.8-0.3c-3.4-0.1-6.6-0.1-5.8,0.5
		C378.4,8.7,389.8,8.2,389.6,7.6z"/>
	<path class="st0" d="M837.2,99.2c-0.9-0.1-7.4,0-8.5,0C808.9,99.6,840,99.6,837.2,99.2z"/>
	<path class="st0" d="M807.7,99.7c1.3,0.2,7.3-0.2,6.1-0.4C812.5,99.1,806.4,99.5,807.7,99.7z"/>
	<path class="st0" d="M168.7,6.2c-1.6-0.4-6.2,0.3-6.4,0.5C161.9,7.1,172.1,6.9,168.7,6.2z"/>
	<path class="st0" d="M177.2,6.2c-1.1-0.2-7.5,0.2-6.4,0.5C171.9,6.9,178.2,6.4,177.2,6.2z"/>
	<path class="st0" d="M202.7,7.1C204.1,7.5,201.8,6.9,202.7,7.1L202.7,7.1z"/>
	<path class="st0" d="M183.5,7.1c13.3,0.3,22.2-0.4,12.7-0.5C189.1,6.6,172.7,6.9,183.5,7.1z"/>
	<path class="st0" d="M149.3,97.2c-1.6,0-2.8,0.1-3.3,0.2C146.3,97.3,147.4,97.2,149.3,97.2z"/>
	<path class="st0" d="M28.7,98.4c0.2,0,0,0.2-0.4,0.3C30,98.7,30.6,98.6,28.7,98.4z"/>
	<path class="st0" d="M404.4,12.2c1.3,0,2.1-0.1,2.2-0.3C406.6,12,405.8,12.1,404.4,12.2z"/>
	<path class="st0" d="M327.2,96.8c0.2,0,0.5,0,0.7,0.1C328,96.8,327.8,96.8,327.2,96.8z"/>
	<path class="st0" d="M559.6,14.3c9.7,1.8,50.8-0.9,65.9,0.5C617.5,12.7,564.7,15.3,559.6,14.3z"/>
	<path class="st0" d="M321.9,7.6c0.4,0,1.1-0.1,2.1-0.1C323.1,7.4,322.3,7.5,321.9,7.6z"/>
	<path class="st0" d="M357.8,7.1c-7.9-0.6-27-0.1-33.7,0.3c4.5,0.1,13.7,1.2,16.7,1.2C345.7,8.6,358.4,7.2,357.8,7.1z"/>
	<path class="st0" d="M206.9,7.6C206,7.4,208.3,7.9,206.9,7.6L206.9,7.6z"/>
	<path class="st0" d="M368.4,7.6c0.6,0.1,5.3-0.3,4.2-0.5C372.1,7,367.4,7.4,368.4,7.6z"/>
	<path class="st0" d="M313.2,7.6C312.3,7.4,314.5,7.9,313.2,7.6L313.2,7.6z"/>
	<path class="st0" d="M283.4,7.6c0.6,0.1,5.3-0.3,4.2-0.5C287.1,7,282.4,7.4,283.4,7.6z"/>
	<path class="st0" d="M255.8,6.7c-1.1-0.2-7.4,0.2-6.4,0.5C250.5,7.4,256.9,6.9,255.8,6.7z"/>
	<path class="st0" d="M238.8,7.6c16.2-0.3-6.6-1-6.4-1C208,6.5,232,7.8,238.8,7.6z"/>
	<path class="st0" d="M271.2,7.3c1.1-0.1,2-0.3,2.7-0.4c0.7-0.1,1-0.2,1-0.2c-1.2-0.3-10.6,0.5-10.6,0.5
		C266.4,7.6,269.1,7.5,271.2,7.3z"/>
	<path class="st0" d="M351.4,11.9c23.4-0.4-25.7-0.5-23.4,0C329.8,12.3,350.7,12,351.4,11.9z"/>
	<path class="st0" d="M449.1,12.4c-1.1-0.2-7.4,0.2-6.4,0.5C443.8,13.1,450.2,12.7,449.1,12.4z"/>
	<path class="st0" d="M430,11.9c-1.1-0.2-7.4,0.2-6.4,0.5C424.7,12.7,431.1,12.2,430,11.9z"/>
	<path class="st0" d="M421.5,12.4c-0.6-0.1-5.3,0.3-4.2,0.5C417.9,13,422.5,12.7,421.5,12.4z"/>
	<path class="st0" d="M177.2,11c23.5-0.4-29.2-0.8-25.5,0C153.2,11.3,176.3,11,177.2,11z"/>
	<path class="st0" d="M374.8,11.9c-1.1-0.2-7.4,0.2-6.4,0.5C369.5,12.7,375.8,12.2,374.8,11.9z"/>
	<path class="st0" d="M483.1,12.4c-2.7,0-6.4,0.1-9.4,0.2c-3,0.1-5.4,0.2-5.4,0.2C476.3,14.6,503.2,12.6,483.1,12.4z"/>
	<path class="st0" d="M457.6,12.4c-0.6-0.1-5.3,0.3-4.2,0.5C454,13,458.6,12.7,457.6,12.4z"/>
	<path class="st0" d="M230.3,11c-1.1-0.2-7.5,0.2-6.4,0.5C225,11.7,231.4,11.2,230.3,11z"/>
	<path class="st0" d="M215.4,11c23.4-0.4-25.7-0.5-23.4,0C193.8,11.4,214.7,11,215.4,11z"/>
	<path class="st0" d="M281.3,11c-5-1.1-45.2,0.8-46.7,0.5C241,12.9,279,10.5,281.3,11z"/>
	<path class="st0" d="M296.2,11.5c19.9-0.3-10.9-0.5-8.5,0C288.4,11.6,295,11.5,296.2,11.5z"/>
	<path class="st0" d="M283.4,11.5C282.5,11.3,284.8,11.8,283.4,11.5L283.4,11.5z"/>
	<path class="st0" d="M466.1,12.4c-0.6-0.1-5.3,0.3-4.2,0.5C462.5,13,467.1,12.7,466.1,12.4z"/>
	<path class="st0" d="M506.5,13.4c25.8-0.2-11.3-0.6-8.5,0C498.8,13.6,505.3,13.4,506.5,13.4z"/>
	<path class="st0" d="M866.2,98c1.6,0.2,9.5-0.2,8.2-0.4C872.7,97.4,864.9,97.8,866.2,98z"/>
	<path class="st0" d="M875.5,96.6c0.7,0.1,5.1-0.2,3.9-0.4C878.7,96.1,874.3,96.4,875.5,96.6z"/>
	<path class="st0" d="M855,95.8c-1,0.1-1.8,0.2-2.4,0.3c-0.6,0.1-0.9,0.2-0.9,0.2c1.4,0.2,10.3-0.4,10.3-0.4
		C859.6,95.6,857,95.7,855,95.8z"/>
	<path class="st0" d="M895.8,95.5c-1.6-0.2-9.5,0.2-8.2,0.4C889.2,96.1,897.1,95.7,895.8,95.5z"/>
	<path class="st0" d="M857.4,95.6c1.6,0.2,9.5-0.2,8.2-0.4C864,95,856.2,95.4,857.4,95.6z"/>
	<path class="st0" d="M12.3,37.3C12.1,38.2,12.7,35.9,12.3,37.3L12.3,37.3z"/>
	<path class="st0" d="M851.6,99c-1,0.1-1.8,0.2-2.4,0.3c-0.6,0.1-0.9,0.2-0.9,0.2c1.4,0.2,10.4-0.4,10.4-0.4
		C856.2,98.8,853.5,98.8,851.6,99z"/>
	<path class="st0" d="M553.2,13.9c-3.5-1-21.9-0.4-21.2,0C532.9,14.4,554,14.1,553.2,13.9z"/>
	<path class="st0" d="M12.3,69.2c0.1-0.5,0-5.5,0-6.4C12.2,43.7,11.7,72,12.3,69.2z"/>
	<path class="st0" d="M11.9,45.8C11.7,46.7,12.2,44.4,11.9,45.8L11.9,45.8z"/>
	<path class="st0" d="M276,96.9c0.6,0.1,5.2-0.3,4.2-0.5C279.5,96.3,274.9,96.6,276,96.9z"/>
	<path class="st0" d="M814,97.1c-0.5-0.2-26,0-23.5,0.1C750.3,96.8,817.2,98.1,814,97.1z"/>
	<path class="st0" d="M756.1,96.9C757.2,97.1,754.5,96.7,756.1,96.9L756.1,96.9z"/>
	<path class="st0" d="M833.8,97.8c0.7,0.1,5.1-0.2,3.9-0.4C837.1,97.3,832.7,97.6,833.8,97.8z"/>
	<path class="st0" d="M374.1,96.8C357.9,96.2,367.6,98.2,374.1,96.8L374.1,96.8z"/>
	<path class="st0" d="M621.6,96.8c-19.1,0.2,9.5,0.5,6.4,0C627.4,96.7,622.4,96.8,621.6,96.8z"/>
	<path class="st0" d="M844.7,95.6c-1.7-1.8-6.2,1.6,0.3,0.4C845.2,95.9,844.7,95.7,844.7,95.6z"/>
	<path class="st0" d="M853.3,98.1C856.2,97.8,852.7,97.6,853.3,98.1L853.3,98.1z"/>
	<path class="st0" d="M853.3,98.1c-6.9-0.1-6.9,0.7-14.6,0.4C841.7,99.2,866.8,98.9,853.3,98.1z"/>
	<path class="st0" d="M763.6,12.9c-0.6-0.1-5.3,0.3-4.2,0.5C759.9,13.5,764.6,13.1,763.6,12.9z"/>
	<path class="st0" d="M850.6,97.4c-1.3-0.2-7.3,0.2-6.1,0.4C845.7,97.9,851.8,97.5,850.6,97.4z"/>
	<path class="st0" d="M374.1,96.8C392.5,97.3,382.7,95.4,374.1,96.8L374.1,96.8z"/>
	<path class="st0" d="M129,97.9c2,0.4,4.6,0.3,6.8,0.1c2.2-0.2,3.8-0.5,3.9-0.6C139.9,96.9,123.6,96.7,129,97.9z"/>
	<path class="st0" d="M350.6,96.8c-19.9,0.3,11,0.5,8.5,0C358.3,96.6,351.8,96.8,350.6,96.8z"/>
	<path class="st0" d="M61.4,10.2c0.7-0.1,1-0.2,1-0.2c-1.2-0.3-10.6,0.5-10.6,0.5c2.1,0.5,4.8,0.4,6.9,0.1
		C59.8,10.5,60.7,10.4,61.4,10.2z"/>
	<path class="st0" d="M37.9,10.5c2.7-0.1,5.2-0.2,6.9-0.3c1.8-0.1,2.8-0.1,2.7-0.2c-3.6-0.8-18.3,0.8-25,0.7
		C26.2,10.8,32.5,10.7,37.9,10.5z"/>
	<path class="st0" d="M70.9,10c-1.1-0.2-7.4,0.2-6.4,0.5C65.6,10.7,72,10.3,70.9,10z"/>
	<path class="st0" d="M109.2,10.5c-1.1-0.2-7.4,0.2-6.4,0.5C103.9,11.2,110.2,10.7,109.2,10.5z"/>
	<path class="st0" d="M22.6,10.7c-1.2,0-2.2-0.1-2.6-0.2C20.5,10.6,21.4,10.7,22.6,10.7z"/>
	<path class="st0" d="M129.8,11.1c4.6,0,9.1-0.1,9.2-0.1c17.5-0.5-21.6-0.6-19.1,0C120.4,11.1,125.1,11.1,129.8,11.1z"/>
	<path class="st0" d="M780.5,98c-4.6-0.1-9.1-0.7-11.3-0.7c0.5,0-2,0.8-5.8,0.8c-3.1,0-0.4-0.8-0.6-0.8c-14.2,0.1-14,0.6-29.6,0.5
		c-1.3,0-33-0.1-32.3-0.3c2-0.4,88.8-0.5,27.4-0.5c-23.4,0-42.8-0.7-72.6,0.1c14.2-0.4-5,1.1-13.3,0.3c-0.5,0-1-0.1-1.5-0.2
		c0.4,0.1,1,0.1,1.5,0.2c3.1,0.3,4.1-0.7,8.9-0.6c-6.7-0.2-12,0-21.1,0.5c10.7-0.6,0.5,0.5-6.1,0.4c-11.2,0-13.3-0.2-21.8-0.8
		c-5.9-0.4-16.7-0.7-21.6-0.4c-5.7,0.4,0.8,1.3-5.7,1.3c1.6,0-10.1-2.9-8.8-0.4c0.5,0.9-2.5,0.1-8.5,0c10.9,0.2,2.7-0.7-2.6-0.8
		c-4.1-0.1-13.6,0.4-16.8,0.5c11.1-0.1,4,1-4,0.4c-4-0.3-23-1.1-36.7-0.8c-1.5,0-3,0.7-6,0.9c-5.2,0.3-26.6-0.1-8.7-0.4
		c17.8-0.3-8.4-0.8-15.1-0.4c-3.9,0.2-2.5,0.9-8.2,0.9c-3.6,0-0.8-1.2-2.7-1.3c0.8,0.1-34,0.4-31.7,0.9c0.6-0.3,46.9,0.4,17.3,0.5
		c-7.5,0-20.1,0.2-23.6-0.4c-0.1,0,4.6-0.9,3.9-0.9c-15.1-0.6-26.5,0.1-31.8,0.5c1.4-0.1,12.9,0.6,13.1,0.9
		c-0.7-0.5-62,0.8-68.2,0.6c-3.9-0.1-6.6-1-8.2-1.3c-1,0.3-18.7,1.6-17.7,0.4c0.6-0.7,23.4-0.6,12.5-0.9c-8-0.3-19,0.3-19.3,0.1
		c-0.9,0.5,5.4,1.3,4.7,1.3c-6.5,0.4-33.8-0.3-40.7-0.9c3,0.2-6.5-0.3-5.1-0.4c-4.2,0.1-2.1,1-7.5,1.4c-9.6,0.8-30.7-1.7-47.1-0.9
		c-0.8,0,0.8,0.4,2.7,0.7c1.9,0.3,3.9,0.7,3.9,0.7c-0.5,0.2-20.3,0.2-21.3,0c-6.7-1.1,10.5-0.9-2.3-1.4c-13.1-0.5-33.5-0.1-41.4,0.3
		c4.9-0.1,13.3,0.3,15.5,0.6c-5.6-0.7-46.7,2.4-52.9,0.1c-2.3-1.3-9.4,0.1-3,0.1c-8,0.3-20.4,1.5-31.1,0.9
		c-6.9-0.4-5.1-1.5-12.9-1.4c-5.9,0.1,5.3,0.9,0.1,1.4c-6.6,0.7-21-0.8-32-0.5c-1.8,0.1-2,1-6.4,1c-0.1,0,1-0.3,1.7-0.6
		c-3.1,0-9.7-0.3-11.7-0.3l-0.6,0l-3.8,0.5L12,98.3l-0.8,0l0.1-5c0-0.4,0-0.6,0-0.6c0,0.2,0.1,0.4,0.1,0.6l0.6,5.1l3.9,0.1l0.6-0.1
		c5.3-0.6,22.7-0.5,18.6-0.9c-2.2-0.2-10.3-0.3-18.6-0.3l-3.9,0l0-4c0-5.7-0.1-11.4-0.3-15.5c-0.5-12-0.6,7.2-1.4-2.1
		c-0.2-1.7-0.4-48.9,0-55.2c0,0.4,1,3.4,1-2.1c0-2.9-0.7,1.3-1-2.1c0-0.3,0-0.5,0-0.9l-0.3-5.4l6-0.3c13.1-0.7,36.5,0.9,54.4-0.4
		c-0.2-0.6,3.1-0.3,0,0c5.9,0.8,33.9,0.5,10.6,1c-18.2,0.3,7.7,1.4,12.7,1c2.4-0.2-0.4-1.8,4.2-1.9c2.2-0.1,7.1,0.9,10.6,1
		c29.9,0.4,78.7-0.6,104.1-0.5c14.2,0.1,27.6,0.6,42.5,0.5c7.5-0.1,19.3-0.1,29.2,0c4.9,0,9.4,0,12.6,0c3.1,0,4.9,0,5,0
		c-0.6,0-13-0.5-12.7-0.5c2.4-0.1,11.7-0.2,17,0c4.1,0.2,7.9,1,10.6,1c3.2,0-1.7-1.1,2.1-1c3.9,0.1,8.8,1.3,12.7,1.4
		c15.1,0.7,32.4-0.7,48.9,0c-1.9-0.1-1.3,1.3,0,1.4c4,0.4,17.9,0.2,23.3-0.2c-5.5,0.1-19.6-0.9-19.1-0.8c-3.3-0.8,3.1-1,10.4-1.1
		c3.6,0,7.4,0,10.3,0c1.4,0,2.7,0,3.5,0.1c0.8,0,1.3,0,1.3,0c-0.8,0.3-27-0.2-12.7,0.5c8,0.4,22.5-0.6,31.9-0.5
		c-2.6,0-1.3,0.8,2.1,1c19.2,0.6,38.1,0.3,55.2,0.5c14,0.1,31.7-0.6,44.6,0c2.6,0.1,2,0.9,6.4,1c28,0.5,59.5-0.1,89.2,0.5
		c15.4,0.3,29.7,1.4,44.6,1.4c13.2,0.1,26.1,0.2,38.9,0.4h-60.7c-6.1-1.2-10.9,0.1-25-0.4c1.1,0.2,2.3,0.3,3.5,0.4h-86.6
		c-173.9-2.3-354.8-3.9-525.9-3.3l-3.3,0l0,3.3c0,3.9,0,7.7,0,11.5c0.1,21.8,0.1,43.9,0.2,66.5l0,3.1l3.1,0
		c94,0,190.3-0.1,275.1-0.1c-1.4,0.1-2.7,0.3-3.6,0.4c-0.9,0.2-1.5,0.3-1.4,0.3c1.2,0.3,10.5-0.5,10.5-0.5c-0.6-0.1-1.2-0.2-1.8-0.2
		c35.6,0,69.2-0.1,99.6-0.3c47.7-0.2,150.8,0.5,215.4,0.2c47-0.2,143.3,0.4,211.5,0.4c16,0,10.5-0.3,1-0.5
		c-4.7-0.1-10.5-0.3-15.1-0.4c-2.3,0-4.3-0.1-5.7-0.1c-0.7,0-1.3,0-1.7,0c-0.4,0-0.6,0-0.6,0c0.4-0.1,21-0.6,1.5-0.7
		c-8.6-0.1-30.7,0.1-44.4,0.4c-13.7,0.5-39.6,0.6-57.2,0.5c-31.2-0.3,8-0.4,21-0.4c13.7,0,25.5,0,36.2,0
		c-103.8-1-217.1-1.6-328.4-1.8h465.2V82.6c0.7-20.5,1.3-43.4,1.5-67.4l0-1.5l-1.5,0c-29.5-0.3-60.6-0.4-91.7-0.8
		c-31.3-0.4-51.7-1.8-74.4-1.4c-4.2,0.1-5-0.3-6.4,0.5c0.1,0,5.6,0,11.2,0c5.5,0,10.9,0.1,10.1,0.5c0.6-0.3-11.2,0.4-8.5,0.5
		c23.2,0.5,39.8-0.7,55.2,0c1.5,0.1,0.9,0.9,4.2,1c4.3,0.1,8.5-0.7,12.8-0.5c0.2,0-5,0.8-4.3,1c2.7,0.7,12.7-0.5,14.9-0.5
		c-15.8,0,10.6-1,17,0c1.7,0.3-1.1,0.9,2.1,1c-2,0,3.8-1,6.4-1c2.5,0,4.7,0.2,6.9,0.4c-2.8,0-7.8,0.4-6.9,0.6
		c1.3,0.3,8.4-0.2,8.5-0.4c1.9,0.2,3.9,0.3,6.4,0.4c-0.4,0,17.5-0.4,21.7,0.4h-70.1c-11.8-0.1-21.7-0.3-26-0.4
		c-46.9-1.1-119.4-2.5-153-2.9c-48.7-0.5-90.2-0.9-142.4-1.4C343.8,9,168,7.2,16.6,8.3l-7,0l0.1,6.9c0.1,13.1,0.2,25.2,0.3,37
		c0.1,10.4,0.2,23,0.3,41l0,6.4l6.3,0c40-0.3,97-0.4,138.2-0.2c3.1,0,32,0,27.9,0.9c-1.4,0.3-21.4-0.1-29.9,0
		c-49.8,0.6-94.2,0.9-136.2,1.1l-8.2,0l0-8.2C8.3,67,8.2,41.4,8.1,15.2l0-8.4l8.5,0c38.6,0,78.3-0.1,122.4-0.1
		c-0.9,0,19.9-0.2,17-0.5c-11.3-1.2-63.4,0-93.5,0C48.1,6.2,32,6.1,16.6,6.1l-9.1,0l0,9.1c0,16.9,0,33.1,0.1,45.5
		c0.1,11.2,0.2,22.2,0.3,32.5l0.1,8.8l8.7-0.1c50.8-0.3,98.3-0.2,151.3-0.3c15.3,0,28.3-1,44.8-1c44.3-0.1,88.1,0.1,130,0.2
		c41.9,0.1,81.8,0,118.1-0.6c25.4-0.4,94.9-0.1,126.4,0c20.5,0.1,65.7-0.1,35.9-1c-22.2-0.7-6.5-0.8,12.3-0.9c6.8,0,35.2,0,10.9,0.4
		c-25.1,0.4,11.6,1.1,20,1.1c25.2,0,46.7-0.4,64.1-0.3c20.2,0.1,46.3-0.6,14.7-0.4c-8.5,0-29.7,0-48.9-0.1
		c-19.3-0.1-36.6-0.4-37.3-0.8c0,0,0.4,0,1,0c0.6,0,1.5,0,2.6,0c2.2,0,5.1,0.1,8.2,0.1c6.1,0.1,12.5,0.1,14,0.1
		c63.3,0.2,95.2-0.2,154-0.2C821.9,97.6,801.5,98.5,780.5,98z M793.3,95.3c1.3,0.2-6.6,0.6-8.2,0.4
		C783.8,95.5,791.7,95.1,793.3,95.3z M780.5,95.4c0.4,0.1-18.5,0.4-19.2,0C760.4,94.9,777.7,94.6,780.5,95.4z M650.3,15.2h-5.9
		C646.9,15.1,649,15.1,650.3,15.2z M436.4,15.2h-24.8c1.7,0,3.5,0,5.3,0C423.8,15.2,431.1,15.2,436.4,15.2z M306.8,14.3
		c26-0.4,47.6,0,76.5,0.5c10.5,0.2,9.4,0.3,3.7,0.4h-87.4c-3.6-0.1-6.3-0.2-7.6-0.4C289.5,14.5,301.4,14.4,306.8,14.3z M274.9,14.3
		c-4.8-0.1-27.5,0.5-29.7,0C238.8,12.9,310,15.3,274.9,14.3z M217.5,13.4c9-0.3,33.8,0.8,12.8,1c-7.5,0-15.6,0.2-17-0.5
		C212.5,13.5,216.6,13.4,217.5,13.4z M162.3,13.4c12.7,0.2,19.2-0.4,42.5,0c15.6,0.3-2.9,0.4-10.6,0.5c-2.4,0-20.5,0.1-38,0.1
		c-8.8,0-17.4-0.1-23.7-0.1c-6.4-0.1-10.6-0.2-10.4-0.4C122.4,12.4,156.4,13.3,162.3,13.4z M254.3,95c-30.3,0.8-96.4-0.1-119.2,0
		c-29.5,0.2-67.2,0.3-118.5,0.4l-2.2,0l0-2.2c0-19.6-0.1-46.5-0.1-78l0-2.3l2.3,0c6.2,0,15.4,0,24.6,0c28.9,0,66.5-1.2,76.5,0
		c1.7,0.2-7.8,0.3-17.8,0.4c-10,0-20.4,0.1-20.4,0.1c-20-0.1-41.6-0.1-62.9-0.1l-1.9,0l0,1.9c0.1,28.1,0.3,55.7,0.5,78l0,1.4l1.4,0
		c4.2,0,7.2,0,10-0.1c75.6-0.6,145.1,0.2,200,0C237.2,94.5,287.5,94.1,254.3,95z M279.7,94.5c-4.5,0-10,1.1-10.6,0
		c-0.4-0.7,20.9-0.7,23.3-0.5C297.5,94.5,286.1,94.5,279.7,94.5z M311.6,94.5c-1.7,0.4-10.3-0.5-10.8-0.5
		C302.2,94,315.6,93.6,311.6,94.5z M318,94.5c2.5-0.7,17.1-1.1,21.3,0C341.4,95.1,317.2,94.7,318,94.5z M381.8,94.5
		c-8.6,0.5-16.7,0.5-19,0.5c28.2,0.2-16.8,0.5-17.2-0.5c0,0,0.2,0,0.7-0.1c0.5,0,1.1,0,1.9-0.1c1.7,0,4-0.1,6.8-0.2
		c5.5-0.1,12.5-0.3,18.7-0.3C386.2,93.7,395.2,93.7,381.8,94.5z M398.7,94c0,0,0.8,0,2-0.1c1.2,0,3-0.1,4.8-0.1
		c3.7,0,8,0.1,10.3,0.6C419.3,95.3,387.9,94.3,398.7,94z M618.2,94.8c6.3,0,52.3-0.9,57.4-0.1C678.3,95.1,562.3,95,618.2,94.8z
		 M599,94.8c1.2,0.2-4.9,0.6-6.1,0.4C591.7,95,597.8,94.6,599,94.8z M590.5,94.8c1.2,0.2-4.9,0.6-6.1,0.4
		C583.2,95,589.3,94.6,590.5,94.8z M579.9,94.8c1.2,0.2-4.9,0.6-6.2,0.4C572.5,95,578.7,94.6,579.9,94.8z M567.1,94.8
		c-0.8,0.3-12.8,1-18.9,0.4C542,94.7,567.8,94.6,567.1,94.8z M539.2,94.4c-0.1,0-53.8,0.4-59.4,0.5c-6.9,0-56.7,1-61.7,0
		c2,0.4,48.5-0.5,59.4-0.5C480,94.4,534.3,93.5,539.2,94.4z M16.6,93.6l-0.4,0l0-0.4c0-27.5,0-53.4-0.1-78l0-0.4l0.4,0
		c24.3,0,47.3,0,69.2,0.1c32.9,0.1,66.3,0.2,99.9,0.4H16.6v78h239.3C173.8,93.3,91.2,93.5,16.6,93.6z M893.6,15.1L893.6,15.1
		L893.6,15.1c0.3,1.7,0.6,7.1,0.4,8.3c-0.1,0.4-0.3-0.7-0.4-2.3L893.6,15.1l-0.4,0.1C893.3,15.2,893.4,15.2,893.6,15.1z M608.5,12.4
		c1,0.2-3.7,0.6-4.2,0.5C603.2,12.7,607.9,12.3,608.5,12.4z M557.5,11.5c1,0.2-3.7,0.6-4.3,0.5C552.2,11.7,556.9,11.3,557.5,11.5z
		 M515,11c1.1,0.3-7.1,0.8-8.5,0.5C505.4,11.2,513.6,10.7,515,11z M495.9,11.5c-0.8,0-5.8,0.1-6.4,0C486.8,10.8,515,11.3,495.9,11.5
		z M455.5,11c-0.8,0-5.8,0.1-6.4,0C446.4,10.4,474.7,10.8,455.5,11z M376.9,10c1,0.2-3.7,0.6-4.2,0.5C371.6,10.3,376.3,9.9,376.9,10
		z M370.5,10c1.1,0.2-5.3,0.7-6.4,0.5C363.1,10.3,369.4,9.8,370.5,10z M262.2,9.5c-1.2,0-7.7,0.2-8.5,0
		C250.9,8.9,287.9,9.4,262.2,9.5z M245.2,9.1c0,0-0.4,0.1-1,0.2c-0.7,0.1-1.6,0.3-2.7,0.4c-2.1,0.2-4.8,0.4-6.9-0.1
		C234.5,9.5,244,8.8,245.2,9.1z M11.4,82c0.7-0.2,0.5,5.8,0,6.4C10.6,89.2,11.2,82,11.4,82z M178.1,97.9
		C176.6,97.6,179,98.1,178.1,97.9L178.1,97.9z M373,100c-58.3,0.5-110.6-0.5-166.8,0.3c-1.4,0-2.9,0-4.3,0c-35.3-0.6,19.3-1,49-1
		c43.9-0.1,78.8-0.3,123.9-0.2c4.5,0,23.8,0.7,25.8,0.4C398.2,99.8,384.5,99.9,373,100z M419.7,99c4.2,0,11.6-0.3,12.8,0
		C434.9,99.4,387.8,99.3,419.7,99z M447.6,99.3c0,0-0.6,0-1.4,0.1c-0.8,0-1.9,0-2.9,0.1c-2.1,0-4.2,0-4.3-0.1
		C438.8,98.7,451.1,98.5,447.6,99.3z M485.4,99.3c-0.4,0-1.1,0-1.8,0.1c-1.6,0-3.7,0.1-6.2,0.2c-5,0.1-11.4,0.2-16.7,0.2
		c0.6,0-5.5-0.8-6.6-0.4c2-0.8,32.4-0.7,32.1-0.1C486.1,99.3,485.8,99.3,485.4,99.3z M598.4,97.3c1.2,0.2-5,0.6-6.2,0.4
		C591,97.5,597.1,97.1,598.4,97.3z M508.6,97c4.3,0,10.8-0.1,15.1,0.4C526.6,97.8,486,97.2,508.6,97z M584.4,99
		c-6.2,0-12,0-21.4,0.1c-15.2,0.1-32.5,0.8-49.1,0.1c-12.2-0.5-2.5-0.3,6.2-0.4c21.2-0.3,54.4-0.4,79-0.2
		C619.8,98.6,593.8,98.9,584.4,99z M669,97.5c-1.2-0.2,4.9-0.6,6.1-0.4C676.3,97.3,670.2,97.7,669,97.5z M692.5,97.4
		C690.9,97.2,693.5,97.6,692.5,97.4L692.5,97.4z"/>
	<path class="st0" d="M89.8,97.3c-4.1,0.1-7.6,0.1-7.8,0.1c-17.1,0.5,19.8,0.6,17.1,0C98.2,97.2,93.9,97.2,89.8,97.3z"/>
	<path class="st0" d="M124.7,97.4C125.6,97.6,123.3,97.1,124.7,97.4L124.7,97.4z"/>
	<path class="st0" d="M50,97.4c-25.9,0.2,11.4,0.6,8.5,0C57.8,97.2,51.3,97.4,50,97.4z"/>
</g>
</svg>
