<?xml version="1.0" encoding="utf-8"?>
<!-- Generator: Adobe Illustrator 22.0.0, SVG Export Plug-In . SVG Version: 6.00 Build 0)  -->
<svg version="1.1" id="Layer_1" xmlns="http://www.w3.org/2000/svg" xmlns:xlink="http://www.w3.org/1999/xlink" x="0px" y="0px"
	 viewBox="0 0 440 110.2" style="enable-background:new 0 0 440 110.2;" xml:space="preserve">
<style type="text/css">
	.st0{fill:#FCF8EF;}
</style>
<g>
	<path class="st0" d="M325.3,99.1c-23.4,0.4,19.9,0.5,15.6-0.1C339.2,98.7,326.1,99.1,325.3,99.1z"/>
	<path class="st0" d="M210.2,10c1.1,0.2,7.4-0.2,6.4-0.5C215.4,9.3,209.1,9.8,210.2,10z"/>
	<path class="st0" d="M218.7,10c0.6,0.1,5.3-0.3,4.3-0.5C222.3,9.4,217.6,9.8,218.7,10z"/>
	<path class="st0" d="M248.1,10C244.6,8.3,241.5,11.6,248.1,10L248.1,10z"/>
	<path class="st0" d="M241.1,9.5c0.6,0.1,5.3-0.3,4.2-0.5C244.8,8.9,240.1,9.3,241.1,9.5z"/>
	<path class="st0" d="M245.4,10.5c1.1,0.2,7.4-0.2,6.4-0.5C250.7,9.8,244.3,10.3,245.4,10.5z"/>
	<path class="st0" d="M247,9.7c2.1-0.1-16-0.3-14.6-0.4c1.4-0.1,2.3-0.2,2.3-0.2c-2.9-0.6,3,1,0.9,0.5C238.1,10.1,242.8,10,247,9.7z
		"/>
	<path class="st0" d="M180.5,8.7c2.4,0,5.6,0,8.7,0c6.1-0.1,11.4-0.2,8.5-0.5c-3.9-0.5-20.3-0.4-21.3,0.4c0,0,0.4,0,1.1,0.1
		C178.2,8.6,179.2,8.7,180.5,8.7z"/>
	<path class="st0" d="M167.9,8.6C180.2,7.9,156.7,9.3,167.9,8.6L167.9,8.6z"/>
	<path class="st0" d="M215.9,9.1c0.6,0.1-4.7-0.3-5.8-0.5C209.6,8.5,214.9,8.8,215.9,9.1z"/>
	<path class="st0" d="M207.4,9.1c0.6,0.1,5.3-0.3,4.2-0.5C211.1,8.5,206.4,8.8,207.4,9.1z"/>
	<path class="st0" d="M277.4,11.5c1.7-0.1,2.1-0.5,4.2-0.5c-2.9-0.9-54.1-0.4-17,0C268.8,11,274.3,10.5,277.4,11.5z"/>
	<path class="st0" d="M294.4,11c-5.1,0-7.9,0-12.7,0C274.2,10.3,301.1,11,294.4,11z"/>
	<path class="st0" d="M277.4,11.5C263.8,10.9,272.7,12.9,277.4,11.5L277.4,11.5z"/>
	<path class="st0" d="M138.9,8.3c2.1-0.1,4-0.3,5.4-0.4s2.3-0.2,2.3-0.2c-2.9-0.6,3,1,0.9,0.5C150,8.6,134.7,8.5,138.9,8.3z"/>
	<path class="st0" d="M282.9,12.4c1.1,0.2,7.4-0.2,6.4-0.5C288.2,11.7,281.8,12.2,282.9,12.4z"/>
	<path class="st0" d="M248.1,10C246.9,9.3,209.9,11.7,248.1,10L248.1,10z"/>
	<path class="st0" d="M255.8,10.5c-1.1-0.2-7.4,0.2-6.4,0.5C250.5,11.2,256.8,10.7,255.8,10.5z"/>
	<path class="st0" d="M264.3,10.5c0.6,0.1,5.3-0.3,4.2-0.5C267.9,9.9,263.3,10.3,264.3,10.5z"/>
	<path class="st0" d="M294.4,12.4c1.1,0.2-12.6-0.2-13.6-0.5C279.7,11.7,293.3,12.2,294.4,12.4z"/>
	<path class="st0" d="M263.4,10c-1.4-0.3,10.4,0.2,11.5,0.5C276.3,10.8,264.5,10.3,263.4,10z"/>
	<path class="st0" d="M152,7.6c0,0-0.2,0-0.6-0.1c-0.4,0-0.9-0.1-1.6-0.1c-1.3-0.1-3.1-0.2-4.8-0.3c-3.4-0.1,3.4-0.1,4.2,0.5
		C150.8,8.7,152.2,8.2,152,7.6z"/>
	<path class="st0" d="M379.6,99.2c-0.9-0.1-7.4,0-8.5,0C351.3,99.6,382.4,99.6,379.6,99.2z"/>
	<path class="st0" d="M350.1,99.7c1.3,0.2,7.3-0.2,6.1-0.4C354.9,99.1,348.8,99.5,350.1,99.7z"/>
	<path class="st0" d="M101.1,6.2c-1.6-0.4-6.2,0.3-6.4,0.5C94.3,7.1,104.5,6.9,101.1,6.2z"/>
	<path class="st0" d="M109.6,6.2c-1.1-0.2-7.5,0.2-6.4,0.5C104.3,6.9,110.6,6.4,109.6,6.2z"/>
	<path class="st0" d="M85.1,7.1C86.5,7.5,84.2,6.9,85.1,7.1L85.1,7.1z"/>
	<path class="st0" d="M115.9,7.1c13.3,0.3-27.8-0.4-37.3-0.5C71.5,6.6,105.1,6.9,115.9,7.1z"/>
	<path class="st0" d="M111.7,97.2c-1.6,0-2.8,0.1-3.3,0.2C108.7,97.3,109.8,97.2,111.7,97.2z"/>
	<path class="st0" d="M21.1,98.4c0.2,0,0,0.2-0.4,0.3C22.4,98.7,23,98.6,21.1,98.4z"/>
	<path class="st0" d="M166.8,12.2c1.3,0,2.1-0.1,2.2-0.3C169,12,168.2,12.1,166.8,12.2z"/>
	<path class="st0" d="M149.6,96.8c0.2,0,0.5,0,0.7,0.1C150.4,96.8,150.2,96.8,149.6,96.8z"/>
	<path class="st0" d="M242,14.3c9.7,1.8,0.8-0.9,15.9,0.5C249.9,12.7,247.1,15.3,242,14.3z"/>
	<path class="st0" d="M144.3,7.6c0.4,0,1.1-0.1,2.1-0.1C145.5,7.4,144.7,7.5,144.3,7.6z"/>
	<path class="st0" d="M160.2,7.1c-7.9-0.6-7-0.1-13.7,0.3c4.5,0.1-6.3,1.2-3.3,1.2C148.1,8.6,160.8,7.2,160.2,7.1z"/>
	<path class="st0" d="M89.3,7.6C88.4,7.4,90.7,7.9,89.3,7.6L89.3,7.6z"/>
	<path class="st0" d="M170.8,7.6c0.6,0.1-24.7-0.3-25.8-0.5C144.5,7,169.8,7.4,170.8,7.6z"/>
	<path class="st0" d="M145.6,7.6C144.7,7.4,146.9,7.9,145.6,7.6L145.6,7.6z"/>
	<path class="st0" d="M135.8,7.6c0.6,0.1,5.3-0.3,4.2-0.5C139.5,7,134.8,7.4,135.8,7.6z"/>
	<path class="st0" d="M138.2,6.7c-1.1-0.2-7.4,0.2-6.4,0.5C132.9,7.4,139.3,6.9,138.2,6.7z"/>
	<path class="st0" d="M121.2,7.6c16.2-0.3-6.6-1-6.4-1C90.4,6.5,114.4,7.8,121.2,7.6z"/>
	<path class="st0" d="M123.6,7.3c1.1-0.1,2-0.3,2.7-0.4s1-0.2,1-0.2c-1.2-0.3,19.4,0.5,19.4,0.5C148.8,7.6,121.5,7.5,123.6,7.3z"/>
	<path class="st0" d="M153.8,11.9c23.4-0.4-5.7-0.5-3.4,0C152.2,12.3,153.1,12,153.8,11.9z"/>
	<path class="st0" d="M161.5,12.4c-1.1-0.2-7.4,0.2-6.4,0.5C156.2,13.1,162.6,12.7,161.5,12.4z"/>
	<path class="st0" d="M142.4,11.9c-1.1-0.2-7.4,0.2-6.4,0.5C137.1,12.7,143.5,12.2,142.4,11.9z"/>
	<path class="st0" d="M153.9,12.4c-0.6-0.1-5.3,0.3-4.2,0.5C150.3,13,154.9,12.7,153.9,12.4z"/>
	<path class="st0" d="M109.6,11c23.5-0.4-29.2-0.8-25.5,0C85.6,11.3,108.7,11,109.6,11z"/>
	<path class="st0" d="M147.2,11.9c-1.1-0.2,22.6,0.2,23.6,0.5C171.9,12.7,148.2,12.2,147.2,11.9z"/>
	<path class="st0" d="M195.5,12.4c-2.7,0-6.4,0.1-9.4,0.2c-3,0.1-5.4,0.2-5.4,0.2C188.7,14.6,215.6,12.6,195.5,12.4z"/>
	<path class="st0" d="M170,12.4c-0.6-0.1-5.3,0.3-4.2,0.5C166.4,13,171,12.7,170,12.4z"/>
	<path class="st0" d="M112.7,11c-1.1-0.2-7.5,0.2-6.4,0.5C107.4,11.7,113.8,11.2,112.7,11z"/>
	<path class="st0" d="M97.8,11c23.4-0.4,24.3-0.5,26.6,0C126.2,11.4,97.1,11,97.8,11z"/>
	<path class="st0" d="M133.7,11c-5-1.1-15.2,0.8-16.7,0.5C123.4,12.9,131.4,10.5,133.7,11z"/>
	<path class="st0" d="M148.6,11.5c-0.2,0-30.3-4.5-8.5,0C140.8,11.6,147.4,11.5,148.6,11.5z"/>
	<path class="st0" d="M135.8,11.5C134.9,11.3,137.2,11.8,135.8,11.5L135.8,11.5z"/>
	<path class="st0" d="M178.5,12.4c-0.6-0.1-5.3,0.3-4.2,0.5C174.9,13,179.5,12.7,178.5,12.4z"/>
	<path class="st0" d="M198.9,13.4c25.8-0.2,8.7-0.6,11.5,0C211.2,13.6,197.7,13.4,198.9,13.4z"/>
	<path class="st0" d="M408.6,98c1.6,0.2,9.5-0.2,8.2-0.4C415.1,97.4,407.3,97.8,408.6,98z"/>
	<path class="st0" d="M417.9,96.6c0.7,0.1,5.1-0.2,3.9-0.4C421.1,96.1,416.7,96.4,417.9,96.6z"/>
	<path class="st0" d="M397.4,95.8c-1,0.1-1.8,0.2-2.4,0.3c-0.6,0.1-0.9,0.2-0.9,0.2c1.4,0.2,10.3-0.4,10.3-0.4
		C402,95.6,399.4,95.7,397.4,95.8z"/>
	<path class="st0" d="M438.2,95.5c-1.6-0.2-9.5,0.2-8.2,0.4C431.6,96.1,439.5,95.7,438.2,95.5z"/>
	<path class="st0" d="M399.8,95.6c1.6,0.2,9.5-0.2,8.2-0.4C406.4,95,398.6,95.4,399.8,95.6z"/>
	<path class="st0" d="M4.7,37.3C4.5,38.2,5.1,35.9,4.7,37.3L4.7,37.3z"/>
	<path class="st0" d="M394,99c-1,0.1-1.8,0.2-2.4,0.3c-0.6,0.1-0.9,0.2-0.9,0.2c1.4,0.2,10.4-0.4,10.4-0.4
		C398.6,98.8,395.9,98.8,394,99z"/>
	<path class="st0" d="M235.6,13.9c-3.5-1-21.9-0.4-21.2,0C215.3,14.4,236.4,14.1,235.6,13.9z"/>
	<path class="st0" d="M4.7,69.2c0.1-0.5,0-5.5,0-6.4C4.6,43.7,4.1,72,4.7,69.2z"/>
	<path class="st0" d="M4.3,45.8C4.1,46.7,4.6,44.4,4.3,45.8L4.3,45.8z"/>
	<path class="st0" d="M128.4,96.9c0.6,0.1,5.2-0.3,4.2-0.5C131.9,96.3,127.3,96.6,128.4,96.9z"/>
	<path class="st0" d="M356.4,97.1c-0.5-0.2-26,0-23.5,0.1C292.7,96.8,359.6,98.1,356.4,97.1z"/>
	<path class="st0" d="M328.5,96.9C329.6,97.1,326.9,96.7,328.5,96.9L328.5,96.9z"/>
	<path class="st0" d="M376.2,97.8c0.7,0.1,5.1-0.2,3.9-0.4C379.5,97.3,375.1,97.6,376.2,97.8z"/>
	<path class="st0" d="M146.5,96.8C130.3,96.2,140,98.2,146.5,96.8L146.5,96.8z"/>
	<path class="st0" d="M254,96.8c-19.1,0.2,9.5,0.5,6.4,0C259.8,96.7,254.8,96.8,254,96.8z"/>
	<path class="st0" d="M387.1,95.6c-1.7-1.8-6.2,1.6,0.3,0.4C387.6,95.9,387.1,95.7,387.1,95.6z"/>
	<path class="st0" d="M395.7,98.1C398.6,97.8,395.1,97.6,395.7,98.1L395.7,98.1z"/>
	<path class="st0" d="M395.7,98.1c-6.9-0.1-6.9,0.7-14.6,0.4C384.1,99.2,409.2,98.9,395.7,98.1z"/>
	<path class="st0" d="M326,12.9c-0.6-0.1-5.3,0.3-4.2,0.5C322.3,13.5,327,13.1,326,12.9z"/>
	<path class="st0" d="M393,97.4c-1.3-0.2-7.3,0.2-6.1,0.4C388.1,97.9,394.2,97.5,393,97.4z"/>
	<path class="st0" d="M146.5,96.8C124.9,96.2,115.2,101.9,146.5,96.8L146.5,96.8z"/>
	<path class="st0" d="M91.4,97.9c2,0.4,4.6,0.3,6.8,0.1c2.2-0.2,3.8-0.5,3.9-0.6C102.3,96.9,86,96.7,91.4,97.9z"/>
	<path class="st0" d="M153,96.8c-19.9,0.3,11,0.5,8.5,0C160.7,96.6,154.2,96.8,153,96.8z"/>
	<path class="st0" d="M23.8,10.2c0.7-0.1,1-0.2,1-0.2c-1.2-0.3-10.6,0.5-10.6,0.5c2.1,0.5,4.8,0.4,6.9,0.1
		C22.2,10.5,23.1,10.4,23.8,10.2z"/>
	<path class="st0" d="M30.3,10.5c2.7-0.1,5.2-0.2,6.9-0.3c1.8-0.1,2.8-0.1,2.7-0.2c-3.6-0.8-18.3,0.8-25,0.7
		C18.6,10.8,24.9,10.7,30.3,10.5z"/>
	<path class="st0" d="M33.3,10c-1.1-0.2-7.4,0.2-6.4,0.5C28,10.7,34.4,10.3,33.3,10z"/>
	<path class="st0" d="M71.6,10.5c-1.1-0.2-7.4,0.2-6.4,0.5C66.3,11.2,72.6,10.7,71.6,10.5z"/>
	<path class="st0" d="M15,10.7c-1.2,0-2.2-0.1-2.6-0.2C12.9,10.6,13.8,10.7,15,10.7z"/>
	<path class="st0" d="M92.2,11.1c4.6,0,9.1-0.1,9.2-0.1c17.5-0.5-21.6-0.6-19.1,0C82.8,11.1,87.5,11.1,92.2,11.1z"/>
	<path class="st0" d="M322.9,98c-4.6-0.1,10.9-0.7,8.7-0.7c0.5,0-2,0.8-5.8,0.8c-3.1,0-0.4-0.8-0.6-0.8c-14.2,0.1-4,0.6-19.6,0.5
		c-1.3,0-13-0.1-12.3-0.3c2-0.4,68.8-0.5,7.4-0.5c-23.4,0-2.8-0.7-32.6,0.1c-5.8,0.2-5.1-0.8,6.7,0.3c-0.5,0-1-0.1-1.5-0.2
		c0.4,0.1,1,0.1,1.5,0.2c3.1,0.3-15.9-0.7-11.1-0.6c-6.7-0.2,8,0-1.1,0.5c10.7-0.6,0.5,0.5-6.1,0.4c-11.2,0-13.3-0.2-21.8-0.8
		c-5.9-0.4,13.3-0.7,8.4-0.4c-5.7,0.4,0.8,1.3-5.7,1.3c1.6,0,9.9-2.9,11.2-0.4c0.5,0.9-2.5,0.1-8.5,0c10.9,0.2,2.7-0.7-2.6-0.8
		c-4.1-0.1-13.6,0.4-16.8,0.5c11.1-0.1,4,1-4,0.4c-4-0.3,7-1.1-6.7-0.8c-1.5,0-3,0.7-6,0.9c-5.2,0.3-26.6-0.1-8.7-0.4
		c17.8-0.3-8.4-0.8-15.1-0.4c-3.9,0.2-2.5,0.9-8.2,0.9c-3.6,0-0.8-1.2-2.7-1.3c0.8,0.1-34,0.4-31.7,0.9c0.6-0.3,46.9,0.4,17.3,0.5
		c-7.5,0-0.1,0.2-3.6-0.4c-20.1,0-15.4-0.9,3.9-0.9c-15.1-0.6,3.5,0.1-1.8,0.5c1.4-0.1,12.9,0.6,13.1,0.9c-0.7-0.5-22,0.8-28.2,0.6
		c-3.9-0.1,13.4-1,11.8-1.3c-1,0.3-8.7,1.6-7.7,0.4c0.6-0.7,13.4-0.6,2.5-0.9c-8-0.3-9,0.3-9.3,0.1c-0.9,0.5,5.4,1.3,4.7,1.3
		c-6.5,0.4-13.8-0.3-20.7-0.9c3,0.2,23.5-0.3,24.9-0.4c-4.2,0.1-2.1,1-7.5,1.4c-9.6,0.8-30.7-1.7-47.1-0.9c-0.8,0,0.8,0.4,2.7,0.7
		c1.9,0.3,3.9,0.7,3.9,0.7c-0.5,0.2,29.7,0.2,28.7,0c-55.6-9.1-39.4-2.8-2.3-1.4c-13.1-0.5-3.5-0.1-11.4,0.3
		c4.9-0.1-16.7,0.3-14.5,0.6c-5.6-0.7-16.7,2.4-22.9,0.1c-2.3-1.3-9.4,0.1-3,0.1c-8,0.3-20.4,1.5-31.1,0.9
		c-6.9-0.4-5.1-1.5-12.9-1.4c-5.9,0.1,5.3,0.9,0.1,1.4c-6.6,0.7,9-0.8-2-0.5c-1.8,0.1-2,1-6.4,1c-0.1,0,1-0.3,1.7-0.6
		c-3.1,0-9.7-0.3-11.7-0.3H8.2l-3.8,0.5v-1.1H3.6l0.1-5c0-0.4,0-0.6,0-0.6c0,0.2,0.1,0.4,0.1,0.6l0.6,5.1l3.9,0.1l0.6-0.1
		c5.3-0.6,22.7-0.5,18.6-0.9c-2.2-0.2-10.3-0.3-18.6-0.3H5v-4c0-5.7-0.1-11.4-0.3-15.5c-0.5-12-0.6,7.2-1.4-2.1
		c-0.2-1.7-0.4-48.9,0-55.2c0,0.4,1,3.4,1-2.1c0-2.9-0.7,1.3-1-2.1c0-0.3,0-0.5,0-0.9L3,9.9l6-0.3c13.1-0.7,6.5,0.9,24.4-0.4
		c-0.2-0.6,3.1-0.3,0,0c5.9,0.8,33.9,0.5,10.6,1c-18.2,0.3,7.7,1.4,12.7,1c2.4-0.2-0.4-1.8,4.2-1.9c2.2-0.1,7.1,0.9,10.6,1
		c29.9,0.4-1.3-0.6,24.1-0.5c14.2,0.1,27.6,0.6,42.5,0.5c7.5-0.1-10.7-0.1-0.8,0c4.9,0,9.4,0,12.6,0c3.1,0,4.9,0,5,0
		c-0.6,0-13-0.5-12.7-0.5c2.4-0.1-8.3-0.2-3,0c4.1,0.2-2.1,1,0.6,1c3.2,0-1.7-1.1,2.1-1c3.9,0.1,8.8,1.3,12.7,1.4
		c15.1,0.7-27.6-0.7-11.1,0c-1.9-0.1-1.3,1.3,0,1.4c4,0.4,17.9,0.2,23.3-0.2c-5.5,0.1-19.6-0.9-19.1-0.8c-3.3-0.8,3.1-1,10.4-1.1
		c3.6,0,7.4,0,10.3,0c1.4,0,2.7,0,3.5,0.1c0.8,0,1.3,0,1.3,0c-0.8,0.3-27-0.2-12.7,0.5c8,0.4-27.5-0.6-18.1-0.5
		c-2.6,0-1.3,0.8,2.1,1c19.2,0.6,38.1,0.3,55.2,0.5c14,0.1,1.7-0.6,14.6,0c2.6,0.1,2,0.9,6.4,1c28,0.5,9.5-0.1,39.2,0.5
		c15.4,0.3-10.3,1.4,4.6,1.4c13.2,0.1,6.1,0.2,18.9,0.4h-20.7c-6.1-1.2,9.1,0.1-5-0.4c1.1,0.2,2.3,0.3,3.5,0.4h-36.6
		c-173.9-2.3-44.8-3.9-215.9-3.3H5.4v3.3c0,3.9,0,7.7,0,11.5c0.1,21.8,0.1,43.9,0.2,66.5v3.1h3.1c94,0,50.3-0.1,135.1-0.1
		c-1.4,0.1-2.7,0.3-3.6,0.4c-0.9,0.2-1.5,0.3-1.4,0.3c1.2,0.3,10.5-0.5,10.5-0.5c-0.6-0.1-1.2-0.2-1.8-0.2c35.6,0-20.8-0.1,9.6-0.3
		c47.7-0.2,20.8,0.5,85.4,0.2c47-0.2,53.3,0.4,121.5,0.4c16,0,10.5-0.3,1-0.5c-4.7-0.1-10.5-0.3-15.1-0.4c-2.3,0-4.3-0.1-5.7-0.1
		c-0.7,0-1.3,0-1.7,0s-0.6,0-0.6,0c0.4-0.1,21-0.6,1.5-0.7c-8.6-0.1-0.7,0.1-14.4,0.4c-13.7,0.5-19.6,0.6-37.2,0.5
		c-31.2-0.3-12-0.4,1-0.4c13.7,0,25.5,0,36.2,0c-103.8-1-77.1-1.6-188.4-1.8h295.2V82.6c0.7-20.5,1.3-43.4,1.5-67.4v-1.5h-1.5
		c-29.5-0.3-60.6-0.4-91.7-0.8c-31.3-0.4-21.7-1.8-44.4-1.4c-4.2,0.1-5-0.3-6.4,0.5c0.1,0,5.6,0,11.2,0c5.5,0,10.9,0.1,10.1,0.5
		c0.6-0.3-11.2,0.4-8.5,0.5c23.2,0.5,9.8-0.7,25.2,0c1.5,0.1,0.9,0.9,4.2,1c4.3,0.1,8.5-0.7,12.8-0.5c0.2,0-5,0.8-4.3,1
		c2.7,0.7,12.7-0.5,14.9-0.5c-15.8,0,10.6-1,17,0c1.7,0.3-1.1,0.9,2.1,1c-2,0,3.8-1,6.4-1c2.5,0,4.7,0.2,6.9,0.4
		c-2.8,0-7.8,0.4-6.9,0.6c1.3,0.3,8.4-0.2,8.5-0.4c1.9,0.2,3.9,0.3,6.4,0.4c-0.4,0,17.5-0.4,21.7,0.4h-70.1
		c-11.8-0.1-21.7-0.3-26-0.4c-46.9-1.1-29.4-2.5-63-2.9c-48.7-0.5-10.2-0.9-62.4-1.4C56.2,9,160.4,7.2,9,8.3H2l0.1,6.9
		c0.1,13.1,0.2,25.2,0.3,37c0.1,10.4,0.2,23,0.3,41v6.4H9c40-0.3,37-0.4,78.2-0.2c3.1,0,32,0,27.9,0.9c-1.4,0.3-21.4-0.1-29.9,0
		c-49.8,0.6-34.2,0.9-76.2,1.1H0.8v-8.2C0.7,67,0.6,41.4,0.5,15.2V6.8H9c38.6,0,48.3-0.1,92.4-0.1c-0.9,0-10.1-0.2-13-0.5
		C77.1,5,55,6.2,24.9,6.2C10.5,6.2,24.4,6.1,9,6.1h-9.1v9.1c0,16.9,0,33.1,0.1,45.5c0.1,11.2,0.2,22.2,0.3,32.5l0.1,8.8l8.7-0.1
		c50.8-0.3,38.3-0.2,91.3-0.3c15.3,0-21.7-1-5.2-1c44.3-0.1,8.1,0.1,50,0.2s-8.2,0,28.1-0.6c25.4-0.4,44.9-0.1,76.4,0
		c20.5,0.1,35.7-0.1,5.9-1c-22.2-0.7-6.5-0.8,12.3-0.9c6.8,0,15.2,0-9.1,0.4c-25.1,0.4-8.4,1.1,0,1.1c25.2,0,26.7-0.4,44.1-0.3
		c10.2,0.1,36.3-0.5,14.7-0.4c-8.5,0-9.7,0-28.9-0.1c-19.3-0.1-16.6-0.4-17.3-0.8c0,0,0.4,0,1,0s1.5,0,2.6,0
		c2.2,0-14.9,0.1-11.8,0.1c6.1,0.1,12.5,0.1,14,0.1c63.3,0.2,45.2-0.2,104-0.2C364.3,97.6,343.9,98.5,322.9,98z M335.7,95.3
		c1.3,0.2-6.6,0.6-8.2,0.4C326.2,95.5,334.1,95.1,335.7,95.3z M322.9,95.4c0.4,0.1,1.5,0.4,0.8,0C322.8,94.9,320.1,94.6,322.9,95.4z
		 M262.7,15.2h-5.9C259.3,15.1,261.4,15.1,262.7,15.2z M148.8,15.2H174c1.7,0-26.5,0-24.7,0C156.2,15.2,143.5,15.2,148.8,15.2z
		 M139.2,14.3c26-0.4-22.4,0,6.5,0.5c10.5,0.2,9.4,0.3,3.7,0.4h2.6c-3.6-0.1-6.3-0.2-7.6-0.4C141.9,14.5,133.8,14.4,139.2,14.3z
		 M127.3,14.3c-4.8-0.1,2.5,0.5,0.3,0C121.2,12.9,162.4,15.3,127.3,14.3z M99.9,13.4c9-0.3,33.8,0.8,12.8,1c-7.5,0-15.6,0.2-17-0.5
		C94.9,13.5,99,13.4,99.9,13.4z M94.7,13.4c12.7,0.2-30.8-0.4-7.5,0c15.6,0.3,47.1,0.4,39.4,0.5c-2.4,0-20.5,0.1-38,0.1
		c-8.8,0,12.6-0.1,6.3-0.1c-6.4-0.1-10.6-0.2-10.4-0.4C84.8,12.4,88.8,13.3,94.7,13.4z M136.7,95c-30.3,0.8-16.4-0.1-39.2,0
		C68,95.2,60.3,95.3,9,95.4H6.8v-2.2c0-19.6-0.1-46.5-0.1-78v-2.3H9c6.2,0,15.4,0,24.6,0c28.9,0,36.5-1.2,46.5,0
		c1.7,0.2-7.8,0.3-17.8,0.4c-10,0-20.4,0.1-20.4,0.1c-20-0.1-11.6-0.1-32.9-0.1H7.1v1.9c0.1,28.1,0.3,55.7,0.5,78v1.4H9
		c4.2,0,7.2,0,10-0.1c75.6-0.6,35.1,0.2,90,0C119.6,94.5,169.9,94.1,136.7,95z M132.1,94.5c-4.5,0-10,1.1-10.6,0
		c-0.4-0.7,20.9-0.7,23.3-0.5C149.9,94.5,138.5,94.5,132.1,94.5z M144,94.5c-1.7,0.4,9.7-0.5,9.2-0.5C154.6,94,148,93.6,144,94.5z
		 M140.4,94.5c2.5-0.7-2.9-1.1,1.3,0C143.8,95.1,139.6,94.7,140.4,94.5z M144.2,94.5c-8.6,0.5,23.3,0.5,21,0.5
		c-105.5-0.7-16.4,1.4-17.2-0.5c0,0,0.2,0,0.7-0.1c0.5,0,1.1,0,1.9-0.1c1.7,0,4-0.1,6.8-0.2c5.5-0.1-17.5-0.3-11.3-0.3
		C158.6,93.7,157.6,93.7,144.2,94.5z M161.1,94c0,0,0.8,0,2-0.1c1.2,0,3-0.1,4.8-0.1c3.7,0-22,0.1-19.7,0.6
		C151.7,95.3,150.3,94.3,161.1,94z M250.6,94.8c6.3,0,12.3-0.9,17.4-0.1C270.7,95.1,194.7,95,250.6,94.8z M231.4,94.8
		c1.2,0.2,25.1,0.6,23.9,0.4C254.1,95,230.2,94.6,231.4,94.8z M252.9,94.8c1.2,0.2-4.9,0.6-6.1,0.4C245.6,95,251.7,94.6,252.9,94.8z
		 M242.3,94.8c1.2,0.2-4.9,0.6-6.2,0.4C234.9,95,241.1,94.6,242.3,94.8z M249.5,94.8c-0.8,0.3-12.8,1-18.9,0.4
		C224.4,94.7,250.2,94.6,249.5,94.8z M221.6,94.4c-0.1,0-23.8,0.4-29.4,0.5c-6.9,0-36.7,1-41.7,0c2,0.4,28.5-0.5,39.4-0.5
		C192.4,94.4,216.7,93.5,221.6,94.4z M9,93.6H8.6v-0.4c0-27.5,0-53.4-0.1-78v-0.4h0.4c24.3,0,17.3,0,39.2,0.1
		C81,15,84.4,15.1,118,15.3H9v78h129.3C56.2,93.3,83.6,93.5,9,93.6z M436,15.1L436,15.1L436,15.1c0.3,1.7,0.6,7.1,0.4,8.3
		c-0.1,0.4-0.3-0.7-0.4-2.3V15.1l-0.4,0.1C435.7,15.2,435.8,15.2,436,15.1z M240.9,12.4c1,0.2-3.7,0.6-4.2,0.5
		C235.6,12.7,240.3,12.3,240.9,12.4z M239.9,11.5c1,0.2-3.7,0.6-4.3,0.5C234.6,11.7,239.3,11.3,239.9,11.5z M207.4,11
		c1.1,0.3-7.1,0.8-8.5,0.5C197.8,11.2,206,10.7,207.4,11z M208.3,11.5c-0.8,0-5.8,0.1-6.4,0C180.1,5.8,207.4,11.5,208.3,11.5z
		 M167.9,11c-0.8,0-5.8,0.1-6.4,0C158.8,10.4,187.1,10.8,167.9,11z M149.3,10c1,0.2-3.7,0.6-4.2,0.5C144,10.3,148.7,9.9,149.3,10z
		 M172.9,10c1.1,0.2-5.3,0.7-6.4,0.5C165.5,10.3,171.8,9.8,172.9,10z M144.6,9.5c-1.2,0-7.7,0.2-8.5,0
		C104.3,2.7,140.3,9.5,144.6,9.5z M127.6,9.1c0,0-0.4,0.1-1,0.2c-0.7,0.1-1.6,0.3-2.7,0.4c-2.1,0.2-4.8,0.4-6.9-0.1
		C116.9,9.5,126.4,8.8,127.6,9.1z M3.8,82c0.7-0.2,0.5,5.8,0,6.4C3,89.2,3.6,82,3.8,82z M110.5,97.9C109,97.6,111.4,98.1,110.5,97.9
		L110.5,97.9z M145.4,100c-58.3,0.5-0.6-0.5-56.8,0.3c-1.4,0-2.9,0-4.3,0c-35.3-0.6,19.3-1,49-1c43.9-0.1-31.2-0.3,13.9-0.2
		c4.5,0,13.8,0.7,15.8,0.4C160.6,99.8,156.9,99.9,145.4,100z M152.1,99c4.2,0-8.4-0.3-7.2,0C147.3,99.4,120.2,99.3,152.1,99z
		 M160,99.3c0,0-0.6,0-1.4,0.1c-0.8,0-1.9,0-2.9,0.1c-2.1,0-4.2,0-4.3-0.1C151.2,98.7,163.5,98.5,160,99.3z M197.8,99.3
		c-0.4,0-1.1,0-1.8,0.1c-1.6,0-3.7,0.1-6.2,0.2c-5,0.1-11.4,0.2-16.7,0.2c0.6,0-5.5-0.8-6.6-0.4c2-0.8,32.4-0.7,32.1-0.1
		C198.5,99.3,198.2,99.3,197.8,99.3z M250.8,97.3c1.2,0.2,5,0.6,3.8,0.4C253.4,97.5,249.5,97.1,250.8,97.3z M201,97
		c4.3,0,10.8-0.1,15.1,0.4C219,97.8,178.4,97.2,201,97z M246.8,99c-6.2,0,8,0-1.4,0.1c-15.2,0.1-22.5,0.8-39.1,0.1
		c-12.2-0.5-2.5-0.3,6.2-0.4c21.2-0.3-5.6-0.4,19-0.2C252.2,98.6,256.2,98.9,246.8,99z M261.4,97.5c-1.2-0.2,4.9-0.6,6.1-0.4
		C268.7,97.3,262.6,97.7,261.4,97.5z M284.9,97.4C283.3,97.2,285.9,97.6,284.9,97.4L284.9,97.4z"/>
	<path class="st0" d="M52.2,97.3c-4.1,0.1-7.6,0.1-7.8,0.1c-17.1,0.5,19.8,0.6,17.1,0C60.6,97.2,56.3,97.2,52.2,97.3z"/>
	<path class="st0" d="M87.1,97.4C88,97.6,85.7,97.1,87.1,97.4L87.1,97.4z"/>
	<path class="st0" d="M42.4,97.4c-25.9,0.2-18.6,0.6-21.5,0C20.2,97.2,43.7,97.4,42.4,97.4z"/>
</g>
</svg>
