<?xml version="1.0" encoding="utf-8"?>
<!-- Generator: Adobe Illustrator 22.0.0, SVG Export Plug-In . SVG Version: 6.00 Build 0)  -->
<svg version="1.1" id="Layer_1" xmlns="http://www.w3.org/2000/svg" xmlns:xlink="http://www.w3.org/1999/xlink" x="0px" y="0px"
	 viewBox="0 0 1269.1 1119.3" style="enable-background:new 0 0 1269.1 1119.3;" xml:space="preserve">
<style type="text/css">
	.st0{fill-rule:evenodd;clip-rule:evenodd;fill:#FCF8EF;}
</style>
<g>
	<g>
		<path class="st0" d="M1272.3,103.8c0.7-3.1-0.4-21.5-1-19.1C1270.6,87.8,1271.8,106.2,1272.3,103.8z M1271.2,182.2
			c-0.4,1.7-0.1,16.3,0,19C1271.8,245.9,1272.4,177,1271.2,182.2z M1271.1,225c-1.1,5.2-0.9,15.9-0.4,25.4c0.2,4.7,0.6,9.1,0.8,12.3
			c0.3,3.2,0.4,5.3,0.4,5.3C1273.3,261.7,1270.1,229.6,1271.1,225z M1271,272.5c-0.3,1.3,0.5,11.9,0.9,9.7
			C1272.2,280.9,1271.5,270.4,1271,272.5z M1265.1,744.3c-0.6,2.8,0.2,21.7,0.6,19.5C1266.3,761,1265.6,742.1,1265.1,744.3z
			 M1264.4,842.7c0.2,2.5,0.4,4.8,0.6,6.4c0.2,1.6,0.3,2.6,0.3,2.5c0.5-2.3-0.6-74.2-0.6-74.2C1263.9,781.5,1264,837.6,1264.4,842.7
			z M1262.9,1087.4c-0.3,1.4-0.2,16.2-0.2,18.9C1262.6,1150.9,1263.8,1082.9,1262.9,1087.4z M1040.9,7.5c-0.2-0.1,2.2-0.1,6.4-0.1
			c4.2,0,10.2-0.1,17.3-0.1c14.2-0.1,13.6-0.1,30.5-0.2c33.7-0.2,60.8-0.6,34-1.6c-26.3-1-35.6-0.6-60.6,0
			C1037.4,6.2,1032.4,4.4,1040.9,7.5z M1254.6,745.4c0,0,0-0.1,0-0.1C1254.6,745.1,1254.6,745.2,1254.6,745.4z M12.7,784.4
			c0,0.1,0,0.3,0.1,0.4c0.1,0.3,0.1-26.7,0.2-59.1c0-1.1-0.1-2.3-0.1-3.5C12.8,739.1,12.7,761,12.7,784.4z M1248.5,4.5
			c-37.5,0-58.8,0.5-72.8,1c-36.2,1.4,43.4,1,42,1c8.4,0,17.4,0.1,30.8,0.1l9.8,0l0,9.7c-0.4,84.8-1.4,324.8-2.1,398
			c-0.4,43.4,0.6,204.5-1.3,210.4c0-0.4,0.1-65.5,0.2-85c0.1-26.9-1.2-118.8-0.8-139.9c0.2-8.9,2-34.6,2-37.1
			c0-14.6,0-94.5,0.1-116.3c0.4-46.6,0.3-130.9,0.1-162.6c-0.2-22.6-2.1-50.8-0.9-67.5l0.5-6.5l-7.4-0.5c-2.9-0.2-5.4-0.5-7.5-0.9
			c-24.7,0.5-86.1,1-153.8,1c-222.3,0-791.4,1.6-994.9,3c-26.3,0.2-52.8-0.1-79-0.4L9,12l-0.1,4.3C8.3,65,7.3,162.8,8.3,206.3
			c0.3,11.6,1.9,21.1,2,32.6c0.5,51.9,0.4,164.5,0,218.4c-0.8,101.6,0.7,336.8,1,472.3c0.1,37.3-2.3,120.6-1,142.5
			c0.9,15.7,2-16.8,2.9,13.9v7.4c-0.4-2.4-1.3-14.8-1.9-11.9c-1.4,7.2-0.1,17.6,1.3,25.8l0.1,0.7l0.5-0.1c1.3-0.2,2.5-0.4,3.7-0.6
			H38c-6.6,0.2-12.6,0.5-18,0.9c-7.7,0.6,8.6,1.1,4.7,1c24.6,0.4,42.7,0,65.4,0c44.5-0.1,259.7,1,293.8,1.6
			c34,0.7,156.9,0.9,195.9-0.7c20.2-0.8-141-0.9-151-0.9c-57.1-0.4,102-1.1,136.4-1c56.2,0.3,146.9,0.5,209,0.9
			c82.6,0.2,189.5,1-110.4,1c-41.7,0,97.4,0.6,115.8,0.9c2.6,0,88.5-0.1,92.1-0.1c11-0.2,23.8-0.1,37-0.1c-16.6,0.5-30.8,1.2-31.9,1
			c4.8,0.8,25.5,0.5,45.1,0c9.8-0.3,43.3-0.5,50.5-0.8c7.1-0.2,11.9-0.4,12.1-0.3c-0.2,0-0.4,0-0.5-0.1c8.8-0.1,16.8-0.4,23.4-0.8
			c14.8-0.9-22.7-0.8-23.9-0.8c-81,0.1-287.8-1.2-354.9-1.6H1007c1.6,0.1,4,0.1,6.7,0h26.3c0.7,0,1.6,0,2.6,0h206v-10.9
			c0.2,0.5,0.4,0.9,0.6,1.3c1.2,2.4,6.2,12,7.1,7c1.8-9.7,2.1-92.4,1.8-137.2c-0.3-44.8-1.4-336-1.4-209.9
			c-0.1,41.7-0.2,37.9-0.3,7.5c-0.1-74.4,0.9-274.6,1.9-366.5c1-91.9,2.1-296.4,2.1-380.3c0-0.8,0-1.5,0-1.8l0-11.9L1248.5,4.5z
			 M11.3,53.8C12,50.8,10.9,55.8,11.3,53.8L11.3,53.8z M11.3,262.2c0-0.1,0.2,0.8,0.5,2.2c0.3,1.5,0.6,3.5,0.8,5.9
			c0.5,4.7,0.7,70.6-0.3,75.2C12.3,345.5,10.8,264.8,11.3,262.2z M12.5,372.6c0,0.1-0.1,0.4-0.2,0.9c0,0.1,0,0.1,0,0.2
			C12.3,373.3,12.4,372.8,12.5,372.6z M12.3,1008.8c-0.1,0.3-0.1,0.4-0.1,0.4c0-0.1,0.2-0.7,0.2-1.1
			C12.4,1008.3,12.4,1008.5,12.3,1008.8z M13.2,999.5c-0.8-3.1-0.4-80.3,0-41.4V999.5z M13.2,633.2c0-0.4-0.1,0.2-0.1,1.5
			c0,11.2-0.1,26.7-0.1,43.4c0.1,2.2,0.1,4.2,0.2,5.9v11.2c-0.1-8.4-0.1-6.2-0.2,2.9c0,9.3,0,18.6,0,27.6c0.1,4.1,0.2,7.7,0.3,10.6
			v202.3c-0.5-4.6-0.6-85.9-0.5-154.3c-0.2-1.2-0.4-1.9-0.4-1.8c-0.2,1.1-0.1-39.4,0.2-78.6c-0.9-44.4-1.8-109.4-0.2-116.8
			c-0.6,2.7-0.2,49.1,0.4,79.1c0.1-15.4,0.3-27.3,0.4-31.5c0-11.3,0.1-18.4,0.1-18.2V633.2z M102.4,15.8c0.7-0.3,1.8-0.5,3.8-0.4
			c-1-0.1,3.4,0.3,9.9,0.9h-14.5C101.8,16.2,102,16,102.4,15.8z M391.5,1109c-23.2,0.3-239.6-0.8-275.9-1.5
			c-5.4-0.1-10.7-0.2-16-0.3h301.4C398.5,1108,399.2,1108.9,391.5,1109z M395,16.4c2.7-0.1,5.2-0.1,6.7,0H395z M563.4,16.4
			c34.2-1.1,167.8-0.3,212.6,0H563.4z M1180.5,16.4h-105.6c26.2-0.7,85.3-4.2,124.1-0.9C1201.6,15.7,1185.7,16.2,1180.5,16.4z
			 M1222.4,16.4h-5c-0.3-0.5,8.4-1.1,9.6-0.9C1228.3,15.8,1225.3,16.1,1222.4,16.4z M1254.7,726.6
			C1254.1,729.4,1255.1,724.8,1254.7,726.6L1254.7,726.6z M1254.6,698.5c0-0.2,0.1-0.5,0.1-0.7c0,0,0,0,0,0
			C1254.7,698.2,1254.6,698.4,1254.6,698.5z M1255.4,783.3c-2.4,4.1-2.1-45.7-0.7-42.7c1.3,3,0.1,3.5,0,4.6
			C1254.8,747.1,1256.2,781.9,1255.4,783.3z M1255.7,693.2c-0.5,2.2-1.4-52.3-0.9-54.5C1255.3,636.6,1256.1,691,1255.7,693.2z
			 M12.5,704c0.1,6.6,0.3,12.8,0.4,18.3c0-10.2,0.1-18.5,0.1-24.1c0-6.8,0-13.5,0-20.1c-0.1-3.5-0.2-7.5-0.3-11.9
			C12.6,677.5,12.5,690.7,12.5,704z M766.5,5.5c-4.3-0.9-11.3-0.7-17.2-0.2c-3,0.2-5.6,0.5-7.6,0.8c-1,0.1-1.8,0.2-2.3,0.3
			c-0.6,0.1-0.9,0.1-0.9,0.1C737.3,8.3,776.8,7.7,766.5,5.5z M867.1,6.9c4.5,0.2,9.1,0.5,9.9,0.5c35.2,0.9,111.1,0.3,135.9,0
			c-8.5,0.1,30.3-1.1,18.6-2c-10-0.8-71.3-0.7-106.1-0.3c-17.4,0.3-34.2,0.5-46.6,0.7c-6.2,0.1-11.3,0.3-14.9,0.3
			c-1.8,0.1-53.2,0.1-54.1,0.1c-0.5,0-0.8,0-1.1,0.1c-0.2,0-0.4,0-0.4,0c0,0,51.1,0,52.7,0.1C862.7,6.7,864.9,6.8,867.1,6.9z
			 M991.9,1114.8c-1.9-0.3-16,0-18.8,0.1C916.3,1115.5,998.7,1115.9,991.9,1114.8z M68.9,7.5c93.4-0.5-14.8-3.3-28,0
			C38.7,8.1,62.5,7.5,68.9,7.5z M120.2,7.5C148.4,9.9,149.9,4,120.2,7.5L120.2,7.5z M398.1,7.5c4,0.9,144.4,0,145.9,0
			C610.2,7,388.5,5.4,398.1,7.5z M590.6,7.5c1.3,0.3,11.5-0.5,9.3-1C598.7,6.2,588.4,7,590.6,7.5z M619.8,7.8
			c2.3-0.2,4.4-0.6,5.9-0.8c1.5-0.3,2.3-0.4,2.2-0.5c-2.6-0.6-23.3,1-23.3,1C609.2,8.5,615.1,8.3,619.8,7.8z M651.2,6.5
			c-2.4-0.5-16.3,0.5-14,1C639.6,8,653.6,7,651.2,6.5z M795.4,1114.3c-51.7,0.9,115.3,1.3,106.3-0.2
			C898,1113.5,797.2,1114.3,795.4,1114.3z M5.3,30.4c0,0.1-0.1,0.2-0.1,0.3c0-0.1,0-0.1,0-0.2C5.3,30.5,5.3,30.4,5.3,30.4z
			 M5.5,29.7C5.5,29.4,5.5,29.5,5.5,29.7L5.5,29.7z M356.1,7.5c-2.4-0.5-16.3,0.5-14,1C344.5,9,358.5,8,356.1,7.5z M370.1,8.5
			c1.3,0.3,11.5-0.5,9.3-1C378.2,7.2,367.9,8,370.1,8.5z M388.8,8.5c-0.2,0-0.4-0.1-0.4-0.1C388.7,8.5,391.1,9,388.8,8.5z
			 M1208.3,7.5c-2.4-0.5-16.3,0.5-14,1C1196.7,9,1210.7,8,1208.3,7.5z M1256.3,8.8l-0.1,7.5c-0.5,31.1,2.3,19.4,0.9,0l-0.7-9.2
			l-8,0.6c-2.4,0.2-4.9,0.4-7.5,0.7c2.7,0.1,5.2,0.1,7.5,0.2L1256.3,8.8z M641.8,1113.7c0.2,0,0.3,0.1,0.4,0.1
			c-0.1,0-0.3-0.1-0.5-0.1C641.7,1113.7,641.7,1113.7,641.8,1113.7z M642.2,1113.7C642.4,1113.8,642.3,1113.8,642.2,1113.7
			L642.2,1113.7z M641.5,1113.6c-0.3-0.1-0.6-0.1-0.7-0.1C641,1113.5,641.2,1113.6,641.5,1113.6z M590.2,1113.8
			c-42.2,0.5,20.5,1.2,14.1,0C603,1113.5,592,1113.8,590.2,1113.8z M5.3,563.9c-0.3,1.3,0.5,11.5,1,9.3
			C6.6,571.9,5.8,561.7,5.3,563.9z M5.3,438.7c-2.1,9.8,0.6,22.6,1,23.3C7.3,463.5,6.9,431.4,5.3,438.7z M6.3,229.6
			C5.9,231.6,7,226.5,6.3,229.6L6.3,229.6z M6.3,109.7C5.9,111.7,7,106.7,6.3,109.7L6.3,109.7z M1084.3,1112.7
			c3.5,0.5,20.9-0.5,18.1-0.9C1098.9,1111.3,1081.6,1112.3,1084.3,1112.7z M7.3,540.6C8,537.5,6.9,542.5,7.3,540.6L7.3,540.6z
			 M7.3,420c0.5-2.4-0.5-16.3-1-14C5.8,408.4,6.8,422.4,7.3,420z M1050.7,1111.2c-2.1-0.3-11.6-0.3-20.5-0.2
			c-8.9,0.2-16.6,0.3-16.9,0.3C976.3,1112.2,1057.3,1112.2,1050.7,1111.2z M8.3,1018.1c0-0.1,0-0.1,0-0.1c0,0.1,0,0.2-0.1,0.3
			C8.3,1018.2,8.3,1018.2,8.3,1018.1z M8.4,1017.6C8.5,1017.1,8.4,995.2,8.4,1017.6L8.4,1017.6z M1250.4,1109.9c0.2,0,0.3,0,0.4,0.1
			c0,0-0.1,0-0.1,0C1250.6,1109.9,1250.5,1109.9,1250.4,1109.9z M1249.9,1109.8c-0.1,0-0.2,0-0.3,0
			C1249.7,1109.8,1249.8,1109.8,1249.9,1109.8z M1175.3,1109.3c-41.9,0.4,20.9,0.9,14,0C1188,1109.1,1177.1,1109.3,1175.3,1109.3z
			 M1045.4,1110.4c3.5,0.5,20.9-0.4,18.1-0.9C1060.1,1109,1042.7,1109.9,1045.4,1110.4z M640.5,1109.9
			C640.5,1109.9,640.5,1109.9,640.5,1109.9c0,0-0.1,0-0.2,0C640.4,1109.9,640.5,1109.9,640.5,1109.9z M617.5,1110.9
			c1.4,0.3,11.4-0.5,9.1-1C625.1,1109.6,615.1,1110.4,617.5,1110.9z M602.3,1109.8c0.4,0.1,1.2,0.2,1.3,0.3c-0.1,0-0.2,0-0.5-0.1
			C602.7,1109.8,602.5,1109.8,602.3,1109.8z M1086,1108.7c-1.5-0.2-11.2,0.4-8.7,0.8C1078.7,1109.7,1088.5,1109,1086,1108.7z"/>
	</g>
</g>
</svg>
