<?xml version="1.0" encoding="utf-8"?>
<!-- Generator: Adobe Illustrator 22.0.0, SVG Export Plug-In . SVG Version: 6.00 Build 0)  -->
<svg version="1.1" id="Layer_1" xmlns="http://www.w3.org/2000/svg" xmlns:xlink="http://www.w3.org/1999/xlink" x="0px" y="0px"
	 viewBox="0 0 1600 22.9" style="enable-background:new 0 0 1600 22.9;" xml:space="preserve">
<style type="text/css">
	.st0{fill:#FCF8EF;}
</style>
<path class="st0" d="M1591.4,20.4c0.4,0,0.8-0.1,1.3-0.1C1592.3,20.4,1591.8,20.4,1591.4,20.4z"/>
<path class="st0" d="M173.9,22.2c-3.1,0-6.2,0.1-9.3,0.1C166.4,22.4,169.4,22.4,173.9,22.2z"/>
<path class="st0" d="M1148.3,22.7c-1.7-0.3-15.3,0-17.8,0C1089,23.2,1153.8,23.6,1148.3,22.7z"/>
<path class="st0" d="M1090.8,23.5c1.3,0.2,10.8-0.4,8.5-0.8C1098,22.4,1088.5,23.1,1090.8,23.5z"/>
<path class="st0" d="M1213.8,21.7c0.5,0.1,2.3,0.4,1,0.2C1214.2,21.8,1213.9,21.7,1213.8,21.7z"/>
<path class="st0" d="M90.1,12.3c-0.4-0.1-0.6-0.2-0.7-0.3h10.2C96.5,12.4,92.4,12.8,90.1,12.3z"/>
<path class="st0" d="M267.1,17.8c-2.2-0.5,11-1.4,13.3-0.9C282.7,17.4,269.4,18.3,267.1,17.8z"/>
<path class="st0" d="M296.9,16.7c-5.2,0.3-10.8,0.5-12,0.2c-0.1,0,0.7-0.2,2.1-0.4c1.4-0.2,3.3-0.5,5.5-0.7c4.5-0.4,10-0.7,14.5,0.3
	C307,16.1,302.1,16.4,296.9,16.7z"/>
<path class="st0" d="M537.6,17c-7.4,1.6-43.9,1.7-81.3,1.5c-37.4-0.3-75.8-1-87.2-1.2c-4.5-0.1-41.7-0.7-40-1.1
	c8.1-1.7,30.8,0.2,44.3,0.2c30.4-0.1,44.7,0.5,84.3,0.3C450.1,16.7,547.7,14.8,537.6,17z"/>
<path class="st0" d="M550.9,17c5-1.5,62.2-1.6,71,0.2C628.4,18.7,554.1,16.1,550.9,17z"/>
<path class="st0" d="M719.6,17.6c-0.1,0-6.7,0-16.2,0.1c-9.5,0-21.8,0-32.6-0.2c-21.4-0.4-20-0.2,13.1-0.9
	C705.3,16.2,810.9,17.1,719.6,17.6z"/>
<path class="st0" d="M797.9,16.7c-5.2,0.3-10.6,0.5-11.9,0.2c-0.1,0,0.7-0.2,2-0.4c1.3-0.2,3.2-0.5,5.4-0.7
	c4.3-0.4,9.9-0.6,14.5,0.3C807.9,16.1,803.1,16.4,797.9,16.7z"/>
<path class="st0" d="M1600,0H0v18.5l4-0.2c24.9-1.1,54-2.8,96.7-2.5c22.8,0.1,55.4,0.6,71.3,0.3c8.7-0.1,119.8,0.6,58,1.2
	c-57.7,0.6-6.7-0.5-40.1-0.2C175.1,17.4,95,18.4,4,19.6l-4,0.1V23h4c57.5-0.3,108.8-0.7,158.5-1.1c-7.7-0.4,5.2-2.4,9.4-0.1
	c157-1.2,384.7-1.2,630.3-0.6c133.4,0.3,321.1,0.7,451.8-0.1c27.7-0.2,54-1.6,79.6-1.4c4.4,0,4.6,1.3,10,1.5
	c21.2,0.6,74-0.3,116.4,0c51.8,0.4,104.1,1.4,132.5-0.6c-4.9,0.3,1.9-0.5,7.6-1.1L1600,0L1600,0z"/>
</svg>
