<?xml version="1.0" encoding="utf-8"?>
<!-- Generator: Adobe Illustrator 22.0.0, SVG Export Plug-In . SVG Version: 6.00 Build 0)  -->
<svg version="1.1" id="Layer_1" xmlns="http://www.w3.org/2000/svg" xmlns:xlink="http://www.w3.org/1999/xlink" x="0px" y="0px"
	 viewBox="0 0 1598.6 31.5" style="enable-background:new 0 0 1598.6 31.5;" xml:space="preserve">
<style type="text/css">
	.st0{fill:#FCF8EF;}
</style>
<g>
	<path class="st0" d="M862.3,2.9c1.9,0.3,18-0.4,14.7-0.9C875.1,1.7,859,2.4,862.3,2.9z"/>
	<path class="st0" d="M637.7,4.8C634.8,4.4,642.3,5.5,637.7,4.8L637.7,4.8z"/>
	<path class="st0" d="M984.3,6.3C981.4,5.9,988.9,7,984.3,6.3L984.3,6.3z"/>
	<path class="st0" d="M1289.5,7.9c3.7-0.2,7-0.5,9.3-0.7s3.7-0.4,3.6-0.4c-1.9-0.3-11-0.1-19.6,0.2c-8.7,0.2-16.8,0.5-16.8,0.5
		C1272.9,8.5,1282.1,8.3,1289.5,7.9z"/>
	<path class="st0" d="M1309.3,7.7c1.7,0.2,18.8,0.1,21.7,0.1C1396.2,7.7,1300.3,6.4,1309.3,7.7z"/>
	<path class="st0" d="M1374.3,8C1371.4,7.6,1378.9,8.7,1374.3,8L1374.3,8z"/>
	<path class="st0" d="M1222.7,7.3c-2-0.2-18,0.5-14.7,0.9C1209.9,8.5,1226,7.8,1222.7,7.3z"/>
	<path class="st0" d="M319.9,5.3c1.9,0.3,18-0.4,14.7-0.9C332.7,4.2,316.6,4.9,319.9,5.3z"/>
	<path class="st0" d="M810.8,6.5c0,0-0.7-0.1-2-0.1s-3.1,0-5.3,0.1c-4.3,0.1-10.1,0.2-15.8,0.4c-11.3,0.3-22.3,0.6-20.6,0.4
		C734,10.4,810.2,8.1,810.8,6.5z"/>
	<path class="st0" d="M839.7,6.6c-1.9-0.2-18,0.5-14.7,0.9C826.9,7.8,843,7.1,839.7,6.6z"/>
	<path class="st0" d="M877.4,8c3.7-0.2,7-0.5,9.3-0.7s3.7-0.4,3.6-0.4c-1.9-0.3-11-0.1-19.6,0.2C862.1,7.4,854,7.7,854,7.7
		C860.8,8.6,870,8.5,877.4,8z"/>
	<path class="st0" d="M919.1,7c-3.6-0.5-25.4,0.4-21.9,0.9C900.8,8.4,922.7,7.5,919.1,7z"/>
	<path class="st0" d="M102.7,5.4c1.9,0.3,18-0.4,14.7-0.9C115.5,4.2,99.4,4.9,102.7,5.4z"/>
	<path class="st0" d="M124.4,5.5c3.6,0.5,25.5-0.4,21.9-0.9C142.8,4.1,120.9,5,124.4,5.5z"/>
	<path class="st0" d="M1157,9.9c-4.6-0.7-32.8,0.3-29.1,0.8C1132.5,11.4,1160.6,10.5,1157,9.9z"/>
	<path class="st0" d="M1264.8,12.3C1261.9,11.9,1269.4,13,1264.8,12.3L1264.8,12.3z"/>
	<path class="st0" d="M1423.7,13c1.9,0.3,5.1,0.4,9.1,0.4C1428.4,13.4,1425.2,13.2,1423.7,13z"/>
	<path class="st0" d="M1475.1,13.4c11.2-0.1,22.1-0.3,30-0.5c8-0.2,13-0.3,12.7-0.4c-11.9-1.7-62.3,1.2-85,1
		C1443,13.7,1459.4,13.6,1475.1,13.4z"/>
	<path class="st0" d="M1372.7,14.7c1.7,0.2,18.8,0.1,21.7,0.1C1459.6,14.7,1363.6,13.4,1372.7,14.7z"/>
	<path class="st0" d="M718.6,2.2c116.4-1.1-17.3-1.1-86.4-1.3C563.4,0.7,518,1.3,509,1.3c-172,0-322.1-0.1-470.5-0.1
		c-9.6,0-19.1,0-28.6,0h-10v2.3h10C256.7,3.6,480.2,4.6,718.6,2.2z"/>
	<path class="st0" d="M1423.3,17.7c-0.4,0-0.8,0-1.1,0C1422.6,17.7,1422.9,17.7,1423.3,17.7z"/>
	<path class="st0" d="M1588.7,7.8c-72.3,0-86.2,7.4-151.5,10c-3.8,0-8.3,0-13.9-0.1c2.7,0,5.9,0.1,8.1,0.3
		c-14.7,0.5-6.6-0.1-26.6-0.3c-27.5-0.7-40.9-1-60.5-1.2c-98.9-1-265.2-0.1-216.6-0.9c25.5-0.5,205.3,0.9,217-1
		c-6.6,1-96.5-1.2-158.5-1.6c-48.4-0.3-96.7,0.6-137.4,0.4c-50-0.2-100.1-1.9-143.9-2.5C834.4,9.9,735,9.3,724,12
		c3.2-0.8,24.7,1,21.4,1.1c-45.4,0.3-20.7-1.5-42.8-2.1c-17.1-0.5-60.9-0.3-93.8-0.4c-23.5-0.1-86.1-0.7-71.9-1.3
		C571,7.8,614.1,9.8,638,9.7c21.2-0.1,98.5-1,72.7-1.6c-56.8-1.4-102.1-1.6-115.5-1.6c-68.9-0.1-162.3,0.7-253.1,0.8
		C236.9,7.5,121.6,7.6,11.4,7.8H0v23.7h1419.6h179.1v-12V7.8H1588.7z M52.2,10.9c-3.3-0.5,12.7-1.2,14.7-0.9
		C70.2,10.4,54.1,11.1,52.2,10.9z M282.9,10.4c-4.9,0.2-11.5,0.5-18.7,0.8c-14.3,0.5-30.6,0.6-38.5-0.5c7.1,1,55.8-2,65.2-0.7
		C290.9,10,287.8,10.2,282.9,10.4z M297.9,11c-3.5-0.5,18.3-1.4,21.9-0.9C323.3,10.6,301.4,11.5,297.9,11z M326.8,11.1
		c-3.7-0.5,24.5-1.5,29.1-0.8C359.5,10.8,331.4,11.8,326.8,11.1z M377.5,10.4C374.6,9.9,382.1,11,377.5,10.4L377.5,10.4z
		 M399.2,10.5c-3.5-0.5,18.3-1.4,21.9-0.9C424.6,10.1,402.7,11,399.2,10.5z M435.3,10.6c11.6,1.6,74.3-2.4,86.9-0.6
		C516.3,9.2,455.9,13.5,435.3,10.6z M539.7,12.5c-2.3,0.2-5.6,0.5-9.3,0.7c-7.4,0.4-16.6,0.6-23.5-0.4c0,0,8.1-0.3,16.7-0.6
		c8.6-0.3,17.7-0.5,19.6-0.2C543.4,12.1,542,12.2,539.7,12.5z M759.1,15.9c-3.3-0.5,12.7-1.2,14.7-0.9
		C777.1,15.4,761.1,16.1,759.1,15.9z M799.8,12.6c-2.3,0.2-5.6,0.5-9.3,0.7c-7.4,0.4-16.6,0.6-23.5-0.4c0,0,8.1-0.3,16.7-0.6
		c8.6-0.3,17.7-0.5,19.6-0.2C803.5,12.2,802.1,12.4,799.8,12.6z M810.4,13.2C807.4,12.8,815,13.8,810.4,13.2L810.4,13.2z
		 M839.5,12.4c-3.3-0.5,12.7-1.2,14.7-0.9C857.5,11.9,841.4,12.6,839.5,12.4z M853.2,15.3c1.1-0.1,15.6-1.8,21.9-0.9
		C883.9,15.7,835.4,17.5,853.2,15.3z M904.4,12.6L904.4,12.6c0.6,0.1,1.4,0.2,1.5,0.2C905.9,12.8,905.4,12.8,904.4,12.6z M911,15.5
		c-3.5-0.5,18.3-1.4,21.9-0.9C936.4,15.2,914.5,16.1,911,15.5z M1057.3,18.5c2.1-0.1,7.8-0.2,12.7-0.3c-0.2,0-0.5,0-0.7,0
		C1062.5,18.4,1058.9,18.5,1057.3,18.5z M947,15.7c5,0.7,142.6-2.6,159-0.3C1098.7,14.4,968.4,18.7,947,15.7z M1170.3,18.6
		c-0.5,0-12.5,0.1-26.4,0.2c-13.9,0-28.6,0-31.4-0.4C1103.7,17.1,1228.4,17.9,1170.3,18.6z M1206.4,18.7c-3.3-0.5,12.8-1.2,14.7-0.9
		C1224.4,18.3,1208.4,19,1206.4,18.7z"/>
</g>
</svg>
