<?xml version="1.0" encoding="utf-8"?>
<!-- Generator: Adobe Illustrator 22.0.0, SVG Export Plug-In . SVG Version: 6.00 Build 0)  -->
<svg version="1.1" id="Layer_1" xmlns="http://www.w3.org/2000/svg" xmlns:xlink="http://www.w3.org/1999/xlink" x="0px" y="0px"
	 viewBox="0 0 1600 31.5" style="enable-background:new 0 0 1600 31.5;" xml:space="preserve">
<style type="text/css">
	.st0{fill:#FCF8EF;}
</style>
<path class="st0" d="M862.3,3.4c1.9,0.3,18-0.4,14.7-0.9C875.1,2.2,859,2.9,862.3,3.4z"/>
<path class="st0" d="M637.7,5.3C642.3,6,634.8,4.9,637.7,5.3L637.7,5.3z"/>
<path class="st0" d="M984.3,6.8C988.9,7.5,981.4,6.4,984.3,6.8L984.3,6.8z"/>
<path class="st0" d="M1289.5,8.4c3.7-0.2,7-0.5,9.3-0.7s3.7-0.4,3.6-0.4c-1.9-0.3-11-0.1-19.6,0.2C1274.1,7.7,1266,8,1266,8
	C1272.9,9,1282.1,8.8,1289.5,8.4z"/>
<path class="st0" d="M1309.3,8.2c1.7,0.2,18.8,0.1,21.7,0.1C1396.2,8.2,1300.3,6.9,1309.3,8.2z"/>
<path class="st0" d="M1374.3,8.5C1378.9,9.2,1371.4,8.1,1374.3,8.5L1374.3,8.5z"/>
<path class="st0" d="M1208,8.7c1.9,0.3,18-0.4,14.7-0.9C1220.7,7.6,1204.7,8.3,1208,8.7z"/>
<path class="st0" d="M319.9,5.8c1.9,0.3,18-0.4,14.7-0.9C332.7,4.7,316.6,5.4,319.9,5.8z"/>
<path class="st0" d="M810.8,7c0,0-0.7-0.1-2-0.1s-3.1,0-5.3,0.1c-4.3,0.1-10.1,0.2-15.8,0.4c-11.3,0.3-22.3,0.6-20.6,0.4
	C734,10.9,810.2,8.6,810.8,7z"/>
<path class="st0" d="M825,8c1.9,0.3,18-0.4,14.7-0.9C837.8,6.9,821.7,7.6,825,8z"/>
<path class="st0" d="M877.4,8.5c3.7-0.2,7-0.5,9.3-0.7s3.7-0.4,3.6-0.4c-1.9-0.3-11-0.1-19.6,0.2C862.1,7.9,854,8.2,854,8.2
	C860.8,9.1,870,9,877.4,8.5z"/>
<path class="st0" d="M919.1,7.5c-3.6-0.5-25.4,0.4-21.9,0.9C900.8,8.9,922.7,8,919.1,7.5z"/>
<path class="st0" d="M102.7,5.9c1.9,0.3,18-0.4,14.7-0.9C115.5,4.7,99.4,5.4,102.7,5.9z"/>
<path class="st0" d="M124.4,6c3.6,0.5,25.5-0.4,21.9-0.9C142.8,4.6,120.9,5.5,124.4,6z"/>
<path class="st0" d="M1157,10.4c-4.6-0.7-32.8,0.3-29.1,0.8C1132.5,11.9,1160.6,11,1157,10.4z"/>
<path class="st0" d="M1264.8,12.8C1269.4,13.5,1261.9,12.4,1264.8,12.8L1264.8,12.8z"/>
<path class="st0" d="M1423.7,13.5c1.9,0.3,5.1,0.4,9.1,0.4C1428.4,13.9,1425.2,13.7,1423.7,13.5z"/>
<path class="st0" d="M1475.1,13.9c11.2-0.1,22.1-0.3,30-0.5c8-0.2,13-0.3,12.7-0.4c-11.9-1.7-62.3,1.2-85,1
	C1443,14.2,1459.4,14.1,1475.1,13.9z"/>
<path class="st0" d="M1372.7,15.2c1.7,0.2,18.8,0.1,21.7,0.1C1459.6,15.2,1363.6,13.9,1372.7,15.2z"/>
<path class="st0" d="M1545.8,16.9c-3.6-0.5-25.4,0.4-21.9,0.9S1549.3,17.4,1545.8,16.9z"/>
<path class="st0" d="M632.2,1.4C563.4,1.2,518,1.8,509,1.8c-172,0-322.1-0.1-470.5-0.1c-9.6,0-19.1,0-28.6,0h-10V4h10
	c246.8,0.1,470.3,1.1,708.7-1.3C835,1.6,701.3,1.6,632.2,1.4z"/>
<path class="st0" d="M1578.5,20c-3.2-0.1-6.8-0.1-10.9-0.2c-41.9-0.6-59.3-0.9-71-1.1c-0.2,0-0.5-0.1-1-0.1c-1.7-0.2,0,0,1,0.1
	c-11.7-0.2-17.7-0.2-37.1-0.3c7.1,0,18.9,0.7,7,1c-45.4,1.1-91.1-2.1-122.2-2.4c-98.9-1-265.2-0.1-216.6-0.9
	c25.5-0.5,205.3,0.9,217-1c-6.6,1-96.5-1.2-158.5-1.6c-48.4-0.3-96.7,0.6-137.4,0.4c-50-0.2-100.1-1.9-143.9-2.5
	c-70.5-1-169.9-1.6-180.9,1.1c3.2-0.8,24.7,1,21.4,1.1c-45.4,0.3-20.7-1.5-42.8-2.1c-17.1-0.5-60.9-0.3-93.8-0.4
	c-23.5-0.1-86.1-0.7-71.9-1.3c34.1-1.5,77.2,0.5,101.1,0.4c21.2-0.1,98.5-1,72.7-1.6C653.9,7.2,608.6,7,595.2,7
	c-68.9-0.1-162.3,0.7-253.1,0.8C236.9,8,121.6,8.1,11.4,8.3h-10V32h1597.3V20H1578.5z M52.2,11.4c-3.3-0.5,12.7-1.2,14.7-0.9
	C70.2,10.9,54.1,11.6,52.2,11.4z M282.9,10.9c-4.9,0.2-11.5,0.5-18.7,0.8c-14.3,0.5-30.6,0.6-38.5-0.5c7.1,1,55.8-2,65.2-0.7
	C290.9,10.5,287.8,10.7,282.9,10.9z M297.9,11.5c-3.5-0.5,18.3-1.4,21.9-0.9C323.3,11.1,301.4,12,297.9,11.5z M326.8,11.6
	c-3.7-0.5,24.5-1.5,29.1-0.8C359.5,11.3,331.4,12.3,326.8,11.6z M377.5,10.9C374.6,10.4,382.1,11.5,377.5,10.9L377.5,10.9z
	 M399.2,11c-3.5-0.5,18.3-1.4,21.9-0.9C424.6,10.6,402.7,11.5,399.2,11z M435.3,11.1c11.6,1.6,74.3-2.4,86.9-0.6
	C516.3,9.7,455.9,14,435.3,11.1z M539.7,13c-2.3,0.2-5.6,0.5-9.3,0.7c-7.4,0.4-16.6,0.6-23.5-0.4c0,0,8.1-0.3,16.7-0.6
	c8.6-0.3,17.7-0.5,19.6-0.2C543.4,12.6,542,12.7,539.7,13z M759.1,16.4c-3.3-0.5,12.7-1.2,14.7-0.9
	C777.1,15.9,761.1,16.6,759.1,16.4z M799.8,13.1c-2.3,0.2-5.6,0.5-9.3,0.7c-7.4,0.4-16.6,0.6-23.5-0.4c0,0,8.1-0.3,16.7-0.6
	c8.6-0.3,17.7-0.5,19.6-0.2C803.5,12.7,802.1,12.9,799.8,13.1z M810.4,13.7C807.4,13.3,815,14.3,810.4,13.7L810.4,13.7z M839.5,12.9
	c-3.3-0.5,12.7-1.2,14.7-0.9C857.5,12.4,841.4,13.1,839.5,12.9z M853.2,15.8c1.1-0.1,15.6-1.8,21.9-0.9
	C883.9,16.2,835.4,18,853.2,15.8z M904.4,13.1c-0.4-0.1-0.7-0.1-0.7-0.1c0.1,0,2,0.3,2.2,0.3C905.9,13.3,905.4,13.3,904.4,13.1z
	 M911,16c-3.5-0.5,18.3-1.4,21.9-0.9C936.4,15.7,914.5,16.6,911,16z M1040.4,18.5C1037.5,18.1,1045,19.2,1040.4,18.5L1040.4,18.5z
	 M1056.5,19C1056.3,19,1056.3,19,1056.5,19L1056.5,19z M1069.3,18.7c-6.8,0.2-10.4,0.3-12,0.3c2.6-0.1,10.4-0.3,15.6-0.4
	C1071.9,18.6,1070.7,18.6,1069.3,18.7z M947,16.2c5,0.7,142.6-2.6,159-0.3C1098.7,14.9,968.4,19.2,947,16.2z M1170.3,19.1
	c-0.5,0-12.5,0.1-26.4,0.2c-13.9,0-28.6,0-31.4-0.4C1103.7,17.6,1228.4,18.4,1170.3,19.1z M1206.4,19.2c-3.3-0.5,12.8-1.2,14.7-0.9
	C1224.4,18.8,1208.4,19.5,1206.4,19.2z"/>
</svg>
