<?xml version="1.0" encoding="utf-8"?>
<!-- Generator: Adobe Illustrator 22.0.0, SVG Export Plug-In . SVG Version: 6.00 Build 0)  -->
<svg version="1.1" id="Layer_1" xmlns="http://www.w3.org/2000/svg" xmlns:xlink="http://www.w3.org/1999/xlink" x="0px" y="0px"
	 viewBox="0 0 1269.1 401.3" style="enable-background:new 0 0 1269.1 401.3;" xml:space="preserve">
<style type="text/css">
	.st0{fill-rule:evenodd;clip-rule:evenodd;fill:#F6FAFC;}
</style>
<g>
	<g>
		<path class="st0" d="M1267,79.3c-0.1-0.5-0.2-0.6-0.3-0.1c-0.1,0.5-0.1,2.5,0.1,4.6c0,5,0.1,13.2,0.1,15.1
			c0.3,26.7,0.7,12.9,0.7-1.5c0.1,1.1,0.3,1.6,0.4,1.1C1268.6,95.3,1267.5,77.1,1267,79.3z M1267.7,74.6c1.4-6.2-1.9-38.3-0.9-43
			c-1.1,5.2-0.9,15.9-0.4,25.4c0.2,4.7,0.6,9.1,0.8,12.3C1267.5,72.5,1267.7,74.6,1267.7,74.6z M1261.4,162.4
			c-0.2,0.9-0.4,20.2-0.6,42.7c-0.2-15.5-0.4-29-0.4-29c-0.9,4.1-0.7,60.2-0.4,65.3c0.2,2.2,0.3,4.2,0.5,5.8
			c-0.1,17.7,0,30.8,0.2,29.8C1261.2,274.8,1262,159.7,1261.4,162.4z M1258.6,372c-0.3,1.4-0.2,16.2-0.2,18.9
			C1258.3,435.6,1259.4,367.6,1258.6,372z M1036.6,2.2c-0.2-0.1,2.2-0.1,6.4-0.1c4.2,0,10.2-0.1,17.3-0.1
			c14.2-0.1,13.6-0.1,30.5-0.2c33.7-0.2,60.8-0.6,34-1.6c-26.3-1-35.6-0.6-60.6,0C1033.1,0.9,1028.1-1,1036.6,2.2z M1244.1-0.8
			c-37.5,0-58.8,0.5-72.8,1c-36.2,1.4,43.4,1,42,1c8.4,0,17.4,0.1,30.8,0.1l9.8,0l0,9.7c-0.4,84.8-1.4,39.8-2.1,113
			c-0.4,43.4,0.6,27.5-1.3,33.4c0-0.3,0.1-37.8,0.1-64.4c-0.4,6.5-0.7,12.9-0.8,16.5c-0.4,21.2,1-63.9,0.8-37.1c0,4.7,0,12.1,0,20.6
			c0.6-9.5,1.2-19.1,1.2-20.6c0-1.4,0-2.5,0-3.4c-0.5-20.5-1.8-43.5-0.7-57.9l0.5-6.5l-7.4-0.5c-2.9-0.2-5.4-0.5-7.5-0.9
			c-24.7,0.5-86.1,1-153.8,1c-222.3,0-791.4,1.6-994.9,3c-26.3,0.2-52.8-0.1-79-0.4L4.6,6.7L4.6,11C3.9,59.7,3,60.5,4,104
			C4.2,115.6,5.9,34,6,45.6C6.5,97.5,6.4,113.1,6,167c-0.8,101.6,0.7-88.2,1,47.3C7,251.5,4.7,334.8,6,356.7
			c0.9,15.7,2-16.8,2.9,13.9v7.4c-0.4-2.4-1.3-14.8-1.9-11.9c-1.4,7.2-0.1,17.6,1.3,25.8l0.1,0.7l0.5-0.1c1.3-0.2,2.5-0.4,3.7-0.6
			h21.1c-6.6,0.2-12.6,0.5-18,0.9c-7.7,0.6,8.6,1.1,4.7,1c24.6,0.4,42.7,0,65.4,0c44.5-0.1,259.7,1,293.8,1.6
			c34,0.7,156.9,0.9,195.9-0.7c20.2-0.8-141-0.9-151-0.9c-57.1-0.4,102-1.1,136.4-1c56.2,0.3,146.9,0.5,209,0.9
			c82.6,0.2,189.5,1-110.4,1c-41.7,0,97.4,0.6,115.8,0.9c2.6,0,88.5-0.1,92.1-0.1c11-0.2,23.8-0.1,37-0.1c-16.6,0.5-30.8,1.2-31.9,1
			c4.8,0.8,25.5,0.5,45.1,0c9.8-0.3,43.3-0.5,50.5-0.8c7.1-0.2,11.9-0.4,12.1-0.3c-0.2,0-0.4,0-0.5-0.1c8.8-0.1,16.8-0.4,23.4-0.8
			c14.8-0.9-22.7-0.8-23.9-0.8c-81,0.1-287.8-1.2-354.9-1.6h378.3c1.6,0.1,4,0.1,6.7,0h26.3c0.7,0,1.6,0,2.6,0h206V381
			c0.2,0.5,0.4,0.9,0.6,1.3c1.2,2.4,6.2,12,7.1,7c1.8-9.7,2.1-92.4,1.8-137.2c-0.1-21-0.5-70.9-0.7-105.2c-0.2-0.1-0.5-5.7-0.6-8.8
			c0,5.2,0,11.2,0,18.1c-0.1,41.7-0.2,37.9-0.3,7.5c0-28.9,0.1-29.8,0.3-25.6c0.1-44.8,0.3-26.2,0.6,8.8c0.3,0.1,0.6-8,1-38.7
			c1-91.9,2.1-11.4,2.1-95.3V11l0-11.9L1244.1-0.8z M7,48.5C7.6,45.4,6.6,50.4,7,48.5L7,48.5z M7,68.9c-0.6,2.6,1-13.7,1-13.7
			C9,50.5,8.7,81.7,8.2,77c-0.2-2.3-0.6-4.4-0.8-5.9C7.2,69.7,7,68.8,7,68.9z M8.1,82.6c0,0.1-0.1,0.3-0.1,0.6c0,0.1,0,0.1,0,0.2
			C8,83.1,8,82.8,8.1,82.6z M8,293.5c-0.3,1.3,0.1-0.4,0.2-0.9C8.1,292.7,8.1,293,8,293.5z M8.9,165.9c-0.1-0.8-0.1-0.9-0.2-0.5
			c-0.1,9.1-0.1,18.5-0.2,18.1c-0.1-0.8-0.2-1.3-0.3-1.7c0.2,14.1,0.5,27.1,0.8,34.9v6.7c0-0.1,0-0.3,0-0.4c0,1.5,0,3.2,0,5v14.9
			c-0.2-20-0.4-9.3-0.5,6.2c0.2,8,0.3,14.9,0.5,20v15.2c-0.4-1.5-0.5-20.5-0.5-35.2c-0.9-43.5-2.2-121-0.4-129.2c-0.4,2-0.3,29,0,55
			c0.2-3.9,0.4-8.3,0.6-9.4c0.1-8.5,0.1-16.7,0.2-16.2V165.9z M98.1,10.5c0.7-0.3,1.8-0.5,3.8-0.4c-1-0.1,3.4,0.3,9.9,0.9H97.3
			C97.4,10.9,97.7,10.7,98.1,10.5z M387.1,393.7c-23.2,0.3-239.6-0.8-275.9-1.5c-5.4-0.1-10.7-0.2-16-0.3h301.4
			C394.1,392.6,394.9,393.6,387.1,393.7z M390.7,11c2.7-0.1,5.2-0.1,6.7,0H390.7z M559.1,11c34.2-1.1,167.8-0.3,212.6,0H559.1z
			 M1176.2,11h-105.6c26.2-0.7,85.3-4.2,124.1-0.9C1197.2,10.4,1181.3,10.8,1176.2,11z M1218.1,11h-5c-0.3-0.5,8.4-1.1,9.6-0.9
			C1223.9,10.4,1221,10.8,1218.1,11z M1251.3,225.9c-0.1,0.3-0.1-0.5-0.2-2.2c-0.2,19.8-0.5,41.1-0.7,50c1.1,2.6,0.1,3.2-0.1,4.1
			c0,0.1,0,0.2,0,0.1c0,0,0-0.1,0-0.1c0-0.5,0.1-1.9,0.1-4.1c0-0.1-0.1-0.2-0.1-0.3c-1.2-2.8-1.6-70.4,0.1-87.6
			c-0.1-7.7-0.1-13.7,0.1-14.4c0.1-0.7,0.3,4,0.5,10.8c0-0.1,0.1-0.1,0.1-0.2c0.2-0.4,0.3,7,0.3,17.9
			C1251.5,212.6,1251.6,224.9,1251.3,225.9z M1251.9,53.1c0,19.7,0,7.6-0.1,15.9c0.1,3.3,0.1,6.5,0.1,9.5
			C1252.2,110.1,1252.3,6.4,1251.9,53.1z M1251,182.2c-0.2,0.6-0.4,1.8-0.6,3.6c0.1,13.2,0.5,31.6,0.8,37.9
			c0.1-8.6,0.2-16.9,0.2-23.8C1251.2,193.7,1251.1,187.3,1251,182.2z M8.8,222.9C8.4,184.2,7.9,214.1,8.8,222.9L8.8,222.9z
			 M1250.3,259.3C1250.7,257.5,1249.7,262.1,1250.3,259.3L1250.3,259.3z M8,181.2c0,0,0.1,0.2,0.1,0.5c0-2.3-0.1-4.6-0.1-6.9
			C7.8,178.7,7.8,182.1,8,181.2z M1250.4,230.5C1250.4,230.5,1250.4,230.5,1250.4,230.5c0,0.2-0.1,0.4-0.1,0.6
			C1250.3,231,1250.3,230.8,1250.4,230.5z M762.1,0.2c-4.3-0.9-11.3-0.7-17.2-0.2c-3,0.2-5.6,0.5-7.6,0.8c-1,0.1-1.8,0.2-2.3,0.3
			c-0.6,0.1-0.9,0.1-0.9,0.1C733,3,772.5,2.4,762.1,0.2z M862.8,1.6c4.5,0.2,9.1,0.5,9.9,0.5c35.2,0.9,111.1,0.3,135.9,0
			c-8.5,0.1,30.3-1.1,18.6-2c-10-0.8-71.3-0.7-106.1-0.3c-17.4,0.3-34.2,0.5-46.6,0.7c-6.2,0.1-11.3,0.3-14.9,0.3
			C857.9,1,806.5,1,805.5,1.1c-0.5,0-0.8,0-1.1,0.1c-0.2,0-0.4,0-0.4,0c0,0,51.1,0,52.7,0.1C858.4,1.4,860.6,1.5,862.8,1.6z
			 M987.5,399.5c-1.9-0.3-16,0-18.8,0.1C912,400.1,994.4,400.6,987.5,399.5z M64.6,2.2c93.4-0.5-14.8-3.3-28,0
			C34.4,2.7,58.1,2.2,64.6,2.2z M115.9,2.2C144.1,4.6,145.6-1.4,115.9,2.2L115.9,2.2z M393.8,2.2c4,0.9,144.4,0,145.9,0
			C605.8,1.7,384.2,0.1,393.8,2.2z M586.3,2.2c1.3,0.3,11.5-0.5,9.3-1C594.3,0.9,584.1,1.7,586.3,2.2z M615.5,2.4
			c2.3-0.2,4.4-0.6,5.9-0.8c1.5-0.3,2.3-0.4,2.2-0.5c-2.6-0.6-23.3,1-23.3,1C604.9,3.2,610.8,2.9,615.5,2.4z M646.9,1.2
			c-2.4-0.5-16.3,0.5-14,1C635.3,2.7,649.2,1.7,646.9,1.2z M791,399c-51.7,0.9,115.3,1.3,106.3-0.2C893.7,398.2,792.9,399,791,399z
			 M1,25c0,0.1-0.1,0.2-0.1,0.3c0-0.1,0-0.1,0-0.2C1,25.1,1,25.1,1,25z M1.1,24.4C1.2,24.1,1.2,24.2,1.1,24.4L1.1,24.4z M351.8,2.2
			c-2.4-0.5-16.3,0.5-14,1C340.2,3.7,354.2,2.7,351.8,2.2z M365.8,3.2c1.3,0.3,11.5-0.5,9.3-1C373.8,1.9,363.6,2.7,365.8,3.2z
			 M384.4,3.2c-0.2,0-0.4-0.1-0.4-0.1C384.3,3.1,386.8,3.7,384.4,3.2z M1204,2.2c-2.4-0.5-16.3,0.5-14,1
			C1192.4,3.7,1206.4,2.7,1204,2.2z M1252,3.5l-0.1,7.5c-0.5,31.1,2.3,19.4,0.9,0l-0.7-9.2l-8,0.6c-2.4,0.2-4.9,0.4-7.5,0.7
			c2.7,0.1,5.2,0.1,7.5,0.2L1252,3.5z M637.5,398.3c0.1,0,0.1,0,0.2,0C637.5,398.4,637.5,398.3,637.5,398.3
			C637.4,398.3,637.4,398.3,637.5,398.3z M637.8,398.4C638,398.4,638,398.4,637.8,398.4L637.8,398.4z M637.2,398.3
			c-0.3-0.1-0.5-0.1-0.7-0.1C636.6,398.2,636.8,398.2,637.2,398.3z M585.9,398.4c-42.2,0.5,20.5,1.2,14.1,0
			C598.7,398.2,587.7,398.4,585.9,398.4z M2,105.9c0.1-0.3,0.1-0.9,0-1.7c0.1-0.7,0.3-1.4,0,0c-0.1-3.2-0.7-9.4-1-7.6
			C0.7,97.8,1.5,108.1,2,105.9z M1,148.3c-2.1,9.8,0.6,22.6,1,23.3C3,173.2,2.5,141,1,148.3z M2,36.3C1.6,38.2,2.6,33.2,2,36.3
			L2,36.3z M1080,397.3c3.5,0.5,20.9-0.5,18.1-0.9C1094.6,396,1077.2,396.9,1080,397.3z M3,73.3C3.6,70.2,2.6,75.2,3,73.3L3,73.3z
			 M2,115.7c-0.5,2.4,0.5,16.3,1,14C3.5,127.3,2.5,113.4,2,115.7z M1046.3,395.9c-2.1-0.3-11.6-0.3-20.5-0.2
			c-8.9,0.2-16.6,0.3-16.9,0.3C971.9,396.9,1053,396.9,1046.3,395.9z M3.9,302.9c0-0.1,0-0.2,0.1-0.3c0,0,0,0.1,0,0.1
			C4,302.8,4,302.9,3.9,302.9z M4.1,302.3C4.2,301.8,4.1,279.9,4.1,302.3L4.1,302.3z M1246.2,394.5c0.1,0,0.2,0,0.3,0
			c0,0-0.1,0-0.1,0C1246.3,394.6,1246.3,394.6,1246.2,394.5z M1245.6,394.5c-0.1,0-0.2,0-0.3,0
			C1245.4,394.4,1245.5,394.4,1245.6,394.5z M1171,394c-41.9,0.4,20.9,0.9,14,0C1183.7,393.8,1172.8,394,1171,394z M1041.1,395
			c3.5,0.5,20.9-0.4,18.1-0.9C1055.8,393.6,1038.4,394.6,1041.1,395z M636.2,394.6C636.2,394.6,636.2,394.6,636.2,394.6
			c0,0-0.1,0-0.2,0C636.1,394.5,636.1,394.5,636.2,394.6z M636,394.5c-0.3-0.1-0.6-0.1-0.7-0.1C635.5,394.4,635.8,394.5,636,394.5z
			 M613.1,395.5c1.4,0.3,11.4-0.5,9.1-1C620.8,394.3,610.8,395.1,613.1,395.5z M598,394.4c0.4,0.1,1.2,0.2,1.3,0.3
			c-0.1,0-0.2,0-0.5-0.1C598.4,394.5,598.1,394.5,598,394.4z M1081.7,393.3c-1.5-0.2-11.2,0.4-8.7,0.8
			C1074.4,394.4,1084.2,393.7,1081.7,393.3z"/>
	</g>
</g>
</svg>
