<?xml version="1.0" encoding="utf-8"?>
<!-- Generator: Adobe Illustrator 22.0.0, SVG Export Plug-In . SVG Version: 6.00 Build 0)  -->
<svg version="1.1" id="Layer_1" xmlns="http://www.w3.org/2000/svg" xmlns:xlink="http://www.w3.org/1999/xlink" x="0px" y="0px"
	 viewBox="0 0 1600 23.7" style="enable-background:new 0 0 1600 23.7;" xml:space="preserve">
<style type="text/css">
	.st0{fill:#FCF8EF;}
</style>
<path class="st0" d="M707.4,4.9c5.8,1.1,74.3-0.1,76.6-0.2C860.6,3.4,699.6,3.4,707.4,4.9z"/>
<path class="st0" d="M637.8,5c1.8,0.3,18.2,0,20.9-0.1C721.4,4.3,628.6,3.3,637.8,5z"/>
<path class="st0" d="M269.4,4.5c2.5,0.5,23.9,0,27.8-0.1C362.5,3.4,261.6,3,269.4,4.5z"/>
<path class="st0" d="M541,5.2c4.7,0.9,65.6-0.7,61.9-1.4C598.2,2.9,537.3,4.5,541,5.2z"/>
<path class="st0" d="M686.5,4.9c1.9,0.4,17.2-0.7,13.8-1.4C698.4,3.2,683.2,4.3,686.5,4.9z"/>
<path class="st0" d="M450.3,2.7c-4.7-0.9-31.5,0.7-27.8,1.4C427.2,5,454,3.4,450.3,2.7z"/>
<path class="st0" d="M1600,4.3c-47.6-0.2-112,1.2-174.6,0.9c-88-0.4-193.1-2.5-257.7-0.7c-11.6,0.3-4.7,2.9-20.7,2.8
	c-11.5-0.1-79-3.2-98.5-3.7C941.5,1,803.7,6.4,700.6,7.1C590.1,8,397.7,6.3,262.5,5.4c-52.3-0.3-233.7-0.9-69.8-2.6
	C310,1.6,135.9,0.4,111,0.3C66.9-0.1,31-0.1,0,0.2v2c38.8-1.1,88.1-2.3,97.2-0.6C93.1,0.9,41.3,3.3,0,4.2V24h1600V6.2
	c-0.2,0-0.3-0.1-0.4-0.1c0.1,0,0.3,0.1,0.4,0.1V4.3z M1230.7,8.4c-3.3-0.6,11.9-1.8,13.8-1.4C1247.8,7.6,1232.6,8.8,1230.7,8.4z
	 M1523.1,7.7c-2-0.4,0.8,0.1,1.4,0.3C1524.3,7.9,1523.9,7.8,1523.1,7.7z M1530.8,19.9c-3.6-0.7,17.2-2.1,20.8-1.4
	C1555.2,19.2,1534.4,20.6,1530.8,19.9z M1571.8,7.6c-3.5-0.7,17.2-2.1,20.8-1.4C1596.2,6.8,1575.4,8.2,1571.8,7.6z M1593.5,19.8
	C1590.5,19.2,1598.1,20.7,1593.5,19.8L1593.5,19.8z"/>
</svg>
