<?xml version="1.0" encoding="utf-8"?>
<!-- Generator: Adobe Illustrator 22.0.0, SVG Export Plug-In . SVG Version: 6.00 Build 0)  -->
<svg version="1.1" id="Layer_1" xmlns="http://www.w3.org/2000/svg" xmlns:xlink="http://www.w3.org/1999/xlink" x="0px" y="0px"
	 viewBox="0 0 1600 23.7" style="enable-background:new 0 0 1600 23.7;" xml:space="preserve">
<style type="text/css">
	.st0{fill:#FCF8EF;}
</style>
<path class="st0" d="M0,13.2c32.4,0.2,82.1,0.8,97.8,0.9c47,0.5,150.4,0.4,225.8,0.2c75.3-0.2,148.3-0.5,186.2-0.5
	c-2.4,0,18.4,2.3,21.5,1.2c-4.8,1.8-66.3,2.5-130.9,2.7c-64.6,0.2-132.2-0.1-149.5-0.1C176.9,17.3,71.3,16.3,0,14.4v5.3
	c36.4,0.4,70.9,0.7,101.2,1c108.8,1,240.5,1.3,340.6-0.1c146.3-2,342.4-3.2,489.5-5.3c73.4-1,234.7-0.1,336.8-0.7
	c102.1-0.6,194.5-1.6,229.2-4c8.7-0.6-39.7-2.4-37.8-2.8c2.3-0.5,29.9-0.2,34.9-0.2c33.2-0.2,162-1.8,75.8-1.4
	c-56.2,0.3-79.7-1.2-2-1.9c16.2-0.2,26.3-0.3,31.8-0.4V3.5c-24.7-0.4-132.6-0.6-125.3-1.9c4.6-0.8,81.6-0.2,83.5-0.3
	c17.2-0.1,31.1-0.3,41.7-0.6V0H0V13.2z M1285,8.8c0.3,0,0.4,0.1,0.6,0.1c0.1,0,0.2,0,0.2,0c0,0-0.1,0-0.2,0c-0.5-0.1-2-0.3-2.2-0.3
	C1283.4,8.6,1283.9,8.6,1285,8.8z M1012.1,9c-0.1,0-0.2,0-0.4-0.1c0,0,0,0-0.1,0C1011.8,9,1012,9,1012.1,9z M983.7,9.1
	c4.1,0.6-22.1,2.1-27.2,1.3C952.5,9.8,978.6,8.3,983.7,9.1z M893.5,10.7C896.7,11.2,888.5,10,893.5,10.7L893.5,10.7z M837.5,11.1
	c2.7,0,19.1-0.4,21-0.1C868.4,12.4,774.6,11.9,837.5,11.1z M691,13.1c6.2-0.1,97.6-1.7,105.1-0.6c6.6,1-44.5,1.5-84.9,1.6
	C670.9,14.1,641.4,13.7,691,13.1z M642.5,14.6c3.6,0.6-11.4,1.7-13.5,1.3C625.4,15.3,640.4,14.2,642.5,14.6z M559.3,14.8
	C562.5,15.3,554.4,14,559.3,14.8L559.3,14.8z"/>
</svg>
