<?xml version="1.0" encoding="utf-8"?>
<!-- Generator: Adobe Illustrator 22.0.0, SVG Export Plug-In . SVG Version: 6.00 Build 0)  -->
<svg version="1.1" id="Layer_1" xmlns="http://www.w3.org/2000/svg" xmlns:xlink="http://www.w3.org/1999/xlink" x="0px" y="0px"
	 viewBox="0 0 874.8 741.9" style="enable-background:new 0 0 874.8 741.9;" xml:space="preserve">
<style type="text/css">
	.st0{fill-rule:evenodd;clip-rule:evenodd;fill:#F6FAFC;}
</style>
<g>
	<g>
		<path class="st0" d="M873.3,99.8c0.7-3.1-0.4-21.5-1-19.1C871.6,83.8,872.8,102.2,873.3,99.8z M872.2,128.2
			c-0.4,1.7-0.1,16.3,0,19C872.8,191.9,873.4,123,872.2,128.2z M872.1,171c-1.1,5.2-0.9,15.9-0.4,25.4c0.2,4.7,0.6,9.1,0.8,12.3
			c0.3,3.2,0.4,5.3,0.4,5.3C874.3,207.7,871.1,175.6,872.1,171z M872,218.5c-0.3,1.3,0.5,11.9,0.9,9.7
			C873.2,226.9,872.5,216.4,872,218.5z M866.1,510.3c-0.6,2.8,0.2,21.7,0.6,19.5C867.3,527,866.6,508.1,866.1,510.3z M865.4,558.7
			c0.2,2.5,0.4,4.8,0.6,6.4c0.2,1.6,0.3,2.6,0.3,2.5c0.5-2.3-0.6-24.2-0.6-24.2C864.9,547.5,865,553.6,865.4,558.7z M863.9,713.4
			c-0.3,1.4-0.2,16.2-0.2,18.9C863.6,776.9,864.8,708.9,863.9,713.4z M641.9,3.5c-0.2-0.1,2.2-0.1,6.4-0.1c4.2,0,10.2-0.1,17.3-0.1
			c14.2-0.1,13.6-0.1,30.5-0.2c33.7-0.2,60.8-0.6,34-1.6c-26.3-1-35.6-0.6-60.6,0C638.4,2.2,633.4,0.4,641.9,3.5z M855.6,511.4
			c0,0,0-0.1,0-0.1C855.6,511.1,855.6,511.2,855.6,511.4z M861.3,0.5l-11.9,0c-37.5,0-58.8,0.5-72.8,1c-36.2,1.4,43.4,1,42,1
			c8.4,0,17.4,0.1,30.8,0.1l9.8,0l0,9.7c-0.4,84.8-1.4,214.8-2.1,288c-0.4,43.4,0.6,134.5-1.3,140.4c0-0.4,0.1-55.5,0.2-75
			c0.1-26.9-1.2-58.8-0.8-79.9c0.2-8.9,2-34.6,2-37.1c0-14.6,0-34.5,0.1-56.3c0.4-46.6,0.3-80.9,0.1-112.6
			c-0.2-22.6-2.1-50.8-0.9-67.5l0.5-6.5l-7.4-0.5c-2.9-0.2-5.4-0.5-7.5-0.9c-24.7,0.5-86.1,1-153.8,1c-222.3,0-397.4,1.6-600.9,3
			C61,8.7,34.5,8.4,8.2,8.1L4,8l-0.1,4.3C3.3,61,2.3,108.8,3.3,152.3c0.3,11.6,1.9,21.1,2,32.6c0.5,51.9,0.4,104.5,0,158.4
			c-0.8,101.6,0.7,116.8,1,252.3c0.1,37.3-2.3,80.6-1,102.5c0.9,15.7,2-16.8,2.9,13.9v7.4c-0.4-2.4-1.3-14.8-1.9-11.9
			c-1.4,7.2-0.1,17.6,1.3,25.8l0.1,0.7l0.5-0.1c1.3-0.2,2.5-0.4,3.7-0.6H33c-6.6,0.2-12.6,0.5-18,0.9c-7.7,0.6,8.6,1.1,4.7,1
			c24.6,0.4,42.7,0,65.4,0c44.5-0.1,79.7,1,113.8,1.6c34,0.7,66.9,0.9,105.9-0.7c20.2-0.8-51-0.9-61-0.9c-57.1-0.4,12-1.1,46.4-1
			c56.2,0.3,96.9,0.5,159,0.9c82.6,0.2-25.1,0-60.4,1c-41.7,1.2,47.4,0.6,65.8,0.9c2.6,0,38.5-0.1,42.1-0.1c11-0.2,23.8-0.1,37-0.1
			c-16.6,0.5-30.8,1.2-31.9,1c4.8,0.8,25.5,0.5,45.1,0c9.8-0.3,19.3-0.5,26.5-0.8c7.1-0.2,11.9-0.4,12.1-0.3c-0.2,0-0.4,0-0.5-0.1
			c8.8-0.1,16.8-0.4,23.4-0.8c14.8-0.9-22.7-0.8-23.9-0.8c-81,0.1-163.8-1.2-230.9-1.6H608c1.6,0.1,4,0.1,6.7,0h26.3
			c0.7,0,1.6,0,2.6,0h206v-10.9c0.2,0.5,0.4,0.9,0.6,1.3c1.2,2.4,6.2,12,7.1,7c1.8-9.7,2.1-52.4,1.8-97.2
			c-0.3-44.8-1.4-236-1.4-109.9c-0.1,41.7-0.2,37.9-0.3,7.5c-0.1-74.4,0.9-154.6,1.9-246.5c1-91.9,2.1-186.4,2.1-270.3
			c0-0.8,0-1.5,0-1.8L861.3,0.5z M6.3,49.8C5.9,51.8,7,46.8,6.3,49.8L6.3,49.8z M6.3,208.2c0-0.1,0.2,0.8,0.5,2.2
			c0.3,1.5,0.6,3.5,0.8,5.9c0.5,4.7,0.7,10.6-0.3,15.2C7.3,231.5,5.8,210.8,6.3,208.2z M7.5,258.6c0,0.1-0.1,0.4-0.2,0.9
			c0,0.1,0,0.2,0,0.2c0-0.1,0-0.1,0-0.2c0,0,0,0,0,0C7.4,259.1,7.5,258.7,7.5,258.6z M7.4,674.4c-0.1,0.6-0.3,1.4-0.1,0.4
			C7.3,674.6,7.4,674.5,7.4,674.4c0-0.2,0.1-0.3,0.1-0.4C7.5,674,7.4,674.2,7.4,674.4z M8.2,665.5c-0.8-3.1-0.4-80.3,0-41.4V665.5z
			 M8.2,449.2c0-0.4-0.1,0-0.1,1.2c0,1.9,0,3.9,0,6c0,1.2,0.1,2.4,0.1,3.6v11.2c0-5.7-0.1-8.2-0.1-8.1c0,9.6-0.1,20.5-0.1,31.2
			c0.1,2.7,0.2,5.4,0.2,8v102.3c-0.4-3.1-0.5-27.1-0.5-54.5c-0.2-1.1-0.3-1.7-0.4-1.7c-0.3,1.3,0-36.7,0.3-66.1
			c-0.9-29.2-2-61.4-0.3-69.3c-0.7,3.1-0.1,20.3,0.7,41c0-1.6,0.1-2.9,0.1-3.8c0-10.9,0.1-18.1,0.1-17.9V449.2z M97.4,11.8
			c0.7-0.3,1.8-0.5,3.8-0.4c-1-0.1,3.4,0.3,9.9,0.9H96.7C96.8,12.2,97,12,97.4,11.8z M206.5,735c-23.2,0.3-59.6-0.8-95.9-1.5
			c-5.4-0.1-10.7-0.2-16-0.3h121.4C213.5,734,214.2,734.9,206.5,735z M210,12.4c2.7-0.1,5.2-0.1,6.7,0H210z M288.4,12.4
			c34.2-1.1,117.8-0.3,162.6,0H288.4z M781.5,12.4H675.9c26.2-0.7,85.3-4.2,124.1-0.9C802.6,11.7,786.7,12.2,781.5,12.4z
			 M823.4,12.4h-5c-0.3-0.5,8.4-1.1,9.6-0.9C829.3,11.8,826.3,12.1,823.4,12.4z M855.7,492.6C855.1,495.4,856.1,490.8,855.7,492.6
			L855.7,492.6z M855.5,474.7c0-0.2,0.1-0.5,0.2-0.8c0,0,0,0,0,0C855.6,474.3,855.6,474.5,855.5,474.7z M856.4,549.3
			c-2.4,4.1-2.1-45.7-0.7-42.7c1.3,3,0.1,3.5,0,4.6C855.8,513.1,857.2,547.9,856.4,549.3z M856.7,469.2c-0.5,2.2-1.4-12.3-0.9-14.5
			C856.3,452.6,857.1,467,856.7,469.2z M7.7,550.2c0,0.2,0.1,0.4,0.1,0.6c0.1,0.4,0.1-27.6,0.2-56.4c-0.1-2-0.1-4.1-0.2-6.2
			C7.7,505.3,7.6,528.8,7.7,550.2z M7.6,482.4c0.1,1.9,0.1,3.8,0.2,5.7c0.1-14.7,0.2-24.7,0.3-25c0-2.3,0-4.6,0-6.8
			c0-0.7-0.1-1.5-0.1-2.2C7.9,460.1,7.7,470.6,7.6,482.4z M441.5,1.5c-4.3-0.9-11.3-0.7-17.2-0.2c-3,0.2-5.6,0.5-7.6,0.8
			c-1,0.1-1.8,0.2-2.3,0.3c-0.6,0.1-0.9,0.1-0.9,0.1C412.3,4.3,451.8,3.7,441.5,1.5z M492.1,2.9c4.5,0.2,9.1,0.5,9.9,0.5
			c35.2,0.9,87.1,0.3,111.9,0c-8.5,0.1,30.3-1.1,18.6-2c-10-0.8-47.3-0.7-82.1-0.3c-17.4,0.3-34.2,0.5-46.6,0.7
			c-6.2,0.1-11.3,0.3-14.9,0.3c-1.8,0.1-3.2,0.1-4.1,0.1c-0.5,0-0.8,0-1.1,0.1c-0.2,0-0.4,0-0.4,0c0,0,1.1,0,2.7,0.1
			C487.7,2.7,489.9,2.8,492.1,2.9z M592.9,740.8c-1.9-0.3-16,0-18.8,0.1C517.3,741.5,599.7,741.9,592.9,740.8z M63.9,3.5
			c93.4-0.5-14.8-3.3-28,0C33.7,4.1,57.5,3.5,63.9,3.5z M115.2,3.5C143.4,5.9,144.9,0,115.2,3.5L115.2,3.5z M213.1,3.5
			c4,0.9,54.4,0,55.9,0C335.2,3,203.5,1.4,213.1,3.5z M315.6,3.5c1.3,0.3,11.5-0.5,9.3-1C323.7,2.2,313.4,3,315.6,3.5z M344.8,3.8
			c2.3-0.2,4.4-0.6,5.9-0.8c1.5-0.3,2.3-0.4,2.2-0.5c-2.6-0.6-23.3,1-23.3,1C334.2,4.5,340.1,4.3,344.8,3.8z M376.2,2.5
			c-2.4-0.5-16.3,0.5-14,1C364.6,4,378.6,3,376.2,2.5z M526.7,740.2c-3.6-0.6-54.5,0.2-56.3,0.2
			C418.7,741.3,535.6,741.7,526.7,740.2z M0.3,26.4c0,0.1-0.1,0.2-0.1,0.3c0-0.1,0-0.1,0-0.2C0.3,26.5,0.3,26.4,0.3,26.4z M0.5,25.7
			C0.5,25.5,0.5,25.4,0.5,25.7L0.5,25.7z M171.1,3.5c-2.4-0.5-16.3,0.5-14,1C159.5,5,173.5,4,171.1,3.5z M185.1,4.5
			c1.3,0.3,11.5-0.5,9.3-1C193.2,3.2,182.9,4,185.1,4.5z M203.8,4.5c-0.2,0-0.4-0.1-0.4-0.1C203.7,4.5,206.1,5,203.8,4.5z
			 M809.3,3.5C807,3,793,4,795.3,4.5C797.7,5,811.7,4,809.3,3.5z M857.3,4.8l-0.1,7.5c-0.5,31.1,2.3,19.4,0.9,0l-0.7-9.2l-8,0.6
			c-2.4,0.2-4.9,0.4-7.5,0.7c2.7,0.1,5.2,0.1,7.5,0.2L857.3,4.8z M366.7,739.7c0.1,0,0.2,0,0.3,0.1c-0.1,0-0.1,0-0.2,0
			C366.8,739.7,366.7,739.7,366.7,739.7z M367.2,739.7C367.3,739.8,367.4,739.8,367.2,739.7L367.2,739.7z M366.5,739.6
			c-0.3-0.1-0.5-0.1-0.7-0.1C365.9,739.5,366.2,739.6,366.5,739.6z M315.2,739.8c-42.2,0.5,20.5,1.2,14.1,0
			C328,739.5,317,739.8,315.2,739.8z M0.3,389.9c-0.3,1.3,0.5,11.5,1,9.3C1.6,397.9,0.8,387.7,0.3,389.9z M0.3,324.7
			c-2.1,9.8,0.6,22.6,1,23.3C2.3,349.5,1.9,317.4,0.3,324.7z M1.5,174.7C1.5,174.6,1.5,174.6,1.5,174.7L1.5,174.7z M1.2,176
			c0.1-0.3,0.2-1,0.3-1.3c0,0.1-0.1,0.4-0.2,0.9C1.3,175.8,1.2,175.9,1.2,176z M1.3,105.7c0,0.2-0.1,0.3-0.1,0.3
			c0-0.1,0.1-0.4,0.1-0.6C1.4,105.5,1.3,105.6,1.3,105.7z M1.2,106.1C1.2,106.2,1.2,106.2,1.2,106.1L1.2,106.1z M1.4,105.1
			c0-0.2,0.1-0.4,0.1-0.4C1.5,104.8,1.5,104.9,1.4,105.1z M685.3,738.7c3.5,0.5,20.9-0.5,18.1-0.9
			C699.9,737.3,682.6,738.3,685.3,738.7z M2.3,366.6C3,363.5,1.9,368.5,2.3,366.6L2.3,366.6z M2.3,306c0.5-2.4-0.5-16.3-1-14
			C0.8,294.4,1.8,308.4,2.3,306z M651.7,737.2c-2.1-0.3-11.6-0.3-20.5-0.2c-8.9,0.2-16.6,0.3-16.9,0.3
			C577.3,738.2,658.3,738.2,651.7,737.2z M3.3,684.1c0-0.1,0-0.1,0-0.1c0,0.1,0,0.2-0.1,0.3C3.3,684.2,3.3,684.2,3.3,684.1z
			 M3.4,683.6C3.5,683.1,3.4,661.2,3.4,683.6L3.4,683.6z M851.4,735.9c0.2,0,0.3,0,0.4,0.1c0,0-0.1,0-0.1,0
			C851.6,735.9,851.5,735.9,851.4,735.9z M850.9,735.8c-0.1,0-0.2,0-0.3,0C850.7,735.8,850.8,735.8,850.9,735.8z M776.3,735.3
			c-41.9,0.4,20.9,0.9,14,0C789,735.1,778.1,735.3,776.3,735.3z M646.4,736.4c3.5,0.5,20.9-0.4,18.1-0.9
			C661.1,735,643.7,735.9,646.4,736.4z M365.5,735.9C365.5,735.9,365.5,735.9,365.5,735.9c0,0-0.1,0-0.2,0
			C365.4,735.9,365.5,735.9,365.5,735.9z M342.5,736.9c1.4,0.3,11.4-0.5,9.1-1C350.1,735.6,340.1,736.4,342.5,736.9z M327.3,735.8
			c0.4,0.1,1.2,0.2,1.3,0.3c-0.1,0-0.2,0-0.5-0.1C327.7,735.8,327.5,735.8,327.3,735.8z M687,734.7c-1.5-0.2-11.2,0.4-8.7,0.8
			C679.7,735.7,689.5,735,687,734.7z"/>
	</g>
</g>
</svg>
