<?xml version="1.0" encoding="utf-8"?>
<!-- Generator: Adobe Illustrator 22.0.0, SVG Export Plug-In . SVG Version: 6.00 Build 0)  -->
<svg version="1.1" id="Layer_1" xmlns="http://www.w3.org/2000/svg" xmlns:xlink="http://www.w3.org/1999/xlink" x="0px" y="0px"
	 viewBox="0 0 580 110.2" style="enable-background:new 0 0 580 110.2;" xml:space="preserve">
<style type="text/css">
	.st0{fill:#FCF8EF;}
</style>
<g>
	<path class="st0" d="M456,99.1c-23.4,0.4,29.9,0.5,25.6-0.1C479.9,98.7,456.8,99.1,456,99.1z"/>
	<path class="st0" d="M260.9,10c1.1,0.2,7.4-0.2,6.4-0.5C266.1,9.3,259.8,9.8,260.9,10z"/>
	<path class="st0" d="M269.4,10c0.6,0.1,5.3-0.3,4.3-0.5C273,9.4,268.3,9.8,269.4,10z"/>
	<path class="st0" d="M298.8,10C295.3,8.3,292.2,11.6,298.8,10L298.8,10z"/>
	<path class="st0" d="M311.8,9.5c0.6,0.1,5.3-0.3,4.2-0.5C315.5,8.9,310.8,9.3,311.8,9.5z"/>
	<path class="st0" d="M316.1,10.5c1.1,0.2,7.4-0.2,6.4-0.5C321.4,9.8,315,10.3,316.1,10.5z"/>
	<path class="st0" d="M297.7,9.7c2.1-0.1,4-0.3,5.4-0.4c1.4-0.1,2.3-0.2,2.3-0.2c-2.9-0.6-17,1-19.1,0.5
		C288.8,10.1,293.5,10,297.7,9.7z"/>
	<path class="st0" d="M201.2,8.7c2.4,0,5.6,0,8.7,0c6.1-0.1,11.4-0.2,8.5-0.5c-3.9-0.5-20.3-0.4-21.3,0.4c0,0,0.4,0,1.1,0.1
		C198.9,8.6,199.9,8.7,201.2,8.7z"/>
	<path class="st0" d="M188.6,8.6C200.9,7.9,177.4,9.3,188.6,8.6L188.6,8.6z"/>
	<path class="st0" d="M256.6,9.1c0.6,0.1,5.3-0.3,4.2-0.5C260.3,8.5,255.6,8.8,256.6,9.1z"/>
	<path class="st0" d="M248.1,9.1c0.6,0.1,5.3-0.3,4.2-0.5C251.8,8.5,247.1,8.8,248.1,9.1z"/>
	<path class="st0" d="M368.1,11.5c1.7-0.1,2.1-0.5,4.2-0.5c-2.9-0.9-54.1-0.4-17,0C359.5,11,365,10.5,368.1,11.5z"/>
	<path class="st0" d="M385.1,11c-5.1,0-7.9,0-12.7,0C384.6,12.1,411.8,11.1,385.1,11z"/>
	<path class="st0" d="M368.1,11.5C354.5,10.9,363.4,12.9,368.1,11.5L368.1,11.5z"/>
	<path class="st0" d="M159.6,8.3c2.1-0.1,4-0.3,5.4-0.4s2.3-0.2,2.3-0.2c-2.9-0.6-17,1-19.1,0.5C150.7,8.6,155.4,8.5,159.6,8.3z"/>
	<path class="st0" d="M393.6,12.4c1.1,0.2,7.4-0.2,6.4-0.5C398.9,11.7,392.5,12.2,393.6,12.4z"/>
	<path class="st0" d="M298.8,10C301.4,11.5,310.1,9.5,298.8,10L298.8,10z"/>
	<path class="st0" d="M326.5,10.5c-1.1-0.2-7.4,0.2-6.4,0.5C321.2,11.2,327.5,10.7,326.5,10.5z"/>
	<path class="st0" d="M335,10.5c0.6,0.1,5.3-0.3,4.2-0.5C338.6,9.9,334,10.3,335,10.5z"/>
	<path class="st0" d="M385.1,12.4c1.1,0.2,7.4-0.2,6.4-0.5C390.4,11.7,384,12.2,385.1,12.4z"/>
	<path class="st0" d="M354.1,10c-1.4-0.3-9.6,0.2-8.5,0.5C347,10.8,355.2,10.3,354.1,10z"/>
	<path class="st0" d="M172.7,7.6c0,0-0.2,0-0.6-0.1c-0.4,0-0.9-0.1-1.6-0.1c-1.3-0.1-3.1-0.2-4.8-0.3C162.3,7,149.1,7,149.9,7.6
		C151.5,8.7,172.9,8.2,172.7,7.6z"/>
	<path class="st0" d="M520.3,99.2c-0.9-0.1-7.4,0-8.5,0C492,99.6,523.1,99.6,520.3,99.2z"/>
	<path class="st0" d="M490.8,99.7c1.3,0.2,7.3-0.2,6.1-0.4C495.6,99.1,489.5,99.5,490.8,99.7z"/>
	<path class="st0" d="M101.8,6.2c-1.6-0.4-6.2,0.3-6.4,0.5C95,7.1,105.2,6.9,101.8,6.2z"/>
	<path class="st0" d="M110.3,6.2c-1.1-0.2-7.5,0.2-6.4,0.5C105,6.9,111.3,6.4,110.3,6.2z"/>
	<path class="st0" d="M85.8,7.1C87.2,7.5,84.9,6.9,85.8,7.1L85.8,7.1z"/>
	<path class="st0" d="M116.6,7.1c13.3,0.3-27.8-0.4-37.3-0.5C72.2,6.6,105.8,6.9,116.6,7.1z"/>
	<path class="st0" d="M112.4,97.2c-1.6,0-2.8,0.1-3.3,0.2C109.4,97.3,110.5,97.2,112.4,97.2z"/>
	<path class="st0" d="M21.8,98.4c0.2,0,0,0.2-0.4,0.3C23.1,98.7,23.7,98.6,21.8,98.4z"/>
	<path class="st0" d="M187.5,12.2c1.3,0,2.1-0.1,2.2-0.3C189.7,12,188.9,12.1,187.5,12.2z"/>
	<path class="st0" d="M150.3,96.8c0.2,0,0.5,0,0.7,0.1C151.1,96.8,150.9,96.8,150.3,96.8z"/>
	<path class="st0" d="M292.7,14.3c9.7,1.8,20.8-0.9,35.9,0.5C320.6,12.7,297.8,15.3,292.7,14.3z"/>
	<path class="st0" d="M145,7.6c0.4,0,1.1-0.1,2.1-0.1C146.2,7.4,145.4,7.5,145,7.6z"/>
	<path class="st0" d="M180.9,7.1c-7.9-0.6-27-0.1-33.7,0.3c4.5,0.1,13.7,1.2,16.7,1.2C168.8,8.6,181.5,7.2,180.9,7.1z"/>
	<path class="st0" d="M90,7.6C89.1,7.4,91.4,7.9,90,7.6L90,7.6z"/>
	<path class="st0" d="M191.5,7.6c0.6,0.1-44.7-0.3-45.8-0.5C145.2,7,190.5,7.4,191.5,7.6z"/>
	<path class="st0" d="M166.3,7.6C165.4,7.4,167.6,7.9,166.3,7.6L166.3,7.6z"/>
	<path class="st0" d="M136.5,7.6c0.6,0.1,5.3-0.3,4.2-0.5C140.2,7,135.5,7.4,136.5,7.6z"/>
	<path class="st0" d="M138.9,6.7c-1.1-0.2-7.4,0.2-6.4,0.5C133.6,7.4,140,6.9,138.9,6.7z"/>
	<path class="st0" d="M121.9,7.6c16.2-0.3-6.6-1-6.4-1C91.1,6.5,115.1,7.8,121.9,7.6z"/>
	<path class="st0" d="M124.3,7.3c1.1-0.1,2-0.3,2.7-0.4s1-0.2,1-0.2c-1.2-0.3,19.4,0.5,19.4,0.5C149.5,7.6,122.2,7.5,124.3,7.3z"/>
	<path class="st0" d="M174.5,11.9c23.4-0.4-25.7-0.5-23.4,0C152.9,12.3,173.8,12,174.5,11.9z"/>
	<path class="st0" d="M182.2,12.4c-1.1-0.2-7.4,0.2-6.4,0.5C176.9,13.1,183.3,12.7,182.2,12.4z"/>
	<path class="st0" d="M163.1,11.9c-1.1-0.2-7.4,0.2-6.4,0.5C157.8,12.7,164.2,12.2,163.1,11.9z"/>
	<path class="st0" d="M154.6,12.4c-0.6-0.1-5.3,0.3-4.2,0.5C151,13,155.6,12.7,154.6,12.4z"/>
	<path class="st0" d="M110.3,11c23.5-0.4-29.2-0.8-25.5,0C86.3,11.3,109.4,11,110.3,11z"/>
	<path class="st0" d="M147.9,11.9c-1.1-0.2,42.6,0.2,43.6,0.5C192.6,12.7,148.9,12.2,147.9,11.9z"/>
	<path class="st0" d="M216.2,12.4c-2.7,0-6.4,0.1-9.4,0.2c-3,0.1-5.4,0.2-5.4,0.2C209.4,14.6,236.3,12.6,216.2,12.4z"/>
	<path class="st0" d="M190.7,12.4c-0.6-0.1-5.3,0.3-4.2,0.5C187.1,13,191.7,12.7,190.7,12.4z"/>
	<path class="st0" d="M113.4,11c-1.1-0.2-7.5,0.2-6.4,0.5C108.1,11.7,114.5,11.2,113.4,11z"/>
	<path class="st0" d="M98.5,11c23.4-0.4,24.3-0.5,26.6,0C126.9,11.4,97.8,11,98.5,11z"/>
	<path class="st0" d="M134.4,11c-5-1.1-15.2,0.8-16.7,0.5C124.1,12.9,132.1,10.5,134.4,11z"/>
	<path class="st0" d="M149.3,11.5c19.9-0.3-10.9-0.5-8.5,0C141.5,11.6,148.1,11.5,149.3,11.5z"/>
	<path class="st0" d="M136.5,11.5C135.6,11.3,137.9,11.8,136.5,11.5L136.5,11.5z"/>
	<path class="st0" d="M199.2,12.4c-0.6-0.1-5.3,0.3-4.2,0.5C195.6,13,200.2,12.7,199.2,12.4z"/>
	<path class="st0" d="M239.6,13.4c25.8-0.2-11.3-0.6-8.5,0C231.9,13.6,238.4,13.4,239.6,13.4z"/>
	<path class="st0" d="M549.3,98c1.6,0.2,9.5-0.2,8.2-0.4C555.8,97.4,548,97.8,549.3,98z"/>
	<path class="st0" d="M558.6,96.6c0.7,0.1,5.1-0.2,3.9-0.4C561.8,96.1,557.4,96.4,558.6,96.6z"/>
	<path class="st0" d="M538.1,95.8c-1,0.1-1.8,0.2-2.4,0.3c-0.6,0.1-0.9,0.2-0.9,0.2c1.4,0.2,10.3-0.4,10.3-0.4
		C542.7,95.6,540.1,95.7,538.1,95.8z"/>
	<path class="st0" d="M578.9,95.5c-1.6-0.2-9.5,0.2-8.2,0.4C572.3,96.1,580.2,95.7,578.9,95.5z"/>
	<path class="st0" d="M540.5,95.6c1.6,0.2,9.5-0.2,8.2-0.4C547.1,95,539.3,95.4,540.5,95.6z"/>
	<path class="st0" d="M5.4,37.3C5.2,38.2,5.8,35.9,5.4,37.3L5.4,37.3z"/>
	<path class="st0" d="M534.7,99c-1,0.1-1.8,0.2-2.4,0.3c-0.6,0.1-0.9,0.2-0.9,0.2c1.4,0.2,10.4-0.4,10.4-0.4
		C539.3,98.8,536.6,98.8,534.7,99z"/>
	<path class="st0" d="M286.3,13.9c-3.5-1-21.9-0.4-21.2,0C266,14.4,287.1,14.1,286.3,13.9z"/>
	<path class="st0" d="M5.4,69.2c0.1-0.5,0-5.5,0-6.4C5.3,43.7,4.8,72,5.4,69.2z"/>
	<path class="st0" d="M5,45.8C4.8,46.7,5.3,44.4,5,45.8L5,45.8z"/>
	<path class="st0" d="M129.1,96.9c0.6,0.1,5.2-0.3,4.2-0.5C132.6,96.3,128,96.6,129.1,96.9z"/>
	<path class="st0" d="M497.1,97.1c-0.5-0.2-26,0-23.5,0.1C433.4,96.8,500.3,98.1,497.1,97.1z"/>
	<path class="st0" d="M439.2,96.9C440.3,97.1,437.6,96.7,439.2,96.9L439.2,96.9z"/>
	<path class="st0" d="M516.9,97.8c0.7,0.1,5.1-0.2,3.9-0.4C520.2,97.3,515.8,97.6,516.9,97.8z"/>
	<path class="st0" d="M147.2,96.8C131,96.2,140.7,98.2,147.2,96.8L147.2,96.8z"/>
	<path class="st0" d="M324.7,96.8c-19.1,0.2,9.5,0.5,6.4,0C330.5,96.7,325.5,96.8,324.7,96.8z"/>
	<path class="st0" d="M527.8,95.6c-1.7-1.8-6.2,1.6,0.3,0.4C528.3,95.9,527.8,95.7,527.8,95.6z"/>
	<path class="st0" d="M536.4,98.1C539.3,97.8,535.8,97.6,536.4,98.1L536.4,98.1z"/>
	<path class="st0" d="M536.4,98.1c-6.9-0.1-6.9,0.7-14.6,0.4C524.8,99.2,549.9,98.9,536.4,98.1z"/>
	<path class="st0" d="M446.7,12.9c-0.6-0.1-5.3,0.3-4.2,0.5C443,13.5,447.7,13.1,446.7,12.9z"/>
	<path class="st0" d="M533.7,97.4c-1.3-0.2-7.3,0.2-6.1,0.4C528.8,97.9,534.9,97.5,533.7,97.4z"/>
	<path class="st0" d="M147.2,96.8C125.6,96.2,115.9,101.9,147.2,96.8L147.2,96.8z"/>
	<path class="st0" d="M92.1,97.9c2,0.4,4.6,0.3,6.8,0.1c2.2-0.2,3.8-0.5,3.9-0.6C103,96.9,86.7,96.7,92.1,97.9z"/>
	<path class="st0" d="M173.7,96.8c-19.9,0.3,11,0.5,8.5,0C181.4,96.6,174.9,96.8,173.7,96.8z"/>
	<path class="st0" d="M24.5,10.2c0.7-0.1,1-0.2,1-0.2c-1.2-0.3-10.6,0.5-10.6,0.5c2.1,0.5,4.8,0.4,6.9,0.1
		C22.9,10.5,23.8,10.4,24.5,10.2z"/>
	<path class="st0" d="M31,10.5c2.7-0.1,5.2-0.2,6.9-0.3c1.8-0.1,2.8-0.1,2.7-0.2c-3.6-0.8-18.3,0.8-25,0.7
		C19.3,10.8,25.6,10.7,31,10.5z"/>
	<path class="st0" d="M34,10c-1.1-0.2-7.4,0.2-6.4,0.5C28.7,10.7,35.1,10.3,34,10z"/>
	<path class="st0" d="M72.3,10.5c-1.1-0.2-7.4,0.2-6.4,0.5C67,11.2,73.3,10.7,72.3,10.5z"/>
	<path class="st0" d="M15.7,10.7c-1.2,0-2.2-0.1-2.6-0.2C13.6,10.6,14.5,10.7,15.7,10.7z"/>
	<path class="st0" d="M92.9,11.1c4.6,0,9.1-0.1,9.2-0.1c17.5-0.5-21.6-0.6-19.1,0C83.5,11.1,88.2,11.1,92.9,11.1z"/>
	<path class="st0" d="M463.6,98c-4.6-0.1-9.1-0.7-11.3-0.7c0.5,0-2,0.8-5.8,0.8c-3.1,0-0.4-0.8-0.6-0.8c-14.2,0.1-14,0.6-29.6,0.5
		c-1.3,0-33-0.1-32.3-0.3c2-0.4,88.8-0.5,27.4-0.5c-23.4,0-22.8-0.7-52.6,0.1c-5.8,0.2-25.1-0.8-13.3,0.3c-0.5,0-1-0.1-1.5-0.2
		c0.4,0.1,1,0.1,1.5,0.2c3.1,0.3,4.1-0.7,8.9-0.6c-6.7-0.2-12,0-21.1,0.5c10.7-0.6,0.5,0.5-6.1,0.4c-11.2,0-13.3-0.2-21.8-0.8
		c-5.9-0.4,13.3-0.7,8.4-0.4c-5.7,0.4,0.8,1.3-5.7,1.3c1.6,0-10.1-2.9-8.8-0.4c0.5,0.9-2.5,0.1-8.5,0c10.9,0.2,2.7-0.7-2.6-0.8
		c-4.1-0.1-13.6,0.4-16.8,0.5c11.1-0.1,4,1-4,0.4c-4-0.3-23-1.1-36.7-0.8c-1.5,0-3,0.7-6,0.9c-5.2,0.3-26.6-0.1-8.7-0.4
		c17.8-0.3-8.4-0.8-15.1-0.4c-3.9,0.2-2.5,0.9-8.2,0.9c-3.6,0-0.8-1.2-2.7-1.3c0.8,0.1-34,0.4-31.7,0.9c0.6-0.3,46.9,0.4,17.3,0.5
		c-7.5,0-20.1,0.2-23.6-0.4c-0.1,0,4.6-0.9,3.9-0.9c-15.1-0.6,23.5,0.1,18.2,0.5c1.4-0.1,12.9,0.6,13.1,0.9
		c-0.7-0.5-22,0.8-28.2,0.6c-3.9-0.1-6.6-1-8.2-1.3c-1,0.3,11.3,1.6,12.3,0.4c0.6-0.7-6.6-0.6-17.5-0.9c-8-0.3,11,0.3,10.7,0.1
		c-0.9,0.5,5.4,1.3,4.7,1.3c-6.5,0.4-33.8-0.3-40.7-0.9c3,0.2,23.5-0.3,24.9-0.4c-4.2,0.1-2.1,1-7.5,1.4c-9.6,0.8-30.7-1.7-47.1-0.9
		c-0.8,0,0.8,0.4,2.7,0.7c1.9,0.3,3.9,0.7,3.9,0.7c-0.5,0.2,29.7,0.2,28.7,0c-55.6-9.1-39.4-2.8-2.3-1.4c-13.1-0.5-3.5-0.1-11.4,0.3
		c4.9-0.1-16.7,0.3-14.5,0.6c-5.6-0.7-16.7,2.4-22.9,0.1c-2.3-1.3-9.4,0.1-3,0.1c-8,0.3-20.4,1.5-31.1,0.9
		c-6.9-0.4-5.1-1.5-12.9-1.4c-5.9,0.1,5.3,0.9,0.1,1.4c-6.6,0.7,9-0.8-2-0.5c-1.8,0.1-2,1-6.4,1c-0.1,0,1-0.3,1.7-0.6
		c-3.1,0-9.7-0.3-11.7-0.3H8.9l-3.8,0.5l0-1.1H4.3l0.1-5c0-0.4,0-0.6,0-0.6c0,0.2,0.1,0.4,0.1,0.6l0.6,5.1L9,98.5l0.6-0.1
		c5.3-0.6,22.7-0.5,18.6-0.9c-2.2-0.2-10.3-0.3-18.6-0.3H5.7v-4c0-5.7-0.1-11.4-0.3-15.5c-0.5-12-0.6,7.2-1.4-2.1
		c-0.2-1.7-0.4-48.9,0-55.2c0,0.4,1,3.4,1-2.1c0-2.9-0.7,1.3-1-2.1c0-0.3,0-0.5,0-0.9L3.7,9.9l6-0.3c13.1-0.7,6.5,0.9,24.4-0.4
		c-0.2-0.6,3.1-0.3,0,0C40,10,68,9.7,44.7,10.2c-18.2,0.3,7.7,1.4,12.7,1c2.4-0.2-0.4-1.8,4.2-1.9c2.2-0.1,7.1,0.9,10.6,1
		c29.9,0.4-1.3-0.6,24.1-0.5c14.2,0.1,27.6,0.6,42.5,0.5c7.5-0.1-10.7-0.1-0.8,0c4.9,0,9.4,0,12.6,0c3.1,0,4.9,0,5,0
		c-0.6,0-13-0.5-12.7-0.5c2.4-0.1,11.7-0.2,17,0c4.1,0.2-22.1,1-19.4,1c3.2,0-1.7-1.1,2.1-1c3.9,0.1,8.8,1.3,12.7,1.4
		c15.1,0.7-7.6-0.7,8.9,0c-1.9-0.1-1.3,1.3,0,1.4c4,0.4,17.9,0.2,23.3-0.2c-5.5,0.1-19.6-0.9-19.1-0.8c-3.3-0.8,3.1-1,10.4-1.1
		c3.6,0,7.4,0,10.3,0c1.4,0,2.7,0,3.5,0.1c0.8,0,1.3,0,1.3,0c-0.8,0.3-27-0.2-12.7,0.5c8,0.4-27.5-0.6-18.1-0.5
		c-2.6,0-1.3,0.8,2.1,1c19.2,0.6,38.1,0.3,55.2,0.5c14,0.1,31.7-0.6,44.6,0c2.6,0.1,2,0.9,6.4,1c28,0.5,29.5-0.1,59.2,0.5
		c15.4,0.3,9.7,1.4,24.6,1.4c13.2,0.1,26.1,0.2,38.9,0.4h-40.7c-6.1-1.2-10.9,0.1-25-0.4c1.1,0.2,2.3,0.3,3.5,0.4h-56.6
		c-173.9-2.3-94.8-3.9-265.9-3.3H6.1v3.3c0,3.9,0,7.7,0,11.5c0.1,21.8,0.1,43.9,0.2,66.5v3.1h3.1c94,0,50.3-0.1,135.1-0.1
		c-1.4,0.1-2.7,0.3-3.6,0.4c-0.9,0.2-1.5,0.3-1.4,0.3c1.2,0.3,10.5-0.5,10.5-0.5c-0.6-0.1-1.2-0.2-1.8-0.2c35.6,0-0.8-0.1,29.6-0.3
		c47.7-0.2,70.8,0.5,135.4,0.2c47-0.2,123.3,0.4,191.5,0.4c16,0,10.5-0.3,1-0.5c-4.7-0.1-10.5-0.3-15.1-0.4c-2.3,0-4.3-0.1-5.7-0.1
		c-0.7,0-1.3,0-1.7,0s-0.6,0-0.6,0c0.4-0.1,21-0.6,1.5-0.7c-8.6-0.1-30.7,0.1-44.4,0.4c-13.7,0.5-39.6,0.6-57.2,0.5
		c-31.2-0.3,8-0.4,21-0.4c13.7,0,25.5,0,36.2,0c-103.8-1-167.1-1.6-278.4-1.8h415.2V82.6c0.7-20.5,1.3-43.4,1.5-67.4v-1.5h-1.5
		c-29.5-0.3-60.6-0.4-91.7-0.8c-31.3-0.4-51.7-1.8-74.4-1.4c-4.2,0.1-5-0.3-6.4,0.5c0.1,0,5.6,0,11.2,0c5.5,0,10.9,0.1,10.1,0.5
		c0.6-0.3-11.2,0.4-8.5,0.5c23.2,0.5,39.8-0.7,55.2,0c1.5,0.1,0.9,0.9,4.2,1c4.3,0.1,8.5-0.7,12.8-0.5c0.2,0-5,0.8-4.3,1
		c2.7,0.7,12.7-0.5,14.9-0.5c-15.8,0,10.6-1,17,0c1.7,0.3-1.1,0.9,2.1,1c-2,0,3.8-1,6.4-1c2.5,0,4.7,0.2,6.9,0.4
		c-2.8,0-7.8,0.4-6.9,0.6c1.3,0.3,8.4-0.2,8.5-0.4c1.9,0.2,3.9,0.3,6.4,0.4c-0.4,0,17.5-0.4,21.7,0.4h-70.1
		c-11.8-0.1-21.7-0.3-26-0.4c-46.9-1.1-99.4-2.5-133-2.9c-48.7-0.5-60.2-0.9-112.4-1.4C76.9,9,161.1,7.2,9.7,8.3h-7l0.1,6.9
		c0.1,13.1,0.2,25.2,0.3,37c0.1,10.4,0.2,23,0.3,41v6.4h6.3c40-0.3,37-0.4,78.2-0.2c3.1,0,32,0,27.9,0.9c-1.4,0.3-21.4-0.1-29.9,0
		c-49.8,0.6-34.2,0.9-76.2,1.1H1.5v-8.2C1.4,67,1.3,41.4,1.2,15.2V6.8h8.5c38.6,0,48.3-0.1,92.4-0.1c-0.9,0-10.1-0.2-13-0.5
		c-11.3-1.2-33.4,0-63.5,0c-14.4,0-0.5-0.1-15.9-0.1H0.6v9.1c0,16.9,0,33.1,0.1,45.5C0.8,71.9,0.9,82.9,1,93.2l0.1,8.8l8.7-0.1
		c50.8-0.3,38.3-0.2,91.3-0.3c15.3,0-21.7-1-5.2-1c44.3-0.1,28.1,0.1,70,0.2s-8.2,0,28.1-0.6c25.4-0.4,94.9-0.1,126.4,0
		c20.5,0.1,35.7-0.1,5.9-1c-22.2-0.7-6.5-0.8,12.3-0.9c6.8,0,35.2,0,10.9,0.4c-25.1,0.4-8.4,1.1,0,1.1c25.2,0,46.7-0.4,64.1-0.3
		c20.2,0.1,46.3-0.6,14.7-0.4c-8.5,0-29.7,0-48.9-0.1c-19.3-0.1-36.6-0.4-37.3-0.8c0,0,0.4,0,1,0s1.5,0,2.6,0c2.2,0,5.1,0.1,8.2,0.1
		c6.1,0.1,12.5,0.1,14,0.1c63.3,0.2,95.2-0.2,154-0.2C505,97.6,484.6,98.5,463.6,98z M476.4,95.3c1.3,0.2-6.6,0.6-8.2,0.4
		C466.9,95.5,474.8,95.1,476.4,95.3z M463.6,95.4c0.4,0.1-18.5,0.4-19.2,0C443.5,94.9,460.8,94.6,463.6,95.4z M353.4,15.2h-5.9
		C350,15.1,352.1,15.1,353.4,15.2z M169.5,15.2h25.2c1.7,0-46.5,0-44.7,0C156.9,15.2,164.2,15.2,169.5,15.2z M159.9,14.3
		c26-0.4-22.4,0,6.5,0.5c10.5,0.2,9.4,0.3,3.7,0.4h-17.4c-3.6-0.1-6.3-0.2-7.6-0.4C142.6,14.5,154.5,14.4,159.9,14.3z M128,14.3
		c-4.8-0.1,2.5,0.5,0.3,0C121.9,12.9,163.1,15.3,128,14.3z M100.6,13.4c9-0.3,33.8,0.8,12.8,1c-7.5,0-15.6,0.2-17-0.5
		C95.6,13.5,99.7,13.4,100.6,13.4z M95.4,13.4c12.7,0.2-30.8-0.4-7.5,0c15.6,0.3,47.1,0.4,39.4,0.5c-2.4,0-20.5,0.1-38,0.1
		c-8.8,0,12.6-0.1,6.3-0.1c-6.4-0.1-10.6-0.2-10.4-0.4C85.5,12.4,89.5,13.3,95.4,13.4z M137.4,95c-30.3,0.8-16.4-0.1-39.2,0
		C68.7,95.2,61,95.3,9.7,95.4H7.5v-2.2c0-19.6-0.1-46.5-0.1-78v-2.3h2.3c6.2,0,15.4,0,24.6,0c28.9,0,36.5-1.2,46.5,0
		c1.7,0.2-7.8,0.3-17.8,0.4c-10,0-20.4,0.1-20.4,0.1c-20-0.1-11.6-0.1-32.9-0.1H7.8v1.9c0.1,28.1,0.3,55.7,0.5,78v1.4h1.4
		c4.2,0,7.2,0,10-0.1c75.6-0.6,35.1,0.2,90,0C120.3,94.5,170.6,94.1,137.4,95z M132.8,94.5c-4.5,0-10,1.1-10.6,0
		c-0.4-0.7,20.9-0.7,23.3-0.5C150.6,94.5,139.2,94.5,132.8,94.5z M164.7,94.5c-1.7,0.4-10.3-0.5-10.8-0.5
		C155.3,94,168.7,93.6,164.7,94.5z M141.1,94.5c2.5-0.7,17.1-1.1,21.3,0C164.5,95.1,140.3,94.7,141.1,94.5z M164.9,94.5
		c-8.6,0.5,23.3,0.5,21,0.5c-105.5-0.7-16.4,1.4-17.2-0.5c0,0,0.2,0,0.7-0.1c0.5,0,1.1,0,1.9-0.1c1.7,0,4-0.1,6.8-0.2
		c5.5-0.1-37.5-0.3-31.3-0.3C159.3,93.7,178.3,93.7,164.9,94.5z M181.8,94c0,0,0.8,0,2-0.1c1.2,0,3-0.1,4.8-0.1
		c3.7,0-42,0.1-39.7,0.6C152.4,95.3,171,94.3,181.8,94z M321.3,94.8c6.3,0,32.3-0.9,37.4-0.1C361.4,95.1,265.4,95,321.3,94.8z
		 M302.1,94.8c1.2,0.2,25.1,0.6,23.9,0.4C324.8,95,300.9,94.6,302.1,94.8z M323.6,94.8c1.2,0.2-4.9,0.6-6.1,0.4
		C316.3,95,322.4,94.6,323.6,94.8z M313,94.8c1.2,0.2-4.9,0.6-6.2,0.4C305.6,95,311.8,94.6,313,94.8z M300.2,94.8
		c-0.8,0.3-12.8,1-18.9,0.4C275.1,94.7,300.9,94.6,300.2,94.8z M272.3,94.4c-0.1,0-53.8,0.4-59.4,0.5c-6.9,0-56.7,1-61.7,0
		c2,0.4,48.5-0.5,59.4-0.5C213.1,94.4,267.4,93.5,272.3,94.4z M9.7,93.6H9.3v-0.4c0-27.5,0-53.4-0.1-78v-0.4h0.4
		c24.3,0,17.3,0,39.2,0.1c32.9,0.1,36.3,0.2,69.9,0.4H9.7v78H139C56.9,93.3,84.3,93.5,9.7,93.6z M576.7,15.1L576.7,15.1L576.7,15.1
		c0.3,1.7,0.6,7.1,0.4,8.3c-0.1,0.4-0.3-0.7-0.4-2.3V15.1l-0.4,0.1C576.4,15.2,576.5,15.2,576.7,15.1z M311.6,12.4
		c1,0.2-3.7,0.6-4.2,0.5C306.3,12.7,311,12.3,311.6,12.4z M290.6,11.5c1,0.2-3.7,0.6-4.3,0.5C285.3,11.7,290,11.3,290.6,11.5z
		 M248.1,11c1.1,0.3-7.1,0.8-8.5,0.5C238.5,11.2,246.7,10.7,248.1,11z M229,11.5c-0.8,0-5.8,0.1-6.4,0
		C219.9,10.8,248.1,11.3,229,11.5z M188.6,11c-0.8,0-5.8,0.1-6.4,0C179.5,10.4,207.8,10.8,188.6,11z M150,10c1,0.2-3.7,0.6-4.2,0.5
		C144.7,10.3,149.4,9.9,150,10z M193.6,10c1.1,0.2-5.3,0.7-6.4,0.5C186.2,10.3,192.5,9.8,193.6,10z M145.3,9.5c-1.2,0-7.7,0.2-8.5,0
		C105,2.7,141,9.5,145.3,9.5z M128.3,9.1c0,0-0.4,0.1-1,0.2c-0.7,0.1-1.6,0.3-2.7,0.4c-2.1,0.2-4.8,0.4-6.9-0.1
		C117.6,9.5,127.1,8.8,128.3,9.1z M4.5,82c0.7-0.2,0.5,5.8,0,6.4C3.7,89.2,4.3,82,4.5,82z M111.2,97.9
		C109.7,97.6,112.1,98.1,111.2,97.9L111.2,97.9z M146.1,100c-58.3,0.5-0.6-0.5-56.8,0.3c-1.4,0-2.9,0-4.3,0c-35.3-0.6,19.3-1,49-1
		c43.9-0.1-31.2-0.3,13.9-0.2c4.5,0,33.8,0.7,35.8,0.4C181.3,99.8,157.6,99.9,146.1,100z M152.8,99c4.2,0,11.6-0.3,12.8,0
		C168,99.4,120.9,99.3,152.8,99z M180.7,99.3c0,0-0.6,0-1.4,0.1c-0.8,0-1.9,0-2.9,0.1c-2.1,0-4.2,0-4.3-0.1
		C171.9,98.7,184.2,98.5,180.7,99.3z M218.5,99.3c-0.4,0-1.1,0-1.8,0.1c-1.6,0-3.7,0.1-6.2,0.2c-5,0.1-11.4,0.2-16.7,0.2
		c0.6,0-5.5-0.8-6.6-0.4c2-0.8,32.4-0.7,32.1-0.1C219.2,99.3,218.9,99.3,218.5,99.3z M301.5,97.3c1.2,0.2,25,0.6,23.8,0.4
		C324.1,97.5,300.2,97.1,301.5,97.3z M241.7,97c4.3,0,10.8-0.1,15.1,0.4C259.7,97.8,219.1,97.2,241.7,97z M317.5,99
		c-6.2,0-12,0-21.4,0.1c-15.2,0.1-32.5,0.8-49.1,0.1c-12.2-0.5-2.5-0.3,6.2-0.4c21.2-0.3,24.4-0.4,49-0.2
		C322.9,98.6,326.9,98.9,317.5,99z M352.1,97.5c-1.2-0.2,4.9-0.6,6.1-0.4C359.4,97.3,353.3,97.7,352.1,97.5z M375.6,97.4
		C374,97.2,376.6,97.6,375.6,97.4L375.6,97.4z"/>
	<path class="st0" d="M52.9,97.3c-4.1,0.1-7.6,0.1-7.8,0.1c-17.1,0.5,19.8,0.6,17.1,0C61.3,97.2,57,97.2,52.9,97.3z"/>
	<path class="st0" d="M87.8,97.4C88.7,97.6,86.4,97.1,87.8,97.4L87.8,97.4z"/>
	<path class="st0" d="M43.1,97.4c-25.9,0.2-18.6,0.6-21.5,0C20.9,97.2,44.4,97.4,43.1,97.4z"/>
</g>
</svg>
