<?xml version="1.0" encoding="utf-8"?>
<!-- Generator: Adobe Illustrator 22.0.0, SVG Export Plug-In . SVG Version: 6.00 Build 0)  -->
<svg version="1.1" id="Layer_1" xmlns="http://www.w3.org/2000/svg" xmlns:xlink="http://www.w3.org/1999/xlink" x="0px" y="0px"
	 viewBox="0 0 1269.1 5600.3" style="enable-background:new 0 0 1269.1 5600.3;" xml:space="preserve">
<style type="text/css">
	.st0{fill-rule:evenodd;clip-rule:evenodd;fill:#FCF8EF;}
</style>
<g>
	<g>
		<path class="st0" d="M1257.5,508.8c0.7-15.6-0.4-108.3-1-95.9C1255.8,428.5,1256.9,521,1257.5,508.8z M1256.4,903.1
			c-0.4,8.3-0.1,82.1,0,95.6C1256.9,1223.5,1257.5,877.1,1256.4,903.1z M1256.3,1118.2c-1.1,26.3-0.9,80.1-0.4,127.5
			c0.2,23.7,0.6,45.8,0.8,61.9c0.3,16.2,0.4,26.5,0.4,26.5C1258.5,1303,1255.3,1141.5,1256.3,1118.2z M1256.2,1357.2
			c-0.3,6.4,0.5,59.6,0.9,48.7C1257.4,1399.5,1256.7,1346.3,1256.2,1357.2z M1250.4,3729.1c-0.6,13.9,0.2,108.9,0.6,97.9
			C1251.6,3813.1,1250.8,3718,1250.4,3729.1z M1249.7,4223.7c0.2,12.7,0.4,24.1,0.6,32.2c0.2,8.1,0.3,13,0.3,12.8
			c0.5-11.5-0.6-373.1-0.6-373.1C1249.2,3916.2,1249.3,4198.3,1249.7,4223.7z M1248.2,5454c-0.3,7.2-0.2,81.3-0.2,94.8
			C1247.9,5773.6,1249.1,5431.6,1248.2,5454z M1035.1,24.1c4.2-0.1,10.1-0.3,17.1-0.4c14-0.3,13.5-0.6,30.1-1
			c33.3-1,60.1-2.9,33.6-7.9c-26-5-35.2-3-59.9,0c-30.7,3.7-35.6-5.6-27.3,10C1028.6,24.5,1031,24.2,1035.1,24.1z M1240,3734.6
			c0-0.2,0-0.4,0-0.5C1240,3733.4,1240,3733.5,1240,3734.6z M12.6,3930.9c0,0.6,0,1.3,0.1,2c0.1,1.5,0.1-134,0.2-297.1
			c0-5.6-0.1-11.4-0.1-17.4C12.7,3702.9,12.6,3813.1,12.6,3930.9z M1233.9,9.7c-37,0.1-58.1,2.3-71.9,5c-35.8,6.9,42.9,5.1,41.5,5
			c8.3,0.2,17.2,0.4,30.4,0.6l9.7,0.2l0,48.8c-0.4,426.3-1.3,1632.9-2.1,2000.8c-0.4,218.4,0.6,1028.1-1.2,1057.7
			c0-2.1,0.1-329.3,0.2-427.4c0.1-135-1.2-597.1-0.8-703.5c0.2-44.5,1.9-173.9,2-186.3c0-73.4,0-475.3,0.1-584.7
			c0.4-234.5,0.3-658.3,0.1-817.3c-0.1-113.5-2-255.3-0.9-339.3l0.5-32.5l-7.4-2.6c-2.9-1-5.3-2.5-7.4-4.5c-24.4,2.6-85.1,5-152,5
			c-219.7,0-782.1,8.1-983.3,15.1c-25.9,0.9-52.2-0.4-78.1-2.1l-4.2-0.3L8.8,69.4c-0.6,244.7-1.5,736.3-0.6,954.9
			c0.3,58.3,1.9,105.9,2,164c0.5,261,0.4,827.3,0,1097.9c-0.8,511,0.7,1693.5,1,2374.6c0.1,187.4-2.2,606.2-1,716.4
			c0.9,79.2,2-84.4,2.8,69.6v37.3c-0.4-12-1.3-74.6-1.9-60.1c-1.4,36-0.1,88.4,1.3,129.5l0.1,3.5l0.5-0.4c1.3-1,2.5-2.1,3.6-3.1
			h20.9c-6.5,1-12.5,2.4-17.8,4.4c-7.6,2.9,8.5,5.3,4.6,5c24.3,1.8,42.2,0.2,64.6,0c43.9-0.5,256.7,4.9,290.4,8.2
			c33.6,3.3,155,4.6,193.6-3.6c20-4.2-139.4-4.4-149.2-4.7c-56.5-2,100.8-5.4,134.8-5c55.6,1.6,145.1,2.7,206.6,4.4
			c81.6,1,187.3,4.9-109.1,4.9c-41.3,0.1,96.3,2.8,114.5,4.3c2.5,0,87.5-0.3,91-0.3c10.9-0.8,23.5-0.7,36.6-0.5
			c-16.4,2.7-30.4,5.8-31.5,5c4.8,4.2,25.2,2.6,44.6,0.1c9.7-1.4,42.8-2.8,49.9-3.8c7-1.1,11.7-1.8,12-1.6c-0.2-0.1-0.4-0.2-0.5-0.4
			c8.7-0.7,16.6-2,23.1-4.1c14.6-4.7-22.5-4.2-23.6-4.2c-80,0.5-284.5-6-350.8-8.1h373.9c1.5,0.5,4,0.4,6.6,0h25.9
			c0.7,0.1,1.6,0.1,2.5,0h203.6v-54.6c0.2,2.4,0.4,4.6,0.6,6.7c1.2,12.2,6.1,60.1,7,35.2c1.8-48.8,2.1-464.5,1.8-689.6
			c-0.3-225.1-1.4-1689.3-1.4-1055.2c-0.1,209.9-0.2,190.7-0.3,37.5c-0.1-373.9,0.9-1380.7,1.9-1842.9c1-462,2.1-1490.3,2.1-1912
			c0-3.8,0-7.6,0-9.2l0-59.7L1233.9,9.7z M11.2,257.7c0.5-12.5-0.1,1.8-0.1,2.3C11.1,259.9,11.2,259.2,11.2,257.7z M11.2,1305.4
			c0-0.3,0.2,4,0.4,11.3c0.2,7.3,0.6,17.6,0.8,29.4c0.5,23.6,0.7,354.8-0.3,378.1C12.2,1724.1,10.7,1318.3,11.2,1305.4z
			 M12.4,1860.2c0,0.4,0,1-0.1,1.7c0,0.7-0.1,1.6-0.1,2.8c0,0.4,0,0.6,0,0.9c0-1,0.1-2.5,0.2-3.7
			C12.4,1861.1,12.4,1860.5,12.4,1860.2z M12.2,5058.9c-0.1,1.5-0.1,2.2-0.1,2.3c0-0.4,0.2-3.6,0.2-5.6
			C12.3,5056.4,12.3,5057.4,12.2,5058.9z M13.1,5012.4c-0.8-15.5-0.4-403.8,0-208V5012.4z M13.1,3170.7c0-1.9-0.1,0.9-0.1,7.7
			c0,56.5-0.1,134-0.1,218c0.1,11,0.1,21,0.2,29.7v56.4c-0.1-42-0.1-31.4-0.2,14.7c0,46.8,0,93.8,0,138.7
			c0.1,20.5,0.2,38.5,0.3,53.4v1017.3c-0.5-23-0.6-431.6-0.5-775.6c-0.2-6.1-0.4-9.5-0.4-9.3c-0.2,5.5-0.1-198.3,0.2-395
			c-0.9-223.1-1.7-549.8-0.2-587.5c-0.6,13.5-0.2,246.9,0.4,397.5c0.1-77.2,0.3-137.2,0.4-158.3c0-57,0.1-92.5,0.1-91.4V3170.7z
			 M101.3,66.7c0.7-1.5,1.8-2.8,3.8-1.8c-1-0.5,3.4,1.7,9.8,4.4h-14.3C100.6,68.7,100.8,67.7,101.3,66.7z M386.9,5562.8
			c-22.9,1.6-236.8-3.9-272.7-7.8c-5.3-0.6-10.6-1.1-15.9-1.5h297.8C393.9,5557.6,394.6,5562.3,386.9,5562.8z M390.5,69.4
			c2.7-0.5,5.2-0.6,6.7,0H390.5z M556.9,69.4c33.8-5.6,165.8-1.6,210.1,0H556.9z M1166.8,69.4h-104.4c25.9-3.6,84.3-21,122.7-4.4
			C1187.6,66,1171.9,68.3,1166.8,69.4z M1208.2,69.4h-5c-0.3-2.4,8.3-5.7,9.5-4.4C1214,66.3,1211.1,68.3,1208.2,69.4z
			 M1240.1,3640.3C1239.5,3654.3,1240.4,3631.3,1240.1,3640.3L1240.1,3640.3z M1240,3499.4c0-1,0.1-2.4,0.2-3.7c0,0,0,0,0,0.1
			C1240,3497.5,1240,3498.7,1240,3499.4z M1240.8,3925.4c-2.4,20.7-2.1-229.9-0.7-214.4c1.3,15.1,0.1,17.8,0,23
			C1240.2,3743.1,1241.6,3918.1,1240.8,3925.4z M1241,3472.4c-0.5,10.8-1.3-262.8-0.9-273.8
			C1240.7,3187.6,1241.5,3461.3,1241,3472.4z M12.4,3526.6c0.1,33.3,0.3,64.4,0.4,91.8c0-51.2,0.1-92.9,0.1-121.3
			c0-34,0-67.9,0-100.8c-0.1-17.5-0.2-37.7-0.3-59.7C12.5,3393.5,12.5,3459.6,12.4,3526.6z M757.6,14.7c-4.2-4.6-11.1-3.5-17-1.1
			c-2.9,1.2-5.6,2.7-7.5,3.9c-1,0.6-1.8,1.2-2.3,1.5c-0.5,0.4-0.9,0.7-0.9,0.7C728.8,28.8,767.8,25.8,757.6,14.7z M857,22
			c4.4,1.2,9,2.5,9.8,2.8c34.7,4.4,109.8,1.7,134.3,0c-8.4,0.6,30-5.3,18.4-10c-9.9-4.1-70.5-3.3-104.8-1.4
			c-17.2,1.3-33.8,2.6-46,3.5c-6.1,0.7-11.2,1.3-14.7,1.7c-1.8,0.3-52.6,0.5-53.5,0.7c-0.5,0.1-0.8,0.2-1.1,0.3
			c-0.2,0.1-0.4,0.2-0.4,0.2c0,0,50.5,0.1,52.1,0.6C852.7,20.8,854.8,21.4,857,22z M961.8,5592.2c-56.1,3,25.3,5.2,18.6-0.4
			C978.4,5590.3,964.5,5592.1,961.8,5592.2z M68.2,24.8c92.3-2.4-14.6-16.5-27.6,0C38.3,27.6,61.8,24.9,68.2,24.8z M118.9,24.8
			C146.7,37,148.2,7.1,118.9,24.8L118.9,24.8z M537.7,24.8c65.4-2.3-153.7-10.3-144.2,0C397.5,29.1,536.2,24.8,537.7,24.8z
			 M593,19.7c-1.3-1.4-11.4,2.7-9.2,5C585,26.1,595.2,22.1,593,19.7z M612.6,26.1c2.3-1.2,4.4-2.8,5.8-4.1c1.4-1.3,2.3-2.2,2.2-2.3
			c-2.5-2.8-23,5-23,5C602.2,29.7,608,28.5,612.6,26.1z M643.7,19.7c-2.4-2.6-16.2,2.5-13.8,5C632.2,27.3,646,22.3,643.7,19.7z
			 M786.1,5589.6c-51.1,4.6,113.9,6.8,105.1-0.9C887.6,5585.6,787.9,5589.5,786.1,5589.6z M5.3,139.6c0-0.8,0.1-1.4,0.1-1.9
			C5.4,138.3,5.4,138.9,5.3,139.6z M5.3,140.6c0,0.1,0,0.1,0,0.2c0-0.3,0-0.6,0-1C5.3,140.1,5.3,140.3,5.3,140.6z M5.3,141.5
			c0-0.2,0-0.4,0-0.7C5.3,141,5.3,141.2,5.3,141.5z M5.4,137.7c0-0.4,0-0.8,0-1.1C5.5,136.9,5.4,137.2,5.4,137.7z M5.5,136.6
			C5.5,135.1,5.5,135.5,5.5,136.6L5.5,136.6z M352,24.8c-2.3-2.6-16.1,2.5-13.8,5C340.6,32.3,354.4,27.3,352,24.8z M375.1,24.8
			c-1.3-1.4-11.4,2.6-9.2,5C367.1,31.2,377.2,27.1,375.1,24.8z M384.3,29.8c-0.2-0.2-0.4-0.4-0.4-0.5
			C384.2,29.7,386.6,32.3,384.3,29.8z M1194.3,24.8c-2.4-2.6-16.1,2.5-13.8,5C1182.8,32.3,1196.6,27.3,1194.3,24.8z M1241.7,31.5
			l-0.1,37.9c-0.5,156.4,2.3,97.6,0.9,0l-0.6-46.2l-7.9,2.9c-2.4,0.9-4.9,2.1-7.4,3.7c2.7,0.3,5.2,0.6,7.4,0.9L1241.7,31.5z
			 M634.3,5586.3c0.2,0.2,0.3,0.3,0.4,0.3c-0.1-0.1-0.3-0.3-0.5-0.4C634.3,5586.2,634.3,5586.2,634.3,5586.3z M634.7,5586.6
			C634.9,5586.8,634.9,5586.8,634.7,5586.6L634.7,5586.6z M634.1,5586c-0.3-0.3-0.6-0.5-0.7-0.6
			C633.5,5585.5,633.8,5585.7,634.1,5586z M583.4,5586.8c-41.7,2.3,20.3,6.1,13.9-0.1C596,5585.5,585.2,5586.7,583.4,5586.8z
			 M5.3,2822.1c-0.3,6.5,0.5,57.9,1,46.8C6.6,2862.4,5.8,2811,5.3,2822.1z M5.3,2192.5c-2.1,49.5,0.6,113.8,1,117.1
			C7.3,2317.5,6.8,2155.9,5.3,2192.5z M6.3,1141.4c-0.1,1.5-0.1,2.2-0.1,2.3C6.2,1143.2,6.8,1129,6.3,1141.4z M6.3,538.7
			c-0.1,1.6-0.1,2.2-0.1,2.3C6.2,540.5,6.8,526.3,6.3,538.7z M1089.6,5576.9c-3.5-2.6-20.6,2.3-17.9,4.3
			C1075.2,5583.8,1092.4,5578.9,1089.6,5576.9z M7.3,2705C7.9,2689.6,6.9,2714.8,7.3,2705L7.3,2705z M6.3,2028.6
			c-0.5,12,0.5,82.1,1,70.3C7.8,2086.9,6.8,2016.7,6.3,2028.6z M1038.4,5573.8c-2.1-1.7-11.5-1.5-20.3-1c-8.8,0.8-16.4,1.4-16.7,1.5
			C964.9,5578.9,1045,5579,1038.4,5573.8z M8.3,5105.9c0-0.1,0-0.2,0-0.3c0,0,0,0.1,0,0.1C8.3,5105.8,8.3,5105.8,8.3,5105.9z
			 M8.3,5105.9c0,0.2,0,0.4,0,0.6C8.2,5106.3,8.3,5106.1,8.3,5105.9z M8.4,5103.3C8.5,5100.8,8.4,4990.7,8.4,5103.3L8.4,5103.3z
			 M8.4,5103.3c0,0.5,0,0.9-0.1,1.4C8.3,5104.2,8.3,5103.8,8.4,5103.3z M1235.8,5567.1c0.2,0.1,0.3,0.2,0.4,0.3c0,0-0.1,0-0.1-0.1
			C1236,5567.2,1236,5567.1,1235.8,5567.1z M1235.4,5566.7c-0.1-0.1-0.2-0.1-0.3-0.2C1235.2,5566.6,1235.2,5566.7,1235.4,5566.7z
			 M1175.5,5564.2c-1.3-0.9-12.1,0-13.8,0.1C1120.3,5566.2,1182.3,5569,1175.5,5564.2z M1033.3,5569.7c3.4,2.7,20.6-2.2,17.9-4.3
			C1047.8,5562.7,1030.6,5567.5,1033.3,5569.7z M633.1,5567.2C633.1,5567.2,633.1,5567.2,633.1,5567.2c0,0-0.1-0.1-0.2-0.2
			C633,5567.1,633,5567.1,633.1,5567.2z M632.9,5567.1c-0.3-0.2-0.5-0.5-0.7-0.7C632.4,5566.5,632.6,5566.7,632.9,5567.1z
			 M610.3,5572.1c1.4,1.3,11.3-2.6,8.9-4.8C617.9,5566,608,5569.9,610.3,5572.1z M595.3,5566.5c0.4,0.4,1.2,1.1,1.3,1.3
			c-0.1-0.1-0.2-0.2-0.5-0.4C595.7,5567,595.5,5566.7,595.3,5566.5z M1073.4,5561c-1.4-1.1-11.1,2.2-8.6,4.1
			C1066.2,5566.2,1075.8,5562.9,1073.4,5561z"/>
	</g>
</g>
</svg>
