<svg enable-background="new 0 0 100 100" viewBox="0 0 100 100" xmlns="http://www.w3.org/2000/svg" xmlns:xlink="http://www.w3.org/1999/xlink"><defs><path id="a" d="m77.6 50.9c-.4.8-1.1 1.3-2 1.3h-13.6c-.6 0-1.1.5-1.1 1.1v27.2c0 1.2-1 2.2-2.2 2.2h-17.4c-1.2 0-2.2-1-2.2-2.2v-27.2c0-.6-.5-1.1-1.1-1.1h-13.7c-.9 0-1.6-.5-2-1.3s-.2-1.7.3-2.3l25.7-29.3c.4-.5 1-.7 1.6-.7s1.2.3 1.6.7l25.7 29.3c.6.6.8 1.5.4 2.3zm5-50.9h-65.2c-9.6 0-17.4 7.8-17.4 17.4v65.2c0 9.6 7.8 17.4 17.4 17.4h65.2c9.6 0 17.4-7.8 17.4-17.4v-65.2c0-9.6-7.8-17.4-17.4-17.4z"/><clipPath id="b"><use xlink:href="#a"/></clipPath></defs><g fill="#fff"><use xlink:href="#a"/><path clip-path="url(#b)" d="m-21.7-21.7h143.5v143.5h-143.5z"/></g></svg>