<?xml version="1.0" encoding="utf-8"?>
<!-- Generator: Adobe Illustrator 23.0.3, SVG Export Plug-In . SVG Version: 6.00 Build 0)  -->
<svg version="1.1" id="Layer_1" xmlns="http://www.w3.org/2000/svg" xmlns:xlink="http://www.w3.org/1999/xlink" x="0px" y="0px"
	 viewBox="0 0 100 100" style="enable-background:new 0 0 100 100;" xml:space="preserve">
<style type="text/css">
	.st0{clip-path:url(#SVGID_2_);fill:#FFFFFF;}
</style>
<g id="Dark_Blue">
</g>
<g>
	<defs>
		<path id="SVGID_1_" d="M77.6,50.9c-0.4,0.8-1.1,1.3-2,1.3H62c-0.6,0-1.1,0.5-1.1,1.1v27.2c0,1.2-1,2.2-2.2,2.2H41.3
			c-1.2,0-2.2-1-2.2-2.2V53.3c0-0.6-0.5-1.1-1.1-1.1H24.3c-0.9,0-1.6-0.5-2-1.3c-0.4-0.8-0.2-1.7,0.3-2.3l25.7-29.3
			c0.4-0.5,1-0.7,1.6-0.7c0.6,0,1.2,0.3,1.6,0.7l25.7,29.3C77.8,49.2,78,50.1,77.6,50.9z M82.6,0H17.4C7.8,0,0,7.8,0,17.4v65.2
			C0,92.2,7.8,100,17.4,100h65.2c9.6,0,17.4-7.8,17.4-17.4V17.4C100,7.8,92.2,0,82.6,0z"/>
	</defs>
	<use xlink:href="#SVGID_1_"  style="overflow:visible;fill:#FFFFFF;"/>
	<clipPath id="SVGID_2_">
		<use xlink:href="#SVGID_1_"  style="overflow:visible;"/>
	</clipPath>
	<rect x="-21.7" y="-21.7" class="st0" width="143.5" height="143.5"/>
</g>
</svg>
