<svg enable-background="new 0 0 100 100" viewBox="0 0 100 100" xmlns="http://www.w3.org/2000/svg"><path d="m50 0c-27.6 0-50 22.4-50 50s22.4 50 50 50c27.55 0 50-22.4 50-50s-22.45-50-50-50zm33.03 23.05c5.97 7.27 9.54 16.54 9.65 26.57-1.41-.27-15.51-3.15-29.72-1.36-.33-.7-.6-1.46-.92-2.22-.87-2.06-1.84-4.18-2.82-6.18 15.73-6.4 22.88-15.62 23.81-16.81zm-33.03-15.67c10.85 0 20.77 4.07 28.31 10.74-.76 1.08-7.21 9.71-22.4 15.4-7-12.85-14.75-23.37-15.94-25 3.2-.77 6.56-1.14 10.03-1.14zm-18.17 4.01c1.14 1.52 8.73 12.09 15.84 24.67-19.96 5.31-37.58 5.21-39.48 5.21 2.76-13.23 11.71-24.24 23.64-29.88zm-24.56 38.66c0-.43 0-.87 0-1.3 1.84.05 22.56.33 43.87-6.07 1.25 2.39 2.39 4.83 3.47 7.27-.54.16-1.14.33-1.68.49-22.02 7.1-33.73 26.52-34.71 28.15-6.78-7.55-10.95-17.58-10.95-28.54zm42.73 42.68c-9.87 0-18.98-3.36-26.19-9 .76-1.57 9.44-18.28 33.51-26.68.11-.05.16-.05.27-.11 6.02 15.56 8.46 28.63 9.11 32.38-5.15 2.22-10.79 3.41-16.7 3.41zm23.81-7.32c-.43-2.6-2.71-15.08-8.3-30.42 13.39-2.12 25.11 1.36 26.57 1.84-1.84 11.88-8.67 22.13-18.27 28.58z" fill="#fff"/></svg>