<?xml version="1.0" encoding="utf-8"?>
<!-- Generator: Adobe Illustrator 23.0.3, SVG Export Plug-In . SVG Version: 6.00 Build 0)  -->
<svg version="1.1" xmlns="http://www.w3.org/2000/svg" xmlns:xlink="http://www.w3.org/1999/xlink" x="0px" y="0px"
	 viewBox="0 0 100 100" style="enable-background:new 0 0 100 100;" xml:space="preserve">
<style type="text/css">
	.st0{fill:#FFFFFF;}
</style>
<g id="Dark_Blue">
</g>
<g id="Logo__x2014__FIXED">
	<path class="st0" d="M50,0C22.4,0,0,22.4,0,50s22.4,50,50,50c27.55,0,50-22.4,50-50S77.55,0,50,0z M83.03,23.05
		c5.97,7.27,9.54,16.54,9.65,26.57c-1.41-0.27-15.51-3.15-29.72-1.36c-0.33-0.7-0.6-1.46-0.92-2.22c-0.87-2.06-1.84-4.18-2.82-6.18
		C74.95,33.46,82.1,24.24,83.03,23.05z M50,7.38c10.85,0,20.77,4.07,28.31,10.74c-0.76,1.08-7.21,9.71-22.4,15.4
		c-7-12.85-14.75-23.37-15.94-25C43.17,7.75,46.53,7.38,50,7.38z M31.83,11.39c1.14,1.52,8.73,12.09,15.84,24.67
		c-19.96,5.31-37.58,5.21-39.48,5.21C10.95,28.04,19.9,17.03,31.83,11.39z M7.27,50.05c0-0.43,0-0.87,0-1.3
		c1.84,0.05,22.56,0.33,43.87-6.07c1.25,2.39,2.39,4.83,3.47,7.27c-0.54,0.16-1.14,0.33-1.68,0.49
		c-22.02,7.1-33.73,26.52-34.71,28.15C11.44,71.04,7.27,61.01,7.27,50.05z M50,92.73c-9.87,0-18.98-3.36-26.19-9
		c0.76-1.57,9.44-18.28,33.51-26.68c0.11-0.05,0.16-0.05,0.27-0.11c6.02,15.56,8.46,28.63,9.11,32.38
		C61.55,91.54,55.91,92.73,50,92.73z M73.81,85.41c-0.43-2.6-2.71-15.08-8.3-30.42c13.39-2.12,25.11,1.36,26.57,1.84
		C90.24,68.71,83.41,78.96,73.81,85.41z"/>
</g>
</svg>
