<?xml version="1.0" encoding="utf-8"?>
<!-- Generator: Adobe Illustrator 23.0.3, SVG Export Plug-In . SVG Version: 6.00 Build 0)  -->
<svg version="1.1" id="Layer_1" xmlns="http://www.w3.org/2000/svg" xmlns:xlink="http://www.w3.org/1999/xlink" x="0px" y="0px"
	 viewBox="0 0 100 100" style="enable-background:new 0 0 100 100;" xml:space="preserve">
<style type="text/css">
	.st0{clip-path:url(#SVGID_2_);fill:#FFFFFF;}
	.st1{clip-path:url(#SVGID_4_);fill:#FFFFFF;}
	.st2{clip-path:url(#SVGID_6_);fill:#FFFFFF;}
</style>
<g id="Dark_Blue">
</g>
<g>
	<defs>
		<path id="SVGID_1_" d="M19,51.4c2.3,0,4.1-1.9,4.1-4.1l0-38.3c0-0.3,0.1-0.5,0.3-0.7C23.6,8.1,23.9,8,24.1,8h51.7c0.6,0,1,0.5,1,1
			l0,38.3c0,2.3,1.9,4.1,4.1,4.1s4.1-1.9,4.1-4.1l0-39.3c0-4.6-3.7-8.3-8.3-8.3H23.1c-4.6,0-8.3,3.7-8.3,8.3l0,39.3
			C14.9,49.5,16.7,51.4,19,51.4z"/>
	</defs>
	<use xlink:href="#SVGID_1_"  style="overflow:visible;fill:#FFFFFF;"/>
	<clipPath id="SVGID_2_">
		<use xlink:href="#SVGID_1_"  style="overflow:visible;"/>
	</clipPath>
	<rect x="-5.8" y="-21" class="st0" width="111.7" height="93.1"/>
</g>
<g>
	<defs>
		<path id="SVGID_3_" d="M59.9,18.4c-3.3-0.5-6.7,0.5-9,2.9L50,22.2l-0.8-0.8c-4.1-4.1-10.7-4.1-14.7,0c-4.1,4.1-4.1,10.7,0,14.7
			l14.1,14.7c0.4,0.4,0.9,0.6,1.5,0.6s1.1-0.2,1.5-0.6l14.1-14.7c3.2-3.2,3.9-8,1.9-12C66,21.1,63.2,19,59.9,18.4z"/>
	</defs>
	<use xlink:href="#SVGID_3_"  style="overflow:visible;fill:#FFFFFF;"/>
	<clipPath id="SVGID_4_">
		<use xlink:href="#SVGID_3_"  style="overflow:visible;"/>
	</clipPath>
	<rect x="10.7" y="-2.4" class="st1" width="78.6" height="74.5"/>
</g>
<g>
	<defs>
		<path id="SVGID_5_" d="M99.1,65.9l-7.2-12.4c-0.7-1.4-2.1-2.3-3.6-2.3c-1.5,0-3,0.8-3.7,2.1c-0.7,1.3-0.7,3,0.2,4.3l4.8,8.3H72.7
			c-3.4,0-6.2,2.8-6.2,6.2c0,3.4-2.8,6.2-6.2,6.2H39.7c-3.4,0-6.2-2.8-6.2-6.2c0-3.4-2.8-6.2-6.2-6.2H10.5l4.8-8.3
			c0.8-1.3,0.9-2.9,0.2-4.3c-0.7-1.3-2.2-2.2-3.7-2.1c-1.5,0-2.9,0.9-3.6,2.3L0.9,65.9c-0.3,0.6-0.5,1.3-0.6,2.1v24.8
			c0,3.4,2.8,6.2,6.2,6.2h86.9c3.4,0,6.2-2.8,6.2-6.2V67.9C99.6,67.2,99.4,66.5,99.1,65.9z"/>
	</defs>
	<use xlink:href="#SVGID_5_"  style="overflow:visible;fill:#FFFFFF;"/>
	<clipPath id="SVGID_6_">
		<use xlink:href="#SVGID_5_"  style="overflow:visible;"/>
	</clipPath>
	<rect x="-20.3" y="30.5" class="st2" width="140.6" height="89.1"/>
</g>
</svg>
