<svg enable-background="new 0 0 100 100" viewBox="0 0 100 100" xmlns="http://www.w3.org/2000/svg" xmlns:xlink="http://www.w3.org/1999/xlink"><defs><path id="a" d="m19 51.4c2.3 0 4.1-1.9 4.1-4.1v-38.3c0-.3.1-.5.3-.7s.5-.3.7-.3h51.7c.6 0 1 .5 1 1v38.3c0 2.3 1.9 4.1 4.1 4.1s4.1-1.9 4.1-4.1v-39.3c0-4.6-3.7-8.3-8.3-8.3h-53.6c-4.6 0-8.3 3.7-8.3 8.3v39.3c.1 2.2 1.9 4.1 4.2 4.1z"/><clipPath id="b"><use xlink:href="#a"/></clipPath><clipPath id="c"><use xlink:href="#e"/></clipPath><clipPath id="d"><use xlink:href="#f"/></clipPath><path id="e" d="m59.9 18.4c-3.3-.5-6.7.5-9 2.9l-.9.9-.8-.8c-4.1-4.1-10.7-4.1-14.7 0-4.1 4.1-4.1 10.7 0 14.7l14.1 14.7c.4.4.9.6 1.5.6s1.1-.2 1.5-.6l14.1-14.7c3.2-3.2 3.9-8 1.9-12-1.6-3-4.4-5.1-7.7-5.7z"/><path id="f" d="m99.1 65.9-7.2-12.4c-.7-1.4-2.1-2.3-3.6-2.3s-3 .8-3.7 2.1-.7 3 .2 4.3l4.8 8.3h-16.9c-3.4 0-6.2 2.8-6.2 6.2s-2.8 6.2-6.2 6.2h-20.6c-3.4 0-6.2-2.8-6.2-6.2s-2.8-6.2-6.2-6.2h-16.8l4.8-8.3c.8-1.3.9-2.9.2-4.3-.7-1.3-2.2-2.2-3.7-2.1-1.5 0-2.9.9-3.6 2.3l-7.3 12.4c-.3.6-.5 1.3-.6 2.1v24.8c0 3.4 2.8 6.2 6.2 6.2h86.9c3.4 0 6.2-2.8 6.2-6.2v-24.9c0-.7-.2-1.4-.5-2z"/></defs><g fill="#fff"><use xlink:href="#a"/><path clip-path="url(#b)" d="m-5.8-21h111.7v93.1h-111.7z"/><use xlink:href="#e"/><path clip-path="url(#c)" d="m10.7-2.4h78.6v74.5h-78.6z"/><use xlink:href="#f"/><path clip-path="url(#d)" d="m-20.3 30.5h140.6v89.1h-140.6z"/></g></svg>