<?xml version="1.0" encoding="utf-8"?>
<!-- Generator: Adobe Illustrator 22.0.0, SVG Export Plug-In . SVG Version: 6.00 Build 0)  -->
<svg version="1.1" id="Layer_1" xmlns="http://www.w3.org/2000/svg" xmlns:xlink="http://www.w3.org/1999/xlink" x="0px" y="0px"
	 viewBox="0 0 1005 560.6" style="enable-background:new 0 0 1005 560.6;" xml:space="preserve">
<style type="text/css">
	.st0{fill-rule:evenodd;clip-rule:evenodd;fill:#FCF7ED;}
</style>
<g>
	<g>
		<path class="st0" d="M86.2,550.8c0.2,0.2,2.1-0.4,2.1-0.4C87.5,549.5,86.2,550.8,86.2,550.8z M194.9,547.9c-0.3,0-0.6,0-0.9,0
			C194.1,548,194.4,548,194.9,547.9z M1.5,38.1C1.4,37.6,1.3,38.1,1.5,38.1L1.5,38.1z M4.8,549.9c0.2,0.2,1.5-0.2,1.3-0.4
			C5.8,549.3,4.6,549.7,4.8,549.9z M9.9,549.6c-5.1,0.1,2.2,0.6,1.7,0C11.4,549.5,10.1,549.6,9.9,549.6z M1002.1,547.7
			C1002.1,547.6,1002.1,547.6,1002.1,547.7C1002,547.7,1002,547.7,1002.1,547.7z M965.1,548.7C964.9,548.4,868,548.7,965.1,548.7
			L965.1,548.7z M954.1,548.9c-36.5,0-0.7,0.5-0.9,0.4C953,549.1,954.3,548.9,954.1,548.9z M957.1,548.9c-4,0.2,2.2,0.5,1.7,0
			C958.6,548.8,957.3,548.9,957.1,548.9z M1.5,38.1C1.5,38.7,1.6,38.1,1.5,38.1L1.5,38.1z M2.6,549.5c0,1.6,0,3,0,4.1
			C2.6,552.3,2.7,550.9,2.6,549.5z M1.6,66c0,0.1,0.1,0.9,0.1,0.8C1.7,66.6,1.6,65.8,1.6,66z M1.6,64.8c0.1-0.2-0.1-1.7-0.1-1.5
			C1.3,63.6,1.5,65,1.6,64.8z M1.7,17.8C1.8,17.6,1.7,18,1.7,17.8L1.7,17.8z M1.5,67.5c-0.1,0.2,0.1,1.7,0.1,1.5
			C1.8,68.7,1.6,67.3,1.5,67.5z M2.3,552c-0.1,0.2,0.1,1.7,0.1,1.5C2.5,553.3,2.4,551.8,2.3,552z M1.5,43C1.5,43.2,1.6,42.8,1.5,43
			L1.5,43z M3.9,544.6C4,544.4,3.9,544.6,3.9,544.6C3.9,544.6,3.9,544.6,3.9,544.6z M1.7,532.8C1.8,532.7,1.8,532.6,1.7,532.8
			C1.8,532.8,1.8,532.8,1.7,532.8z M1.5,46.8c0.4-0.8-0.1-3.4-0.1-3.4C1.2,43.9,1.7,46.4,1.5,46.8z M3.6,32c0,2.3,0.2,4.6,0.1,1.5
			C3.7,30.6,3.5,28.3,3.6,32z M3.2,14.5c0.1-0.2-0.1-1.3-0.1-1.1C2.9,13.6,3.1,14.7,3.2,14.5z M151.2,546.5
			C151.3,547.8,153,546.2,151.2,546.5L151.2,546.5z M3.2,10.4c0.1-0.2-0.1-1.3-0.1-1.1C3,9.4,3.1,10.6,3.2,10.4z M2.1,14.8
			c0.1-0.1,0-1.3,0-1.5C2.1,8.7,1.9,15.3,2.1,14.8z M2.4,2C2.4,2.1,2.4,2.1,2.4,2C2.4,2,2.5,1.9,2.4,2z M2.4,4.7
			c0-0.1-0.1-0.9-0.1-0.8C2.2,4,2.3,4.8,2.4,4.7z M4.3,14.6c0.1-0.2-0.1-1.3-0.1-1.1C4,13.7,4.2,14.8,4.3,14.6z M1.5,34.3
			c-0.2-0.1-0.2,0.6,0,0.8C1.7,35.3,1.6,34.4,1.5,34.3z M3.3,55.7C3.1,56,3.3,56.2,3.3,55.7L3.3,55.7z M3.3,64.5c0,0.1,0,0.3,0,0.4
			C3.3,64.7,3.3,64.6,3.3,64.5z M1.6,26.8c0-0.1-0.1-0.9-0.1-0.8C1.4,26.2,1.5,27,1.6,26.8z M26.9,547.8
			C27,548,26.6,547.5,26.9,547.8L26.9,547.8z M37.5,548.5c-0.2-0.2-1.5,0.2-1.3,0.4C36.4,549.1,37.7,548.7,37.5,548.5z M2.6,61.2
			c-0.1-6.4,0-13.5,0-19.8c0-0.1,0.1-0.2,0,0c0,0,0,0,0,0c0-0.4,0-0.9,0-1.3C2.4,35,2.8,27.7,2.6,22.4c0-0.6-0.3-2-0.3-2.7
			c0,0,0.3-0.5,0.3-0.7c0.3-2.5-0.3,0-0.3-1.5c0-2.5,0.2-9.8-0.1-5.7C1.7,20,1.8,33.7,1.9,41.1c0,7.4,0,14,0,20.3
			c0.1,10-0.2,477.7,0.4,487.1c0-0.4,0.2-1.2,0.2-1.1c0.1,0.6,0.1,1.3,0.1,2c0-1.9,0-4.1,0-6.6c0-1.2,0-2.4-0.1-3.7
			C2.6,533,2.7,67.8,2.6,61.2z M2.2,30.3C2.3,30,2.1,30.4,2.2,30.3L2.2,30.3z M2.2,65.3C2.3,65,2.1,65.4,2.2,65.3L2.2,65.3z
			 M69.3,548.3c5.9-0.8-6.5-0.2-5.1,0.3C66.2,549.3,68,548.5,69.3,548.3z M2.5,558.8c0-0.3,0.1-1.3,0-1.5c0,0.1,0.1-1.2,0.1-3.6
			C2.5,555.5,2.5,557.3,2.5,558.8z M1.5,54.3c0-0.1,0-1,0-1.1C1.5,49.8,1.3,54.8,1.5,54.3z M1.5,31.7c-0.1,0.2,0.1,1.3,0.1,1.1
			C1.8,32.7,1.6,31.5,1.5,31.7z M1.6,62.2c0.1-0.2-0.1-1.7-0.1-1.5C1.4,60.9,1.5,62.4,1.6,62.2z M1.4,50.5c-0.1,0.2,0.1,1.3,0.1,1.1
			C1.7,51.5,1.5,50.3,1.4,50.5z M4.7,55.6c0-0.7-0.1-1.4-0.1-2c0,0.4,0,1.1,0,2.2C4.6,55.8,4.6,55.7,4.7,55.6z M4.6,60.3
			c-0.1,0.1-0.1,0.3-0.1,0.4c0-2.1,0-3.7,0-5c0,0,0,0,0,0c-0.2-0.1-0.2-3.4-0.1-2.3c0-0.4,0-0.7,0-1.1c0,60.2-0.1,194.5-0.1,308.2
			c0.1,91.1,0.2,168.1,0.2,170.2c0,2.6,0-407.7,0-469.9c0,0.6,0.2,1.3,0.2,1.2c0,0,0,0,0,0c0-0.6,0-1.2,0-1.8
			C4.7,60.3,4.6,60.2,4.6,60.3z M1005.6,11.2c-0.2-1.9-0.9-8.1-1.2-8.5c-0.9-1.4-0.5,0-1.6,0.1c-0.3,0-0.5-0.1-0.6-0.3V2.1h-0.2V2
			l0,0.1h-1.7c-0.1-0.1-0.1-0.1-0.1-0.1c0,0-0.1,0.1-0.1,0.1H4.7v21.3c0-0.1,0,2.9,0,8.4c0,0,0,0.1,0,0.2v25c0-0.1,0-0.2,0-0.2
			c0,1.2,0,2.5,0,3.7c0,0,0,0,0,0.1v1.7c0,0,0,0,0-0.1c0,108.9,0,414.2-0.1,483.4c0-0.1,0.1-0.5,0.2-1.2c0-0.3,0-0.7,0.1-1.3h0.3
			c-0.1,0.8-0.1,1.7,0.1,2c0,0-0.1,0.1,0,0.1c0.3,0.3,1.9-0.2,1.7-0.4c-0.2-0.2-0.8-0.1-1.2,0.1c0.1-0.3,0.2-1,0.3-1.8h20.1
			c1.6,0.1,4.6,0.1,3.8,0c15.5,0.7,31.9,0.8,45.8,0.1c5.4-0.3,11.4,0.5,17.8,0.4c4-0.1,8.1-0.3,12.2-0.5h65.3
			c-2.4,0.1-4.8,0.2-7.1,0.2c-19.4,0.5-44.2,0-61.5,0.4c-11.5,0.3-22.3,0.3-34.8,1c-9.3,0.5-21.3-0.7-35.2-0.3
			c-3.7,0.1-14.7,0.4-19.5,0c-1.2-0.1-4.8,0.4,0,0.9c11.2,1.1,18.2-0.1,30.1,0.2c4.5,0.1,14.6,0.3,8.5,1c-4.3,0.5-0.4,0-6.4-0.1
			c-10.1-0.2-22.9,0.8-33.1,0.6c-5.6-0.1,4.8,0.6,6.4,0.6c3.1,0,5.3,0.2,6.8,0.1c-1.2,0,1.5-0.4,1.3-0.4c2.4-0.1,11.7,0.1,14.4,0.7
			c0.7,0.2,4.2,0.3,1.3-0.4c-4.6-1.1,2.8,0,3.8,0.1c2,0.1,4.2,0,5.5,0.1c2.5,0.3,4.9,1.3,7.6,1c0.9-0.1,2.1-1,3.4-1.2
			c4.5-0.7,11.4,0,15.7-0.1c1.9,0,6.9-0.3,6.4,0.1c0.1,0-4,0.3-3.8,0.4c1.9,1.3,4.1-0.3,7.7-0.7c1.8-0.2,5.1-0.1,5.1,0.5
			c0,0-1.2,0-1.3,0c1.8,0.2,3.9-0.1,6.8-0.3c1-0.1,2.3-0.4,3-0.4c0.9,0.1,2,1,3,0.9c0.8,0,2.3-1.2,4.3-1.2c0.1,0,1.4,0.4,1.7,0.5
			c5.5,1.3-9.1,1.1-10.2,1.1c-4,0.1-9.1,0.1-13.2,0.2c-5.6,0.1-9.5-0.1-13.6,0.1c-0.7,0-3.9,0.8-5.1,0.8c-1,0-3.8-0.5-4.2-0.5
			c-2,0.1-2.7,0.8-5.1,0.8c-4.9-0.1-11.4-0.8-16.5-0.8c-10.7,0-19.2,0.3-28,0.7c-2.3,0.1-3.3,0.1-0.4,0.4c4.3,0.5,10,0,13.2-0.2
			c8.6-0.5,18.3,0.9,28,1c-0.3,0.1-0.6,0.3-0.5,0.4c0.1,0.1,1-0.2,0.9-0.4c0.6,0,1.1,0,1.7,0c5.9,0,11.6-0.9,17-0.9
			c4.1-0.1,7.8,0,11.5-0.2c4.9-0.3,12,1.2,15.3,0.7c-0.1,0,0.5-0.8,1.7-0.8c32.5-0.8,63.5-0.7,90.8-1.9c-0.7-0.2,0.5-1.1,0.9,0
			c14.9-0.6,36.6-0.5,59.8,0c12.6,0.3,701.4,0.7,713.8,0.5c2.6,0,5.2-0.8,7.7-0.7c0.4,0,0.3,0.8,0.8,0.9c2,0.4,7,0,11,0.2
			c4.8,0.3,9.6,1.1,12.5-0.1c-0.4,0.1,1.2-0.9,1.5-1c0-0.1,0-0.3,0-0.5c0,0,0.1,0,0.1,0l1.9-0.1l0-1.7c-0.1-13.6-0.4-1.9-0.3-15.9
			c0.1-19.9,1.7-460.3,1.7-481.4c0-29.3,0.9,18.9,0.9-10.5C1006.3,29.5,1006.4,20.8,1005.6,11.2z M186.9,543.1h1.2
			c-0.3,0.2-0.8,0.6-1.1,0.3C186.8,543.3,186.8,543.2,186.9,543.1z M78.2,546.3c-3,0.1-7.7,0-13.2,0.2c-2.8,0.1-6.2,0.7-9.8-0.2
			c-3.9-1,3-0.3,3.8-0.4c6.4-0.4,17.1-0.7,22.5-0.8c1.2,0,3.9,0.1,4.7,0.5C89.4,547.3,80.1,546.3,78.2,546.3z M121,548.1
			c-2.8,0.1-3.3,0-5.9-0.1c1,0.1-3.6,0.8-2.1-0.5c0.1-0.1,4.7-0.6,6-0.7c2.1-0.2,5.3-0.5,7.2-0.3c0,0,4.1,1.6,4.6,1
			C129.8,548.6,122.5,548,121,548.1z M118.6,545.4c-6.2,0.3-12.5,0.3-18.7,0.5c-0.4,0-18.4,0.2-9.7-0.6c3.9-0.4,8.4,0.1,13.2-0.2
			c16.5-1,33.7-0.6,49.2-1.1c5.3-0.2,13.1-0.2,17.8-0.5c3-0.2,9.2,0,5.1,0.5c-0.9,0.1-1.7,0.2-2.6,0.3c0,0.1,0.2,0.2,0.1,0.1
			c0,0-0.1-0.1-0.1-0.1C155.6,546.1,136.6,544.7,118.6,545.4z M164.8,546.4c-0.2-0.2,1.1-0.6,1.3-0.4
			C166.3,546.2,165,546.6,164.8,546.4z M136.8,547.5c-0.2-0.2,0.7-0.5,0.9-0.4C137.8,547.3,136.9,547.7,136.8,547.5z M200.4,545.8
			c-5.5,0.3-0.6-0.2-3.8-0.1c-2.4,0.1-22.9,1.6-30.2,2c-3,0.1-6.3-0.3-8.9-0.5c0.6,0,1.4-0.3,1.2-0.5c-0.3-0.3-1.9,0.2-1.7,0.4
			c0,0,0.1,0,0.1,0.1c-1.2-0.1-2.3-0.2-3.1-0.1c-1.6,0.1,0.9,0.7-1.7,0.8c-2.4,0.1-4,0-6.8-0.1c-6.9-0.4,3.6-1,5.5-1.2
			c5-1.2,10.6,0.6,15.7,0.3c0.6,0,0.2-0.7-0.4-0.4c0.9-0.4,4.8-0.8,6.4-0.7c2.1,0.1,0.6,0.7,1.7,0.9c3.7,0.6,6.9-1.6,13.6-1.4
			c2.2,0.1,5.3,0.3,6.8,0.1C195.8,545.2,206.3,545.6,200.4,545.8z M203.8,545.9c-0.2-0.2,1.1-0.6,1.3-0.4
			C205.3,545.7,204,546.1,203.8,545.9z M205.5,545.5c0,0,1.3-1.3,2.1-0.4C207.7,545.1,205.8,545.8,205.5,545.5z M229.7,545.6
			c-1.5,1.5-13.9,0.2-16.1,0.1c-0.4,0-4-0.3-3.8-0.5c0.8-0.8,2.9,0.1,4.2,0.1c2.9,0,4.3,0.3,8.1,0.2
			C221.3,545.5,230.7,544.6,229.7,545.6z M231,545.6c0.5-0.7,6-0.7,6.8,0.1C238.3,546.4,231.3,545.2,231,545.6z M247.1,546
			c0,0-2.6,0.1-4.7-0.1c-2-0.2-1.9-0.1,1.3-0.4C245.8,545.3,255.8,545.8,247.1,546z M253.5,545.7c0,0,1.3-1.3,2.1-0.4
			C255.6,545.3,253.7,545.9,253.5,545.7z M1002.3,4.4V4.2C1002.3,4.3,1002.3,4.4,1002.3,4.4z M4.3,47.6c0.2,2.3,0,1.4,0.1,4.1
			c0,0.6,0.1,1.2,0.1,1.9c0-0.4,0-0.5,0-0.5c0,0,0.3,1.9,0.1,2.5c0,0.4,0,0.7,0.1,1.1c0-10.7,0-19.2,0-24.9c-0.1-2-0.2-5.4-0.3-7.2
			c-0.1-4.9-0.1-5.5-0.2-3.8c0,0.3,0,0.5,0,0.6C4.3,24.3,4.3,33.5,4.3,47.6z M4.3,20.8c0-1.5-0.2-5.2-0.2-5
			c-0.4,0.8-0.2,11.6-0.2,13.5c0,3.8,0,7.4,0,9.8c-0.1-0.9-0.1-1.5-0.2-1.3c-0.3,0.6,0.1,3.6,0.1,3.5c0,0.6-0.1,1.2,0,1.8
			c0.1,0.9,0.1,1.3,0.2,1.3c0,0.4,0,0.8,0,1.1c0,0.2,0,0.4,0.1,0.7C4.1,41.6,4.2,24.8,4.3,20.8z M4.5,543.6c0,0.1,0,0.1,0,0.2
			c0,1.8,0,3.1,0,3.9c0.1,3.3,0.1,7,0.2,12.1c0,0.1,0-5,0-14.1C4.6,546,4.6,543.8,4.5,543.6z M4.1,142.5c0,100,0,275.9-0.1,354.3
			c0,17.6,0,29.5,0,33.6c0-0.4-0.1-0.9-0.1-1.3c0-6.7,0.1-17.9,0.1-32.4C3.9,386.6,3.8,56,3.8,59.8c0,2.1-0.1,86.6-0.1,183.5
			c0-71.9,0-138.7-0.1-178.4c0.1,2.1,0.2,3.9,0-0.2c0-1.4,0-2.7,0-4c0.1-0.1,0.1-0.5,0-0.8c0-2.1,0-4.2,0-6.1c0,0,0,0,0,0
			c0.1,3,0.2,4.6,0.4,5.9c0-2.5,0-5.4,0-8.1c0-1.1-0.1-3.3-0.2-5c-0.1-0.1-0.1-0.3-0.2-0.9c0-7.5,0-12.8,0-15.7
			c0.1-0.6,0.1-1.4,0-2.2c0-0.1,0-0.2,0-0.3c0,0,0,0,0,0.1c-0.1-0.9-0.2-1.7-0.2-1.8c-0.2,0.5,0.1,2.3,0.1,3.5c0,0.2,0,0.5,0,0.8
			c0,0.1,0,0.2,0,0.2c0,0,0-0.1,0-0.1c0,2.7,0,7.5,0,14c-0.1-1-0.2-2.5-0.3-4.7c0-0.2,0-0.4,0-0.5c0.1-2.2,0.2-4.4,0.1-6.4
			c0,0.4-0.2,1.7-0.2,1.5c-0.2-1.1,0-3.6,0.1-5.3c0.1-5.1,0.5-8.7,0-12.8c-0.2-1.8-0.2,6.5-0.3,8.3C2.7,36.6,2.7,39.1,2.7,48.4
			c0,0.5,0,0.9,0,1.4c-0.1-0.3-0.1-0.4-0.1-0.4c-0.1,0.2,0.1,1.9,0.1,1.9c0,0,0,0,0,0c0,0.8,0,1.5,0,2.3c0,0,0,0,0,0
			c-0.1,0.1,0,0.7,0,1.1c0,2.1,0,4.3,0,6.6c0,1,0,10.3,0,25.7C2.7,201.4,2.9,476.9,2.7,542.9c0.1,2.7,0.2,5.2,0.3,8
			C3,552.3,3,522.8,3,477.2c0,22.1,0,40.3,0,52.8c0,0.1,0,0.5,0,0.9c0,0.4,0,0.9,0,1.3c0,0,0,0,0,0c0,0.1,0,0.3,0,0.5
			c0,9.3,0,15,0,15.9c0,0.2,0-2.2,0-6.8c0,1.1,0.1,1.9,0.2,2.4c-0.1-0.2,0-1.1,0-1.9c0,0.9,0,1.5,0,1.8c0,3.9,0.2,12.2,0.2,16.6
			c0,0.3,0-4.2,0-12.7c0,0.4,0.1,0.8,0.1,0.7c0.1-0.2-0.1-1.7-0.1-1.5c0,0,0,0,0,0c0-1.9,0-3.9,0-6.1c0,0.2,0,0.6,0,1.2
			c0,1.3,0,2.2,0.3,3c-0.3-0.9,0.4-1.4,0.6-1.7c-0.1-19.3-0.2-95-0.2-183.1C4.2,286.2,4.1,202.4,4.1,142.5z M3.1,34.8
			c0.1-0.2,0.2,0.7,0.1,0.8C3.1,35.8,3,34.9,3.1,34.8z M3,36.3c0.1-0.2,0.2,1,0.1,1.1C3.1,37.7,3,36.5,3,36.3z M3.2,45.2
			c0.1,2.4,0.2,5,0.2,7.6c0,0,0,0-0.1,0c0,0.1,0,0.2,0,0.2c0-0.1,0-0.2,0-0.3c0,0,0,0,0,0c0.1-0.5,0-0.8,0-0.9c0-0.2,0-0.5,0-0.7
			c0-0.4-0.1-0.8-0.2-1.3c0,0,0,0,0-0.1c0-0.2-0.1-0.3-0.1-0.5c0-0.3,0-1.2,0-1.4c0-2.1,0-1.9-0.1-1C3,45.9,3.1,45.3,3.2,45.2z
			 M3.4,57.8c-0.1,0.2-0.1,0.6,0,1.2c0,0.3,0,0.7,0,0.9c-0.4,0.4,0,1.6,0,0.6c0,0.1,0,0.3,0,0.5c0,0.4,0,0.7,0,1.1
			c-0.1-0.4-0.2-0.8-0.2-0.8c-0.1,0.2,0.1,1.5,0.1,1.8c-0.2,1.2-0.1,0.5,0.1,0.5c0,6.9,0,14.7,0,23.2c0.1,85.3-0.1,387.1-0.1,447
			c0-0.3-0.1-0.6-0.1-0.5c-0.1,0.2,0,1.4,0.1,1.5c-0.1,2-0.2,4.2-0.2,6c0-2.2,0-4.8,0-7.9c0,0.1,0,0.1,0.1,0.1c0-0.1,0-0.5-0.1-0.7
			c0-0.3,0-0.7,0-1.1c0,0.2,0.1,0.3,0.1,0.2c0.1-0.2,0-1.3-0.1-1.5c0-70.9,0.1-326.1,0.3-443.2c0-12.1,0-19.8-0.1-21.9
			c0,1.1-0.1,1.9-0.2,1.5C3,66.2,3,65.7,3,65c0-0.1,0-0.2,0-0.2c0-0.1,0-0.3,0-0.4c0,0,0,0,0,0c0,0,0-0.2,0-0.4c0-0.4,0-0.7,0-1.1
			c0.1-0.4,0.1-0.8,0.1-1.2c0.1-1.5,0.2-3.1,0.1-4.2c0,0.4-0.1,1-0.2,0.4C3,56.7,3.2,54.9,3.3,53c0,0.3,0,0.4,0.1,0.4
			c0,0.8,0,1.6,0,2.4c0.1,0.1,0.1,0.4,0.1,0.6C3.4,56.8,3.4,57.3,3.4,57.8z M3.8,530.9c0,0.2,0,0.4,0,0.5
			C3.8,531.3,3.8,531.1,3.8,530.9z M3.8,536.3c0-0.3,0-1.2,0-2.5c0,0.4,0,0.9,0,1.2C3.8,535.5,3.8,536,3.8,536.3c0,0.1,0,0.2,0,0.2
			C3.7,536.4,3.7,536.4,3.8,536.3z M3.6,531.7c0-37.5,0-107,0.1-182.7c0,85.7,0,161.2,0,179.2c-0.1,0.2,0,0.6,0,1.1c0,2,0,3,0,3
			C3.7,532.1,3.6,531.9,3.6,531.7z M3.8,540.2c-0.1,0.2-0.2-1.3-0.1-1.5C3.7,538.5,3.9,539.9,3.8,540.2z M3.8,538.3
			c-0.1,0.2-0.2-1-0.1-1.1C3.8,537,3.9,538.1,3.8,538.3z M3.9,531.9c0-0.3,0-0.2,0,0.1c0-0.5-0.1,0.5-0.1,1.6c0-0.6,0-1.3,0-2.1
			c0.1-0.2,0.1-0.5,0.1-0.8C3.9,531.6,3.9,532,3.9,531.9z M4.2,535c-0.1,0.2-0.2-1-0.1-1.1C4.1,533.6,4.3,534.8,4.2,535z M4.2,532
			c-0.1,0.2-0.2-1-0.1-1.1C4.2,530.6,4.3,531.8,4.2,532z M3.9,46.9c0-0.3,0-0.8,0-1.5c0-0.4-0.1-0.8,0-0.9c-0.1,0.3-0.1,1.2-0.1,2.2
			C3.8,46.7,3.9,46.7,3.9,46.9z M4,59.7c0,0.6,0,1.2,0,1.7c0,0.4,0,33.1,0.1,81c0-43.2,0-72.2,0.1-73.1C4.4,63,4.2,62,4,59.7z M4,47
			C4,46.9,4,46.9,4,47C4,47.2,4,47.2,4,47z M4,46c0,0.4,0,0.7,0,0.9c0.1,0.4,0.2,1.6,0.4,5.5c0-1.4,0-2.8,0-4.1
			C4.3,48.1,4.1,47,4,46z M4.3,47.6c0,0.2,0,0.5,0,0.7C4.4,48.5,4.4,48.4,4.3,47.6z M4.3,47.5C4.3,47.6,4.3,47.6,4.3,47.5
			C4.3,47.6,4.3,47.6,4.3,47.5C4.3,47.6,4.3,47.6,4.3,47.5z"/>
	</g>
</g>
</svg>
