<?xml version="1.0" encoding="utf-8"?>
<!-- Generator: Adobe Illustrator 22.0.0, SVG Export Plug-In . SVG Version: 6.00 Build 0)  -->
<svg version="1.1" id="Layer_1" xmlns="http://www.w3.org/2000/svg" xmlns:xlink="http://www.w3.org/1999/xlink" x="0px" y="0px"
	 viewBox="0 0 1007.5 608.6" style="enable-background:new 0 0 1007.5 608.6;" xml:space="preserve">
<style type="text/css">
	.st0{fill-rule:evenodd;clip-rule:evenodd;fill:#FCF7ED;}
</style>
<g>
	<g>
		<path class="st0" d="M4.3,12.7c0.1-0.2-0.1-1.3-0.1-1.1C4,11.7,4.2,12.8,4.3,12.7z M1.5,65.5c-0.1,0.2,0.1,1.7,0.1,1.5
			C1.8,66.8,1.6,65.3,1.5,65.5z M3.2,12.6c0.1-0.2-0.1-1.3-0.1-1.1C2.9,11.6,3.1,12.8,3.2,12.6z M3.6,30.1c0,2.3,0.2,4.6,0.1,1.5
			C3.7,28.7,3.5,26.3,3.6,30.1z M3.2,8.4c0.1-0.2-0.1-1.3-0.1-1.1C3,7.5,3.1,8.6,3.2,8.4z M1.6,64c0,0.1,0.1,0.9,0.1,0.8
			C1.7,64.7,1.6,63.9,1.6,64z M9.9,597.7c-5.1,0.1,2.2,0.6,1.7,0C11.4,597.6,10.1,597.7,9.9,597.7z M3.9,592.7
			C4,592.5,3.9,592.6,3.9,592.7C3.9,592.7,3.9,592.7,3.9,592.7z M4.8,598c0.2,0.2,1.5-0.2,1.3-0.4C5.8,597.4,4.6,597.8,4.8,598z
			 M1.7,15.9C1.8,15.6,1.7,16,1.7,15.9L1.7,15.9z M1.7,580.8C1.8,580.8,1.8,580.7,1.7,580.8C1.8,580.8,1.8,580.8,1.7,580.8z
			 M2.3,600.1c-0.1,0.2,0.1,1.7,0.1,1.5C2.5,601.3,2.4,599.9,2.3,600.1z M1.5,32.4c-0.2-0.1-0.2,0.6,0,0.8
			C1.7,33.3,1.6,32.4,1.5,32.4z M1.5,52.4c0-0.1,0-1,0-1.1C1.5,47.8,1.3,52.8,1.5,52.4z M2.4,0.1C2.4,0.1,2.4,0.1,2.4,0.1
			C2.4,0.1,2.5-0.1,2.4,0.1z M1.6,62.9c0.1-0.2-0.1-1.7-0.1-1.5C1.3,61.6,1.5,63.1,1.6,62.9z M86.2,598.8c0.2,0.2,2.1-0.4,2.1-0.4
			C87.5,597.6,86.2,598.8,86.2,598.8z M2.4,2.7c0-0.1-0.1-0.9-0.1-0.8C2.2,2.1,2.3,2.9,2.4,2.7z M1.4,48.6c-0.1,0.2,0.1,1.3,0.1,1.1
			C1.7,49.5,1.5,48.4,1.4,48.6z M1.6,24.9c0-0.1-0.1-0.9-0.1-0.8C1.4,24.2,1.5,25.1,1.6,24.9z M1.6,60.3c0.1-0.2-0.1-1.7-0.1-1.5
			C1.4,59,1.5,60.5,1.6,60.3z M1.5,36.2C1.4,35.6,1.3,36.2,1.5,36.2L1.5,36.2z M1.5,29.8c-0.1,0.2,0.1,1.3,0.1,1.1
			C1.8,30.7,1.6,29.6,1.5,29.8z M1.5,44.8c0.4-0.8-0.1-3.4-0.1-3.4C1.2,41.9,1.7,44.5,1.5,44.8z M1.5,41.1
			C1.5,41.2,1.6,40.8,1.5,41.1L1.5,41.1z M1.5,36.2C1.5,36.7,1.6,36.1,1.5,36.2L1.5,36.2z M2.1,12.9c0.1-0.1,0-1.3,0-1.5
			C2.1,6.8,1.9,13.4,2.1,12.9z M2.6,59.2c-0.1-6.4,0-13.5,0-19.8c0-0.1,0.1-0.2,0,0c0,0,0,0,0,0c0-0.4,0-0.9,0-1.3
			c-0.1-5.1,0.3-12.3,0.1-17.7c0-0.6-0.3-2-0.3-2.7c0,0,0.3-0.5,0.3-0.7c0.3-2.5-0.3,0-0.3-1.5c0-2.5,0.2-9.8-0.1-5.7
			c-0.6,8.2-0.4,21.9-0.4,29.3c0,7.4,0,14,0,20.3c0.1,10-0.2,527.7,0.4,537.1c0-0.4,0.2-1.2,0.2-1.1c0.1,0.6,0.1,1.3,0.1,1.9
			c0-1.9,0-4.2,0-6.7c0-1.1,0-2.3,0-3.5C2.6,581.1,2.7,65.9,2.6,59.2z M2.2,28.3C2.3,28.1,2.1,28.5,2.2,28.3L2.2,28.3z M2.2,63.3
			C2.3,63.1,2.1,63.5,2.2,63.3L2.2,63.3z M151.2,594.6C151.3,595.9,153,594.2,151.2,594.6L151.2,594.6z M26.9,595.9
			C27,596.1,26.6,595.6,26.9,595.9L26.9,595.9z M3.3,62.5c0,0.1,0,0.2,0,0.4C3.3,62.7,3.3,62.6,3.3,62.5z M69.3,596.3
			c5.9-0.8-6.5-0.2-5.1,0.3C66.2,597.4,68,596.5,69.3,596.3z M3.3,53.8C3.1,54,3.3,54.3,3.3,53.8L3.3,53.8z M37.5,596.5
			c-0.2-0.2-1.5,0.2-1.3,0.4C36.4,597.2,37.7,596.8,37.5,596.5z M957.1,597c-4,0.2,2.2,0.5,1.7,0C958.6,596.9,957.3,597,957.1,597z
			 M1002.1,595.8C1002.1,595.7,1002.1,595.7,1002.1,595.8C1002,595.8,1002,595.8,1002.1,595.8z M194.9,595.9c-0.3,0-0.6,0-0.9,0
			C194.1,596,194.4,596,194.9,595.9z M2.6,597.5c0,1.7,0,3.2,0,4.4C2.6,600.4,2.7,598.9,2.6,597.5z M954.1,596.9
			c-36.5,0-0.7,0.5-0.9,0.4C953,597.1,954.3,596.9,954.1,596.9z M2.5,606.9c0-0.3,0.1-1.3,0-1.5c0,0.1,0-1.1,0.1-3.5
			C2.5,603.6,2.5,605.4,2.5,606.9z M965.1,596.7C964.9,596.4,868,596.7,965.1,596.7L965.1,596.7z M4.5,591.7c0,0.1,0,0.1,0,0.2
			c0,1.8,0,3.1,0,3.9c0.1,3.3,0.1,7,0.2,12.1c0,0,0-5,0-14.1C4.6,594,4.6,591.9,4.5,591.7z M1005.6,9.3c-0.2-1.9-0.9-8.1-1.2-8.5
			c-0.9-1.4-0.5,0-1.6,0.1c-0.3,0-0.5-0.1-0.6-0.3V0.2h-0.2V0l0,0.1h-1.7c-0.1-0.1-0.1-0.1-0.1-0.1c0,0-0.1,0.1-0.1,0.1H4.7v21.3
			c0-0.1,0,2.9,0,8.4c0,0,0,0.1,0,0.1v25c0-0.1,0-0.1,0-0.2c0,1.2,0,2.4,0,3.7c0,0,0,0,0,0.1v1.7c0,0,0,0,0,0
			c0,116.4,0,459.6-0.1,533.4c0-0.1,0.1-0.5,0.2-1.3c0-0.3,0-0.7,0.1-1.3h0.3c-0.1,0.8-0.1,1.7,0.1,2c0,0-0.1,0.1,0,0.1
			c0.3,0.3,1.9-0.2,1.7-0.4c-0.2-0.2-0.8-0.1-1.2,0.1c0.1-0.3,0.2-1,0.3-1.8h20.1c1.6,0.1,4.6,0.1,3.8,0c15.5,0.7,31.9,0.8,45.8,0.1
			c5.4-0.3,11.4,0.5,17.8,0.4c4-0.1,8.1-0.3,12.2-0.5h65.3c-2.4,0.1-4.8,0.2-7.1,0.2c-19.4,0.5-44.2,0-61.5,0.4
			c-11.5,0.3-22.3,0.3-34.8,1c-9.3,0.5-21.3-0.7-35.2-0.3c-3.7,0.1-14.7,0.4-19.5,0c-1.2-0.1-4.8,0.4,0,0.9
			c11.2,1.1,18.2-0.1,30.1,0.2c4.5,0.1,14.6,0.3,8.5,1c-4.3,0.5-0.4,0-6.4-0.1c-10.1-0.2-22.9,0.8-33.1,0.6
			c-5.6-0.1,4.8,0.6,6.4,0.6c3.1,0,5.3,0.2,6.8,0.1c-1.2,0,1.5-0.4,1.3-0.4c2.4-0.1,11.7,0.1,14.4,0.7c0.7,0.2,4.2,0.3,1.3-0.4
			c-4.6-1.1,2.8,0,3.8,0.1c2,0.1,4.2,0,5.5,0.1c2.5,0.3,4.9,1.3,7.6,1c0.9-0.1,2.1-1,3.4-1.2c4.5-0.7,11.4,0,15.7-0.1
			c1.9,0,6.9-0.3,6.4,0.1c0.1,0-4,0.3-3.8,0.4c1.9,1.3,4.1-0.3,7.7-0.7c1.8-0.2,5.1-0.1,5.1,0.5c0,0-1.2,0-1.3,0
			c1.8,0.2,3.9-0.1,6.8-0.3c1-0.1,2.3-0.4,3-0.4c0.9,0.1,2,1,3,0.9c0.8,0,2.3-1.2,4.3-1.2c0.1,0,1.4,0.4,1.7,0.5
			c5.5,1.3-9.1,1.1-10.2,1.1c-4,0.1-9.1,0.1-13.2,0.2c-5.6,0.1-9.5-0.1-13.6,0.1c-0.7,0-3.9,0.8-5.1,0.8c-1,0-3.8-0.5-4.2-0.5
			c-2,0.1-2.7,0.8-5.1,0.8c-4.9-0.1-11.4-0.8-16.5-0.8c-10.7,0-19.2,0.3-28,0.7c-2.3,0.1-3.3,0.1-0.4,0.4c4.3,0.5,10,0,13.2-0.2
			c8.6-0.5,18.3,0.9,28,1c-0.3,0.1-0.6,0.3-0.5,0.4c0.1,0.1,1-0.2,0.9-0.4c0.6,0,1.1,0,1.7,0c5.9,0,11.6-0.9,17-0.9
			c4.1-0.1,7.8,0,11.5-0.2c4.9-0.3,12,1.2,15.3,0.7c-0.1,0,0.5-0.8,1.7-0.8c32.5-0.8,63.5-0.7,90.8-1.9c-0.7-0.2,0.5-1.1,0.9,0
			c14.9-0.6,36.6-0.5,59.8,0c12.6,0.3,701.4,0.7,713.8,0.5c2.6,0,5.2-0.8,7.7-0.7c0.4,0,0.3,0.8,0.8,0.9c2,0.4,7,0,11,0.2
			c4.8,0.3,9.6,1.1,12.5-0.1c-0.4,0.1,1.2-0.9,1.5-1c0-0.1,0-0.3,0-0.5c0,0,0.1,0,0.1,0l1.9-0.1l0-1.7c-0.1-13.6-0.4-1.9-0.3-15.9
			c0.1-19.9,1.7-510.3,1.7-531.4c0-29.3,0.9,18.9,0.9-10.5C1006.3,27.5,1006.4,18.9,1005.6,9.3z M186.9,591.2h1.2
			c-0.3,0.2-0.8,0.6-1.1,0.3C186.8,591.4,186.8,591.3,186.9,591.2z M78.2,594.4c-3,0.1-7.7,0-13.2,0.2c-2.8,0.1-6.2,0.7-9.8-0.2
			c-3.9-1,3-0.3,3.8-0.4c6.4-0.4,17.1-0.7,22.5-0.8c1.2,0,3.9,0.1,4.7,0.5C89.4,595.4,80.1,594.3,78.2,594.4z M121,596.1
			c-2.8,0.1-3.3,0-5.9-0.1c1,0.1-3.6,0.8-2.1-0.5c0.1-0.1,4.7-0.6,6-0.7c2.1-0.2,5.3-0.5,7.2-0.3c0,0,4.1,1.6,4.6,1
			C129.8,596.6,122.5,596.1,121,596.1z M118.6,593.5c-6.2,0.3-12.5,0.3-18.7,0.5c-0.4,0-18.4,0.2-9.7-0.6c3.9-0.4,8.4,0.1,13.2-0.2
			c16.5-1,33.7-0.6,49.2-1.1c5.3-0.2,13.1-0.2,17.8-0.5c3-0.2,9.2,0,5.1,0.5c-0.9,0.1-1.7,0.2-2.6,0.3c0,0.1,0.2,0.2,0.1,0.1
			c0,0-0.1-0.1-0.1-0.1C155.6,594.2,136.6,592.7,118.6,593.5z M164.8,594.4c-0.2-0.2,1.1-0.6,1.3-0.4
			C166.3,594.3,165,594.7,164.8,594.4z M136.8,595.6c-0.2-0.2,0.7-0.5,0.9-0.4C137.8,595.4,136.9,595.7,136.8,595.6z M200.4,593.9
			c-5.5,0.3-0.6-0.2-3.8-0.1c-2.4,0.1-22.9,1.6-30.2,2c-3,0.1-6.3-0.3-8.9-0.5c0.6,0,1.4-0.3,1.2-0.5c-0.3-0.3-1.9,0.2-1.7,0.4
			c0,0,0.1,0,0.1,0.1c-1.2-0.1-2.3-0.2-3.1-0.1c-1.6,0.1,0.9,0.7-1.7,0.8c-2.4,0.1-4,0-6.8-0.1c-6.9-0.4,3.6-1,5.5-1.2
			c5-1.2,10.6,0.6,15.7,0.3c0.6,0,0.2-0.7-0.4-0.4c0.9-0.4,4.8-0.8,6.4-0.7c2.1,0.1,0.6,0.7,1.7,0.9c3.7,0.6,6.9-1.6,13.6-1.4
			c2.2,0.1,5.3,0.3,6.8,0.1C195.8,593.3,206.3,593.6,200.4,593.9z M203.8,594c-0.2-0.2,1.1-0.6,1.3-0.4
			C205.3,593.8,204,594.2,203.8,594z M205.5,593.6c0,0,1.3-1.3,2.1-0.4C207.7,593.2,205.8,593.8,205.5,593.6z M229.7,593.6
			c-1.5,1.5-13.9,0.2-16.1,0.1c-0.4,0-4-0.3-3.8-0.5c0.8-0.8,2.9,0.1,4.2,0.1c2.9,0,4.3,0.3,8.1,0.2
			C221.3,593.5,230.7,592.7,229.7,593.6z M231,593.7c0.5-0.7,6-0.7,6.8,0.1C238.3,594.5,231.3,593.2,231,593.7z M247.1,594
			c0,0-2.6,0.1-4.7-0.1c-2-0.2-1.9-0.1,1.3-0.4C245.8,593.3,255.8,593.8,247.1,594z M253.5,593.7c0,0,1.3-1.3,2.1-0.4
			C255.6,593.3,253.7,594,253.5,593.7z M1002.3,2.5V2.2C1002.3,2.4,1002.3,2.4,1002.3,2.5z M4.1,149c0,110.8,0,304.9-0.1,391.6
			c0,20,0,33.5,0,37.9c0-0.4-0.1-0.9-0.1-1.3c0-7.4,0.1-20,0.1-36.6c0-122.3-0.1-486.4-0.2-482.7c0,2.1-0.1,95.5-0.1,202.7
			c0-80.5,0-154.9-0.1-197.6c0.1,2.1,0.2,4,0-0.1c0,0,0,0,0,0c0-1.3,0-2.6,0-3.9c0.1-0.1,0.1-0.6,0-0.8c0-2,0-3.9,0-5.7
			c0-0.3,0-0.5,0-0.5c0.1,3,0.2,4.6,0.4,5.9c0-2.5,0-5.4,0-8.1c0-1.1-0.1-3.3-0.2-5c-0.1-0.1-0.1-0.3-0.2-0.9c0-7.4,0-12.8,0-15.7
			c0.1-0.6,0.1-1.4,0-2.2c0-0.1,0-0.2,0-0.3c0,0,0,0,0,0.1c-0.1-0.9-0.2-1.7-0.2-1.8c-0.2,0.5,0.1,2.3,0.1,3.5c0,0.2,0,0.5,0,0.8
			c0,0.1,0,0.2,0,0.2c0,0,0-0.1,0-0.1c0,2.7,0,7.5,0,14c-0.1-1-0.2-2.5-0.3-4.7c0-0.2,0-0.4,0-0.5c0.1-2.2,0.2-4.4,0.1-6.4
			c0,0.4-0.2,1.7-0.2,1.5c-0.2-1.1,0-3.6,0.1-5.3c0.1-5.1,0.5-8.7,0-12.8c-0.2-1.8-0.2,6.5-0.3,8.3C2.7,34.6,2.7,37.1,2.7,46.4
			c0,0.5,0,0.9,0,1.4c-0.1-0.3-0.1-0.4-0.1-0.4c-0.1,0.2,0.1,1.9,0.1,1.9c0,0,0,0,0,0c0,0.8,0,1.5,0,2.3c0,0,0,0,0,0
			c-0.1,0.1,0,0.7,0,1.1c0,2.1,0,4.3,0,6.6c0,1.1,0,11.7,0,29.2c-0.1,125.5,0.2,432-0.1,502.4c0.1,2.7,0.2,5.3,0.3,8.2
			C3,600.4,3,568.1,3,518.2c0,25.4,0,46.1,0.1,59.9c0,0.1,0,0.5,0,0.9c0,0.4,0,0.9,0,1.3c0,0,0,0,0,0c0,0.1,0,0.3,0,0.5
			c0,9.4,0,15,0,15.9c0,0.1,0-2.2,0-6.8c0,1.1,0.1,2,0.2,2.4c-0.1-0.2,0-1.1,0-1.9c0,1,0,1.5,0,1.8c0,3.9,0.2,12.2,0.2,16.6
			c0,0.3,0-4.2,0-12.7c0,0.4,0.1,0.8,0.1,0.7c0.1-0.2-0.1-1.7-0.1-1.5c0,0,0,0,0,0.1c0-1.9,0-3.9,0-6.1c0,0.2,0,0.6,0,1.3
			c0,1.3,0,2.2,0.3,3c-0.3-0.9,0.4-1.4,0.6-1.7C4.3,571.6,4.3,488,4.3,390.7C4.2,308.2,4.1,215.3,4.1,149z M3.1,32.9
			c0.1-0.2,0.2,0.7,0.1,0.8C3.1,33.8,3,33,3.1,32.9z M3,34.4c0.1-0.2,0.2,1,0.1,1.1C3.1,35.7,3,34.6,3,34.4z M3.2,43.2
			c0.1,2.4,0.2,5,0.2,7.6c0,0,0,0-0.1,0c0,0.1,0,0.2,0,0.2c0-0.1,0-0.2,0-0.3c0,0,0,0,0,0c0.1-0.5,0-0.8,0-0.9c0-0.2,0-0.5,0-0.7
			c0-0.4-0.1-0.8-0.2-1.3c0,0,0,0,0-0.1c0-0.2-0.1-0.3-0.1-0.5c0-0.3,0-1.2,0-1.4c0-2.1,0-1.9-0.1-1C3,43.9,3.1,43.4,3.2,43.2z
			 M3.4,55.8c-0.1,0.2-0.1,0.6,0,1.2c0,0.3,0,0.7,0,0.9c-0.4,0.4,0,1.6,0,0.6c0,0.2,0,0.5,0,0.9c0,0.2,0,0.5,0,0.7
			c-0.1-0.4-0.2-0.8-0.2-0.8c-0.1,0.2,0.1,1.5,0.1,1.8c-0.2,1.2,0,0.5,0.1,0.5c0,7.9,0,17,0,27.1c0.1,96.7-0.1,430-0.1,493.1
			c0-0.3-0.1-0.6-0.1-0.5c-0.1,0.2,0,1.4,0.1,1.5c-0.1,2.1-0.2,4.3-0.2,6c0-2.2,0-4.9,0-8c0,0.1,0.1,0.1,0.1,0.1
			c0-0.1,0-0.5-0.1-0.7c0-0.3,0-0.7,0-1.1c0,0.2,0.1,0.3,0.1,0.2c0.1-0.2,0-1.3-0.1-1.5c0-75.5,0.1-360.9,0.3-489.3
			c0-14.3,0-23.4-0.1-25.7c0,1.1-0.1,1.9-0.2,1.4C3,64.3,3,63.7,3,63.1V63c0-0.2,0-0.3,0-0.5c0,0,0,0,0,0c0,0,0-0.2,0-0.4
			c0-0.4,0-0.7,0-1.1c0.1-0.4,0.1-0.8,0.1-1.2c0.1-1.5,0.2-3.1,0.1-4.2c0,0.4-0.1,1-0.2,0.4C3,54.8,3.2,53,3.3,51.1
			c0,0.3,0,0.4,0.1,0.4c0,0.8,0,1.6,0,2.4c0.1,0.1,0.1,0.4,0.1,0.6C3.4,54.9,3.4,55.4,3.4,55.8z M3.8,578.9c0,0.3,0,0.5,0,0.6
			C3.8,579.3,3.8,579.1,3.8,578.9z M3.6,579.7c0-40.2,0-117.6,0.1-202c0,95.4,0,179.4,0,198.6c-0.1,0.2,0,0.6,0,1.1c0,2,0,3,0,3
			C3.7,580.1,3.6,579.9,3.6,579.7z M3.8,588.2c-0.1,0.2-0.2-1.3-0.1-1.5C3.7,586.5,3.9,588,3.8,588.2z M3.8,586.3
			c-0.1,0.2-0.2-1-0.1-1.1C3.8,585,3.9,586.2,3.8,586.3z M3.9,580c0-0.3,0-0.2,0,0.1c-0.1-0.8-0.1,1.6-0.1,2.9c0,0.6,0,1.1-0.1,1.4
			c0-0.4,0-2.1,0.1-4.8c0.1-0.2,0.1-0.5,0.1-0.8C3.9,579.7,3.9,580.1,3.9,580z M4.2,583c-0.1,0.2-0.2-1-0.1-1.1
			C4.1,581.7,4.3,582.8,4.2,583z M4.2,580c-0.1,0.2-0.2-1-0.1-1.1C4.2,578.7,4.3,579.8,4.2,580z M4.3,45.7c0,0.2,0,0.5,0,0.7
			C4.4,46.6,4.4,46.4,4.3,45.7z M4,44.1c0,0.4,0,0.7,0,0.9c0.1,0.4,0.2,1.6,0.4,5.5c0-1.4,0-2.8,0-4.1C4.3,46.1,4.1,45.1,4,44.1z
			 M4.7,53.7c0-0.7-0.1-1.4-0.1-2c0,0.4,0,1.2,0,2.2C4.6,53.9,4.6,53.8,4.7,53.7z M4.3,45.6C4.3,45.6,4.3,45.6,4.3,45.6L4.3,45.6
			C4.3,45.6,4.3,45.6,4.3,45.6z M4,45C4,45,4,45,4,45C4,45.3,4,45.3,4,45z M4.6,58.4c-0.1,0.1-0.1,0.3-0.1,0.4c0-2.1,0-3.7,0-4.9
			c0,0,0,0,0,0c-0.2-0.1-0.2-3.4-0.1-2.3c0-0.4,0-0.7,0-1.1c0,64.2-0.1,213.8-0.1,340.2c0.1,100.9,0.2,186.1,0.2,188.2
			c0,2.6,0-454.1,0-519.9c0,0.6,0.2,1.3,0.2,1.2c0,0,0,0,0,0c0-0.6,0-1.2,0-1.8C4.7,58.3,4.6,58.3,4.6,58.4z M4,57.8
			c0,0.6,0,1.2,0,1.7C4,59.9,4,96,4.1,149c0-48.2,0-80.7,0.1-81.6C4.4,61.1,4.2,60,4,57.8z M4.3,45.7c0.2,2.3,0,1.4,0.1,4.1
			c0,0.6,0.1,1.2,0.1,2c0-0.4,0-0.5,0-0.5c0,0,0.3,1.9,0.1,2.5c0,0.4,0,0.7,0.1,1.1c0-10.7,0-19.2,0-24.9c-0.1-2-0.2-5.4-0.3-7.2
			c-0.1-4.9-0.1-5.5-0.2-3.8c0,0.3,0,0.5,0,0.6C4.3,22.2,4.3,31.4,4.3,45.7z M4.3,18.8c0-1.5-0.2-5.2-0.2-5
			c-0.4,0.8-0.2,11.6-0.2,13.5c0,3.8,0,7.4,0,9.8c-0.1-0.9-0.1-1.5-0.2-1.3c-0.3,0.6,0.1,3.6,0.1,3.5c0,0.6-0.1,1.2,0,1.8
			c0.1,0.9,0.1,1.3,0.2,1.3c0,0.4,0,0.8,0,1.1c0,0.2,0,0.4,0.1,0.7C4.1,39.6,4.2,22.8,4.3,18.8z M3.9,44.9c0-0.3,0-0.8,0-1.5
			c0-0.4-0.1-0.8,0-0.9c-0.1,0.3-0.1,1.2-0.1,2.2C3.8,44.8,3.9,44.8,3.9,44.9z"/>
	</g>
</g>
</svg>
