<svg enable-background="new 0 0 100 100" viewBox="0 0 100 100" xmlns="http://www.w3.org/2000/svg"><g fill="#fff"><path d="m50 9.01c13.35 0 14.93.05 20.2.29 4.87.22 7.52 1.04 9.28 1.72 2.33.91 4 1.99 5.75 3.74s2.83 3.42 3.74 5.75c.68 1.76 1.5 4.41 1.72 9.28.24 5.27.29 6.85.29 20.2s-.05 14.93-.29 20.2c-.22 4.87-1.04 7.52-1.72 9.28-.91 2.33-1.99 4-3.74 5.75s-3.42 2.83-5.75 3.74c-1.76.68-4.41 1.5-9.28 1.72-5.27.24-6.85.29-20.2.29s-14.93-.05-20.2-.29c-4.87-.22-7.52-1.04-9.28-1.72-2.33-.91-4-1.99-5.75-3.74s-2.83-3.42-3.74-5.75c-.68-1.76-1.5-4.41-1.72-9.28-.25-5.26-.3-6.84-.3-20.19s.05-14.93.29-20.2c.22-4.87 1.04-7.52 1.72-9.28.91-2.33 1.99-4 3.74-5.75s3.42-2.83 5.75-3.74c1.76-.68 4.41-1.5 9.28-1.72 5.28-.25 6.86-.3 20.21-.3m0-9.01c-13.58 0-15.28.06-20.61.3-5.32.24-8.96 1.09-12.14 2.32-3.29 1.28-6.08 2.99-8.86 5.77s-4.49 5.57-5.77 8.86c-1.24 3.18-2.08 6.82-2.32 12.14-.24 5.33-.3 7.03-.3 20.61s.06 15.28.3 20.61c.24 5.32 1.09 8.96 2.32 12.14 1.28 3.29 2.99 6.08 5.77 8.86s5.57 4.49 8.86 5.77c3.18 1.24 6.82 2.08 12.14 2.32 5.33.24 7.04.3 20.61.3s15.28-.06 20.61-.3c5.32-.24 8.96-1.09 12.14-2.32 3.29-1.28 6.08-2.99 8.86-5.77s4.49-5.57 5.77-8.86c1.24-3.18 2.08-6.82 2.32-12.14.24-5.33.3-7.04.3-20.61s-.06-15.28-.3-20.61c-.24-5.32-1.09-8.96-2.32-12.14-1.28-3.29-2.99-6.08-5.77-8.86s-5.57-4.49-8.86-5.77c-3.18-1.24-6.82-2.08-12.14-2.32-5.33-.24-7.03-.3-20.61-.3z"/><path d="m50 24.32c-14.18 0-25.68 11.5-25.68 25.68s11.5 25.68 25.68 25.68 25.68-11.5 25.68-25.68-11.5-25.68-25.68-25.68zm0 42.35c-9.2 0-16.67-7.46-16.67-16.67 0-9.2 7.46-16.67 16.67-16.67 9.2 0 16.67 7.46 16.67 16.67 0 9.2-7.47 16.67-16.67 16.67z"/><circle cx="76.69" cy="23.31" r="6"/></g></svg>