<?xml version="1.0" encoding="utf-8"?>
<!-- Generator: Adobe Illustrator 23.0.3, SVG Export Plug-In . SVG Version: 6.00 Build 0)  -->
<svg version="1.1" xmlns="http://www.w3.org/2000/svg" xmlns:xlink="http://www.w3.org/1999/xlink" x="0px" y="0px"
	 viewBox="0 0 100 100" style="enable-background:new 0 0 100 100;" xml:space="preserve">
<style type="text/css">
	.st0{fill:#FFFFFF;}
</style>
<g id="Dark_Blue">
</g>
<g id="Logo__x2014__FIXED">
	<g>
		<path class="st0" d="M50,9.01c13.35,0,14.93,0.05,20.2,0.29c4.87,0.22,7.52,1.04,9.28,1.72c2.33,0.91,4,1.99,5.75,3.74
			c1.75,1.75,2.83,3.42,3.74,5.75c0.68,1.76,1.5,4.41,1.72,9.28c0.24,5.27,0.29,6.85,0.29,20.2s-0.05,14.93-0.29,20.2
			c-0.22,4.87-1.04,7.52-1.72,9.28c-0.91,2.33-1.99,4-3.74,5.75c-1.75,1.75-3.42,2.83-5.75,3.74c-1.76,0.68-4.41,1.5-9.28,1.72
			c-5.27,0.24-6.85,0.29-20.2,0.29s-14.93-0.05-20.2-0.29c-4.87-0.22-7.52-1.04-9.28-1.72c-2.33-0.91-4-1.99-5.75-3.74
			c-1.75-1.75-2.83-3.42-3.74-5.75c-0.68-1.76-1.5-4.41-1.72-9.28C9.06,64.93,9.01,63.35,9.01,50S9.06,35.07,9.3,29.8
			c0.22-4.87,1.04-7.52,1.72-9.28c0.91-2.33,1.99-4,3.74-5.75c1.75-1.75,3.42-2.83,5.75-3.74c1.76-0.68,4.41-1.5,9.28-1.72
			C35.07,9.06,36.65,9.01,50,9.01 M50,0C36.42,0,34.72,0.06,29.39,0.3c-5.32,0.24-8.96,1.09-12.14,2.32
			c-3.29,1.28-6.08,2.99-8.86,5.77c-2.78,2.78-4.49,5.57-5.77,8.86c-1.24,3.18-2.08,6.82-2.32,12.14C0.06,34.72,0,36.42,0,50
			c0,13.58,0.06,15.28,0.3,20.61c0.24,5.32,1.09,8.96,2.32,12.14c1.28,3.29,2.99,6.08,5.77,8.86c2.78,2.78,5.57,4.49,8.86,5.77
			c3.18,1.24,6.82,2.08,12.14,2.32c5.33,0.24,7.04,0.3,20.61,0.3s15.28-0.06,20.61-0.3c5.32-0.24,8.96-1.09,12.14-2.32
			c3.29-1.28,6.08-2.99,8.86-5.77c2.78-2.78,4.49-5.57,5.77-8.86c1.24-3.18,2.08-6.82,2.32-12.14c0.24-5.33,0.3-7.04,0.3-20.61
			s-0.06-15.28-0.3-20.61c-0.24-5.32-1.09-8.96-2.32-12.14c-1.28-3.29-2.99-6.08-5.77-8.86c-2.78-2.78-5.57-4.49-8.86-5.77
			c-3.18-1.24-6.82-2.08-12.14-2.32C65.28,0.06,63.58,0,50,0L50,0z"/>
		<path class="st0" d="M50,24.32c-14.18,0-25.68,11.5-25.68,25.68S35.82,75.68,50,75.68S75.68,64.18,75.68,50S64.18,24.32,50,24.32z
			 M50,66.67c-9.2,0-16.67-7.46-16.67-16.67c0-9.2,7.46-16.67,16.67-16.67c9.2,0,16.67,7.46,16.67,16.67
			C66.67,59.2,59.2,66.67,50,66.67z"/>
		<circle class="st0" cx="76.69" cy="23.31" r="6"/>
	</g>
</g>
</svg>
