<?xml version="1.0" encoding="utf-8"?>
<!-- Generator: Adobe Illustrator 22.0.0, SVG Export Plug-In . SVG Version: 6.00 Build 0)  -->
<svg version="1.1" id="Layer_1" xmlns="http://www.w3.org/2000/svg" xmlns:xlink="http://www.w3.org/1999/xlink" x="0px" y="0px"
	 viewBox="0 0 1400 29" style="enable-background:new 0 0 1400 29;" xml:space="preserve">
<style type="text/css">
	.st0{fill:#F5F9FC;}
</style>
<path class="st0" d="M1017.4,27.3c-2-0.3-16.3,0-19,0.1C940.8,27.9,1024.3,28.5,1017.4,27.3z"/>
<path class="st0" d="M818.4,26.7c-3.7-0.6-55.3,0.1-57.1,0.2C708.9,27.7,827.5,28.2,818.4,26.7z"/>
<path class="st0" d="M504.1,26.2c0.1,0,0.2,0,0.3,0C504.3,26.2,504.3,26.2,504.1,26.2L504.1,26.2z"/>
<path class="st0" d="M504.5,26.2C504.7,26.3,504.7,26.3,504.5,26.2L504.5,26.2z"/>
<path class="st0" d="M503.9,26.2c-0.3,0-0.5-0.1-0.7-0.1C503.3,26.1,503.5,26.2,503.9,26.2z"/>
<path class="st0" d="M451.8,26.3c-42.8,0.4,20.8,1.2,14.3,0C464.8,26.1,453.7,26.3,451.8,26.3z"/>
<path class="st0" d="M1222.7,25.2c3.5,0.5,21.2-0.5,18.4-0.8C1237.5,23.8,1219.9,24.8,1222.7,25.2z"/>
<path class="st0" d="M1167.8,23.6c-9,0.2-128.4,0.3-128.7,0.3c-37.5,0.9,156.3,0.9,149.5-0.1C1186.4,23.5,1176.8,23.5,1167.8,23.6z"
	/>
<path class="st0" d="M1391.1,22.5c0.2,0,0.3,0,0.4,0.1h-0.1C1391.4,22.5,1391.3,22.5,1391.1,22.5z"/>
<path class="st0" d="M1390.7,22.5c-0.1,0-0.2,0-0.3,0C1390.5,22.3,1390.5,22.3,1390.7,22.5z"/>
<path class="st0" d="M1315,21.9c-42.4,0.4,21.3,0.9,14.2,0C1327.8,21.7,1316.9,21.9,1315,21.9z"/>
<path class="st0" d="M1183.3,22.9c3.5,0.5,21.2-0.4,18.4-0.8C1198.1,21.7,1180.5,22.6,1183.3,22.9z"/>
<path class="st0" d="M502.9,22.5L502.9,22.5c0,0-0.1,0-0.2,0C502.8,22.5,502.8,22.5,502.9,22.5z"/>
<path class="st0" d="M502.7,22.5c-0.3,0-0.5-0.1-0.7-0.1C502.1,22.3,502.4,22.5,502.7,22.5z"/>
<path class="st0" d="M479.5,23.5c1.4,0.3,11.5-0.5,9.2-0.9C487.3,22.2,477,23.1,479.5,23.5z"/>
<path class="st0" d="M464.1,22.3c0.4,0.1,1.2,0.2,1.3,0.2c-0.1,0-0.2,0-0.5-0.1C464.5,22.5,464.3,22.3,464.1,22.3z"/>
<path class="st0" d="M1224.4,21.2c-1.5-0.2-11.3,0.4-8.9,0.8C1217,22.3,1226.9,21.7,1224.4,21.2z"/>
<path class="st0" d="M2.6,0v6.2C2.4,5.4,2.2,2.6,1.8,0H0c-0.2,6.3,0.8,13.7,1.9,19.8l0.1,0.7l0.5-0.1c1.3-0.1,2.5-0.4,3.7-0.5h21.5
	c-6.7,0.2-12.9,0.5-18.2,0.9c-7.8,0.6,8.7,1,4.8,1c24.9,0.4,43.3,0,66.3,0c45-0.1,80.9,1,115.4,1.6c34.5,0.7,205.7,0.9,245.3-0.7
	c20.6-0.8-189.6-0.9-199.7-0.9c-57.9-0.4,150-1.1,185.1-1c57,0.3,98.2,0.5,161.3,0.9c83.7,0.2-25.5,0-61.2,1
	c-42.3,1.2,48.1,0.6,66.7,0.8c2.6,0,191.2-0.1,194.8-0.1c11.1-0.1,24.1-0.1,37.6-0.1c-16.8,0.5-31.2,1.1-32.4,1
	c4.9,0.8,25.9,0.5,45.8,0c9.9-0.3,151.4-0.5,158.6-0.7c7.2-0.2,12-0.4,12.4-0.3c-0.2,0-0.4,0-0.5-0.1c8.9-0.1,17.1-0.4,23.7-0.8
	c15-0.9-23.1-0.8-24.2-0.8c-82.1,0.1-450.1-1.2-518.1-1.6h541.8c1.6,0.1,4.2,0.1,6.8,0h138.2c0.7,0,1.6,0,2.6,0h208.8V9.2
	c0.2,0.5,0.4,0.9,0.6,1.3c1.2,2.4,6.3,11.8,7.2,6.9c0.4-2.1,2.8-8.4,3-17.3C1400,0,2.6,0,2.6,0z M203.6,21.7
	c-23.5,0.3-60.5-0.8-97.3-1.5c-5.5-0.1-10.8-0.2-16.3-0.3h123.1C210.7,20.7,211.5,21.6,203.6,21.7z"/>
</svg>
