<?xml version="1.0" encoding="utf-8"?>
<!-- Generator: Adobe Illustrator 22.0.0, SVG Export Plug-In . SVG Version: 6.00 Build 0)  -->
<svg version="1.1" id="Layer_1" xmlns="http://www.w3.org/2000/svg" xmlns:xlink="http://www.w3.org/1999/xlink" x="0px" y="0px"
	 viewBox="0 0 1400 26" style="enable-background:new 0 0 1400 26;" xml:space="preserve">
<style type="text/css">
	.st0{fill:#F5F9FC;}
</style>
<g>
	<path class="st0" d="M1178.1,3.2c-0.2-0.1,2.2-0.1,6.5-0.1s10.3-0.1,17.5-0.1c14.4-0.1,13.8-0.1,30.9-0.2
		c34.1-0.2,61.5-0.6,34.4-1.6c-26.6-1-36-0.6-61.3,0C1174.6,1.9,1169.5,0,1178.1,3.2z"/>
	<path class="st0" d="M580.4,0.7C576.1-0.2,569,0,563,0.5c-3,0.2-5.8,0.5-7.7,0.8c-1,0.1-1.8,0.2-2.3,0.3c-0.6,0.1-0.9,0.1-0.9,0.1
		C550.8,3.5,590.8,2.9,580.4,0.7z"/>
	<path class="st0" d="M783.6,2.6c4.6,0.2,9.2,0.5,10,0.6c35.6,0.9,219.8,0.3,244.9,0c-8.6,0.1,142-1.1,130.3-2
		c-10.1-0.8-290.8-0.7-326-0.3c-17.6,0.3-34.6,0.5-47.2,0.7c-6.3,0.1-11.4,0.3-15.1,0.3C778.6,2,777.2,2,776.3,2
		c-0.5,0-0.8,0-1.1,0.1c-0.2,0-0.4,0-0.4,0s1.1,0,2.7,0.1C779.1,2.4,781.2,2.5,783.6,2.6z"/>
	<path class="st0" d="M60.4,2.7c94.5-0.5-15-3.4-28.3,0C29.8,3.3,53.9,2.8,60.4,2.7z"/>
	<path class="st0" d="M112.4,2.7C140.9,5.2,142.4-0.9,112.4,2.7L112.4,2.7z"/>
	<path class="st0" d="M211.5,2.7c4,0.9,55.1,0,56.6,0C335,2.2,201.7,0.6,211.5,2.7z"/>
	<path class="st0" d="M453,2.7c1.3,0.3,11.6-0.5,9.4-1C461.1,1.4,450.7,2.2,453,2.7z"/>
	<path class="st0" d="M482.5,3c2.4-0.3,4.5-0.6,6-0.8c1.5-0.3,2.3-0.5,2.2-0.5c-2.6-0.6-23.6,1-23.6,1C471.8,3.7,477.8,3.5,482.5,3z
		"/>
	<path class="st0" d="M514.3,1.7c-2.4-0.5-16.6,0.5-14.2,1S516.7,2.2,514.3,1.7z"/>
	<path class="st0" d="M168.9,2.7c-2.4-0.5-16.5,0.5-14.2,1C157.2,4.3,171.4,3.2,168.9,2.7z"/>
	<path class="st0" d="M183.1,3.8c1.3,0.3,11.6-0.5,9.4-1C191.2,2.4,180.9,3.3,183.1,3.8z"/>
	<path class="st0" d="M201.9,3.8c-0.2-0.1-0.4-0.1-0.4-0.1C201.9,3.7,204.4,4.3,201.9,3.8z"/>
	<path class="st0" d="M1347.6,3.2c-2.4-0.5-16.5,0.5-14.2,1C1335.8,4.7,1350,3.7,1347.6,3.2z"/>
	<path class="st0" d="M1395.4,26c0-5.1,0.1-9.8,0.4-13.8l0.5-6.5l-7.5-0.5c-2.9-0.2-5.5-0.5-7.6-0.9c-25,0.5-87.2,1-155.7,1
		c-225,0-934.8,1.6-1140.9,3C58,8.4,31.1,8.2,4.6,7.8H0.2l-0.1,4.4c0,4.1,0,8.8-0.1,13.8H1395.4z M1367,11.3
		c1.3,0.3-1.6,0.7-4.7,0.9h-5.1C1357,11.7,1365.8,11,1367,11.3z M1338.7,11.3c2.6,0.2-13.6,0.7-18.7,0.9h-107
		C1239.6,11.5,1299.3,7.9,1338.7,11.3z M590.5,12.2H425.9C460.5,11.1,545.2,11.9,590.5,12.2z M215.7,12.2h-6.9
		C211.7,12.1,214.2,12.1,215.7,12.2z M94.8,11.6c0.7-0.3,1.8-0.6,3.8-0.4c-1-0.1,3.4,0.3,10,0.9H94C94.2,12.1,94.4,11.8,94.8,11.6z"
		/>
	<path class="st0" d="M1356.9,2.2c8.5,0,17.6,0.1,31.1,0.1h9.9v9.8c0,3.7,0,8.4-0.1,13.8h2.2c0-4.6,0-8.6,0-12c0-0.8,0-1.5,0-1.9V0
		h-11.9c-37.9,0-59.3,0.5-73.4,1C1278,2.5,1358.3,2.2,1356.9,2.2z"/>
	<path class="st0" d="M1396.1,12.2c-0.1,6.2-0.8,10.7-0.7,13.8h3c0.1-3.5-1-8.4-1.4-13.8l-0.7-9.3l-8.1,0.6c-2.4,0.2-5,0.4-7.6,0.7
		c2.7,0.1,5.3,0.1,7.6,0.2l7.9,0.2L1396.1,12.2z"/>
</g>
</svg>
