<?xml version="1.0" encoding="utf-8"?>
<!-- Generator: Adobe Illustrator 22.0.0, SVG Export Plug-In . SVG Version: 6.00 Build 0)  -->
<svg version="1.1" id="Layer_1" xmlns="http://www.w3.org/2000/svg" xmlns:xlink="http://www.w3.org/1999/xlink" x="0px" y="0px"
	 viewBox="0 0 966.4 684.6" style="enable-background:new 0 0 966.4 684.6;" xml:space="preserve">
<style type="text/css">
	.st0{fill-rule:evenodd;clip-rule:evenodd;fill:#FCF8EF;}
</style>
<g>
	<g>
		<path class="st0" d="M949.6,676.3c0.1,0,0.4-0.1,0.7-0.3C950.1,676.2,949.8,676.2,949.6,676.3z M561.8,674.2
			c-0.9,0-1.7,0.1-2.6,0.1C559.7,674.4,560.5,674.4,561.8,674.2z M954,673.7c0.1-0.2,0.1-0.3-0.1-0.2
			C953.9,673.6,954,673.7,954,673.7z M28.9,679.2c-14.8,0.2,6.5,1.8,4.9,0.1C33.4,678.8,29.6,679.2,28.9,679.2z M14.2,680.1
			c0.6,0.6,4.3-0.5,3.7-1.2C17.3,678.3,13.6,679.5,14.2,680.1z M248.8,682.5c0.7,0.7,6.1-1.1,6.1-1.1
			C252.5,678.9,248.7,682.5,248.8,682.5z M108.4,675.9c-0.6-0.6-4.3,0.5-3.7,1.2C105.3,677.7,109,676.5,108.4,675.9z M77.9,674
			C78.4,674.5,77.1,673.2,77.9,674L77.9,674z M200.1,675.3c17-2.3-18.8-0.5-14.7,0.9C191,678.3,196.3,675.8,200.1,675.3z M436,670.3
			C436.2,674,441.1,669.2,436,670.3L436,670.3z M824.4,677.2c-11.5,0.6,6.2,1.5,4.9,0.1C828.9,676.8,825.1,677.1,824.4,677.2z
			 M813.4,678.2c0.3,0.3,3-0.6,2.5-1.2C815.5,676.6,812.8,677.6,813.4,678.2z M847.4,676.2c0.1,0.1,0.1,0.1,0.2,0.2c0,0,0,0,0,0
			C847.6,676.3,847.5,676.2,847.4,676.2z M4.7,107.7C4.4,106.1,4.1,107.8,4.7,107.7L4.7,107.7z M4.8,96.9c-0.5-0.1-0.5,1.7,0,2.2
			C5.3,99.5,5.1,96.9,4.8,96.9z M5.1,75.2c0.1-0.3-0.2-2.7-0.4-2.2C4.6,73.3,4.9,75.7,5.1,75.2z M5.4,49.2
			C5.8,48.5,5.3,49.6,5.4,49.2L5.4,49.2z M4.8,132.7c1.1-2.4-0.3-9.8-0.3-9.8C3.9,124.3,5.3,131.6,4.8,132.7z M4.9,121.8
			C4.7,122.3,5.2,121.1,4.9,121.8L4.9,121.8z M4.7,107.7C4.9,109.3,5.2,107.6,4.7,107.7L4.7,107.7z M4.9,89.3
			c-0.2,0.5,0.2,3.8,0.4,3.3C5.6,92,5.2,88.7,4.9,89.3z M5,154.4c0.1-0.3,0-2.8,0-3.3C5,141.3,4.4,155.7,5,154.4z M4.7,143.5
			c-0.2,0.5,0.2,3.8,0.4,3.3C5.3,146.3,4.9,143,4.7,143.5z M6.5,40.5c0.2-0.4,0.1-3.7,0.1-4.3C6.5,23,5.9,41.9,6.5,40.5z M5,184.8
			c0.3-0.7-0.1-4.9-0.4-4.4C4.3,181.1,4.8,185.3,5,184.8z M5.1,177.2c0.3-0.7-0.1-4.9-0.4-4.4C4.4,173.5,4.9,177.7,5.1,177.2z
			 M7.8,282.7c1.6,4.8-0.2,43.8,1.1,51.1c0.4,2.1,0.2-12.1,0.2-14.1c-0.1-20.5,0.5-38.2-0.2-55.4c-0.4-11.7-0.8-21.7-0.9-33.7
			c-0.1-17.8,0.2-37.3-0.2-56.4c-0.4-19.7,0.2-41.9-0.1-60.8C7.5,98.8,8.6,77.8,8,62.4c-0.1-1.8-0.8-5.8-0.8-7.7
			c0,0,0.9-1.5,0.9-2.1c0.9-7.2-0.8-0.1-0.8-4.4C7.2,41.1,7.9,20,7,31.9c-1.7,23.6-1.3,63.2-1.1,84.6C6,137.9,5.9,157,6,175.1
			c0.2,28.9-0.7,55.4,1.2,82.6c-0.1-1,0.5-3.5,0.5-3.2c1.1,9.6-0.2,23.1,0,32.6C7.7,286.2,8,283.2,7.8,282.7z M6.8,85.1
			C6.6,85.5,7.1,84.4,6.8,85.1L6.8,85.1z M6.8,186C7.1,185.3,6.6,186.4,6.8,186L6.8,186z M7.3,11.3C7.4,11,7.1,8.6,6.9,9.1
			C6.8,9.4,7.1,11.8,7.3,11.3z M7.4,3.7C7.2,4.2,7.7,3,7.4,3.7L7.4,3.7z M4.9,192.4c-0.3,0.7,0.1,4.9,0.4,4.4
			C5.6,196,5.1,191.8,4.9,192.4z M5,188c-0.1,0.3,0.2,2.7,0.4,2.2C5.5,189.9,5.2,187.5,5,188z M5.5,211.9
			C5.4,212.4,5.8,211.3,5.5,211.9L5.5,211.9z M8.3,137.3c0.1,13-0.2,23.9,0,36.9c0.2,22.3,0.9,56.7,1.1,83.7
			c0.1,6.5,0.6,39.3,1.1,50c0.8,15.7,0.3-5.2,0.2-15.2c-0.1-12.6-0.6-36.6-0.7-47.8c-0.2-23.1,0.7-43.2-0.1-61.1
			c0.1,3.7-0.1,7.1-0.6,5.7c-1-3.2,0.5-18.2,0.3-26c0,1.1-0.4,2.8-0.5,1.1c-0.2-4.1,0.8-11.8,0.7-19.5c0-2.1-0.7-4.1-0.8-6.6
			c-0.5-12,1-12.7,1-7.8c0.1-5.3-0.7-8.4-0.8-10.7c-0.1-10.2,0.8-19.4,0.4-28.2c0.1,1.1-0.4,4.8-0.5,4.3C8.8,93,9.5,85.8,9.5,80.9
			C9.8,66.2,11,55.7,9.6,44c-0.6-5-0.7,18.8-0.8,23.8C8.3,103.2,8.2,110.4,8.3,137.3z M9.3,98.3c0.2-0.5,0.5,1.9,0.4,2.2
			C9.5,101,9.2,98.6,9.3,98.3z M9.2,102.6c0.2-0.5,0.6,2.7,0.4,3.3C9.4,106.4,9,103.2,9.2,102.6z M9.6,39.7c0.2-0.5-0.2-3.8-0.4-3.3
			C9,37,9.4,40.2,9.6,39.7z M9.8,27.8c0.2-0.5-0.2-3.8-0.4-3.3C9.1,25,9.5,28.3,9.8,27.8z M7.1,267.4c-0.3,0.7,0.1,4.9,0.4,4.4
			C7.8,271.1,7.3,266.9,7.1,267.4z M10.1,72.3c-0.8,1.9,1,11.3,0.3,13C11.7,82.2,9.7,73.2,10.1,72.3z M7.8,347.8
			C7.6,348.2,8.1,347.1,7.8,347.8L7.8,347.8z M7.9,370.6c-0.3,0.6,0.4,5.5,0.4,5.5C9.2,373.9,8,370.5,7.9,370.6z M10.7,198.2
			c0,0,0,0.1,0,0.1C10.7,198.3,10.7,198.3,10.7,198.2C10.7,198.2,10.7,198.2,10.7,198.2z M12.8,39.9c0.2-0.5-0.2-3.8-0.4-3.3
			C12.1,37.2,12.5,40.5,12.8,39.9z M8.6,390.2C8.4,390.6,8.9,389.5,8.6,390.2L8.6,390.2z M8.6,386.9c0.3-0.7-0.1-4.9-0.4-4.4
			C7.9,383.2,8.4,387.5,8.6,386.9z M9,357.6c0.1-0.3-0.2-2.7-0.4-2.2C8.5,355.7,8.8,358.1,9,357.6z M9.1,353.3
			c0.2-0.5-0.2-3.8-0.4-3.3C8.4,350.5,8.8,353.8,9.1,353.3z M8.9,402.1c0.3-0.7-0.1-4.9-0.4-4.4C8.2,398.4,8.6,402.7,8.9,402.1z
			 M9.3,370.7c0.2-0.4,0.1-3.7,0.1-4.3C9.3,353.2,8.7,372.1,9.3,370.7z M9.2,414.1c0.1-0.3-0.2-2.7-0.4-2.2
			C8.6,412.2,8.9,414.6,9.2,414.1z M9.2,409.7c0.9-2.1-0.4-5.5-0.4-5.5C8.6,404.9,9.2,409.7,9.2,409.7z M9.7,374
			c-0.3-8.7-0.7,10-0.1,8.7C10,381.8,9.7,373.8,9.7,374z M11.2,258c0.3-0.7-0.1-4.9-0.4-4.4C10.5,254.3,11,258.5,11.2,258z
			 M9.4,428.2c0.2-0.5-0.2-3.8-0.4-3.3C8.8,425.5,9.2,428.7,9.4,428.2z M9.5,421.7C9.8,421,9.3,422.1,9.5,421.7L9.5,421.7z
			 M9.9,389.2C9.3,389.8,10,390.5,9.9,389.2L9.9,389.2z M11.2,325.2c-0.2-8.5-0.6-15.3-0.4-4.4C11,327.5,11.5,334,11.2,325.2z
			 M11.8,246.1C12.1,245.4,11.6,246.5,11.8,246.1L11.8,246.1z M9.7,443.4c0.1-0.3-0.2-2.7-0.4-2.2C9.1,441.5,9.5,443.9,9.7,443.4z
			 M9.3,434.7c-0.3,0.7,0.1,4.9,0.4,4.4C10,438.4,9.6,434.2,9.3,434.7z M9.7,405.4c-0.3,0.6,0.4,5.5,0.4,5.5
			C11,408.8,9.8,405.4,9.7,405.4z M10.2,401.1C8.9,402.3,10.7,406.9,10.2,401.1L10.2,401.1z M10,455.4C10.5,449.7,8.6,454,10,455.4
			L10,455.4z M10.1,448.9c0.3-0.7-0.1-4.9-0.4-4.4C9.4,445.2,9.8,449.4,10.1,448.9z M11.1,337.2c-0.7,1.6,0.3,10.5,0.3,10
			c0,1.7-0.2,3.6-0.1,5.3C12.4,366.4,12,335,11.1,337.2z M10,455.4C9.5,459.8,11.3,455.7,10,455.4L10,455.4z M10.6,476
			C11.3,465.7,9.3,470.2,10.6,476L10.6,476z M10.8,488.9c0.3,6.6,0.7,14.3,0.1,1.3C10.8,489.7,10.8,489.3,10.8,488.9z M10.5,482.5
			c-1.4,10.3-0.2,1,0.3,6.3C10.6,485.6,10.5,482.6,10.5,482.5z M10.6,476C10,481.8,11.9,477.4,10.6,476L10.6,476z M11.4,514.1
			c1.1-2.4-0.3-9.8-0.3-9.8C10.5,505.7,11.9,513,11.4,514.1z M11.7,526.1c0.4-0.8,0.1-8.8,0.1-8.7C11.5,508.7,11.1,527.4,11.7,526.1
			z M964.2,30.2c-0.5-5.5-2.5-23.2-3.4-24.6c-2.5-4.1-1.4,0-4.5,0.3c-0.9,0.1-1.3-0.4-1.8-0.8V3.9h-0.5V3.5L954,3.9h-4.8
			c-0.1-0.2-0.2-0.4-0.2-0.4c-0.1,0.1-0.2,0.3-0.2,0.4H14.2v292.2c-0.1-2.7-0.2-4.9-0.2-6.4c-0.2-14.5-0.3-25.4-0.4-34.8
			c-1.3-67.9-0.4-125.4-0.6-195.4c0-1.8-0.5-16.8-0.7-16.3c-1,2.3-0.5,33.4-0.5,39c-0.2,17.8,0,33.8,0,35.8
			c0.2,68.5,1,118.4,1.6,181.4c0.1,5.4,0.5,15.8,0.8,21.3v72.1c-0.4-5.9-0.8-11.3-0.9-15.2c-0.2-7.8,0.3-5-0.3-12
			c0.8,8.8-1.6-7.4-1.2-8.8c-0.8,2.6,0.1,15.7,0.2,20.6c0.2,9.3-0.1,20,0.1,28.2c0.1,4.6,1.2,16.5,1.4,31.6c0.1,8.1-0.1,11,0.2,19.6
			c0-0.2,1.2,8-0.1,7.6c-0.6-0.2-0.5-9.8-0.4-6.5c-1.3-38-1.7-75.9-3.4-115.3c-0.7-15.6-0.4,4.3-0.2,13c0.2,10.5,0.9,22.4,0.5,33.7
			c1,1.9,0.1,8.3,0.3,12c1.1,10.9-0.1,24.5,0,34.7c0,1.9,0.7,2.8,0.8,5.5c0.2,4.6-0.4,11-0.2,17.3c0.7,24.6,3,54.6,1.6,82.6
			c-0.5,10.5,0.2-11.5-1.2-13.1c0.1,0.1,0.5,21.1,0.6,25c0.1,9.5-0.3,22.6-0.5,35.8c-0.2,14.1-0.5,26.8-1,37.9
			c-0.5,12.2-1.6,32.6-0.5,36.9c-0.5-1.9,1.1-16.5,1-5.4c0,3.6,0,6.5,0.8,8.7c-1.1-3.2,2.1-4.3,1.9-5.3c0.2,0.8,0.1,11.4,0.9,2.2
			c0.1-0.7,0.1-2.1,0.2-3.6h0.8c-0.3,2.4-0.4,4.9,0.4,5.7c-0.1,0.1-0.2,0.2-0.1,0.3c0.8,0.8,5.5-0.5,4.9-1.1
			c-0.5-0.5-2.3-0.2-3.6,0.2c0.3-1,0.5-2.8,0.7-5.1h57.9c4.5,0.4,13.1,0.1,11,0c44.6,2.1,92,2.4,132,0.3c15.6-0.8,33,1.5,51.3,1.1
			c11.4-0.3,23.2-0.8,35.2-1.4h188.1c-7.1,0.3-13.9,0.5-20.4,0.7c-56,1.3-127.4,0-177.2,1.3c-33.2,0.8-64.2,1-100.3,2.9
			c-26.9,1.4-61.4-1.9-101.4-0.9c-10.6,0.3-42.4,1.3-56.2,0.1c-3.5-0.3-13.8,1.1-0.1,2.5c32.3,3.2,52.4-0.1,86.7,0.6
			c13.1,0.3,42,0.9,24.4,3c-12.4,1.5-1.2,0-18.3-0.4c-29.2-0.7-66,2.3-95.3,1.7c-16.3-0.3,13.8,1.6,18.3,1.6
			c9.1,0.1,15.2,0.6,19.5,0.4c-3.3,0.1,4.4-1.2,3.7-1.2c7-0.3,33.6,0.2,41.5,2.1c2.1,0.5,12.2,0.8,3.7-1.2c-13.1-3.1,7.9,0,11,0.2
			c5.8,0.4,12-0.1,15.9,0.3c7.3,0.8,14,3.8,21.9,2.9c2.6-0.3,6-2.9,9.8-3.5c12.9-2.1,32.9,0,45.2-0.3c5.6-0.1,20-0.9,18.3,0.4
			c0.2-0.1-11.4,0.8-11,1c5.5,3.6,11.9-1,22-2c5.1-0.5,14.6-0.4,14.6,1.5c0,0-3.4-0.1-3.7-0.1c5.1,0.5,11.3-0.2,19.6-0.8
			c3-0.2,6.6-1.3,8.6-1.1c2.7,0.3,5.9,2.8,8.5,2.7c2.2-0.1,6.5-3.5,12.3-3.5c0.3,0,3.9,1.1,4.9,1.3c15.9,3.7-26.1,3-29.4,3.1
			c-11.7,0.2-26.2,0.2-37.9,0.5c-16.3,0.4-27.4-0.2-39.1,0.4c-2,0.1-11.3,2.2-14.7,2.2c-2.9,0-11.1-1.5-12.2-1.5
			c-5.8,0.2-7.8,2.3-14.7,2.2c-14.1-0.3-32.9-2.2-47.6-2.2c-30.8,0-55.4,0.9-80.7,2c-6.7,0.3-9.6,0.3-1.2,1.2
			c12.3,1.3,28.7,0,37.9-0.5c24.8-1.3,52.7,2.5,80.8,3c-0.8,0.2-1.8,0.8-1.4,1.1c0.3,0.3,2.8-0.5,2.5-1.1c1.6,0,3.2,0,4.8,0
			c17.1,0,33.4-2.5,48.9-2.7c11.9-0.2,22.4,0,33-0.6c14.1-0.7,34.5,3.4,43.9,2.2c-0.3,0,1.3-2.3,4.9-2.4
			c93.7-2.3,182.8-2.1,261.5-5.6c-2.1-0.5,1.5-3.2,2.6-0.1c43-1.6,105.3-1.5,172.3-0.1c36.4,0.8,87.6,2,123.4,1.3
			c7.6-0.1,15.1-2.4,22-2c1.2,0.1,1,2.2,2.4,2.5c5.6,1.2,20.3-0.1,31.8,0.7c13.9,0.9,27.7,3.1,36-0.2c-1.1,0.3,3.4-2.7,4.3-2.9
			c0-0.3,0-0.8,0.1-1.4c0.1,0,0.2,0,0.3,0l5.3-0.2l0-4.9c-0.3-39.3-1.1-80.3-0.9-120.9c0.3-57.3,4.9-118.2,5-179
			c0.1-84.4,2.7-176.3,2.7-260.8C966.3,82.8,966.5,57.8,964.2,30.2z M11.4,651.9c-0.2,0.5-0.7-3.7-0.4-4.4
			C11.3,647,11.7,651.2,11.4,651.9z M11.5,646.5c-0.2,0.5-0.6-2.8-0.4-3.3C11.3,642.7,11.7,646,11.5,646.5z M12.6,561.9
			c-0.2,0.5-0.6-2.8-0.4-3.3C12.4,558.1,12.8,561.4,12.6,561.9z M12.7,553.3c-0.2,0.5-0.6-2.8-0.4-3.3
			C12.6,549.4,13,552.7,12.7,553.3z M14.2,483c0-0.1,0-0.1-0.1-0.2c0.1,0.4-1.1-3.7-0.4-5.5c0.2-0.3,0.3,0,0.4,0.6V483z
			 M538.7,660.5h3.3c-0.8,0.6-2.4,1.7-3.2,0.8C538.6,661,538.6,660.7,538.7,660.5z M225.8,669.6c-8.7,0.2-22.1,0-37.9,0.5
			c-8,0.2-18,2.1-28.1-0.6c-11.3-2.9,8.6-0.9,11-1c18.5-1.2,49.2-2.1,64.8-2.4c3.6-0.1,11.2,0.3,13.4,1.5
			C257.9,672.6,231.1,669.5,225.8,669.6z M349.1,674.7c-8.2,0.2-9.6,0.1-17.1-0.4c2.8,0.2-10.5,2.3-6.1-1.4
			c0.4-0.3,13.5-1.8,17.1-2.1c6.1-0.6,15.1-1.5,20.8-0.8c0,0,11.8,4.7,13.4,2.8C374.5,676.2,353.4,674.6,349.1,674.7z M342,667.1
			c-17.8,0.7-36.1,0.8-53.8,1.4c-1.3,0-53.1,0.6-28.1-1.8c11.2-1.1,24.1,0.4,37.9-0.5c47.5-2.8,97.1-1.6,141.8-3.3
			c15.3-0.6,37.7-0.6,51.3-1.4c8.6-0.5,26.6,0,14.6,1.5c-2.5,0.3-5,0.6-7.6,0.9c0.1,0.2,0.5,0.5,0.2,0.2c-0.1-0.1-0.2-0.2-0.2-0.2
			C448.7,669.1,393.8,664.9,342,667.1z M475.1,669.9c-0.6-0.6,3.1-1.8,3.7-1.2C479.4,669.3,475.7,670.5,475.1,669.9z M394.4,673.2
			c-0.6-0.6,2.1-1.5,2.5-1.2C397.4,672.6,394.7,673.5,394.4,673.2z M577.8,668.3c-15.8,0.7-1.8-0.7-11-0.2
			c-6.9,0.3-65.9,4.7-86.9,5.6c-8.8,0.4-18.1-0.8-25.5-1.5c1.6-0.1,4-0.9,3.6-1.4c-0.8-0.8-5.5,0.5-4.9,1.1c0.1,0.1,0.2,0.1,0.3,0.2
			c-3.5-0.3-6.6-0.5-8.8-0.3c-4.6,0.4,2.5,2.1-4.9,2.4c-6.8,0.2-11.4,0.1-19.5-0.4c-19.9-1.2,10.4-3,16-3.4
			c14.5-3.6,30.6,1.7,45.2,0.9c1.7-0.1,0.5-2-1.2-1.3c2.7-1.3,13.7-2.3,18.4-2.1c6,0.2,1.9,2.1,4.8,2.6c10.7,1.8,19.8-4.7,39.2-4.2
			c6.3,0.2,15.2,0.7,19.5,0.4C564.3,666.5,594.7,667.5,577.8,668.3z M587.5,668.5c-0.6-0.6,3.1-1.8,3.7-1.2
			C591.8,668,588.2,669.1,587.5,668.5z M592.5,667.4c-0.1-0.1,3.8-3.6,6.1-1.1C598.6,666.2,593.1,668.1,592.5,667.4z M662.1,667.6
			c-4.3,4.2-40.2,0.7-46.4,0.3c-1.2-0.1-11.5-1-11-1.5c2.3-2.2,8.5,0.3,12.2,0.3c8.4-0.1,12.3,0.7,23.2,0.5
			C638,667.2,665,664.7,662.1,667.6z M665.8,667.6c1.5-2,17.3-2.2,19.5,0.4C687,669.9,666.7,666.4,665.8,667.6z M712.2,668.6
			c0,0-7.5,0.2-13.4-0.3c-5.9-0.5-5.5-0.3,3.7-1.2C708.4,666.6,737.4,668.1,712.2,668.6z M730.5,667.8c-0.1-0.1,3.8-3.6,6.1-1.1
			C736.7,666.6,731.2,668.5,730.5,667.8z M954.6,10.5V9.9C954.8,10.2,954.8,10.5,954.6,10.5z"/>
	</g>
</g>
</svg>
