<?xml version="1.0" encoding="utf-8"?>
<!-- Generator: Adobe Illustrator 23.0.3, SVG Export Plug-In . SVG Version: 6.00 Build 0)  -->
<svg version="1.1" xmlns="http://www.w3.org/2000/svg" xmlns:xlink="http://www.w3.org/1999/xlink" x="0px" y="0px"
	 viewBox="0 0 100 100" style="enable-background:new 0 0 100 100;" xml:space="preserve">
<style type="text/css">
	.st0{fill:#FFFFFF;}
</style>
<g id="Dark_Blue">
</g>
<g id="Logo__x2014__FIXED">
	<g>
		<path class="st0" d="M31.45,90.64c37.74,0,58.37-31.26,58.37-58.37c0-0.89-0.02-1.77-0.06-2.65c4.01-2.9,7.49-6.51,10.24-10.62
			c-3.68,1.63-7.63,2.73-11.78,3.23c4.24-2.54,7.49-6.56,9.02-11.35c-3.97,2.35-8.35,4.06-13.03,4.98
			c-3.74-3.99-9.08-6.48-14.98-6.48c-11.33,0-20.52,9.19-20.52,20.52c0,1.61,0.18,3.18,0.53,4.68C32.2,33.7,17.08,25.54,6.96,13.12
			c-1.76,3.03-2.78,6.55-2.78,10.31c0,7.12,3.62,13.4,9.13,17.08c-3.37-0.1-6.53-1.03-9.29-2.57c0,0.09,0,0.17,0,0.26
			c0,9.94,7.07,18.23,16.46,20.11c-1.72,0.47-3.54,0.72-5.41,0.72c-1.32,0-2.61-0.13-3.86-0.37c2.61,8.15,10.19,14.08,19.17,14.25
			c-7.02,5.5-15.87,8.78-25.48,8.78c-1.66,0-3.29-0.09-4.89-0.28C9.08,87.24,19.86,90.64,31.45,90.64"/>
	</g>
</g>
</svg>
