<svg enable-background="new 0 0 100 100" viewBox="0 0 100 100" xmlns="http://www.w3.org/2000/svg"><path d="m31.45 90.64c37.74 0 58.37-31.26 58.37-58.37 0-.89-.02-1.77-.06-2.65 4.01-2.9 7.49-6.51 10.24-10.62-3.68 1.63-7.63 2.73-11.78 3.23 4.24-2.54 7.49-6.56 9.02-11.35-3.97 2.35-8.35 4.06-13.03 4.98-3.74-3.99-9.08-6.48-14.98-6.48-11.33 0-20.52 9.19-20.52 20.52 0 1.61.18 3.18.53 4.68-17.04-.88-32.16-9.04-42.28-21.46-1.76 3.03-2.78 6.55-2.78 10.31 0 7.12 3.62 13.4 9.13 17.08-3.37-.1-6.53-1.03-9.29-2.57v.26c0 9.94 7.07 18.23 16.46 20.11-1.72.47-3.54.72-5.41.72-1.32 0-2.61-.13-3.86-.37 2.61 8.15 10.19 14.08 19.17 14.25-7.02 5.5-15.87 8.78-25.48 8.78-1.66 0-3.29-.09-4.89-.28 9.07 5.83 19.85 9.23 31.44 9.23" fill="#fff"/></svg>